<svg width="20" height="20" viewBox="0 0 20 20" fill="none" xmlns="http://www.w3.org/2000/svg">
<path d="M9.99003 0C4.46759 0 0 4.46759 0 9.99003C0 15.5125 4.46759 19.9801 9.99003 19.9801C15.5125 19.9801 19.9801 15.5125 19.9801 9.99003C19.9801 4.46759 15.5125 0 9.99003 0ZM14.9333 10.5692H10.4244V15.0781C10.4244 15.3883 10.1762 15.6366 9.86589 15.6366C9.5557 15.6366 9.30741 15.3884 9.30741 15.0781V10.5692H4.81913C4.50894 10.5692 4.26065 10.321 4.26065 10.0107C4.26065 9.70048 4.5088 9.45219 4.81913 9.45219H9.32809V4.94323C9.32809 4.63304 9.57624 4.38475 9.88658 4.38475C10.1968 4.38475 10.4451 4.6329 10.4451 4.94323V9.45219H14.954C15.2642 9.45219 15.5125 9.70034 15.5125 10.0107C15.4919 10.321 15.2436 10.5692 14.9334 10.5692H14.9333Z" fill="#0070BA"/>
</svg>
