<svg width="380" height="380" viewBox="0 0 380 380" fill="none" xmlns="http://www.w3.org/2000/svg">
<path opacity="0.3" d="M179.086 357.793C248.531 357.793 304.828 347.473 304.828 334.742C304.828 322.012 248.531 311.691 179.086 311.691C109.64 311.691 53.3438 322.012 53.3438 334.742C53.3438 347.473 109.64 357.793 179.086 357.793Z" fill="black"/>
<path d="M69.6914 199.355L178.197 186.48" stroke="#263238" stroke-width="0.76" stroke-miterlimit="10" stroke-dasharray="3.8 3.8"/>
<path d="M72.7539 151.406L181.404 176.395" stroke="#263238" stroke-width="0.76" stroke-miterlimit="10" stroke-dasharray="3.8 3.8"/>
<path d="M90.0977 111.105L176.814 164.161" stroke="#263238" stroke-width="0.76" stroke-miterlimit="10" stroke-dasharray="3.8 3.8"/>
<path d="M138.555 107.539L187.012 162.624" stroke="#263238" stroke-width="0.76" stroke-miterlimit="10" stroke-dasharray="3.8 3.8"/>
<path d="M190.584 70.8086V160.587" stroke="#263238" stroke-width="0.76" stroke-miterlimit="10" stroke-dasharray="3.8 3.8"/>
<path d="M268.622 67.7539L201.803 163.134" stroke="#263238" stroke-width="0.76" stroke-miterlimit="10" stroke-dasharray="3.8 3.8"/>
<path d="M304.333 102.949L205.373 169.768" stroke="#263238" stroke-width="0.76" stroke-miterlimit="10" stroke-dasharray="3.8 3.8"/>
<path d="M301.779 154.973L207.41 177.932" stroke="#263238" stroke-width="0.76" stroke-miterlimit="10" stroke-dasharray="3.8 3.8"/>
<path d="M299.743 217.715L211.492 189.656" stroke="#263238" stroke-width="0.76" stroke-miterlimit="10" stroke-dasharray="3.8 3.8"/>
<path d="M327.841 204.66H309.859C306.388 204.66 303.574 207.474 303.574 210.945V226.054C303.574 229.525 306.388 232.339 309.859 232.339H327.841C331.312 232.339 334.126 229.525 334.126 226.054V210.945C334.126 207.474 331.312 204.66 327.841 204.66Z" fill="white" stroke="#263238" stroke-width="0.76" stroke-linejoin="round"/>
<path d="M328.815 211.734H319.74V213.49H328.815V211.734Z" fill="#263238"/>
<path d="M328.815 221.875H319.74V223.631H328.815V221.875Z" fill="#263238"/>
<path d="M312.855 208.074H311.099V211.737H307.443V213.493H311.099V217.156H312.855V213.493H316.518V211.737H312.855V208.074Z" fill="#263238"/>
<path d="M314.565 219.77L311.981 222.361L309.389 219.77L308.15 221.016L310.734 223.6L308.15 226.192L309.389 227.43L311.981 224.846L314.565 227.43L315.811 226.192L313.22 223.6L315.811 221.016L314.565 219.77Z" fill="#263238"/>
<path d="M324.527 221.192C325.182 221.192 325.713 220.661 325.713 220.006C325.713 219.351 325.182 218.82 324.527 218.82C323.873 218.82 323.342 219.351 323.342 220.006C323.342 220.661 323.873 221.192 324.527 221.192Z" fill="#263238"/>
<path d="M324.527 226.938C325.182 226.938 325.713 226.407 325.713 225.752C325.713 225.097 325.182 224.566 324.527 224.566C323.873 224.566 323.342 225.097 323.342 225.752C323.342 226.407 323.873 226.938 324.527 226.938Z" fill="#263238"/>
<path d="M326.258 167.371C335.259 165.951 341.406 157.504 339.987 148.503C338.567 139.501 330.12 133.355 321.119 134.774C312.117 136.193 305.971 144.641 307.39 153.642C308.809 162.643 317.257 168.79 326.258 167.371Z" fill="white"/>
<path d="M323.698 168.971C320.154 168.971 316.689 167.919 313.742 165.95C310.795 163.981 308.498 161.182 307.141 157.908C305.785 154.633 305.43 151.03 306.122 147.554C306.813 144.077 308.52 140.884 311.026 138.378C313.533 135.872 316.726 134.165 320.202 133.473C323.678 132.782 327.282 133.137 330.556 134.493C333.831 135.849 336.63 138.146 338.599 141.093C340.568 144.041 341.619 147.505 341.619 151.05C341.615 155.801 339.726 160.357 336.366 163.717C333.006 167.077 328.45 168.966 323.698 168.971ZM323.698 135.971C320.714 135.97 317.796 136.854 315.314 138.511C312.832 140.168 310.897 142.524 309.754 145.281C308.612 148.038 308.312 151.071 308.894 153.999C309.476 156.926 310.913 159.614 313.023 161.725C315.133 163.835 317.822 165.272 320.749 165.854C323.676 166.436 326.71 166.136 329.467 164.994C332.224 163.851 334.58 161.916 336.237 159.434C337.894 156.952 338.778 154.034 338.777 151.05C338.771 147.053 337.18 143.221 334.354 140.394C331.527 137.568 327.695 135.977 323.698 135.971Z" fill="#BAE4FF"/>
<path d="M332.789 156.793C331.504 156.793 330.896 156.337 330.623 155.775V147.985C330.622 146.721 330.239 145.488 329.524 144.446C328.809 143.404 327.796 142.603 326.617 142.148C326.648 142.011 326.664 141.871 326.663 141.73C326.664 141.47 326.614 141.213 326.515 140.973C326.416 140.732 326.27 140.514 326.087 140.33C325.903 140.147 325.685 140.001 325.444 139.902C325.204 139.803 324.947 139.753 324.687 139.754H324.178C323.918 139.753 323.66 139.803 323.419 139.902C323.179 140.001 322.96 140.146 322.776 140.33C322.591 140.514 322.445 140.732 322.345 140.972C322.246 141.212 322.194 141.47 322.194 141.73C322.195 141.855 322.208 141.98 322.232 142.102C321.025 142.542 319.983 143.342 319.246 144.394C318.509 145.447 318.113 146.7 318.113 147.985V155.798C317.839 156.36 317.224 156.816 315.939 156.816V158.99H322.331C322.331 159.035 322.331 159.073 322.331 159.119C322.331 159.661 322.546 160.181 322.93 160.564C323.313 160.948 323.833 161.163 324.375 161.163C324.918 161.163 325.438 160.948 325.821 160.564C326.204 160.181 326.42 159.661 326.42 159.119C326.42 159.073 326.42 159.035 326.42 158.99H332.804L332.789 156.793Z" fill="#263238"/>
<path d="M317.582 83.0898C316.204 83.0898 314.839 83.3614 313.566 83.8889C312.293 84.4165 311.137 85.1897 310.163 86.1644C309.189 87.1391 308.417 88.2962 307.89 89.5695C307.363 90.8429 307.093 92.2075 307.094 93.5854C307.094 99.3766 317.582 109.241 317.582 109.241C317.582 109.241 328.077 99.3614 328.077 93.5854C328.077 92.2071 327.806 90.8423 327.278 89.5689C326.751 88.2956 325.978 87.1385 325.003 86.1639C324.029 85.1893 322.872 84.4162 321.598 83.8888C320.325 83.3613 318.96 83.0898 317.582 83.0898ZM317.582 97.2714C316.851 97.2714 316.136 97.0546 315.529 96.6484C314.921 96.2422 314.448 95.6649 314.169 94.9896C313.889 94.3142 313.817 93.5712 313.96 92.8545C314.103 92.1378 314.455 91.4796 314.973 90.9634C315.49 90.4471 316.149 90.0959 316.866 89.9543C317.583 89.8126 318.326 89.8869 319.001 90.1676C319.675 90.4483 320.252 90.9229 320.657 91.5313C321.061 92.1397 321.277 92.8546 321.275 93.5854C321.276 94.0708 321.181 94.5515 320.996 95.0001C320.811 95.4487 320.539 95.8563 320.196 96.1994C319.853 96.5426 319.445 96.8147 318.996 96.9999C318.548 97.1852 318.067 97.28 317.582 97.279V97.2714Z" fill="#263238"/>
<path d="M287.181 40.9414H261.486C260.084 40.9414 258.947 42.0779 258.947 43.4798V58.6874C258.947 60.0893 260.084 61.2258 261.486 61.2258H287.181C288.583 61.2258 289.72 60.0893 289.72 58.6874V43.4798C289.72 42.0779 288.583 40.9414 287.181 40.9414Z" fill="white" stroke="#263238" stroke-width="0.76" stroke-linejoin="round"/>
<path d="M278.607 55.3676C280.969 53.005 280.969 49.1746 278.607 46.8121C276.244 44.4496 272.414 44.4496 270.051 46.8121C267.689 49.1747 267.689 53.005 270.051 55.3676C272.414 57.7301 276.244 57.7301 278.607 55.3676Z" fill="#263238"/>
<path d="M284.522 47.486C285.664 47.486 286.589 46.5604 286.589 45.4188C286.589 44.2771 285.664 43.3516 284.522 43.3516C283.381 43.3516 282.455 44.2771 282.455 45.4188C282.455 46.5604 283.381 47.486 284.522 47.486Z" fill="#263238"/>
<path d="M186.862 53.3535C186.862 52.3457 187.263 51.3792 187.975 50.6665C188.688 49.9539 189.654 49.5535 190.662 49.5535H194.508V38.6475C194.508 38.1289 194.406 37.6154 194.207 37.1363C194.008 36.6573 193.717 36.2221 193.35 35.8557C192.983 35.4894 192.547 35.199 192.068 35.0012C191.588 34.8034 191.074 34.7021 190.556 34.7031H169.61C169.092 34.7021 168.578 34.8034 168.098 35.0012C167.619 35.199 167.183 35.4894 166.816 35.8557C166.449 36.2221 166.158 36.6573 165.959 37.1363C165.76 37.6154 165.658 38.1289 165.658 38.6475V50.8075C165.658 51.8557 166.075 52.8609 166.816 53.602C167.557 54.3432 168.562 54.7595 169.61 54.7595H174.299L178.411 63.2563L180.691 54.7595H186.87L186.862 53.3535Z" fill="#263238"/>
<path d="M190.662 50.6641H204.95C205.663 50.6661 206.346 50.9502 206.85 51.4543C207.354 51.9584 207.638 52.6415 207.64 53.3545V61.6385C207.64 62.352 207.357 63.0363 206.852 63.5409C206.348 64.0454 205.664 64.3289 204.95 64.3289H201.75L198.946 70.1277L197.426 64.3289H190.692C189.979 64.3289 189.295 64.0454 188.79 63.5409C188.285 63.0363 188.002 62.352 188.002 61.6385V53.3545C188.004 52.6468 188.284 51.9681 188.781 51.4649C189.279 50.9616 189.954 50.674 190.662 50.6641Z" fill="#263238"/>
<path d="M171.426 40.2266H188.739" stroke="#BAE4FF" stroke-width="0.76" stroke-linecap="round" stroke-linejoin="round"/>
<path d="M171.426 44.4766H188.739" stroke="#BAE4FF" stroke-width="0.76" stroke-linecap="round" stroke-linejoin="round"/>
<path d="M171.426 48.7344H188.739" stroke="#BAE4FF" stroke-width="0.76" stroke-linecap="round" stroke-linejoin="round"/>
<path d="M105.344 62.2143L109.425 62.7995L110.527 57.9735L106.682 56.7575C106.638 55.5927 106.397 54.4439 105.967 53.3603L108.871 50.6243L105.777 46.7483L102.525 48.9371C101.559 48.2223 100.472 47.6869 99.3173 47.3563L98.9981 43.4727H94.0429L93.7237 47.3411C92.5666 47.669 91.4778 48.2018 90.5089 48.9143L87.2485 46.7255L84.1629 50.6015L87.0509 53.3223C86.6062 54.4032 86.3492 55.5521 86.2909 56.7195L82.4453 57.9355L83.6005 62.7691L87.6589 62.1839C88.2185 63.1585 88.932 64.0362 89.7717 64.7831L88.2517 68.6667L92.7205 70.8175L94.8333 67.1999C95.3804 67.2963 95.9346 67.3472 96.4901 67.3519C97.0377 67.3466 97.5841 67.2983 98.1241 67.2075L100.245 70.8327L104.713 68.6819L103.193 64.8059C104.048 64.0667 104.775 63.191 105.344 62.2143ZM91.8237 57.1527C91.8222 56.227 92.0951 55.3218 92.608 54.5512C93.1208 53.7807 93.8505 53.1794 94.705 52.8235C95.5594 52.4675 96.5002 52.3729 97.4084 52.5514C98.3166 52.73 99.1515 53.1737 99.8076 53.8266C100.464 54.4796 100.912 55.3123 101.095 56.2196C101.277 57.127 101.187 58.0682 100.836 58.9244C100.484 59.7805 99.8861 60.5132 99.1181 61.0298C98.3501 61.5463 97.4461 61.8236 96.5205 61.8267C95.9051 61.8287 95.2953 61.7093 94.726 61.4754C94.1568 61.2415 93.6392 60.8976 93.203 60.4635C92.7667 60.0294 92.4204 59.5135 92.1837 58.9454C91.947 58.3773 91.8247 57.7681 91.8237 57.1527Z" fill="#BAE4FF" stroke="#263238" stroke-width="0.76" stroke-linejoin="round"/>
<path d="M121.79 45.1887L124.564 45.5915L125.324 42.3083L122.71 41.4799C122.677 40.6981 122.512 39.9274 122.224 39.1999L124.192 37.3379L122.094 34.7083L119.883 36.2283C119.226 35.7429 118.487 35.3799 117.702 35.1567L117.489 32.5195H114.122L113.909 35.1491C113.122 35.3712 112.381 35.7315 111.72 36.2131L109.509 34.6931L107.411 37.3227L109.372 39.1695C109.079 39.8959 108.912 40.667 108.878 41.4495L106.264 42.2779L107.024 45.5611L109.782 45.1659C110.162 45.8281 110.647 46.4237 111.219 46.9291L110.2 49.5739L113.24 51.0331L114.684 48.5783C115.056 48.6422 115.432 48.6753 115.809 48.6771C116.178 48.6738 116.547 48.6433 116.911 48.5859L118.355 51.0483L121.395 49.5815L120.384 46.9519C120.947 46.446 121.423 45.8502 121.79 45.1887ZM112.61 41.7535C112.61 41.1252 112.796 40.511 113.145 39.9886C113.494 39.4662 113.99 39.059 114.571 38.8185C115.151 38.5781 115.79 38.5152 116.406 38.6378C117.022 38.7603 117.589 39.0629 118.033 39.5072C118.477 39.9515 118.78 40.5175 118.902 41.1338C119.025 41.75 118.962 42.3888 118.721 42.9692C118.481 43.5497 118.074 44.0459 117.551 44.3949C117.029 44.744 116.415 44.9303 115.786 44.9303C115.369 44.9303 114.956 44.8482 114.571 44.6885C114.185 44.5289 113.835 44.2949 113.54 43.9999C113.245 43.7049 113.011 43.3547 112.851 42.9692C112.692 42.5838 112.61 42.1707 112.61 41.7535Z" fill="#263238"/>
<path d="M143.868 79.7852H111.629V101.878H143.868V79.7852Z" fill="white" stroke="#263238" stroke-width="0.76" stroke-linejoin="round"/>
<path d="M111.629 79.7852L127.748 90.8356L143.868 79.7852H111.629Z" fill="white" stroke="#263238" stroke-width="0.76" stroke-linejoin="round"/>
<path d="M65.1769 116.971C73.7186 116.971 80.6429 110.047 80.6429 101.505C80.6429 92.9634 73.7186 86.0391 65.1769 86.0391C56.6353 86.0391 49.7109 92.9634 49.7109 101.505C49.7109 110.047 56.6353 116.971 65.1769 116.971Z" fill="white" stroke="#263238" stroke-width="1.52" stroke-linecap="round" stroke-linejoin="round"/>
<path d="M65.177 110.016V101.504H58.375" stroke="#263238" stroke-width="0.76" stroke-linecap="round" stroke-linejoin="round"/>
<path d="M55.7683 135.355V136.313C55.7683 137.131 55.4432 137.916 54.8645 138.495C54.2858 139.074 53.501 139.399 52.6827 139.399C51.8643 139.399 51.0795 139.074 50.5008 138.495C49.9221 137.916 49.5971 137.131 49.5971 136.313V135.355H43.6235V136.313C43.6235 137.131 43.2984 137.916 42.7197 138.495C42.141 139.074 41.3562 139.399 40.5379 139.399C40.1326 139.399 39.7314 139.319 39.357 139.164C38.9827 139.009 38.6425 138.781 38.356 138.495C38.0695 138.208 37.8422 137.868 37.6871 137.494C37.5321 137.12 37.4523 136.718 37.4523 136.313V135.355H33.4395V164.235H60.1991V135.355H55.7683Z" fill="#BAE4FF" stroke="#263238" stroke-width="0.76" stroke-linejoin="round"/>
<path d="M37.832 158.962V157.442L41.9816 150.974C42.2932 150.496 42.5744 150.04 42.8404 149.629C43.101 149.212 43.3175 148.769 43.4864 148.307C43.6623 147.791 43.7472 147.248 43.7372 146.703C43.7668 146.092 43.6413 145.483 43.3724 144.932C43.2429 144.717 43.0549 144.543 42.8302 144.43C42.6056 144.317 42.3535 144.27 42.1032 144.294C41.8876 144.28 41.6715 144.31 41.4678 144.382C41.264 144.454 41.0769 144.566 40.9176 144.712C40.6227 145.02 40.4199 145.404 40.3324 145.822C40.2231 146.303 40.1696 146.795 40.1728 147.288V147.836H37.9992V147.273C37.9786 146.413 38.1124 145.556 38.3944 144.742C38.6264 144.071 39.0723 143.494 39.6636 143.101C40.3643 142.681 41.1733 142.478 41.9892 142.516C42.5346 142.472 43.0829 142.55 43.5942 142.745C44.1056 142.939 44.5672 143.245 44.9456 143.64C45.6314 144.521 45.9744 145.62 45.9108 146.734C45.9219 147.353 45.8373 147.971 45.66 148.565C45.4968 149.079 45.2776 149.574 45.0064 150.04C44.7328 150.496 44.4364 150.967 44.1172 151.446L40.3704 157.168H45.5308V158.977L37.832 158.962Z" fill="#263238"/>
<path d="M51.5284 159.122C50.7124 159.166 49.9014 158.97 49.1952 158.559C48.6068 158.176 48.1691 157.602 47.9564 156.933C47.6906 156.114 47.5647 155.255 47.584 154.394H49.7348C49.737 154.866 49.7776 155.336 49.8564 155.8C49.9193 156.226 50.0981 156.625 50.3732 156.956C50.5277 157.112 50.7145 157.233 50.9205 157.311C51.1265 157.388 51.3469 157.42 51.5664 157.404C51.8033 157.428 52.0425 157.394 52.2636 157.305C52.4846 157.217 52.6809 157.076 52.8356 156.895C53.1171 156.482 53.2849 156.002 53.322 155.504C53.3929 154.845 53.4259 154.183 53.4208 153.52C53.4293 152.89 53.3887 152.26 53.2992 151.636C53.2579 151.198 53.0827 150.784 52.7976 150.45C52.6386 150.297 52.4481 150.18 52.2394 150.108C52.0308 150.036 51.8088 150.01 51.5892 150.032C51.1743 150.02 50.7711 150.17 50.4644 150.45C50.167 150.704 49.9328 151.024 49.7804 151.385H47.9488V142.652H54.9712V144.803H49.902L49.7576 149.318C50.0377 149.028 50.3774 148.802 50.7532 148.656C51.1858 148.485 51.6484 148.402 52.1136 148.413C52.8596 148.368 53.5976 148.588 54.196 149.036C54.7174 149.485 55.0909 150.081 55.2676 150.746C55.4858 151.562 55.5907 152.403 55.5792 153.247C55.5831 154.026 55.5221 154.804 55.3968 155.572C55.2953 156.228 55.0792 156.861 54.7584 157.442C54.4694 157.963 54.0402 158.392 53.5196 158.681C52.9053 158.998 52.2191 159.15 51.5284 159.122Z" fill="#263238"/>
<path d="M54.7191 201.962V195.585C54.494 192.928 53.2795 190.453 51.3161 188.649C49.3527 186.845 46.7835 185.844 44.1171 185.844C41.4508 185.844 38.8816 186.845 36.9182 188.649C34.9548 190.453 33.7403 192.928 33.5151 195.585V201.962H32.8691V223.439H55.3271V201.962H54.7191ZM36.3043 195.585C36.3043 193.513 37.1275 191.526 38.5927 190.061C40.0578 188.596 42.0451 187.773 44.1171 187.773C46.1892 187.773 48.1764 188.596 49.6416 190.061C51.1068 191.526 51.9299 193.513 51.9299 195.585V201.962H36.2739L36.3043 195.585Z" fill="#263238"/>
<path d="M47.1198 210.703C47.1219 210.196 46.9934 209.696 46.7466 209.253C46.4998 208.81 46.1431 208.437 45.7107 208.172C45.2783 207.906 44.7849 207.756 44.2779 207.737C43.7708 207.717 43.2673 207.828 42.8157 208.059C42.3641 208.291 41.9796 208.634 41.6992 209.057C41.4189 209.48 41.2521 209.968 41.215 210.474C41.1778 210.98 41.2715 211.487 41.4871 211.947C41.7027 212.406 42.0328 212.802 42.4458 213.097V217.984H45.8886V213.097C46.27 212.825 46.5808 212.466 46.795 212.05C47.0092 211.633 47.1206 211.171 47.1198 210.703Z" fill="white"/>
<path d="M236.71 326.797C236.261 325.459 215.825 315.085 208.088 311.194H230.174C229.505 311.425 228.924 311.858 228.511 312.433C228.099 313.008 227.875 313.697 227.87 314.405C227.865 315.113 228.081 315.804 228.486 316.385C228.891 316.965 229.466 317.405 230.132 317.645C230.798 317.884 231.522 317.911 232.204 317.722C232.886 317.533 233.493 317.137 233.94 316.588C234.388 316.04 234.654 315.366 234.702 314.66C234.75 313.954 234.578 313.25 234.21 312.646C234.508 312.745 234.828 312.765 235.137 312.704C235.447 312.643 235.734 312.502 235.973 312.296C236.733 311.749 236.892 308.998 234.878 307.736C233.123 306.619 205.801 306.056 198.619 305.927V282.177H204.235V257.219H184.787V282.177H190.403V305.92C181.017 306.102 157.951 306.68 156.34 307.683C154.326 308.967 154.508 311.718 155.246 312.243C155.623 312.553 156.102 312.713 156.591 312.691C156.296 313.197 156.139 313.77 156.135 314.356C156.133 314.983 156.304 315.599 156.629 316.136C156.953 316.672 157.42 317.109 157.976 317.399C158.533 317.689 159.158 317.82 159.784 317.777C160.41 317.735 161.013 317.522 161.525 317.16C162.038 316.799 162.442 316.303 162.692 315.728C162.941 315.152 163.028 314.519 162.943 313.898C162.857 313.276 162.602 312.69 162.205 312.204C161.809 311.718 161.286 311.35 160.695 311.141H183.16C175.416 315.032 154.987 325.406 154.539 326.744C154.251 327.895 154.307 329.105 154.698 330.224C154.595 330.614 154.541 331.015 154.539 331.418C154.536 332.236 154.748 333.041 155.153 333.751C155.559 334.462 156.143 335.054 156.849 335.469C157.554 335.884 158.356 336.106 159.175 336.114C159.993 336.122 160.799 335.915 161.512 335.515C162.226 335.114 162.822 334.533 163.241 333.83C163.66 333.128 163.888 332.327 163.901 331.509C163.915 330.691 163.713 329.883 163.317 329.167C162.921 328.451 162.345 327.851 161.645 327.428C169.708 323.909 194.401 315.154 195.64 314.994C196.856 315.146 220.758 323.62 229.216 327.245C228.474 327.619 227.845 328.183 227.393 328.881C226.941 329.578 226.683 330.383 226.645 331.213C226.607 332.043 226.791 332.868 227.177 333.604C227.564 334.34 228.139 334.959 228.844 335.399C229.549 335.839 230.359 336.083 231.189 336.106C232.02 336.13 232.842 335.932 233.57 335.533C234.299 335.134 234.909 334.548 235.336 333.835C235.764 333.123 235.994 332.309 236.003 331.478C236.832 330.067 237.085 328.39 236.71 326.797ZM232.56 311.194H232.462H232.53H232.56Z" fill="#263238" stroke="#263238" stroke-width="0.76" stroke-linejoin="round"/>
<path d="M164.495 182.923C162.551 184.815 160.158 186.183 157.541 186.898C147.266 189.497 139.993 183.257 135.022 196.504C130.052 209.751 139.331 236.237 150.921 244.848C162.511 253.458 181.055 259.417 204.881 249.818C228.707 240.219 250.907 214.052 253.225 187.559C255.543 161.065 192.159 164.569 185.585 167.624C179.011 170.679 164.495 182.923 164.495 182.923Z" fill="white" stroke="#263238" stroke-width="0.76" stroke-linejoin="round"/>
<path d="M190.358 138.044C190.358 138.044 186.695 139.975 185.729 142.673C184.764 145.371 172.992 166.438 172.992 166.438C172.992 166.438 171.837 146.564 170.096 135.179C168.356 123.794 166.441 110.639 163.727 104.878C161.014 99.1172 154.463 94.4584 151.765 93.478C149.067 92.4976 148.869 94.2381 151.005 95.5985C153.141 96.9589 156.409 101.58 156.409 101.58L158.149 105.053C158.149 105.053 152.358 112.189 152.358 115.86C152.358 119.531 159.882 123.772 159.882 123.772C159.882 123.772 153.513 166.803 155.253 174.692C156.994 182.58 161.425 190.515 164.518 191.29C167.611 192.065 182.849 181.25 182.849 181.25C182.849 181.25 192.281 151.747 193.041 146.146C193.801 140.545 193.641 136.882 190.358 138.044Z" fill="white" stroke="#263238" stroke-width="0.76" stroke-linejoin="round"/>
<path d="M190.357 138.044C190.357 138.044 186.694 139.974 185.729 142.672C184.763 145.37 172.991 166.437 172.991 166.437C172.991 166.437 172.755 162.356 172.33 156.838C166.007 161.277 159.41 159.878 155.61 158.465C154.949 165.822 154.652 172.145 155.222 174.736C156.955 182.648 161.393 190.56 164.487 191.335C167.58 192.11 182.818 181.295 182.818 181.295C182.818 181.295 192.28 151.746 193.04 146.145C193.8 140.544 193.64 136.881 190.357 138.044Z" fill="#BAE4FF" stroke="#263238" stroke-width="0.76" stroke-linejoin="round"/>
<path d="M172.992 166.438C172.992 166.438 173.38 172.229 173.57 176.279" stroke="#263238" stroke-width="0.76" stroke-linejoin="round"/>
<path d="M151.003 107.82C151.003 107.82 147.819 110.48 148.077 112.297C148.336 114.113 153.793 119.304 155.48 118.787C157.167 118.27 157.942 118.134 156.24 115.869C154.537 113.604 152.219 110.807 151.832 109.789C151.444 108.77 151.003 107.82 151.003 107.82Z" fill="white" stroke="#263238" stroke-width="0.76" stroke-linejoin="round"/>
<path d="M158.132 105.047C158.132 105.047 152.949 105.29 151.908 106.263C150.867 107.236 150.677 109.576 152.82 112.495C154.963 115.413 156.453 117.29 157.296 116.386C158.14 115.482 157.942 114.243 157.167 112.943C156.518 111.788 155.932 110.598 155.412 109.379L158.072 106.263L158.132 105.047Z" fill="white" stroke="#263238" stroke-width="0.76" stroke-linejoin="round"/>
<path d="M148.079 112.297C148.079 112.297 146.133 115.542 147.501 117.427C148.869 119.312 153.27 121.835 154.767 121.12C156.264 120.406 155.481 118.787 155.481 118.787C154.167 118.143 152.926 117.358 151.78 116.446C150.403 115.198 149.162 113.807 148.079 112.297Z" fill="white" stroke="#263238" stroke-width="0.76" stroke-linejoin="round"/>
<path d="M165.079 108.677C165.079 108.677 160.603 104.543 158.133 105.014C157.023 105.227 152.919 108.677 152.152 110.228C151.384 111.778 152.532 112.348 153.672 111.96C154.812 111.573 159.653 109.84 159.653 109.84C159.653 109.84 158.133 116.209 159.653 117.942C161.173 119.674 166.022 119.682 166.022 119.682" fill="white"/>
<path d="M165.079 108.677C165.079 108.677 160.603 104.543 158.133 105.014C157.023 105.227 152.919 108.677 152.152 110.228C151.384 111.778 152.532 112.348 153.672 111.96C154.812 111.573 159.653 109.84 159.653 109.84C159.653 109.84 158.133 116.209 159.653 117.942C161.173 119.674 166.022 119.682 166.022 119.682" stroke="#263238" stroke-width="0.76" stroke-linejoin="round"/>
<path d="M216.987 135.148C216.987 135.148 192.287 136.501 190.387 138.044C188.487 139.587 187.104 143.835 186.914 144.99C186.724 146.146 179.58 180.498 178.227 186.479C176.874 192.46 164.35 207.326 164.35 207.326C164.35 207.326 186.876 219.562 197.546 225.011C204.525 228.505 211.996 230.914 219.7 232.155L244.78 179.145C244.78 179.145 256.743 149.619 257.13 146.723C257.518 143.828 256.743 144.99 249.029 141.32C244.068 138.951 238.809 137.263 233.396 136.304C231.458 135.924 216.987 135.148 216.987 135.148Z" fill="#BAE4FF" stroke="#263238" stroke-width="0.76" stroke-linejoin="round"/>
<path d="M81.5481 257.759L65.7857 257.265C65.7857 257.265 46.3601 247.172 44.6121 247.91C42.8641 248.647 46.8313 260.472 51.9993 267.115C57.1673 273.757 71.4401 282.877 74.1609 284.352C76.8817 285.826 78.3485 286.814 80.8033 285.112C83.2581 283.409 89.1633 271.819 89.1633 271.819L81.5481 257.759Z" fill="#BAE4FF" stroke="#263238" stroke-width="0.76" stroke-linejoin="round"/>
<path d="M55.479 264.905C50.729 259.144 47.5066 251.985 45.9486 248.079C45.5342 247.913 45.0843 247.855 44.6414 247.912C42.9162 248.672 46.8606 260.474 52.0286 267.117C57.1966 273.759 71.439 282.879 74.1598 284.354C76.8806 285.828 78.3474 286.816 80.8022 285.114C81.4792 284.548 82.0705 283.888 82.5578 283.153C77.0174 280.288 61.103 271.768 55.479 264.905Z" fill="white" stroke="#263238" stroke-width="0.76" stroke-linejoin="round"/>
<path d="M132.24 310.945C132.24 310.945 126.578 321.532 123.88 325.469C121.182 329.406 111.074 334.589 111.325 336.801C111.576 339.012 123.88 339.719 130.545 339.263C137.211 338.807 143.101 330.645 146.505 328.676C149.91 326.708 152.418 325.963 150.45 321.289C148.481 316.615 146.019 311.933 146.019 311.933L132.24 310.945Z" fill="#BAE4FF" stroke="#263238" stroke-width="0.76" stroke-linejoin="round"/>
<path d="M131.283 336.307C126.465 337.827 117.443 336.155 112.443 334.992C111.683 335.706 111.287 336.322 111.341 336.801C111.584 339.012 123.896 339.749 130.546 339.263C137.196 338.777 143.101 330.645 146.506 328.676C149.911 326.708 152.419 325.963 150.45 321.289C137.933 325.72 138.176 334.087 131.283 336.307Z" fill="white" stroke="#263238" stroke-width="0.76" stroke-linejoin="round"/>
<path d="M112.814 233.388L131.526 301.833L128.82 304.052L131.776 313.932C134.331 314.9 136.966 315.64 139.65 316.144C145.312 317.375 148.519 316.638 148.519 316.638C148.519 316.638 148.762 309.745 148.025 307.518C147.288 305.291 146.057 301.362 146.057 301.362L142.606 241.535C142.606 241.535 173.873 253.353 186.185 252.616C198.497 251.878 177.323 227.992 163.286 216.424C149.249 204.857 118.446 198.45 113.552 210.755C110.611 217.969 110.35 225.997 112.814 233.388Z" fill="#858585" stroke="#263238" stroke-width="0.76" stroke-linejoin="round"/>
<path d="M163.286 216.401C160.296 214.005 157.03 211.977 153.558 210.359L137.149 204.978C132.042 204.013 127.125 203.77 123.066 204.462L133.706 214.919L142.568 241.519C142.568 241.519 173.834 253.337 186.146 252.6C198.458 251.863 177.323 227.999 163.286 216.401Z" fill="#263238" stroke="#263238" stroke-width="0.76" stroke-linejoin="round"/>
<path d="M220.658 229.45C220.658 229.45 216.721 239.292 211.051 246.17C205.382 253.048 189.384 255.031 182.741 252.569C176.099 250.106 157.874 235.089 147.53 226.22C137.187 217.35 133.759 214.918 133.759 214.918L98.0393 264.653C98.0393 264.653 96.0709 266.629 96.3141 268.597C96.5573 270.566 86.4341 276.722 86.4341 276.722C86.4341 276.722 81.7525 272.777 80.2781 269.828C78.8037 266.88 77.3217 264.41 77.8157 262.441C78.3097 260.473 77.3217 258.991 78.3097 256.285C79.2977 253.58 83.4777 252.348 83.4777 252.348C83.4777 252.348 114.744 194.733 118.438 189.071C122.131 183.409 124.35 181.927 127.056 182.421C129.762 182.915 165.96 201.132 171.896 204.582C177.832 208.033 220.658 229.45 220.658 229.45Z" fill="#858585" stroke="#263238" stroke-width="0.76" stroke-linejoin="round"/>
<path d="M180.584 237.664C182.207 238.908 183.891 240.07 185.63 241.145" stroke="#263238" stroke-width="0.76" stroke-linejoin="round"/>
<path d="M140.857 207.371C150.737 214.811 167.777 228.111 177.877 235.658" stroke="#263238" stroke-width="0.76" stroke-linejoin="round"/>
<path d="M125.992 214.462C125.992 214.462 126.98 205.889 128.272 206.223C129.564 206.558 132.559 210.502 132.559 208.503C132.559 206.504 131.897 201.914 133.22 201.914C133.486 201.914 135.599 203.434 138.836 205.843" stroke="#263238" stroke-width="0.76" stroke-linejoin="round"/>
<path d="M215.84 127.627C215.84 127.627 212.17 143.64 210.627 147.691C209.084 151.741 204.836 157.92 207.929 158.695C211.022 159.471 233.769 139.977 235.327 136.503C236.885 133.03 239.127 125.59 239.127 125.59C239.127 125.59 223.934 131.1 215.84 127.627Z" fill="white" stroke="#263238" stroke-width="0.76" stroke-linejoin="round"/>
<path d="M217.064 80.4748C217.064 80.4748 210.984 82.2304 213.56 85.5972C216.137 88.964 220.567 88.6904 220.567 88.6904C220.567 88.6904 217.467 85.8632 225.956 85.8632C234.445 85.8632 239.415 87.2084 239.286 91.7912C239.157 96.374 237.265 98.6312 239.415 101.755C241.566 104.878 244.401 112.798 244.401 112.798L250.998 114.318C250.998 114.318 257.838 106.505 259.213 97.4836C260.589 88.4624 261.775 83.7504 247.631 76.0744C233.487 68.3984 215.711 67.7144 214.237 72.8368C213.812 74.2441 213.858 75.7517 214.368 77.1303C214.878 78.509 215.825 79.6833 217.064 80.4748Z" fill="#263238" stroke="#263238" stroke-width="0.76" stroke-linejoin="round"/>
<path d="M222.719 80.6133C222.719 80.6133 217.201 85.0593 217.064 87.0809C216.927 89.1025 210.604 107.677 209.791 112.921C208.978 118.165 210.467 127.361 213.029 130.294C215.59 133.228 221.389 133.927 228.107 132.179C234.825 130.431 238.344 127.733 239.15 125.582C239.955 123.432 245.61 110.382 245.61 110.382C245.61 110.382 241.711 101.262 240.632 98.6633C239.553 96.0641 243.185 91.8233 243.322 90.7213C243.459 89.6193 236.862 85.2037 234.962 84.1245C233.062 83.0453 230.516 83.9877 228.631 83.4481C226.59 82.6578 224.613 81.71 222.719 80.6133Z" fill="white" stroke="#263238" stroke-width="0.76" stroke-linejoin="round"/>
<path d="M239.15 125.589C239.955 123.431 245.61 110.389 245.61 110.389C245.61 110.389 244.447 107.646 243.208 104.75C241.506 108.793 236.163 121.47 236.049 121.835C235.935 122.2 235.517 120.079 228.913 117.123C222.308 114.166 221.237 112.411 216.798 113.619C214.329 114.257 211.937 115.159 209.662 116.31L209.578 116.576C209.639 121.69 210.992 127.976 213.029 130.316C215.582 133.28 221.389 133.949 228.107 132.201C234.825 130.453 238.344 127.74 239.15 125.589Z" fill="#263238" stroke="#263238" stroke-width="0.76" stroke-linejoin="round"/>
<path d="M244.4 112.798C244.4 112.798 247.227 109.971 250.328 111.179C253.429 112.388 250.731 116.834 248.975 118.589C247.22 120.345 241.17 120.079 241.17 120.079L244.4 112.798Z" fill="white" stroke="#263238" stroke-width="0.76" stroke-linejoin="round"/>
<path d="M216.395 93.5388C216.395 93.5388 218.143 90.4456 222.475 93.5388" stroke="#263238" stroke-width="0.76" stroke-linejoin="round"/>
<path d="M228.373 94.6188C228.373 94.6188 232.173 92.3388 235.783 97.0432" stroke="#263238" stroke-width="0.76" stroke-linejoin="round"/>
<path d="M222.991 94.6172C223.347 95.8931 223.571 97.202 223.66 98.5236C223.66 100.044 216.926 113.724 217.58 114.142C218.233 114.56 222.968 111.58 223.371 111.58" fill="white"/>
<path d="M222.991 94.6172C223.347 95.8931 223.571 97.202 223.66 98.5236C223.66 100.044 216.926 113.724 217.58 114.142C218.233 114.56 222.968 111.58 223.371 111.58" stroke="#263238" stroke-width="0.76" stroke-linejoin="round"/>
<path d="M231.557 100.196C231.253 101.146 230.554 101.777 229.984 101.602C229.414 101.428 229.224 100.5 229.505 99.5429C229.787 98.5853 230.509 97.9545 231.079 98.1369C231.649 98.3193 231.861 99.2389 231.557 100.196Z" fill="#263238"/>
<path d="M219.442 97.4988C219.138 98.4564 218.431 99.0872 217.861 98.9048C217.291 98.7224 217.101 97.8104 217.382 96.8528C217.663 95.8952 218.393 95.2644 218.956 95.4392C219.518 95.614 219.738 96.5184 219.442 97.4988Z" fill="#263238"/>
<path d="M228.645 102.832C228.645 102.832 228.508 104.717 232.149 105.788" stroke="#263238" stroke-width="0.76" stroke-linejoin="round"/>
<path d="M220.97 99.5977C219.5 100.396 217.908 100.943 216.258 101.216" stroke="#263238" stroke-width="0.76" stroke-linejoin="round"/>
<path d="M215.582 116.43C215.582 116.43 219.762 119.66 226.359 117.775" stroke="white" stroke-width="0.76" stroke-linejoin="round"/>
<path d="M246.513 201.871C246.513 201.871 223.12 203.84 216.47 214.92C209.82 226.001 202.919 244.469 195.79 250.374C188.662 256.28 161.811 249.143 157.38 246.932C154.178 245.399 150.877 244.081 147.5 242.987C147.5 242.987 152.668 251.119 169.168 256.53C185.667 261.942 210.534 264.412 236.633 254.319C262.731 244.226 270.118 225.013 273.318 210.49C276.518 195.966 273.318 176.29 268.636 163.955C263.955 151.62 256.575 144.012 254.113 144.256C251.65 144.499 251.894 172.573 253.353 183.16C254.812 193.747 246.513 201.871 246.513 201.871Z" fill="white" stroke="#263238" stroke-width="0.76" stroke-linejoin="round"/>
<path d="M200.107 176.105C201.103 177.262 202.234 178.295 203.474 179.183C205.374 180.498 206.104 185.324 206.689 186.023C207.274 186.723 208.004 189.679 208.004 189.679C208.004 189.679 202.881 186.023 201.567 184.557C200.252 183.09 200.107 176.105 200.107 176.105Z" fill="white" stroke="#263238" stroke-width="0.76" stroke-linejoin="round"/>
<path d="M186.283 170.016L193.412 195.681C193.489 195.956 193.639 196.205 193.846 196.4C194.054 196.596 194.311 196.731 194.59 196.791L204.371 198.85C204.632 198.917 204.907 198.914 205.166 198.84C205.426 198.765 205.661 198.624 205.847 198.429C206.034 198.234 206.165 197.993 206.227 197.73C206.29 197.468 206.281 197.193 206.203 196.935L199.477 171.095C199.407 170.806 199.253 170.544 199.036 170.342C198.818 170.139 198.546 170.005 198.253 169.955L188.061 168.093C187.803 168.037 187.534 168.049 187.282 168.129C187.03 168.208 186.802 168.352 186.623 168.547C186.443 168.741 186.317 168.978 186.258 169.236C186.198 169.494 186.207 169.763 186.283 170.016Z" fill="#263238" stroke="#263238" stroke-width="0.76" stroke-linejoin="round"/>
<path d="M249.021 141.359C249.021 141.359 255.42 143.639 256.735 144.833C258.05 146.026 259.076 150.396 261.416 158.003C263.757 165.611 267.413 197.219 267.565 199.416C267.717 201.612 258.194 203.976 250.586 205.268C242.979 206.56 214.448 203.953 214.448 203.953C214.448 203.953 208.589 203.071 204.348 202.631C200.107 202.19 193.814 199.119 192.492 198.831C191.17 198.542 192.059 196.49 192.059 196.49C191.352 196.743 190.612 196.889 189.862 196.923C188.836 196.923 188.836 195.608 188.836 195.608C188.836 195.608 190.007 192.827 190.592 192.568C191.177 192.31 199.811 192.127 199.811 192.127L192.211 188.761C192.211 188.761 188.259 189.521 187.385 189.201C186.511 188.882 186.8 187.446 187.385 187.005C187.97 186.564 192.5 185.546 193.381 185.835C194.263 186.123 200.259 187.59 200.259 187.59L199.378 185.835L192.355 182.035C192.355 182.035 189.574 181.883 188.7 181.883C187.826 181.883 186.062 181.297 186.503 179.838C186.944 178.379 191.481 178.516 192.94 178.812C194.4 179.109 203.185 182.179 204.652 183.79C206.119 185.401 210.793 194.909 210.793 194.909C210.793 194.909 219.571 196.665 230.553 193.153C241.535 189.642 245.631 188.32 245.631 188.32L241.071 165.938" fill="#BAE4FF"/>
<path d="M249.021 141.359C249.021 141.359 255.42 143.639 256.735 144.833C258.05 146.026 259.076 150.396 261.416 158.003C263.757 165.611 267.413 197.219 267.565 199.416C267.717 201.612 258.194 203.976 250.586 205.268C242.979 206.56 214.448 203.953 214.448 203.953C214.448 203.953 208.589 203.071 204.348 202.631C200.107 202.19 193.814 199.119 192.492 198.831C191.17 198.542 192.059 196.49 192.059 196.49C191.352 196.743 190.612 196.889 189.862 196.923C188.836 196.923 188.836 195.608 188.836 195.608C188.836 195.608 190.007 192.827 190.592 192.568C191.177 192.31 199.811 192.127 199.811 192.127L192.211 188.761C192.211 188.761 188.259 189.521 187.385 189.201C186.511 188.882 186.8 187.446 187.385 187.005C187.97 186.564 192.5 185.546 193.381 185.835C194.263 186.123 200.259 187.59 200.259 187.59L199.378 185.835L192.355 182.035C192.355 182.035 189.574 181.883 188.7 181.883C187.826 181.883 186.062 181.297 186.503 179.838C186.944 178.379 191.481 178.516 192.94 178.812C194.4 179.109 203.185 182.179 204.652 183.79C206.119 185.401 210.793 194.909 210.793 194.909C210.793 194.909 219.571 196.665 230.553 193.153C241.535 189.642 245.631 188.32 245.631 188.32L241.071 165.938" stroke="#263238" stroke-width="0.76" stroke-linejoin="round"/>
<path d="M210.785 194.841C210.785 194.841 206.104 185.325 204.644 183.722C203.185 182.118 194.4 179.04 192.933 178.744C191.466 178.447 186.936 178.303 186.496 179.77C186.055 181.237 187.81 181.814 188.692 181.814C189.574 181.814 192.348 181.966 192.348 181.966L199.37 185.766L200.252 187.522C200.252 187.522 194.255 186.063 193.374 185.766C192.492 185.47 187.962 186.526 187.377 186.937C186.792 187.347 186.496 188.844 187.377 189.133C188.259 189.422 192.203 188.692 192.203 188.692L199.803 192.059C199.803 192.059 191.17 192.203 190.584 192.5C189.999 192.796 188.829 195.54 188.829 195.54C188.829 195.54 188.829 196.855 189.855 196.855C190.604 196.821 191.345 196.675 192.051 196.421C192.051 196.421 191.17 198.466 192.484 198.762C193.799 199.059 200.084 202.129 204.34 202.562C208.596 202.995 214.441 203.885 214.441 203.885C214.441 203.885 225.734 204.926 236.01 205.367C237.431 198.58 236.701 194.157 235.599 191.428L230.53 193.055C219.563 196.596 210.785 194.841 210.785 194.841Z" fill="white" stroke="#263238" stroke-width="0.76" stroke-linejoin="round"/>
<path d="M192.059 196.45C193.015 196.098 193.993 195.804 194.985 195.569C195.859 195.424 201.566 196.883 201.566 196.883" stroke="#263238" stroke-width="0.76" stroke-linejoin="round"/>
</svg>
