<svg width="20" height="24" viewBox="0 0 20 24" fill="none" xmlns="http://www.w3.org/2000/svg">
<g clip-path="url(#clip0_703_6824)">
<path d="M2.85688 10.1482V14.3311C2.82084 15.1509 2.45696 15.9219 1.84658 16.4705C1.31054 16.9899 1.00905 17.7051 1.01174 18.4514V19.3739C1.01174 19.8632 1.20614 20.3326 1.5521 20.6787C1.89827 21.0247 2.3676 21.2191 2.85688 21.2191H17.618C18.1073 21.2191 18.5766 21.0247 18.9228 20.6787C19.2687 20.3325 19.4631 19.8632 19.4631 19.3739V18.4514C19.4658 17.7051 19.1643 16.9898 18.6283 16.4705C18.0189 15.9236 17.6548 15.1546 17.618 14.3366V10.1482C17.6952 8.64718 17.2838 7.16142 16.4452 5.91389C15.6067 4.66637 14.3865 3.72445 12.9672 3.22895C12.9922 3.07636 13.0049 2.92212 13.0051 2.76767C13.0051 1.77878 12.4775 0.865064 11.6213 0.37083C10.765 -0.12361 9.70982 -0.12361 8.85357 0.37083C7.99732 0.865064 7.46971 1.77878 7.46971 2.76767C7.47136 2.94106 7.48907 3.11404 7.52223 3.28435C6.14617 3.82882 4.96539 4.77448 4.13344 5.99829C3.30149 7.22235 2.85667 8.66821 2.85688 10.1482ZM9.31487 2.76767C9.31487 2.43797 9.49073 2.13341 9.77615 1.96867C10.0616 1.80392 10.4133 1.80392 10.6987 1.96867C10.9841 2.13341 11.16 2.43798 11.16 2.76767C11.16 2.7862 11.1536 2.80267 11.1526 2.82121C10.9265 2.79732 10.6987 2.77879 10.4644 2.77137C10.0836 2.76313 9.70263 2.78373 9.32495 2.83315C9.3231 2.81112 9.31487 2.79073 9.31487 2.76767ZM10.2374 4.61281H10.41C10.7603 4.62537 11.1092 4.66491 11.4535 4.73081C11.528 4.75614 11.6054 4.77158 11.6841 4.77693C12.8995 5.02735 13.9831 5.7092 14.7347 6.69662C15.4864 7.68387 15.8552 8.90994 15.7728 10.1482V14.3367C15.8062 15.6532 16.3721 16.8999 17.3412 17.7918C17.5193 17.9647 17.6192 18.203 17.618 18.4514V19.3739H2.85685V18.4514C2.85561 18.203 2.95549 17.9648 3.13362 17.7918C4.10337 16.898 4.66925 15.6494 4.70199 14.3311V10.1482C4.70199 8.68009 5.28515 7.27214 6.32328 6.23407C7.36141 5.19599 8.76934 4.61281 10.2374 4.61281Z" fill="#0070BA"/>
<path d="M7.46943 22.1416C7.13974 22.1416 6.83518 22.3175 6.67043 22.6029C6.50569 22.8883 6.50569 23.24 6.67043 23.5255C6.83518 23.8109 7.13975 23.9867 7.46943 23.9867H13.0049C13.3345 23.9867 13.6391 23.8109 13.8039 23.5255C13.9686 23.24 13.9686 22.8883 13.8039 22.6029C13.6391 22.3175 13.3345 22.1416 13.0049 22.1416H7.46943Z" fill="#0070BA"/>
</g>
<defs>
<clipPath id="clip0_703_6824">
<rect width="18.4646" height="24" fill="white" transform="translate(1)"/>
</clipPath>
</defs>
</svg>
