<svg width="40" height="40" viewBox="0 0 40 40" fill="none" xmlns="http://www.w3.org/2000/svg">
<g clip-path="url(#clip0_703_3066)">
<path d="M12.6225 18.1482V22.3311C12.5865 23.1509 12.2226 23.9219 11.6122 24.4705C11.0762 24.9899 10.7747 25.7051 10.7774 26.4514V27.3739C10.7774 27.8632 10.9718 28.3326 11.3177 28.6787C11.6639 29.0247 12.1332 29.2191 12.6225 29.2191H27.3836C27.8729 29.2191 28.3423 29.0247 28.6884 28.6787C29.0344 28.3325 29.2288 27.8632 29.2288 27.3739V26.4514C29.2314 25.7051 28.93 24.9898 28.3939 24.4705C27.7845 23.9236 27.4205 23.1546 27.3836 22.3366V18.1482C27.4608 16.6472 27.0494 15.1614 26.2109 13.9139C25.3723 12.6664 24.1521 11.7245 22.7329 11.229C22.7578 11.0764 22.7706 10.9221 22.7708 10.7677C22.7708 9.77878 22.2432 8.86506 21.3869 8.37083C20.5307 7.87639 19.4754 7.87639 18.6192 8.37083C17.7629 8.86506 17.2353 9.77878 17.2353 10.7677C17.237 10.9411 17.2547 11.114 17.2879 11.2843C15.9118 11.8288 14.731 12.7745 13.8991 13.9983C13.0671 15.2224 12.6223 16.6682 12.6225 18.1482ZM19.0805 10.7677C19.0805 10.438 19.2564 10.1334 19.5418 9.96867C19.8272 9.80392 20.1789 9.80392 20.4643 9.96867C20.7498 10.1334 20.9256 10.438 20.9256 10.7677C20.9256 10.7862 20.9192 10.8027 20.9182 10.8212C20.6921 10.7973 20.4643 10.7788 20.23 10.7714C19.8492 10.7631 19.4683 10.7837 19.0906 10.8332C19.0887 10.8111 19.0805 10.7907 19.0805 10.7677ZM20.0031 12.6128H20.1756C20.5259 12.6254 20.8748 12.6649 21.2191 12.7308C21.2936 12.7561 21.3711 12.7716 21.4497 12.7769C22.6651 13.0273 23.7487 13.7092 24.5004 14.6966C25.252 15.6839 25.6208 16.9099 25.5384 18.1482V22.3367C25.5718 23.6532 26.1377 24.8999 27.1068 25.7918C27.2849 25.9647 27.3848 26.203 27.3836 26.4514V27.3739H12.6225V26.4514C12.6212 26.203 12.7211 25.9648 12.8992 25.7918C13.869 24.898 14.4349 23.6494 14.4676 22.3311V18.1482C14.4676 16.6801 15.0508 15.2721 16.0889 14.2341C17.127 13.196 18.535 12.6128 20.0031 12.6128Z" fill="#0070BA"/>
<path d="M17.2351 30.1416C16.9054 30.1416 16.6008 30.3175 16.4361 30.6029C16.2713 30.8883 16.2713 31.24 16.4361 31.5255C16.6008 31.8109 16.9054 31.9867 17.2351 31.9867H22.7705C23.1002 31.9867 23.4047 31.8109 23.5695 31.5255C23.7342 31.24 23.7342 30.8883 23.5695 30.6029C23.4047 30.3175 23.1002 30.1416 22.7705 30.1416H17.2351Z" fill="#0070BA"/>
</g>
<rect x="0.85" y="0.85" width="38.3" height="38.3" rx="19.15" stroke="#0070BA" stroke-width="1.7"/>
<defs>
<clipPath id="clip0_703_3066">
<rect width="18.4646" height="24" fill="white" transform="translate(10.7656 8)"/>
</clipPath>
</defs>
</svg>
