<svg width="19" height="20" viewBox="0 0 19 20" fill="none" xmlns="http://www.w3.org/2000/svg">
<g clip-path="url(#clip0_947_1637)">
<path d="M6.83159 9.32998C6.83159 9.82926 6.43216 10.2287 5.93287 10.2287C5.43359 10.2287 5.03416 9.82926 5.03416 9.32998C5.03416 8.83069 5.43359 8.43126 5.93287 8.43126C6.43216 8.39797 6.83159 8.83069 6.83159 9.32998ZM9.56102 8.39797C9.06174 8.39797 8.66231 8.7974 8.66231 9.29669C8.66231 9.79598 9.06174 10.1954 9.56102 10.1954C10.0603 10.1954 10.4597 9.79598 10.4597 9.29669C10.4597 8.83069 10.0603 8.39797 9.56102 8.39797ZM13.1892 8.39797C12.6899 8.39797 12.2905 8.7974 12.2905 9.29669C12.2905 9.79598 12.6899 10.1954 13.1892 10.1954C13.6885 10.1954 14.0879 9.79598 14.0879 9.29669C14.0879 8.83069 13.6885 8.39797 13.1892 8.39797ZM18.648 9.32998C18.648 14.456 14.4871 18.65 9.32802 18.65C8.29616 18.65 7.29759 18.4836 6.29902 18.1507L1.2061 19.9149C1.10624 19.9481 1.03967 19.9814 0.939814 19.9814C0.706814 19.9814 0.473813 19.8816 0.34067 19.7151C0.10767 19.4821 0.0743841 19.116 0.207527 18.8164L1.93839 14.9553C0.673528 13.3243 0.0078125 11.3604 0.0078125 9.32979C0.0078125 4.20377 4.20182 0.00976562 9.32783 0.00976562C14.4538 0.00976562 18.6479 4.20377 18.6479 9.32979L18.648 9.32998ZM16.9838 9.32998C16.9838 5.10287 13.5553 1.67424 9.32802 1.67424C5.10073 1.67424 1.67229 5.10268 1.67229 9.32998C1.67229 11.1607 2.33801 12.8916 3.50301 14.2897C3.70272 14.5227 3.7693 14.8889 3.63615 15.1885L2.50444 17.7182L5.99944 16.4866C6.19916 16.3868 6.43216 16.3868 6.63187 16.4533C7.4973 16.7862 8.42931 16.9526 9.36131 16.9526C13.5553 16.9859 16.9839 13.5575 16.9839 9.32998H16.9838Z" fill="white"/>
</g>
<defs>
<clipPath id="clip0_947_1637">
<rect width="18.6591" height="20" fill="white"/>
</clipPath>
</defs>
</svg>
