<svg width="17" height="19" viewBox="0 0 17 19" fill="none" xmlns="http://www.w3.org/2000/svg">
<g clip-path="url(#clip0_826_2833)">
<path d="M6.14921 8.89655C6.14921 9.34591 5.78972 9.7054 5.34037 9.7054C4.89101 9.7054 4.53152 9.34591 4.53152 8.89655C4.53152 8.44719 4.89101 8.08771 5.34037 8.08771C5.78972 8.05775 6.14921 8.44719 6.14921 8.89655ZM8.6057 8.05775C8.15634 8.05775 7.79686 8.41724 7.79686 8.86659C7.79686 9.31595 8.15634 9.67544 8.6057 9.67544C9.05506 9.67544 9.41455 9.31595 9.41455 8.86659C9.41455 8.44719 9.05506 8.05775 8.6057 8.05775ZM11.871 8.05775C11.4217 8.05775 11.0622 8.41724 11.0622 8.86659C11.0622 9.31595 11.4217 9.67544 11.871 9.67544C12.3204 9.67544 12.6799 9.31595 12.6799 8.86659C12.6799 8.44719 12.3204 8.05775 11.871 8.05775ZM16.784 8.89655C16.784 13.51 13.0392 17.2846 8.396 17.2846C7.46733 17.2846 6.56861 17.1348 5.6699 16.8352L1.08627 18.4229C0.9964 18.4529 0.936486 18.4829 0.846614 18.4829C0.636914 18.4829 0.427213 18.393 0.307385 18.2432C0.0976841 18.0335 0.0677269 17.704 0.187556 17.4344L1.74533 13.9593C0.606957 12.4914 0.0078125 10.7239 0.0078125 8.89638C0.0078125 4.28297 3.78242 0.508362 8.39583 0.508362C13.0092 0.508362 16.7838 4.28297 16.7838 8.89638L16.784 8.89655ZM15.2862 8.89655C15.2862 5.09216 12.2006 2.00639 8.396 2.00639C4.59144 2.00639 1.50584 5.09199 1.50584 8.89655C1.50584 10.5442 2.10499 12.102 3.15349 13.3603C3.33323 13.57 3.39315 13.8996 3.27332 14.1692L2.25477 16.4459L5.40028 15.3375C5.58002 15.2477 5.78972 15.2477 5.96947 15.3076C6.74835 15.6071 7.58716 15.7569 8.42596 15.7569C12.2006 15.7869 15.2863 12.7013 15.2863 8.89655H15.2862Z" fill="#0070BA"/>
</g>
<defs>
<clipPath id="clip0_826_2833">
<rect width="16.7932" height="18" fill="white" transform="translate(0 0.5)"/>
</clipPath>
</defs>
</svg>
