<svg width="20" height="20" viewBox="0 0 20 20" fill="none" xmlns="http://www.w3.org/2000/svg">
<path fill-rule="evenodd" clip-rule="evenodd" d="M5.42555 0.000269199C5.23609 0.000269199 5.05444 0.0756394 4.92059 0.209643C4.78659 0.343651 4.71154 0.525298 4.7117 0.714762V2.85631H2.56921C2.38024 2.85694 2.19907 2.93247 2.06552 3.06648C1.93216 3.20032 1.85726 3.38181 1.85742 3.57094V19.274C1.85742 19.4629 1.93231 19.6441 2.06584 19.7779C2.19921 19.9118 2.38022 19.9872 2.56921 19.9878H13.992C14.1813 19.9878 14.3628 19.9126 14.4968 19.7787C14.6306 19.6447 14.7059 19.4632 14.7059 19.2739V17.1318H16.8483C17.0373 17.1316 17.2185 17.0567 17.3523 16.9233C17.4861 16.79 17.5615 16.609 17.5622 16.42V0.714493C17.5623 0.525037 17.4871 0.343385 17.3533 0.209374C17.2194 0.0753661 17.0378 0 16.8483 0L5.42555 0.000269199ZM6.1394 1.42862H16.1341V15.7064H14.7056V3.57098V3.57114C14.7057 3.38168 14.6307 3.19987 14.4967 3.06586C14.3628 2.93185 14.1812 2.85648 13.9917 2.85648H6.13939L6.1394 1.42862ZM3.28307 4.28466H13.2778V16.179C13.2228 16.3337 13.2228 16.5026 13.2778 16.6572V18.5596L3.28307 18.5597V4.28466Z" fill="#0070BA"/>
</svg>
