<svg width="20" height="20" viewBox="0 0 20 20" fill="none" xmlns="http://www.w3.org/2000/svg">
<g clip-path="url(#clip0_703_6158)">
<path d="M8.11379 6.0127C6.90178 6.0127 5.90916 7.00534 5.90916 8.21732C5.90916 8.94567 6.27033 9.59661 6.81953 9.99864C6.23616 10.1805 5.69607 10.4778 5.24979 10.8795C4.47529 11.5768 4.02099 12.5583 4.01956 13.5663V13.5712C4.01923 13.6303 4.02187 13.6892 4.0245 13.7484C4.02955 13.8702 4.08162 13.9853 4.1696 14.0698C4.2577 14.1542 4.37501 14.2012 4.49694 14.2011H15.5147C15.6367 14.2012 15.754 14.1542 15.842 14.0698C15.93 13.9854 15.982 13.8702 15.9872 13.7484C15.9901 13.6815 15.9874 13.6328 15.9872 13.6008C15.9872 12.7769 15.6134 11.9832 14.9833 11.4159C14.6354 11.1027 14.2178 10.8718 13.7678 10.7221C14.0935 10.4064 14.2992 9.96249 14.2992 9.47701C14.2992 8.52601 13.5181 7.7449 12.5671 7.7449C11.6161 7.7449 10.8349 8.52598 10.8349 9.47701C10.8349 9.98844 11.0638 10.4532 11.4204 10.7713C11.3126 10.8125 11.2047 10.855 11.1006 10.9041C11.092 10.8963 11.0847 10.8874 11.076 10.8795C10.6123 10.4621 10.0471 10.1583 9.43737 9.97899C9.97044 9.57553 10.3182 8.93297 10.3182 8.21736C10.3182 7.00535 9.32554 6.01273 8.11368 6.01273L8.11379 6.0127ZM8.11379 6.95757C8.81511 6.95757 9.37357 7.51599 9.37357 8.21735C9.37357 8.91868 8.81514 9.47702 8.11379 9.47702C7.41246 9.47702 6.854 8.91871 6.854 8.21735C6.854 7.51602 7.41243 6.95757 8.11379 6.95757ZM12.5674 8.68967C13.0078 8.68967 13.3547 9.03667 13.3547 9.47702C13.3547 9.91748 13.0077 10.2644 12.5674 10.2644C12.1269 10.2644 11.78 9.91748 11.78 9.47702C11.78 9.03667 12.1269 8.68967 12.5674 8.68967ZM8.16328 10.7368C9.00807 10.7368 9.86243 11.0573 10.4466 11.5833C10.9457 12.0326 11.2455 12.6394 11.3274 13.2564H5.00385C5.08569 12.6394 5.38566 12.0326 5.88467 11.5833C6.4688 11.0573 7.3182 10.7368 8.16311 10.7368H8.16328ZM12.6264 11.4749C13.265 11.4749 13.9153 11.7249 14.3537 12.1196C14.6974 12.429 14.9209 12.8362 15.0033 13.2564H12.2771C12.2236 12.69 12.0326 12.1469 11.721 11.662C12.0124 11.5552 12.3146 11.475 12.6264 11.475L12.6264 11.4749Z" fill="white"/>
</g>
<rect x="0.5" y="0.5" width="18.9987" height="19" rx="9.49934" stroke="white"/>
<defs>
<clipPath id="clip0_703_6158">
<rect width="12" height="12" fill="white" transform="translate(3.99805 4)"/>
</clipPath>
</defs>
</svg>
