<svg width="674" height="632" viewBox="0 0 674 632" fill="none" xmlns="http://www.w3.org/2000/svg">
<path d="M54.2969 566.799H706.526" stroke="#263238" stroke-width="4.55012" stroke-linecap="round" stroke-linejoin="round"/>
<path d="M247.465 280.914C241.247 277.987 235.332 275.59 231.783 269.251C229.022 264.245 227.961 257.299 234.407 254.736C243.128 251.278 250.787 262.577 253.047 269.66C254.442 273.998 255.944 279.959 256.839 283.644C256.839 279.564 256.839 276.197 256.687 273.983C256.687 272.906 256.581 272.102 256.55 271.632C255.523 268.613 254.255 265.681 252.759 262.865C249.892 256.616 246.843 250.929 248.209 243.846C249.316 238.234 252.971 232.228 259.554 234.412C268.457 237.445 267.046 250.944 264.24 257.83C262.253 262.668 259.007 269.266 257.476 272.329C257.612 274.514 257.84 279.367 257.688 285.51C259.453 282.745 260.976 279.832 262.238 276.804C265.271 270.661 267.804 264.67 274.205 261.364C279.271 258.709 286.232 257.784 288.659 264.276C291.95 273.057 280.514 280.489 273.386 282.613C268.229 284.129 260.797 285.828 257.582 286.526C257.423 292.829 256.825 299.113 255.792 305.333C255.792 305.697 255.656 306.076 255.58 306.44C258.031 304.2 260.274 301.743 262.284 299.099C266.834 293.897 270.656 288.755 277.693 287.072C283.244 285.752 290.237 286.571 290.98 293.457C291.996 302.785 279.089 307.108 271.657 307.472C266.288 307.699 258.689 307.472 255.383 307.381C254.715 310.414 253.669 313.993 252.501 317.998C251.333 322.002 249.998 326.461 248.83 331.284C250.969 331.284 256.141 324.459 257.339 323.078C261.889 317.861 265.711 312.719 272.749 311.051C278.3 309.716 285.292 310.535 286.035 317.436C287.051 326.749 274.144 331.087 266.712 331.451C259.781 331.739 249.134 331.299 248.83 331.284L248.952 331.587C248.903 331.497 248.848 331.41 248.785 331.329C247.374 336.949 246.36 342.661 245.751 348.423C248.36 347.983 253.972 343.645 255.337 342.72C261.025 338.867 266.136 334.924 273.356 335.136C279.074 335.318 285.595 337.942 284.503 344.798C282.987 354.05 269.427 354.899 262.177 353.246C256.444 351.941 248.239 349.424 245.721 348.696C245.052 355.475 245.158 362.31 246.04 369.065C248.8 368.307 253.942 364.333 255.231 363.453C260.919 359.601 266.03 355.657 273.249 355.87C278.967 356.052 285.489 358.676 284.412 365.516C282.896 374.783 269.336 375.632 262.086 373.979C256.672 372.751 249.073 370.445 246.115 369.52C247.503 378.778 250.442 387.736 254.806 396.017L253.987 396.426C249.665 388.069 246.774 379.046 245.433 369.732C243.264 368.731 235.681 370.582 233.967 370.87C227.202 372.053 220.938 373.57 214.431 370.4C209.29 367.897 204.421 362.816 208.198 357.038C213.324 349.181 226.095 354.004 232.04 358.448C236.97 362.164 243.825 368.201 245.418 369.626C245.418 369.459 245.418 369.293 245.418 369.141L245.145 369.05C245.235 369.066 245.327 369.066 245.418 369.05C244.506 362.205 244.399 355.277 245.099 348.407C242.794 347.194 235.559 347.497 233.906 347.467C227.035 347.315 220.589 347.588 214.826 343.22C210.276 339.777 206.454 333.862 211.292 328.903C217.844 322.184 229.492 329.373 234.407 334.969C238.304 339.322 243.507 346.026 245.114 348.18C245.734 342.263 246.778 336.399 248.239 330.632C245.797 329.115 239.639 327.689 238.168 327.265C231.57 325.369 225.261 323.958 220.817 318.271C217.283 313.72 215.114 307.092 221.059 303.528C229.113 298.705 238.486 308.624 241.869 315.237C244.235 319.893 247.117 326.612 248.436 329.782C249.543 325.414 250.741 321.349 251.818 317.649C252.971 313.751 253.987 310.277 254.67 307.259H253.972C254.23 307.244 254.483 307.177 254.715 307.062V306.91C252.683 305.288 245.509 304.256 243.886 303.877C237.152 302.451 230.766 301.526 225.913 296.172C222.076 291.94 219.421 285.434 225.094 281.445C232.768 276.061 242.839 285.267 246.692 291.622C249.725 296.597 253.547 304.12 254.776 306.577C254.882 306.061 254.988 305.561 255.064 305.06C256.07 298.954 256.663 292.787 256.839 286.602L256.186 286.753C256.427 286.679 256.649 286.555 256.839 286.389C256.839 286.162 256.839 285.934 256.839 285.722C254.609 283.811 248.83 281.506 247.465 280.914Z" fill="#F5F5F5"/>
<path d="M127.949 363.59C122.595 367.169 118.849 370.096 112.782 370.4C107.974 370.642 101.574 370.127 101.21 364.045C100.724 355.809 111.736 354.854 118.652 355.733C122.899 356.279 128.753 357.25 133.152 358.342C130.118 357.038 126.918 355.794 123.763 354.717C123.763 354.717 123.839 354.717 123.763 354.717C123.687 354.717 123.915 354.717 123.657 354.717C123.399 354.717 121.716 354.065 121.382 353.989C118.303 353.612 115.2 353.465 112.1 353.549C105.426 353.473 99.4806 353.989 94.3086 351.031C90.2135 348.681 87.7261 344.54 91.2752 340.414C96.0529 334.909 104.471 339.671 109.9 343.63C113.738 346.405 118.591 350.243 122.353 353.473C126.721 354.914 131.074 356.658 135.169 358.387C134.016 356.658 129.451 352.958 128.45 352.017C123.536 347.467 117.833 344.267 117.09 337.73C116.483 332.543 119.531 328.372 125.386 329.145C133.303 330.207 137.353 339.095 137.322 346.208C137.185 350.457 136.815 354.695 136.215 358.903C141.922 361.48 147.432 364.471 152.702 367.852C152.964 368.049 153.237 368.232 153.521 368.398C153.157 366.456 150.154 362.331 149.502 361.148C146.332 355.445 142.616 351.729 143.298 345.253C143.829 340.141 148.015 336.835 153.491 339.186C160.877 342.341 162.166 351.32 159.83 357.963C158.147 362.786 156.478 364.985 154.279 369.004C156.812 371.173 159.648 372.857 161.863 375.45C164.077 378.044 165.852 381.517 167.93 384.444C169.143 382.185 167.338 376.664 166.898 375.026C165.245 368.959 162.348 365.319 163.228 359.115C163.941 354.217 167.778 351.047 173.086 353.731C180.215 357.371 178.577 368.11 175.998 372.902C173.723 376.745 171.189 380.429 168.415 383.929C166.898 386.143 168.764 383.929 168.309 384.475C167.854 385.021 168.309 384.126 168.005 384.581C170.675 388.54 173.208 392.862 175.968 396.715C177.106 394.788 177.182 389.04 177.364 387.539C178.107 381.29 177.576 376.451 181.049 371.568C183.779 367.7 188.633 366.168 192 370.749C196.55 376.937 191.742 385.324 186.737 389.541C183.368 392.258 179.821 394.746 176.12 396.988C179.502 401.538 182.763 406.209 187.723 409.121C188.617 407.301 188.784 402.342 188.966 400.901C189.801 394.561 189.922 389.192 193.623 384.399C196.535 380.592 201.343 378.469 204.664 383.125C209.214 389.434 203.815 397.412 198.84 401.765C195.411 404.535 191.798 407.069 188.026 409.349C194.51 412.658 201.421 415.052 208.562 416.462C208.562 416.674 208.456 416.902 208.411 417.13C201.237 415.691 194.286 413.309 187.738 410.047C185.887 410.972 183.825 415.294 183.097 416.493C180.185 421.27 178.289 424.713 173.435 426.927C169.583 428.687 164.183 428.914 163.106 423.773C161.59 416.841 168.84 411.988 174.724 411.093C179.623 410.335 183.263 410.835 187.632 409.94C187.95 409.94 187.268 409.819 187.343 409.773C187.419 409.728 187.161 409.955 187.177 409.88C187.192 409.804 187.268 409.789 187.328 409.743C182.353 406.558 179.062 402.16 175.574 397.458C173.678 398.11 170.857 402.251 169.977 403.282C166.307 407.589 163.91 411.184 158.587 412.488C154.446 413.52 149.79 412.61 149.486 407.423C149.016 400.4 157.07 396.396 163.137 396.047C167.278 395.955 171.416 396.341 175.468 397.2C172.571 393.15 170.068 388.843 167.277 384.763C165.457 385.294 161.954 388.54 160.907 389.313C156.236 392.877 152.717 396.062 147.151 396.426C142.752 396.715 137.444 395.638 137.671 390.041C137.99 382.458 148.44 380.85 154.749 381.411C158.893 381.768 162.972 382.665 166.883 384.08C165.171 381.265 163.313 378.541 161.317 375.921C158.974 373.669 156.492 371.567 153.885 369.626C153.885 369.717 153.445 369.99 153.612 370.066C153.779 370.142 153.733 369.596 153.718 369.52C153.703 369.444 153.612 369.444 153.566 369.52C151.428 370.127 148.212 374.07 147.136 375.193C142.676 379.485 139.415 382.958 133.667 384.096C129.117 385.006 123.202 385.036 122.004 379.257C120.366 371.431 130.77 368.64 137.398 368.64C142.57 368.64 148.152 368.944 153.369 369.338C153.005 369.065 152.596 368.777 152.217 368.534C147.059 365.217 141.671 362.272 136.094 359.722C136.094 359.828 135.866 360.192 136.094 360.223C136.321 360.253 136.094 359.692 135.927 359.631C135.735 359.508 135.517 359.431 135.29 359.404C133.136 359.783 129.147 362.816 127.949 363.59Z" fill="#F5F5F5"/>
<path d="M127.949 363.59C122.595 367.169 118.849 370.096 112.782 370.4C107.974 370.642 101.574 370.127 101.21 364.045C100.724 355.809 111.736 354.854 118.652 355.733C122.899 356.279 128.753 357.25 133.152 358.342C130.118 357.038 126.918 355.794 123.763 354.717C123.763 354.717 123.839 354.717 123.763 354.717C123.687 354.717 123.915 354.717 123.657 354.717C123.399 354.717 121.716 354.065 121.382 353.989C118.303 353.612 115.2 353.465 112.1 353.549C105.426 353.473 99.4806 353.989 94.3086 351.031C90.2135 348.681 87.7261 344.54 91.2752 340.414C96.0529 334.909 104.471 339.671 109.9 343.63C113.738 346.405 118.591 350.243 122.353 353.473C126.721 354.914 131.074 356.658 135.169 358.387C134.016 356.658 129.451 352.958 128.45 352.017C123.536 347.467 117.833 344.267 117.09 337.73C116.483 332.543 119.531 328.372 125.386 329.145C133.303 330.207 137.353 339.095 137.322 346.208C137.185 350.457 136.815 354.695 136.215 358.903C141.922 361.48 147.432 364.471 152.702 367.852C152.964 368.049 153.237 368.232 153.521 368.398C153.157 366.456 150.154 362.331 149.502 361.148C146.332 355.445 142.616 351.729 143.298 345.253C143.829 340.141 148.015 336.835 153.491 339.186C160.877 342.341 162.166 351.32 159.83 357.963C158.147 362.786 156.478 364.985 154.279 369.004C156.812 371.173 159.648 372.857 161.863 375.45C164.077 378.044 165.852 381.517 167.93 384.444C169.143 382.185 167.338 376.664 166.898 375.026C165.245 368.959 162.348 365.319 163.228 359.115C163.941 354.217 167.778 351.047 173.086 353.731C180.215 357.371 178.577 368.11 175.998 372.902C173.723 376.745 171.189 380.429 168.415 383.929C166.898 386.143 168.764 383.929 168.309 384.475C167.854 385.021 168.309 384.126 168.005 384.581C170.675 388.54 173.208 392.862 175.968 396.715C177.106 394.788 177.182 389.04 177.364 387.539C178.107 381.29 177.576 376.451 181.049 371.568C183.779 367.7 188.633 366.168 192 370.749C196.55 376.937 191.742 385.324 186.737 389.541C183.368 392.258 179.821 394.746 176.12 396.988C179.502 401.538 182.763 406.209 187.723 409.121C188.617 407.301 188.784 402.342 188.966 400.901C189.801 394.561 189.922 389.192 193.623 384.399C196.535 380.592 201.343 378.469 204.664 383.125C209.214 389.434 203.815 397.412 198.84 401.765C195.411 404.535 191.798 407.069 188.026 409.349C194.51 412.658 201.421 415.052 208.562 416.462C208.562 416.674 208.456 416.902 208.411 417.13C201.237 415.691 194.286 413.309 187.738 410.047C185.887 410.972 183.825 415.294 183.097 416.493C180.185 421.27 178.289 424.713 173.435 426.927C169.583 428.687 164.183 428.914 163.106 423.773C161.59 416.841 168.84 411.988 174.724 411.093C179.623 410.335 183.263 410.835 187.632 409.94C187.95 409.94 187.268 409.819 187.343 409.773C187.419 409.728 187.161 409.955 187.177 409.88C187.192 409.804 187.268 409.789 187.328 409.743C182.353 406.558 179.062 402.16 175.574 397.458C173.678 398.11 170.857 402.251 169.977 403.282C166.307 407.589 163.91 411.184 158.587 412.488C154.446 413.52 149.79 412.61 149.486 407.423C149.016 400.4 157.07 396.396 163.137 396.047C167.278 395.955 171.416 396.341 175.468 397.2C172.571 393.15 170.068 388.843 167.277 384.763C165.457 385.294 161.954 388.54 160.907 389.313C156.236 392.877 152.717 396.062 147.151 396.426C142.752 396.715 137.444 395.638 137.671 390.041C137.99 382.458 148.44 380.85 154.749 381.411C158.893 381.768 162.972 382.665 166.883 384.08C165.171 381.265 163.313 378.541 161.317 375.921C158.974 373.669 156.492 371.567 153.885 369.626C153.885 369.717 153.445 369.99 153.612 370.066C153.779 370.142 153.733 369.596 153.718 369.52C153.703 369.444 153.612 369.444 153.566 369.52C151.428 370.127 148.212 374.07 147.136 375.193C142.676 379.485 139.415 382.958 133.667 384.096C129.117 385.006 123.202 385.036 122.004 379.257C120.366 371.431 130.77 368.64 137.398 368.64C142.57 368.64 148.152 368.944 153.369 369.338C153.005 369.065 152.596 368.777 152.217 368.534C147.059 365.217 141.671 362.272 136.094 359.722C136.094 359.828 135.866 360.192 136.094 360.223C136.321 360.253 136.094 359.692 135.927 359.631C135.735 359.508 135.517 359.431 135.29 359.404C133.136 359.783 129.147 362.816 127.949 363.59Z" fill="#F5F5F5"/>
<path d="M605.408 211.98C602.374 206.247 599.978 202.167 600.342 196.085C600.645 191.277 601.859 184.982 607.926 185.301C616.161 185.741 615.888 196.782 614.235 203.501C613.219 207.657 611.52 213.36 610.019 217.622C611.657 214.77 613.249 211.722 614.675 208.704C614.675 208.704 614.675 208.855 614.751 208.597C614.827 208.34 615.6 206.747 615.721 206.429C616.44 203.409 616.947 200.343 617.238 197.253C618.057 190.625 618.209 184.664 621.788 179.856C624.564 176.049 628.977 174.047 632.618 178.006C637.562 183.359 631.874 191.201 627.339 196.206C624.139 199.694 619.756 204.108 616.161 207.475C614.235 211.661 612.005 215.787 609.837 219.609C611.687 218.668 615.903 214.543 616.92 213.648C622.016 209.28 625.808 203.987 632.39 203.956C637.608 203.956 641.414 207.445 639.974 213.163C638.032 220.913 628.75 223.947 621.682 223.128C617.474 222.508 613.302 221.662 609.184 220.595C605.992 225.981 602.403 231.122 598.446 235.974C598.226 236.216 598.018 236.469 597.824 236.732C599.796 236.581 604.225 234.063 605.408 233.547C611.475 231.03 615.539 227.769 621.894 229.164C626.93 230.271 629.736 234.806 626.809 239.963C622.85 246.955 613.81 247.243 607.44 244.179C602.89 241.95 600.843 240.054 597.081 237.415C594.832 239.885 592.403 242.187 589.816 244.301C586.995 246.272 583.294 247.562 580.215 249.276C582.324 250.792 588.026 249.549 589.695 249.276C595.959 248.32 599.857 245.817 605.924 247.41C610.716 248.669 613.416 252.885 610.17 257.815C605.757 264.488 595.261 261.652 590.787 258.543C587.224 255.827 583.849 252.873 580.685 249.7C578.653 247.971 580.685 250.064 580.17 249.549C579.654 249.033 580.503 249.624 580.17 249.23C575.923 251.429 571.358 253.462 567.263 255.782C569.052 257.132 574.755 257.845 576.211 258.194C582.354 259.635 587.222 259.711 591.682 263.639C595.216 266.794 596.232 271.859 591.272 274.635C584.614 278.381 576.818 272.739 573.178 267.294C570.858 263.619 568.786 259.793 566.974 255.843C562.06 258.694 557.07 261.409 553.658 266.02C555.357 267.112 560.271 267.825 561.681 268.174C567.9 269.69 573.208 270.434 577.561 274.65C581.019 277.972 582.581 282.977 577.561 285.768C570.797 289.529 563.456 283.31 559.679 277.896C557.305 274.174 555.182 270.298 553.324 266.293C549.326 272.368 546.177 278.961 543.966 285.889L543.314 285.677C545.548 278.72 548.695 272.089 552.672 265.959C551.959 264.018 547.894 261.485 546.787 260.621C542.358 257.193 539.204 254.933 537.49 249.852C536.185 245.833 536.564 240.433 541.782 239.948C548.85 239.28 552.869 246.97 553.097 252.916C553.294 257.86 552.384 261.409 552.793 265.853C552.793 266.202 552.96 265.519 552.975 265.595C552.99 265.671 552.824 265.398 552.899 265.413C552.975 265.428 552.99 265.52 553.021 265.58C556.737 261.03 561.545 258.224 566.55 255.282C566.11 253.31 562.303 250.064 561.378 249.063C557.51 244.938 554.219 242.071 553.506 236.717C552.945 232.486 554.371 227.951 559.573 228.193C566.595 228.512 569.674 237.036 569.325 243.103C568.963 247.232 568.118 251.304 566.808 255.236C571.161 252.81 575.711 250.807 580.079 248.487C579.76 246.621 576.924 242.784 576.257 241.647C573.223 236.596 570.448 232.743 570.721 227.177C570.933 222.779 572.586 217.622 578.137 218.471C585.721 219.639 586.055 230.211 584.796 236.399C583.979 240.508 582.623 244.491 580.761 248.244C583.755 246.89 586.672 245.371 589.498 243.694C592.005 241.625 594.376 239.395 596.596 237.021C596.505 237.021 596.277 236.55 596.186 236.702C596.095 236.854 596.641 236.884 596.717 236.869C596.733 236.85 596.742 236.826 596.742 236.801C596.742 236.776 596.733 236.752 596.717 236.732C596.368 234.533 592.728 230.878 591.818 229.695C588.057 224.781 584.947 221.156 584.462 215.316C584.083 210.691 584.72 204.821 590.529 204.26C598.492 203.517 600.099 214.179 599.371 220.746C598.795 225.903 597.855 231.363 596.884 236.55C597.187 236.217 597.521 235.853 597.809 235.489C601.706 230.741 605.254 225.718 608.426 220.458C608.335 220.458 608.001 220.17 607.941 220.337C607.88 220.504 608.472 220.337 608.547 220.246C608.696 220.071 608.8 219.863 608.851 219.639C608.654 217.546 606.06 213.239 605.408 211.98Z" fill="#7E57CA"/>
<path d="M605.408 211.98C602.374 206.247 599.978 202.167 600.342 196.085C600.645 191.277 601.859 184.982 607.926 185.301C616.161 185.741 615.888 196.782 614.235 203.501C613.219 207.657 611.52 213.36 610.019 217.622C611.657 214.77 613.249 211.722 614.675 208.704C614.675 208.704 614.675 208.855 614.751 208.597C614.827 208.34 615.6 206.747 615.721 206.429C616.44 203.409 616.947 200.343 617.238 197.253C618.057 190.625 618.209 184.664 621.788 179.856C624.564 176.049 628.977 174.047 632.618 178.006C637.562 183.359 631.874 191.201 627.339 196.206C624.139 199.694 619.756 204.108 616.161 207.475C614.235 211.661 612.005 215.787 609.837 219.609C611.687 218.668 615.903 214.543 616.92 213.648C622.016 209.28 625.808 203.987 632.39 203.956C637.608 203.956 641.414 207.445 639.974 213.163C638.032 220.913 628.75 223.947 621.682 223.128C617.474 222.508 613.302 221.662 609.184 220.595C605.992 225.981 602.403 231.122 598.446 235.974C598.226 236.216 598.018 236.469 597.824 236.732C599.796 236.581 604.225 234.063 605.408 233.547C611.475 231.03 615.539 227.769 621.894 229.164C626.93 230.271 629.736 234.806 626.809 239.963C622.85 246.955 613.81 247.243 607.44 244.179C602.89 241.95 600.843 240.054 597.081 237.415C594.832 239.885 592.403 242.187 589.816 244.301C586.995 246.272 583.294 247.562 580.215 249.276C582.324 250.792 588.026 249.549 589.695 249.276C595.959 248.32 599.857 245.817 605.924 247.41C610.716 248.669 613.416 252.885 610.17 257.815C605.757 264.488 595.261 261.652 590.787 258.543C587.224 255.827 583.849 252.873 580.685 249.7C578.653 247.971 580.685 250.064 580.17 249.549C579.654 249.033 580.503 249.624 580.17 249.23C575.923 251.429 571.358 253.462 567.263 255.782C569.052 257.132 574.755 257.845 576.211 258.194C582.354 259.635 587.222 259.711 591.682 263.639C595.216 266.794 596.232 271.859 591.272 274.635C584.614 278.381 576.818 272.739 573.178 267.294C570.858 263.619 568.786 259.793 566.974 255.843C562.06 258.694 557.07 261.409 553.658 266.02C555.357 267.112 560.271 267.825 561.681 268.174C567.9 269.69 573.208 270.434 577.561 274.65C581.019 277.972 582.581 282.977 577.561 285.768C570.797 289.529 563.456 283.31 559.679 277.896C557.305 274.174 555.182 270.298 553.324 266.293C549.326 272.368 546.177 278.961 543.966 285.889L543.314 285.677C545.548 278.72 548.695 272.089 552.672 265.959C551.959 264.018 547.894 261.485 546.787 260.621C542.358 257.193 539.204 254.933 537.49 249.852C536.185 245.833 536.564 240.433 541.782 239.948C548.85 239.28 552.869 246.97 553.097 252.916C553.294 257.86 552.384 261.409 552.793 265.853C552.793 266.202 552.96 265.519 552.975 265.595C552.99 265.671 552.824 265.398 552.899 265.413C552.975 265.428 552.99 265.52 553.021 265.58C556.737 261.03 561.545 258.224 566.55 255.282C566.11 253.31 562.303 250.064 561.378 249.063C557.51 244.938 554.219 242.071 553.506 236.717C552.945 232.486 554.371 227.951 559.573 228.193C566.595 228.512 569.674 237.036 569.325 243.103C568.963 247.232 568.118 251.304 566.808 255.236C571.161 252.81 575.711 250.807 580.079 248.487C579.76 246.621 576.924 242.784 576.257 241.647C573.223 236.596 570.448 232.743 570.721 227.177C570.933 222.779 572.586 217.622 578.137 218.471C585.721 219.639 586.055 230.211 584.796 236.399C583.979 240.508 582.623 244.491 580.761 248.244C583.755 246.89 586.672 245.371 589.498 243.694C592.005 241.625 594.376 239.395 596.596 237.021C596.505 237.021 596.277 236.55 596.186 236.702C596.095 236.854 596.641 236.884 596.717 236.869C596.733 236.85 596.742 236.826 596.742 236.801C596.742 236.776 596.733 236.752 596.717 236.732C596.368 234.533 592.728 230.878 591.818 229.695C588.057 224.781 584.947 221.156 584.462 215.316C584.083 210.691 584.72 204.821 590.529 204.26C598.492 203.517 600.099 214.179 599.371 220.746C598.795 225.903 597.855 231.363 596.884 236.55C597.187 236.217 597.521 235.853 597.809 235.489C601.706 230.741 605.254 225.718 608.426 220.458C608.335 220.458 608.001 220.17 607.941 220.337C607.88 220.504 608.472 220.337 608.547 220.246C608.696 220.071 608.8 219.863 608.851 219.639C608.654 217.546 606.06 213.239 605.408 211.98Z" fill="#F5F5F5"/>
<g opacity="0.5">
<path opacity="0.5" d="M605.408 211.98C602.374 206.247 599.978 202.167 600.342 196.085C600.645 191.277 601.859 184.982 607.926 185.301C616.161 185.741 615.888 196.782 614.235 203.501C613.219 207.657 611.52 213.36 610.019 217.622C611.657 214.77 613.249 211.722 614.675 208.704C614.675 208.704 614.675 208.855 614.751 208.597C614.827 208.34 615.6 206.747 615.721 206.429C616.44 203.409 616.947 200.343 617.238 197.253C618.057 190.625 618.209 184.664 621.788 179.856C624.564 176.049 628.977 174.047 632.618 178.006C637.562 183.359 631.874 191.201 627.339 196.206C624.139 199.694 619.756 204.108 616.161 207.475C614.235 211.661 612.005 215.787 609.837 219.609C611.687 218.668 615.903 214.543 616.92 213.648C622.016 209.28 625.808 203.987 632.39 203.956C637.608 203.956 641.414 207.445 639.974 213.163C638.032 220.913 628.75 223.947 621.682 223.128C617.474 222.508 613.302 221.662 609.184 220.595C605.992 225.981 602.403 231.122 598.446 235.974C598.226 236.216 598.018 236.469 597.824 236.732C599.796 236.581 604.225 234.063 605.408 233.547C611.475 231.03 615.539 227.769 621.894 229.164C626.93 230.271 629.736 234.806 626.809 239.963C622.85 246.955 613.81 247.243 607.44 244.179C602.89 241.95 600.843 240.054 597.081 237.415C594.832 239.885 592.403 242.187 589.816 244.301C586.995 246.272 583.294 247.562 580.215 249.276C582.324 250.792 588.026 249.549 589.695 249.276C595.959 248.32 599.857 245.817 605.924 247.41C610.716 248.669 613.416 252.885 610.17 257.815C605.757 264.488 595.261 261.652 590.787 258.543C587.224 255.827 583.849 252.873 580.685 249.7C578.653 247.971 580.685 250.064 580.17 249.549C579.654 249.033 580.503 249.624 580.17 249.23C575.923 251.429 571.358 253.462 567.263 255.782C569.052 257.132 574.755 257.845 576.211 258.194C582.354 259.635 587.222 259.711 591.682 263.639C595.216 266.794 596.232 271.859 591.272 274.635C584.614 278.381 576.818 272.739 573.178 267.294C570.858 263.619 568.786 259.793 566.974 255.843C562.06 258.694 557.07 261.409 553.658 266.02C555.357 267.112 560.271 267.825 561.681 268.174C567.9 269.69 573.208 270.434 577.561 274.65C581.019 277.972 582.581 282.977 577.561 285.768C570.797 289.529 563.456 283.31 559.679 277.896C557.305 274.174 555.182 270.298 553.324 266.293C549.326 272.368 546.177 278.961 543.966 285.889L543.314 285.677C545.548 278.72 548.695 272.089 552.672 265.959C551.959 264.018 547.894 261.485 546.787 260.621C542.358 257.193 539.204 254.933 537.49 249.852C536.185 245.833 536.564 240.433 541.782 239.948C548.85 239.28 552.869 246.97 553.097 252.916C553.294 257.86 552.384 261.409 552.793 265.853C552.793 266.202 552.96 265.519 552.975 265.595C552.99 265.671 552.824 265.398 552.899 265.413C552.975 265.428 552.99 265.52 553.021 265.58C556.737 261.03 561.545 258.224 566.55 255.282C566.11 253.31 562.303 250.064 561.378 249.063C557.51 244.938 554.219 242.071 553.506 236.717C552.945 232.486 554.371 227.951 559.573 228.193C566.595 228.512 569.674 237.036 569.325 243.103C568.963 247.232 568.118 251.304 566.808 255.236C571.161 252.81 575.711 250.807 580.079 248.487C579.76 246.621 576.924 242.784 576.257 241.647C573.223 236.596 570.448 232.743 570.721 227.177C570.933 222.779 572.586 217.622 578.137 218.471C585.721 219.639 586.055 230.211 584.796 236.399C583.979 240.508 582.623 244.491 580.761 248.244C583.755 246.89 586.672 245.371 589.498 243.694C592.005 241.625 594.376 239.395 596.596 237.021C596.505 237.021 596.277 236.55 596.186 236.702C596.095 236.854 596.641 236.884 596.717 236.869C596.733 236.85 596.742 236.826 596.742 236.801C596.742 236.776 596.733 236.752 596.717 236.732C596.368 234.533 592.728 230.878 591.818 229.695C588.057 224.781 584.947 221.156 584.462 215.316C584.083 210.691 584.72 204.821 590.529 204.26C598.492 203.517 600.099 214.179 599.371 220.746C598.795 225.903 597.855 231.363 596.884 236.55C597.187 236.217 597.521 235.853 597.809 235.489C601.706 230.741 605.254 225.718 608.426 220.458C608.335 220.458 608.001 220.17 607.941 220.337C607.88 220.504 608.472 220.337 608.547 220.246C608.696 220.071 608.8 219.863 608.851 219.639C608.654 217.546 606.06 213.239 605.408 211.98Z" fill="white"/>
</g>
<path d="M542.679 531.369V502.794H456.743V531.369C456.728 540.716 453.517 549.777 447.642 557.047L443.881 561.703H555.571L551.81 557.047C545.914 549.786 542.691 540.721 542.679 531.369Z" fill="white"/>
<path d="M451.465 521.252H547.958C544.502 515.15 542.684 508.259 542.68 501.247V472.672H456.743V501.247C456.731 508.258 454.913 515.148 451.465 521.252Z" fill="#263238"/>
<path d="M542.679 531.369V502.794H456.743V531.369C456.728 540.716 453.517 549.777 447.642 557.047L443.881 561.703H555.571L551.81 557.047C545.914 549.786 542.691 540.721 542.679 531.369V531.369Z" stroke="#263238" stroke-width="1.51671" stroke-linecap="round" stroke-linejoin="round"/>
<path d="M659.557 258.164H339.85C332.747 258.164 326.988 263.922 326.988 271.026V498.941C326.988 506.045 332.747 511.803 339.85 511.803H659.557C666.66 511.803 672.418 506.045 672.418 498.941V271.026C672.418 263.922 666.66 258.164 659.557 258.164Z" stroke="#263238" stroke-width="1.51671" stroke-linecap="round" stroke-linejoin="round"/>
<path d="M326.988 472.385H672.418V498.942C672.418 502.353 671.063 505.625 668.651 508.037C666.239 510.449 662.968 511.804 659.557 511.804H339.865C336.454 511.804 333.183 510.449 330.771 508.037C328.359 505.625 327.003 502.353 327.003 498.942V472.385H326.988Z" fill="white" stroke="#263238" stroke-width="1.51671" stroke-linecap="round" stroke-linejoin="round"/>
<path d="M345.369 452.136V274.938H654.051V452.136H345.369Z" fill="#F6F6F6" stroke="black" stroke-width="2"/>
<path d="M653.051 325.522L437.648 451.136H653.051V325.522Z" fill="#E4E3E3"/>
<path d="M655.051 273.938H344.369V453.137H655.051V273.938Z" stroke="white" stroke-width="1.51671" stroke-linecap="round" stroke-linejoin="round"/>
<path d="M555.601 561.703H443.85V566.799H555.601V561.703Z" fill="#263238" stroke="#263238" stroke-width="1.51671" stroke-linecap="round" stroke-linejoin="round"/>
<path d="M521.231 361.3C521.231 361.3 516.135 358.266 516.469 353.307C516.802 348.347 528.603 344.707 538.355 346.739C548.107 348.772 551.929 361.042 550.671 367.837C549.412 374.632 549.685 379.379 555.843 384.323C562 389.268 572.784 404.041 567.597 410.699C562.41 417.357 556.586 419.375 560.514 425.153C564.442 430.932 564.806 437.287 558.83 441.17C556.095 443.131 552.849 444.257 549.487 444.41C546.124 444.563 542.79 443.738 539.887 442.034C533.638 438.455 527.753 426.655 530.104 418.358C532.455 410.062 528.451 384.991 527.495 376.088C526.54 367.185 525.114 362.028 521.231 361.3Z" fill="#263238"/>
<path d="M521.353 418.101L518.987 428.718L504.411 452.743L500.862 455.488C500.216 457.555 499.709 459.663 499.346 461.797C499.346 462.98 500.134 462.98 501.317 462.586C502.5 462.192 502.834 460.614 504.078 460.22C505.322 459.826 507.87 458.188 508.264 456.61C508.658 455.033 509.917 451.423 509.917 451.423L527.253 431.069C527.253 431.069 529.225 418.48 526.07 415.72C522.915 412.959 521.353 418.101 521.353 418.101Z" fill="white" stroke="#263238" stroke-width="1.51671" stroke-linecap="round" stroke-linejoin="round"/>
<path d="M521.351 418.101L518.985 428.718L513.055 438.486L517.756 442.186L527.251 431.069C527.251 431.069 529.223 418.48 526.068 415.72C522.913 412.96 521.351 418.101 521.351 418.101Z" fill="#7E57CA" stroke="#263238" stroke-width="1.51671" stroke-linecap="round" stroke-linejoin="round"/>
<path d="M523.886 380.031C525.275 382.106 526 384.556 525.964 387.053C525.706 390.769 519.563 397.23 517.197 402.979C514.831 408.727 516.135 412.731 517.561 414.991C518.987 417.251 521.474 420.967 521.535 422.939C521.596 424.91 522.142 428.49 522.142 428.49C522.142 428.49 528.664 430.901 542.132 426.518C542.132 426.518 545.575 396.457 545.453 392.529C545.332 388.6 540.221 385.673 537.703 385.112C535.185 384.551 532.349 382.776 531.5 380.744C530.995 379.518 530.623 378.242 530.393 376.937L523.886 380.031Z" fill="#7E57CA" stroke="#263238" stroke-width="1.51671" stroke-linecap="round" stroke-linejoin="round"/>
<path d="M536.216 384.642C534.215 383.972 532.534 382.583 531.499 380.744C530.994 379.518 530.623 378.242 530.392 376.937L523.885 379.97C525.275 382.046 526 384.495 525.963 386.993C525.842 388.691 524.446 390.951 522.93 393.454C523.9 396.002 524.992 396.639 528.602 394.379C532.244 392.171 534.952 388.708 536.216 384.642Z" fill="white" stroke="#263238" stroke-width="1.51671" stroke-linecap="round" stroke-linejoin="round"/>
<path d="M525.372 353.716C525.372 353.716 521.049 356.749 520.139 359.54C519.229 362.331 516.226 368.853 516.529 371.249C516.833 373.646 516.817 381.062 519.563 381.972C522.308 382.882 531.787 377.801 533.395 375.284C534.616 372.858 535.301 370.198 535.403 367.484C535.505 364.77 535.022 362.066 533.987 359.555C531.408 352.912 526.737 351.411 525.372 353.716Z" fill="white" stroke="#263238" stroke-width="1.51671" stroke-linecap="round" stroke-linejoin="round"/>
<path d="M524.598 351.26C524.598 351.26 529.921 357.114 530.149 364.288C530.376 371.462 526.979 379.122 532.803 384.764C538.627 390.406 549.244 385.189 549.244 385.189C545.358 381.737 542.88 376.974 542.282 371.811C541.645 363.651 540.25 356.144 536.61 353.52C532.97 350.896 526.084 350.41 524.598 351.26Z" fill="#263238"/>
<path d="M527.344 350.941C529.083 350.663 530.865 350.985 532.397 351.853C533.929 352.721 535.121 354.084 535.777 355.719C538.294 361.619 533.805 372.858 536.338 378.758C538.871 384.658 555.433 388.874 555.721 399.552C556.01 410.229 547.288 412.186 547.85 419.269C548.411 426.352 555.994 426.852 556.283 433.329C556.403 435.12 555.985 436.906 555.083 438.457C554.18 440.009 552.833 441.255 551.217 442.035" stroke="white" stroke-width="0.758354" stroke-linecap="round" stroke-linejoin="round"/>
<path d="M531.271 350.091C531.271 350.091 542.51 347.574 546.166 357.675C549.821 367.776 541.949 377.635 545.043 381.851C548.137 386.068 561.894 391.952 563.031 402.069C564.169 412.185 550.382 413.869 553.476 420.618C556.57 427.368 564.988 431.235 561.333 436.908" stroke="white" stroke-width="0.758354" stroke-linecap="round" stroke-linejoin="round"/>
<path d="M524.082 555.075C523.765 557.394 523.148 559.663 522.247 561.824C521.124 563.72 517.378 566.814 517.333 567.587C517.287 568.361 517.848 568.604 518.849 568.679C521.339 568.501 523.719 567.587 525.69 566.056C526.885 564.67 527.904 563.142 528.723 561.505C529.375 560.762 531.757 559.989 532.105 558.199C532.454 556.409 530.073 553.33 530.073 553.33L524.082 555.075Z" fill="#7E57CA" stroke="#263238" stroke-width="1.51671" stroke-linecap="round" stroke-linejoin="round"/>
<path d="M565.534 554.301C565.216 556.627 564.594 558.902 563.684 561.066C562.577 562.962 558.831 566.041 558.77 566.829C558.709 567.618 559.301 567.845 560.287 567.906C562.794 567.73 565.189 566.799 567.157 565.237C568.353 563.851 569.372 562.323 570.191 560.687C570.828 559.943 573.224 559.17 573.558 557.38C573.891 555.59 571.541 552.527 571.541 552.527L565.534 554.301Z" fill="#7E57CA" stroke="#263238" stroke-width="1.51671" stroke-linecap="round" stroke-linejoin="round"/>
<path d="M560.94 512.97C558.194 505.281 554.084 498.941 553.356 494.361C551.491 482.045 554.357 465.968 551.566 453.713C549.762 445.856 547.866 432.752 542.102 426.594C542.102 426.594 535.398 429.87 522.112 428.566C522.112 428.566 515.393 457.596 514.908 473.491C514.422 489.386 520.231 528.85 521.581 537.238C522.931 545.625 524.084 555.105 524.084 555.105L530.151 553.345C530.151 553.345 533.002 534.113 532.501 521.858C531.864 505.66 530.863 491.251 531.849 485.457C532.835 479.664 532.41 464.8 532.41 464.8C532.41 464.8 534.291 474.34 535.444 479.36C535.444 479.36 537.385 496.332 539.084 500.989C540.783 505.645 565.626 554.073 565.626 554.073L571.572 552.557C571.572 552.557 563.685 520.554 560.94 512.97Z" fill="#263238" stroke="#263238" stroke-width="1.51671" stroke-linecap="round" stroke-linejoin="round"/>
<path d="M539.477 402.629L546.287 412.928L552.961 423.711C552.961 423.711 549.123 438.408 546.742 446.28L553.431 448.51C564.412 436.679 562.531 423.347 563.183 422.331C563.835 421.315 551.277 399.581 551.277 399.581C551.277 399.581 549.563 390.799 543.178 388.175C536.793 385.551 536.004 389.692 536.004 389.692" fill="#7E57CA"/>
<path d="M539.477 402.629L546.287 412.928L552.961 423.711C552.961 423.711 549.123 438.408 546.742 446.28L553.431 448.51C564.412 436.679 562.531 423.347 563.183 422.331C563.835 421.315 551.277 399.581 551.277 399.581C551.277 399.581 549.563 390.799 543.178 388.175C536.793 385.551 536.004 389.692 536.004 389.692" stroke="#263238" stroke-width="1.51671" stroke-linecap="round" stroke-linejoin="round"/>
<path d="M546.741 446.236L540.978 459.492C539.714 459.716 538.501 460.169 537.398 460.826C536.655 461.585 536.094 463.299 534.79 464.618C533.485 465.938 535.563 467.651 535.563 467.651L537.429 464.997L535.593 471.413C536.579 471.129 537.479 470.608 538.217 469.896C539.688 468.681 541.261 467.595 542.919 466.65C545.164 465.134 545.513 460.22 545.513 460.22L553.43 448.48L546.741 446.236Z" fill="white" stroke="#263238" stroke-width="1.51671" stroke-linecap="round" stroke-linejoin="round"/>
<path d="M504.411 452.757L500.18 454.031C499.367 455.772 498.737 457.591 498.299 459.461C498.299 460.644 500.65 459.931 500.65 459.218C500.663 458.739 500.745 458.264 500.892 457.808C501.67 457.94 502.469 457.801 503.157 457.415C503.844 457.028 504.378 456.417 504.669 455.684" fill="white"/>
<path d="M504.411 452.757L500.18 454.031C499.367 455.772 498.737 457.591 498.299 459.461C498.299 460.644 500.65 459.931 500.65 459.218C500.663 458.739 500.745 458.264 500.892 457.808C501.67 457.94 502.469 457.801 503.157 457.415C503.844 457.028 504.378 456.417 504.669 455.684" stroke="#263238" stroke-width="1.51671" stroke-linecap="round" stroke-linejoin="round"/>
<path d="M229.799 371.173H478.812C480.898 371.175 482.963 371.588 484.889 372.389C486.815 373.19 488.564 374.363 490.036 375.841C491.508 377.319 492.675 379.072 493.468 381.001C494.262 382.931 494.667 384.997 494.661 387.083V553.39H213.949V387.083C213.943 384.997 214.349 382.931 215.142 381.001C215.936 379.072 217.102 377.319 218.575 375.841C220.047 374.363 221.796 373.19 223.722 372.389C225.648 371.588 227.713 371.175 229.799 371.173Z" fill="white" stroke="#263238" stroke-width="1.51671" stroke-linecap="round" stroke-linejoin="round"/>
<path d="M483.271 385.416H225.324V531.187H483.271V385.416Z" fill="#F6F6F6"/>
<path d="M483.269 531.186V406.755L269.914 531.186H483.269Z" fill="#EEEEEE"/>
<path d="M483.271 385.416H225.324V531.187H483.271V385.416Z" stroke="#263238" stroke-width="1.51671" stroke-linecap="round" stroke-linejoin="round"/>
<path d="M451.404 544.623H258.479V554.133H451.404V544.623Z" fill="#263238" stroke="#263238" stroke-width="1.51671" stroke-linecap="round" stroke-linejoin="round"/>
<path d="M451.404 549.188H258.479V554.118H451.404V549.188Z" fill="white" stroke="#263238" stroke-width="1.51671" stroke-linecap="round" stroke-linejoin="round"/>
<path d="M191.242 559.76C191.242 559.76 194.412 563.628 203.907 566.798H505.974C505.974 566.798 513.027 565.038 516.181 560.109L191.242 559.76Z" fill="#263238" stroke="#263238" stroke-width="1.51671" stroke-linecap="round" stroke-linejoin="round"/>
<path d="M513.997 552.813H193.456C191.873 552.813 190.59 554.097 190.59 555.68V557.348C190.59 558.932 191.873 560.215 193.456 560.215H513.997C515.58 560.215 516.864 558.932 516.864 557.348V555.68C516.864 554.097 515.58 552.813 513.997 552.813Z" fill="white" stroke="#263238" stroke-width="1.51671" stroke-linecap="round" stroke-linejoin="round"/>
<path d="M354.242 379.15C355.599 379.15 356.699 378.05 356.699 376.693C356.699 375.336 355.599 374.236 354.242 374.236C352.885 374.236 351.785 375.336 351.785 376.693C351.785 378.05 352.885 379.15 354.242 379.15Z" fill="#263238"/>
<path d="M216.584 422.452C216.493 422.452 216.402 422.434 216.317 422.399C216.233 422.364 216.156 422.313 216.091 422.248C216.026 422.183 215.975 422.106 215.94 422.022C215.905 421.937 215.887 421.846 215.887 421.755V401.325C215.887 401.233 215.905 401.142 215.94 401.058C215.975 400.973 216.026 400.896 216.091 400.831C216.156 400.767 216.233 400.715 216.317 400.68C216.402 400.645 216.493 400.627 216.584 400.627C216.771 400.627 216.95 400.7 217.083 400.83C217.216 400.961 217.293 401.138 217.297 401.325V421.755C217.293 421.941 217.216 422.119 217.083 422.249C216.95 422.379 216.771 422.452 216.584 422.452Z" fill="#263238" stroke="white" stroke-width="1.04909" stroke-miterlimit="10"/>
<path d="M127.662 556.242L136.853 563.993V565.722H119.896L121.08 557.395L127.662 556.242Z" fill="#7E57CA" stroke="#263238" stroke-width="1.51671" stroke-linecap="round" stroke-linejoin="round"/>
<path d="M147.301 354.337C147.301 354.337 148.499 351.941 149.485 354.14C150.348 356.363 150.418 358.817 149.682 361.086C149.09 362.087 146.648 363.467 146.648 362.482C146.648 361.496 147.301 354.337 147.301 354.337Z" fill="white" stroke="#263238" stroke-width="1.51671" stroke-linecap="round" stroke-linejoin="round"/>
<path d="M128.055 358.963C128.055 358.963 126.251 357.007 125.902 359.388C125.715 361.767 126.335 364.139 127.661 366.122C128.511 366.911 131.195 367.639 130.907 366.623C130.619 365.606 128.055 358.963 128.055 358.963Z" fill="white" stroke="#263238" stroke-width="1.51671" stroke-linecap="round" stroke-linejoin="round"/>
<path d="M166.079 373.433L145.892 376.072C145.892 376.072 139.825 376.527 137.231 376.527C134.638 376.527 117.393 380.743 117.393 380.743C117.393 380.743 124.248 401.446 124.248 403.236C124.248 405.026 132.62 427.625 132.62 427.625C132.62 427.625 132.62 432.068 133.955 433.616C135.29 435.163 147.499 436.285 154.158 434.723C160.816 433.161 162.818 429.627 163.258 428.292C163.698 426.957 163.167 418.752 163.379 415.203C163.637 411.168 165.169 381.365 166.079 373.433Z" fill="#7E57CA" stroke="#263238" stroke-width="1.51671" stroke-linecap="round" stroke-linejoin="round"/>
<path d="M142.874 371.688C144.488 372.554 146.048 373.516 147.545 374.57C148.213 375.238 151.534 386.567 151.534 386.567L144.436 382.533L136.655 388.751C136.655 388.751 133.774 380.319 134.001 377.209C134.146 376.191 134.496 375.213 135.03 374.334C135.565 373.455 136.273 372.695 137.11 372.098L142.874 371.688Z" fill="white" stroke="#263238" stroke-width="1.51671" stroke-linecap="round" stroke-linejoin="round"/>
<path d="M143.767 370.793L143.995 388.341L136.002 372.355L143.767 370.793Z" fill="white" stroke="#263238" stroke-width="1.51671" stroke-linecap="round" stroke-linejoin="round"/>
<path d="M128.205 360.268C129.495 367.594 135.561 376.952 140.885 375.996C146.209 375.041 148.742 364.211 147.452 356.886C146.163 349.56 140.824 344.373 135.501 345.313C130.177 346.254 126.916 352.927 128.205 360.268Z" fill="white" stroke="#263238" stroke-width="1.51671" stroke-linecap="round" stroke-linejoin="round"/>
<path d="M147.818 358.812C147.818 358.812 145.71 359.479 145.998 358.691C146.021 357.576 145.825 356.468 145.422 355.43C144.859 355.116 144.392 354.654 144.072 354.095C143.45 353.079 144.269 351.365 144.072 350.06C143.875 348.756 137.565 352.548 136.488 352.745C135.411 352.942 129.041 352.472 129.041 352.472C129.041 352.472 130.816 356.203 130.239 356.749C129.663 357.295 129.572 359.328 129.572 359.328C130.098 360.638 130.484 362.001 130.725 363.392C130.634 364.075 129.405 364.742 129.072 364.12C128.738 363.498 127.752 357.856 127.752 357.856C127.752 357.856 126.235 358.342 125.72 355.293C125.204 352.245 125.72 345.207 128.571 343.372C131.422 341.537 138.339 340.338 141.433 341.339C144.527 342.34 147.712 348.923 147.5 351.486C147.413 353.933 147.519 356.382 147.818 358.812Z" fill="#263238" stroke="#263238" stroke-width="1.51671" stroke-linecap="round" stroke-linejoin="round"/>
<path d="M136.853 563.992V565.721H119.896L120.245 563.233H135.943L136.853 563.992Z" fill="white" stroke="#263238" stroke-width="1.51671" stroke-linecap="round" stroke-linejoin="round"/>
<path d="M168.854 555.528L179.577 563.991V565.72H161.559L162.742 555.801L168.854 555.528Z" fill="#7E57CA" stroke="#263238" stroke-width="1.51671" stroke-linecap="round" stroke-linejoin="round"/>
<path d="M179.577 563.992V565.721H161.559L161.907 563.234H178.667L179.577 563.992Z" fill="white" stroke="#263238" stroke-width="1.51671" stroke-linecap="round" stroke-linejoin="round"/>
<path d="M163.258 428.323C163.258 428.323 168.051 454.426 169.644 465.831C171.236 477.237 172.571 508.557 172.571 519.978C172.571 531.399 168.855 555.529 168.855 555.529L162.788 555.802C162.788 555.802 157.48 492.647 155.887 487.869C154.295 483.092 150.579 469.29 150.579 469.29C150.579 469.29 146.332 503.522 145.801 507.495C145.27 511.469 127.403 556.864 127.403 556.864L121.033 557.395C121.033 557.395 131.377 506.964 131.65 503.522C131.923 500.079 129.527 452.029 130.861 443.551C132.196 435.073 133.895 432.176 133.895 432.176C133.895 432.176 152.748 434.815 163.258 428.323Z" fill="#263238" stroke="#263238" stroke-width="1.51671" stroke-linecap="round" stroke-linejoin="round"/>
<path d="M117.393 380.774L112.979 422.968C112.893 423.813 113.085 424.662 113.526 425.388C113.966 426.113 114.632 426.675 115.421 426.988L152.156 441.578L152.55 436.073L124.582 417.417L125.795 407.422L117.393 380.774Z" fill="#7E57CA" stroke="#263238" stroke-width="1.51671" stroke-linecap="round" stroke-linejoin="round"/>
<path d="M152.55 436.073L157.661 434.496L163.167 437.651V443.156L155.69 442.762L152.459 440.639L152.55 436.073Z" fill="white" stroke="#263238" stroke-width="1.51671" stroke-linecap="round" stroke-linejoin="round"/>
<path d="M166.079 373.434L198.795 393.773L190.938 398.55L164.562 393.151C164.562 393.151 164.942 380.79 166.079 373.434Z" fill="#7E57CA" stroke="#263238" stroke-width="1.51671" stroke-linecap="round" stroke-linejoin="round"/>
<path d="M190.938 398.58C194.761 400.593 198.788 402.195 202.95 403.357C207.682 404.313 223.941 405.556 223.941 405.556L226.686 401.006C226.686 401.006 210.715 395.303 205.149 393.954C199.583 392.604 193.364 390.541 193.364 390.541" fill="#7E57CA"/>
<path d="M190.938 398.58C194.761 400.593 198.788 402.195 202.95 403.357C207.682 404.313 223.941 405.556 223.941 405.556L226.686 401.006C226.686 401.006 210.715 395.303 205.149 393.954C199.583 392.604 193.364 390.541 193.364 390.541" stroke="#263238" stroke-width="1.51671" stroke-linecap="round" stroke-linejoin="round"/>
<path d="M226.687 401.007C226.687 401.007 230.236 399.596 231.237 400.051C232.238 400.506 239.17 405.496 239.17 405.496C239.17 405.496 239.913 407.893 238.366 408.833C236.819 409.773 232.648 408.833 231.723 408.985C230.797 409.136 223.957 405.557 223.957 405.557L226.687 401.007Z" fill="white" stroke="#263238" stroke-width="1.51671" stroke-linecap="round" stroke-linejoin="round"/>
<path d="M231.221 400.051L236.074 404.601C236.074 404.601 237.091 406.83 235.255 406.118C233.951 405.591 232.709 404.92 231.555 404.116L229.022 405.283L227.672 405.39" fill="white"/>
<path d="M231.221 400.051L236.074 404.601C236.074 404.601 237.091 406.83 235.255 406.118C233.951 405.591 232.709 404.92 231.555 404.116L229.022 405.283L227.672 405.39" stroke="#263238" stroke-width="1.51671" stroke-linecap="round" stroke-linejoin="round"/>
<path d="M177.059 566.799H243.703C253.068 566.799 260.66 559.207 260.66 549.842V423.379C260.66 414.014 253.068 406.422 243.703 406.422H177.059C167.694 406.422 160.102 414.014 160.102 423.379V549.842C160.102 559.207 167.694 566.799 177.059 566.799Z" fill="white" stroke="#263238" stroke-width="1.51671" stroke-linecap="round" stroke-linejoin="round"/>
<path d="M243.67 411.882H177.072C170.881 411.882 165.863 416.9 165.863 423.09V550.114C165.863 556.305 170.881 561.323 177.072 561.323H243.67C249.861 561.323 254.879 556.305 254.879 550.114V423.09C254.879 416.9 249.861 411.882 243.67 411.882Z" fill="#F6F6F6"/>
<path opacity="0.8" d="M165.865 516.307V550.493C165.865 553.366 167.006 556.12 169.037 558.151C171.068 560.182 173.822 561.323 176.695 561.323H244.051C245.474 561.325 246.883 561.046 248.198 560.503C249.513 559.959 250.707 559.161 251.713 558.155C252.719 557.149 253.517 555.955 254.061 554.64C254.604 553.325 254.883 551.916 254.881 550.493V464.436L165.865 516.307Z" fill="#EEEEEE"/>
<path d="M243.67 411.882H177.072C170.881 411.882 165.863 416.9 165.863 423.09V550.114C165.863 556.305 170.881 561.323 177.072 561.323H243.67C249.861 561.323 254.879 556.305 254.879 550.114V423.09C254.879 416.9 249.861 411.882 243.67 411.882Z" stroke="#263238" stroke-width="1.51671" stroke-linecap="round" stroke-linejoin="round"/>
<path d="M259.734 541.53V546.338C259.734 546.46 259.782 546.577 259.867 546.665C259.952 546.753 260.067 546.804 260.189 546.808C260.314 546.808 260.434 546.758 260.522 546.67C260.61 546.582 260.66 546.463 260.66 546.338V541.575C260.66 541.514 260.647 541.454 260.624 541.398C260.6 541.341 260.565 541.291 260.521 541.248C260.477 541.206 260.425 541.173 260.368 541.151C260.311 541.129 260.25 541.118 260.189 541.12C260.076 541.12 259.967 541.161 259.883 541.237C259.799 541.313 259.746 541.417 259.734 541.53Z" fill="#263238" stroke="#263238" stroke-width="1.51671" stroke-linecap="round" stroke-linejoin="round"/>
<path d="M259.734 523.253V533.066C259.746 533.177 259.799 533.28 259.884 533.353C259.968 533.427 260.078 533.465 260.189 533.46C260.304 533.469 260.417 533.432 260.505 533.359C260.592 533.285 260.648 533.18 260.66 533.066V523.253C260.648 523.139 260.592 523.034 260.505 522.96C260.417 522.887 260.304 522.85 260.189 522.859C260.078 522.854 259.968 522.892 259.884 522.966C259.799 523.039 259.746 523.142 259.734 523.253Z" fill="#263238" stroke="#263238" stroke-width="1.51671" stroke-linecap="round" stroke-linejoin="round"/>
<path d="M157.996 456.716H122.975C116.55 456.716 111.342 461.924 111.342 468.349V555.165C111.342 561.59 116.55 566.798 122.975 566.798H157.996C164.421 566.798 169.629 561.59 169.629 555.165V468.349C169.629 461.924 164.421 456.716 157.996 456.716Z" fill="white" stroke="#263238" stroke-width="1.51671" stroke-linecap="round" stroke-linejoin="round"/>
<path d="M167.035 468.805H113.936V554.711H167.035V468.805Z" fill="#F6F6F6"/>
<path opacity="0.7" d="M167.035 525.848L117.529 554.71H167.035V525.848Z" fill="#EEEEEE"/>
<path d="M167.035 468.805H113.936V554.711H167.035V468.805Z" stroke="#263238" stroke-width="1.51671" stroke-linecap="round" stroke-linejoin="round"/>
<path d="M146.257 462.783H134.699C134.494 462.783 134.298 462.701 134.152 462.556C134.007 462.411 133.926 462.214 133.926 462.009C133.924 461.906 133.942 461.804 133.98 461.709C134.018 461.613 134.075 461.526 134.147 461.452C134.219 461.379 134.305 461.321 134.4 461.281C134.495 461.241 134.597 461.221 134.699 461.221H146.257C146.36 461.221 146.461 461.241 146.556 461.281C146.651 461.321 146.737 461.379 146.809 461.452C146.881 461.526 146.938 461.613 146.976 461.709C147.014 461.804 147.032 461.906 147.03 462.009C147.03 462.214 146.949 462.411 146.804 462.556C146.659 462.701 146.462 462.783 146.257 462.783Z" fill="#263238"/>
<path d="M143.632 559.564C143.635 558.94 143.452 558.328 143.107 557.808C142.763 557.287 142.271 556.88 141.695 556.639C141.119 556.398 140.484 556.333 139.871 556.453C139.258 556.573 138.694 556.872 138.252 557.313C137.809 557.754 137.507 558.316 137.384 558.928C137.261 559.54 137.323 560.176 137.561 560.753C137.799 561.33 138.204 561.824 138.723 562.171C139.242 562.518 139.852 562.704 140.477 562.704C141.311 562.704 142.111 562.374 142.702 561.785C143.294 561.197 143.628 560.398 143.632 559.564Z" fill="white" stroke="#263238" stroke-width="1.06827" stroke-miterlimit="10"/>
<path d="M142.07 557.971H138.885V561.156H142.07V557.971Z" fill="#263238"/>
</svg>
