<svg width="601" height="450" viewBox="0 0 601 450" fill="none" xmlns="http://www.w3.org/2000/svg">
<path d="M306.689 456.517C434.645 456.517 538.374 438.093 538.374 415.366C538.374 392.639 434.645 374.215 306.689 374.215C178.733 374.215 75.0039 392.639 75.0039 415.366C75.0039 438.093 178.733 456.517 306.689 456.517Z" fill="white"/>
<path d="M306.689 456.517C434.645 456.517 538.374 438.093 538.374 415.366C538.374 392.639 434.645 374.215 306.689 374.215C178.733 374.215 75.0039 392.639 75.0039 415.366C75.0039 438.093 178.733 456.517 306.689 456.517Z" fill="#F5F5F5"/>
<path d="M533.885 202.587C533.885 202.587 533.885 197.545 526.827 190.475C519.768 183.404 515.218 179.383 515.218 179.383C515.218 179.383 511.689 190.979 518.244 198.05C523.059 203.012 528.279 207.566 533.849 211.663L533.885 202.587Z" fill="#0070BA"/>
<path d="M523.632 234.087C523.632 234.087 523.632 229.045 516.573 221.987C509.515 214.928 504.977 210.883 504.977 210.883C504.977 210.883 501.376 222.491 508.002 229.55C512.815 234.514 518.035 239.068 523.608 243.163L523.632 234.087Z" fill="#0070BA"/>
<path d="M533.441 211.183C533.441 211.183 533.969 206.165 541.748 199.887C549.527 193.608 554.449 190.079 554.449 190.079C554.449 190.079 556.741 201.987 549.467 208.314C544.145 212.741 538.463 216.716 532.48 220.198L533.441 211.183Z" fill="#0070BA"/>
<path d="M521.063 248.384C521.063 248.384 522.119 243.45 530.498 238.024C538.878 232.598 544.171 229.621 544.171 229.621C544.171 229.621 545.192 241.71 537.305 247.244C531.543 251.085 525.472 254.442 519.154 257.279L521.063 248.384Z" fill="#0070BA"/>
<path d="M523.395 288.947C523.395 288.947 523.395 283.893 530.453 276.834C537.512 269.776 542.049 265.742 542.049 265.742C542.049 265.742 545.579 277.338 539.024 284.397C534.213 289.368 528.993 293.925 523.419 298.022L523.395 288.947Z" fill="#0070BA"/>
<path d="M523.272 298.839C523.272 298.839 523.98 293.845 518.002 285.85C512.024 277.855 508.099 273.222 508.099 273.222C508.099 273.222 502.949 284.206 508.435 292.129C512.502 297.732 517.031 302.984 521.976 307.83L523.272 298.839Z" fill="#0070BA"/>
<path d="M516.311 328.237C516.311 328.237 516.311 323.196 523.369 316.137C530.428 309.078 534.965 305.045 534.965 305.045C534.965 305.045 538.507 316.641 531.94 323.7C527.129 328.67 521.909 333.228 516.335 337.325L516.311 328.237Z" fill="#0070BA"/>
<path d="M520.992 354.791C520.992 354.791 519.708 349.905 524.749 341.286C529.791 332.667 533.153 327.613 533.153 327.613C533.153 327.613 539.503 337.937 534.953 346.436C531.541 352.46 527.635 358.19 523.273 363.566L520.992 354.791Z" fill="#0070BA"/>
<path d="M534.52 201.291C534.167 206.545 533.522 211.775 532.587 216.957C529.802 231.362 522.815 240.677 520.03 253.714C517.245 266.751 525.252 283.521 523.104 300.255C520.955 316.989 514.448 326.293 516.309 337.469C518.17 348.645 528.157 379.965 528.157 379.965" stroke="#263238" stroke-width="0.900331" stroke-linecap="round" stroke-linejoin="round"/>
<path d="M533.369 214.532L540.98 208.686" stroke="#263238" stroke-width="0.900331" stroke-linecap="round" stroke-linejoin="round"/>
<path d="M533.728 207.81L530.535 202.144" stroke="#263238" stroke-width="0.900331" stroke-linecap="round" stroke-linejoin="round"/>
<path d="M520.453 253.113C520.453 253.113 526.827 248.312 533.37 243.51" stroke="#263238" stroke-width="0.900331" stroke-linecap="round" stroke-linejoin="round"/>
<path d="M523.297 242.274C520.192 236.447 516.512 230.946 512.312 225.852" stroke="#263238" stroke-width="0.900331" stroke-linecap="round" stroke-linejoin="round"/>
<path d="M523.633 296.113C527.271 289.41 531.865 283.272 537.27 277.891" stroke="#263238" stroke-width="0.900331" stroke-linecap="round" stroke-linejoin="round"/>
<path d="M522.396 303.196C520.465 298.646 518.156 294.265 515.494 290.1C511.784 284.614 511.244 283.905 511.244 283.905" stroke="#263238" stroke-width="0.900331" stroke-linecap="round" stroke-linejoin="round"/>
<path d="M516.311 337.457C517.922 333.446 519.84 329.565 522.049 325.849C524.254 322.405 526.74 319.149 529.479 316.113" stroke="#263238" stroke-width="0.900331" stroke-linecap="round" stroke-linejoin="round"/>
<path d="M523.322 363.566C522.954 359.741 523.613 355.887 525.231 352.402C527.884 347.264 530.897 340.542 532.133 337.889" stroke="#263238" stroke-width="0.900331" stroke-linecap="round" stroke-linejoin="round"/>
<path d="M487.645 269.968C487.645 269.968 487.093 266.811 490.754 261.565C494.415 256.319 496.828 253.342 496.828 253.342C496.828 253.342 500.298 260.244 496.96 265.346C494.472 268.985 491.686 272.41 488.629 275.586L487.645 269.968Z" fill="#0070BA"/>
<path d="M497.487 288.622C497.487 288.622 496.947 285.465 500.608 280.219C504.269 274.973 506.67 271.996 506.67 271.996C506.67 271.996 510.152 278.887 506.802 284.001C504.316 287.636 501.529 291.058 498.471 294.228L497.487 288.622Z" fill="#0070BA"/>
<path d="M488.857 275.31C488.857 275.31 487.98 272.225 482.422 269.128C476.864 266.031 473.383 264.326 473.383 264.326C473.383 264.326 473.251 272.045 478.497 275.214C482.314 277.418 486.31 279.297 490.441 280.832L488.857 275.31Z" fill="#0070BA"/>
<path d="M500.657 297.29C500.657 297.29 499.457 294.312 493.61 291.828C487.764 289.343 484.127 288.034 484.127 288.034C484.127 288.034 484.799 295.717 490.345 298.334C494.375 300.118 498.547 301.564 502.818 302.656L500.657 297.29Z" fill="#0070BA"/>
<path d="M503.597 322.98C503.597 322.98 503.056 319.822 497.858 316.161C492.661 312.5 489.371 310.459 489.371 310.459C489.371 310.459 488.423 318.118 493.297 321.839C496.864 324.426 500.638 326.715 504.581 328.682L503.597 322.98Z" fill="#0070BA"/>
<path d="M504.752 329.173C504.752 329.173 503.755 326.124 506.648 320.458C509.541 314.792 511.45 311.467 511.45 311.467C511.45 311.467 515.868 317.793 513.287 323.351C511.346 327.307 509.077 331.094 506.504 334.671L504.752 329.173Z" fill="#0070BA"/>
<path d="M513.609 354.647C513.609 354.647 513.982 351.454 518.951 347.444C523.921 343.435 527.09 341.274 527.09 341.274C527.09 341.274 528.483 348.861 523.825 352.846C520.417 355.641 516.779 358.143 512.949 360.325L513.609 354.647Z" fill="#0070BA"/>
<path d="M512.3 346.82C512.3 346.82 511.747 343.663 506.562 340.002C501.376 336.341 498.074 334.3 498.074 334.3C498.074 334.3 497.126 341.959 502 345.668C505.563 348.264 509.337 350.557 513.284 352.523L512.3 346.82Z" fill="#0070BA"/>
<path d="M512.228 364.023C512.228 364.023 512.504 360.817 508.399 355.956C504.293 351.094 501.64 348.297 501.64 348.297C501.64 348.297 498.783 355.5 502.564 360.301C505.354 363.711 508.426 366.879 511.748 369.773L512.228 364.023Z" fill="#0070BA"/>
<path d="M487.104 269.236C487.9 272.487 488.87 275.693 490.009 278.84C493.334 287.579 498.712 292.657 501.881 300.532C505.05 308.407 501.881 319.739 505.002 330.051C508.123 340.362 513.261 345.428 513.309 352.631C513.357 359.834 510.512 379.857 510.512 379.857" stroke="#263238" stroke-width="0.900331" stroke-linecap="round" stroke-linejoin="round"/>
<path d="M489.264 277.411L483.85 274.566" stroke="#263238" stroke-width="0.900331" stroke-linecap="round" stroke-linejoin="round"/>
<path d="M488.303 273.222L489.695 269.332" stroke="#263238" stroke-width="0.900331" stroke-linecap="round" stroke-linejoin="round"/>
<path d="M501.556 300.195C501.556 300.195 497.03 297.89 492.408 295.609" stroke="#263238" stroke-width="0.900331" stroke-linecap="round" stroke-linejoin="round"/>
<path d="M498.436 293.317C499.875 289.479 501.634 285.769 503.693 282.225" stroke="#263238" stroke-width="0.900331" stroke-linecap="round" stroke-linejoin="round"/>
<path d="M504.184 327.505C501.172 323.699 497.626 320.347 493.656 317.554" stroke="#263238" stroke-width="0.900331" stroke-linecap="round" stroke-linejoin="round"/>
<path d="M505.771 331.839C506.487 328.774 507.459 325.774 508.677 322.872C510.405 319.03 510.669 318.538 510.669 318.538" stroke="#263238" stroke-width="0.900331" stroke-linecap="round" stroke-linejoin="round"/>
<path d="M513.057 358.105C514.817 355.937 516.765 353.928 518.879 352.103C520.221 351.108 521.481 350.008 522.648 348.813" stroke="#263238" stroke-width="0.900331" stroke-linecap="round" stroke-linejoin="round"/>
<path d="M513.31 352.631C511.862 350.293 510.237 348.069 508.448 345.98C506.691 344.063 504.78 342.293 502.734 340.687" stroke="#263238" stroke-width="0.900331" stroke-linecap="round" stroke-linejoin="round"/>
<path d="M511.748 369.773C511.565 367.335 510.736 364.99 509.348 362.978C507.127 360.049 504.546 356.16 503.441 354.575" stroke="#263238" stroke-width="0.900331" stroke-linecap="round" stroke-linejoin="round"/>
<path d="M501.594 377.264H536.034V395.066C536.034 395.859 535.719 396.619 535.159 397.18C534.598 397.74 533.838 398.055 533.045 398.055H504.583C503.79 398.055 503.03 397.74 502.469 397.18C501.909 396.619 501.594 395.859 501.594 395.066V377.264Z" fill="#263238" stroke="#263238" stroke-width="1.20044" stroke-linecap="round" stroke-linejoin="round"/>
<path d="M96.3223 226.392C96.3223 226.392 96.3223 222.095 90.3201 216.093C84.3179 210.09 80.4285 206.657 80.4285 206.657C80.4285 206.657 77.4273 216.525 82.9974 222.527C87.1024 226.75 91.5514 230.625 96.2983 234.111L96.3223 226.392Z" fill="#0070BA"/>
<path d="M87.6309 253.174C87.6309 253.174 87.6309 248.888 81.6287 242.886C75.6265 236.884 71.737 233.402 71.737 233.402C71.737 233.402 68.7359 243.258 74.306 249.272C78.4151 253.511 82.8724 257.398 87.6309 260.892V253.174Z" fill="#0070BA"/>
<path d="M95.9522 233.691C95.9522 233.691 96.3963 229.429 103.011 224.087C109.625 218.745 113.815 215.756 113.815 215.756C113.815 215.756 115.759 225.876 109.577 231.266C105.064 235.028 100.245 238.409 95.1719 241.373L95.9522 233.691Z" fill="#0070BA"/>
<path d="M85.4233 265.334C85.4233 265.334 86.3237 261.133 93.4423 256.523C100.561 251.913 105.075 249.32 105.075 249.32C105.075 249.32 105.939 259.584 99.2284 264.29C94.3334 267.563 89.1735 270.422 83.8027 272.837L85.4233 265.334Z" fill="#0070BA"/>
<path d="M87.4052 299.823C87.4052 299.823 87.4052 295.538 93.4074 289.523C99.4096 283.509 103.239 280.088 103.239 280.088C103.239 280.088 106.24 289.956 100.658 295.958C96.5624 300.186 92.117 304.062 87.3691 307.542L87.4052 299.823Z" fill="#0070BA"/>
<path d="M87.2968 308.238C87.2968 308.238 87.909 304.001 82.8191 297.194C77.7293 290.388 74.4161 286.45 74.4161 286.45C74.4161 286.45 70.0464 295.79 74.7042 302.536C78.1664 307.3 82.0212 311.765 86.2284 315.885L87.2968 308.238Z" fill="#0070BA"/>
<path d="M81.3792 333.195C81.3792 333.195 81.3792 328.91 87.3814 322.895C93.3836 316.881 97.237 313.46 97.237 313.46C97.237 313.46 100.238 323.328 94.6681 329.33C90.5631 333.553 86.1141 337.428 81.3672 340.914L81.3792 333.195Z" fill="#0070BA"/>
<path d="M85.3878 355.848C85.3878 355.848 84.2954 351.706 88.5929 344.371C92.8905 337.037 95.7956 332.739 95.7956 332.739C95.7956 332.739 101.15 341.442 97.2361 348.717C94.3366 353.838 91.0159 358.708 87.3085 363.278L85.3878 355.848Z" fill="#0070BA"/>
<path d="M96.8646 225.288C96.5657 229.757 96.0166 234.206 95.22 238.613C92.8191 250.869 86.913 258.78 84.5481 269.824C82.1832 280.869 88.9897 295.178 87.1651 309.439C85.3404 323.7 79.7943 331.575 81.3789 341.071C82.9635 350.566 91.4626 377.216 91.4626 377.216" stroke="#263238" stroke-width="0.900331" stroke-linecap="round" stroke-linejoin="round"/>
<path d="M95.8926 236.548L102.363 231.578" stroke="#263238" stroke-width="0.900331" stroke-linecap="round" stroke-linejoin="round"/>
<path d="M96.1935 230.822L93.4805 226.008" stroke="#263238" stroke-width="0.900331" stroke-linecap="round" stroke-linejoin="round"/>
<path d="M84.9082 269.416C84.9082 269.416 90.3222 265.346 95.8922 261.289" stroke="#263238" stroke-width="0.900331" stroke-linecap="round" stroke-linejoin="round"/>
<path d="M87.3207 260.137C84.6958 255.186 81.5832 250.509 78.0293 246.176" stroke="#263238" stroke-width="0.900331" stroke-linecap="round" stroke-linejoin="round"/>
<path d="M87.6328 305.921C90.7278 300.221 94.634 295.001 99.2291 290.424" stroke="#263238" stroke-width="0.900331" stroke-linecap="round" stroke-linejoin="round"/>
<path d="M86.5513 311.947C84.9111 308.078 82.9516 304.351 80.6931 300.807C77.524 296.137 77.0918 295.537 77.0918 295.537" stroke="#263238" stroke-width="0.900331" stroke-linecap="round" stroke-linejoin="round"/>
<path d="M81.3789 341.07C82.7529 337.663 84.3822 334.365 86.2527 331.203C88.1319 328.277 90.2478 325.511 92.579 322.932" stroke="#263238" stroke-width="0.900331" stroke-linecap="round" stroke-linejoin="round"/>
<path d="M87.3449 363.278C87.0306 360.025 87.5901 356.748 88.9655 353.783C91.2223 349.413 93.7672 343.699 94.8356 341.442" stroke="#263238" stroke-width="0.900331" stroke-linecap="round" stroke-linejoin="round"/>
<path d="M56.9961 283.689C56.9961 283.689 56.54 281 59.6491 276.582C62.7583 272.165 64.811 269.596 64.811 269.596C64.811 269.596 67.7641 275.454 64.9191 279.824C62.8053 282.917 60.4361 285.829 57.8364 288.527L56.9961 283.689Z" fill="#0070BA"/>
<path d="M65.3765 299.547C65.3765 299.547 64.9083 296.858 68.0295 292.44C71.1506 288.022 73.1914 285.441 73.1914 285.441C73.1914 285.441 76.1445 291.312 73.2994 295.681C71.1857 298.775 68.8165 301.686 66.2168 304.384L65.3765 299.547Z" fill="#0070BA"/>
<path d="M58.0299 288.226C58.0299 288.226 57.2856 285.609 52.5679 282.98C47.8502 280.351 44.8851 278.923 44.8851 278.923C44.8851 278.923 44.765 285.477 49.2187 288.19C52.4645 290.07 55.8615 291.677 59.3744 292.992L58.0299 288.226Z" fill="#0070BA"/>
<path d="M68.0667 306.93C68.0667 306.93 67.0463 304.397 62.0644 302.272C57.0826 300.147 54.0215 299.043 54.0215 299.043C54.0215 299.043 54.5977 305.585 59.3154 307.806C62.7403 309.327 66.2858 310.56 69.9153 311.492L68.0667 306.93Z" fill="#0070BA"/>
<path d="M70.5743 328.766C70.5743 328.766 70.1061 326.077 65.6885 322.968C61.2709 319.859 58.4858 318.166 58.4858 318.166C58.4858 318.166 57.6215 324.636 61.8111 327.794C64.8458 329.996 68.058 331.944 71.4146 333.616L70.5743 328.766Z" fill="#0070BA"/>
<path d="M71.5474 334.036C71.5474 334.036 70.7071 331.443 73.156 326.629C75.6049 321.815 77.2735 318.982 77.2735 318.982C77.2735 318.982 81.0309 324.36 78.8341 329.09C77.1857 332.447 75.2582 335.659 73.0719 338.693L71.5474 334.036Z" fill="#0070BA"/>
<path d="M79.0857 355.74C79.0857 355.74 79.3978 353.027 83.6354 349.666C87.8729 346.305 90.5499 344.42 90.5499 344.42C90.5499 344.42 91.7503 350.866 87.7769 354.264C84.8753 356.647 81.7793 358.783 78.5215 360.65L79.0857 355.74Z" fill="#0070BA"/>
<path d="M78.0304 349.041C78.0304 349.041 77.5622 346.352 73.1446 343.243C68.727 340.134 65.9419 338.441 65.9419 338.441C65.9419 338.441 65.1256 344.96 69.2792 348.117C72.3126 350.322 75.5249 352.269 78.8827 353.939L78.0304 349.041Z" fill="#0070BA"/>
<path d="M77.911 363.663C77.911 363.663 78.1391 360.95 74.6578 356.808C71.1766 352.667 68.9077 350.302 68.9077 350.302C68.9077 350.302 66.5068 356.388 69.688 360.506C72.0643 363.403 74.6783 366.098 77.5029 368.56L77.911 363.663Z" fill="#0070BA"/>
<path d="M56.541 283.065C57.2201 285.832 58.0455 288.561 59.0139 291.24C61.835 298.671 66.4207 302.981 69.1096 309.679C71.7986 316.378 69.1096 326.053 71.7626 334.78C74.4156 343.508 78.7852 347.865 78.8212 353.988C78.8572 360.11 76.4203 377.144 76.4203 377.144" stroke="#263238" stroke-width="0.900331" stroke-linecap="round" stroke-linejoin="round"/>
<path d="M58.377 290.015L53.7793 287.602" stroke="#263238" stroke-width="0.900331" stroke-linecap="round" stroke-linejoin="round"/>
<path d="M57.5742 286.462L58.7507 283.148" stroke="#263238" stroke-width="0.900331" stroke-linecap="round" stroke-linejoin="round"/>
<path d="M68.8335 309.391C68.8335 309.391 64.9921 307.434 61.0547 305.489" stroke="#263238" stroke-width="0.900331" stroke-linecap="round" stroke-linejoin="round"/>
<path d="M66.1816 303.544C67.4113 300.281 68.909 297.125 70.6593 294.108" stroke="#263238" stroke-width="0.900331" stroke-linecap="round" stroke-linejoin="round"/>
<path d="M71.1018 332.619C68.5369 329.401 65.5207 326.571 62.1465 324.216" stroke="#263238" stroke-width="0.900331" stroke-linecap="round" stroke-linejoin="round"/>
<path d="M72.4121 336.281C73.0245 333.676 73.8516 331.127 74.885 328.658C76.3616 325.393 76.5776 324.961 76.5776 324.961" stroke="#263238" stroke-width="0.900331" stroke-linecap="round" stroke-linejoin="round"/>
<path d="M78.6172 358.633C80.1102 356.781 81.7654 355.065 83.563 353.507C84.7046 352.662 85.7765 351.727 86.7682 350.71" stroke="#263238" stroke-width="0.900331" stroke-linecap="round" stroke-linejoin="round"/>
<path d="M78.8219 353.987C77.5932 351.999 76.2126 350.108 74.6924 348.333C73.2182 346.699 71.6122 345.19 69.8906 343.819" stroke="#263238" stroke-width="0.900331" stroke-linecap="round" stroke-linejoin="round"/>
<path d="M77.5003 368.56C77.3385 366.484 76.6303 364.488 75.4475 362.774C73.5628 360.289 71.33 356.976 70.4297 355.679" stroke="#263238" stroke-width="0.900331" stroke-linecap="round" stroke-linejoin="round"/>
<path d="M67.0332 377.264H101.474V395.066C101.474 395.463 101.395 395.855 101.242 396.221C101.089 396.587 100.864 396.919 100.581 397.197C100.299 397.475 99.9636 397.694 99.5954 397.842C99.2272 397.989 98.8333 398.062 98.4367 398.055H70.0223C69.2295 398.055 68.4693 397.74 67.9087 397.18C67.3481 396.619 67.0332 395.859 67.0332 395.066V377.264Z" fill="#263238" stroke="#263238" stroke-width="1.20044" stroke-linecap="round" stroke-linejoin="round"/>
<path d="M391.581 240.29C391.581 240.29 391.781 251.29 391.861 254.43C391.941 257.57 399.761 265.24 399.761 265.24L401.371 241.24L391.581 240.29Z" fill="white"/>
<path d="M399.761 265.74H399.941C400.031 265.705 400.109 265.645 400.166 265.567C400.223 265.489 400.256 265.396 400.261 265.3L401.831 241.24C401.839 241.111 401.797 240.983 401.713 240.884C401.629 240.785 401.51 240.723 401.381 240.71L391.591 239.71C391.52 239.705 391.449 239.715 391.381 239.74C391.314 239.764 391.253 239.801 391.201 239.85C391.151 239.898 391.11 239.955 391.083 240.019C391.055 240.082 391.041 240.151 391.041 240.22C391.041 240.22 391.241 251.22 391.321 254.37C391.401 257.52 398.551 264.71 399.371 265.52C399.414 265.585 399.472 265.638 399.54 265.676C399.608 265.714 399.683 265.736 399.761 265.74ZM400.841 241.74L399.341 264.14C396.871 261.6 392.421 256.59 392.341 254.46C392.271 251.78 392.111 243.17 392.071 240.88L400.841 241.74Z" fill="#263238"/>
<path d="M395.301 243.63C395.301 243.63 395.481 250.46 395.511 251.7C395.541 252.94 398.211 259.7 398.701 260.46C399.191 261.22 399.921 259.65 399.871 257.94C399.821 256.23 399.421 252.52 399.421 252.52L401.201 243.78" fill="white"/>
<path d="M398.981 261.151C399.054 261.158 399.128 261.158 399.201 261.151C400.061 260.891 400.411 259.151 400.371 257.961C400.371 256.371 399.981 253.131 399.921 252.581L401.691 243.911C401.715 243.781 401.687 243.647 401.615 243.537C401.542 243.427 401.429 243.35 401.301 243.321C401.236 243.308 401.17 243.307 401.106 243.32C401.041 243.332 400.98 243.357 400.925 243.394C400.87 243.43 400.823 243.476 400.786 243.531C400.75 243.585 400.724 243.646 400.711 243.711L398.931 252.451C398.921 252.504 398.921 252.558 398.931 252.611C398.931 252.611 399.341 256.321 399.381 257.981C399.41 258.666 399.287 259.349 399.021 259.981C398.291 258.541 396.021 252.661 396.021 251.691L395.811 243.631C395.806 243.497 395.748 243.371 395.651 243.279C395.554 243.188 395.424 243.138 395.291 243.141C395.225 243.143 395.161 243.159 395.101 243.186C395.041 243.214 394.988 243.253 394.943 243.301C394.898 243.35 394.864 243.406 394.841 243.468C394.818 243.53 394.808 243.595 394.811 243.661L395.021 251.721C395.021 253.051 397.771 259.921 398.291 260.721C398.357 260.848 398.456 260.954 398.577 261.03C398.698 261.106 398.838 261.147 398.981 261.151Z" fill="#263238"/>
<path d="M394.769 124.44C394.769 124.44 390.389 137.01 389.939 147.53C389.489 158.05 389.539 196.65 389.309 205.94C389.079 215.23 391.579 240.29 391.579 240.29L401.369 241.29L403.539 199.73L396.929 143.96L394.769 124.44Z" fill="#0070BA"/>
<path d="M401.37 241.75C401.491 241.751 401.608 241.709 401.7 241.63C401.749 241.578 401.785 241.517 401.808 241.449C401.83 241.382 401.838 241.311 401.83 241.24L404 199.68L397.38 143.82L395.23 124.35C395.218 124.237 395.167 124.131 395.088 124.049C395.008 123.968 394.903 123.915 394.79 123.9C394.677 123.891 394.563 123.919 394.468 123.981C394.372 124.042 394.299 124.133 394.26 124.24C394.26 124.36 389.85 137 389.4 147.46C389.14 153.69 389.05 169.67 388.97 183.77C388.91 193.61 388.86 202.1 388.77 205.88C388.53 215.09 391.02 240.05 391.04 240.3C391.053 240.415 391.104 240.522 391.186 240.604C391.268 240.686 391.375 240.737 391.49 240.75L401.28 241.75H401.37ZM394.53 126.81L396.43 143.97L403.05 199.75L400.9 240.7L392.04 239.83C391.72 236.55 389.59 214.45 389.81 205.95C389.9 202.15 389.95 193.66 390.01 183.82C390.09 169.73 390.18 153.76 390.44 147.55C390.77 139.82 393.28 130.87 394.53 126.81Z" fill="#263238"/>
<path d="M468.83 401.581L474.83 407.771C474.83 407.771 486.08 417.481 486.62 419.411C487.16 421.341 483.15 426.591 472.56 422.971C461.97 419.351 460.91 416.691 457.96 415.791C455.01 414.891 451.57 414.501 450.85 405.971C450.13 397.441 468.83 401.581 468.83 401.581Z" fill="white"/>
<path d="M479.23 424.721C481.616 424.861 483.963 424.072 485.78 422.521C486.266 422.143 486.645 421.646 486.88 421.078C487.115 420.51 487.198 419.89 487.12 419.281C486.57 417.281 477.12 409.031 475.18 407.391L469.18 401.231C469.113 401.159 469.026 401.111 468.93 401.091C468.41 400.981 456.17 398.321 451.86 402.091C451.309 402.573 450.885 403.184 450.625 403.869C450.365 404.555 450.278 405.293 450.37 406.021C451.07 414.321 454.37 415.261 457.24 416.101L457.83 416.241C458.847 416.605 459.802 417.124 460.66 417.781C464.276 420.23 468.236 422.127 472.41 423.411C474.597 424.218 476.901 424.66 479.23 424.721ZM468.57 402.041L474.49 408.121C478.83 411.861 485.83 418.241 486.16 419.551C486.175 419.982 486.085 420.411 485.899 420.801C485.713 421.191 485.436 421.531 485.09 421.791C483.94 422.881 480.43 425.121 472.74 422.501C468.649 421.24 464.766 419.38 461.22 416.981C460.278 416.269 459.233 415.706 458.12 415.311L457.52 415.141C454.81 414.361 452.01 413.551 451.37 405.931C451.289 405.36 451.352 404.779 451.552 404.239C451.753 403.7 452.086 403.219 452.52 402.841C456.21 399.611 467.18 401.751 468.57 402.041Z" fill="#263238"/>
<path d="M401.951 402.9L394.311 409.9C394.311 409.9 383.601 420.24 383.161 422.24C382.721 424.24 387.021 429.24 397.401 425.03C407.781 420.82 408.691 418.13 411.591 417.08C414.491 416.03 417.901 415.44 418.161 406.89C418.421 398.34 401.951 402.9 401.951 402.9Z" fill="white"/>
<path d="M390.1 427.131C392.681 427.056 395.223 426.489 397.59 425.461C401.688 423.965 405.54 421.869 409.02 419.241C409.843 418.538 410.771 417.967 411.77 417.551L412.35 417.341C415.19 416.341 418.41 415.231 418.66 406.901C418.723 406.121 418.593 405.338 418.281 404.621C417.968 403.904 417.484 403.275 416.87 402.791C412.64 399.481 402.26 402.321 401.82 402.451C401.743 402.471 401.671 402.509 401.61 402.561L393.97 409.561C392.16 411.301 383.12 420.071 382.68 422.081C382.637 422.696 382.754 423.311 383.02 423.867C383.287 424.423 383.694 424.9 384.2 425.251C385.88 426.56 387.973 427.227 390.1 427.131ZM410.62 402.131C412.81 402.131 414.92 402.481 416.26 403.521C416.748 403.91 417.131 404.415 417.375 404.989C417.62 405.563 417.717 406.189 417.66 406.811C417.43 414.451 414.66 415.411 412.02 416.341L411.42 416.551C410.331 417 409.318 417.617 408.42 418.381C405.011 420.964 401.236 423.027 397.22 424.501C389.67 427.501 386.05 425.501 384.84 424.501C384.483 424.258 384.188 423.934 383.981 423.555C383.774 423.176 383.661 422.753 383.65 422.321C383.95 420.991 390.56 414.251 394.65 410.321L402.19 403.371C404.944 402.643 407.773 402.237 410.62 402.161V402.131Z" fill="#263238"/>
<path d="M469.4 212.091L470.26 228.661C470.26 228.661 471.75 320.241 470.75 328.241C469.75 336.241 468.39 394.48 468.39 394.48L470.2 398.341L470.1 403.471C470.1 403.471 467.93 404.751 462.83 405.621C458.852 406.138 454.831 406.245 450.83 405.941L448.6 395.751L434.83 263.311L421.13 379.921L418.22 407.831C418.22 407.831 413.84 408.441 411.36 406.831C408.88 405.221 401.52 404.411 401.52 404.411C401.52 404.411 400.83 396.861 401 394.161C401.17 391.461 402.1 389.741 402.07 388.521C402.04 387.301 397.56 266.521 397.56 266.521L399.33 211.521L469.4 212.091Z" fill="#263238"/>
<path d="M416.311 408.44C416.979 408.444 417.647 408.407 418.311 408.33C418.423 408.315 418.526 408.262 418.604 408.18C418.682 408.099 418.73 407.993 418.741 407.88L421.651 379.97L434.781 267.85L448.151 395.85L450.381 406.1C450.404 406.205 450.46 406.299 450.541 406.369C450.622 406.44 450.724 406.482 450.831 406.49C454.858 406.797 458.906 406.686 462.911 406.16C468.051 405.29 470.261 404.01 470.351 403.95C470.423 403.906 470.484 403.845 470.528 403.771C470.572 403.698 470.596 403.615 470.601 403.53L470.701 398.4C470.716 398.328 470.716 398.253 470.701 398.18L468.931 394.43C469.001 391.48 470.321 336.15 471.291 328.35C472.291 320.35 470.861 232.41 470.801 228.67L469.941 212.09C469.935 211.961 469.88 211.839 469.787 211.749C469.694 211.66 469.57 211.61 469.441 211.61L399.351 211C399.223 211.009 399.102 211.063 399.01 211.153C398.919 211.243 398.862 211.362 398.851 211.49L397.081 266.49C397.081 267.73 401.561 387.29 401.591 388.49C401.551 389.117 401.43 389.735 401.231 390.33C400.861 391.555 400.623 392.815 400.521 394.09C400.351 396.79 401.021 404.09 401.051 404.41C401.057 404.526 401.106 404.635 401.186 404.717C401.267 404.8 401.375 404.851 401.491 404.86C401.561 404.86 408.741 405.65 411.101 407.2C412.69 408.085 414.493 408.514 416.311 408.44ZM417.751 407.38C416.651 407.47 413.501 407.63 411.611 406.38C409.371 404.9 403.611 404.12 401.971 403.93C401.831 402.33 401.341 396.43 401.481 394.17C401.578 392.959 401.806 391.762 402.161 390.6C402.389 389.915 402.52 389.202 402.551 388.48C402.551 387.27 398.081 267.71 398.041 266.48L399.831 211.99L468.971 212.59L469.801 228.68C469.801 229.58 471.281 320.25 470.291 328.21C469.301 336.17 467.941 393.92 467.931 394.5C467.927 394.577 467.944 394.653 467.981 394.72L469.741 398.48L469.641 403.2C467.455 404.175 465.147 404.848 462.781 405.2C458.982 405.699 455.142 405.813 451.321 405.54L449.171 395.71L435.311 263.24C435.294 263.118 435.235 263.006 435.143 262.923C435.052 262.841 434.934 262.794 434.811 262.79C434.688 262.791 434.571 262.837 434.479 262.917C434.387 262.998 434.327 263.109 434.311 263.23L420.611 379.84L417.751 407.38Z" fill="#263238"/>
<path d="M469.621 216.41C457.462 219.009 445.054 220.263 432.621 220.15C421.362 219.929 410.144 218.708 399.101 216.5L399.261 211.5L469.351 212.11L469.621 216.41Z" fill="#969696"/>
<path d="M435 220.67C446.675 220.598 458.312 219.335 469.73 216.9C469.846 216.874 469.95 216.808 470.021 216.712C470.093 216.617 470.128 216.499 470.12 216.38L469.9 212.07C469.895 211.941 469.84 211.819 469.747 211.73C469.654 211.64 469.529 211.59 469.4 211.59L399.31 210.98C399.182 210.989 399.062 211.044 398.97 211.133C398.878 211.223 398.822 211.343 398.81 211.47L398.65 216.47C398.646 216.588 398.684 216.703 398.757 216.795C398.831 216.887 398.934 216.949 399.05 216.97C410.122 219.187 421.37 220.412 432.66 220.63L435 220.67ZM469.1 216.01C457.128 218.544 444.916 219.764 432.68 219.65C421.597 219.436 410.555 218.248 399.68 216.1L399.81 211.99L468.95 212.59L469.1 216.01Z" fill="#263238"/>
<path d="M423.949 214.526L433.861 214.908L433.643 220.574L423.73 220.191L423.949 214.526Z" fill="white"/>
<path d="M433.639 221.07C433.764 221.07 433.885 221.023 433.979 220.94C434.028 220.895 434.068 220.842 434.096 220.781C434.123 220.721 434.138 220.656 434.139 220.59L434.359 214.93C434.362 214.864 434.351 214.798 434.329 214.737C434.306 214.675 434.271 214.618 434.227 214.57C434.182 214.522 434.129 214.483 434.069 214.455C434.009 214.428 433.945 214.412 433.879 214.41L423.969 214.02C423.838 214.019 423.711 214.068 423.615 214.157C423.518 214.246 423.459 214.369 423.449 214.5L423.229 220.17C423.226 220.301 423.275 220.429 423.364 220.526C423.454 220.623 423.577 220.682 423.709 220.69L433.629 221.07H433.639ZM433.339 215.39L433.159 220.05L424.249 219.71L424.429 215.04L433.339 215.39Z" fill="#263238"/>
<path d="M462.949 222.36L463.189 210.84L457.699 211.34L456.699 220.83" fill="#263238"/>
<path d="M462.951 222.86C463.082 222.86 463.208 222.809 463.301 222.717C463.395 222.626 463.449 222.501 463.451 222.37L463.691 210.85C463.693 210.779 463.679 210.709 463.651 210.643C463.624 210.578 463.583 210.519 463.531 210.47C463.48 210.424 463.42 210.389 463.354 210.367C463.289 210.345 463.22 210.336 463.151 210.34L457.651 210.84C457.536 210.851 457.428 210.902 457.346 210.984C457.263 211.066 457.212 211.175 457.201 211.29L456.201 220.78C456.188 220.913 456.228 221.045 456.312 221.148C456.397 221.252 456.519 221.317 456.651 221.33C456.784 221.343 456.916 221.304 457.02 221.219C457.123 221.135 457.188 221.013 457.201 220.88L458.151 211.8L462.681 211.39L462.451 222.39C462.449 222.456 462.459 222.522 462.483 222.584C462.506 222.646 462.542 222.702 462.588 222.75C462.633 222.797 462.688 222.835 462.749 222.861C462.81 222.887 462.875 222.9 462.941 222.9L462.951 222.86Z" fill="#263238"/>
<path d="M408.821 222.081L409.061 210.561L403.571 211.061L402.571 220.551" fill="#263238"/>
<path d="M408.83 222.581C408.96 222.578 409.084 222.526 409.177 222.435C409.27 222.344 409.325 222.221 409.33 222.091L409.57 210.571C409.574 210.499 409.561 210.428 409.533 210.362C409.506 210.296 409.463 210.238 409.41 210.191C409.361 210.141 409.301 210.103 409.235 210.081C409.169 210.058 409.099 210.051 409.03 210.061L403.53 210.561C403.416 210.573 403.31 210.623 403.229 210.703C403.147 210.783 403.095 210.887 403.08 211.001L402.08 220.491C402.073 220.556 402.079 220.623 402.098 220.686C402.117 220.749 402.148 220.808 402.19 220.859C402.232 220.911 402.283 220.953 402.342 220.984C402.4 221.015 402.464 221.034 402.53 221.041C402.661 221.055 402.792 221.016 402.895 220.934C402.998 220.851 403.065 220.732 403.08 220.601L404.03 211.521L408.56 211.111L408.33 222.111C408.328 222.176 408.34 222.242 408.364 222.303C408.388 222.364 408.423 222.42 408.469 222.467C408.514 222.514 408.569 222.552 408.629 222.579C408.689 222.605 408.754 222.619 408.82 222.621L408.83 222.581Z" fill="#263238"/>
<path d="M454.062 117.69C454.062 117.69 478.212 126.49 478.312 130.1C478.412 133.71 469.402 212.1 469.402 212.1C469.402 212.1 429.002 219.59 399.312 211.49L395.832 152.24C395.832 152.24 392.892 125.63 394.832 124.46C396.772 123.29 422.312 113.84 422.312 113.84L454.062 117.69Z" fill="#0070BA"/>
<path d="M432.252 215.72C444.729 215.675 457.182 214.628 469.492 212.59C469.598 212.57 469.695 212.516 469.769 212.437C469.842 212.358 469.889 212.258 469.902 212.15C470.262 208.95 478.902 133.69 478.812 130.09C478.712 126.32 458.322 118.7 454.232 117.22C454.196 117.211 454.158 117.211 454.122 117.22L422.312 113.35C422.236 113.331 422.157 113.331 422.082 113.35C421.032 113.73 396.452 122.84 394.512 124.01C392.572 125.18 394.412 144.18 395.302 152.28L398.832 211.51C398.837 211.616 398.875 211.718 398.942 211.801C399.008 211.883 399.099 211.943 399.202 211.97C409.582 214.8 421.352 215.72 432.252 215.72ZM468.952 211.72C464.872 212.43 427.512 218.57 399.792 211.15L396.302 152.24C394.902 139.63 394.062 125.97 395.062 124.9C396.512 124.02 413.452 117.66 422.312 114.38L453.942 118.22C463.832 121.83 477.752 127.91 477.812 130.16C477.902 133.52 469.622 205.81 468.952 211.67V211.72Z" fill="#263238"/>
<path d="M446.28 109.48C446.28 109.48 451.06 110.58 451.6 111.27C452.14 111.96 456.02 118.88 456.02 118.88L446.66 143.02L431.9 129.72L416.07 142.09C416.07 142.09 415.92 123.48 416.64 117.83C417.36 112.18 418.27 112.83 420.64 110.17C423.01 107.51 424.45 107.96 424.45 107.96L446.28 109.48Z" fill="white"/>
<path d="M446.66 143.52H446.78C446.858 143.501 446.931 143.464 446.992 143.412C447.052 143.36 447.1 143.294 447.13 143.22L456.49 119.07C456.52 119.004 456.535 118.932 456.535 118.86C456.535 118.787 456.52 118.716 456.49 118.65C456.09 117.93 452.58 111.65 452.02 110.97C451.46 110.29 447.91 109.35 446.43 108.97H446.35L424.57 107.46C424.18 107.36 422.62 107.21 420.31 109.83C419.845 110.328 419.35 110.799 418.83 111.24C417.31 112.67 416.67 113.42 416.12 117.74C415.4 123.35 415.53 141.31 415.54 142.07C415.54 142.163 415.567 142.255 415.617 142.334C415.667 142.413 415.739 142.477 415.823 142.518C415.907 142.558 416.002 142.574 416.095 142.564C416.188 142.554 416.276 142.518 416.35 142.46L431.83 130.37L446.29 143.37C446.338 143.419 446.396 143.457 446.459 143.483C446.523 143.509 446.591 143.521 446.66 143.52ZM455.47 118.92L446.47 142.17L432.24 129.35C432.15 129.275 432.037 129.234 431.92 129.234C431.803 129.234 431.69 129.275 431.6 129.35L416.6 141.09C416.6 137.09 416.6 122.71 417.18 117.92C417.71 113.78 418.3 113.23 419.59 112.02C420.01 111.62 420.49 111.17 421.07 110.52C423.14 108.18 424.34 108.46 424.35 108.46H424.46L446.25 109.98C447.978 110.299 449.658 110.837 451.25 111.58C451.58 112.05 453.92 116.15 455.47 118.92Z" fill="#263238"/>
<path d="M421.441 103.98L421.671 115.05C421.671 115.05 426.871 124.15 428.391 126.48C429.911 128.81 436.131 138.98 436.501 138.29C436.871 137.6 447.951 117.52 448.361 115.6C448.771 113.68 446.861 99.5996 446.861 99.5996C446.861 99.5996 436.601 108.6 432.861 109.06C429.121 109.52 421.441 103.98 421.441 103.98Z" fill="white"/>
<path d="M435.654 138.878C436.253 138.836 437.041 137.779 442.047 128.517C442.57 127.539 443.005 126.726 443.272 126.246C444.617 123.837 449.004 114.739 449.198 114.355C449.232 114.278 449.247 114.194 449.241 114.111L448.699 103.052C448.693 102.958 448.662 102.868 448.609 102.79C448.556 102.713 448.483 102.651 448.397 102.612C448.316 102.571 448.224 102.552 448.133 102.559C448.042 102.565 447.954 102.596 447.879 102.648C447.799 102.654 440.621 108.538 437.144 108.41C434.218 108.284 425.823 102.334 422.836 100.047C422.766 99.9916 422.681 99.9571 422.592 99.9474C422.502 99.9376 422.412 99.9532 422.331 99.9922C422.247 100.027 422.175 100.085 422.123 100.16C422.071 100.234 422.043 100.323 422.04 100.414C421.941 101.874 421.128 114.762 421.673 116.679C422.004 117.838 426.361 124.952 434.618 137.828L435.146 138.643C435.2 138.724 435.273 138.79 435.358 138.837C435.444 138.883 435.539 138.908 435.636 138.909L435.654 138.878ZM448.233 114.031C447.717 115.12 443.653 123.513 442.396 125.756L441.162 128.038C439.796 130.579 436.78 136.203 435.697 137.632L435.461 137.258C424.698 120.517 422.809 117.01 422.636 116.401C422.278 115.153 422.626 107.079 422.981 101.4C425.529 103.297 433.806 109.265 437.095 109.436C440.385 109.607 445.731 105.635 447.748 104.081L448.233 114.031Z" fill="#263238"/>
<path d="M445.227 121.509C445.308 121.498 445.384 121.469 445.451 121.422C445.518 121.376 445.572 121.314 445.609 121.241L449.139 114.369C449.176 114.289 449.194 114.202 449.191 114.114L448.649 103.055C448.646 102.97 448.621 102.887 448.577 102.814C448.532 102.741 448.47 102.681 448.396 102.639C448.321 102.596 448.237 102.574 448.152 102.574C448.067 102.573 447.983 102.595 447.908 102.636L435.105 109.495C435.039 109.531 434.981 109.581 434.937 109.642C434.893 109.703 434.863 109.773 434.85 109.848C434.837 109.922 434.841 109.998 434.861 110.07C434.882 110.143 434.918 110.21 434.968 110.266L444.765 121.35C444.821 121.415 444.894 121.463 444.975 121.491C445.056 121.519 445.143 121.525 445.227 121.509ZM448.233 114.031L445.091 120.135L436.188 110.071L447.735 103.891L448.233 114.031Z" fill="#263238"/>
<path d="M416.378 78.1398C416.378 78.1398 413.598 77.1398 412.778 81.3798C411.958 85.6198 416.628 88.5098 416.628 88.5098L416.378 78.1398Z" fill="white"/>
<path d="M416.628 89.0105C416.534 89.0112 416.44 88.9871 416.358 88.9405C416.158 88.8105 411.418 85.7605 412.288 81.2905C412.358 80.619 412.573 79.9708 412.919 79.3906C413.264 78.8104 413.731 78.3123 414.288 77.9305C414.635 77.737 415.017 77.6144 415.412 77.5698C415.807 77.5251 416.207 77.5594 416.588 77.6705C416.683 77.7049 416.766 77.7672 416.825 77.8493C416.883 77.9314 416.916 78.0295 416.918 78.1305L417.168 88.5005C417.174 88.5915 417.153 88.6822 417.109 88.7619C417.064 88.8416 416.998 88.907 416.918 88.9505C416.829 88.9972 416.729 89.0179 416.628 89.0105ZM415.708 78.5505C415.357 78.541 415.01 78.6312 414.708 78.8105C414.291 79.1287 413.944 79.5306 413.691 79.9903C413.438 80.4501 413.284 80.9577 413.238 81.4805C412.698 84.2605 414.848 86.4805 416.078 87.4805L415.858 78.4805L415.708 78.5505Z" fill="#263238"/>
<path d="M416.328 67.0698C416.328 67.0698 416.578 83.9398 416.628 88.5098C416.678 93.0798 419.538 97.8998 421.178 102.34C422.818 106.78 429.638 114.34 434.048 113.58C438.458 112.82 445.668 106.16 448.598 101.85C451.528 97.5398 452.398 91.0598 452.398 91.0598C452.398 91.0598 458.648 87.5398 458.398 83.4898C458.359 82.3498 458.07 81.2323 457.552 80.2163C457.033 79.2003 456.298 78.3105 455.398 77.6098L454.978 67.2398C454.978 67.2398 452.168 60.6598 440.428 59.2398C428.688 57.8198 417.668 63.0198 417.668 63.0198L416.328 67.0698Z" fill="white"/>
<path d="M433.399 114.131C428.579 114.131 422.229 106.651 420.709 102.511C420.249 101.281 419.709 100.041 419.139 98.7207C417.679 95.3707 416.139 91.9107 416.139 88.5207C416.089 83.9507 415.839 67.0807 415.839 67.0807C415.83 67.0244 415.83 66.967 415.839 66.9107L417.179 62.9107C417.199 62.845 417.232 62.7843 417.277 62.7326C417.322 62.6808 417.377 62.6393 417.439 62.6107C417.549 62.5607 428.739 57.4207 440.439 58.7907C452.329 60.1807 455.269 66.7907 455.389 67.0407C455.394 67.1006 455.394 67.1608 455.389 67.2207L455.799 77.3507C456.7 78.1018 457.432 79.0339 457.949 80.0865C458.466 81.1392 458.756 82.2888 458.799 83.4607C459.039 87.3807 453.899 90.6807 452.799 91.3707C452.609 92.6107 451.619 98.1907 448.949 102.131C446.009 106.461 438.749 113.271 434.069 114.071C433.848 114.108 433.624 114.128 433.399 114.131ZM416.829 67.1307C416.829 68.4207 417.079 84.1307 417.129 88.4907C417.129 91.6707 418.639 95.0407 420.059 98.3107C420.609 99.5707 421.179 100.891 421.649 102.151C423.309 106.651 430.029 113.741 433.959 113.071C438.319 112.321 445.409 105.641 448.179 101.551C450.949 97.4607 451.899 91.0407 451.909 90.9707C451.92 90.8941 451.948 90.821 451.992 90.7569C452.035 90.6928 452.092 90.6394 452.159 90.6007C452.219 90.6007 458.159 87.1907 457.899 83.5007C457.871 82.4369 457.607 81.3926 457.126 80.4433C456.645 79.4939 455.96 78.663 455.119 78.0107C455.055 77.9646 455.002 77.9048 454.964 77.8356C454.926 77.7664 454.904 77.6896 454.899 77.6107L454.479 67.3407C454.119 66.6207 450.969 61.0007 440.379 59.7707C429.789 58.5407 419.589 62.7707 418.069 63.4107L416.829 67.1307Z" fill="#263238"/>
<path d="M426.608 77.1602C426.52 77.1608 426.434 77.1366 426.358 77.0902C421.748 74.3802 419.358 76.3902 419.228 76.4802C419.133 76.5725 419.006 76.624 418.873 76.624C418.741 76.624 418.614 76.5725 418.518 76.4802C418.475 76.4313 418.442 76.3743 418.421 76.3123C418.4 76.2504 418.391 76.1849 418.396 76.1197C418.4 76.0544 418.418 75.9908 418.448 75.9325C418.477 75.8742 418.518 75.8224 418.568 75.7802C418.688 75.6702 421.568 73.1802 426.868 76.2802C426.963 76.3363 427.036 76.4221 427.077 76.5241C427.118 76.6262 427.124 76.7389 427.095 76.8449C427.065 76.9508 427.002 77.044 426.914 77.11C426.826 77.1761 426.718 77.2113 426.608 77.2102V77.1602Z" fill="#263238"/>
<path d="M441.348 77.9098C441.236 77.9106 441.128 77.8755 441.038 77.8098C436.948 74.6398 433.728 77.1198 433.598 77.2298C433.546 77.2712 433.487 77.3021 433.424 77.3207C433.361 77.3393 433.295 77.3453 433.23 77.3383C433.164 77.3314 433.101 77.3116 433.043 77.2801C432.985 77.2486 432.934 77.2061 432.893 77.1548C432.851 77.1036 432.82 77.0448 432.802 76.9816C432.783 76.9185 432.777 76.8523 432.784 76.7868C432.791 76.7213 432.811 76.6579 432.842 76.6001C432.874 76.5422 432.916 76.4912 432.968 76.4498C432.968 76.4498 436.968 73.3598 441.658 77.0098C441.763 77.0927 441.831 77.2136 441.848 77.3464C441.865 77.4792 441.829 77.6134 441.748 77.7198C441.699 77.7785 441.637 77.8258 441.568 77.8586C441.499 77.8914 441.424 77.9089 441.348 77.9098Z" fill="#263238"/>
<path d="M426.198 92.6096C426.124 92.6091 426.051 92.5928 425.984 92.5618C425.917 92.5307 425.857 92.4857 425.808 92.4296C425.758 92.3693 425.723 92.298 425.706 92.2215C425.688 92.1451 425.689 92.0657 425.708 91.9896L428.448 80.4496L427.518 77.9196C427.494 77.8574 427.482 77.7909 427.484 77.7241C427.485 77.6573 427.5 77.5915 427.528 77.5305C427.555 77.4696 427.595 77.4148 427.644 77.3694C427.693 77.324 427.75 77.2889 427.813 77.2661C427.876 77.2434 427.943 77.2335 428.01 77.237C428.077 77.2405 428.142 77.2574 428.202 77.2866C428.262 77.3159 428.316 77.3569 428.36 77.4072C428.404 77.4575 428.437 77.5161 428.458 77.5796L429.458 80.2396C429.483 80.3347 429.483 80.4346 429.458 80.5296L426.828 91.5896L431.978 91.4196C432.11 91.4168 432.238 91.4652 432.335 91.5548C432.432 91.6443 432.491 91.7679 432.498 91.8996C432.501 91.9648 432.491 92.0299 432.468 92.091C432.445 92.1521 432.41 92.208 432.365 92.2555C432.321 92.303 432.267 92.3411 432.207 92.3676C432.148 92.3941 432.083 92.4083 432.018 92.4096L426.208 92.6096H426.198Z" fill="#263238"/>
<path d="M432.638 97.1702C431.248 97.1682 429.867 96.9454 428.548 96.5102C428.425 96.4631 428.325 96.3695 428.271 96.2497C428.217 96.1299 428.212 95.9935 428.258 95.8702C428.303 95.7456 428.395 95.644 428.515 95.5877C428.635 95.5314 428.773 95.5251 428.898 95.5702C429.188 95.6802 436.057 98.1902 439.817 92.3902C439.889 92.2789 440.002 92.2007 440.131 92.1725C440.261 92.1444 440.396 92.1687 440.508 92.2402C440.619 92.3138 440.698 92.4284 440.726 92.5594C440.754 92.6904 440.729 92.8272 440.657 92.9402C439.805 94.2827 438.616 95.3792 437.21 96.1211C435.803 96.8631 434.227 97.2247 432.638 97.1702Z" fill="#263238"/>
<path d="M438.578 82.4303C438.578 83.5903 437.968 84.5203 437.288 84.5003C436.608 84.4803 436.088 83.5003 436.118 82.3603C436.148 81.2203 436.728 80.2703 437.408 80.2903C438.088 80.3103 438.608 81.2403 438.578 82.4303Z" fill="#263238"/>
<path d="M423.828 81.86C423.828 83.02 423.218 83.95 422.538 83.93C421.858 83.91 421.338 82.93 421.368 81.79C421.398 80.65 421.978 79.7 422.658 79.72C423.338 79.74 423.828 80.69 423.828 81.86Z" fill="#263238"/>
<path d="M426.997 50.7799C422.514 52.056 418.348 54.2566 414.767 57.2399C412.217 59.3699 409.767 61.8099 409.397 63.5699C408.587 67.4099 422.727 70.9499 426.957 70.1899C431.187 69.4299 440.957 65.2999 440.957 65.2999C440.957 65.2999 439.957 69.8399 441.177 70.0499C442.895 70.0366 444.608 69.8456 446.287 69.4799C446.287 69.4799 445.657 73.3299 446.157 74.3999C446.8 75.5297 447.532 76.6064 448.347 77.6199C448.347 77.6199 449.057 83.9599 449.757 84.1599L450.447 84.3499C450.447 84.3499 451.817 79.2899 452.367 78.6099C452.917 77.9299 455.367 77.6099 455.367 77.6099C455.367 77.6099 458.677 65.7599 457.887 62.2199C457.097 58.6799 450.887 55.2199 450.887 55.2199L447.567 54.4299C445.457 52.1615 442.759 50.5236 439.773 49.699C436.787 48.8744 433.631 48.8955 430.657 49.7599L426.997 50.7799Z" fill="#263238"/>
<path d="M450.478 84.8302C450.432 84.8405 450.384 84.8405 450.338 84.8302L449.638 84.6402C449.338 84.5502 448.638 84.3602 447.888 77.8202C447.081 76.8091 446.356 75.7358 445.718 74.6102C445.298 73.6902 445.538 71.3602 445.718 70.1002C444.208 70.4299 442.664 70.5776 441.118 70.5402C440.981 70.5159 440.851 70.4633 440.736 70.3858C440.62 70.3083 440.523 70.2076 440.448 70.0902C439.898 69.2802 440.118 67.3302 440.318 66.0902C437.818 67.0902 430.608 70.0102 427.058 70.6502C423.508 71.2902 412.828 68.9202 409.828 65.7902C409.492 65.507 409.235 65.142 409.081 64.7304C408.926 64.3188 408.881 63.8745 408.948 63.4402C409.288 61.8502 411.148 59.6202 414.488 56.8402C418.096 53.8172 422.301 51.5888 426.828 50.3002L430.538 49.2402C433.575 48.3729 436.791 48.3523 439.838 49.1807C442.886 50.0091 445.649 51.6549 447.828 53.9402L450.998 54.6902C451.043 54.706 451.087 54.7261 451.128 54.7502C451.388 54.8902 457.558 58.4002 458.378 62.1102C459.198 65.8202 455.988 77.2602 455.848 77.7502C455.823 77.8455 455.769 77.9309 455.694 77.9951C455.619 78.0594 455.526 78.0995 455.428 78.1102C454.485 78.159 453.567 78.4296 452.748 78.9002C451.992 80.7011 451.383 82.5606 450.928 84.4602C450.891 84.5904 450.805 84.7013 450.688 84.7702C450.623 84.8054 450.552 84.8259 450.478 84.8302ZM450.008 83.6802H450.128C450.518 82.2502 451.488 78.8702 451.998 78.2402C452.508 77.6102 454.158 77.2402 454.998 77.1202C455.508 75.2202 458.098 65.3502 457.428 62.2902C456.758 59.2302 451.338 55.9702 450.708 55.6102L447.468 54.8302C447.363 54.8072 447.269 54.7511 447.198 54.6702C445.135 52.5065 442.518 50.9495 439.632 50.1685C436.746 49.3875 433.701 49.4123 430.828 50.2402L427.128 51.2402C422.73 52.4949 418.643 54.6544 415.128 57.5802C411.188 60.8702 410.128 62.6902 409.928 63.5802C409.903 63.8543 409.947 64.1304 410.055 64.3835C410.163 64.6366 410.333 64.8589 410.548 65.0302C413.348 67.9102 423.548 70.2102 426.918 69.6102C431.048 68.8602 440.718 64.7902 440.818 64.7502C440.903 64.711 440.997 64.6966 441.089 64.7089C441.181 64.7211 441.268 64.7593 441.339 64.8191C441.411 64.8789 441.464 64.9578 441.492 65.0465C441.52 65.1353 441.522 65.2302 441.498 65.3202C441.088 67.2102 440.998 69.2302 441.328 69.4702C442.984 69.451 444.632 69.26 446.248 68.9002C446.328 68.8859 446.41 68.8903 446.488 68.9128C446.566 68.9353 446.638 68.9755 446.698 69.0302C446.754 69.0878 446.795 69.1575 446.82 69.2338C446.844 69.3101 446.85 69.391 446.838 69.4702C446.588 71.0102 446.368 73.4702 446.668 74.1002C447.301 75.1929 448.017 76.2359 448.808 77.2202C448.862 77.294 448.896 77.3799 448.908 77.4702C449.053 79.5735 449.421 81.6553 450.008 83.6802Z" fill="#263238"/>
<path d="M434.831 263.81C434.897 263.805 434.961 263.787 435.02 263.757C435.079 263.727 435.131 263.686 435.174 263.636C435.216 263.586 435.249 263.528 435.269 263.465C435.289 263.402 435.297 263.336 435.291 263.27L434.551 254.01C434.546 253.932 434.522 253.856 434.48 253.79C434.438 253.723 434.38 253.668 434.311 253.63L423.881 247.31C423.768 247.244 423.634 247.224 423.506 247.256C423.379 247.288 423.27 247.368 423.201 247.48C423.165 247.536 423.141 247.599 423.13 247.664C423.12 247.73 423.122 247.797 423.138 247.862C423.154 247.926 423.183 247.987 423.223 248.04C423.263 248.093 423.314 248.137 423.371 248.17L433.571 254.35L434.291 263.35C434.295 263.416 434.312 263.481 434.342 263.541C434.371 263.6 434.412 263.653 434.463 263.696C434.513 263.739 434.572 263.771 434.635 263.791C434.699 263.81 434.765 263.817 434.831 263.81Z" fill="white"/>
<path d="M406.23 173.52C406.23 173.52 402.78 172.06 402.29 171.45C401.8 170.84 396.97 163.85 395.71 163.1C394.45 162.35 385.46 162.3 385.46 162.3C385.46 162.3 380.24 158.72 379.99 160.89C379.74 163.06 384.92 165.26 385.86 165.7C386.8 166.14 390.71 167.43 390.71 167.43C390.71 167.43 382.46 166.25 381.21 165.67C379.96 165.09 369.21 162.74 369.54 164.28C369.87 165.82 373.98 168.03 373.98 168.03C373.98 168.03 383.52 176.61 385.72 177.79C387.92 178.97 404.56 180.85 404.56 180.85L406.23 173.52Z" fill="white"/>
<path d="M404.561 181.35C404.674 181.351 404.785 181.313 404.874 181.242C404.963 181.171 405.025 181.072 405.051 180.96L406.711 173.63C406.738 173.516 406.725 173.396 406.671 173.292C406.618 173.187 406.529 173.105 406.421 173.06C405.108 172.566 403.856 171.921 402.691 171.14C402.591 171.02 402.321 170.65 401.941 170.14C399.411 166.61 396.941 163.26 395.941 162.69C394.671 161.95 387.411 161.83 385.581 161.82C384.691 161.21 381.581 159.21 380.161 159.82C379.968 159.911 379.802 160.052 379.681 160.228C379.56 160.403 379.487 160.608 379.471 160.82C379.221 162.96 382.721 164.82 385.381 166.02L385.541 166.1C384.136 165.902 382.749 165.598 381.391 165.19C380.391 164.74 370.761 162.4 369.301 163.58C369.183 163.672 369.095 163.795 369.045 163.935C368.996 164.075 368.987 164.226 369.021 164.37C369.401 166.01 372.841 167.97 373.661 168.37C374.451 169.08 383.281 177 385.451 178.16C387.621 179.32 403.791 181.16 404.451 181.28L404.561 181.35ZM405.651 173.81L404.181 180.3C399.271 179.74 387.641 178.3 385.961 177.35C383.831 176.21 374.411 167.75 374.321 167.66L374.221 167.59C372.801 166.82 370.511 165.3 370.081 164.32C371.491 163.87 379.741 165.53 381.001 166.12C382.261 166.71 389.791 167.8 390.641 167.92C390.764 167.939 390.891 167.91 390.995 167.84C391.098 167.769 391.172 167.662 391.201 167.54C391.227 167.419 391.208 167.292 391.147 167.183C391.087 167.074 390.988 166.992 390.871 166.95C390.871 166.95 386.981 165.66 386.071 165.24L385.821 165.13C381.011 162.95 380.421 161.57 380.491 160.95C380.491 160.77 380.571 160.75 380.601 160.73C381.231 160.45 383.471 161.54 385.171 162.73C385.257 162.78 385.352 162.81 385.451 162.82C388.881 162.82 394.621 163.06 395.451 163.56C396.281 164.06 399.821 168.91 401.121 170.72C401.511 171.27 401.791 171.66 401.891 171.78C403.041 172.633 404.307 173.317 405.651 173.81Z" fill="#263238"/>
<path d="M412.111 173.36L404.501 172.79L403.701 183.51L412.121 184.99L412.111 173.36Z" fill="#0070BA"/>
<path d="M412.121 185.49C412.253 185.488 412.379 185.434 412.472 185.341C412.565 185.248 412.619 185.122 412.621 184.99V173.36C412.621 173.234 412.574 173.113 412.489 173.02C412.404 172.927 412.287 172.87 412.161 172.86L404.551 172.29C404.486 172.284 404.42 172.292 404.358 172.312C404.296 172.333 404.239 172.366 404.191 172.41C404.139 172.451 404.096 172.503 404.066 172.561C404.035 172.62 404.016 172.684 404.011 172.75L403.221 183.47C403.212 183.594 403.248 183.716 403.324 183.814C403.4 183.912 403.509 183.978 403.631 184L412.041 185.48L412.121 185.49ZM411.611 173.82V184.39L404.231 183.1L404.951 173.33L411.611 173.82Z" fill="#263238"/>
<path d="M466.15 122.641C466.15 122.641 483.54 128.011 484.73 131.041C485.92 134.071 472.13 200.041 471.89 201.181C471.65 202.321 469.19 204.311 467.79 204.071C466.39 203.831 411.51 189.471 410.07 187.841C408.63 186.211 411.07 173.071 411.07 173.071L455.07 174.941L458.83 140.641" fill="#0070BA"/>
<path d="M468.02 204.591C468.962 204.447 469.854 204.07 470.614 203.493C471.373 202.917 471.977 202.16 472.37 201.291C472.52 200.631 486.47 134.091 485.2 130.851C483.93 127.611 468.1 122.721 466.3 122.161C466.234 122.141 466.165 122.134 466.097 122.141C466.029 122.148 465.962 122.169 465.902 122.201C465.842 122.234 465.788 122.278 465.745 122.331C465.702 122.384 465.669 122.445 465.65 122.511C465.63 122.576 465.623 122.645 465.63 122.713C465.637 122.782 465.657 122.848 465.69 122.908C465.722 122.969 465.766 123.022 465.82 123.065C465.873 123.109 465.934 123.141 466 123.161C472.64 125.211 483.46 129.221 484.26 131.261C485.26 134.181 472.14 197.751 471.4 201.111C471.21 201.981 469.01 203.811 467.88 203.621C464.56 203.051 412.29 189.071 410.43 187.531C409.67 186.661 410.35 179.861 411.43 173.631L455.03 175.441C455.156 175.449 455.281 175.408 455.378 175.326C455.476 175.244 455.537 175.127 455.55 175.001L459.35 140.691C459.364 140.558 459.325 140.425 459.242 140.321C459.159 140.217 459.037 140.15 458.905 140.136C458.772 140.121 458.639 140.16 458.535 140.243C458.431 140.327 458.364 140.448 458.35 140.581L454.6 174.421L411.08 172.571C410.959 172.566 410.842 172.605 410.748 172.681C410.654 172.756 410.591 172.862 410.57 172.981C410.16 175.211 408.18 186.441 409.7 188.171C411.22 189.901 467.2 204.481 467.7 204.571L468.02 204.591Z" fill="#263238"/>
<path d="M211.584 409.64C211.584 409.64 218.066 414.91 222.724 416.327C227.382 417.743 229.818 418.559 228.81 420.792C227.802 423.025 224.548 423.829 215.029 424.033C205.509 424.237 203.673 422.209 200.023 421.188C196.374 420.168 191.308 421.188 189.688 419.172C188.067 417.155 188.667 414.094 188.667 410.853C188.667 407.611 202.664 406.195 206.314 407.407C208.145 407.96 209.912 408.709 211.584 409.64Z" fill="white" stroke="#263238" stroke-width="1.20044" stroke-linecap="round" stroke-linejoin="round"/>
<path d="M193.133 413.697C193.133 413.697 199.22 420.18 204.285 423.013C209.351 425.846 212.184 427.886 210.972 429.303C209.76 430.72 205.906 432.544 195.762 431.536C185.619 430.527 183.602 428.283 178.74 424.837C173.878 421.392 171.645 421.8 170.025 419.976C168.404 418.151 168.404 414.093 168.404 414.093L193.133 413.697Z" fill="white" stroke="#263238" stroke-width="1.20044" stroke-linecap="round" stroke-linejoin="round"/>
<path d="M223.54 263.679C223.54 263.679 219.939 311.924 218.475 320.639C217.01 329.355 215.629 334.228 215.834 340.303C216.038 346.377 217.862 363.819 214.213 374.167C210.564 384.515 210.612 397.072 210.972 400.721C211.332 404.37 212.592 409.232 212.388 410.048C212.184 410.865 206.314 414.094 202.052 414.91C199.374 415.402 196.66 415.671 193.937 415.714C189.813 417.171 185.529 418.126 181.177 418.559C175.091 418.968 166.771 417.143 166.771 417.143C166.771 417.143 166.771 402.137 165.955 392.402C165.139 382.666 162.354 367.073 165.751 355.308C169.148 343.544 168.392 337.302 168.152 333.412C167.912 329.523 168.152 312.128 167.948 311.516C167.744 310.904 166.531 260.233 166.531 260.233C166.531 260.233 188.62 263.474 203.421 262.058C218.222 260.641 222.076 260.641 222.076 260.641C222.076 260.641 225.365 256.992 223.54 263.679Z" fill="#263238" stroke="#263238" stroke-width="1.20044" stroke-linecap="round" stroke-linejoin="round"/>
<path d="M194.958 412.881C194.947 409.6 194.544 406.331 193.758 403.145C192.558 399.1 192.329 384.707 192.942 378.824C193.554 372.942 196.543 358.153 196.543 349.834C196.543 341.515 197.359 328.754 197.359 328.754" stroke="white" stroke-width="1.20044" stroke-linecap="round" stroke-linejoin="round"/>
<path d="M236.913 324.288L213.817 324.084C212.809 324.084 212.809 308.683 212.809 308.683L236.913 324.288Z" fill="white" stroke="#263238" stroke-width="1.20044" stroke-linecap="round" stroke-linejoin="round"/>
<path d="M188.067 266.524C188.067 266.524 211.176 267.94 224.153 265.707L219.687 156.647C219.687 156.647 216.65 151.581 208.535 148.736C200.42 145.891 190.696 149.937 187.251 153.802C183.806 157.667 186.243 266.115 186.243 266.115L188.067 266.524Z" fill="#0070BA" stroke="#263238" stroke-width="1.20044" stroke-linecap="round" stroke-linejoin="round"/>
<path d="M189.076 148.735C189.076 148.735 166.172 160.296 162.726 162.324C159.281 164.353 159.125 171.64 159.125 175.097C159.125 178.554 160.133 331.995 160.133 331.995C168.803 332.561 177.506 331.673 185.883 329.366C194.144 327.204 201.917 323.489 208.787 318.418L204.934 235.912L200.612 163.537C200.612 163.537 197.995 143.466 189.076 148.735Z" fill="white" stroke="#263238" stroke-width="1.20044" stroke-linecap="round" stroke-linejoin="round"/>
<path d="M195.966 141.233C195.966 141.233 190.696 141.846 188.463 144.835C187.155 146.598 186.194 148.594 185.63 150.717L183.602 168.964L190.492 167.343L187.047 175.446C187.047 175.446 190.492 185.59 194.346 194.101C198.199 202.612 203.877 220.042 203.877 220.042L201.236 165.518C201.236 165.518 201.236 149.709 200.036 146.311C198.835 142.914 197.587 141.233 195.966 141.233Z" fill="white" stroke="#263238" stroke-width="1.20044" stroke-linecap="round" stroke-linejoin="round"/>
<path d="M209.147 152.384L213.205 317.601L236.913 324.287L233.468 198.409C233.468 198.409 234.08 165.997 232.052 161.508C230.023 157.018 211.788 147.931 209.963 148.171C208.139 148.411 209.147 152.384 209.147 152.384Z" fill="white" stroke="#263238" stroke-width="1.20044" stroke-linecap="round" stroke-linejoin="round"/>
<path d="M209.147 144.078C210.623 144.438 212.003 145.114 213.193 146.059C214.383 147.004 215.353 148.196 216.037 149.552C218.066 154.006 223.336 167.799 223.336 167.799L216.649 168.603L223.744 173.669L211.175 220.906L209.759 169.78L208.559 148.7C208.559 148.7 207.118 145.291 209.147 144.078Z" fill="white" stroke="#263238" stroke-width="1.20044" stroke-linecap="round" stroke-linejoin="round"/>
<path d="M194.346 134.342C194.346 134.342 195.163 140.224 193.938 143.465C192.714 146.706 197.791 156.85 199.82 163.128C201.849 169.407 203.878 174.485 205.09 173.872C206.303 173.26 210.564 149.551 210.36 146.502C210.156 143.453 212.185 134.342 212.185 134.342C212.185 134.342 201.033 137.583 194.346 134.342Z" fill="#8A4A43" stroke="#263238" stroke-width="1.20044" stroke-linecap="round" stroke-linejoin="round"/>
<path d="M180.107 128.16C186.492 128.16 191.667 122.753 191.667 116.083C191.667 109.414 186.492 104.007 180.107 104.007C173.723 104.007 168.547 109.414 168.547 116.083C168.547 122.753 173.723 128.16 180.107 128.16Z" fill="#263238" stroke="#263238" stroke-width="1.20044" stroke-linecap="round" stroke-linejoin="round"/>
<path d="M186.04 121.762C186.04 121.762 184.011 116.492 181.574 118.52C179.137 120.549 181.574 125.003 183.399 127.644C185.224 130.285 188.669 129.06 188.273 126.443C187.945 124.716 187.176 123.103 186.04 121.762Z" fill="#8A4A43" stroke="#263238" stroke-width="1.20044" stroke-linecap="round" stroke-linejoin="round"/>
<path d="M217.418 118.484C217.418 118.484 218.438 113.419 219.819 116.864C220.43 118.213 220.711 119.689 220.64 121.169C220.57 122.648 220.148 124.09 219.411 125.375C218.21 127.404 218.402 127.2 217.994 125.375C217.675 123.09 217.483 120.79 217.418 118.484Z" fill="#8A4A43" stroke="#263238" stroke-width="1.20044" stroke-linecap="round" stroke-linejoin="round"/>
<path d="M183.193 112.002C183.193 112.002 187.047 130.645 189.484 135.11C191.921 139.576 200.024 147.115 207.322 144.03C214.621 140.944 218.678 135.314 218.678 128.424C218.678 121.533 219.687 112.818 218.474 105.303C217.862 101.882 216.101 98.771 213.482 96.4857C210.863 94.2004 207.542 92.8772 204.069 92.7347C197.575 92.5306 187.443 96.18 185.414 102.674C184.362 105.701 183.618 108.826 183.193 112.002Z" fill="#8A4A43" stroke="#263238" stroke-width="1.20044" stroke-linecap="round" stroke-linejoin="round"/>
<path d="M183.398 118.893C183.398 118.893 194.754 114.427 202.053 108.953C209.352 103.479 211.584 99.4336 211.584 99.4336C211.584 99.4336 215.03 108.749 216.446 111.798C217.863 114.847 219.075 118.28 219.075 118.28C219.075 118.28 221.308 114.427 221.308 106.276C221.308 98.1251 219.075 91.6787 210.504 87.4171C201.933 83.1556 188.008 85.7966 181.693 91.8828C175.379 97.969 176.628 107.897 178.248 111.75C179.517 114.424 181.262 116.844 183.398 118.893Z" fill="#263238" stroke="#263238" stroke-width="1.20044" stroke-linecap="round" stroke-linejoin="round"/>
<path d="M208.535 111.391C208.535 111.391 207.335 111.595 207.335 115.244C207.335 118.893 208.535 124.968 208.343 125.784C208.151 126.6 205.942 129.025 204.502 127.609" stroke="#263238" stroke-width="1.20044" stroke-linecap="round" stroke-linejoin="round"/>
<path d="M199.41 131.257C199.41 131.257 204.68 133.49 211.415 129.433" stroke="#263238" stroke-width="1.20044" stroke-linecap="round" stroke-linejoin="round"/>
<path d="M209.352 110.958C209.352 110.958 213.625 109.325 216.446 111.774" stroke="#263238" stroke-width="1.20044" stroke-linecap="round" stroke-linejoin="round"/>
<path d="M202.257 111.798C200.401 111.247 198.442 111.144 196.539 111.496C194.636 111.849 192.843 112.648 191.309 113.827" stroke="#263238" stroke-width="1.20044" stroke-linecap="round" stroke-linejoin="round"/>
<path d="M199.412 117.668C199.412 118.869 198.92 119.901 198.308 119.901C197.696 119.901 197.191 118.905 197.191 117.668C197.191 116.432 197.684 115.447 198.308 115.447C198.932 115.447 199.412 116.444 199.412 117.668Z" fill="#263238"/>
<path d="M212.616 116.864C212.616 118.064 212.111 119.097 211.499 119.097C210.887 119.097 210.383 118.1 210.383 116.864C210.383 115.627 210.887 114.631 211.499 114.631C212.111 114.631 212.616 115.627 212.616 116.864Z" fill="#263238"/>
<path d="M225.57 199.01L221.969 193.128C220.949 191.507 216.291 192.119 214.058 192.119C212.898 192.24 211.781 192.628 210.796 193.253C209.811 193.878 208.984 194.722 208.38 195.721C207.576 197.341 203.926 199.982 205.343 201.603C206.759 203.223 210.613 202.203 211.225 202.611C211.837 203.019 216.903 206.465 218.728 207.077C219.698 207.433 220.736 207.568 221.765 207.473L225.57 199.01Z" fill="#8A4A43" stroke="#263238" stroke-width="1.20044" stroke-linecap="round" stroke-linejoin="round"/>
<path d="M231.043 160.296C233.082 161.237 234.907 162.585 236.405 164.257C237.904 165.929 239.045 167.89 239.758 170.019C241.991 177.114 249.482 224.351 247.861 228.841C246.24 233.331 242.195 236.74 235.1 234.315C228.006 231.89 217.094 220.318 217.094 220.318L225.605 199.034L232.291 202.479L230.875 183.428" fill="white"/>
<path d="M231.043 160.296C233.082 161.237 234.907 162.585 236.405 164.257C237.904 165.929 239.045 167.89 239.758 170.019C241.991 177.114 249.482 224.351 247.861 228.841C246.24 233.331 242.195 236.74 235.1 234.315C228.006 231.89 217.094 220.318 217.094 220.318L225.605 199.034L232.291 202.479L230.875 183.428" stroke="#263238" stroke-width="1.20044" stroke-linecap="round" stroke-linejoin="round"/>
<path d="M232.256 202.456C232.256 202.456 243 208.746 244.02 210.979" stroke="#263238" stroke-width="1.20044" stroke-linecap="round" stroke-linejoin="round"/>
<path d="M218.665 174.077H179.543V228.817H218.665V174.077Z" fill="#263238" stroke="#263238" stroke-width="1.20044" stroke-linecap="round" stroke-linejoin="round"/>
<path d="M197.191 212.19C197.191 212.19 204.682 208.133 206.915 205.9C209.148 203.667 209.556 203.499 210.768 203.499C213.752 203.499 216.732 203.294 219.688 202.887C220.888 202.479 220.3 205.288 219.688 205.924C219.075 206.56 215.234 207.353 215.234 207.353C215.234 207.353 221.716 206.74 221.92 208.769C222.066 209.351 222.047 209.962 221.867 210.534C221.687 211.106 221.352 211.617 220.9 212.01L220.3 212.623C220.3 212.623 220.9 216.872 220.3 218.901C219.7 220.93 218.475 221.542 215.834 221.938C212.31 222.163 208.771 221.962 205.294 221.338C203.266 220.93 196.375 222.346 196.375 222.346L197.191 212.19Z" fill="#8A4A43" stroke="#263238" stroke-width="1.20044" stroke-linecap="round" stroke-linejoin="round"/>
<path d="M170.229 158.675C170.229 158.675 158.225 161.304 156.232 162.516C154.239 163.729 147.517 211.986 146.1 220.137C144.684 228.288 158.669 229.873 162.906 231.494C167.144 233.114 198.211 235.503 198.211 235.503L198.62 210.366L177.132 204.892L176.928 170.223" fill="white"/>
<path d="M170.229 158.675C170.229 158.675 158.225 161.304 156.232 162.516C154.239 163.729 147.517 211.986 146.1 220.137C144.684 228.288 158.669 229.873 162.906 231.494C167.144 233.114 198.211 235.503 198.211 235.503L198.62 210.366L177.132 204.892L176.928 170.223" stroke="#263238" stroke-width="1.20044" stroke-linecap="round" stroke-linejoin="round"/>
<path d="M177.12 204.892C177.12 204.892 169.617 201.447 164.755 203.271C159.893 205.096 155.836 214.423 155.836 214.423" stroke="#263238" stroke-width="1.20044" stroke-linecap="round" stroke-linejoin="round"/>
<path d="M168.799 202.456C168.799 202.456 161.704 202.048 158.259 203.477C156.14 204.373 154.264 205.759 152.785 207.522" stroke="#263238" stroke-width="1.20044" stroke-linecap="round" stroke-linejoin="round"/>
<path d="M207.324 172.252H193.543V176.718H207.324V172.252Z" fill="white" stroke="#263238" stroke-width="1.20044" stroke-linecap="round" stroke-linejoin="round"/>
<path d="M290.429 153.158C290.429 153.158 279.79 162.106 278.347 168.634C276.904 175.163 277.62 187.494 276.406 191.117C275.192 194.739 267.947 200.79 269.638 206.593C271.33 212.395 270.853 215.779 276.406 216.256C281.959 216.734 287.284 216.256 290.429 211.181C293.574 206.105 293.813 196.649 291.643 189.383C289.474 182.117 286.319 177.966 289.464 166.662C292.609 155.359 292.121 152.193 290.429 153.158Z" fill="white" stroke="#263238" stroke-width="1.03797" stroke-linecap="round" stroke-linejoin="round"/>
<path d="M343.376 236.808C343.376 236.808 349.417 255.429 349.147 267.272C348.878 279.115 342.38 309.58 342.38 314.417C342.38 319.253 352.531 337.376 352.531 347.528C352.531 357.679 347.933 405.207 347.933 405.207C347.933 405.207 350.351 411.736 352.085 415.369C353.818 419.002 358.614 419.957 355.718 422.635C352.822 425.313 337.346 423.361 337.346 423.361C337.346 423.361 335.654 422.137 335.654 418.026C335.654 413.916 336.37 409.318 336.37 404.73C336.37 400.142 331.782 364.457 327.184 350.434C322.586 336.411 320.956 316.108 319.213 311.749C317.469 307.39 314.376 287.824 314.376 287.824C314.376 287.824 313.41 303.051 313.649 308.365C313.888 313.68 316.306 322.388 317.998 331.097C319.69 339.805 319.939 349.707 318.247 355.271C316.555 360.834 315.341 403.277 314.376 407.169C313.41 411.061 314.137 420.216 313.41 420.943C313.128 421.391 312.735 421.76 312.27 422.014C311.805 422.269 311.283 422.4 310.753 422.396C308.812 422.635 290.679 423.123 288.271 423.61C285.863 424.098 277.632 423.123 278.109 420.704C278.587 418.286 282.915 416.552 288.489 413.937C293.679 411.549 298.868 406.899 299.605 403.557C300.155 401.201 300.571 403.318 301.059 401.626C301.546 399.934 298.401 366.19 294.53 344.912C290.658 323.634 285.344 305.469 282.687 279.645C280.029 253.82 283.164 234.431 283.164 234.431L338.29 230.808L343.376 236.808Z" fill="white" stroke="#263238" stroke-width="1.03797" stroke-linecap="round" stroke-linejoin="round"/>
<path d="M299.844 383.296C298.64 371.951 296.73 356.787 294.54 344.892C290.669 323.624 285.354 305.449 282.697 279.624C280.04 253.8 283.174 234.411 283.174 234.411L338.301 230.788L343.376 236.829C343.376 236.829 349.417 255.429 349.147 267.273C348.878 279.116 342.38 309.58 342.38 314.417C342.38 319.254 352.531 337.377 352.531 347.528C352.531 353.008 351.192 368.744 349.967 382.082C344.622 382.863 339.201 382.978 333.827 382.424C332.073 371.131 329.613 357.96 327.143 350.434C322.555 336.411 320.915 316.109 319.171 311.749C317.427 307.39 314.334 287.824 314.334 287.824C314.334 287.824 313.369 303.051 313.608 308.366C313.846 313.68 316.265 322.389 317.957 331.097C319.649 339.806 319.898 349.708 318.206 355.271C317.282 358.281 316.514 371.536 315.839 383.649C310.527 384.458 305.115 384.339 299.844 383.296Z" fill="#263238" stroke="#263238" stroke-width="1.03797" stroke-linecap="round" stroke-linejoin="round"/>
<path d="M288.261 423.579C285.843 424.066 277.622 423.101 278.1 420.683C278.577 418.264 282.905 416.531 288.479 413.915C293.669 411.528 298.859 406.878 299.596 403.535C300.146 401.179 300.561 403.297 301.049 401.605C301.748 401.494 302.465 401.625 303.08 401.976C303.695 402.327 304.172 402.877 304.433 403.535C305.276 405.397 305.923 407.342 306.363 409.338L314.055 408.871C313.536 413.24 314.055 420.288 313.38 420.942C313.097 421.391 312.705 421.759 312.24 422.014C311.775 422.268 311.253 422.399 310.723 422.395C308.803 422.613 290.669 423.101 288.261 423.579Z" fill="white" stroke="#263238" stroke-width="1.03797" stroke-linecap="round" stroke-linejoin="round"/>
<path d="M335.653 418.026C335.653 415.182 335.996 412.099 336.204 408.944L338.549 409.079L339.276 407.387C339.276 407.387 340.729 403.765 343.148 403.515C345.566 403.266 347.974 405.207 347.974 405.207C347.974 405.207 350.393 411.736 352.126 415.369C353.859 419.002 358.655 419.957 355.759 422.635C352.863 425.313 337.387 423.361 337.387 423.361C337.387 423.361 335.653 422.137 335.653 418.026Z" fill="white" stroke="#263238" stroke-width="1.03797" stroke-linecap="round" stroke-linejoin="round"/>
<path d="M348.109 162.096C348.109 162.096 352.074 165.49 352.323 169.123C352.573 172.756 371.318 210.486 369.907 213.382C368.495 216.277 361.447 217.014 357.576 213.382C353.704 209.749 339.546 190.391 339.546 190.391C339.546 190.391 335.924 205.14 335.394 208.036C334.865 210.932 344.341 239.175 344.341 239.175C344.341 239.175 333.464 254.402 313.151 256.094C292.838 257.786 282.012 239.663 282.012 239.663C282.012 239.663 284.908 214.513 285.634 208.711C286.361 202.908 287.575 204.362 285.634 199.774C283.693 195.186 281.482 185.99 281.773 182.128C282.064 178.267 284.887 160.611 287.575 156.75C290.263 152.889 298.588 153.916 305.532 149.889C312.476 145.862 335.197 154.093 336.889 154.57C338.581 155.048 348.109 162.096 348.109 162.096Z" fill="white" stroke="#263238" stroke-width="1.03797" stroke-linecap="round" stroke-linejoin="round"/>
<path d="M296.886 143.641C296.886 143.641 297.571 151.571 297.052 155.058C296.533 158.546 298.287 163.839 303.27 163.839C308.252 163.839 312.757 158.151 314.822 152.795C316.888 147.44 318.621 134.859 318.621 134.859C315.702 137.488 312.649 139.965 309.477 142.281C304.515 145.883 296.886 143.641 296.886 143.641Z" fill="white" stroke="#263238" stroke-width="1.03797" stroke-linecap="round" stroke-linejoin="round"/>
<path d="M296.708 147.429C296.708 147.429 297.746 152.774 295.328 156.231C292.909 159.687 289.982 161.42 292.92 165.718C295.857 170.015 296.542 172.444 294.996 174.509C293.449 176.575 289.65 179.855 286.692 177.623C283.734 175.392 283.246 173.471 283.246 173.471C283.246 173.471 286.173 173.98 286.173 171.914C286.173 169.849 282.727 170.71 283.588 164.15C284.45 157.59 286.868 159.998 285.488 155.847C284.107 151.695 281.865 153.252 282.561 146.702C283.256 140.153 288.072 134.112 287.906 130.655C287.74 127.199 286.868 127.053 286.868 127.053C287.92 130.53 289.354 133.879 291.145 137.039C293.906 141.699 296.667 145.841 296.667 145.841L296.708 147.429Z" fill="#263238" stroke="#263238" stroke-width="1.03797" stroke-linecap="round" stroke-linejoin="round"/>
<path d="M293.876 108.328C293.876 108.328 319.42 117.037 319.42 118.386C319.42 119.735 317.676 135.419 316.13 138.107C314.583 140.796 308.584 149.141 305.49 149.909C302.397 150.677 299.263 148.944 295.038 145.456C290.814 141.969 288.073 133.654 286.911 127.074C285.748 120.493 285.364 117.016 285.364 117.016C285.364 117.016 292.132 108.909 293.876 108.328Z" fill="white" stroke="#263238" stroke-width="1.03797" stroke-linecap="round" stroke-linejoin="round"/>
<path d="M294.219 126.034C294.219 127.28 293.708 128.351 293.073 128.351C292.437 128.351 291.914 127.317 291.914 126.034C291.914 124.75 292.425 123.729 293.073 123.729C293.721 123.729 294.219 124.763 294.219 126.034Z" fill="#263238"/>
<path d="M307.468 124.684C307.468 125.93 306.945 127.002 306.309 127.002C305.674 127.002 305.15 125.967 305.15 124.684C305.15 123.401 305.674 122.366 306.309 122.366C306.945 122.366 307.468 123.401 307.468 124.684Z" fill="#263238"/>
<path d="M302.969 135.42C302.272 136.26 301.273 136.792 300.187 136.901C299.101 137.009 298.016 136.686 297.167 136.001" stroke="#263238" stroke-width="1.03797" stroke-linecap="round" stroke-linejoin="round"/>
<path d="M305.875 140.059C305.875 140.059 300.841 142 297.571 140.837" stroke="#263238" stroke-width="1.03797" stroke-linecap="round" stroke-linejoin="round"/>
<path d="M302.388 122.652C302.388 122.652 307.038 119.538 310.328 122.455" stroke="#263238" stroke-width="1.03797" stroke-linecap="round" stroke-linejoin="round"/>
<path d="M294.26 123.037C293.392 122.539 292.397 122.31 291.399 122.378C290.401 122.447 289.446 122.809 288.655 123.421" stroke="#263238" stroke-width="1.03797" stroke-linecap="round" stroke-linejoin="round"/>
<path d="M285.498 119.663C285.498 119.663 281.346 119.061 280.495 115.947C279.644 112.833 279.457 105.858 287.221 97.2638C294.985 88.6695 307.057 87.0295 315.34 91.1814C323.623 95.3332 329.311 99.9729 331.376 107.571C333.442 115.169 332.414 123.784 332.414 123.784L318.443 117.224L293.875 108.308L285.363 117.016L285.498 119.663Z" fill="#263238" stroke="#263238" stroke-width="1.03797" stroke-linecap="round" stroke-linejoin="round"/>
<path d="M332.416 123.805C332.416 123.805 333.973 132.254 334.834 134.838C335.696 137.423 344.176 139.156 345.349 143.142C346.522 147.128 344.311 151.768 344.487 153.148C344.664 154.529 347.425 154.01 348.11 157.3C348.795 160.59 348.11 162.137 348.11 162.137C348.11 162.137 331.897 153.677 330.464 153.833C329.032 153.989 328.918 155.909 330.641 158.836C332.364 161.763 332.717 164.026 331.326 165.739C329.935 167.451 323.738 169.704 324.257 171.966C324.776 174.229 327.88 175.412 326.157 177.654C324.434 179.896 318.393 180.934 318.393 180.934C318.393 180.934 320.116 179.896 318.216 177.654C316.317 175.412 311.667 172.828 313.026 169.724C314.386 166.621 318.029 163.86 315.787 161.275C313.545 158.691 310.784 155.411 311.822 151.269C312.86 147.128 314.749 144.367 315.611 141.928C316.225 140.012 316.687 138.051 316.991 136.063L319.348 118.418C319.348 118.418 330.693 121.729 332.416 123.805Z" fill="#263238" stroke="#263238" stroke-width="1.03797" stroke-linecap="round" stroke-linejoin="round"/>
<path d="M266.981 193.774C266.981 193.774 271.133 192.082 272.295 194.023C273.458 195.964 273.51 201.995 272.057 202.483C270.604 202.97 266.981 193.774 266.981 193.774Z" fill="white" stroke="#263238" stroke-width="1.03797" stroke-linecap="round" stroke-linejoin="round"/>
<path d="M313.877 185.075L329.592 224.476L314.842 235.115L292.609 241.644L278.586 204.412L296.719 194.749L313.877 185.075Z" fill="white" stroke="#263238" stroke-width="1.03797" stroke-linecap="round" stroke-linejoin="round"/>
<path d="M296.72 194.739L305.906 220.854" stroke="#263238" stroke-width="1.03797" stroke-linecap="round" stroke-linejoin="round"/>
<path d="M278.586 204.413L263.11 196.919L277.86 234.39L292.609 241.645L278.586 204.413Z" fill="white" stroke="#263238" stroke-width="1.03797" stroke-linecap="round" stroke-linejoin="round"/>
<path d="M263.11 196.919L259 181.453L269.4 199.825L263.11 196.919Z" fill="white" stroke="#263238" stroke-width="1.03797" stroke-linecap="round" stroke-linejoin="round"/>
<path d="M262.384 194.978C262.384 194.978 260.453 195.455 259.727 199.129C259 202.804 260.692 205.409 262.633 207.35C264.574 209.291 268.674 210.973 268.674 210.973L262.384 194.978Z" fill="white" stroke="#263238" stroke-width="1.03797" stroke-linecap="round" stroke-linejoin="round"/>
<path d="M333.462 222.785C333.462 222.785 331.044 216.983 330.805 214.325C330.566 211.668 336.607 214.087 336.607 214.087L333.462 222.785Z" fill="#263238" stroke="#263238" stroke-width="1.03797" stroke-linecap="round" stroke-linejoin="round"/>
<path d="M333.463 206.396C333.463 206.396 332.01 206.157 327.661 203.988C323.312 201.818 321.859 201.569 317.282 202.535C312.704 203.5 311.241 204.465 311.728 206.686C312.216 208.908 316.804 208.617 316.804 208.617C316.556 209.8 316.626 211.027 317.007 212.174C317.388 213.322 318.066 214.347 318.973 215.146C320.093 216.111 321.405 216.826 322.823 217.243C324.24 217.66 325.731 217.77 327.194 217.564C328.886 217.326 334.211 216.35 334.211 216.35C334.211 216.35 336.121 210.942 333.463 206.396Z" fill="white" stroke="#263238" stroke-width="1.03797" stroke-linecap="round" stroke-linejoin="round"/>
<path d="M363.335 209.758C363.335 209.758 361.405 202.742 358.021 202.025C354.637 201.309 347.486 203.686 341.683 204.901C335.881 206.115 333.463 206.395 333.463 206.395C333.463 206.395 334.428 213.661 334.189 216.308C333.951 218.955 333.463 222.837 333.463 222.837C333.463 222.837 350.07 222.38 358.021 219.962C365.972 217.543 370.591 216.775 369.906 211.45C369.221 206.125 366.792 204.444 366.792 204.444" fill="white"/>
<path d="M363.335 209.758C363.335 209.758 361.405 202.742 358.021 202.025C354.637 201.309 347.486 203.686 341.683 204.901C335.881 206.115 333.463 206.395 333.463 206.395C333.463 206.395 334.428 213.661 334.189 216.308C333.951 218.955 333.463 222.837 333.463 222.837C333.463 222.837 350.07 222.38 358.021 219.962C365.972 217.543 370.591 216.775 369.906 211.45C369.221 206.125 366.792 204.444 366.792 204.444" stroke="#263238" stroke-width="1.03797" stroke-linecap="round" stroke-linejoin="round"/>
</svg>
