<svg width="660" height="500" viewBox="0 0 660 500" fill="none" xmlns="http://www.w3.org/2000/svg">
<path d="M371.649 473.79C481.327 473.79 570.239 469.649 570.239 464.54C570.239 459.431 481.327 455.29 371.649 455.29C261.97 455.29 173.059 459.431 173.059 464.54C173.059 469.649 261.97 473.79 371.649 473.79Z" fill="#F5F5F5"/>
<path d="M393.26 38.7403C394.68 41.1203 399.81 44.6103 399.81 44.6203C399.81 44.6303 401.09 40.5403 401.14 40.2703C401.68 37.1603 400.91 30.8303 397.79 29.1803C397.263 28.918 396.687 28.7699 396.099 28.7457C395.511 28.7215 394.924 28.8217 394.378 29.0398C393.831 29.2578 393.337 29.5888 392.927 30.0111C392.517 30.4334 392.201 30.9374 392 31.4903C391.07 33.8103 392.05 36.7203 393.26 38.7403Z" fill="#F5F5F5"/>
<path d="M443.54 76.3401C443.54 76.4001 446.85 73.6401 447.04 73.4401C449.21 71.1501 452.04 65.4401 450.37 62.3501C450.075 61.8419 449.675 61.4017 449.198 61.0583C448.721 60.7148 448.177 60.4758 447.602 60.3569C447.026 60.238 446.432 60.2419 445.858 60.3682C445.284 60.4945 444.743 60.7405 444.27 61.0901C442.21 62.5001 441.42 65.4701 441.27 67.8301C441.18 70.5901 443.54 76.3401 443.54 76.3401Z" fill="#F5F5F5"/>
<path d="M384.549 54.6192C386.469 56.4592 391.909 58.3692 392.339 58.5192C391.241 61.6159 390.352 64.7831 389.679 67.9992C389.269 69.8692 388.919 71.7792 388.589 73.6892C388.589 72.7992 388.589 71.9892 388.589 71.8792C388.299 68.7392 385.889 62.8792 382.429 62.0692C381.85 61.953 381.253 61.9605 380.677 62.0914C380.101 62.2223 379.559 62.4735 379.087 62.8285C378.614 63.1836 378.223 63.6345 377.937 64.1517C377.651 64.6688 377.478 65.2405 377.429 65.8292C377.139 68.3092 378.849 70.8292 380.549 72.4892C382.249 74.1492 386.879 75.8692 388.109 76.3092C387.989 77.0492 387.859 77.7792 387.749 78.5192C387.199 82.0492 386.659 85.5192 386.029 89.0192C385.809 90.2292 385.549 91.4192 385.289 92.5992C385.289 91.8092 385.289 91.1392 385.289 91.0392C384.999 87.8892 382.589 82.0392 379.139 81.2192C378.56 81.1046 377.964 81.1134 377.388 81.2449C376.813 81.3764 376.271 81.6278 375.8 81.9825C375.328 82.3373 374.936 82.7876 374.65 83.3039C374.364 83.8203 374.19 84.3911 374.139 84.9792C373.849 87.4593 375.559 89.9792 377.259 91.6492C378.959 93.3192 383.149 94.8592 384.599 95.3892C384.299 96.5892 383.999 97.8092 383.649 98.9592C383.399 99.7492 383.209 100.519 382.909 101.299L382.069 103.589C381.489 105.029 380.899 106.519 380.289 107.909C379.879 108.909 379.469 109.799 379.059 110.719C379.289 109.519 379.699 107.149 379.709 106.949C379.899 103.799 378.409 97.5992 375.109 96.3192C374.554 96.1224 373.964 96.0451 373.376 96.0924C372.789 96.1397 372.219 96.3106 371.702 96.5939C371.186 96.8772 370.735 97.2664 370.379 97.7361C370.024 98.2057 369.772 98.7453 369.639 99.3192C368.969 101.729 370.279 104.509 371.709 106.379C373.289 108.439 378.169 111.069 378.779 111.379C378.089 112.899 377.409 114.379 376.779 115.769C374.859 119.769 373.079 123.199 371.659 125.769L373.589 127.149C374.979 124.459 376.759 120.889 378.679 116.629C379.389 115.089 380.109 113.419 380.829 111.699C382.563 112.129 384.319 112.462 386.089 112.699C386.419 115.339 388.859 119.899 389.179 120.489C387.759 121.389 386.379 122.239 385.059 123.029C381.299 125.289 377.999 127.109 375.409 128.489L377.509 129.989C379.929 128.609 382.869 126.889 386.149 124.819C387.599 123.909 389.149 122.919 390.669 121.879C391.129 122.379 394.919 126.439 397.309 127.449C399.489 128.369 402.509 128.929 404.669 127.679C405.187 127.401 405.64 127.018 405.999 126.553C406.359 126.089 406.617 125.554 406.756 124.984C406.896 124.413 406.914 123.82 406.809 123.242C406.705 122.664 406.48 122.115 406.149 121.629C404.079 118.759 397.699 118.889 394.699 119.859C394.519 119.919 392.699 120.759 391.509 121.309C392.149 120.889 392.759 120.479 393.409 120.029C394.689 119.159 395.949 118.249 397.299 117.269L399.229 115.769C399.879 115.289 400.509 114.689 401.169 114.149C402.649 112.849 404.089 111.469 405.509 110.049C406.279 111.169 409.069 115.109 411.089 116.349C413.109 117.589 415.999 118.589 418.319 117.679C418.874 117.485 419.381 117.177 419.809 116.773C420.236 116.369 420.572 115.88 420.797 115.337C421.022 114.794 421.129 114.21 421.112 113.623C421.096 113.035 420.955 112.458 420.699 111.929C419.089 108.789 412.769 107.929 409.649 108.449C409.459 108.449 407.269 109.099 406.069 109.449C406.909 108.579 407.759 107.729 408.589 106.829C410.979 104.229 413.319 101.519 415.669 98.8292L417.839 96.3792C418.109 96.7792 421.319 101.539 423.579 102.929C425.579 104.159 428.499 105.169 430.819 104.259C431.372 104.063 431.877 103.753 432.303 103.348C432.728 102.944 433.064 102.456 433.288 101.913C433.512 101.371 433.62 100.788 433.605 100.202C433.59 99.6155 433.452 99.0389 433.199 98.5092C431.589 95.3592 425.269 94.5092 422.149 95.0292C421.919 95.0292 418.759 95.9593 417.969 96.2292C419.559 94.4292 421.169 92.6592 422.819 90.9692C425.072 88.6859 427.47 86.5514 429.999 84.5792C430.129 84.7692 433.459 89.7492 435.779 91.1692C437.779 92.3992 440.689 93.4092 443.019 92.4992C443.573 92.3042 444.079 91.9946 444.506 91.5908C444.932 91.1869 445.268 90.6979 445.493 90.1554C445.717 89.6129 445.825 89.0293 445.809 88.4424C445.793 87.8555 445.653 87.2786 445.399 86.7492C443.779 83.6092 437.459 82.7492 434.349 83.2692C434.139 83.2692 431.739 83.9892 430.599 84.3392L430.509 84.1592C433.076 82.2325 435.811 80.5391 438.679 79.0992C440.249 78.2792 441.789 77.5992 443.309 76.9592C443.839 77.9592 446.309 82.4492 448.229 83.9592C450.149 85.4692 452.869 86.7292 455.279 86.0792C455.852 85.9478 456.39 85.697 456.859 85.3431C457.327 84.9893 457.716 84.5404 457.999 84.0259C458.283 83.5113 458.454 82.9428 458.502 82.3575C458.55 81.7721 458.474 81.1832 458.279 80.6292C457.019 77.3192 450.829 75.7892 447.679 75.9592C447.509 75.9592 445.769 76.2492 444.509 76.4792C445.199 76.1992 445.909 75.8992 446.579 75.6492C449.069 74.6492 451.419 73.9792 453.499 73.3592C454.689 73.0192 455.769 72.7292 456.779 72.4692C457.779 73.1792 461.969 75.9592 464.339 76.3992C466.709 76.8392 469.729 76.7192 471.569 75.0292C472.015 74.6479 472.376 74.1768 472.628 73.6467C472.88 73.1167 473.018 72.5395 473.032 71.9527C473.046 71.366 472.937 70.7828 472.71 70.2412C472.484 69.6996 472.147 69.2117 471.719 68.8092C469.079 66.4592 462.879 67.9492 460.159 69.5492C459.929 69.6892 456.499 72.2692 456.549 72.3092H456.609C455.609 72.5392 454.609 72.7992 453.439 73.0992C451.339 73.6692 448.969 74.3392 446.439 75.2392C443.712 76.1862 441.041 77.288 438.439 78.5392C435.484 79.9413 432.659 81.6046 429.999 83.5092L429.909 83.5792C430.519 82.7492 432.169 80.3592 432.269 80.1592C433.759 77.3792 435.009 71.1592 432.549 68.5792C432.129 68.1698 431.628 67.8531 431.078 67.6497C430.528 67.4463 429.941 67.3607 429.355 67.3984C428.77 67.4361 428.199 67.5963 427.679 67.8686C427.16 68.1409 426.703 68.5193 426.339 68.9792C424.729 70.8892 424.749 73.9792 425.259 76.2592C425.849 78.8592 429.329 83.4492 429.609 83.8192C426.976 85.805 424.477 87.9631 422.129 90.2792C420.759 91.6192 419.419 93.0192 418.129 94.4292C418.639 93.6992 419.129 93.0292 419.129 92.9392C420.619 90.1492 421.869 83.9392 419.409 81.3492C418.989 80.9398 418.488 80.6231 417.938 80.4197C417.388 80.2163 416.801 80.1307 416.215 80.1684C415.63 80.2061 415.059 80.3663 414.539 80.6386C414.02 80.9109 413.563 81.2893 413.199 81.7492C411.579 83.6592 411.609 86.7492 412.119 89.0292C412.629 91.3092 415.539 95.3392 416.319 96.3892C415.809 96.9292 415.319 97.4792 414.799 98.0292C412.399 100.669 410.009 103.309 407.579 105.839C406.729 106.729 405.849 107.569 404.979 108.419C405.429 107.759 405.809 107.209 405.859 107.119C407.349 104.329 408.589 98.1192 406.129 95.5392C405.711 95.1278 405.21 94.8091 404.66 94.604C404.11 94.3988 403.523 94.3118 402.937 94.3486C402.351 94.3854 401.78 94.5452 401.26 94.8175C400.74 95.0899 400.283 95.4687 399.919 95.9292C398.309 97.8392 398.329 100.929 398.849 103.209C399.369 105.489 401.979 109.139 402.849 110.379C401.939 111.219 401.019 112.069 400.089 112.839C399.439 113.359 398.859 113.899 398.179 114.379L396.179 115.829C394.899 116.709 393.579 117.629 392.309 118.449C391.429 119.029 390.579 119.569 389.729 120.119C390.589 119.239 392.239 117.489 392.359 117.329C393.94 115.045 394.911 112.394 395.179 109.629C395.367 109.385 395.531 109.124 395.669 108.849C395.949 108.332 396.116 107.762 396.161 107.175C396.206 106.589 396.126 106 395.928 105.446C395.73 104.892 395.418 104.387 395.011 103.962C394.605 103.537 394.114 103.202 393.569 102.979C390.259 101.739 385.019 105.359 383.049 107.829C382.929 107.969 381.849 109.699 381.189 110.829C381.479 110.119 381.769 109.439 382.069 108.709C382.649 107.269 383.199 105.819 383.789 104.259C384.039 103.499 384.309 102.729 384.569 101.949C384.829 101.169 385.039 100.339 385.289 99.5192C385.809 97.6292 386.289 95.6792 386.649 93.7092C387.909 94.2192 392.409 95.9692 394.779 95.8892C397.149 95.8092 400.199 94.9992 401.639 92.9992C401.994 92.5308 402.245 91.993 402.378 91.4209C402.51 90.8487 402.521 90.255 402.408 89.6786C402.296 89.1021 402.064 88.5557 401.726 88.0751C401.389 87.5945 400.954 87.1905 400.449 86.8892C397.369 85.1492 391.629 87.8892 389.319 90.0792C389.169 90.2192 387.679 91.9392 386.879 92.9092C387.119 91.7192 387.349 90.5392 387.549 89.3292C388.109 85.8392 388.549 82.3292 389.039 78.7592C389.179 77.6692 389.339 76.5992 389.489 75.5192C389.939 75.6992 395.239 77.8992 397.899 77.8092C400.249 77.7292 403.229 76.9692 404.669 74.9292C405.022 74.4595 405.273 73.9208 405.404 73.3482C405.536 72.7755 405.546 72.1816 405.434 71.6048C405.322 71.028 405.09 70.4812 404.753 69.9996C404.417 69.5181 403.983 69.1125 403.479 68.8092C400.399 67.0792 394.659 69.8692 392.349 72.0092C392.169 72.1692 390.029 74.6592 389.519 75.3192C389.859 72.9392 390.219 70.5692 390.669 68.2592C391.242 65.1247 392.02 62.0314 392.999 58.9992C393.209 59.0892 398.729 61.3992 401.449 61.3092C403.799 61.2292 406.779 60.4692 408.219 58.4292C408.574 57.9608 408.825 57.423 408.958 56.8509C409.09 56.2787 409.101 55.685 408.988 55.1086C408.876 54.5321 408.644 53.9857 408.306 53.5051C407.969 53.0245 407.533 52.6205 407.029 52.3192C403.949 50.5892 398.209 53.3692 395.899 55.5092C395.749 55.6492 394.109 57.5092 393.359 58.5092L393.179 58.4092C394.252 55.3868 395.591 52.4654 397.179 49.6792C398.039 48.1392 398.949 46.6792 399.859 45.3392C400.859 45.8792 405.379 48.2792 407.859 48.4692C410.339 48.6592 413.259 48.2192 414.909 46.3492C415.313 45.9219 415.621 45.4145 415.816 44.86C416.01 44.3055 416.086 43.7162 416.038 43.1306C415.99 42.545 415.819 41.976 415.537 41.4607C415.254 40.9453 414.867 40.4951 414.399 40.1392C411.529 38.0792 405.519 40.2192 402.979 42.1392C402.839 42.2392 401.549 43.4292 400.629 44.3192C401.049 43.7092 401.479 43.0692 401.889 42.4892C403.449 40.3192 405.009 38.4192 406.409 36.7592C407.209 35.8192 407.949 34.9792 408.649 34.2092C409.899 34.2092 414.899 34.2092 417.119 33.3092C419.339 32.4092 421.799 30.5992 422.399 28.1792C422.561 27.6148 422.602 27.0227 422.519 26.4414C422.437 25.8601 422.233 25.3027 421.92 24.8055C421.608 24.3083 421.195 23.8825 420.707 23.5558C420.219 23.2291 419.668 23.0088 419.089 22.9092C415.589 22.4092 411.239 27.0692 409.859 29.9092C409.739 30.1492 408.299 34.1992 408.369 34.1992H408.439C407.749 34.9292 407.019 35.7292 406.229 36.6092C404.799 38.2392 403.229 40.1092 401.579 42.2592C399.819 44.5534 398.193 46.9474 396.709 49.4292C395.033 52.2022 393.611 55.1207 392.459 58.1492C392.454 58.1857 392.454 58.2228 392.459 58.2592C392.519 57.2592 392.569 54.3292 392.549 54.0992C392.259 50.9592 389.849 45.0992 386.399 44.2892C385.82 44.173 385.223 44.1805 384.647 44.3114C384.071 44.4423 383.529 44.6935 383.057 45.0485C382.584 45.4036 382.193 45.8545 381.907 46.3717C381.621 46.8888 381.448 47.4605 381.399 48.0492C381.139 50.4292 382.849 52.9992 384.549 54.6192Z" fill="#F5F5F5"/>
<path d="M291.879 90.2C294.479 89.2 298.879 84.85 298.879 84.85C298.879 84.85 295.109 82.85 294.879 82.74C291.929 81.63 285.569 81.22 283.369 83.99C283.017 84.4588 282.767 84.9964 282.637 85.568C282.506 86.1395 282.497 86.7322 282.61 87.3075C282.723 87.8827 282.956 88.4278 283.294 88.9072C283.631 89.3866 284.066 89.7896 284.569 90.09C286.619 91.44 289.669 91 291.879 90.2Z" fill="#F5F5F5"/>
<path d="M338.11 47.7295C338.18 47.7295 336.11 43.9695 335.91 43.7295C334.06 41.1695 328.98 37.3195 325.62 38.4095C325.067 38.6065 324.561 38.9178 324.136 39.3233C323.711 39.7287 323.377 40.2191 323.154 40.7626C322.931 41.306 322.826 41.8903 322.844 42.4773C322.862 43.0644 323.004 43.6409 323.26 44.1695C324.26 46.4595 327.04 47.7895 329.34 48.3295C332 48.9995 338.11 47.7295 338.11 47.7295Z" fill="#F5F5F5"/>
<path d="M305.87 101.69C308.04 100.14 310.92 95.1497 311.15 94.7497C314 96.4038 316.956 97.867 320 99.1297C321.77 99.8797 323.58 100.57 325.4 101.25C324.52 101.06 323.73 100.9 323.62 100.89C320.48 100.6 314.23 101.89 312.84 105.14C312.625 105.686 312.528 106.271 312.554 106.857C312.58 107.444 312.729 108.018 312.991 108.543C313.253 109.068 313.622 109.532 314.075 109.906C314.528 110.279 315.054 110.553 315.62 110.71C318 111.45 320.83 110.24 322.75 108.87C324.67 107.5 327.24 103.27 327.89 102.15L329.99 102.91C333.36 104.1 336.73 105.28 339.99 106.53C341.14 106.98 342.25 107.45 343.37 107.93C342.6 107.76 341.94 107.63 341.84 107.62C338.69 107.33 332.45 108.62 331.06 111.86C330.842 112.406 330.741 112.991 330.765 113.579C330.789 114.166 330.936 114.742 331.198 115.269C331.459 115.795 331.829 116.261 332.282 116.635C332.736 117.009 333.263 117.283 333.83 117.44C336.22 118.18 339.04 116.97 340.96 115.6C342.88 114.23 345.2 110.41 345.96 109.08C347.09 109.6 348.23 110.08 349.3 110.67C350.02 111.07 350.75 111.4 351.46 111.84L353.56 113.08C354.87 113.92 356.22 114.77 357.47 115.62C358.35 116.21 359.18 116.78 360.01 117.36C358.87 116.91 356.62 116.07 356.42 116.02C353.36 115.25 346.99 115.57 345.12 118.58C344.825 119.086 344.639 119.649 344.575 120.232C344.512 120.815 344.571 121.405 344.751 121.963C344.93 122.521 345.224 123.036 345.615 123.473C346.006 123.91 346.485 124.26 347.02 124.5C349.27 125.6 352.24 124.83 354.35 123.77C356.66 122.6 360.15 118.29 360.58 117.77C361.95 118.77 363.28 119.67 364.52 120.58C368.13 123.22 371.14 125.58 373.43 127.46L375.14 125.83C372.75 123.96 369.57 121.55 365.74 118.83C364.35 117.83 362.84 116.83 361.28 115.83C362.019 114.203 362.66 112.533 363.2 110.83C365.86 110.99 370.79 109.43 371.43 109.23C372.05 110.78 372.64 112.3 373.17 113.75C374.69 117.86 375.87 121.44 376.75 124.24L378.61 122.45C377.71 119.82 376.55 116.61 375.12 113C374.5 111.42 373.81 109.74 373.07 108C373.65 107.64 378.34 104.67 379.77 102.5C381.07 100.5 382.18 97.6597 381.35 95.3097C381.173 94.7494 380.881 94.2327 380.491 93.7932C380.102 93.3536 379.624 93.0011 379.089 92.7586C378.554 92.5161 377.974 92.3891 377.386 92.3858C376.799 92.3826 376.218 92.5031 375.68 92.7397C372.48 94.2397 371.43 100.53 371.84 103.66C371.84 103.85 372.34 105.82 372.67 107.06C372.37 106.36 372.08 105.68 371.76 104.96C371.14 103.54 370.47 102.14 369.76 100.63C369.4 99.9097 369.02 99.1897 368.65 98.4597C368.28 97.7297 367.82 96.9997 367.41 96.2497C366.41 94.5597 365.32 92.8897 364.18 91.2497C365.43 90.6997 369.82 88.6897 371.41 86.9297C373 85.1697 374.52 82.5197 374.05 80.0697C373.962 79.4888 373.752 78.9331 373.434 78.4388C373.117 77.9445 372.698 77.5227 372.207 77.2009C371.715 76.8791 371.161 76.6646 370.581 76.5714C370.001 76.4781 369.408 76.5082 368.84 76.6597C365.45 77.6597 363.45 83.7197 363.38 86.8797C363.38 87.0797 363.58 89.3497 363.71 90.5897C363.02 89.5897 362.34 88.5897 361.61 87.5897C359.49 84.7597 357.27 81.9597 355.06 79.1597C354.38 78.2997 353.71 77.4397 353.06 76.5697C353.5 76.3797 358.77 74.0997 360.55 72.1397C362.13 70.3897 363.66 67.7197 363.2 65.2697C363.111 64.6886 362.9 64.1329 362.581 63.6389C362.262 63.1449 361.843 62.7237 361.35 62.4029C360.857 62.082 360.303 61.8686 359.722 61.7768C359.141 61.6849 358.548 61.7165 357.98 61.8697C354.6 62.8697 352.6 68.9297 352.53 72.0897C352.53 72.3197 352.82 75.5897 352.93 76.4197C351.46 74.5197 350.01 72.6097 348.66 70.6797C346.819 68.0742 345.148 65.3518 343.66 62.5297C343.86 62.4397 349.38 60.0897 351.2 58.0697C352.78 56.3297 354.31 53.6597 353.85 51.2097C353.759 50.6291 353.547 50.0741 353.228 49.5806C352.909 49.0871 352.49 48.666 351.998 48.3446C351.506 48.0232 350.952 47.8087 350.372 47.7148C349.792 47.6209 349.198 47.6498 348.63 47.7997C345.24 48.7997 343.25 54.8697 343.18 58.0197C343.18 58.2297 343.39 60.7197 343.53 61.8997L343.33 61.9597C341.913 59.0678 340.755 56.056 339.87 52.9597C339.36 51.2697 338.97 49.6297 338.62 48.0197C339.7 47.6797 344.57 46.0997 346.42 44.4697C348.27 42.8397 350 40.4697 349.8 37.9397C349.78 37.3492 349.635 36.7698 349.375 36.2393C349.115 35.7088 348.746 35.2393 348.291 34.8616C347.837 34.4838 347.308 34.2064 346.739 34.0475C346.17 33.8887 345.574 33.8519 344.99 33.9397C341.51 34.5697 338.87 40.3697 338.45 43.4997C338.45 43.6697 338.38 45.4297 338.37 46.7097C338.23 45.9797 338.06 45.2297 337.94 44.5297C337.46 41.8897 337.19 39.4597 336.94 37.2997C336.82 36.0597 336.74 34.9497 336.67 33.9097C337.55 33.0297 341.06 29.4597 341.92 27.1997C342.78 24.9397 343.24 21.9597 341.92 19.8397C341.627 19.3306 341.23 18.8889 340.755 18.5435C340.28 18.198 339.738 17.9566 339.163 17.8349C338.588 17.7132 337.995 17.7139 337.42 17.8371C336.846 17.9602 336.304 18.203 335.83 18.5497C333.03 20.7097 333.35 27.0797 334.42 30.0497C334.51 30.2997 336.42 34.1497 336.47 34.1097L336.52 34.0497C336.52 35.0497 336.62 36.1397 336.71 37.3097C336.89 39.4797 337.11 41.9397 337.53 44.5897C337.946 47.4523 338.534 50.2874 339.29 53.0797C340.112 56.2117 341.213 59.2639 342.58 62.1997L342.64 62.2997C341.93 61.5397 339.89 59.4897 339.72 59.2997C337.26 57.2997 331.34 54.9397 328.39 56.8897C327.908 57.2254 327.502 57.6589 327.198 58.1621C326.895 58.6653 326.701 59.2268 326.63 59.8099C326.558 60.393 326.61 60.9847 326.782 61.5464C326.955 62.1081 327.243 62.6271 327.63 63.0697C329.21 64.9997 332.23 65.5497 334.63 65.4597C337.29 65.3697 342.45 62.7997 342.86 62.5897C344.331 65.5465 346.001 68.3998 347.86 71.1297C348.92 72.7297 350.05 74.2997 351.19 75.8697C350.56 75.2297 350 74.6697 349.91 74.5997C347.45 72.5997 341.53 70.2397 338.58 72.1897C338.098 72.5254 337.692 72.9589 337.388 73.4621C337.085 73.9653 336.891 74.5268 336.82 75.1099C336.748 75.693 336.8 76.2847 336.972 76.8464C337.145 77.4081 337.433 77.9271 337.82 78.3697C339.4 80.2997 342.42 80.8497 344.82 80.7697C347.22 80.6897 351.65 78.5797 352.82 77.9997C353.27 78.5997 353.7 79.1997 354.15 79.7897C356.3 82.6497 358.46 85.4897 360.49 88.3297C361.21 89.3297 361.88 90.3297 362.55 91.3297L361.44 90.2197C358.98 88.2197 353.06 85.8697 350.11 87.8097C349.628 88.1454 349.222 88.5789 348.918 89.0821C348.615 89.5853 348.421 90.1468 348.35 90.7299C348.278 91.313 348.33 91.9047 348.502 92.4664C348.675 93.0281 348.963 93.5471 349.35 93.9897C350.92 95.9297 353.95 96.4797 356.35 96.3897C358.75 96.2997 362.75 94.3897 364.14 93.7297C364.8 94.7897 365.46 95.8497 366.05 96.8997C366.43 97.6297 366.85 98.3097 367.2 99.0597C367.55 99.8097 367.92 100.53 368.27 101.26C368.9 102.68 369.55 104.14 370.13 105.54C370.54 106.54 370.91 107.45 371.29 108.39C370.59 107.39 369.17 105.39 369.04 105.29C367.086 103.312 364.659 101.866 361.99 101.09C361.785 100.86 361.558 100.652 361.31 100.47C360.853 100.1 360.322 99.831 359.754 99.6802C359.186 99.5294 358.592 99.5002 358.011 99.5946C357.431 99.689 356.877 99.9048 356.386 100.228C355.894 100.551 355.477 100.974 355.16 101.47C353.33 104.47 355.91 110.32 357.98 112.7C358.1 112.84 359.6 114.22 360.55 115.08C359.91 114.66 359.3 114.25 358.64 113.83C357.33 112.99 356 112.18 354.58 111.32L352.45 110.12C351.75 109.7 350.95 109.35 350.2 108.97C348.43 108.1 346.6 107.31 344.74 106.55C345.47 105.41 348.02 101.31 348.38 98.9697C348.74 96.6297 348.54 93.5697 346.8 91.7797C346.407 91.3429 345.927 90.9936 345.39 90.7546C344.853 90.5155 344.272 90.392 343.685 90.392C343.097 90.392 342.517 90.5155 341.98 90.7546C341.443 90.9936 340.963 91.3429 340.57 91.7797C338.3 94.4897 339.98 100.64 341.66 103.31C341.76 103.48 343.19 105.31 343.99 106.22C342.86 105.78 341.74 105.33 340.59 104.91C337.27 103.72 333.87 102.61 330.48 101.49L327.38 100.49C327.64 100.09 330.78 95.2797 331.18 92.6497C331.53 90.3197 331.34 87.2497 329.6 85.4697C329.207 85.0329 328.727 84.6836 328.19 84.4446C327.653 84.2055 327.072 84.082 326.485 84.082C325.897 84.082 325.317 84.2055 324.78 84.4446C324.243 84.6836 323.763 85.0329 323.37 85.4697C321.1 88.1797 322.78 94.3397 324.46 97.0097C324.58 97.2097 326.63 99.7697 327.19 100.4C324.91 99.6197 322.65 98.8397 320.46 97.9697C317.492 96.8199 314.6 95.4839 311.8 93.9697C311.92 93.7797 315.22 88.7697 315.63 86.0897C315.99 83.7597 315.79 80.6897 314.05 78.8997C313.657 78.4629 313.177 78.1136 312.64 77.8746C312.103 77.6355 311.522 77.512 310.935 77.512C310.347 77.512 309.767 77.6355 309.23 77.8746C308.693 78.1136 308.213 78.4629 307.82 78.8997C305.55 81.6097 307.23 87.7597 308.91 90.4297C309.02 90.6097 310.58 92.5597 311.34 93.4297L311.21 93.5897C308.44 91.9694 305.819 90.1053 303.38 88.0197C302.02 86.8897 300.78 85.7297 299.61 84.5797C300.32 83.7097 303.52 79.6997 304.15 77.3297C304.78 74.9597 304.91 71.9797 303.37 70.0097C303.026 69.5339 302.585 69.1361 302.077 68.842C301.569 68.5479 301.004 68.3642 300.42 68.3029C299.836 68.2416 299.246 68.304 298.687 68.4861C298.129 68.6681 297.615 68.9658 297.18 69.3597C294.62 71.8097 295.62 78.1097 296.99 80.9497C297.07 81.0997 297.99 82.5897 298.7 83.6597C298.18 83.1297 297.63 82.5997 297.14 82.0797C295.29 80.1497 293.71 78.2697 292.34 76.5897C291.56 75.5897 290.88 74.7397 290.24 73.9097C290.5 72.6897 291.45 67.7797 290.93 65.4197C290.41 63.0597 289.13 60.3197 286.86 59.2797C286.314 59.0114 285.717 58.8651 285.109 58.851C284.501 58.8368 283.897 58.9552 283.34 59.1978C282.782 59.4405 282.284 59.8016 281.88 60.256C281.476 60.7105 281.176 61.2475 281 61.8297C279.86 65.1797 283.64 70.3097 286.17 72.1997C286.39 72.3597 290.1 74.5197 290.12 74.4597C290.14 74.3997 290.12 74.3997 290.12 74.3797C290.71 75.1997 291.35 76.0697 292.12 76.9997C293.46 78.7097 295 80.6297 296.81 82.6097C298.739 84.768 300.792 86.8115 302.96 88.7297C305.377 90.8858 307.981 92.8234 310.74 94.5197H310.85C309.85 94.2797 307 93.6797 306.78 93.6597C303.64 93.3697 297.39 94.6597 296 97.8997C295.784 98.4464 295.685 99.0326 295.71 99.6201C295.735 100.208 295.884 100.783 296.146 101.31C296.408 101.836 296.778 102.301 297.232 102.675C297.686 103.049 298.213 103.323 298.78 103.48C301.13 104.27 304 103.06 305.87 101.69Z" fill="#F5F5F5"/>
<path d="M143.841 389.35C145.701 389.99 148.841 393.06 148.841 393.06C148.841 393.06 146.181 394.55 146.001 394.62C143.911 395.46 139.381 395.85 137.771 393.91C137.515 393.579 137.332 393.199 137.232 392.793C137.132 392.388 137.118 391.966 137.19 391.554C137.263 391.143 137.42 390.751 137.653 390.404C137.885 390.058 138.188 389.763 138.541 389.54C140.071 388.54 142.251 388.8 143.841 389.35Z" fill="#F5F5F5"/>
<path d="M177.429 418.94C177.429 418.94 176.029 421.65 175.919 421.81C174.639 423.66 171.069 426.48 168.659 425.75C168.263 425.615 167.9 425.399 167.593 425.116C167.285 424.833 167.041 424.489 166.874 424.106C166.707 423.723 166.623 423.309 166.625 422.891C166.628 422.473 166.717 422.061 166.889 421.68C167.579 420.04 169.529 419.05 171.159 418.63C173.069 418.14 177.429 418.94 177.429 418.94Z" fill="#F5F5F5"/>
<path d="M153.64 381C155.21 382.07 157.34 385.59 157.51 385.87C159.518 384.645 161.606 383.555 163.76 382.61C165.01 382.06 166.29 381.53 167.57 381.03C166.95 381.17 166.39 381.3 166.31 381.3C164.08 381.56 159.61 380.74 158.56 378.44C158.403 378.054 158.328 377.64 158.34 377.223C158.352 376.807 158.45 376.397 158.629 376.021C158.807 375.645 159.063 375.31 159.378 375.038C159.693 374.765 160.062 374.562 160.46 374.44C162.15 373.87 164.18 374.69 165.57 375.64C166.96 376.59 168.86 379.57 169.34 380.36L170.83 379.78C173.21 378.88 175.59 377.99 177.9 377.05C178.72 376.72 179.51 376.36 180.3 376.05L179.21 376.29C176.97 376.54 172.5 375.72 171.46 373.42C171.303 373.034 171.228 372.62 171.24 372.203C171.252 371.787 171.35 371.377 171.529 371.001C171.707 370.625 171.963 370.29 172.278 370.018C172.593 369.745 172.962 369.542 173.36 369.42C175.04 368.85 177.07 369.68 178.46 370.62C179.85 371.56 181.56 374.26 182.15 375.2C182.94 374.81 183.75 374.42 184.5 374.01C185.01 373.72 185.5 373.47 186.02 373.15L187.5 372.23C188.42 371.62 189.38 370.98 190.26 370.36L192 369C191.19 369.34 189.6 370 189.46 370C187.29 370.59 182.74 370.45 181.37 368.34C181.153 367.982 181.014 367.582 180.96 367.167C180.907 366.751 180.941 366.329 181.061 365.928C181.181 365.527 181.383 365.155 181.655 364.837C181.927 364.518 182.262 364.261 182.64 364.08C184.22 363.27 186.35 363.77 187.87 364.5C189.39 365.23 192.08 368.32 192.4 368.7C193.4 368 194.3 367.3 195.17 366.64C197.7 364.7 199.81 362.96 201.42 361.64L202.66 362.78C200.98 364.14 198.75 365.91 196.06 367.87C195.06 368.59 194.06 369.34 192.93 370.09C193.478 371.237 193.959 372.416 194.37 373.62C196.37 373.681 198.352 374.017 200.26 374.62C200.68 373.5 201.08 372.41 201.43 371.37C202.43 368.42 203.25 365.85 203.83 363.84L205.18 365.08C204.58 366.97 203.8 369.28 202.84 371.88C202.42 373.01 201.95 374.22 201.45 375.46C201.87 375.7 205.26 377.75 206.31 379.28C207.36 380.81 208.1 382.69 207.54 384.38C207.42 384.78 207.218 385.15 206.947 385.468C206.676 385.786 206.341 386.043 205.964 386.224C205.588 386.404 205.178 386.504 204.76 386.518C204.343 386.531 203.927 386.456 203.54 386.3C201.24 385.3 200.39 380.8 200.63 378.56C200.63 378.43 200.96 377.02 201.18 376.13C200.97 376.63 200.78 377.13 200.56 377.64C200.14 378.64 199.68 379.64 199.2 380.76C198.95 381.27 198.7 381.76 198.44 382.32C198.18 382.88 197.87 383.38 197.59 383.91C196.9 385.14 196.15 386.34 195.36 387.54C196.26 387.92 199.42 389.29 200.58 390.54C201.74 391.79 202.86 393.64 202.58 395.4C202.522 395.813 202.378 396.209 202.158 396.563C201.938 396.917 201.646 397.222 201.302 397.457C200.957 397.692 200.568 397.853 200.158 397.93C199.747 398.006 199.326 397.996 198.92 397.9C196.49 397.24 194.97 392.95 194.92 390.7C194.92 390.56 195.02 388.94 195.1 388.05C194.62 388.77 194.1 389.48 193.64 390.19C192.17 392.24 190.64 394.27 189.09 396.3C188.62 396.92 188.16 397.55 187.7 398.17C188.02 398.3 191.81 399.85 193.11 401.23C194.26 402.45 195.39 404.33 195.11 406.08C195.052 406.494 194.908 406.891 194.687 407.246C194.466 407.601 194.174 407.906 193.828 408.142C193.483 408.377 193.092 408.538 192.68 408.613C192.269 408.688 191.847 408.677 191.44 408.58C189.01 407.92 187.5 403.63 187.44 401.38C187.44 401.21 187.59 398.88 187.66 398.29C186.66 399.66 185.66 401.04 184.66 402.44C183.392 404.326 182.243 406.29 181.22 408.32C181.37 408.38 185.34 409.98 186.67 411.39C187.82 412.61 188.95 414.49 188.67 416.25C188.612 416.664 188.468 417.061 188.247 417.416C188.026 417.771 187.734 418.076 187.388 418.312C187.043 418.547 186.652 418.708 186.24 418.783C185.829 418.858 185.407 418.847 185 418.75C182.57 418.08 181.06 413.75 181 411.55C181 411.4 181.11 409.62 181.19 408.78H181.05C180.082 410.852 179.303 413.008 178.72 415.22C178.38 416.43 178.12 417.61 177.9 418.77C178.67 418.99 182.17 420.04 183.51 421.18C184.85 422.32 186.12 424.01 186.02 425.78C186.008 426.197 185.909 426.608 185.729 426.985C185.548 427.363 185.292 427.698 184.974 427.97C184.657 428.242 184.286 428.445 183.886 428.565C183.486 428.686 183.065 428.721 182.65 428.67C180.16 428.28 178.19 424.18 177.84 421.96C177.84 421.84 177.77 420.59 177.74 419.67C177.65 420.2 177.54 420.73 177.47 421.23C177.17 423.12 177.01 424.86 176.88 426.4C176.81 427.28 176.77 428.08 176.74 428.82C177.38 429.44 179.93 431.93 180.58 433.53C181.23 435.13 181.58 437.24 180.69 438.77C180.486 439.134 180.208 439.451 179.874 439.701C179.54 439.951 179.157 440.129 178.751 440.223C178.344 440.318 177.923 440.326 177.513 440.248C177.103 440.17 176.714 440.007 176.37 439.77C174.37 438.28 174.47 433.77 175.19 431.6C175.26 431.41 176.56 428.6 176.59 428.67C176.59 427.95 176.59 427.18 176.68 426.34C176.77 424.79 176.89 423.04 177.15 421.15C177.412 419.103 177.789 417.073 178.28 415.07C178.822 412.822 179.562 410.627 180.49 408.51C180.493 408.486 180.493 408.463 180.49 408.44C180 408.99 178.58 410.49 178.49 410.59C176.76 412.04 172.58 413.82 170.44 412.48C170.093 412.245 169.799 411.941 169.577 411.586C169.355 411.231 169.21 410.834 169.15 410.419C169.091 410.005 169.119 409.583 169.233 409.18C169.346 408.777 169.543 408.402 169.81 408.08C170.91 406.68 173.05 406.25 174.74 406.27C176.63 406.27 180.35 408.06 180.64 408.2C181.623 406.062 182.745 403.99 184 402C184.74 400.84 185.52 399.7 186.31 398.57C185.87 399.03 185.47 399.44 185.41 399.49C183.69 400.94 179.5 402.72 177.41 401.38C177.063 401.145 176.769 400.841 176.547 400.486C176.325 400.131 176.18 399.734 176.12 399.319C176.061 398.905 176.089 398.483 176.203 398.08C176.316 397.677 176.513 397.302 176.78 396.98C177.87 395.58 180.02 395.15 181.7 395.17C183.38 395.19 186.61 396.63 187.45 397.02L188.37 395.73C189.86 393.66 191.37 391.6 192.77 389.54C193.26 388.82 193.77 388.08 194.19 387.35C193.8 387.76 193.47 388.11 193.41 388.15C191.68 389.6 187.5 391.38 185.41 390.04C185.065 389.805 184.772 389.501 184.551 389.147C184.33 388.793 184.185 388.397 184.126 387.984C184.066 387.571 184.094 387.15 184.207 386.748C184.319 386.346 184.515 385.972 184.78 385.65C185.87 384.24 188.02 383.81 189.7 383.83C191.38 383.85 194.29 385.15 195.29 385.61C195.75 384.85 196.2 384.09 196.61 383.33C196.87 382.8 197.16 382.33 197.4 381.77C197.64 381.21 197.89 380.71 198.13 380.19C198.55 379.19 199 378.11 199.39 377.11C199.67 376.41 199.92 375.74 200.17 375.06C199.69 375.79 198.71 377.19 198.61 377.3C197.255 378.743 195.55 379.811 193.66 380.4C193.513 380.562 193.352 380.713 193.18 380.85C192.86 381.118 192.487 381.317 192.085 381.433C191.683 381.549 191.262 381.58 190.847 381.523C190.433 381.467 190.035 381.324 189.679 381.105C189.323 380.886 189.017 380.594 188.78 380.25C187.43 378.12 189.19 373.93 190.62 372.19C190.71 372.09 191.75 371.09 192.42 370.46C191.97 370.77 191.54 371.07 191.07 371.38C190.16 372 189.22 372.59 188.22 373.23L186.72 374.12C186.23 374.43 185.66 374.69 185.13 374.97C183.89 375.62 182.59 376.21 181.27 376.77C181.81 377.58 183.69 380.47 183.98 382.13C184.27 383.79 184.18 385.98 182.98 387.28C182.703 387.593 182.364 387.845 181.984 388.019C181.604 388.193 181.191 388.286 180.773 388.292C180.355 388.298 179.941 388.216 179.556 388.052C179.172 387.888 178.825 387.645 178.54 387.34C176.89 385.44 177.99 381.03 179.15 379.1C179.22 378.98 180.21 377.69 180.76 376.99C179.97 377.33 179.18 377.66 178.36 377.99C176.01 378.89 173.6 379.73 171.2 380.58C170.47 380.83 169.74 381.1 169.01 381.37C169.2 381.65 171.51 385.03 171.83 386.9C172.12 388.55 172.03 390.74 170.83 392.04C170.554 392.352 170.216 392.603 169.837 392.777C169.458 392.952 169.047 393.045 168.631 393.052C168.214 393.058 167.8 392.978 167.416 392.816C167.032 392.653 166.686 392.413 166.4 392.11C164.74 390.21 165.84 385.8 167 383.87C167.08 383.72 168.51 381.87 168.89 381.41C167.28 382 165.68 382.59 164.13 383.25C162.028 384.11 159.987 385.113 158.02 386.25C158.11 386.38 160.53 389.9 160.87 391.81C161.15 393.46 161.06 395.65 159.87 396.95C159.594 397.264 159.255 397.516 158.875 397.691C158.496 397.867 158.084 397.96 157.666 397.967C157.248 397.974 156.833 397.893 156.448 397.73C156.063 397.566 155.716 397.325 155.43 397.02C153.77 395.12 154.87 390.71 156.03 388.78C156.11 388.65 157.19 387.24 157.72 386.58L157.62 386.47C155.669 387.663 153.828 389.029 152.12 390.55C151.17 391.38 150.31 392.22 149.49 393.06C150 393.67 152.34 396.48 152.83 398.16C153.32 399.84 153.45 401.97 152.39 403.39C152.149 403.732 151.84 404.02 151.481 404.236C151.122 404.452 150.722 404.59 150.307 404.642C149.892 404.693 149.47 404.658 149.069 404.537C148.669 404.416 148.298 404.213 147.98 403.94C146.12 402.24 146.73 397.74 147.67 395.69C147.72 395.58 148.37 394.51 148.85 393.69C148.49 394.07 148.1 394.46 147.76 394.84C146.47 396.24 145.38 397.61 144.42 398.84C143.88 399.53 143.42 400.18 142.97 400.78C143.17 401.64 143.92 405.13 143.58 406.78C143.24 408.43 142.38 410.44 140.77 411.21C140.4 411.402 139.994 411.515 139.577 411.541C139.161 411.567 138.744 411.507 138.352 411.363C137.961 411.219 137.604 410.995 137.304 410.705C137.004 410.415 136.768 410.066 136.61 409.68C135.75 407.31 138.37 403.59 140.14 402.21C140.3 402.09 142.91 400.5 142.92 400.54C143.33 399.95 143.78 399.32 144.28 398.65C145.21 397.41 146.28 396.01 147.54 394.58C148.886 393.015 150.322 391.529 151.84 390.13C153.504 388.6 155.297 387.218 157.2 386H157.27C156.56 386.19 154.54 386.66 154.39 386.68C152.15 386.93 147.68 386.11 146.64 383.81C146.483 383.424 146.407 383.011 146.419 382.595C146.43 382.179 146.527 381.77 146.705 381.394C146.883 381.018 147.137 380.683 147.451 380.41C147.765 380.137 148.133 379.933 148.53 379.81C150.22 379.18 152.25 380 153.64 381Z" fill="#F5F5F5"/>
<path d="M204.421 403.65C206.261 402.92 210.681 403.18 210.681 403.18C210.681 403.18 209.621 406.04 209.531 406.18C208.531 408.18 205.301 411.41 202.811 410.98C202.403 410.894 202.017 410.724 201.678 410.481C201.339 410.237 201.055 409.926 200.843 409.566C200.631 409.207 200.497 408.807 200.448 408.393C200.4 407.978 200.438 407.558 200.561 407.16C201.001 405.48 202.861 404.26 204.421 403.65Z" fill="#F5F5F5"/>
<path d="M249.18 404.3C249.18 404.3 249.88 407.3 249.9 407.46C250.13 409.7 249.26 414.16 246.9 415.17C246.512 415.326 246.095 415.4 245.676 415.385C245.258 415.371 244.847 415.269 244.47 415.086C244.093 414.903 243.759 414.644 243.489 414.324C243.218 414.004 243.018 413.632 242.9 413.23C242.35 411.54 243.2 409.51 244.16 408.14C245.35 406.52 249.18 404.3 249.18 404.3Z" fill="#F5F5F5"/>
<path d="M206.411 390.89C208.301 390.69 212.201 391.98 212.511 392.08C213.244 389.843 214.126 387.659 215.151 385.54C215.731 384.31 216.371 383.08 217.011 381.86C216.641 382.37 216.291 382.86 216.241 382.86C214.701 384.5 210.771 386.79 208.491 385.72C208.117 385.53 207.787 385.264 207.523 384.939C207.258 384.615 207.065 384.238 206.954 383.834C206.844 383.43 206.82 383.007 206.883 382.593C206.946 382.179 207.095 381.783 207.321 381.43C208.231 379.91 210.321 379.21 211.981 379.03C213.641 378.85 217.031 379.87 217.921 380.16L218.671 378.76C219.901 376.52 221.131 374.3 222.271 372.08C222.681 371.3 223.041 370.52 223.411 369.73C223.081 370.19 222.791 370.57 222.741 370.62C221.211 372.27 217.271 374.55 214.991 373.48C214.619 373.29 214.29 373.024 214.027 372.701C213.763 372.377 213.57 372.001 213.46 371.598C213.35 371.195 213.325 370.774 213.387 370.361C213.449 369.948 213.597 369.552 213.821 369.2C214.741 367.67 216.821 366.98 218.491 366.8C220.161 366.62 223.211 367.54 224.261 367.88C224.611 367.06 224.971 366.25 225.261 365.44C225.461 364.89 225.691 364.37 225.851 363.8C226.011 363.23 226.211 362.69 226.381 362.14C226.681 361.07 226.991 359.98 227.261 358.93C227.451 358.2 227.611 357.5 227.781 356.8C227.391 357.58 226.591 359.1 226.511 359.22C225.241 361.08 221.701 363.93 219.281 363.22C218.884 363.088 218.519 362.875 218.209 362.594C217.899 362.313 217.652 361.97 217.482 361.588C217.313 361.206 217.225 360.792 217.225 360.374C217.224 359.956 217.312 359.542 217.481 359.16C218.151 357.52 220.101 356.51 221.731 356.08C223.521 355.6 227.411 356.24 227.901 356.32C228.181 355.16 228.441 354.03 228.661 352.96C229.331 349.84 229.801 347.15 230.141 345.06L231.821 345.13C231.441 347.25 230.891 350.04 230.121 353.28C229.841 354.46 229.531 355.72 229.191 357.01C230.352 357.52 231.481 358.101 232.571 358.75C234.137 357.517 235.867 356.507 237.711 355.75C237.301 354.62 236.891 353.54 236.491 352.52C235.351 349.61 234.281 347.14 233.411 345.23L235.251 345.3C236.021 347.13 236.931 349.38 237.881 351.99C238.311 353.12 238.731 354.35 239.161 355.61C239.641 355.53 243.541 354.88 245.331 355.35C246.961 355.78 248.911 356.78 249.591 358.43C249.76 358.812 249.847 359.226 249.847 359.644C249.846 360.062 249.759 360.476 249.589 360.858C249.42 361.24 249.172 361.583 248.862 361.864C248.553 362.145 248.188 362.358 247.791 362.49C245.371 363.21 241.791 360.36 240.561 358.49C240.481 358.38 239.801 357.1 239.391 356.29C239.561 356.8 239.731 357.29 239.901 357.84C240.241 358.89 240.561 359.95 240.901 361.09C241.041 361.65 241.191 362.21 241.331 362.77C241.471 363.33 241.591 363.95 241.721 364.54C241.991 365.91 242.211 367.32 242.391 368.74C243.311 368.44 246.601 367.43 248.281 367.61C249.961 367.79 252.031 368.48 252.951 370.01C253.175 370.362 253.323 370.757 253.386 371.169C253.449 371.582 253.425 372.003 253.316 372.406C253.206 372.809 253.014 373.184 252.752 373.509C252.489 373.833 252.162 374.099 251.791 374.29C249.511 375.37 245.571 373.09 244.041 371.45C243.941 371.34 242.971 370.04 242.451 369.31C242.551 370.17 242.661 371.02 242.741 371.89C242.961 374.4 243.101 376.95 243.261 379.49C243.261 380.27 243.361 381.04 243.411 381.82C243.741 381.71 247.631 380.42 249.511 380.62C251.181 380.8 253.261 381.49 254.181 383.01C254.406 383.362 254.556 383.758 254.62 384.171C254.684 384.585 254.66 385.008 254.551 385.412C254.442 385.816 254.249 386.192 253.986 386.517C253.722 386.843 253.393 387.109 253.021 387.3C250.741 388.37 246.801 386.1 245.261 384.45C245.151 384.33 243.751 382.45 243.421 381.96C243.541 383.67 243.671 385.37 243.871 387.04C244.134 389.296 244.538 391.534 245.081 393.74C245.241 393.69 249.291 392.33 251.211 392.54C252.881 392.71 254.961 393.41 255.881 394.93C256.106 395.282 256.256 395.678 256.32 396.091C256.384 396.505 256.36 396.927 256.251 397.332C256.142 397.736 255.949 398.112 255.686 398.437C255.422 398.763 255.093 399.029 254.721 399.22C252.441 400.29 248.501 398.02 246.971 396.37C246.871 396.26 245.801 394.83 245.311 394.14L245.181 394.2C245.791 396.409 246.601 398.557 247.601 400.62C248.131 401.76 248.701 402.82 249.281 403.84C250.011 403.51 253.361 402.03 255.111 402.03C256.861 402.03 258.941 402.48 260.011 403.9C260.272 404.225 260.463 404.601 260.571 405.004C260.678 405.406 260.701 405.827 260.637 406.24C260.573 406.652 260.424 407.046 260.199 407.397C259.974 407.749 259.678 408.049 259.331 408.28C257.181 409.6 253.021 407.77 251.331 406.28C251.241 406.2 250.331 405.28 249.771 404.61C250.041 405.06 250.311 405.54 250.581 405.97C251.581 407.6 252.581 409.02 253.491 410.28C254.011 410.99 254.491 411.62 254.961 412.21C255.841 412.21 259.401 412.49 260.961 413.28C262.521 414.07 264.141 415.45 264.451 417.2C264.534 417.61 264.53 418.032 264.44 418.441C264.35 418.849 264.176 419.235 263.928 419.572C263.68 419.909 263.365 420.191 263.002 420.399C262.639 420.607 262.237 420.736 261.821 420.78C259.311 420.96 256.451 417.42 255.611 415.33C255.541 415.15 254.731 412.2 254.781 412.2H254.831C254.371 411.65 253.891 411.05 253.381 410.38C252.441 409.14 251.381 407.73 250.381 406.12C249.247 404.398 248.215 402.612 247.291 400.77C246.242 398.71 245.378 396.562 244.711 394.35C244.711 394.35 244.711 394.29 244.711 394.27C244.711 395.01 244.591 397.07 244.561 397.27C244.191 399.49 242.171 403.56 239.681 403.93C239.265 403.977 238.844 403.937 238.444 403.812C238.045 403.687 237.676 403.48 237.362 403.204C237.047 402.928 236.794 402.59 236.618 402.21C236.442 401.83 236.348 401.418 236.341 401C236.261 399.22 237.611 397.49 238.901 396.42C240.361 395.21 244.331 394.13 244.651 394.04C244.026 391.774 243.555 389.469 243.241 387.14C243.051 385.78 242.901 384.41 242.761 383.03C242.761 383.67 242.701 384.24 242.681 384.32C242.311 386.54 240.291 390.61 237.801 390.98C237.376 391.037 236.944 391.002 236.534 390.879C236.124 390.755 235.745 390.545 235.423 390.262C235.101 389.98 234.843 389.632 234.667 389.242C234.49 388.852 234.4 388.428 234.401 388C234.321 386.23 235.671 384.5 236.961 383.42C238.251 382.34 241.641 381.35 242.531 381.1C242.531 380.57 242.441 380.04 242.391 379.51C242.181 376.97 241.981 374.44 241.711 371.96C241.621 371.08 241.491 370.22 241.371 369.37C241.371 369.93 241.311 370.37 241.301 370.48C240.931 372.7 238.911 376.78 236.411 377.14C235.996 377.186 235.576 377.144 235.178 377.019C234.779 376.893 234.412 376.686 234.098 376.41C233.785 376.134 233.533 375.796 233.357 375.417C233.182 375.038 233.088 374.627 233.081 374.21C233.001 372.44 234.351 370.71 235.641 369.64C236.931 368.57 239.991 367.64 241.051 367.35C240.901 366.48 240.751 365.6 240.561 364.76C240.421 364.19 240.321 363.63 240.151 363.06L239.671 361.39C239.331 360.33 238.991 359.24 238.671 358.22C238.431 357.51 238.181 356.84 237.941 356.16C238.041 357.03 238.211 358.74 238.211 358.88C238.111 360.856 237.505 362.775 236.451 364.45C236.451 364.671 236.431 364.892 236.391 365.11C236.321 365.522 236.167 365.916 235.936 366.265C235.705 366.615 235.404 366.912 235.052 367.138C234.7 367.364 234.304 367.514 233.891 367.578C233.477 367.642 233.055 367.619 232.651 367.51C230.241 366.77 228.851 362.44 228.821 360.19C228.821 360.06 228.951 358.62 229.061 357.71C228.911 358.23 228.781 358.71 228.631 359.28C228.341 360.35 228.011 361.41 227.631 362.55C227.451 363.09 227.261 363.64 227.071 364.19C226.881 364.74 226.641 365.31 226.421 365.87C225.891 367.17 225.291 368.46 224.661 369.75C225.591 370.01 228.901 370.98 230.201 372.06C231.501 373.14 232.851 374.85 232.771 376.63C232.765 377.048 232.672 377.46 232.497 377.84C232.322 378.221 232.07 378.56 231.756 378.837C231.443 379.114 231.075 379.322 230.676 379.448C230.277 379.574 229.856 379.616 229.441 379.57C226.941 379.2 224.921 375.14 224.541 372.92C224.541 372.78 224.431 371.15 224.401 370.26C224.011 371.03 223.631 371.8 223.211 372.57C222.011 374.78 220.731 376.99 219.451 379.19L218.301 381.19C218.631 381.28 222.591 382.35 224.041 383.55C225.491 384.75 226.691 386.35 226.621 388.13C226.614 388.548 226.519 388.96 226.343 389.34C226.167 389.72 225.914 390.058 225.599 390.334C225.285 390.61 224.916 390.817 224.517 390.942C224.117 391.067 223.696 391.107 223.281 391.06C220.791 390.7 218.761 386.63 218.391 384.41C218.391 384.24 218.231 381.91 218.231 381.31C217.391 382.8 216.561 384.31 215.801 385.8C214.776 387.829 213.878 389.92 213.111 392.06C213.271 392.06 217.401 393.2 218.891 394.43C220.191 395.51 221.541 397.23 221.461 399.01C221.453 399.427 221.359 399.838 221.184 400.217C221.009 400.596 220.756 400.934 220.443 401.21C220.129 401.486 219.762 401.693 219.364 401.819C218.966 401.944 218.546 401.986 218.131 401.94C215.641 401.58 213.611 397.51 213.231 395.29C213.231 395.15 213.111 393.37 213.091 392.52H212.941C212.237 394.697 211.728 396.932 211.421 399.2C211.231 400.45 211.121 401.65 211.051 402.82C211.841 402.95 215.441 403.56 216.911 404.52C218.381 405.48 219.851 407.01 219.971 408.79C220.01 409.206 219.961 409.627 219.828 410.024C219.695 410.421 219.48 410.785 219.197 411.094C218.915 411.403 218.571 411.65 218.187 411.818C217.804 411.986 217.389 412.071 216.971 412.07C214.451 411.98 211.971 408.16 211.371 406C211.371 405.88 211.131 404.64 210.991 403.74C210.991 404.27 210.921 404.82 210.911 405.32C210.841 407.23 210.911 408.98 210.961 410.53C210.961 411.41 211.061 412.2 211.121 412.94C211.831 413.47 214.671 415.63 215.511 417.14C216.351 418.65 216.981 420.7 216.261 422.33C216.104 422.717 215.869 423.067 215.569 423.358C215.269 423.649 214.912 423.874 214.521 424.019C214.129 424.164 213.712 424.225 213.295 424.199C212.878 424.174 212.471 424.061 212.101 423.87C209.901 422.63 209.481 418.1 209.931 415.87C209.931 415.68 210.931 412.77 210.931 412.79C210.861 412.07 210.791 411.3 210.731 410.47C210.631 408.92 210.531 407.16 210.561 405.25C210.562 403.187 210.686 401.127 210.931 399.08C211.197 396.784 211.663 394.515 212.321 392.3V392.22C211.901 392.83 210.671 394.49 210.561 394.61C209.031 396.26 205.101 398.54 202.821 397.47C202.449 397.28 202.12 397.014 201.857 396.69C201.593 396.367 201.4 395.991 201.29 395.588C201.18 395.185 201.155 394.764 201.217 394.351C201.279 393.938 201.427 393.542 201.651 393.19C202.661 391.77 204.741 391.08 206.411 390.89Z" fill="#F5F5F5"/>
<path d="M434.16 97.2305H154.89C151.095 97.2305 148.02 100.306 148.02 104.1V375.59C148.02 379.385 151.095 382.46 154.89 382.46H434.16C437.954 382.46 441.03 379.385 441.03 375.59V104.1C441.03 100.306 437.954 97.2305 434.16 97.2305Z" fill="white" stroke="#263238" stroke-linecap="round" stroke-linejoin="round"/>
<path d="M434.35 97.2305H154.72C152.944 97.2305 151.242 97.935 149.985 99.1893C148.729 100.444 148.022 102.145 148.02 103.92V115.73H441V103.92C440.997 102.154 440.297 100.46 439.051 99.2069C437.806 97.954 436.116 97.2437 434.35 97.2305Z" fill="#FF725E" stroke="#263238" stroke-linecap="round" stroke-linejoin="round"/>
<path d="M162.079 106.16C162.081 106.706 161.92 107.241 161.618 107.696C161.316 108.151 160.886 108.507 160.382 108.717C159.878 108.928 159.322 108.984 158.786 108.878C158.25 108.773 157.758 108.511 157.371 108.125C156.984 107.74 156.72 107.248 156.612 106.712C156.505 106.177 156.559 105.621 156.768 105.116C156.976 104.611 157.33 104.18 157.784 103.876C158.238 103.572 158.772 103.41 159.319 103.41C160.048 103.413 160.747 103.703 161.264 104.218C161.781 104.733 162.073 105.431 162.079 106.16Z" fill="white" stroke="#263238" stroke-linecap="round" stroke-linejoin="round"/>
<path d="M173.649 106.16C173.651 106.706 173.491 107.241 173.189 107.696C172.887 108.151 172.456 108.507 171.952 108.717C171.448 108.928 170.893 108.984 170.357 108.878C169.821 108.773 169.328 108.511 168.941 108.125C168.554 107.74 168.29 107.248 168.183 106.712C168.075 106.177 168.129 105.621 168.338 105.116C168.547 104.611 168.9 104.18 169.354 103.876C169.809 103.572 170.343 103.41 170.889 103.41C171.619 103.41 172.32 103.7 172.837 104.215C173.354 104.73 173.646 105.43 173.649 106.16Z" fill="white" stroke="#263238" stroke-linecap="round" stroke-linejoin="round"/>
<path d="M185.219 106.16C185.221 106.707 185.061 107.242 184.758 107.697C184.456 108.153 184.025 108.508 183.52 108.718C183.015 108.928 182.46 108.984 181.923 108.878C181.387 108.771 180.894 108.508 180.508 108.122C180.121 107.735 179.858 107.242 179.752 106.706C179.646 106.17 179.701 105.614 179.911 105.109C180.121 104.605 180.477 104.174 180.932 103.871C181.387 103.569 181.922 103.408 182.469 103.41C183.198 103.413 183.896 103.703 184.411 104.219C184.926 104.734 185.217 105.432 185.219 106.16Z" fill="white" stroke="#263238" stroke-linecap="round" stroke-linejoin="round"/>
<path d="M299 149.41V130.68H295.16V128.57H305.16V130.68H301.32V149.41H299Z" fill="#263238"/>
<path d="M306.6 133.6C306.6 130.41 308.18 128.36 311.36 128.36C314.54 128.36 316.16 130.36 316.16 133.6V144.37C316.16 147.53 314.58 149.61 311.36 149.61C308.14 149.61 306.6 147.53 306.6 144.37V133.6ZM308.89 144.49C308.89 146.4 309.7 147.49 311.36 147.49C313.02 147.49 313.83 146.39 313.83 144.49V133.49C313.83 131.61 313.06 130.49 311.36 130.49C309.66 130.49 308.89 131.62 308.89 133.49V144.49Z" fill="#263238"/>
<path d="M323.239 128.57C326.479 128.57 327.969 130.57 327.969 133.75V144.26C327.969 147.44 326.479 149.41 323.239 149.41H318.359V128.57H323.239ZM323.239 147.29C324.909 147.29 325.709 146.29 325.709 144.35V133.63C325.709 131.72 324.909 130.68 323.209 130.68H320.709V147.29H323.239Z" fill="#263238"/>
<path d="M332.46 145.21L331.66 149.41H329.52L333.52 128.57H336.88L340.88 149.41H338.56L337.75 145.21H332.46ZM332.76 143.21H337.41L335.05 131.21L332.76 143.21Z" fill="#263238"/>
<path d="M344.91 141.93L340.5 128.57H342.91L346.16 138.81L349.43 128.57H351.63L347.2 141.93V149.41H344.91V141.93Z" fill="#263238"/>
<path d="M237.599 162.34V162.67C237.657 163.112 237.572 163.562 237.356 163.952C237.14 164.342 236.805 164.654 236.399 164.84C236.81 165.034 237.147 165.354 237.363 165.753C237.579 166.152 237.662 166.61 237.599 167.06V167.84C237.599 168.503 237.336 169.139 236.867 169.608C236.398 170.076 235.762 170.34 235.099 170.34C234.436 170.34 233.8 170.076 233.331 169.608C232.863 169.139 232.599 168.503 232.599 167.84V167.06C232.535 166.608 232.619 166.147 232.839 165.746C233.059 165.346 233.403 165.028 233.819 164.84C233.407 164.661 233.065 164.352 232.844 163.96C232.624 163.568 232.538 163.115 232.599 162.67V162.34C232.599 161.677 232.863 161.041 233.331 160.572C233.8 160.103 234.436 159.84 235.099 159.84C235.762 159.84 236.398 160.103 236.867 160.572C237.336 161.041 237.599 161.677 237.599 162.34ZM233.799 162.34V162.85C233.799 163.85 234.289 164.33 235.119 164.33C235.949 164.33 236.439 163.87 236.439 162.85V162.34C236.439 161.26 235.949 160.77 235.119 160.77C234.289 160.77 233.799 161.29 233.799 162.37V162.34ZM233.799 166.89V167.78C233.799 168.86 234.279 169.37 235.119 169.37C235.959 169.37 236.429 168.86 236.439 167.78V166.89C236.439 165.89 235.989 165.38 235.119 165.38C234.249 165.38 233.799 165.9 233.799 166.92V166.89Z" fill="#263238"/>
<path d="M239.79 163.181V164.641H238.66V163.181H239.79ZM239.79 168.911V170.361H238.66V168.911H239.79Z" fill="#263238"/>
<path d="M240.9 162.39C240.9 160.78 241.7 159.74 243.31 159.74C244.92 159.74 245.72 160.74 245.72 162.39V167.81C245.72 169.42 244.93 170.47 243.31 170.47C241.69 170.47 240.9 169.42 240.9 167.81V162.39ZM242.06 167.88C242.06 168.88 242.46 169.4 243.31 169.4C244.16 169.4 244.55 168.83 244.55 167.88V162.33C244.55 161.33 244.16 160.8 243.31 160.8C242.46 160.8 242.06 161.37 242.06 162.33V167.88Z" fill="#263238"/>
<path d="M246.738 162.39C246.738 160.78 247.538 159.74 249.148 159.74C250.758 159.74 251.558 160.74 251.558 162.39V167.81C251.558 169.42 250.768 170.47 249.148 170.47C247.528 170.47 246.738 169.42 246.738 167.81V162.39ZM247.898 167.88C247.898 168.88 248.298 169.4 249.148 169.4C249.998 169.4 250.388 168.83 250.388 167.88V162.33C250.388 161.33 249.998 160.8 249.148 160.8C248.298 160.8 247.898 161.37 247.898 162.33V167.88Z" fill="#263238"/>
<path d="M263.81 161.76C263.367 162.028 262.866 162.183 262.35 162.21V161.21C262.765 161.221 263.171 161.087 263.5 160.832C263.828 160.577 264.057 160.216 264.15 159.81H265V170.32H263.84L263.81 161.76Z" fill="#263238"/>
<path d="M266.65 162.39C266.65 160.78 267.44 159.74 269.05 159.74C270.66 159.74 271.47 160.74 271.47 162.39V167.81C271.47 169.42 270.67 170.47 269.05 170.47C267.43 170.47 266.65 169.42 266.65 167.81V162.39ZM267.8 167.88C267.8 168.88 268.21 169.4 269.05 169.4C269.89 169.4 270.3 168.83 270.3 167.88V162.33C270.3 161.33 269.91 160.8 269.05 160.8C268.19 160.8 267.8 161.37 267.8 162.33V167.88Z" fill="#263238"/>
<path d="M273.698 163.181V164.641H272.578V163.181H273.698ZM273.698 168.911V170.361H272.578V168.911H273.698Z" fill="#263238"/>
<path d="M274.82 162.39C274.82 160.78 275.61 159.74 277.22 159.74C278.83 159.74 279.64 160.74 279.64 162.39V167.81C279.64 169.42 278.84 170.47 277.22 170.47C275.6 170.47 274.82 169.42 274.82 167.81V162.39ZM275.97 167.88C275.97 168.88 276.38 169.4 277.22 169.4C278.06 169.4 278.47 168.83 278.47 167.88V162.33C278.47 161.33 278.07 160.8 277.22 160.8C276.37 160.8 275.97 161.37 275.97 162.33V167.88Z" fill="#263238"/>
<path d="M280.66 162.39C280.66 160.78 281.45 159.74 283.06 159.74C284.67 159.74 285.48 160.74 285.48 162.39V167.81C285.48 169.42 284.68 170.47 283.06 170.47C281.44 170.47 280.66 169.42 280.66 167.81V162.39ZM281.81 167.88C281.81 168.88 282.22 169.4 283.06 169.4C283.9 169.4 284.31 168.83 284.31 167.88V162.33C284.31 161.33 283.92 160.8 283.06 160.8C282.2 160.8 281.81 161.37 281.81 162.33V167.88Z" fill="#263238"/>
<path d="M298.47 161.76C298.028 162.028 297.526 162.183 297.01 162.21V161.21C297.425 161.221 297.832 161.087 298.16 160.832C298.488 160.577 298.718 160.216 298.81 159.81H299.63V170.32H298.47V161.76Z" fill="#263238"/>
<path d="M306.13 162.4C306.13 165.57 302.57 166.71 302.55 169.13V169.3H306V170.36H301.4V169.46C301.4 166.07 304.96 165.41 304.96 162.46C304.96 161.38 304.6 160.81 303.72 160.81C302.84 160.81 302.49 161.42 302.49 162.35V163.28H301.4V162.43C301.4 160.82 302.13 159.75 303.76 159.75C305.39 159.75 306.13 160.8 306.13 162.4Z" fill="#263238"/>
<path d="M308.341 163.181V164.641H307.211V163.181H308.341ZM308.341 168.911V170.361H307.211V168.911H308.341Z" fill="#263238"/>
<path d="M309.449 162.39C309.449 160.78 310.239 159.74 311.849 159.74C313.459 159.74 314.269 160.74 314.269 162.39V167.81C314.269 169.42 313.469 170.47 311.849 170.47C310.229 170.47 309.449 169.42 309.449 167.81V162.39ZM310.599 167.88C310.599 168.88 311.009 169.4 311.849 169.4C312.689 169.4 313.099 168.83 313.099 167.88V162.33C313.099 161.33 312.699 160.8 311.849 160.8C310.999 160.8 310.599 161.37 310.599 162.33V167.88Z" fill="#263238"/>
<path d="M315.289 162.39C315.289 160.78 316.079 159.74 317.689 159.74C319.299 159.74 320.109 160.74 320.109 162.39V167.81C320.109 169.42 319.309 170.47 317.689 170.47C316.069 170.47 315.289 169.42 315.289 167.81V162.39ZM316.439 167.88C316.439 168.88 316.849 169.4 317.689 169.4C318.529 169.4 318.939 168.83 318.939 167.88V162.33C318.939 161.33 318.549 160.8 317.689 160.8C316.829 160.8 316.439 161.37 316.439 162.33V167.88Z" fill="#263238"/>
<path d="M337 162.4C337 165.57 333.44 166.71 333.42 169.13V169.3H336.88V170.36H332.27V169.46C332.27 166.07 335.82 165.41 335.82 162.46C335.82 161.38 335.46 160.81 334.59 160.81C333.72 160.81 333.36 161.42 333.36 162.35V163.28H332.27V162.43C332.27 160.82 333 159.75 334.62 159.75C336.24 159.75 337 160.8 337 162.4Z" fill="#263238"/>
<path d="M339.198 163.181V164.641H338.078V163.181H339.198ZM339.198 168.911V170.361H338.078V168.911H339.198Z" fill="#263238"/>
<path d="M340.309 162.39C340.309 160.78 341.109 159.74 342.719 159.74C344.329 159.74 345.129 160.74 345.129 162.39V167.81C345.129 169.42 344.339 170.47 342.719 170.47C341.099 170.47 340.309 169.42 340.309 167.81V162.39ZM341.469 167.88C341.469 168.88 341.879 169.4 342.719 169.4C343.559 169.4 343.959 168.83 343.959 167.88V162.33C343.959 161.33 343.569 160.8 342.719 160.8C341.869 160.8 341.469 161.37 341.469 162.33V167.88Z" fill="#263238"/>
<path d="M346.15 162.39C346.15 160.78 346.95 159.74 348.56 159.74C350.17 159.74 350.98 160.74 350.98 162.39V167.81C350.98 169.42 350.18 170.47 348.56 170.47C346.94 170.47 346.15 169.42 346.15 167.81V162.39ZM347.31 167.88C347.31 168.88 347.72 169.4 348.56 169.4C349.4 169.4 349.8 168.83 349.8 167.88V162.33C349.8 161.33 349.41 160.8 348.56 160.8C347.71 160.8 347.31 161.37 347.31 162.33V167.88Z" fill="#263238"/>
<path d="M369.909 168.241V170.361H368.759V168.241H365.369V167.181L368.629 159.851H369.909V167.181H370.749V168.241H369.909ZM366.449 167.181H368.759V162.001L366.449 167.181Z" fill="#263238"/>
<path d="M372.77 163.18V164.64H371.65V163.18H372.77ZM372.77 168.91V170.36H371.65V168.91H372.77Z" fill="#263238"/>
<path d="M373.879 162.39C373.879 160.78 374.679 159.74 376.289 159.74C377.899 159.74 378.699 160.74 378.699 162.39V167.81C378.699 169.42 377.909 170.47 376.289 170.47C374.669 170.47 373.879 169.42 373.879 167.81V162.39ZM375.039 167.88C375.039 168.88 375.449 169.4 376.289 169.4C377.129 169.4 377.529 168.83 377.529 167.88V162.33C377.529 161.33 377.139 160.8 376.289 160.8C375.439 160.8 375.039 161.37 375.039 162.33V167.88Z" fill="#263238"/>
<path d="M379.73 162.39C379.73 160.78 380.52 159.74 382.13 159.74C383.74 159.74 384.55 160.74 384.55 162.39V167.81C384.55 169.42 383.75 170.47 382.13 170.47C380.51 170.47 379.73 169.42 379.73 167.81V162.39ZM380.88 167.88C380.88 168.88 381.29 169.4 382.13 169.4C382.97 169.4 383.38 168.83 383.38 167.88V162.33C383.38 161.33 382.98 160.8 382.13 160.8C381.28 160.8 380.88 161.37 380.88 162.33V167.88Z" fill="#263238"/>
<path d="M405.659 162.37V162.57H404.559V162.3C404.559 161.3 404.169 160.8 403.319 160.8C402.469 160.8 402.039 161.37 402.039 162.49V164.85C402.161 164.502 402.392 164.204 402.699 164C403.006 163.796 403.371 163.697 403.739 163.72C405.089 163.72 405.689 164.72 405.689 166.22V167.81C405.689 169.42 404.889 170.47 403.279 170.47C401.669 170.47 400.869 169.42 400.869 167.81V162.45C400.869 160.78 401.619 159.74 403.279 159.74C404.939 159.74 405.659 160.77 405.659 162.37ZM401.999 166.31V167.88C401.999 168.88 402.389 169.4 403.239 169.4C404.089 169.4 404.489 168.83 404.489 167.88V166.31C404.489 165.36 404.089 164.79 403.239 164.79C402.389 164.79 401.999 165.36 401.999 166.31Z" fill="#263238"/>
<path d="M407.909 163.181V164.641H406.779V163.181H407.909ZM407.909 168.911V170.361H406.779V168.911H407.909Z" fill="#263238"/>
<path d="M409 162.39C409 160.78 409.8 159.74 411.4 159.74C413 159.74 413.82 160.74 413.82 162.39V167.81C413.82 169.42 413.03 170.47 411.4 170.47C409.77 170.47 409 169.42 409 167.81V162.39ZM410.16 167.88C410.16 168.88 410.56 169.4 411.4 169.4C412.24 169.4 412.65 168.83 412.65 167.88V162.33C412.65 161.33 412.26 160.8 411.4 160.8C410.54 160.8 410.16 161.37 410.16 162.33V167.88Z" fill="#263238"/>
<path d="M414.859 162.39C414.859 160.78 415.659 159.74 417.269 159.74C418.879 159.74 419.679 160.74 419.679 162.39V167.81C419.679 169.42 418.889 170.47 417.269 170.47C415.649 170.47 414.859 169.42 414.859 167.81V162.39ZM416.019 167.88C416.019 168.88 416.419 169.4 417.269 169.4C418.119 169.4 418.509 168.83 418.509 167.88V162.33C418.509 161.33 418.119 160.8 417.269 160.8C416.419 160.8 416.019 161.37 416.019 162.33V167.88Z" fill="#263238"/>
<path d="M259.508 287.551H227.488V317.721H259.508V287.551Z" stroke="#ADADAD" stroke-miterlimit="10"/>
<path d="M292.459 287.551H260.439V317.721H292.459V287.551Z" stroke="#ADADAD" stroke-miterlimit="10"/>
<path d="M325.409 287.551H293.389V317.721H325.409V287.551Z" stroke="#ADADAD" stroke-miterlimit="10"/>
<path d="M358.37 287.551H326.35V317.721H358.37V287.551Z" stroke="#ADADAD" stroke-miterlimit="10"/>
<path d="M391.321 287.551H359.301V317.721H391.321V287.551Z" stroke="#ADADAD" stroke-miterlimit="10"/>
<path d="M424.409 287.551H392.389V317.721H424.409V287.551Z" stroke="#ADADAD" stroke-miterlimit="10"/>
<path d="M161.65 176.7H213.5" stroke="#ADADAD" stroke-miterlimit="10"/>
<path d="M161.65 182.39H213.5" stroke="#ADADAD" stroke-miterlimit="10"/>
<path d="M161.65 188.07H213.5" stroke="#ADADAD" stroke-miterlimit="10"/>
<path d="M161.65 193.75H213.5" stroke="#ADADAD" stroke-miterlimit="10"/>
<path d="M161.65 199.43H213.5" stroke="#ADADAD" stroke-miterlimit="10"/>
<path d="M161.65 205.12H213.5" stroke="#ADADAD" stroke-miterlimit="10"/>
<path d="M161.65 210.801H213.5" stroke="#ADADAD" stroke-miterlimit="10"/>
<path d="M161.65 216.48H213.5" stroke="#ADADAD" stroke-miterlimit="10"/>
<path d="M161.65 303.261H213.5" stroke="#ADADAD" stroke-miterlimit="10"/>
<path d="M161.65 308.94H213.5" stroke="#ADADAD" stroke-miterlimit="10"/>
<path d="M161.65 314.62H213.5" stroke="#ADADAD" stroke-miterlimit="10"/>
<path d="M161.65 320.301H213.5" stroke="#ADADAD" stroke-miterlimit="10"/>
<path d="M161.65 325.99H213.5" stroke="#ADADAD" stroke-miterlimit="10"/>
<path d="M161.65 331.671H213.5" stroke="#ADADAD" stroke-miterlimit="10"/>
<path d="M161.65 337.35H213.5" stroke="#ADADAD" stroke-miterlimit="10"/>
<path d="M161.65 343.03H213.5" stroke="#ADADAD" stroke-miterlimit="10"/>
<path d="M259.508 176.73H227.488V206.9H259.508V176.73Z" stroke="#ADADAD" stroke-miterlimit="10"/>
<path d="M292.459 176.73H260.439V206.9H292.459V176.73Z" fill="#FF725E" stroke="#ADADAD" stroke-miterlimit="10"/>
<path d="M325.409 176.73H293.389V206.9H325.409V176.73Z" fill="#FF725E" stroke="#ADADAD" stroke-miterlimit="10"/>
<path d="M358.37 176.73H326.35V206.9H358.37V176.73Z" stroke="#ADADAD" stroke-miterlimit="10"/>
<path d="M391.321 176.73H359.301V206.9H391.321V176.73Z" stroke="#ADADAD" stroke-miterlimit="10"/>
<path d="M424.409 176.73H392.389V206.9H424.409V176.73Z" stroke="#ADADAD" stroke-miterlimit="10"/>
<path d="M266.059 185.33H288.449" stroke="#ADADAD" stroke-miterlimit="10"/>
<path d="M266.059 188.74H288.449" stroke="#ADADAD" stroke-miterlimit="10"/>
<path d="M266.059 192.15H288.449" stroke="#ADADAD" stroke-miterlimit="10"/>
<path d="M266.059 195.551H288.449" stroke="#ADADAD" stroke-miterlimit="10"/>
<path d="M266.059 198.961H288.449" stroke="#ADADAD" stroke-miterlimit="10"/>
<path d="M259.508 213.641H227.488V243.811H259.508V213.641Z" stroke="#ADADAD" stroke-miterlimit="10"/>
<path d="M292.459 213.64H260.439V243.81H292.459V213.64Z" fill="#FF725E" stroke="#ADADAD" stroke-miterlimit="10"/>
<path d="M325.409 213.64H293.389V243.81H325.409V213.64Z" stroke="#ADADAD" stroke-miterlimit="10"/>
<path d="M358.37 213.64H326.35V243.81H358.37V213.64Z" stroke="#ADADAD" stroke-miterlimit="10"/>
<path d="M391.321 213.641H359.301V243.811H391.321V213.641Z" stroke="#ADADAD" stroke-miterlimit="10"/>
<path d="M424.409 213.64H392.389V243.81H424.409V213.64Z" stroke="#ADADAD" stroke-miterlimit="10"/>
<path d="M266.059 221.841H288.449" stroke="#ADADAD" stroke-miterlimit="10"/>
<path d="M266.059 225.24H288.449" stroke="#ADADAD" stroke-miterlimit="10"/>
<path d="M266.059 228.65H288.449" stroke="#ADADAD" stroke-miterlimit="10"/>
<path d="M266.059 232.06H288.449" stroke="#ADADAD" stroke-miterlimit="10"/>
<path d="M266.059 235.471H288.449" stroke="#ADADAD" stroke-miterlimit="10"/>
<path d="M259.508 250.541H227.488V280.711H259.508V250.541Z" stroke="#ADADAD" stroke-miterlimit="10"/>
<path d="M292.459 250.54H260.439V280.71H292.459V250.54Z" stroke="#ADADAD" stroke-miterlimit="10"/>
<path d="M325.409 250.54H293.389V280.71H325.409V250.54Z" stroke="#ADADAD" stroke-miterlimit="10"/>
<path d="M358.37 250.54H326.35V280.71H358.37V250.54Z" stroke="#ADADAD" stroke-miterlimit="10"/>
<path d="M391.321 250.541H359.301V280.711H391.321V250.541Z" fill="#FF725E" stroke="#ADADAD" stroke-miterlimit="10"/>
<path d="M424.409 250.54H392.389V280.71H424.409V250.54Z" stroke="#ADADAD" stroke-miterlimit="10"/>
<path d="M365.35 258.83H387.74" stroke="#ADADAD" stroke-miterlimit="10"/>
<path d="M365.35 262.24H387.74" stroke="#ADADAD" stroke-miterlimit="10"/>
<path d="M365.35 265.64H387.74" stroke="#ADADAD" stroke-miterlimit="10"/>
<path d="M365.35 269.051H387.74" stroke="#ADADAD" stroke-miterlimit="10"/>
<path d="M365.35 272.461H387.74" stroke="#ADADAD" stroke-miterlimit="10"/>
<path d="M259.508 324.551H227.488V354.721H259.508V324.551Z" stroke="#ADADAD" stroke-miterlimit="10"/>
<path d="M292.459 324.551H260.439V354.721H292.459V324.551Z" stroke="#ADADAD" stroke-miterlimit="10"/>
<path d="M325.409 324.551H293.389V354.721H325.409V324.551Z" fill="#FF725E" stroke="#ADADAD" stroke-miterlimit="10"/>
<path d="M358.37 324.551H326.35V354.721H358.37V324.551Z" fill="#FF725E" stroke="#ADADAD" stroke-miterlimit="10"/>
<path d="M391.321 324.551H359.301V354.721H391.321V324.551Z" fill="#FF725E" stroke="#ADADAD" stroke-miterlimit="10"/>
<path d="M424.409 324.551H392.389V354.721H424.409V324.551Z" stroke="#ADADAD" stroke-miterlimit="10"/>
<path d="M298.67 332.811H321.06" stroke="#ADADAD" stroke-miterlimit="10"/>
<path d="M298.67 336.221H321.06" stroke="#ADADAD" stroke-miterlimit="10"/>
<path d="M298.67 339.631H321.06" stroke="#ADADAD" stroke-miterlimit="10"/>
<path d="M298.67 343.03H321.06" stroke="#ADADAD" stroke-miterlimit="10"/>
<path d="M298.67 346.44H321.06" stroke="#ADADAD" stroke-miterlimit="10"/>
<path d="M331.279 332.81H353.669" stroke="#ADADAD" stroke-miterlimit="10"/>
<path d="M331.279 336.221H353.669" stroke="#ADADAD" stroke-miterlimit="10"/>
<path d="M331.279 339.631H353.669" stroke="#ADADAD" stroke-miterlimit="10"/>
<path d="M331.279 343.03H353.669" stroke="#ADADAD" stroke-miterlimit="10"/>
<path d="M331.279 346.44H353.669" stroke="#ADADAD" stroke-miterlimit="10"/>
<path d="M363.889 332.81H386.279" stroke="#ADADAD" stroke-miterlimit="10"/>
<path d="M363.891 336.221H386.281" stroke="#ADADAD" stroke-miterlimit="10"/>
<path d="M363.889 339.631H386.279" stroke="#ADADAD" stroke-miterlimit="10"/>
<path d="M363.889 343.03H386.279" stroke="#ADADAD" stroke-miterlimit="10"/>
<path d="M363.889 346.44H386.279" stroke="#ADADAD" stroke-miterlimit="10"/>
<path d="M466.62 113.55C475.68 106.84 487.62 107.55 494.79 112.04C501.96 116.53 504.18 124.61 506.19 130.14C510.19 141.14 518.78 147.68 528.08 154.03C537.08 160.2 548.77 169.24 542.6 181.57C539.81 187.16 536.32 191 541.6 200.08C546.88 209.16 552.43 213.36 548.6 222.08C544.77 230.8 539.87 244.44 519.26 239.55C498.65 234.66 492.36 211.25 490.26 202.55C488.16 193.85 478.07 190.28 470.7 184.03C463.33 177.78 464.06 167.96 466.16 161.68C467.76 156.86 469.56 150 464.05 144.54L463.33 144.76C463.33 144.76 452.26 139.76 450.42 136.71C448.58 133.66 457.57 120.25 466.62 113.55Z" fill="#263238" stroke="#263238" stroke-linecap="round" stroke-linejoin="round"/>
<path d="M450.5 172.51C450.5 172.51 428.94 189.16 423.32 192.67C417.7 196.18 404.09 202.75 401.05 205.1C398.01 207.45 402.69 217.52 409.25 221.27C415.81 225.02 421.91 220.8 425.42 218.92C428.93 217.04 452.42 201.81 452.42 201.81L450.5 172.51Z" fill="#FF725E" stroke="#263238" stroke-linecap="round" stroke-linejoin="round"/>
<path d="M445.69 182.42L449.35 203.41L441.02 186.75" stroke="#263238" stroke-linecap="round" stroke-linejoin="round"/>
<path d="M443.26 282C443.26 282 448.88 282.23 455.26 276.37C461.64 270.51 463.26 267.93 463.26 267.93C463.26 267.93 466.5 235.33 466.5 232.28C466.5 229.23 463.88 214 461.5 206.5C459.12 199 454.7 207.91 454.7 207.91C454.7 207.91 449.31 260.41 448.37 265.57C447.43 270.73 443.26 282 443.26 282Z" fill="#787878" stroke="#263238" stroke-linecap="round" stroke-linejoin="round"/>
<path d="M462.08 339.53C462.08 339.53 468.48 355.45 468.73 363.14C468.98 370.83 467.4 382.43 473.33 395.44C479.26 408.45 484.82 427.52 485.75 433.35C486.68 439.18 481.35 455.14 478.59 460.35C475.83 465.56 476.91 465.17 479.84 465.07C482.029 465.075 484.181 464.501 486.077 463.407C487.974 462.313 489.548 460.738 490.64 458.84C493.76 453.6 492.56 450.34 494.64 448.44L496.78 446.53L498.62 457.84L501.18 457.39L498.85 442.8C498.85 442.8 499.11 439.49 497.6 438.07C496.09 436.65 493.74 432.33 493.74 432.33C493.74 432.33 491.22 411.88 491.85 397.92C492.48 383.96 492.92 375.15 491.26 369.34C489.6 363.53 489.54 361.69 489.34 355.83C489.14 349.97 489.28 343 489.25 341.9C489.22 340.8 462.08 339.53 462.08 339.53Z" fill="white"/>
<path opacity="0.2" d="M489.301 341.92C489.301 342.72 489.301 346.68 489.301 351.04C486.111 351.7 478.301 352.58 465.631 349.42C463.891 344.04 462.081 339.53 462.081 339.53C462.081 339.53 489.261 340.82 489.301 341.92Z" fill="black"/>
<path d="M462.08 339.53C462.08 339.53 468.48 355.45 468.73 363.14C468.98 370.83 467.4 382.43 473.33 395.44C479.26 408.45 484.82 427.52 485.75 433.35C486.68 439.18 481.35 455.14 478.59 460.35C475.83 465.56 476.91 465.17 479.84 465.07C482.029 465.075 484.181 464.501 486.077 463.407C487.974 462.313 489.548 460.738 490.64 458.84C493.76 453.6 492.56 450.34 494.64 448.44L496.78 446.53L498.62 457.84L501.18 457.39L498.85 442.8C498.85 442.8 499.11 439.49 497.6 438.07C496.09 436.65 493.74 432.33 493.74 432.33C493.74 432.33 491.22 411.88 491.85 397.92C492.48 383.96 492.92 375.15 491.26 369.34C489.6 363.53 489.54 361.69 489.34 355.83C489.14 349.97 489.28 343 489.25 341.9C489.22 340.8 462.08 339.53 462.08 339.53Z" stroke="#263238" stroke-linecap="round" stroke-linejoin="round"/>
<path d="M478.59 460.37L478.88 459.79C485.16 461.67 487.88 455.33 491.13 447.79C492.683 444.169 494.766 440.799 497.31 437.79C497.43 437.91 497.54 438.03 497.65 438.13C499.16 439.55 498.9 442.86 498.9 442.86L501.23 457.45L498.67 457.9L496.83 446.59L494.69 448.5C492.56 450.4 493.76 453.66 490.69 458.9C489.598 460.798 488.025 462.373 486.128 463.467C484.232 464.561 482.08 465.135 479.89 465.13C476.91 465.19 475.83 465.59 478.59 460.37Z" fill="#FF725E" stroke="#263238" stroke-linecap="round" stroke-linejoin="round"/>
<path d="M501.75 451.16L501.37 464.39L499.54 464.45L498.56 454.56L501.75 451.16Z" fill="#FF725E" stroke="#263238" stroke-linecap="round" stroke-linejoin="round"/>
<path d="M512.24 337.12C512.24 337.12 508.14 346.05 511.53 359.88C514.92 373.71 511.62 395.45 506.53 409.19C501.44 422.93 501.91 435.38 501.27 438.33C500.63 441.28 501.93 447.11 501.7 451.16C501.47 455.21 494.7 462.03 493.34 464.27C491.98 466.51 481.69 466.86 479.12 466.95C476.55 467.04 476.12 464.48 477.9 463.32C479.68 462.16 483.51 455.43 483.51 455.43C483.51 455.43 489.3 442.43 489.89 437.98C490.48 433.53 492.54 407.45 491.62 401.98C490.7 396.51 487.49 366.18 486.49 358.15C485.49 350.12 484.74 338.77 484.74 338.77L512.24 337.12Z" fill="white"/>
<path opacity="0.2" d="M485.678 350.06C485.138 344.11 484.788 338.77 484.788 338.77L512.238 337.12C511.014 340.269 510.337 343.603 510.238 346.98C505.718 348.59 497.678 350.5 485.678 350.06Z" fill="black"/>
<path d="M512.24 337.12C512.24 337.12 508.14 346.05 511.53 359.88C514.92 373.71 511.62 395.45 506.53 409.19C501.44 422.93 501.91 435.38 501.27 438.33C500.63 441.28 501.93 447.11 501.7 451.16C501.47 455.21 494.7 462.03 493.34 464.27C491.98 466.51 481.69 466.86 479.12 466.95C476.55 467.04 476.12 464.48 477.9 463.32C479.68 462.16 483.51 455.43 483.51 455.43C483.51 455.43 489.3 442.43 489.89 437.98C490.48 433.53 492.54 407.45 491.62 401.98C490.7 396.51 487.49 366.18 486.49 358.15C485.49 350.12 484.74 338.77 484.74 338.77L512.24 337.12Z" stroke="#263238" stroke-linecap="round" stroke-linejoin="round"/>
<path d="M477.949 463.32C478.748 462.665 479.443 461.893 480.009 461.03C484.929 460.79 490.849 460.23 492.819 458.42C495.129 456.31 500.609 446.26 501.419 444.76C501.681 446.883 501.791 449.021 501.749 451.16C501.519 455.16 494.749 462.03 493.389 464.27C492.029 466.51 481.739 466.86 479.169 466.95C476.599 467.04 476.159 464.48 477.949 463.32Z" fill="#FF725E" stroke="#263238" stroke-linecap="round" stroke-linejoin="round"/>
<path d="M516.86 236.5C516.86 236.5 529.51 274.5 528.58 290.88C527.65 307.26 518.26 339.64 518.26 339.64C518.26 339.64 497.17 345.26 482.17 345.26C472.609 345.138 463.123 343.557 454.04 340.57C454.04 340.57 446.54 287.57 449.82 268.85C451.885 257.421 456.361 246.564 462.95 237L516.86 236.5Z" fill="#263238" stroke="#263238" stroke-linecap="round" stroke-linejoin="round"/>
<path d="M506.07 171.111C506.07 171.111 493.89 165.721 487.79 165.721C481.69 165.721 468.34 176.031 466.23 177.911C464.12 179.791 456.62 201.111 455.45 206.971C454.28 212.831 462.95 238.611 462.95 238.611C462.95 238.611 478.65 241.891 490.37 241.431C502.09 240.971 507.25 239.551 507.25 239.551C507.25 239.551 511.93 216.111 514.25 202.281C516.57 188.451 519.17 179.281 517.06 175.801C514.95 172.321 506.07 171.111 506.07 171.111Z" fill="white"/>
<path opacity="0.3" d="M462.951 238.61C462.951 238.61 454.271 212.83 455.451 206.97C456.631 201.11 464.121 179.78 466.231 177.91C466.871 177.33 468.571 175.97 470.791 174.36L472.301 176.55C472.301 176.55 464.501 199 464.241 207.71C463.991 215.84 471.241 237.41 472.241 240.19C466.841 239.43 462.951 238.61 462.951 238.61Z" fill="black"/>
<path d="M506.07 171.111C506.07 171.111 493.89 165.721 487.79 165.721C481.69 165.721 468.34 176.031 466.23 177.911C464.12 179.791 456.62 201.111 455.45 206.971C454.28 212.831 462.95 238.611 462.95 238.611C462.95 238.611 478.65 241.891 490.37 241.431C502.09 240.971 507.25 239.551 507.25 239.551C507.25 239.551 511.93 216.111 514.25 202.281C516.57 188.451 519.17 179.281 517.06 175.801C514.95 172.321 506.07 171.111 506.07 171.111Z" stroke="#263238" stroke-linecap="round" stroke-linejoin="round"/>
<path d="M476.779 169.23C476.779 169.23 464.589 191.03 461.069 204.63C457.549 218.23 451.699 275.18 449.119 277.76C447.372 279.433 445.399 280.853 443.259 281.98C443.259 281.98 450.259 243.54 450.259 232.05C450.259 220.56 448.379 175.56 449.559 172.98C450.739 170.4 454.709 171.81 462.919 170.87C471.129 169.93 476.779 169.23 476.779 169.23Z" fill="#FF725E" stroke="#263238" stroke-linecap="round" stroke-linejoin="round"/>
<path d="M496.81 164.521L535.81 179.311C535.81 179.311 534.41 224.781 533.94 230.641C533.47 236.501 531.12 239.551 527.84 241.891C524.56 244.23 523.39 241.43 523.39 241.43C523.39 241.43 529.95 266.04 533.94 274.43C537.93 282.82 535.81 283.34 535.81 283.34C535.81 283.34 520.58 289.901 509.56 286.391C498.54 282.881 495.26 274.9 495.26 274.9L501.39 203.001C501.39 203.001 501.39 182.37 500.22 177.68C499.05 172.99 496.81 164.521 496.81 164.521Z" fill="#FF725E" stroke="#263238" stroke-linecap="round" stroke-linejoin="round"/>
<path d="M524.301 253.711C524.301 253.711 512.641 254.041 505.651 251.381V255.711C510.838 256.41 516.067 256.745 521.301 256.711" stroke="#263238" stroke-linecap="round" stroke-linejoin="round"/>
<path d="M527.629 179.42C527.629 179.42 517.299 186.42 513.969 197.42" stroke="#263238" stroke-linecap="round" stroke-linejoin="round"/>
<path d="M496.809 164.52C497.853 165.375 498.808 166.333 499.659 167.38C500.999 169.05 504.659 176.77 506.869 179.11C509.079 181.45 507.869 181.96 507.029 181.8C506.189 181.64 498.149 178.8 496.639 178.11C495.379 177.592 494.09 177.145 492.779 176.77L480.709 188.67L477.349 176.6C477.349 176.6 464.779 177.6 463.269 177.77C461.759 177.94 460.589 177.1 461.759 177.1C462.929 177.1 472.659 172.24 473.999 171.57C475.339 170.9 477.189 166.87 481.209 164.19C485.229 161.51 493.949 160.67 496.809 164.52Z" fill="white" stroke="#263238" stroke-linecap="round" stroke-linejoin="round"/>
<path d="M479.87 168.55L480.71 188.67C480.71 188.67 492.95 173.24 494.5 171.4C495.565 169.829 496.306 168.061 496.68 166.2L495.34 148.76C495.34 148.76 487.46 161.51 485.44 162.85C483.42 164.19 480.04 166.87 479.87 168.55Z" fill="white" stroke="#263238" stroke-linecap="round" stroke-linejoin="round"/>
<path d="M485.401 162.85C487.401 161.51 495.301 148.76 495.301 148.76L496.301 161.82C494.761 164.93 482.931 171.89 480.961 172.21C480.654 172.267 480.343 172.3 480.031 172.31L479.871 168.55C480.041 166.87 483.391 164.19 485.401 162.85Z" fill="#263238" stroke="#263238" stroke-linecap="round" stroke-linejoin="round"/>
<path d="M465.45 127.63C465.45 127.63 483.39 138.2 488.76 140.71L491.76 141.55C491.76 141.55 495.62 136.02 497.47 137.19C499.32 138.36 500.32 141.38 499.31 144.07C498.413 145.959 497.033 147.577 495.31 148.76C495.31 148.76 495.14 156.81 493.96 159.83C492.78 162.85 480.5 170.06 478.5 170.39C476.5 170.72 474.64 170.39 473.63 168.55C472.62 166.71 466.26 159.16 463.41 148.76C460.56 138.36 462.26 129.31 465.45 127.63Z" fill="white" stroke="#263238" stroke-linecap="round" stroke-linejoin="round"/>
<path d="M469.47 144.57L468.97 154.3L474.34 153.12" stroke="#263238" stroke-linecap="round" stroke-linejoin="round"/>
<path d="M481.039 154.301C481.039 154.301 479.869 155.801 475.039 157.481" stroke="#263238" stroke-linecap="round" stroke-linejoin="round"/>
<path d="M481.879 143.4C481.879 143.4 480.539 146.25 475.679 145.24" stroke="#263238" stroke-linecap="round" stroke-linejoin="round"/>
<path d="M467.629 147.25C467.271 147.826 466.724 148.259 466.082 148.474C465.439 148.69 464.741 148.674 464.109 148.43" stroke="#263238" stroke-linecap="round" stroke-linejoin="round"/>
<path d="M480.5 138.7C479.254 138.17 477.914 137.896 476.56 137.896C475.206 137.896 473.866 138.17 472.62 138.7" stroke="#263238" stroke-linecap="round" stroke-linejoin="round"/>
<path d="M462.769 142.56C463.439 140.71 466.449 140.04 466.449 140.04" stroke="#263238" stroke-linecap="round" stroke-linejoin="round"/>
<path d="M432.269 215.2L447.269 218.57C447.269 218.57 465.879 217.76 467.269 218.3C468.659 218.84 467.399 224.37 467.399 224.37C469.419 224.517 471.448 224.517 473.469 224.37C475.759 224.1 476.839 224.51 476.299 225.99C475.759 227.47 473.469 228.82 471.299 228.82C469.079 228.666 466.873 228.352 464.699 227.88C464.699 227.88 459.169 229.88 457.139 229.88C455.109 229.88 452.139 228.13 452.139 228.13C452.139 228.13 448.499 228.26 446.609 228.4C444.719 228.54 442.299 226.1 442.299 226.1L427.599 225.7L432.269 215.2Z" fill="white" stroke="#263238" stroke-linecap="round" stroke-linejoin="round"/>
<path d="M469.76 217.36C469.76 217.36 473.27 217.63 473.27 218.71C473.27 219.79 470.43 227.88 470.43 227.88L464.77 228.42C464.77 228.42 463.96 228.15 464.64 227.07C465.425 226.066 466.328 225.159 467.33 224.37L467.2 218.3L469.76 217.36Z" fill="white" stroke="#263238" stroke-linecap="round" stroke-linejoin="round"/>
<path d="M463.979 216.41C463.979 216.41 470.089 215.88 470.319 216.57C470.549 217.26 469.319 227.57 469.319 227.57C469.319 227.57 463.139 228.9 462.319 228.84C462.107 228.815 461.907 228.731 461.741 228.598C461.574 228.465 461.449 228.288 461.378 228.087C461.307 227.886 461.294 227.669 461.34 227.461C461.386 227.253 461.49 227.062 461.639 226.91C462.639 226.138 463.726 225.487 464.879 224.97L463.979 216.41Z" fill="white" stroke="#263238" stroke-linecap="round" stroke-linejoin="round"/>
<path d="M460.45 215.74C460.45 215.74 466.52 214.74 466.79 215.47C467.06 216.2 466.52 226.53 466.52 226.53C466.52 226.53 460.45 228.28 459.65 228.28C459.437 228.267 459.231 228.195 459.057 228.073C458.882 227.95 458.745 227.781 458.661 227.585C458.577 227.389 458.549 227.173 458.581 226.962C458.612 226.751 458.702 226.553 458.84 226.39C459.785 225.554 460.826 224.833 461.94 224.24L460.45 215.74Z" fill="white" stroke="#263238" stroke-linecap="round" stroke-linejoin="round"/>
<path d="M444.81 219.781C444.81 219.781 459.92 214.121 460.72 213.851C461.52 213.581 462.07 213.991 462.07 214.531C462.07 215.071 464.5 225.001 463.69 225.721C462.88 226.441 458.03 227.881 458.03 227.881C458.03 227.881 456.68 226.931 456.54 226.531C456.4 226.131 458.03 225.041 458.03 225.041L457.76 222.041L454.25 223.251" fill="white"/>
<path d="M444.81 219.781C444.81 219.781 459.92 214.121 460.72 213.851C461.52 213.581 462.07 213.991 462.07 214.531C462.07 215.071 464.5 225.001 463.69 225.721C462.88 226.441 458.03 227.881 458.03 227.881C458.03 227.881 456.68 226.931 456.54 226.531C456.4 226.131 458.03 225.041 458.03 225.041L457.76 222.041L454.25 223.251" stroke="#263238" stroke-linecap="round" stroke-linejoin="round"/>
<path d="M443.328 217.49C443.328 217.49 439.948 221.49 441.568 225.72H438.068C438.068 225.72 436.718 218.98 439.818 217.09L443.328 217.49Z" fill="#263238" stroke="#263238" stroke-linecap="round" stroke-linejoin="round"/>
<path d="M438.07 215.47C438.07 215.47 435.68 218.59 435.07 229.06C434.95 231 409.78 227.61 402.77 226.26C395.76 224.91 393.06 222.26 392.52 216.41C391.98 210.56 398.46 204.68 403.31 202.66C408.16 200.64 438.07 215.47 438.07 215.47Z" fill="#FF725E" stroke="#263238" stroke-linecap="round" stroke-linejoin="round"/>
<path d="M502.071 132.018L510.887 136.41C511.851 136.89 512.244 138.061 511.763 139.025L500.193 162.252C499.712 163.216 498.542 163.608 497.578 163.128L488.761 158.736C487.797 158.256 487.405 157.085 487.885 156.121L499.456 132.894C499.936 131.93 501.107 131.538 502.071 132.018Z" fill="#FF725E" stroke="#263238" stroke-linecap="round" stroke-linejoin="round"/>
<path d="M509.049 179.111L506.699 169.561L511.699 153.791C511.699 153.791 507.169 142.221 506.329 141.051C505.489 139.881 503.329 138.701 502.479 139.051C501.629 139.401 501.639 140.561 502.809 141.231C503.635 141.82 504.277 142.631 504.659 143.571L507.169 152.131L506.029 154.001L502.839 144.271C502.839 144.271 493.619 143.101 493.119 143.101C492.619 143.101 490.599 143.271 491.609 144.611C492.17 145.392 493.006 145.932 493.949 146.121H490.099C490.099 146.121 488.759 146.791 489.599 147.801C490.439 148.811 496.129 150.311 496.129 150.311L498.309 157.191L494.119 152.321L489.929 151.651C489.929 151.651 487.079 152.321 487.579 153.501C488.079 154.681 490.579 154.001 490.579 154.001L493.099 155.341L496.949 162.341V171.061C496.949 173.241 500.809 181.131 500.809 181.131L509.049 179.111Z" fill="white" stroke="#263238" stroke-linecap="round" stroke-linejoin="round"/>
<path d="M493.95 146.08L499.66 147.42L502.67 157.15" stroke="#263238" stroke-linecap="round" stroke-linejoin="round"/>
<path d="M511 176L495.76 181.16C495.76 181.16 507.84 234.48 509.76 239.36C512.82 247.24 523.67 245.61 528.13 244.21C532.59 242.81 535.13 234.13 533.99 230.61C532.85 227.09 511 176 511 176Z" fill="#FF725E" stroke="#263238" stroke-linecap="round" stroke-linejoin="round"/>
<path d="M162.739 141V135.545H163.967V136.472H164.031C164.145 136.16 164.333 135.916 164.596 135.741C164.859 135.563 165.172 135.474 165.537 135.474C165.906 135.474 166.218 135.564 166.471 135.744C166.727 135.922 166.906 136.165 167.011 136.472H167.067C167.188 136.169 167.392 135.928 167.678 135.748C167.967 135.566 168.309 135.474 168.705 135.474C169.206 135.474 169.616 135.633 169.933 135.95C170.25 136.268 170.409 136.73 170.409 137.339V141H169.12V137.538C169.12 137.199 169.03 136.952 168.85 136.795C168.67 136.637 168.45 136.558 168.19 136.558C167.879 136.558 167.637 136.655 167.462 136.849C167.289 137.04 167.202 137.29 167.202 137.598V141H165.942V137.484C165.942 137.203 165.857 136.978 165.686 136.81C165.518 136.642 165.298 136.558 165.026 136.558C164.841 136.558 164.673 136.605 164.521 136.7C164.37 136.792 164.249 136.923 164.159 137.094C164.069 137.262 164.024 137.458 164.024 137.683V141H162.739ZM172.313 141V135.545H173.599V141H172.313ZM172.96 134.771C172.756 134.771 172.581 134.704 172.434 134.569C172.287 134.432 172.214 134.267 172.214 134.075C172.214 133.881 172.287 133.717 172.434 133.582C172.581 133.444 172.756 133.376 172.96 133.376C173.166 133.376 173.341 133.444 173.485 133.582C173.632 133.717 173.705 133.881 173.705 134.075C173.705 134.267 173.632 134.432 173.485 134.569C173.341 134.704 173.166 134.771 172.96 134.771ZM177.893 143.159C177.431 143.159 177.035 143.096 176.703 142.971C176.372 142.848 176.105 142.682 175.904 142.474C175.703 142.265 175.563 142.035 175.485 141.781L176.643 141.501C176.695 141.607 176.771 141.713 176.87 141.817C176.97 141.923 177.103 142.011 177.271 142.08C177.442 142.151 177.656 142.186 177.914 142.186C178.279 142.186 178.581 142.097 178.82 141.92C179.059 141.745 179.178 141.456 179.178 141.053V140.02H179.114C179.048 140.152 178.951 140.289 178.823 140.428C178.698 140.568 178.531 140.685 178.323 140.78C178.117 140.875 177.857 140.922 177.545 140.922C177.126 140.922 176.746 140.824 176.405 140.627C176.066 140.428 175.796 140.132 175.595 139.739C175.396 139.344 175.297 138.849 175.297 138.255C175.297 137.656 175.396 137.151 175.595 136.739C175.796 136.324 176.068 136.011 176.408 135.798C176.749 135.582 177.129 135.474 177.548 135.474C177.868 135.474 178.131 135.529 178.337 135.638C178.545 135.744 178.711 135.873 178.834 136.025C178.957 136.174 179.05 136.315 179.114 136.447H179.185V135.545H180.453V141.089C180.453 141.555 180.342 141.941 180.119 142.246C179.897 142.552 179.593 142.78 179.207 142.932C178.821 143.083 178.383 143.159 177.893 143.159ZM177.903 139.913C178.176 139.913 178.408 139.847 178.6 139.714C178.791 139.582 178.937 139.391 179.036 139.143C179.136 138.894 179.185 138.596 179.185 138.248C179.185 137.905 179.136 137.604 179.036 137.346C178.939 137.088 178.795 136.888 178.603 136.746C178.414 136.601 178.18 136.529 177.903 136.529C177.617 136.529 177.378 136.604 177.186 136.753C176.994 136.902 176.85 137.107 176.753 137.367C176.656 137.625 176.607 137.919 176.607 138.248C176.607 138.582 176.656 138.874 176.753 139.125C176.852 139.374 176.998 139.568 177.19 139.707C177.384 139.845 177.622 139.913 177.903 139.913ZM182.371 141V135.545H183.617V136.455H183.674C183.773 136.14 183.944 135.897 184.185 135.727C184.429 135.554 184.707 135.467 185.02 135.467C185.091 135.467 185.17 135.471 185.258 135.478C185.348 135.483 185.422 135.491 185.481 135.503V136.685C185.427 136.666 185.341 136.65 185.222 136.636C185.106 136.619 184.994 136.611 184.885 136.611C184.65 136.611 184.44 136.662 184.253 136.763C184.068 136.863 183.923 137.001 183.816 137.179C183.709 137.357 183.656 137.561 183.656 137.793V141H182.371ZM188.407 141.11C188.062 141.11 187.75 141.049 187.474 140.925C187.199 140.8 186.981 140.615 186.82 140.371C186.661 140.128 186.582 139.827 186.582 139.469C186.582 139.162 186.639 138.907 186.753 138.706C186.866 138.505 187.021 138.344 187.218 138.223C187.414 138.102 187.636 138.011 187.882 137.95C188.13 137.886 188.387 137.839 188.652 137.811C188.972 137.778 189.231 137.748 189.43 137.722C189.629 137.694 189.773 137.651 189.863 137.594C189.956 137.535 190.002 137.444 190.002 137.321V137.3C190.002 137.032 189.923 136.825 189.764 136.678C189.605 136.531 189.377 136.458 189.079 136.458C188.764 136.458 188.514 136.527 188.329 136.664C188.147 136.801 188.024 136.964 187.96 137.151L186.76 136.98C186.854 136.649 187.011 136.372 187.228 136.149C187.446 135.924 187.713 135.756 188.027 135.645C188.342 135.531 188.69 135.474 189.072 135.474C189.334 135.474 189.596 135.505 189.856 135.567C190.117 135.628 190.355 135.73 190.57 135.872C190.786 136.012 190.958 136.202 191.089 136.444C191.221 136.685 191.287 136.987 191.287 137.349V141H190.052V140.251H190.009C189.931 140.402 189.821 140.544 189.679 140.677C189.539 140.807 189.363 140.912 189.15 140.993C188.939 141.071 188.692 141.11 188.407 141.11ZM188.741 140.165C188.999 140.165 189.223 140.115 189.412 140.013C189.602 139.909 189.747 139.771 189.849 139.601C189.953 139.43 190.005 139.245 190.005 139.043V138.401C189.965 138.434 189.897 138.464 189.8 138.493C189.705 138.521 189.598 138.546 189.48 138.567C189.362 138.589 189.244 138.608 189.128 138.624C189.012 138.641 188.912 138.655 188.826 138.667C188.635 138.693 188.463 138.736 188.312 138.795C188.16 138.854 188.041 138.937 187.953 139.043C187.865 139.147 187.822 139.282 187.822 139.448C187.822 139.685 187.908 139.864 188.081 139.984C188.254 140.105 188.474 140.165 188.741 140.165ZM194.466 137.804V141H193.18V135.545H194.409V136.472H194.473C194.598 136.167 194.798 135.924 195.073 135.744C195.35 135.564 195.692 135.474 196.099 135.474C196.475 135.474 196.803 135.555 197.083 135.716C197.364 135.877 197.582 136.11 197.736 136.415C197.892 136.721 197.969 137.091 197.967 137.527V141H196.681V137.726C196.681 137.361 196.587 137.076 196.397 136.87C196.21 136.664 195.951 136.561 195.62 136.561C195.395 136.561 195.195 136.611 195.02 136.71C194.847 136.807 194.711 136.948 194.611 137.133C194.514 137.317 194.466 137.541 194.466 137.804ZM199.874 141V135.545H201.159V141H199.874ZM200.52 134.771C200.316 134.771 200.141 134.704 199.995 134.569C199.848 134.432 199.774 134.267 199.774 134.075C199.774 133.881 199.848 133.717 199.995 133.582C200.141 133.444 200.316 133.376 200.52 133.376C200.726 133.376 200.901 133.444 201.046 133.582C201.192 133.717 201.266 133.881 201.266 134.075C201.266 134.267 201.192 134.432 201.046 134.569C200.901 134.704 200.726 134.771 200.52 134.771ZM206.558 138.706V135.545H207.843V141H206.597V140.031H206.54C206.417 140.336 206.215 140.586 205.933 140.78C205.653 140.974 205.309 141.071 204.899 141.071C204.542 141.071 204.226 140.992 203.951 140.833C203.679 140.672 203.466 140.439 203.312 140.134C203.158 139.826 203.081 139.454 203.081 139.018V135.545H204.367V138.82C204.367 139.165 204.461 139.44 204.651 139.643C204.84 139.847 205.089 139.949 205.397 139.949C205.586 139.949 205.769 139.903 205.947 139.81C206.125 139.718 206.27 139.581 206.384 139.398C206.5 139.214 206.558 138.983 206.558 138.706ZM209.765 141V135.545H210.994V136.472H211.058C211.171 136.16 211.36 135.916 211.622 135.741C211.885 135.563 212.199 135.474 212.563 135.474C212.933 135.474 213.244 135.564 213.497 135.744C213.753 135.922 213.933 136.165 214.037 136.472H214.094C214.215 136.169 214.418 135.928 214.705 135.748C214.994 135.566 215.336 135.474 215.731 135.474C216.233 135.474 216.643 135.633 216.96 135.95C217.277 136.268 217.436 136.73 217.436 137.339V141H216.147V137.538C216.147 137.199 216.057 136.952 215.877 136.795C215.697 136.637 215.477 136.558 215.216 136.558C214.906 136.558 214.663 136.655 214.488 136.849C214.315 137.04 214.229 137.29 214.229 137.598V141H212.968V137.484C212.968 137.203 212.883 136.978 212.713 136.81C212.545 136.642 212.324 136.558 212.052 136.558C211.867 136.558 211.699 136.605 211.548 136.7C211.396 136.792 211.276 136.923 211.186 137.094C211.096 137.262 211.051 137.458 211.051 137.683V141H209.765Z" fill="black"/>
</svg>
