<svg width="20" height="20" viewBox="0 0 20 20" fill="none" xmlns="http://www.w3.org/2000/svg">
<rect x="0.6" y="0.6" width="18.8" height="18.8" rx="9.4" fill="#0070BA"/>
<g clip-path="url(#clip0_425_18818)">
<path d="M14.7591 5.6314H12.3208V5.22502C12.3208 4.55286 11.7738 4.00586 11.1016 4.00586H9.47611C8.80394 4.00586 8.25695 4.55286 8.25695 5.22502V5.6314H5.81863C5.37042 5.6314 5.00586 5.99597 5.00586 6.44418V7.25695C5.00586 7.70516 5.37042 8.06972 5.81863 8.06972H6.24534L6.59158 14.839C6.62532 15.4867 7.16015 15.9943 7.80911 15.9943H12.7691C13.4177 15.9943 13.9525 15.4867 13.9866 14.8386L14.3329 8.06981H14.7596C15.2078 8.06981 15.5724 7.70525 15.5724 7.25704V6.44427C15.5724 5.99606 15.2078 5.6315 14.7596 5.6315L14.7591 5.6314ZM9.06972 5.22502C9.06972 5.00114 9.25223 4.81863 9.47611 4.81863H11.1016C11.3255 4.81863 11.508 5.00114 11.508 5.22502V5.6314H9.06972V5.22502ZM13.1747 14.7967C13.1633 15.0125 12.9853 15.1816 12.7687 15.1816H7.8089C7.59274 15.1816 7.41431 15.0125 7.40289 14.7971L7.05864 8.0697H13.5186L13.1743 14.7967L13.1747 14.7967ZM14.7592 6.44418V7.25695H5.81872V6.44418H14.7592ZM8.66343 13.5559V9.89846C8.66343 9.67413 8.84548 9.49207 9.06981 9.49207C9.29414 9.49207 9.4762 9.67413 9.4762 9.89846V13.5559C9.4762 13.7803 9.29414 13.9623 9.06981 13.9623C8.84548 13.9623 8.66343 13.7803 8.66343 13.5559ZM11.1017 13.5559V9.89846C11.1017 9.67413 11.2838 9.49207 11.5081 9.49207C11.7325 9.49207 11.9145 9.67413 11.9145 9.89846V13.5559C11.9145 13.7803 11.7325 13.9623 11.5081 13.9623C11.2838 13.9623 11.1017 13.7803 11.1017 13.5559Z" fill="white"/>
</g>
<rect x="0.6" y="0.6" width="18.8" height="18.8" rx="9.4" stroke="#0070BA" stroke-width="1.2"/>
<defs>
<clipPath id="clip0_425_18818">
<rect width="10.5893" height="12" fill="white" transform="translate(5 4)"/>
</clipPath>
</defs>
</svg>
