<svg width="21" height="20" viewBox="0 0 21 20" fill="none" xmlns="http://www.w3.org/2000/svg">
<path d="M2.44145 0.0203857C1.26792 0.0203857 0.300781 0.987521 0.300781 2.16106V17.8593C0.300781 19.0329 1.26792 20 2.44145 20H18.1397C19.3133 20 20.2804 19.0329 20.2804 17.8593V9.99184C20.2804 9.80262 20.2052 9.62121 20.0714 9.48726C19.9376 9.35347 19.7561 9.27829 19.5668 9.27829C19.3776 9.27829 19.196 9.35347 19.0623 9.48726C18.9285 9.62121 18.8533 9.80262 18.8533 9.99184V17.8593C18.8533 18.2669 18.5473 18.5729 18.1397 18.5729H2.44145C2.03387 18.5729 1.7279 18.2669 1.7279 17.8593V2.16106C1.7279 1.75347 2.03387 1.4475 2.44145 1.4475H10.2906C10.4798 1.4475 10.6614 1.37232 10.7952 1.23853C10.929 1.10474 11.0041 0.923163 11.0041 0.733943C11.0041 0.544724 10.929 0.363146 10.7952 0.229356C10.6614 0.0955662 10.4798 0.0203857 10.2906 0.0203857H2.44145Z" fill="#0070BA"/>
<path d="M6.37505 9.52372C6.26515 9.63378 6.19427 9.77665 6.17309 9.93067L5.62023 13.9011C5.55492 14.3721 5.9598 14.7739 6.4303 14.7053L10.3751 14.1268C10.527 14.1043 10.6677 14.0335 10.7761 13.9248L19.8473 4.85369C20.418 4.283 20.418 3.33707 19.8473 2.76639L17.5344 0.453523C16.9639 -0.116996 16.0168 -0.118138 15.4462 0.452568L6.37505 9.52372ZM7.55275 10.3644C10.5107 7.40613 13.5858 4.33175 16.4885 1.42819L18.8712 3.80523C15.9395 6.7512 12.9042 9.77873 9.93334 12.7492L7.1651 13.1561L7.55275 10.3644Z" fill="#0070BA"/>
</svg>
