<svg width="20" height="20" viewBox="0 0 20 20" fill="none" xmlns="http://www.w3.org/2000/svg">
<g clip-path="url(#clip0_425_20998)">
<path d="M6.07034 5.01025C5.48357 5.01025 5 5.49382 5 6.08059V13.9297C5 14.5165 5.48357 15.0001 6.07034 15.0001H13.9195C14.5062 15.0001 14.9898 14.5165 14.9898 13.9297V9.99598C14.9898 9.90137 14.9522 9.81067 14.8853 9.74369C14.8184 9.67679 14.7276 9.6392 14.633 9.6392C14.5384 9.6392 14.4476 9.67679 14.3807 9.74369C14.3138 9.81067 14.2762 9.90137 14.2762 9.99598V13.9297C14.2762 14.1335 14.1233 14.2865 13.9195 14.2865H6.07034C5.86654 14.2865 5.71356 14.1335 5.71356 13.9297V6.08059C5.71356 5.8768 5.86654 5.72381 6.07034 5.72381H9.9949C10.0895 5.72381 10.1803 5.68622 10.2472 5.61933C10.3141 5.55243 10.3517 5.46164 10.3517 5.36703C10.3517 5.27242 10.3141 5.18163 10.2472 5.11474C10.1803 5.04784 10.0895 5.01025 9.9949 5.01025H6.07034Z" fill="#0070BA"/>
<path d="M8.03714 9.76201C7.98219 9.81704 7.94675 9.88848 7.93615 9.96549L7.65972 11.9507C7.62707 12.1862 7.82951 12.3871 8.06476 12.3528L10.0372 12.0636C10.1131 12.0523 10.1834 12.0169 10.2377 11.9626L14.7733 7.427C15.0586 7.14165 15.0586 6.66869 14.7733 6.38335L13.6168 5.22691C13.3316 4.94165 12.858 4.94108 12.5727 5.22644L8.03714 9.76201ZM8.62598 10.1823C10.1049 8.70322 11.6425 7.16603 13.0939 5.71425L14.2852 6.90277C12.8194 8.37575 11.3017 9.88952 9.81628 11.3747L8.43216 11.5782L8.62598 10.1823Z" fill="#0070BA"/>
</g>
<rect x="0.5" y="0.5" width="19" height="19" rx="9.5" stroke="#0070BA"/>
<defs>
<clipPath id="clip0_425_20998">
<rect width="10" height="10" fill="white" transform="translate(5 5)"/>
</clipPath>
</defs>
</svg>
