<svg width="21" height="20" viewBox="0 0 21 20" fill="none" xmlns="http://www.w3.org/2000/svg">
<rect x="1.08203" y="0.5" width="19" height="19" rx="9.5" fill="#0070BA"/>
<g clip-path="url(#clip0_425_18821)">
<path d="M6.65237 5.00977C6.0656 5.00977 5.58203 5.49333 5.58203 6.0801V13.9292C5.58203 14.516 6.0656 14.9996 6.65237 14.9996H14.5015C15.0883 14.9996 15.5718 14.516 15.5718 13.9292V9.99549C15.5718 9.90089 15.5342 9.81018 15.4674 9.7432C15.4005 9.67631 15.3097 9.63872 15.2151 9.63872C15.1205 9.63872 15.0297 9.67631 14.9628 9.7432C14.8959 9.81018 14.8583 9.90089 14.8583 9.99549V13.9292C14.8583 14.133 14.7053 14.286 14.5015 14.286H6.65237C6.44857 14.286 6.29559 14.133 6.29559 13.9292V6.0801C6.29559 5.87631 6.44857 5.72332 6.65237 5.72332H10.5769C10.6715 5.72332 10.7623 5.68573 10.8292 5.61884C10.8961 5.55194 10.9337 5.46115 10.9337 5.36654C10.9337 5.27193 10.8961 5.18115 10.8292 5.11425C10.7623 5.04736 10.6715 5.00977 10.5769 5.00977H6.65237Z" fill="white"/>
<path d="M8.61917 9.76104C8.56422 9.81607 8.52878 9.8875 8.51819 9.96451L8.24175 11.9497C8.2091 12.1852 8.41154 12.3861 8.64679 12.3518L10.6192 12.0626C10.6952 12.0513 10.7655 12.0159 10.8197 11.9616L15.3553 7.42602C15.6406 7.14068 15.6406 6.66771 15.3553 6.38237L14.1989 5.22594C13.9136 4.94068 13.4401 4.94011 13.1547 5.22546L8.61917 9.76104ZM9.20801 10.1814C10.687 8.70224 12.2245 7.16505 13.6759 5.71327L14.8672 6.90179C13.4014 8.37478 11.8837 9.88854 10.3983 11.3738L9.01419 11.5772L9.20801 10.1814Z" fill="white"/>
</g>
<rect x="1.08203" y="0.5" width="19" height="19" rx="9.5" stroke="#0070BA"/>
<defs>
<clipPath id="clip0_425_18821">
<rect width="10" height="10" fill="white" transform="translate(5.58203 5)"/>
</clipPath>
</defs>
</svg>
