<svg width="20" height="20" viewBox="0 0 20 20" fill="none" xmlns="http://www.w3.org/2000/svg">
<g clip-path="url(#clip0_425_16587)">
<path fill-rule="evenodd" clip-rule="evenodd" d="M2.93418 17.0656C-0.961134 13.1703 -0.961134 6.85489 2.93418 2.95922C6.8295 -0.936454 13.1449 -0.936098 17.0405 2.95922C20.9362 6.85454 20.9359 13.1699 17.0405 17.0656C13.1452 20.9613 6.82986 20.9609 2.93418 17.0656ZM3.97367 14.8206L9.89123 8.90309C10.1131 8.68104 10.0385 8.50033 9.72246 8.50133L7.52841 8.5059C6.39014 8.50749 6.39274 6.7999 7.5308 6.79827L12.3964 6.73804C12.8711 6.73108 13.2486 7.10799 13.2438 7.57972L13.2015 12.469C13.1999 13.607 11.4925 13.6096 11.4939 12.4714L11.4984 10.2775C11.4994 9.96144 11.3197 9.8859 11.0969 10.1087L5.17931 16.0263C4.84633 16.3593 4.88191 16.8586 5.26121 17.1389C5.26121 17.1389 5.03718 16.991 5.27851 17.1505C8.59754 19.3449 13.1101 18.9807 16.0327 16.0579C19.3716 12.7192 19.3716 7.30572 16.0327 3.96679C12.694 0.627911 7.28054 0.627911 3.94161 3.96679C1.01561 6.8928 0.653824 11.4121 2.85642 14.7322C3.01386 14.9697 2.86 14.7378 2.86 14.7378C3.13533 15.1198 3.63923 15.1546 3.97343 14.8204L3.97367 14.8206Z" fill="black"/>
</g>
<defs>
<clipPath id="clip0_425_16587">
<rect width="20" height="20" fill="white"/>
</clipPath>
</defs>
</svg>
