<svg width="20" height="20" viewBox="0 0 20 20" fill="none" xmlns="http://www.w3.org/2000/svg">
<g clip-path="url(#clip0_703_6144)">
<path fill-rule="evenodd" clip-rule="evenodd" d="M9.07157 9.3695H5.3305C4.98603 9.3695 4.70703 9.64851 4.70703 9.99297C4.70703 10.3374 4.98604 10.6164 5.3305 10.6164H9.07157C9.24381 10.6164 9.38342 10.756 9.38342 10.9283V14.6694C9.38342 15.0138 9.66243 15.2928 10.0069 15.2928C10.3513 15.2928 10.6303 15.0138 10.6303 14.6694V10.9283C10.6303 10.756 10.77 10.6164 10.9422 10.6164H14.6833C15.0277 10.6164 15.3067 10.3374 15.3067 9.99297C15.3067 9.64851 15.0277 9.3695 14.6833 9.3695H10.9422C10.77 9.3695 10.6303 9.22989 10.6303 9.05765V5.31658C10.6303 4.97211 10.3513 4.69312 10.0069 4.69312C9.66243 4.69312 9.38342 4.97212 9.38342 5.31658V9.05765C9.38342 9.22989 9.24381 9.3695 9.07157 9.3695Z" fill="white"/>
<path d="M10.0076 18.7223C14.8286 18.7223 18.7369 14.814 18.7369 9.99305C18.7369 5.17206 14.8286 1.26376 10.0076 1.26376C5.1866 1.26376 1.27829 5.17206 1.27829 9.99305C1.27829 14.814 5.1866 18.7223 10.0076 18.7223ZM10.0076 19.9693C4.49783 19.9693 0.03125 15.5028 0.03125 9.99294C0.03125 4.48313 4.49778 0.0166016 10.0076 0.0166016C15.5174 0.0166016 19.9839 4.48313 19.9839 9.99294C19.9839 15.5028 15.5174 19.9693 10.0076 19.9693Z" fill="white"/>
</g>
<defs>
<clipPath id="clip0_703_6144">
<rect width="20" height="20" fill="white"/>
</clipPath>
</defs>
</svg>
