<svg width="18" height="18" viewBox="0 0 18 18" fill="none" xmlns="http://www.w3.org/2000/svg">
<g clip-path="url(#clip0_425_16514)">
<path fill-rule="evenodd" clip-rule="evenodd" d="M1.81328 2.85654C0.765904 3.22673 0.015625 4.22562 0.015625 5.39985C0.015625 6.57392 0.765943 7.57279 1.81328 7.943V17.0853C1.81328 17.5818 2.2158 17.9842 2.71225 17.9842C3.2087 17.9842 3.61108 17.5818 3.61108 17.0853V7.943C4.65845 7.57282 5.40888 6.57392 5.40888 5.39985C5.40888 4.22566 4.65845 3.22675 3.61108 2.85654V0.905417C3.61108 0.408967 3.2087 0.0065918 2.71225 0.0065918C2.2158 0.0065918 1.81328 0.408967 1.81328 0.905417V2.85654ZM1.81328 5.39985C1.81328 4.9034 2.2158 4.50087 2.71225 4.50087C3.2087 4.50087 3.61108 4.9034 3.61108 5.39985C3.61108 5.8963 3.2087 6.29868 2.71225 6.29868C2.2158 6.29868 1.81328 5.8963 1.81328 5.39985Z" fill="#131313"/>
<path fill-rule="evenodd" clip-rule="evenodd" d="M9.90307 15.1339V17.085C9.90307 17.5814 9.5007 17.9838 9.00425 17.9838C8.5078 17.9838 8.10542 17.5814 8.10542 17.085V15.1339C7.05805 14.7637 6.30762 13.7648 6.30762 12.5905C6.30762 11.4165 7.05805 10.4176 8.10542 10.0474V0.905051C8.10542 0.408601 8.5078 0.00622559 9.00425 0.00622559C9.5007 0.00622559 9.90307 0.408601 9.90307 0.905051V10.0474C10.9504 10.4176 11.7009 11.4165 11.7009 12.5905C11.7009 13.7647 10.9504 14.7636 9.90307 15.1339ZM8.10542 12.5905C8.10542 12.0941 8.5078 11.6917 9.00425 11.6917C9.5007 11.6917 9.90307 12.0941 9.90307 12.5905C9.90307 13.087 9.5007 13.4895 9.00425 13.4895C8.5078 13.4895 8.10542 13.087 8.10542 12.5905Z" fill="#131313"/>
<path fill-rule="evenodd" clip-rule="evenodd" d="M16.1952 7.94276V17.0851C16.1952 17.5816 15.7927 17.9839 15.2962 17.9839C14.7998 17.9839 14.3974 17.5816 14.3974 17.0851V7.94276C13.35 7.57257 12.5996 6.57368 12.5996 5.39961C12.5996 4.22542 13.35 3.22651 14.3974 2.8563V0.905173C14.3974 0.408723 14.7998 0.00634766 15.2962 0.00634766C15.7927 0.00634766 16.1952 0.408723 16.1952 0.905173V2.8563C17.2426 3.22649 17.9929 4.22538 17.9929 5.39961C17.9929 6.57368 17.2425 7.57255 16.1952 7.94276ZM14.3974 5.39961C14.3974 4.90316 14.7998 4.50063 15.2962 4.50063C15.7927 4.50063 16.1952 4.90316 16.1952 5.39961C16.1952 5.89606 15.7927 6.29843 15.2962 6.29843C14.7998 6.29843 14.3974 5.89606 14.3974 5.39961Z" fill="#131313"/>
</g>
<defs>
<clipPath id="clip0_425_16514">
<rect width="18" height="18" fill="white"/>
</clipPath>
</defs>
</svg>
