<svg width="20" height="20" viewBox="0 0 20 20" fill="none" xmlns="http://www.w3.org/2000/svg">
<g clip-path="url(#clip0_947_1615)">
<path d="M8.72727 0.316593L1.27285 6.57325C1.11142 6.70964 1.01874 6.91048 1.01954 7.12186V17.1294C1.01954 18.6688 2.19234 19.9887 3.69948 19.9887H6.37941C7.06168 19.9887 7.62973 19.4154 7.62973 18.7331V15.5203C7.62973 14.4192 8.49114 13.5527 9.59216 13.5527C10.6933 13.5527 11.5599 14.4193 11.5599 15.5203V18.7331C11.5599 19.4154 12.1279 19.9887 12.8102 19.9887H15.4901C16.9972 19.9887 18.17 18.6686 18.17 17.1294V7.12186H18.1702C18.171 6.9105 18.0783 6.70965 17.9169 6.57325L10.4625 0.316593C9.96303 -0.102927 9.22621 -0.102927 8.72689 0.316593H8.72727ZM9.59775 1.45076L16.7406 7.45423V17.1294C16.7406 17.9656 16.1606 18.559 15.4903 18.559L12.9896 18.5592V15.5205C12.9896 13.6522 11.4605 12.123 9.5922 12.123C7.7239 12.123 6.20002 13.6522 6.20002 15.5205V18.5592H3.69956C3.02926 18.5592 2.44925 17.9658 2.44925 17.1295V7.45439L9.59775 1.45076Z" fill="white"/>
</g>
<defs>
<clipPath id="clip0_947_1615">
<rect width="17.1822" height="20" fill="white" transform="translate(1)"/>
</clipPath>
</defs>
</svg>
