<svg width="50" height="50" viewBox="0 0 50 50" fill="none" xmlns="http://www.w3.org/2000/svg">
<rect width="50" height="50" rx="25" fill="#F2F5FA"/>
<g clip-path="url(#clip0_425_18631)">
<path d="M28.6644 27.3295L25.0749 23.2114C25.0327 23.1691 24.9666 23.1691 24.9243 23.2114L21.3375 27.3295L21.3269 27.34C21.2846 27.3955 21.3296 27.4775 21.4009 27.4775H24.4723V35.1083C24.4723 35.1665 24.5199 35.214 24.578 35.214H25.4238C25.482 35.214 25.5296 35.1665 25.5296 35.1083V27.4775H28.5983C28.6697 27.4775 28.7172 27.3955 28.6723 27.34C28.6697 27.3348 28.667 27.3321 28.6644 27.3295Z" fill="#6B7CD0"/>
<path d="M35.375 22.175C34.4235 21.0437 33.131 20.2481 31.7037 19.9072C31.4129 18.4164 30.6332 17.0552 29.4807 16.0429C28.2226 14.938 26.605 14.3301 24.9292 14.3301C23.2481 14.3301 21.6279 14.9433 20.3671 16.0534C19.212 17.0737 18.4323 18.4429 18.1468 19.9442C16.7565 20.3116 15.4984 21.1151 14.5785 22.2332C13.5636 23.4649 13.0059 25.0217 13.0059 26.6208C13.0059 28.4658 13.7248 30.1997 15.0279 31.5028C15.9662 32.4411 17.1266 33.0755 18.39 33.3583C18.7178 33.4323 19.0296 33.1812 19.0296 32.8429V32.8376C19.0296 32.5891 18.8552 32.3777 18.6147 32.3221C16.0111 31.7327 14.0605 29.3988 14.0605 26.6208C14.0605 23.8614 16.0191 21.4534 18.7178 20.8957L19.0852 20.8191L19.1354 20.4464C19.5213 17.56 22.0138 15.3847 24.9292 15.3847C27.8314 15.3847 30.3213 17.5495 30.7178 20.4199L30.7706 20.7979L31.1459 20.8666C33.9239 21.3715 35.938 23.79 35.938 26.6182C35.938 29.4279 33.9451 31.7803 31.2993 32.338C31.0534 32.3909 30.8763 32.605 30.8763 32.8534V32.8587C30.8763 33.1918 31.183 33.4429 31.5107 33.3741C32.8138 33.1045 34.0111 32.4596 34.9733 31.4975C36.2763 30.1944 36.9953 28.4605 36.9953 26.6155C36.9979 24.9953 36.4191 23.4173 35.375 22.175Z" fill="#6B7CD0"/>
</g>
<defs>
<clipPath id="clip0_425_18631">
<rect width="24" height="20.9075" fill="white" transform="translate(13 14.3252)"/>
</clipPath>
</defs>
</svg>
