<svg width="15" height="20" viewBox="0 0 15 20" fill="none" xmlns="http://www.w3.org/2000/svg">
<path fill-rule="evenodd" clip-rule="evenodd" d="M7.45703 9.70714C6.91136 9.70728 6.38803 9.49058 6.00206 9.1049C5.61624 8.71908 5.39941 8.19575 5.39926 7.65008C5.39926 7.10441 5.61596 6.58108 6.0018 6.19526C6.38762 5.80944 6.91095 5.59261 7.45662 5.59261C8.00229 5.59261 8.52561 5.80946 8.91143 6.19526C9.29725 6.58108 9.51397 7.10441 9.51382 7.65008C9.51323 8.19545 9.29638 8.71818 8.91072 9.10385C8.5252 9.48952 8.00247 9.70638 7.4571 9.7071L7.45703 9.70714ZM7.45703 4.3456C6.58094 4.3456 5.7407 4.69365 5.12116 5.31323C4.50158 5.93281 4.15352 6.77301 4.15352 7.6491C4.15352 8.52534 4.50158 9.36559 5.12116 9.98497C5.74073 10.6046 6.58094 10.9526 7.45703 10.9526C8.33312 10.9526 9.17336 10.6046 9.7929 9.98497C10.4125 9.36555 10.7605 8.5253 10.7605 7.6491C10.7594 6.77332 10.4109 5.93382 9.79158 5.31455C9.17231 4.69527 8.33282 4.3468 7.45703 4.3456ZM11.9057 12.2196C13.8326 9.589 14.5992 5.75641 11.9679 3.12547C10.7705 1.93085 9.14832 1.26001 7.45711 1.26001C5.76591 1.26001 4.1436 1.93085 2.94635 3.12547C0.314849 5.75652 1.08134 9.58904 3.0082 12.2196L7.45728 18.2931L11.9057 12.2196ZM7.45703 0.0183745C6.45562 0.0142605 5.46331 0.208783 4.53772 0.590786C3.61199 0.97277 2.77129 1.53461 2.06416 2.24363C1.37142 2.92873 0.830456 3.75178 0.476229 4.65943C0.121856 5.56696 -0.0378468 6.53884 0.00755044 7.5122C0.0660253 9.34708 0.774641 11.2813 2.00289 12.9569L6.95409 19.7176C7.07148 19.8778 7.25836 19.9726 7.45699 19.9726C7.65578 19.9726 7.84251 19.8778 7.96005 19.7176L12.9112 12.9572C14.1389 11.2809 14.8475 9.34753 14.9066 7.51257C14.9518 6.53922 14.7921 5.56734 14.4378 4.65965C14.0834 3.75197 13.5423 2.92892 12.8494 2.24386C12.1423 1.5348 11.3018 0.973146 10.3761 0.591162C9.45052 0.209178 8.4584 0.0146509 7.45714 0.0186002L7.45703 0.0183745Z" fill="white"/>
</svg>
