<svg width="20" height="17" viewBox="0 0 20 17" fill="none" xmlns="http://www.w3.org/2000/svg">
<g clip-path="url(#clip0_703_6194)">
<path d="M19.972 8.49522C19.972 8.51948 19.972 8.54373 19.9693 8.56535C19.9586 8.70017 19.9206 8.82953 19.8588 8.94272C19.8561 8.95081 19.8507 8.95889 19.8424 8.96698C19.7939 9.03711 19.7266 9.11514 19.6348 9.21498L19.6268 9.22307C19.5299 9.32554 19.403 9.45227 19.2413 9.61398L16.7964 12.0585C16.6131 12.2445 16.3705 12.3362 16.1281 12.3362C15.888 12.3362 15.6457 12.2446 15.4621 12.0585C15.093 11.6922 15.093 11.0937 15.4621 10.7271C15.4621 10.7271 16.0825 10.1042 16.7507 9.43852L8.21112 9.43871C7.69083 9.43871 7.26758 9.01546 7.26758 8.49517C7.26758 7.97229 7.69083 7.55164 8.21112 7.55164H16.7507L15.4621 6.26307C15.093 5.89378 15.093 5.29811 15.4621 4.92882C15.8314 4.55953 16.4271 4.55953 16.7964 4.92882L19.6941 7.82649C19.8721 8.00455 19.972 8.24447 19.972 8.49513L19.972 8.49522Z" fill="white"/>
<path d="M19.8423 8.96704C19.7914 9.06162 19.7184 9.14491 19.6348 9.21505C19.7265 9.11539 19.7938 9.03717 19.8423 8.96704Z" fill="white"/>
<path d="M19.9699 8.56543C19.9669 8.71397 19.9457 8.81889 19.8594 8.9428C19.9214 8.8296 19.9592 8.70024 19.9699 8.56543Z" fill="white"/>
<path d="M13.7563 13.2798C14.1038 13.6679 14.0688 14.2637 13.6809 14.6114C12.1769 15.9592 10.2333 16.7003 8.21185 16.7003C3.68607 16.7003 0.00390625 13.0182 0.00390625 8.4953C0.00390625 3.96952 3.68602 0.287354 8.21185 0.287354C10.2335 0.287354 12.177 1.02853 13.6809 2.37631C14.0688 2.72397 14.1038 3.31984 13.7563 3.70791C13.4087 4.09599 12.8128 4.13116 12.4247 3.78331C11.2657 2.74557 9.76961 2.17397 8.21163 2.17397C4.72638 2.17397 1.89057 5.00959 1.89057 8.49502C1.89057 11.9803 4.72619 14.8137 8.21163 14.8137C9.76961 14.8137 11.2657 14.2423 12.4247 13.2072C12.8128 12.8595 13.4085 12.8919 13.7563 13.2801V13.2798Z" fill="white"/>
</g>
<defs>
<clipPath id="clip0_703_6194">
<rect width="20" height="16.4621" fill="white" transform="translate(0 0.269043)"/>
</clipPath>
</defs>
</svg>
