<svg width="32" height="31" viewBox="0 0 32 31" fill="none" xmlns="http://www.w3.org/2000/svg">
<path fill-rule="evenodd" clip-rule="evenodd" d="M20.2377 20.1711L22.67 17.7346C22.693 17.8137 22.716 17.892 22.7388 17.9691L22.7388 17.9691C22.7681 18.0687 22.7969 18.1664 22.8242 18.2612C22.9415 18.668 23.0392 19.0445 23.089 19.4094C23.1751 20.0406 23.1172 20.6188 22.7359 21.1971L22.0019 21.9323C21.0899 22.846 19.7594 23.2031 18.5124 22.869L17.7976 22.6774L20.1165 20.3585L20.0684 20.3103C20.1286 20.27 20.1854 20.2236 20.2377 20.1711ZM18.3948 20.2567L13.1416 18.8491C12.7556 18.7457 12.4543 18.444 12.3512 18.058L10.7388 12.0194C10.636 11.6343 10.746 11.2236 11.0276 10.9416L15.4433 6.5182C15.7256 6.2354 16.1374 6.12486 16.5234 6.22828L22.5393 7.84026C22.9253 7.94368 23.2267 8.24532 23.3297 8.63138L24.9422 14.67C25.045 15.055 24.9349 15.4657 24.6534 15.7478L23.6923 16.7105L23.7266 16.7024C23.7947 16.9903 23.8784 17.2744 23.968 17.5783L23.968 17.5783L23.968 17.5785L23.9682 17.5793C23.9993 17.6848 24.0311 17.7927 24.0632 17.904C24.1837 18.3219 24.3035 18.7728 24.3666 19.2352C24.38 19.3333 24.3908 19.4321 24.3986 19.5315L26.4176 17.509C27.3273 16.5977 27.6828 15.2709 27.3506 14.0269L25.7382 7.98828C25.4052 6.741 24.4315 5.76647 23.1845 5.43234L17.1686 3.82037C15.9216 3.48624 14.5911 3.84337 13.679 4.75702L9.26331 9.1804C8.35363 10.0917 7.99812 11.4184 8.3303 12.6625L9.94271 18.7011C10.2757 19.9483 11.2494 20.9229 12.4964 21.257L16.3594 22.2921L18.3948 20.2567Z" fill="white"/>
<path fill-rule="evenodd" clip-rule="evenodd" d="M12.8507 10.9475L18.0413 12.3383C18.4272 12.4417 18.7286 12.7434 18.8317 13.1294L20.4441 19.168C20.5469 19.5531 20.4369 19.9638 20.1553 20.2458L15.7396 24.6692C15.4573 24.952 15.0455 25.0625 14.6595 24.9591L8.64357 23.3471C8.2576 23.2437 7.95622 22.9421 7.85314 22.556L6.24073 16.5174C6.13791 16.1324 6.24795 15.7217 6.52952 15.4396L7.49018 14.4773C7.42331 14.1995 7.34229 13.9244 7.25584 13.6309L7.25584 13.6309C7.22466 13.5251 7.19278 13.4168 7.1606 13.3052C7.04015 12.8874 6.92027 12.4364 6.85722 11.974C6.84121 11.8567 6.82887 11.7383 6.82098 11.6192L4.76527 13.6784C3.85558 14.5897 3.50008 15.9165 3.83225 17.1605L5.44466 23.1991C5.7777 24.4464 6.75139 25.4209 7.99837 25.7551L14.0143 27.367C15.2613 27.7012 16.5918 27.344 17.5039 26.4304L21.9196 22.007C22.8293 21.0957 23.1848 19.7689 22.8526 18.5249L21.2402 12.4863C20.9071 11.239 19.9335 10.2645 18.6865 9.93039L14.8862 8.9121L12.8507 10.9475ZM13.448 8.52675L12.6705 8.31842C11.4235 7.98429 10.093 8.34141 9.18095 9.25506L8.62577 9.81122L8.63061 9.81505C8.12161 10.4598 8.03897 11.097 8.1348 11.7998C8.18457 12.1648 8.28228 12.5412 8.39956 12.9481C8.4269 13.0429 8.45568 13.1406 8.48504 13.2402L8.53965 13.426L10.9452 11.0162C10.9799 10.9815 11.0166 10.9493 11.055 10.9198L13.448 8.52675Z" fill="white"/>
</svg>
