<svg width="20" height="20" viewBox="0 0 20 20" fill="none" xmlns="http://www.w3.org/2000/svg">
<g clip-path="url(#clip0_703_6150)">
<path d="M15.9927 10.0098C15.9927 10.3152 15.8451 10.8775 14.8569 11.2131C14.3437 11.3875 13.6636 11.4834 12.942 11.4834C12.7617 11.4834 12.5838 11.4775 12.4105 11.4657C12.5409 11.1529 12.6084 10.8175 12.609 10.4786C12.7151 10.4835 12.826 10.4863 12.942 10.4863C14.2494 10.4863 14.9355 10.1456 14.9943 10.0067C14.9925 8.99116 14.0838 8.16469 12.9629 8.1545C12.9513 8.15469 12.9397 8.15539 12.9281 8.15539C12.9209 8.15539 12.9138 8.15489 12.9065 8.15479C12.4844 8.15945 12.0726 8.28623 11.7211 8.51988C11.4492 8.28137 11.1304 8.10238 10.7851 7.99451C10.9919 7.80127 11.2246 7.63765 11.4765 7.50838C11.1372 7.13259 10.957 6.63981 10.9737 6.13377C10.9904 5.62773 11.2027 5.14793 11.566 4.79533C11.9292 4.44262 12.4151 4.24461 12.9214 4.24293C13.4277 4.24115 13.9149 4.43588 14.2806 4.78612C14.6462 5.13627 14.8618 5.61467 14.8819 6.12051C14.902 6.62645 14.7252 7.12042 14.3885 7.49849C15.3429 7.98115 15.9927 8.92579 15.9927 10.0098L15.9927 10.0098ZM12.9281 5.24327C12.6743 5.24327 12.431 5.3441 12.2515 5.52349C12.0721 5.70296 11.9713 5.94633 11.9713 6.2001C11.9713 6.45387 12.0721 6.69722 12.2515 6.87672C12.431 7.05609 12.6743 7.15693 12.9281 7.15693C13.1819 7.15693 13.4252 7.0561 13.6047 6.87672C13.7841 6.69724 13.8849 6.45387 13.8849 6.2001C13.8846 5.94643 13.7837 5.70326 13.6043 5.52389C13.425 5.34451 13.1818 5.24357 12.9281 5.24329L12.9281 5.24327ZM11.9713 10.471C11.9716 10.9499 11.7954 11.4122 11.4763 11.7694C12.4308 12.252 13.0806 13.1967 13.0806 14.2807C13.0806 14.586 12.9331 15.1483 11.9448 15.484C11.4317 15.6583 10.7516 15.7543 10.0299 15.7543C9.30824 15.7543 8.62818 15.6583 8.11499 15.484C7.12677 15.1482 6.97919 14.5859 6.97919 14.2807C6.97919 13.204 7.62033 12.2648 8.56438 11.7793C8.13332 11.3009 7.96543 10.6409 8.1156 10.0148C8.26576 9.38864 8.71464 8.87654 9.31577 8.64577C9.9169 8.41488 10.5931 8.49492 11.1238 8.85971C11.6544 9.22442 11.9714 9.82712 11.9713 10.471V10.471ZM7.97763 14.2776C8.03637 14.4164 8.72248 14.7572 10.0299 14.7572C11.3374 14.7572 12.0235 14.4164 12.0823 14.2776C12.0805 13.262 11.1718 12.4355 10.0509 12.4253C10.0393 12.4255 10.0277 12.4262 10.0161 12.4262C10.0089 12.4262 10.0017 12.4257 9.9945 12.4256C8.88031 12.4429 7.97944 13.2666 7.97767 14.2776L7.97763 14.2776ZM10.0161 9.51408C9.7623 9.51408 9.51896 9.61491 9.33946 9.79429C9.16008 9.97377 9.05924 10.2171 9.05924 10.4709C9.05924 10.7247 9.16007 10.968 9.33946 11.1475C9.51893 11.3269 9.7623 11.4277 10.0161 11.4277C10.2698 11.4277 10.5132 11.3269 10.6927 11.1475C10.8721 10.968 10.9729 10.7247 10.9729 10.4709C10.9726 10.2172 10.8717 9.97407 10.6923 9.7947C10.5129 9.61532 10.2698 9.51438 10.0161 9.5141L10.0161 9.51408ZM8.78955 8.18681C8.47348 8.35767 8.19605 8.59194 7.97456 8.87492C7.69414 8.74922 7.39068 8.68325 7.08333 8.68118C7.07174 8.68137 7.06015 8.68207 7.04856 8.68207C7.04133 8.68207 7.0342 8.68157 7.02697 8.68147C5.91278 8.69871 5.01191 9.5224 5.01013 10.5334C5.06887 10.6723 5.75498 11.013 7.06244 11.013C7.20874 11.013 7.34682 11.0085 7.47756 11.0008C7.55026 11.3478 7.69358 11.676 7.8987 11.9651C7.62097 11.9953 7.34185 12.0104 7.06244 12.0101C6.34077 12.0101 5.66071 11.9141 5.14752 11.7398C4.15929 11.404 4.01172 10.8417 4.01172 10.5365C4.01172 9.45979 4.65286 8.52061 5.59691 8.03508C5.25766 7.6592 5.0774 7.16642 5.09414 6.66037C5.11088 6.15443 5.32314 5.67454 5.68644 5.32193C6.04965 4.96932 6.53559 4.77121 7.04183 4.76953C7.54818 4.76785 8.0353 4.96258 8.40099 5.31272C8.76669 5.66295 8.98222 6.14127 9.00232 6.64721C9.02243 7.15305 8.84563 7.64702 8.50896 8.02519C8.60524 8.07412 8.69894 8.1281 8.78956 8.18684L8.78955 8.18681ZM7.04857 5.77003C6.7948 5.77003 6.55145 5.87086 6.37195 6.05024C6.19257 6.22972 6.09174 6.47309 6.09174 6.72686C6.09174 6.98063 6.19257 7.22397 6.37195 7.40347C6.55143 7.58285 6.7948 7.68369 7.04857 7.68369C7.30233 7.68369 7.54568 7.58286 7.72518 7.40347C7.90456 7.224 8.0054 6.98063 8.0054 6.72686C8.0051 6.47319 7.90417 6.23002 7.7248 6.05065C7.54542 5.87127 7.30226 5.77033 7.04859 5.77005L7.04857 5.77003Z" fill="white"/>
</g>
<rect x="0.5" y="0.5" width="18.9987" height="19" rx="9.49934" stroke="white"/>
<defs>
<clipPath id="clip0_703_6150">
<rect width="12" height="11.5436" fill="white" transform="translate(4 4.22827)"/>
</clipPath>
</defs>
</svg>
