<svg width="21" height="15" viewBox="0 0 21 15" fill="none" xmlns="http://www.w3.org/2000/svg">
<g clip-path="url(#clip0_826_2836)">
<path d="M2.93496 0.360962C1.74698 0.360962 0.794922 1.36364 0.794922 2.55311V12.4287C0.794922 13.6182 1.74702 14.6283 2.93496 14.6283H18.6292C19.8172 14.6283 20.7693 13.6182 20.7693 12.4287V2.55311C20.7693 1.36364 19.8172 0.360962 18.6292 0.360962H2.93496ZM3.03896 1.7878H18.5328L11.2058 8.74321C10.9393 8.99633 10.6409 8.99667 10.3735 8.74321L3.03896 1.7878ZM2.22155 2.97676L7.08143 7.58398L2.22155 12.429V2.97676ZM19.3426 2.97676V12.429L14.4976 7.57633L19.3426 2.97676ZM13.4721 8.55765L18.1014 13.2022H3.46996L8.11455 8.56529L9.39277 9.77646C10.1675 10.5108 11.4123 10.5119 12.1869 9.77646L13.4721 8.55765Z" fill="#0070BA"/>
</g>
<defs>
<clipPath id="clip0_826_2836">
<rect width="20" height="14.2994" fill="white" transform="translate(0.792969 0.350342)"/>
</clipPath>
</defs>
</svg>
