<svg width="21" height="20" viewBox="0 0 21 20" fill="none" xmlns="http://www.w3.org/2000/svg">
<path d="M10.5002 19.9998C11.7193 20.003 12.9283 19.7787 14.0653 19.3385L17.4659 19.9577C18.2974 20.1103 19.1508 19.8445 19.7486 19.2468C20.3463 18.6491 20.6121 17.7956 20.4595 16.9641L19.8374 13.5635C20.2774 12.427 20.5018 11.2185 20.4987 9.99986C20.4987 7.34775 19.4452 4.80438 17.5699 2.92888C15.6946 1.05359 13.1507 0 10.4989 0C7.84678 0 5.3034 1.05355 3.42791 2.92888C1.55261 4.80434 0.499023 7.34804 0.499023 9.99986C0.499023 12.6517 1.55257 15.1953 3.42791 17.0708C5.30336 18.9461 7.84706 19.9997 10.4989 19.9997L10.5002 19.9998ZM10.5002 1.42848C12.7735 1.42848 14.9537 2.33154 16.561 3.939C18.1685 5.54646 19.0715 7.72661 19.0715 9.99978C19.0738 11.1025 18.8584 12.1949 18.4373 13.214L18.3573 13.4084L19.0537 17.2177C19.1224 17.5879 19.0042 17.968 18.7381 18.2341C18.4719 18.5004 18.0916 18.6183 17.7216 18.5498L13.9123 17.8568L13.7179 17.9369C12.6977 18.3583 11.6041 18.5738 10.5001 18.5711C8.22689 18.5711 6.0467 17.6681 4.43936 16.0606C2.8319 14.4531 1.92885 12.273 1.92885 9.99982C1.92885 7.72665 2.8319 5.54638 4.43936 3.93904C6.04682 2.33158 8.22706 1.42848 10.5002 1.42848Z" fill="white"/>
<path d="M5.56064 12.1683H15.0606C15.0606 12.1683 15.7745 12.1551 15.7745 11.4515C15.7745 10.748 15.0606 10.748 15.0606 10.748H5.56064C4.87565 10.748 4.87565 11.3767 4.87565 11.4069C4.87565 12.1683 5.56064 12.1683 5.56064 12.1683Z" fill="white"/>
<path d="M5.56064 9.39575H15.0606C15.0606 9.39575 15.7745 9.38259 15.7745 8.67902C15.7745 7.97546 15.0606 7.97546 15.0606 7.97546H5.56064C4.87565 7.97546 4.87565 8.60421 4.87565 8.6344C4.87565 9.39575 5.56064 9.39575 5.56064 9.39575Z" fill="white"/>
</svg>
