<svg width="19" height="19" viewBox="0 0 19 19" fill="none" xmlns="http://www.w3.org/2000/svg">
<g clip-path="url(#clip0_826_2839)">
<path fill-rule="evenodd" clip-rule="evenodd" d="M5.31381 2.16853C5.14885 2.00356 4.88136 2.00356 4.71641 2.16853L3.28694 3.598C2.34411 4.54083 2.08487 5.96978 2.63669 7.18374C4.54542 11.3829 7.91097 14.7484 12.1099 16.6569C13.3238 17.2087 14.7528 16.9497 15.6956 16.0067L17.1251 14.5772C17.2902 14.4122 17.2902 14.1447 17.1251 13.9798L15.2023 12.0568C15.0736 11.9283 14.8773 11.8963 14.7146 11.9778L13.6474 12.5113C12.4321 13.119 10.9641 12.8807 10.0034 11.9198L7.37372 9.29019C6.41284 8.32948 6.1746 6.86147 6.78231 5.64615L7.3159 4.57897C7.39727 4.41641 7.36527 4.21996 7.23677 4.0913L5.31381 2.16853ZM3.6265 1.07862C4.39336 0.311765 5.63687 0.311765 6.40372 1.07862L8.32654 3.00161C8.92429 3.59919 9.07243 4.51229 8.69449 5.26832L8.1609 6.3355C7.84989 6.95752 7.97185 7.70874 8.46348 8.20037L11.0933 10.8302C11.5849 11.3218 12.3362 11.4438 12.9582 11.1328L14.0254 10.5992C14.7814 10.2213 15.6944 10.3694 16.2921 10.9671L18.2151 12.8899C18.9819 13.657 18.9819 14.9003 18.2151 15.6672L16.7856 17.0966C15.3884 18.4938 13.2711 18.8777 11.4721 18.0601C6.93369 15.9971 3.29626 12.36 1.23358 7.82159C0.415991 6.02278 0.799916 3.90541 2.19706 2.50812L3.6265 1.07862Z" fill="#0070BA"/>
</g>
<defs>
<clipPath id="clip0_826_2839">
<rect width="18" height="18" fill="white" transform="translate(0.792969 0.5)"/>
</clipPath>
</defs>
</svg>
