<svg width="320" height="288" viewBox="0 0 320 288" fill="none" xmlns="http://www.w3.org/2000/svg">
<g opacity="0.3">
<path d="M272.617 131.494V125.771H271.439V125.125H274.488V125.771H273.317V131.494H272.617Z" fill="white"/>
<path d="M276.555 128.745L275.487 131.466H274.807L276.093 128.18L274.888 125.098H275.623L276.61 127.642L277.603 125.098H278.283L277.093 128.18L278.365 131.466H277.61L276.555 128.745Z" fill="white"/>
<path d="M279.842 131.494V125.771H278.672V125.125H281.72V125.771H280.543V131.494H279.842Z" fill="white"/>
</g>
<g opacity="0.3">
<path d="M169.291 218.761H195.35" stroke="#263238" stroke-miterlimit="10"/>
<path d="M169.291 223.592H195.35" stroke="#263238" stroke-miterlimit="10"/>
<path d="M166.787 200.479V194.757H165.617V194.11H168.665V194.757H167.488V200.479H166.787Z" fill="white"/>
<path d="M170.727 197.73L169.659 200.452H168.979L170.258 197.165L169.06 194.083H169.795L170.775 196.628L171.768 194.083H172.449L171.251 197.165L172.53 200.452H171.782L170.727 197.73Z" fill="white"/>
<path d="M174.056 200.479V194.757H172.879V194.11H175.927V194.757H174.736V200.479H174.056Z" fill="white"/>
</g>
<g opacity="0.3">
<path d="M47.3379 115.675V121.193H53.8425L47.3379 115.675Z" fill="white" stroke="#263238" stroke-linejoin="round"/>
</g>
<g opacity="0.3">
<path d="M20.6456 222.681V223.11H19.6726V224.94H19.2031V220.715H20.8837V221.143H19.6726V222.681H20.6456Z" fill="white"/>
</g>
<g opacity="0.3">
<path d="M288.64 21.7588C289.321 21.7588 289.586 22.1466 289.586 22.793V23.2965C289.586 23.9769 289.273 24.3171 288.599 24.3171H288.184V25.9841H287.715V21.7588H288.64ZM288.599 23.8952C288.953 23.8952 289.123 23.7319 289.123 23.3237V22.793C289.123 22.4052 288.98 22.2147 288.64 22.2147H288.184V23.9225L288.599 23.8952Z" fill="white"/>
<path d="M290.961 21.7588C291.642 21.7588 291.921 22.1534 291.921 22.8066V24.9362C291.921 25.5826 291.621 25.9841 290.961 25.9841H289.975V21.7588H290.961ZM290.961 25.5554C291.301 25.5554 291.465 25.3445 291.465 24.9567V22.793C291.465 22.4052 291.301 22.1942 290.954 22.1942H290.451V25.5962L290.961 25.5554Z" fill="white"/>
<path d="M293.804 23.7251V24.1538H292.831V25.9841H292.361V21.7588H294.042V22.1874H292.831V23.7251H293.804Z" fill="white"/>
</g>
<path d="M270.998 8.22571H43.4316V186.089H270.998V8.22571Z" fill="#263238" stroke="#263238" stroke-miterlimit="10"/>
<path d="M279.066 1.26562H50.8125V179.551H279.066V1.26562Z" fill="#7E57CA"/>
<path d="M279.066 1.26562H50.8125V179.551H279.066V1.26562Z" fill="white" stroke="#263238" stroke-linecap="round" stroke-linejoin="round"/>
<path d="M105.334 26.5293H57.0254V57.1472H105.334V26.5293Z" fill="white" stroke="#263238" stroke-linecap="round" stroke-linejoin="round"/>
<path d="M70.2949 39.8037H90.7069" stroke="#263238" stroke-miterlimit="10"/>
<path d="M65.1934 44.9062H98.8731" stroke="#263238" stroke-miterlimit="10"/>
<path d="M105.334 62.9297H57.0254V93.5476H105.334V62.9297Z" fill="white" stroke="#263238" stroke-linecap="round" stroke-linejoin="round"/>
<path d="M62.0547 70.1973H78.9966" stroke="#263238" stroke-miterlimit="10"/>
<path d="M62.0547 74.252H78.9966" stroke="#263238" stroke-miterlimit="10"/>
<path d="M62.0547 78.3066H78.9966" stroke="#263238" stroke-miterlimit="10"/>
<path d="M62.0547 82.3623H78.9966" stroke="#263238" stroke-miterlimit="10"/>
<path d="M62.0547 86.418H78.9966" stroke="#263238" stroke-miterlimit="10"/>
<path d="M83.0312 70.1973H99.9732" stroke="#263238" stroke-miterlimit="10"/>
<path d="M83.0312 74.2529H99.9732" stroke="#263238" stroke-miterlimit="10"/>
<path d="M83.0312 78.3066H99.9732" stroke="#263238" stroke-miterlimit="10"/>
<path d="M83.0312 82.3623H99.9732" stroke="#263238" stroke-miterlimit="10"/>
<path d="M83.0312 86.418H99.9732" stroke="#263238" stroke-miterlimit="10"/>
<path d="M105.334 99.3311H57.0254V129.949H105.334V99.3311Z" fill="white" stroke="#263238" stroke-linecap="round" stroke-linejoin="round"/>
<path d="M62.0547 106.598H78.9966" stroke="#263238" stroke-miterlimit="10"/>
<path d="M62.0547 110.653H78.9966" stroke="#263238" stroke-miterlimit="10"/>
<path d="M62.0547 114.708H78.9966" stroke="#263238" stroke-miterlimit="10"/>
<path d="M62.0547 118.764H78.9966" stroke="#263238" stroke-miterlimit="10"/>
<path d="M62.0547 122.818H78.9966" stroke="#263238" stroke-miterlimit="10"/>
<path d="M83.0312 106.598H99.9732" stroke="#263238" stroke-miterlimit="10"/>
<path d="M83.0312 110.653H99.9732" stroke="#263238" stroke-miterlimit="10"/>
<path d="M83.0312 114.708H99.9732" stroke="#263238" stroke-miterlimit="10"/>
<path d="M83.0312 118.764H99.9732" stroke="#263238" stroke-miterlimit="10"/>
<path d="M83.0312 122.818H99.9732" stroke="#263238" stroke-miterlimit="10"/>
<path d="M105.334 135.732H57.0254V166.35H105.334V135.732Z" fill="white" stroke="#263238" stroke-linecap="round" stroke-linejoin="round"/>
<path d="M62.0547 142.999H78.9966" stroke="#263238" stroke-miterlimit="10"/>
<path d="M62.0547 147.055H78.9966" stroke="#263238" stroke-miterlimit="10"/>
<path d="M62.0547 151.11H78.9966" stroke="#263238" stroke-miterlimit="10"/>
<path d="M62.0547 155.165H78.9966" stroke="#263238" stroke-miterlimit="10"/>
<path d="M62.0547 159.221H78.9966" stroke="#263238" stroke-miterlimit="10"/>
<path d="M83.0312 142.999H99.9732" stroke="#263238" stroke-miterlimit="10"/>
<path d="M83.0312 147.055H99.9732" stroke="#263238" stroke-miterlimit="10"/>
<path d="M83.0312 151.11H99.9732" stroke="#263238" stroke-miterlimit="10"/>
<path d="M83.0312 155.165H99.9732" stroke="#263238" stroke-miterlimit="10"/>
<path d="M83.0312 159.221H99.9732" stroke="#263238" stroke-miterlimit="10"/>
<path d="M279.061 1.26562H112.139V179.551H279.061V1.26562Z" fill="#F6F6F6" stroke="#263238" stroke-linecap="round" stroke-linejoin="round"/>
<path d="M267.947 35.041H116.898V137.781H267.947V35.041Z" fill="white" stroke="#263238" stroke-linecap="round" stroke-linejoin="round"/>
<path d="M151.996 75.8232H234.896" stroke="#263238" stroke-miterlimit="10"/>
<path d="M140.729 84.832H246.163" stroke="#263238" stroke-miterlimit="10"/>
<path d="M279.061 1.26562H273.162V179.551H279.061V1.26562Z" fill="#DBDBDB" stroke="#263238" stroke-miterlimit="10"/>
<path d="M279.061 56.5H273.162V104.672H279.061V56.5Z" fill="#7E57CA"/>
<path d="M279.066 1.26562H50.8125V12.846H279.066V1.26562Z" fill="#7E57CA" stroke="#263238" stroke-linecap="round" stroke-linejoin="round"/>
<path d="M212.573 3.23926H65.8242V9.77109H212.573V3.23926Z" fill="white"/>
<path d="M267.944 16.9424H256.615" stroke="#263238" stroke-miterlimit="10"/>
<path d="M267.944 20.4316H256.615" stroke="#263238" stroke-miterlimit="10"/>
<path d="M267.944 23.916H256.615" stroke="#263238" stroke-miterlimit="10"/>
<path d="M281.557 252.388L284.312 244.509" stroke="#263238" stroke-linecap="round" stroke-linejoin="round"/>
<path d="M281.754 231.11V260.463" stroke="#263238" stroke-linecap="round" stroke-linejoin="round"/>
<path d="M277.236 246.338C277.236 246.338 273.154 241.882 269.072 242.623C264.989 243.365 263.125 248.203 263.125 251.176C263.125 254.149 267.207 263.811 267.207 263.811C267.207 263.811 270.181 260.47 276.876 255.646C283.571 250.822 283.932 245.964 277.236 246.338Z" fill="#7E57CA" stroke="#263238" stroke-linecap="round" stroke-linejoin="round"/>
<path d="M277.237 246.338C273.733 248.323 270.892 251.298 269.072 254.891" stroke="#263238" stroke-linecap="round" stroke-linejoin="round"/>
<path d="M283.904 241.107C283.904 241.107 287.306 237.44 290.646 238.059C293.987 238.678 295.538 242.665 295.532 245.114C295.525 247.564 292.13 255.525 292.13 255.525C289.71 253.016 287.05 250.751 284.189 248.761C278.685 244.767 278.386 240.787 283.904 241.107Z" fill="#7E57CA" stroke="#263238" stroke-linecap="round" stroke-linejoin="round"/>
<path d="M283.904 241.106C286.792 242.745 289.129 245.202 290.62 248.169" stroke="#263238" stroke-linecap="round" stroke-linejoin="round"/>
<path d="M281.162 236.233L286.286 228.742" stroke="#263238" stroke-linecap="round" stroke-linejoin="round"/>
<path d="M280.305 234.064C280.305 234.064 280.223 229.084 277.291 227.308C274.358 225.532 270.582 227.492 268.956 229.349C267.33 231.206 264.547 239.358 264.547 239.358C264.547 239.358 268.207 238.915 274.977 239.596C281.747 240.276 284.632 237.493 280.305 234.064Z" fill="#7E57CA" stroke="#263238" stroke-linecap="round" stroke-linejoin="round"/>
<path d="M280.304 234.064C277.057 233.369 273.677 233.648 270.588 234.867" stroke="#263238" stroke-linecap="round" stroke-linejoin="round"/>
<path d="M284.707 227.383C284.707 227.383 284.768 223.715 286.925 222.409C289.082 221.102 291.872 222.545 293.049 223.892C294.226 225.239 296.281 231.274 296.281 231.274C293.723 231.083 291.152 231.142 288.606 231.451C283.639 231.948 281.557 229.907 284.707 227.383Z" fill="#7E57CA" stroke="#263238" stroke-linecap="round" stroke-linejoin="round"/>
<path d="M284.707 227.383C287.097 226.87 289.585 227.076 291.858 227.975" stroke="#263238" stroke-linecap="round" stroke-linejoin="round"/>
<path d="M294.273 257.945H267.867L270.541 285.433H291.599L294.273 257.945Z" fill="white" stroke="#263238" stroke-linecap="round" stroke-linejoin="round"/>
<path d="M287.272 269.921C287.272 270.155 287.341 270.384 287.471 270.579C287.601 270.774 287.786 270.925 288.002 271.015C288.219 271.105 288.457 271.128 288.686 271.082C288.916 271.037 289.127 270.924 289.293 270.758C289.458 270.593 289.571 270.382 289.617 270.152C289.662 269.923 289.639 269.684 289.549 269.468C289.46 269.252 289.308 269.067 289.113 268.937C288.918 268.807 288.69 268.737 288.455 268.737C288.3 268.736 288.145 268.766 288.001 268.826C287.857 268.885 287.726 268.972 287.616 269.082C287.506 269.192 287.419 269.323 287.36 269.467C287.301 269.611 287.271 269.765 287.272 269.921Z" fill="#263238" stroke="#263238" stroke-linecap="round" stroke-linejoin="round"/>
<path d="M282.92 269.921C282.92 270.155 282.989 270.384 283.119 270.579C283.25 270.774 283.434 270.925 283.651 271.015C283.867 271.105 284.105 271.128 284.335 271.082C284.564 271.037 284.775 270.924 284.941 270.758C285.107 270.593 285.219 270.382 285.265 270.152C285.311 269.923 285.287 269.684 285.198 269.468C285.108 269.252 284.956 269.067 284.762 268.937C284.567 268.807 284.338 268.737 284.104 268.737C283.948 268.736 283.794 268.766 283.65 268.826C283.506 268.885 283.375 268.972 283.265 269.082C283.155 269.192 283.067 269.323 283.008 269.467C282.949 269.611 282.919 269.765 282.92 269.921Z" fill="#263238" stroke="#263238" stroke-linecap="round" stroke-linejoin="round"/>
<path d="M268.745 266.961H293.395L293.511 265.784H268.629L268.745 266.961Z" fill="#263238" stroke="#263238" stroke-linecap="round" stroke-linejoin="round"/>
<path d="M292.341 277.799L292.838 272.676H269.303L269.799 277.799H292.341Z" fill="#263238" stroke="#263238" stroke-linecap="round" stroke-linejoin="round"/>
<path d="M291.607 269.92C291.607 270.075 291.638 270.229 291.698 270.372C291.757 270.516 291.845 270.646 291.955 270.755C292.065 270.864 292.195 270.951 292.339 271.01C292.482 271.069 292.636 271.098 292.791 271.097H292.995L293.213 268.838C293.078 268.787 292.936 268.759 292.791 268.757C292.481 268.757 292.183 268.879 291.961 269.096C291.74 269.314 291.613 269.61 291.607 269.92Z" fill="#263238" stroke="#263238" stroke-linecap="round" stroke-linejoin="round"/>
<path d="M278.605 269.921C278.605 270.155 278.675 270.384 278.805 270.579C278.935 270.774 279.12 270.925 279.336 271.015C279.553 271.105 279.791 271.128 280.02 271.082C280.25 271.037 280.461 270.924 280.627 270.758C280.792 270.593 280.905 270.382 280.951 270.152C280.996 269.923 280.973 269.684 280.883 269.468C280.794 269.252 280.642 269.067 280.447 268.937C280.252 268.807 280.024 268.737 279.789 268.737C279.634 268.736 279.479 268.766 279.335 268.826C279.191 268.885 279.06 268.972 278.95 269.082C278.84 269.192 278.753 269.323 278.694 269.467C278.635 269.611 278.605 269.765 278.605 269.921Z" fill="#263238" stroke="#263238" stroke-linecap="round" stroke-linejoin="round"/>
<path d="M269.936 269.921C269.936 270.155 270.005 270.384 270.135 270.579C270.265 270.774 270.45 270.925 270.666 271.015C270.883 271.105 271.121 271.128 271.35 271.082C271.58 271.037 271.791 270.924 271.957 270.758C272.122 270.593 272.235 270.382 272.281 270.152C272.326 269.923 272.303 269.684 272.213 269.468C272.124 269.252 271.972 269.067 271.777 268.937C271.582 268.807 271.354 268.737 271.119 268.737C270.964 268.736 270.809 268.766 270.665 268.826C270.521 268.885 270.39 268.972 270.28 269.082C270.17 269.192 270.083 269.323 270.024 269.467C269.965 269.611 269.935 269.765 269.936 269.921Z" fill="#263238" stroke="#263238" stroke-linecap="round" stroke-linejoin="round"/>
<path d="M274.27 269.921C274.27 270.155 274.339 270.384 274.469 270.579C274.599 270.774 274.784 270.925 275 271.015C275.217 271.105 275.455 271.128 275.684 271.082C275.914 271.037 276.125 270.924 276.291 270.758C276.456 270.593 276.569 270.382 276.615 270.152C276.66 269.923 276.637 269.684 276.547 269.468C276.458 269.252 276.306 269.067 276.111 268.937C275.916 268.807 275.688 268.737 275.453 268.737C275.298 268.736 275.143 268.766 274.999 268.826C274.855 268.885 274.724 268.972 274.614 269.082C274.504 269.192 274.417 269.323 274.358 269.467C274.299 269.611 274.269 269.765 274.27 269.921Z" fill="#263238" stroke="#263238" stroke-linecap="round" stroke-linejoin="round"/>
<path d="M101.435 285.502C104.701 281.474 110.532 274.37 112.539 272.506C114.47 270.657 116.288 268.694 117.983 266.627C117.983 266.627 114.533 273.316 120.412 278.589C126.29 283.862 143.736 279.807 147.587 276.969C151.438 274.132 151.846 266.831 148.403 256.081C144.961 245.331 140.082 225.463 140.286 218.564C140.49 211.665 136.027 192.199 133.999 186.925C131.972 181.652 123.657 177.801 115.139 175.978C106.62 174.154 83.7042 183.68 83.7042 183.68L79.0435 185.503C79.0435 185.503 59.9923 196.05 54.9097 200.309C49.8272 204.568 52.2698 216.332 51.0587 227.688C49.8476 239.044 49.8408 252.23 49.8408 252.23C49.8408 252.23 38.0767 262.572 29.5581 274.329C25.4757 279.99 23.1011 283.44 21.7539 285.502H101.435Z" fill="#7E57CA" stroke="#263238" stroke-miterlimit="10"/>
<path d="M143.26 263.532C143.26 263.532 136.456 261.933 129.326 266.716C122.195 271.5 124.141 278.664 130.517 280.256C136.892 281.848 145.254 281.848 149.636 275.078C154.018 268.308 146.451 263.131 143.26 263.532Z" fill="white" stroke="#263238" stroke-miterlimit="10"/>
<path d="M144.954 263.469C141.14 262.864 137.24 263.756 134.068 265.96C128.475 269.688 130.026 275.288 135 276.533C139.974 277.778 146.506 277.778 149.928 272.491C153.35 267.205 147.438 263.163 144.954 263.469Z" fill="white" stroke="#263238" stroke-miterlimit="10"/>
<path d="M129.211 218.115C129.435 214.414 129.578 211.89 129.578 211.665" stroke="#263238" stroke-miterlimit="10"/>
<path d="M118.016 266.627C118.016 266.627 125.316 259.53 126.527 251.413C127.283 246.412 128.262 232.784 128.902 222.87" stroke="#263238" stroke-miterlimit="10"/>
<path d="M137.835 231.859C135.998 237.765 132.596 246.631 127.344 252.632" stroke="#263238" stroke-miterlimit="10"/>
<path d="M139.51 225.661C139.51 225.661 139.225 227.022 138.619 229.199" stroke="#263238" stroke-miterlimit="10"/>
<path d="M138.872 248.787C135.286 252.895 131.049 256.387 126.332 259.122" stroke="#263238" stroke-miterlimit="10"/>
<path d="M142.349 244.316C141.606 245.436 140.799 246.513 139.934 247.542" stroke="#263238" stroke-miterlimit="10"/>
<path d="M149.451 261.559C142.684 259.508 135.443 259.648 128.76 261.96C117.405 265.818 118.622 274.534 119.636 275.956" stroke="#263238" stroke-miterlimit="10"/>
<path d="M118.669 120.233C118.669 120.233 118.669 117.844 115.383 112.748C112.097 107.652 95.3658 109.761 89.6913 115.436C84.0168 121.11 92.0795 128.282 88.4938 132.446C84.9081 136.61 72.9603 134.535 69.0752 142.005C65.1901 149.476 75.0491 153.055 77.1448 155.743C79.2404 158.43 73.5591 159.328 74.1578 162.016C74.7566 164.703 84.01 165.003 84.01 165.003C84.01 165.003 78.0361 166.799 81.023 169.187C85.1393 172.3 90.2096 173.885 95.3658 173.671C101.34 173.372 99.8429 161.716 99.2509 153.055C98.659 144.394 106.416 134.834 115.383 135.725C124.351 136.617 133.904 146.782 132.393 151.266C130.883 155.749 134.781 150.367 142.851 145.285C150.92 140.202 147.335 129.751 145.572 127.663C143.81 125.574 137.809 124.975 136.612 121.09C135.414 117.205 132.727 113.327 127.651 113.327C122.575 113.327 123.745 119.933 118.669 120.233Z" fill="#263238" stroke="#263238" stroke-miterlimit="10"/>
<path d="M93.0872 173.944C93.0872 173.944 89.2362 174.957 87.644 176.992C86.0519 179.026 79.4792 182.687 79.0778 185.504C78.6764 188.321 81.119 202.949 85.9702 208.828C90.8215 214.706 93.2709 215.115 93.2709 215.115C93.2709 215.115 94.693 209.44 95.7068 209.032C96.7205 208.624 106.049 214.475 106.049 214.475C106.049 214.475 107.668 204.949 108.689 204.949C109.709 204.949 112.941 208.195 112.941 208.195C112.941 208.195 114.159 200.078 113.349 193.791C112.54 187.504 107.267 179.802 103.416 177.162C99.5646 174.522 96.4892 172.12 93.0872 173.944Z" fill="white" stroke="#263238" stroke-miterlimit="10"/>
<path d="M95.0664 166.241L87.582 184.163C87.582 184.163 89.5076 192.511 92.0386 197.88C95.4883 205.18 104.014 208.657 104.014 208.657C103.959 204.423 104.878 200.233 106.701 196.41C108.404 192.957 110.403 189.659 112.675 186.551C112.675 186.551 99.2509 173.413 95.0664 166.241Z" fill="white" stroke="#263238" stroke-miterlimit="10"/>
<path d="M96.998 173.038C96.998 173.038 100.434 192.682 105.347 198.819L110.007 189.974L97.7601 170.82L96.998 173.038Z" fill="#263238" stroke="#263238" stroke-miterlimit="10"/>
<path d="M94.0801 231.343C94.0801 231.343 106.048 200.106 107.688 198.282C109.328 196.459 112.961 193.213 114.587 190.981C116.213 188.75 120.67 183.075 122.296 183.075C123.922 183.075 127.739 184.49 129.597 184.899C131.454 185.307 132.638 185.912 132.836 188.981C133.033 192.05 130.407 192.227 130.407 192.227L129.393 191.009C129.393 191.009 122.092 201.963 119.867 203.378C118.538 204.234 117.107 204.919 115.608 205.419L105.871 241.726L94.0801 231.343Z" fill="white" stroke="#263238" stroke-miterlimit="10"/>
<path d="M136.292 140.768C136.292 140.768 139.13 143.135 137.238 151.164C135.347 159.193 134.877 163.214 134.877 167.943C134.877 172.671 133.462 179.285 129.434 183.537C125.406 187.79 120.46 193.934 114.554 193.696C105.198 193.322 100.612 180.462 97.5438 174.556C94.4752 168.65 93.7676 160.615 93.7676 157.308C93.7676 154.001 94.2371 146.204 98.4895 140.298C102.742 134.392 114.322 132.031 119.283 132.739C124.243 133.446 130.387 134.154 136.292 140.768Z" fill="white" stroke="#263238" stroke-miterlimit="10"/>
<path d="M95.8891 162.036C95.8891 162.036 96.8348 158.73 101.087 156.838C105.34 154.947 107.939 151.64 106.531 148.565C105.122 145.489 105.85 142.441 111.974 140.767C118.097 139.093 119.771 145.258 125.677 144.312C131.583 143.366 133.236 141.005 136.305 142.421C139.373 143.836 137.958 147.864 137.958 147.864C137.958 147.864 141.741 141.012 134.42 133.215C127.099 125.417 109.375 122.58 97.0866 131.561C84.7986 140.543 91.8883 161.567 91.8883 161.567C91.8883 161.567 92.5823 162.506 95.8891 162.036Z" fill="#263238" stroke="#263238" stroke-miterlimit="10"/>
<path d="M125.426 166.051L124.719 179.754L119.752 177.863" stroke="#263238" stroke-miterlimit="10"/>
<path d="M121.662 184.727C121.662 184.727 116.94 185.407 114.81 182.128" stroke="#263238" stroke-miterlimit="10"/>
<path d="M116.43 165.908C116.212 167.269 115.457 168.262 114.749 168.146C114.041 168.031 113.647 166.84 113.865 165.486C114.082 164.132 114.838 163.132 115.545 163.247C116.253 163.363 116.647 164.554 116.43 165.908Z" fill="#263238"/>
<path d="M131.571 166.289C131.353 167.65 130.598 168.644 129.89 168.528C129.183 168.412 128.781 167.222 129.006 165.874C129.23 164.527 129.979 163.513 130.686 163.629C131.394 163.745 131.789 164.935 131.571 166.289Z" fill="#263238"/>
<path d="M110.396 159.736C110.396 159.736 115.479 155.307 119.575 158.75" stroke="#263238" stroke-width="2" stroke-miterlimit="10" stroke-linecap="round"/>
<path d="M128.263 158.75C128.263 158.75 131.706 155.804 134.659 158.586" stroke="#263238" stroke-width="2" stroke-miterlimit="10" stroke-linecap="round"/>
<path d="M122.855 162.689C122.855 162.689 115.643 161.539 104.485 163.369C104.485 163.369 103.505 170.908 108.751 174.187C113.997 177.467 119.079 174.351 120.385 172.548C123.025 168.955 122.855 162.689 122.855 162.689Z" stroke="#263238" stroke-width="2" stroke-miterlimit="10"/>
<path d="M139.407 161.655C139.407 161.655 134.249 160.56 126.275 162.281C126.275 162.281 125.595 169.493 129.323 172.623C133.052 175.753 136.713 172.78 137.651 171.058C139.502 167.649 139.407 161.655 139.407 161.655Z" stroke="#263238" stroke-width="2" stroke-miterlimit="10"/>
<path d="M122.854 162.689C122.854 162.689 123.629 160.567 126.256 162.281" stroke="#263238" stroke-width="2" stroke-miterlimit="10"/>
<path d="M93.5078 158.913L104.489 163.342" stroke="#263238" stroke-width="2" stroke-miterlimit="10"/>
<path d="M96.8371 163.214C96.8371 163.214 95.1838 153.532 90.7136 158.254C86.2433 162.976 90.2441 167.705 92.3669 169.821C94.4898 171.937 97.1297 169.821 97.1297 169.821" fill="white"/>
<path d="M96.8371 163.214C96.8371 163.214 95.1838 153.532 90.7136 158.254C86.2433 162.976 90.2441 167.705 92.3669 169.821C94.4898 171.937 97.1297 169.821 97.1297 169.821" stroke="#263238" stroke-miterlimit="10"/>
<path d="M79.1317 210.95C82.0431 216.352 84.0127 222.21 84.9559 228.273C86.3779 238.01 86.1738 239.84 86.1738 239.84L93.2703 231.328C93.2703 231.328 104.837 239.438 106.654 242.072C108.47 244.705 108.695 245.521 108.695 245.521C108.695 245.521 108.695 261.341 102 270.873C95.3047 280.405 92.0592 280.398 85.575 280.398C79.0908 280.398 70.7696 274.309 66.3061 264.171C61.8427 254.033 58.189 239.248 57.3793 237.799C56.5696 236.349 53.9297 228.273 53.9297 228.273" fill="#7E57CA"/>
<path d="M79.1317 210.95C82.0431 216.352 84.0127 222.21 84.9559 228.273C86.3779 238.01 86.1738 239.84 86.1738 239.84L93.2703 231.328C93.2703 231.328 104.837 239.438 106.654 242.072C108.47 244.705 108.695 245.521 108.695 245.521C108.695 245.521 108.695 261.341 102 270.873C95.3047 280.405 92.0592 280.398 85.575 280.398C79.0908 280.398 70.7696 274.309 66.3061 264.171C61.8427 254.033 58.189 239.248 57.3793 237.799C56.5696 236.349 53.9297 228.273 53.9297 228.273" stroke="#263238" stroke-miterlimit="10"/>
<path d="M76.4708 251.74C75.7291 252.611 75.11 253.339 74.6133 253.849" stroke="#263238" stroke-miterlimit="10"/>
<path d="M86.1762 239.84C86.1762 239.84 82.3864 244.603 78.9844 248.719" stroke="#263238" stroke-miterlimit="10"/>
<path d="M87.1871 238.839C91.5979 240.112 95.8246 241.954 99.7609 244.316C106.653 248.399 107.245 252.835 109.286 251.216C111.328 249.596 112.933 244.521 110.906 241.69C108.878 238.86 102.591 232.165 98.1347 230.123C93.6781 228.082 91.8478 229.307 90.4258 232.355C89.0037 235.403 85.7651 237.016 87.1871 238.839Z" fill="white" stroke="#263238" stroke-miterlimit="10"/>
<path d="M86.9629 255.442C87.0161 257.374 87.3086 259.291 87.8338 261.151" stroke="#263238" stroke-miterlimit="10"/>
<path d="M87.1882 238.839C87.1882 238.839 86.7051 245.643 86.8071 251.977" stroke="#263238" stroke-miterlimit="10"/>
<path d="M94.0801 242.289C94.0801 242.289 95.5021 250.202 97.1283 253.645" stroke="#263238" stroke-miterlimit="10"/>
<path d="M142.151 261.958C142.151 261.958 135.252 274.131 136.266 275.566C137.28 277.002 159.794 275.566 159.794 275.566L161.005 270.701C161.005 270.701 165.673 272.525 169.326 272.525C172.98 272.525 170.136 271.511 168.918 270.293C167.7 269.075 160.604 264.619 159.991 264.21C159.379 263.802 147.622 260.74 142.151 261.958Z" fill="white" stroke="#263238" stroke-miterlimit="10"/>
<path d="M156.84 260.557C156.84 260.557 160.099 259.577 160.97 261.646C161.841 263.714 161.405 272.532 161.079 274.791C160.752 277.05 159.235 276.961 158.582 274.791C157.928 272.621 156.404 260.884 156.404 260.884L156.84 260.557Z" fill="white" stroke="#263238" stroke-miterlimit="10"/>
<path d="M149.996 261.539C149.996 261.539 154.888 258.171 156.303 259.906C157.719 261.641 159.025 275.337 159.454 276.317C159.882 277.297 157.603 278.052 156.732 277.072C155.861 276.093 153.364 271.098 152.609 269.255C151.854 267.411 149.996 261.539 149.996 261.539Z" fill="white" stroke="#263238" stroke-miterlimit="10"/>
<path d="M140.326 265.233C140.326 265.233 143.048 260.232 145.327 258.823C147.606 257.415 150.09 260.014 151.301 261.973C152.512 263.933 153.471 269.036 154.023 271.533C154.574 274.03 156.064 276.854 155.22 277.18C154.376 277.507 150.981 274.683 150.001 273.166C149.022 271.649 146.633 265.777 146.633 265.777" fill="white"/>
<path d="M140.326 265.233C140.326 265.233 143.048 260.232 145.327 258.823C147.606 257.415 150.09 260.014 151.301 261.973C152.512 263.933 153.471 269.036 154.023 271.533C154.574 274.03 156.064 276.854 155.22 277.18C154.376 277.507 150.981 274.683 150.001 273.166C149.022 271.649 146.633 265.777 146.633 265.777" stroke="#263238" stroke-miterlimit="10"/>
<path d="M144.795 274.684C144.795 274.684 140.883 270.88 139.577 269.683C138.27 268.485 136.427 267.948 135.127 269.363C133.827 270.778 133.167 272.513 135.127 274.357C137.087 276.201 141.741 278.623 144.795 278.623C147.85 278.623 147.293 277.099 146.531 276.235C146.015 275.651 145.433 275.131 144.795 274.684Z" fill="white" stroke="#263238" stroke-miterlimit="10"/>
<path d="M106.073 285.435H248.65V281.359H106.073V285.435Z" fill="#F6F6F6" stroke="#263238" stroke-linecap="round" stroke-linejoin="round"/>
<path d="M106.073 285.435H156.123V281.359H106.073V285.435Z" fill="#263238" stroke="#263238" stroke-linecap="round" stroke-linejoin="round"/>
<path d="M152.09 281.345H244.665L250.013 219.776C250.086 219.099 250.015 218.414 249.804 217.768C249.592 217.121 249.245 216.526 248.787 216.024C248.328 215.521 247.767 215.122 247.142 214.852C246.517 214.583 245.842 214.45 245.162 214.462H163.208C161.763 214.489 160.378 215.045 159.315 216.024C158.252 217.003 157.584 218.338 157.438 219.776L152.09 281.345Z" fill="#263238" stroke="#263238" stroke-linecap="round" stroke-linejoin="round"/>
<path d="M153.865 281.345H246.44L251.788 219.776C251.862 219.099 251.79 218.414 251.579 217.768C251.367 217.121 251.021 216.526 250.562 216.024C250.103 215.521 249.543 215.122 248.918 214.852C248.293 214.583 247.617 214.45 246.937 214.462H164.983C163.538 214.489 162.153 215.045 161.09 216.024C160.027 217.003 159.359 218.338 159.213 219.776L153.865 281.345Z" fill="#F6F6F6" stroke="#263238" stroke-linecap="round" stroke-linejoin="round"/>
<path d="M200.771 245.963C200.93 244.391 201.66 242.933 202.823 241.863C203.985 240.794 205.499 240.188 207.078 240.159C207.821 240.146 208.559 240.291 209.242 240.585C209.925 240.879 210.537 241.315 211.039 241.864C211.54 242.413 211.919 243.063 212.15 243.769C212.381 244.476 212.459 245.224 212.378 245.963C212.219 247.534 211.489 248.993 210.327 250.062C209.164 251.132 207.65 251.738 206.071 251.767C205.328 251.78 204.59 251.634 203.907 251.34C203.225 251.046 202.612 250.61 202.111 250.061C201.609 249.512 201.231 248.863 201 248.156C200.769 247.45 200.691 246.702 200.771 245.963Z" fill="#263238" stroke="#263238" stroke-linecap="round" stroke-linejoin="round"/>
<path d="M319 285.434H0.158203" stroke="#263238" stroke-miterlimit="10"/>
</svg>
