<svg width="320" height="320" viewBox="0 0 320 320" fill="none" xmlns="http://www.w3.org/2000/svg">
<path d="M77.1894 198.572L71.8134 199.545L70.7574 193.721L64.3702 194.879L65.4262 200.703L60.0566 201.676L61.2534 208.287L66.623 207.314L67.679 213.138L74.0662 211.986L73.0102 206.156L78.3862 205.183L77.1894 198.572Z" stroke="#92E3A9" stroke-linecap="round" stroke-linejoin="round"/>
<path d="M130.861 109.357L125.709 107.539L127.68 101.958L121.562 99.7949L119.591 105.376L114.439 103.558L112.205 109.894L117.351 111.712L115.379 117.299L121.498 119.456L123.475 113.875L128.621 115.693L130.861 109.357Z" stroke="#92E3A9" stroke-linecap="round" stroke-linejoin="round"/>
<path d="M260.808 176.058L255.982 178.611L253.211 173.376L247.47 176.41L250.242 181.645L245.416 184.198L248.558 190.138L253.384 187.584L256.155 192.813L261.896 189.779L259.125 184.544L263.95 181.99L260.808 176.058Z" stroke="#92E3A9" stroke-linecap="round" stroke-linejoin="round"/>
<path d="M54.7391 184.697C56.9023 184.697 58.6559 182.943 58.6559 180.78C58.6559 178.617 56.9023 176.863 54.7391 176.863C52.5759 176.863 50.8223 178.617 50.8223 180.78C50.8223 182.943 52.5759 184.697 54.7391 184.697Z" stroke="#92E3A9" stroke-linecap="round" stroke-linejoin="round"/>
<path d="M115.751 128.416C115.751 128.621 115.691 128.821 115.577 128.992C115.463 129.162 115.301 129.295 115.111 129.374C114.922 129.452 114.713 129.473 114.512 129.433C114.311 129.393 114.126 129.294 113.981 129.149C113.836 129.004 113.738 128.819 113.698 128.618C113.658 128.417 113.678 128.208 113.757 128.019C113.835 127.829 113.968 127.668 114.139 127.554C114.309 127.44 114.509 127.379 114.715 127.379C114.99 127.379 115.253 127.488 115.448 127.683C115.642 127.877 115.751 128.141 115.751 128.416V128.416Z" stroke="#92E3A9" stroke-linecap="round" stroke-linejoin="round"/>
<path d="M68.3079 110.63C68.3079 111.354 68.0932 112.062 67.691 112.664C67.2887 113.266 66.717 113.735 66.0481 114.013C65.3791 114.29 64.6431 114.362 63.9329 114.221C63.2228 114.08 62.5705 113.731 62.0586 113.219C61.5466 112.707 61.1979 112.055 61.0567 111.345C60.9154 110.634 60.9879 109.898 61.265 109.229C61.5421 108.561 62.0113 107.989 62.6133 107.587C63.2153 107.184 63.9231 106.97 64.6471 106.97C65.6175 106.971 66.5477 107.358 67.2338 108.044C67.92 108.73 68.3062 109.66 68.3079 110.63V110.63Z" stroke="#92E3A9" stroke-linecap="round" stroke-linejoin="round"/>
<path d="M229.606 160.217C229.606 160.627 229.485 161.028 229.257 161.369C229.029 161.71 228.705 161.976 228.326 162.133C227.947 162.29 227.53 162.331 227.128 162.251C226.726 162.171 226.356 161.973 226.066 161.683C225.776 161.393 225.579 161.024 225.499 160.622C225.419 160.219 225.46 159.803 225.617 159.424C225.774 159.045 226.04 158.721 226.381 158.493C226.722 158.265 227.122 158.144 227.533 158.144C228.083 158.144 228.61 158.362 228.999 158.751C229.388 159.14 229.606 159.667 229.606 160.217V160.217Z" stroke="#92E3A9" stroke-linecap="round" stroke-linejoin="round"/>
<path d="M208.646 97.0173C211.208 97.0173 213.286 94.9399 213.286 92.3773C213.286 89.8147 211.208 87.7373 208.646 87.7373C206.083 87.7373 204.006 89.8147 204.006 92.3773C204.006 94.9399 206.083 97.0173 208.646 97.0173Z" stroke="#92E3A9" stroke-linecap="round" stroke-linejoin="round"/>
<path d="M180.077 134.087C180.32 134.452 187.661 135.917 191.469 141.453C193.684 144.634 195.543 148.048 197.011 151.636C197.011 151.636 203.379 155.425 206.643 158.548C209.907 161.671 213.798 165.818 216.8 167.994C219.802 170.17 225.978 174.298 227.533 179.13C227.533 179.13 218.272 204.493 215.654 210.1C213.037 215.706 206.579 227.604 206.579 227.604L195.059 276.545H128.237L125.958 259.757C125.958 259.757 105.478 255.738 96.9216 248.237C96.9216 248.237 96.1152 229.677 99.6928 213.121C103.27 196.564 115.437 162.138 123.68 151.623C123.68 151.623 136.845 145.325 148.461 143.303C148.461 143.303 156 137.345 160.934 136.711C165.869 136.077 180.077 134.087 180.077 134.087Z" fill="white"/>
<path d="M126.861 267.321C132.794 268.454 137.965 269.433 144.007 269.363C150.049 269.293 156.218 267.936 161.159 264.473C162.114 263.679 163.195 263.052 164.359 262.617C166.983 261.881 169.581 263.616 172.186 264.422C175.489 265.446 179.111 264.96 182.349 263.731C185.588 262.502 188.5 260.589 191.386 258.681C190.96 264.569 190.821 270.468 190.97 276.377L195.085 276.544L205.626 230.163C205.626 230.163 187.597 251.104 178.81 257.357L161.953 253.017C161.953 253.017 160.365 254.336 157.025 255.001C157.025 255.001 155.495 260.883 146.893 260.896C138.292 260.909 125.959 259.757 125.959 259.757L126.861 267.321Z" fill="#92E3A9"/>
<path opacity="0.5" d="M126.861 267.321C132.794 268.454 137.965 269.433 144.007 269.363C150.049 269.293 156.218 267.936 161.159 264.473C162.114 263.679 163.195 263.052 164.359 262.617C166.983 261.881 169.581 263.616 172.186 264.422C175.489 265.446 179.111 264.96 182.349 263.731C185.588 262.502 188.5 260.589 191.386 258.681C190.96 264.569 190.821 270.468 190.97 276.377L195.085 276.544L205.626 230.163C205.626 230.163 187.597 251.104 178.81 257.357L161.953 253.017C161.953 253.017 160.365 254.336 157.025 255.001C157.025 255.001 155.495 260.883 146.893 260.896C138.292 260.909 125.959 259.757 125.959 259.757L126.861 267.321Z" fill="white"/>
<path d="M109.588 180.781C109.588 180.781 101.76 218.778 102.157 231.828C102.157 231.828 112.794 228.845 120.218 231.828C120.218 231.828 107.584 230.42 102.144 236.212C96.7044 242.004 113.447 257.223 146.944 254.132C146.944 254.132 153.626 256.224 157.018 254.996C157.018 254.996 156.109 261.05 146.887 260.89C137.703 260.525 110.836 260.301 96.9156 248.244C96.922 248.25 95.1684 213.319 109.588 180.781Z" fill="#92E3A9"/>
<path opacity="0.6" d="M109.588 180.781C109.588 180.781 101.76 218.778 102.157 231.828C102.157 231.828 112.794 228.845 120.218 231.828C120.218 231.828 107.584 230.42 102.144 236.212C96.7044 242.004 113.447 257.223 146.944 254.132C146.944 254.132 153.626 256.224 157.018 254.996C157.018 254.996 156.109 261.05 146.887 260.89C137.703 260.525 110.836 260.301 96.9156 248.244C96.922 248.25 95.1684 213.319 109.588 180.781Z" fill="white"/>
<path d="M125.594 188.064C125.594 188.064 127.904 204.89 131.635 208.41C135.367 211.93 152.755 210.778 159.642 214.573C159.642 214.573 166.125 203.341 177.85 196.314L161.952 221.344L148.211 218.1L131.437 215.54L130.029 218.778H127.507C127.507 218.778 127.226 200.82 125.594 188.064Z" fill="#92E3A9"/>
<path opacity="0.5" d="M125.594 188.064C125.594 188.064 127.904 204.89 131.635 208.41C135.367 211.93 152.755 210.778 159.642 214.573C159.642 214.573 166.125 203.341 177.85 196.314L161.952 221.344L148.211 218.1L131.437 215.54L130.029 218.778H127.507C127.507 218.778 127.226 200.82 125.594 188.064Z" fill="white"/>
<path d="M191.314 153.793C198.501 158.023 199.307 162.791 200.786 166.196C197.048 166.939 193.182 167.732 190.098 169.966C186.258 172.756 184.178 177.377 182.565 181.863C181.039 186.109 179.757 190.438 178.725 194.83C182.199 188.554 187.137 183.21 193.118 179.252C196.568 176.974 200.83 175.137 204.766 176.423C201.464 177.825 197.726 179.719 197.029 183.239C196.892 183.824 196.916 184.434 197.099 185.006C197.688 186.663 199.749 187.111 201.31 187.918C204.357 189.486 205.944 193.038 206.078 196.481C206.213 199.924 205.157 203.252 204.114 206.51C203.196 209.364 202.279 212.219 201.362 215.073C200.19 218.721 199 222.42 196.882 225.62C194.763 228.82 191.582 231.502 187.8 232.129C186.219 232.434 184.582 232.249 183.109 231.598C181.992 230.991 180.954 230.249 180.018 229.39C175.48 225.725 170.027 223.37 164.248 222.58C171.685 227.495 175.205 236.423 178.29 244.788C176.873 242.309 174.832 240.243 172.37 238.798C171.738 238.358 170.988 238.122 170.219 238.119C168.197 238.279 167.557 240.859 166.341 242.471C164.882 244.391 162.213 245.076 159.819 244.769C157.426 244.462 155.224 243.342 153.074 242.209L125.867 228.18L123.947 233.94C123.947 233.94 145.618 251.22 178.821 257.332C178.821 257.332 200.389 240.289 208.03 225.179C215.672 210.068 227.544 179.099 227.544 179.099C227.544 179.099 223.198 170.868 215.749 166.574C215.749 166.574 210.187 163.943 209.016 160.692C207.845 157.441 197.394 151.828 197.394 151.828C197.394 151.828 198.75 155.297 191.314 153.793Z" fill="#92E3A9"/>
<path opacity="0.6" d="M191.314 153.793C198.501 158.023 199.307 162.791 200.786 166.196C197.048 166.939 193.182 167.732 190.098 169.966C186.258 172.756 184.178 177.377 182.565 181.863C181.039 186.109 179.757 190.438 178.725 194.83C182.199 188.554 187.137 183.21 193.118 179.252C196.568 176.974 200.83 175.137 204.766 176.423C201.464 177.825 197.726 179.719 197.029 183.239C196.892 183.824 196.916 184.434 197.099 185.006C197.688 186.663 199.749 187.111 201.31 187.918C204.357 189.486 205.944 193.038 206.078 196.481C206.213 199.924 205.157 203.252 204.114 206.51C203.196 209.364 202.279 212.219 201.362 215.073C200.19 218.721 199 222.42 196.882 225.62C194.763 228.82 191.582 231.502 187.8 232.129C186.219 232.434 184.582 232.249 183.109 231.598C181.992 230.991 180.954 230.249 180.018 229.39C175.48 225.725 170.027 223.37 164.248 222.58C171.685 227.495 175.205 236.423 178.29 244.788C176.873 242.309 174.832 240.243 172.37 238.798C171.738 238.358 170.988 238.122 170.219 238.119C168.197 238.279 167.557 240.859 166.341 242.471C164.882 244.391 162.213 245.076 159.819 244.769C157.426 244.462 155.224 243.342 153.074 242.209L125.867 228.18L123.947 233.94C123.947 233.94 145.618 251.22 178.821 257.332C178.821 257.332 200.389 240.289 208.03 225.179C215.672 210.068 227.544 179.099 227.544 179.099C227.544 179.099 223.198 170.868 215.749 166.574C215.749 166.574 210.187 163.943 209.016 160.692C207.845 157.441 197.394 151.828 197.394 151.828C197.394 151.828 198.75 155.297 191.314 153.793Z" fill="white"/>
<path d="M189.03 94.88C189.03 94.88 190.483 77.9392 183.181 76.32C175.878 74.7008 171.776 68 171.776 68L145.869 75.232L141.85 90.8096L144.41 98.6944C144.41 98.6944 144.947 106.01 145.05 109.626C145.152 113.242 145.05 116.026 147.789 120.416C150.528 124.806 153.075 129.165 158.995 132.96V142.938C158.995 142.938 155.334 153.619 157.357 160.173C157.357 160.173 158.566 161.453 161.907 159.533C165.248 157.613 179.539 148.064 184.525 138.093L186.074 112.742C186.074 112.742 190.189 113.382 191.962 109.632C194.566 105.965 194.464 101.69 193.453 98.208C192.442 94.7264 188.09 96.9792 188.09 96.9792L189.03 94.88Z" fill="#FFBF9D"/>
<path d="M159.275 119.719C160.008 118.921 160.911 118.299 161.917 117.898C162.923 117.497 164.006 117.327 165.087 117.402C165.087 117.402 168.203 112.481 171.487 113.383C171.487 113.383 172.498 118.599 168.562 120.653C163.442 123.322 159.275 119.719 159.275 119.719Z" fill="#FFBF9D"/>
<path d="M149.649 73.0752C149.649 73.0752 143.448 81.2224 143.806 89.7152C144.164 98.208 145.4 104.23 145.041 110.784C144.683 117.338 151.595 128.314 158.68 132.736C163.972 136.045 170.609 135.482 175.761 132.096C181.521 128.256 184.689 121.357 185.848 114.733C185.963 114.093 186.052 113.453 186.116 112.762" stroke="#263238" stroke-linecap="round" stroke-linejoin="round"/>
<path d="M158.681 132.742C158.681 132.742 159.686 141.92 158.681 145.062C157.574 148.512 156.236 156.544 157.401 160.173C158.566 163.801 180.358 148.55 184.569 138.086C184.569 138.086 185.152 117.753 186.604 112.672" stroke="#263238" stroke-linecap="round" stroke-linejoin="round"/>
<path d="M158.08 119.495C158.08 119.495 167.994 122.298 172.051 112.064" stroke="#263238" stroke-linecap="round" stroke-linejoin="round"/>
<path d="M158.879 134.951C158.879 134.951 160.991 141.499 165.548 141.889C170.105 142.279 181.503 133.147 185.388 122.388V117.006C185.388 117.006 182.188 131.086 172.818 133.646C163.449 136.206 159.065 132.948 159.065 132.948L158.879 134.951Z" fill="#263238"/>
<path d="M171.481 113.383C167.078 113.076 165.081 117.402 165.081 117.402C163.996 117.27 162.894 117.412 161.879 117.817C160.863 118.222 159.966 118.876 159.27 119.719C160.354 120.692 161.688 121.345 163.122 121.605C164.556 121.864 166.034 121.721 167.391 121.191C172.396 119.45 171.481 113.383 171.481 113.383Z" stroke="#263238" stroke-linecap="round" stroke-linejoin="round"/>
<path d="M160.44 94.0811C160.495 96.1115 160.405 98.1433 160.172 100.161C159.935 101.972 159.096 103.707 158.399 105.409C157.759 106.958 156.69 109.339 157.58 110.971C158.591 112.82 161.951 110.971 161.951 110.971" stroke="#263238" stroke-linecap="round" stroke-linejoin="round"/>
<path d="M164.018 110.586C165.15 110.739 166.757 110.586 167.077 108.621" stroke="#263238" stroke-linecap="round" stroke-linejoin="round"/>
<path d="M167.68 91.6363C168.775 90.5917 170.23 90.0089 171.744 90.0089C173.257 90.0089 174.713 90.5917 175.808 91.6363" stroke="#263238" stroke-width="2" stroke-linecap="round" stroke-linejoin="round"/>
<path d="M154.765 93.236C154.765 93.236 151.764 89.396 147.834 93.236" stroke="#263238" stroke-width="2" stroke-linecap="round" stroke-linejoin="round"/>
<path d="M183.762 102.945C183.762 102.945 187.186 94.7205 191.653 96.4869C194.731 97.7093 194.917 103.021 193.285 106.727C191.653 110.433 190.834 114.209 185.394 112.097" stroke="#263238" stroke-linecap="round" stroke-linejoin="round"/>
<path d="M184.371 101.684C184.371 101.684 181.081 100.519 180.473 95.175C179.865 89.831 183.142 84.4806 181.926 80.6406C180.71 76.8006 171.129 78.7206 168.947 72.0262C168.947 72.0262 161.753 77.3894 147.827 76.2374C147.827 76.2374 144.889 81.2422 144.377 84.3014C143.692 89.0846 143.709 93.9423 144.428 98.7206C144.428 98.887 144.486 99.047 144.518 99.2134C145.516 104.423 140.544 92.1222 140.678 86.8678C140.812 81.6134 137.644 74.9382 141.772 69.9654C145.9 64.9926 161.036 62.0806 164.019 59.7446C167.001 57.4086 172.8 63.6294 179.5 65.9206C186.201 68.2118 191.756 70.9446 190.912 80.4486C190.067 89.9526 190.956 91.2262 190.995 96.231C190.995 96.2438 187.897 95.079 184.371 101.684Z" fill="#263238"/>
<path d="M171.757 98.5616C171.757 99.8416 171.264 100.904 170.65 100.904C170.035 100.904 169.549 99.8544 169.549 98.5616C169.549 97.2688 170.042 96.2256 170.65 96.2256C171.258 96.2256 171.757 97.2816 171.757 98.5616Z" fill="#263238"/>
<path d="M154.764 98.5616C154.764 99.8416 154.271 100.904 153.663 100.904C153.055 100.904 152.562 99.8544 152.562 98.5616C152.562 97.2688 153.055 96.2256 153.663 96.2256C154.271 96.2256 154.764 97.2816 154.764 98.5616Z" fill="#263238"/>
<path d="M167.68 101.684C167.68 101.684 169.964 104.109 172.857 104.455" stroke="#263238" stroke-linecap="round" stroke-linejoin="round"/>
<path d="M152.115 104.455C152.115 104.455 156.294 104.16 157.235 101.684" stroke="#263238" stroke-linecap="round" stroke-linejoin="round"/>
<path d="M161.83 161.728C164.94 159.75 169.056 160.493 172.46 161.894C174.329 162.669 176.108 163.642 177.971 164.454C178.892 164.862 179.841 165.2 180.812 165.466C183.148 166.074 182.31 163.174 182.176 161.875C181.984 160.013 181.849 158.144 181.625 156.294C181.533 155.911 181.579 155.508 181.753 155.155C181.983 154.87 182.304 154.674 182.662 154.598C186.764 153.318 191.187 153.882 195.462 153.958C195.85 154.004 196.243 153.931 196.588 153.747C197.228 153.331 197.158 152.39 196.985 151.648C195.507 145.325 190.291 139.034 184.62 135.872" stroke="#263238" stroke-linecap="round" stroke-linejoin="round"/>
<path d="M159.038 136.896C156.216 138.074 153.317 139.296 150.885 141.101C150.002 141.745 149.19 142.478 148.459 143.29C147.871 143.85 147.501 144.601 147.416 145.408C147.432 145.784 147.531 146.152 147.707 146.484C147.883 146.816 148.132 147.105 148.434 147.328C148.863 147.682 149.336 147.979 149.842 148.212C151.019 148.768 152.402 149.312 152.901 150.496C153.022 150.745 153.067 151.023 153.029 151.296C152.965 151.537 152.842 151.757 152.67 151.936C151.698 153.12 149.982 154.036 150.11 155.565C150.194 156.749 151.39 157.485 152.453 158.01C153.515 158.535 154.757 159.079 155.122 160.212" stroke="#263238" stroke-linecap="round" stroke-linejoin="round"/>
<path d="M142.33 76.884C142.746 74.324 145.421 72.6728 147.994 72.2568C150.567 71.8408 153.21 72.2568 155.802 72.0328C157.97 71.8186 160.066 71.1416 161.95 70.0474C163.834 68.9532 165.46 67.4674 166.72 65.6904" stroke="white" stroke-linecap="round" stroke-linejoin="round"/>
<path d="M145.24 69.6899C149.887 66.9443 156.415 69.7987 160.946 66.8675C162.228 65.9339 163.344 64.7916 164.248 63.4883" stroke="white" stroke-linecap="round" stroke-linejoin="round"/>
<path d="M204.511 174.72C187.871 178.041 181.663 190.285 181.663 190.285L161.951 221.331" stroke="#263238" stroke-linecap="round" stroke-linejoin="round"/>
<path d="M190.445 171.368C191.826 170.089 193.39 169.023 195.085 168.206" stroke="#263238" stroke-linecap="round" stroke-linejoin="round"/>
<path d="M178.811 194.803C178.811 194.803 180.91 183.591 186.939 175.328" stroke="#263238" stroke-linecap="round" stroke-linejoin="round"/>
<path d="M127.506 218.728C127.506 218.728 126.642 184.379 123.666 179.131" stroke="#263238" stroke-linecap="round" stroke-linejoin="round"/>
<path d="M197.011 151.636C197.011 151.636 206.611 157.396 210.873 162.81C215.135 168.224 225.209 171.821 227.513 179.13C227.513 179.13 214.246 220.935 200.345 236.045C186.444 251.156 178.79 257.357 178.79 257.357C178.79 257.357 145.35 251.546 123.66 233.332L131.417 215.508C131.417 215.508 153.286 218.272 161.932 221.344C170.579 224.416 178.79 243.021 178.79 243.021" stroke="#263238" stroke-linecap="round" stroke-linejoin="round"/>
<path d="M161.951 221.345C161.951 221.345 177.26 224.321 182.233 231.29" stroke="#263238" stroke-linecap="round" stroke-linejoin="round"/>
<path d="M206.004 228.513L195.085 276.545H128.237L125.959 259.758" stroke="#263238" stroke-linecap="round" stroke-linejoin="round"/>
<path d="M157.024 255.002C153.331 262.567 148.46 260.897 148.46 260.897C110.796 262.324 96.9212 248.25 96.9212 248.25C96.9212 248.25 95.0012 228.455 102.406 201.741C109.811 175.028 123.68 151.636 123.68 151.636C129.83 147.546 143.552 144.353 147.424 143.508L148.46 143.29" stroke="#263238" stroke-linecap="round" stroke-linejoin="round"/>
<path d="M148.479 260.897C148.479 260.897 146.489 260.571 146.994 247.374" stroke="#263238" stroke-linecap="round" stroke-linejoin="round"/>
<path d="M124.697 234.176C124.697 234.176 115.289 230.861 103.635 238.925" stroke="#263238" stroke-linecap="round" stroke-linejoin="round"/>
<path d="M105.748 231.291C105.748 231.291 118.074 227.623 123.668 233.499" stroke="#263238" stroke-linecap="round" stroke-linejoin="round"/>
<path d="M122.335 233.166L123.935 233.966L130.028 218.746C130.028 218.746 123.718 217.716 113.721 230.164C116.842 230.2 119.867 231.254 122.335 233.166Z" fill="#FFBF9D" stroke="#263238" stroke-miterlimit="10"/>
<path d="M146.977 247.374V254.139C146.977 254.139 155.597 256.699 161.978 253.019L146.977 247.374Z" fill="#FFBF9D" stroke="#263238" stroke-miterlimit="10"/>
<path d="M193.701 153.889C193.708 154.014 193.695 154.139 193.663 154.26C193.394 155.316 186.821 180.129 165.785 191.169C165.602 191.267 165.397 191.318 165.189 191.316C164.903 191.316 164.626 191.22 164.401 191.044C164.175 190.867 164.016 190.621 163.947 190.343C163.879 190.065 163.905 189.773 164.023 189.512C164.14 189.251 164.341 189.037 164.594 188.903C183.794 178.836 190.559 155.892 191.148 153.78L193.701 153.889Z" fill="#263238"/>
<path d="M148.436 147.309C145.11 154.905 143.316 163.082 143.156 171.373C143.156 172.045 143.156 172.729 143.156 173.427C143.156 173.6 143.156 173.773 143.156 173.945C142.965 173.952 142.774 173.971 142.586 174.003C141.894 174.112 141.222 174.328 140.596 174.643C140.596 173.702 140.596 172.787 140.596 171.885C140.871 157.523 145.159 147.75 147.444 143.526L148.481 143.309C147.892 143.868 147.522 144.619 147.437 145.427C147.456 145.794 147.556 146.153 147.728 146.478C147.901 146.803 148.142 147.087 148.436 147.309Z" fill="#263238"/>
<path d="M173.638 185.396C175.136 187.476 173.907 190.932 170.886 193.114C167.865 195.297 164.205 195.373 162.701 193.293C161.197 191.213 162.425 187.757 165.446 185.575C168.467 183.393 172.16 183.316 173.638 185.396Z" fill="white" stroke="#263238" stroke-linecap="round" stroke-linejoin="round"/>
<path d="M169.912 184.16C170.975 185.632 170.104 188.077 167.992 189.619C165.88 191.161 163.263 191.219 162.232 189.747C161.202 188.275 162.04 185.83 164.152 184.288C166.264 182.745 168.85 182.694 169.912 184.16Z" fill="white" stroke="#263238" stroke-linecap="round" stroke-linejoin="round"/>
<path d="M152.998 210.138C152.726 210.319 152.394 210.389 152.072 210.334C151.749 210.278 151.46 210.101 151.264 209.838C151.068 209.576 150.98 209.249 151.018 208.923C151.057 208.598 151.218 208.3 151.469 208.09C151.578 208.001 155.872 204.346 153.99 192.039C153.83 190.996 153.626 189.882 153.35 188.711C152.538 184.98 151.283 180.257 148.717 176.788C148.106 175.873 147.27 175.131 146.289 174.633C145.308 174.135 144.216 173.899 143.117 173.946C142.926 173.953 142.736 173.972 142.547 174.004C141.855 174.113 141.183 174.329 140.557 174.644C138.645 175.631 137.194 177.326 136.512 179.367L136.282 180.007C134.83 183.932 133.644 187.949 132.73 192.033C131.706 197.057 131.36 202.324 133.178 206.004C133.665 207.014 134.358 207.91 135.214 208.634C136.07 209.358 137.068 209.895 138.144 210.209C138.433 210.304 138.679 210.498 138.837 210.758C138.996 211.018 139.056 211.325 139.009 211.626C138.961 211.926 138.808 212.199 138.577 212.397C138.345 212.595 138.051 212.704 137.747 212.705C137.612 212.704 137.479 212.683 137.35 212.641C135.951 212.22 134.654 211.514 133.541 210.567C132.428 209.619 131.524 208.451 130.886 207.137C128.838 202.996 129.107 197.357 130.144 192.033C131.063 187.654 132.308 183.349 133.869 179.156L134.099 178.516C134.602 176.993 135.445 175.604 136.564 174.454C137.683 173.304 139.048 172.424 140.557 171.879C141.079 171.698 141.617 171.565 142.163 171.482C142.49 171.437 142.803 171.405 143.136 171.386C144.634 171.345 146.119 171.68 147.454 172.361C148.789 173.042 149.932 174.047 150.778 175.284C153.632 179.124 154.989 184.199 155.853 188.18C156.154 189.549 156.384 190.836 156.557 192.052C158.579 205.85 153.248 209.959 152.998 210.138Z" fill="#263238" stroke="#263238" stroke-miterlimit="10"/>
<path d="M136.85 212.481C136.85 212.481 141.49 214.401 142.667 212.481C143.845 210.561 142.891 209.658 141.285 209.505C139.684 209.423 138.08 209.423 136.479 209.505L136.85 212.481Z" fill="#263238" stroke="#263238" stroke-miterlimit="10"/>
<path d="M138.981 211.841C138.897 212.097 138.735 212.321 138.516 212.479C138.298 212.638 138.035 212.724 137.765 212.724C137.63 212.723 137.496 212.702 137.368 212.66C135.968 212.24 134.671 211.533 133.559 210.586C132.446 209.639 131.542 208.471 130.904 207.156C128.856 203.015 129.125 197.377 130.162 192.052H132.722C131.698 197.076 131.352 202.343 133.17 206.023C133.657 207.033 134.35 207.929 135.206 208.653C136.062 209.378 137.06 209.914 138.136 210.228C138.298 210.277 138.448 210.359 138.579 210.467C138.709 210.575 138.817 210.708 138.895 210.858C138.974 211.008 139.022 211.172 139.037 211.341C139.051 211.509 139.032 211.679 138.981 211.841Z" fill="white" stroke="#263238" stroke-linecap="round" stroke-linejoin="round"/>
<path d="M148.724 208.749C148.531 208.978 148.388 209.245 148.306 209.533C148.223 209.821 148.202 210.123 148.244 210.419C148.371 210.858 148.649 211.237 149.028 211.492C149.407 211.747 149.863 211.861 150.317 211.814C151.226 211.693 152.057 211.237 152.647 210.534C153.287 209.818 155.508 205.126 153.453 205.933C151.962 206.496 149.722 207.45 148.724 208.749Z" fill="#263238" stroke="#263238" stroke-miterlimit="10"/>
<path d="M152.998 210.138C152.726 210.32 152.394 210.39 152.072 210.334C151.749 210.278 151.46 210.101 151.264 209.838C151.068 209.576 150.98 209.249 151.018 208.924C151.057 208.599 151.218 208.3 151.469 208.09C151.578 208.001 155.872 204.346 153.99 192.039H156.55C158.579 205.85 153.248 209.959 152.998 210.138Z" fill="white" stroke="#263238" stroke-linecap="round" stroke-linejoin="round"/>
<path opacity="0.2" d="M164.48 97.0175C164.48 97.0175 172.538 92.8319 179.943 97.0175C179.943 97.0175 180.064 103.193 177.267 105.734C176.275 106.637 171.731 106.79 170.01 106.637C163.021 106.003 164.48 97.0175 164.48 97.0175Z" fill="white"/>
<path opacity="0.2" d="M159.424 97.0175C159.424 97.0175 151.366 92.8319 143.968 97.0175C143.968 97.0175 143.846 103.193 146.636 105.734C147.628 106.637 152.179 106.79 153.894 106.637C160.883 106.003 159.424 97.0175 159.424 97.0175Z" fill="white"/>
<path d="M164.48 97.0175C164.48 97.0175 172.538 92.8319 179.943 97.0175C179.943 97.0175 180.064 103.193 177.267 105.734C176.275 106.637 171.731 106.79 170.01 106.637C163.021 106.003 164.48 97.0175 164.48 97.0175Z" stroke="#263238" stroke-miterlimit="10"/>
<path d="M159.424 97.0175C159.424 97.0175 151.366 92.8319 143.968 97.0175C143.968 97.0175 143.846 103.193 146.636 105.734C147.628 106.637 152.179 106.79 153.894 106.637C160.883 106.003 159.424 97.0175 159.424 97.0175Z" stroke="#263238" stroke-miterlimit="10"/>
<path d="M159.424 97.0184C159.424 97.0184 161.229 95.6936 164.48 97.0184" stroke="#263238" stroke-miterlimit="10"/>
<path d="M179.941 97.0186L183.308 98.5802" stroke="#263238" stroke-miterlimit="10"/>
<path d="M51.0859 293.58L74.7723 271.206H262.766L277 293.58H51.0859Z" fill="white" stroke="#263238" stroke-linecap="round" stroke-linejoin="round"/>
<path d="M277 293.58H51.0859V299.603H277V293.58Z" fill="#263238" stroke="#263238" stroke-linecap="round" stroke-linejoin="round"/>
<path d="M74.7715 288.051V283.411H111.891V288.051H104.73H74.7715Z" fill="white" stroke="#263238" stroke-miterlimit="10"/>
<path d="M74.7715 283.41L96.6979 268.703L125.959 269.394L111.891 283.41H74.7715Z" fill="white" stroke="#263238" stroke-linecap="round" stroke-linejoin="round"/>
<path d="M111.891 288.05L125.958 273.957V269.394L111.891 283.41V288.05Z" fill="white" stroke="#263238" stroke-linecap="round" stroke-linejoin="round"/>
<path d="M110.887 282.239C110.887 282.239 107.924 282.828 107.924 285.394C107.924 287.961 110.484 288.716 110.484 288.716" stroke="#263238" stroke-width="2" stroke-linecap="round" stroke-linejoin="round"/>
<path d="M107.922 282.239C107.922 282.239 104.959 282.828 104.959 285.394C104.959 287.961 107.519 288.716 107.519 288.716" stroke="#263238" stroke-width="2" stroke-linecap="round" stroke-linejoin="round"/>
<path d="M104.959 282.239C104.959 282.239 101.996 282.828 101.996 285.395C101.996 287.961 104.556 288.716 104.556 288.716" stroke="#263238" stroke-width="2" stroke-linecap="round" stroke-linejoin="round"/>
<path d="M101.996 282.239C101.996 282.239 99.0332 282.828 99.0332 285.394C99.0332 287.961 101.593 288.716 101.593 288.716" stroke="#263238" stroke-width="2" stroke-linecap="round" stroke-linejoin="round"/>
<path d="M99.0335 282.239C99.0335 282.239 96.0703 282.828 96.0703 285.395C96.0703 287.961 98.6303 288.716 98.6303 288.716" stroke="#263238" stroke-width="2" stroke-linecap="round" stroke-linejoin="round"/>
<path d="M96.0706 282.239C96.0706 282.239 93.1074 282.828 93.1074 285.394C93.1074 287.961 95.6674 288.716 95.6674 288.716" stroke="#263238" stroke-width="2" stroke-linecap="round" stroke-linejoin="round"/>
<path d="M93.1077 282.239C93.1077 282.239 90.1445 282.828 90.1445 285.394C90.1445 287.961 92.7045 288.716 92.7045 288.716" stroke="#263238" stroke-width="2" stroke-linecap="round" stroke-linejoin="round"/>
<path d="M90.1448 282.239C90.1448 282.239 87.1816 282.828 87.1816 285.394C87.1816 287.961 89.7416 288.716 89.7416 288.716" stroke="#263238" stroke-width="2" stroke-linecap="round" stroke-linejoin="round"/>
<path d="M86.8167 282.239C86.8167 282.239 83.8535 282.828 83.8535 285.394C83.8535 287.961 86.4135 288.716 86.4135 288.716" stroke="#263238" stroke-width="2" stroke-linecap="round" stroke-linejoin="round"/>
<path d="M83.4827 282.239C83.4827 282.239 80.5195 282.828 80.5195 285.394C80.5195 287.961 83.0795 288.716 83.0795 288.716" stroke="#263238" stroke-width="2" stroke-linecap="round" stroke-linejoin="round"/>
<path d="M79.7757 282.239C79.7757 282.239 76.8125 282.828 76.8125 285.395C76.8125 287.961 79.3725 288.716 79.3725 288.716" stroke="#263238" stroke-width="2" stroke-linecap="round" stroke-linejoin="round"/>
<path d="M98.5617 272.307C96.5175 273.434 94.8973 275.198 93.9473 277.331C96.6417 276.479 98.7729 274.559 100.814 272.639L98.6001 278.131C99.6195 278.048 100.605 277.726 101.477 277.191C102.349 276.656 103.082 275.923 103.618 275.052C103.442 275.128 103.285 275.24 103.156 275.381C103.026 275.521 102.928 275.688 102.868 275.869C102.808 276.05 102.786 276.242 102.805 276.432C102.824 276.622 102.883 276.806 102.978 276.972C104.834 276.703 106.018 274.911 106.952 273.286C107.124 274.19 107.19 275.112 107.15 276.031C108.703 276.254 110.286 276.053 111.733 275.449" stroke="#263238" stroke-width="0.75" stroke-linecap="round" stroke-linejoin="round"/>
<path d="M261.511 248.794H196.992V284.218H261.511V248.794Z" fill="white" stroke="#263238" stroke-linecap="round" stroke-linejoin="round"/>
<path d="M196.744 284.211L186.369 274.349V238.925L196.744 248.794V284.211Z" fill="white" stroke="#263238" stroke-linecap="round" stroke-linejoin="round"/>
<path d="M261.511 248.794L251.137 238.925H186.625L196.993 248.794H261.511Z" fill="white" stroke="#263238" stroke-linecap="round" stroke-linejoin="round"/>
<path d="M237.788 262.08H232.085V256.115H224.047V262.08H217.826V270.118H224.047V276.077H232.085V270.118H237.788V262.08Z" fill="#92E3A9" stroke="#263238" stroke-miterlimit="10"/>
<path d="M228.693 248.794L218.318 238.925" stroke="#263238" stroke-linecap="round" stroke-linejoin="round"/>
<path d="M92.3181 98.2366C99.8437 90.711 99.8437 78.5097 92.3181 70.9841C84.7926 63.4586 72.5912 63.4586 65.0657 70.9841C57.5401 78.5097 57.5401 90.711 65.0657 98.2366C72.5912 105.762 84.7926 105.762 92.3181 98.2366Z" fill="white" stroke="#263238" stroke-linecap="round" stroke-linejoin="round"/>
<path d="M94.7217 81.657C94.7215 82.9469 94.317 84.2044 93.565 85.2525C92.8131 86.3006 91.7515 87.0867 90.5297 87.5002L81.9217 90.3994L71.4449 93.9386C69.9015 94.446 68.2201 94.3228 66.7672 93.5959C65.3143 92.8689 64.2076 91.5972 63.6883 90.0578C63.1689 88.5184 63.2791 86.8362 63.9948 85.3777C64.7104 83.9192 65.9735 82.8026 67.5089 82.2714L77.0257 79.0714L86.5873 75.8714C87.5123 75.5603 88.498 75.4732 89.4632 75.6175C90.4285 75.7618 91.3456 76.1332 92.1392 76.7013C92.9329 77.2693 93.5802 78.0177 94.0281 78.8848C94.4759 79.752 94.7115 80.713 94.7153 81.689L94.7217 81.657Z" fill="white"/>
<path d="M94.7214 81.6575C94.7212 82.9475 94.3167 84.2049 93.5648 85.2531C92.8128 86.3012 91.7513 87.0873 90.5294 87.5007L81.9214 90.3999C81.6919 86.1592 79.9556 82.1397 77.0254 79.0655L86.587 75.8655C87.512 75.5544 88.4977 75.4674 89.463 75.6117C90.4282 75.7559 91.3454 76.1274 92.139 76.6954C92.9326 77.2634 93.58 78.0118 94.0278 78.879C94.4757 79.7461 94.7112 80.7072 94.715 81.6831L94.7214 81.6575Z" fill="#92E3A9"/>
<path d="M94.7217 81.657C94.7215 82.9469 94.317 84.2044 93.565 85.2525C92.8131 86.3006 91.7515 87.0867 90.5297 87.5002L81.9217 90.3994L71.4449 93.9386C69.9015 94.446 68.2201 94.3228 66.7672 93.5959C65.3143 92.8689 64.2076 91.5972 63.6883 90.0578C63.1689 88.5184 63.2791 86.8362 63.9948 85.3777C64.7104 83.9192 65.9735 82.8026 67.5089 82.2714L77.0257 79.0714L86.5873 75.8714C87.5123 75.5603 88.498 75.4732 89.4632 75.6175C90.4285 75.7618 91.3456 76.1332 92.1392 76.7013C92.9329 77.2693 93.5802 78.0177 94.0281 78.8848C94.4759 79.752 94.7115 80.713 94.7153 81.689L94.7217 81.657Z" stroke="#263238" stroke-linecap="round" stroke-linejoin="round"/>
<path d="M81.9214 90.4008C81.7255 86.1522 79.9844 82.1215 77.0254 79.0664" stroke="#263238" stroke-linecap="round" stroke-linejoin="round"/>
<path d="M92.6621 79.3604C93.0662 80.041 93.2703 80.8218 93.2509 81.6131" stroke="white" stroke-linecap="round" stroke-linejoin="round"/>
<path d="M79.457 79.9993L87.137 77.4393C87.8259 77.2031 88.5585 77.1225 89.2823 77.2033C90.006 77.2841 90.7028 77.5242 91.3226 77.9065" stroke="white" stroke-linecap="round" stroke-linejoin="round"/>
<path d="M209.63 58.4671C219.431 54.3189 224.013 43.0108 219.865 33.2098C215.717 23.4087 204.409 18.8262 194.608 22.9744C184.807 27.1226 180.224 38.4307 184.372 48.2317C188.52 58.0328 199.829 62.6153 209.63 58.4671Z" fill="white" stroke="#263238" stroke-linecap="round" stroke-linejoin="round"/>
<path d="M208.762 48.787L191.955 43.1614C190.558 42.6917 189.404 41.6862 188.748 40.3661C188.091 39.046 187.986 37.5193 188.455 36.1214C188.924 34.724 189.93 33.5702 191.25 32.9138C192.57 32.2573 194.097 32.1519 195.495 32.6206L212.301 38.2398C213.697 38.7111 214.85 39.7167 215.506 41.0364C216.163 42.356 216.269 43.882 215.802 45.2798C215.332 46.6775 214.327 47.8316 213.007 48.4891C211.687 49.1466 210.161 49.2537 208.762 48.787Z" fill="#92E3A9"/>
<path d="M196.449 42.7127L199.265 35.9863" stroke="#263238" stroke-linecap="round" stroke-linejoin="round"/>
<path d="M205.711 45.7922L208.514 39.085" stroke="#263238" stroke-linecap="round" stroke-linejoin="round"/>
<path d="M198.773 43.1109C199.087 43.1109 199.342 42.8559 199.342 42.5413C199.342 42.2267 199.087 41.9717 198.773 41.9717C198.458 41.9717 198.203 42.2267 198.203 42.5413C198.203 42.8559 198.458 43.1109 198.773 43.1109Z" fill="#263238"/>
<path d="M204.374 44.218C204.374 44.3307 204.34 44.4408 204.278 44.5345C204.215 44.6282 204.126 44.7012 204.022 44.7443C203.918 44.7874 203.803 44.7987 203.693 44.7767C203.582 44.7547 203.481 44.7005 203.401 44.6208C203.322 44.5411 203.267 44.4397 203.245 44.3292C203.223 44.2187 203.235 44.1041 203.278 44.0001C203.321 43.896 203.394 43.807 203.488 43.7444C203.581 43.6818 203.691 43.6484 203.804 43.6484C203.955 43.6484 204.1 43.7085 204.207 43.8153C204.314 43.9221 204.374 44.067 204.374 44.218Z" fill="#263238"/>
<path d="M200.982 38.0415C201.296 38.0415 201.551 37.7865 201.551 37.4719C201.551 37.1574 201.296 36.9023 200.982 36.9023C200.667 36.9023 200.412 37.1574 200.412 37.4719C200.412 37.7865 200.667 38.0415 200.982 38.0415Z" fill="#263238"/>
<path d="M206.499 39.0969C206.499 39.2096 206.465 39.3197 206.403 39.4134C206.34 39.5071 206.251 39.5801 206.147 39.6232C206.043 39.6663 205.928 39.6776 205.818 39.6556C205.707 39.6336 205.606 39.5794 205.526 39.4997C205.447 39.4201 205.392 39.3186 205.37 39.2081C205.348 39.0976 205.36 38.983 205.403 38.879C205.446 38.7749 205.519 38.6859 205.613 38.6233C205.706 38.5607 205.816 38.5273 205.929 38.5273C206.08 38.5273 206.225 38.5874 206.332 38.6942C206.439 38.801 206.499 38.9459 206.499 39.0969Z" fill="#263238"/>
<path d="M208.762 48.787L191.955 43.1614C190.558 42.6917 189.404 41.6862 188.748 40.3661C188.091 39.046 187.986 37.5193 188.455 36.1214V36.1214C188.924 34.724 189.93 33.5702 191.25 32.9138C192.57 32.2573 194.097 32.1519 195.495 32.6206L212.301 38.2398C213.697 38.7111 214.85 39.7167 215.506 41.0364C216.163 42.356 216.269 43.882 215.802 45.2798V45.2798C215.332 46.6775 214.327 47.8316 213.007 48.4891C211.687 49.1466 210.161 49.2537 208.762 48.787V48.787Z" stroke="#263238" stroke-linecap="round" stroke-linejoin="round"/>
<path d="M129.37 58.9441C140.013 58.9441 148.64 50.3165 148.64 39.6737C148.64 29.031 140.013 20.4033 129.37 20.4033C118.727 20.4033 110.1 29.031 110.1 39.6737C110.1 50.3165 118.727 58.9441 129.37 58.9441Z" fill="white" stroke="#263238" stroke-linecap="round" stroke-linejoin="round"/>
<path d="M140.41 40.1663V48.0639C140.41 50.0671 139.13 51.6927 137.562 51.6927H121.178C119.604 51.6927 118.33 50.0671 118.33 48.0639V40.1663C118.33 38.1631 119.61 36.5375 121.178 36.5375H123.872V31.9551H134.752V36.5375H137.543C139.13 36.5375 140.41 38.1631 140.41 40.1663Z" fill="white" stroke="#263238" stroke-linecap="round" stroke-linejoin="round"/>
<path d="M140.404 41.0752H118.33V45.9712H140.404V41.0752Z" fill="#92E3A9" stroke="#263238" stroke-miterlimit="10"/>
<path d="M125.377 26.5918H133.467C134.38 26.5918 135.256 26.9546 135.902 27.6003C136.547 28.246 136.91 29.1218 136.91 30.035V33.6126H121.928V30.035C121.928 29.5823 122.017 29.134 122.19 28.7159C122.364 28.2977 122.618 27.9178 122.938 27.598C123.259 27.2782 123.639 27.0247 124.058 26.8521C124.476 26.6794 124.925 26.591 125.377 26.5918Z" fill="#92E3A9" stroke="#263238" stroke-miterlimit="10"/>
<path d="M124.545 26.8096V33.6128" stroke="#263238" stroke-linecap="round" stroke-linejoin="round"/>
<path d="M128.084 26.5918V33.6126" stroke="#263238" stroke-linecap="round" stroke-linejoin="round"/>
<path d="M131.623 26.5918V33.6126" stroke="#263238" stroke-linecap="round" stroke-linejoin="round"/>
<path d="M135.162 26.9893V33.6133" stroke="#263238" stroke-linecap="round" stroke-linejoin="round"/>
<path d="M80.0002 145.021C81.722 134.519 74.6037 124.609 64.1011 122.887C53.5986 121.165 43.6888 128.284 41.9671 138.786C40.2454 149.289 47.3636 159.198 57.8662 160.92C68.3687 162.642 78.2785 155.524 80.0002 145.021Z" fill="white" stroke="#263238" stroke-linecap="round" stroke-linejoin="round"/>
<path d="M70.76 146.875C72.8589 142.436 69.973 136.669 64.3141 133.993C58.6551 131.317 52.3662 132.745 50.2672 137.183C48.1683 141.622 51.0543 147.389 56.7132 150.065C62.3721 152.742 68.6611 151.313 70.76 146.875Z" fill="#92E3A9" stroke="#263238" stroke-linecap="round" stroke-linejoin="round"/>
<path d="M71.4583 145.364C73.4273 141.201 70.436 135.656 64.7771 132.98C59.1181 130.304 52.9345 131.51 50.9655 135.673C48.9966 139.837 51.9879 145.381 57.6468 148.058C63.3057 150.734 69.4893 149.528 71.4583 145.364Z" fill="#92E3A9" stroke="#263238" stroke-linecap="round" stroke-linejoin="round"/>
<path d="M64.4815 134.823L57.4863 144.66" stroke="#263238" stroke-linecap="round" stroke-linejoin="round"/>
<path d="M60.2695 133.229C61.207 133.356 62.1306 133.57 63.0279 133.869" stroke="white" stroke-linecap="round" stroke-linejoin="round"/>
<path d="M54.0555 142.489C54.0555 142.489 50.4843 138.579 53.9723 134.809C54.7772 133.989 55.8254 133.45 56.9611 133.273" stroke="white" stroke-linecap="round" stroke-linejoin="round"/>
<path d="M282.987 145.032C284.708 134.529 277.59 124.62 267.087 122.898C256.585 121.176 246.675 128.294 244.953 138.797C243.232 149.299 250.35 159.209 260.852 160.931C271.355 162.653 281.265 155.534 282.987 145.032Z" fill="white" stroke="#263238" stroke-linecap="round" stroke-linejoin="round"/>
<path d="M275.029 143.846C274.882 144.057 274.734 144.275 274.581 144.486C271.694 148.486 267.246 152.217 263.95 152.953V152.902C260.75 152.185 256.443 148.633 253.557 144.755C253.397 144.544 253.243 144.326 253.096 144.115C250.318 140.134 249.147 135.955 252.238 134.227C258.523 130.72 263.95 138.24 263.95 138.24C263.95 138.24 269.39 130.777 275.662 134.278C278.67 135.955 277.64 139.961 275.029 143.846Z" fill="#92E3A9" stroke="#263238" stroke-miterlimit="10"/>
<path d="M275.029 143.846C274.881 144.057 274.734 144.275 274.581 144.486H272.993L271.176 146.886L269.941 139.769L268.021 144.608H263.483L261.16 148.48L259.368 140.64L257.057 144.729H253.557C253.397 144.518 253.243 144.301 253.096 144.089H256.686L259.624 138.886L261.429 146.79L263.137 143.942H267.617L270.177 137.389L271.547 145.299L272.667 143.821L275.029 143.846Z" fill="white"/>
<path d="M245.417 104.095C256.06 104.095 264.687 95.4678 264.687 84.8251C264.687 74.1823 256.06 65.5547 245.417 65.5547C234.774 65.5547 226.146 74.1823 226.146 84.8251C226.146 95.4678 234.774 104.095 245.417 104.095Z" fill="white" stroke="#263238" stroke-linecap="round" stroke-linejoin="round"/>
<path d="M243.97 75.917C244.156 76.333 242.997 77.2546 241.41 77.9778C239.823 78.701 238.338 78.9506 238.152 78.5282C237.967 78.1058 239.119 77.1906 240.712 76.4674C242.306 75.7442 243.778 75.5202 243.97 75.917Z" fill="white" stroke="#263238" stroke-linecap="round" stroke-linejoin="round"/>
<path d="M252.642 93.7914L246.875 96.5818L241.704 85.9322L238.133 78.5722L243.899 75.7754L247.381 82.9562L252.642 93.7914Z" fill="white" stroke="#263238" stroke-linecap="round" stroke-linejoin="round"/>
<path d="M239.199 80.7678L241.702 79.6094L239.199 80.7678Z" fill="#92E3A9"/>
<path d="M239.199 80.7678L241.702 79.6094" stroke="#263238" stroke-linecap="round" stroke-linejoin="round"/>
<path d="M240.289 83.0852L242.791 81.9268L240.289 83.0852Z" fill="#92E3A9"/>
<path d="M240.289 83.0852L242.791 81.9268" stroke="#263238" stroke-linecap="round" stroke-linejoin="round"/>
<path d="M249.084 95.5132L252.06 99.4172L250.575 94.79L249.084 95.5132Z" fill="white" stroke="#263238" stroke-linecap="round" stroke-linejoin="round"/>
<path d="M252.641 93.7922C251.291 95.1438 249.568 96.0619 247.694 96.429L246.874 96.5826L241.703 85.933L247.38 82.957L252.641 93.7922Z" fill="#92E3A9" stroke="#263238" stroke-miterlimit="10"/>
<path d="M242.791 87.9552L245.146 86.8672" stroke="#263238" stroke-linecap="round" stroke-linejoin="round"/>
<path d="M244.086 90.432L246.396 89.376L244.086 90.432Z" fill="#92E3A9"/>
<path d="M244.086 90.432L246.396 89.376" stroke="#263238" stroke-linecap="round" stroke-linejoin="round"/>
<path d="M240.131 77.5998L238.307 73.4974L239.74 72.6846L241.705 76.8382L240.131 77.5998Z" fill="white" stroke="#263238" stroke-linecap="round" stroke-linejoin="round"/>
<path d="M243.258 72.1856L242.823 71.2256L235.143 74.6624L235.578 75.6224C235.757 76.032 237.619 75.584 239.744 74.6368C241.869 73.6896 243.437 72.5888 243.258 72.1856Z" fill="white" stroke="#263238" stroke-linecap="round" stroke-linejoin="round"/>
<path d="M242.823 71.2255C242.644 70.8223 240.775 71.2639 238.656 72.2111C236.538 73.1583 234.964 74.2591 235.143 74.6623C235.322 75.0655 237.191 74.6239 239.309 73.6703C241.428 72.7167 243.002 71.6287 242.823 71.2255Z" fill="white" stroke="#263238" stroke-linecap="round" stroke-linejoin="round"/>
</svg>
