<svg width="21" height="20" viewBox="0 0 21 20" fill="none" xmlns="http://www.w3.org/2000/svg">
<g clip-path="url(#clip0_703_4706)">
<path d="M10.9672 0H12.8709V0.951861H11.9191V1.90372H10.015V4.76002H8.11133V3.80787H9.06319V0.951861H10.9672V0Z" fill="white"/>
<path d="M0.495117 0V6.66381H7.15893V0H0.495117ZM6.20685 5.71174H1.44719V0.952075H6.20685V5.71174Z" fill="white"/>
<path d="M13.8223 0V6.66381H20.4857V0H13.8223ZM19.5336 5.71174H14.7743V0.952075H19.534V5.71174H19.5336Z" fill="white"/>
<path d="M2.39844 1.90381H5.25445V4.75982H2.39844V1.90381Z" fill="white"/>
<path d="M15.7266 1.90381H18.5826V4.75982H15.7266V1.90381Z" fill="white"/>
<path d="M10.9668 2.85596H11.9187V3.80782H10.9668V2.85596Z" fill="white"/>
<path d="M11.9187 3.80786H12.8705V7.6158H11.9187V5.71165H10.9668V6.6638H10.0146V4.76008H11.9187V3.80786Z" fill="white"/>
<path d="M8.11118 5.71167H9.06304V6.66382H10.0149V7.61582H9.06304V9.51954H10.0149V8.56768H10.967V7.61582H11.9189V10.4717H10.0149V11.4235H9.06304V10.4717H8.11118V8.56768H6.20703V7.61582H8.11118V5.71167Z" fill="white"/>
<path d="M2.39844 7.61597H4.30216V8.56811H2.39844V7.61597Z" fill="white"/>
<path d="M12.8701 7.61597H14.7743V8.56783H13.8224V9.51969H12.8701V7.61597Z" fill="white"/>
<path d="M15.7266 7.61597H16.6787V8.56811H15.7266V7.61597Z" fill="white"/>
<path d="M0.495117 8.56763H2.39884V9.51949H3.35113V10.4716H2.39884V11.4235H1.44698V9.51949H0.495117V8.56763Z" fill="white"/>
<path d="M4.30273 8.56763H6.20646V9.51949H5.2546V10.4716H6.20646V11.4235H4.30273V8.56763Z" fill="white"/>
<path d="M16.6781 8.56763H17.6304V9.51949H18.5823V12.3754H17.6304V11.4235H15.726V12.3754H14.7744V10.4716H16.6781V8.56763Z" fill="white"/>
<path d="M6.20703 9.51929H7.15889V10.4714H6.20703V9.51929Z" fill="white"/>
<path d="M19.5342 9.51929H20.4863V10.4714H19.5342V9.51929Z" fill="white"/>
<path d="M7.15918 10.4717H8.11118V12.3754H6.20703V11.4235H7.15918V10.4717Z" fill="white"/>
<path d="M11.9189 10.4717H12.8711V11.4235H11.9189V10.4717Z" fill="white"/>
<path d="M0.495117 11.4236H1.44698V12.3757H0.495117V11.4236Z" fill="white"/>
<path d="M2.39844 11.4233H3.3503V12.3755H2.39844V11.4233Z" fill="white"/>
<path d="M10.0141 11.4233H11.9181V12.3752H10.9662V14.2794H10.0141V16.1831H9.06221V14.2794H8.11035V12.3752H9.06221V13.3272H10.0141V11.4233Z" fill="white"/>
<path d="M12.8701 11.4236H13.8223V12.3757H12.8701V11.4236Z" fill="white"/>
<path d="M19.5342 11.4236H20.4863V12.3757H19.5342V11.4236Z" fill="white"/>
<path d="M11.9189 12.3752H12.8711V14.279H11.9189V12.3752Z" fill="white"/>
<path d="M16.6787 12.3752H17.6309V14.279H16.6787V12.3752Z" fill="white"/>
<path d="M18.582 12.3752H19.5339V13.3271H18.582V12.3752Z" fill="white"/>
<path d="M14.7745 13.3271H15.726V14.2793H16.6782V16.183H19.5339V17.1349H15.726V19.0387H14.7744V17.1349H13.8225V18.0872H12.8702V19.0387H13.8225V19.9909H9.0625V19.0387H11.9184V17.1349H12.8702V14.2793H14.7744L14.7745 13.3271Z" fill="white"/>
<path d="M0.495117 13.3271V19.991H7.15893V13.3271H0.495117ZM6.20685 19.0389H1.44719V14.2796H6.20685V19.0389Z" fill="white"/>
<path d="M10.9668 14.2793H11.9187V15.2312H10.9668V14.2793Z" fill="white"/>
<path d="M17.6309 14.2793H19.5343V15.2312H17.6309V14.2793Z" fill="white"/>
<path d="M2.39844 15.231H5.25445V18.087H2.39844V15.231Z" fill="white"/>
<path d="M19.5342 15.231H20.4863V16.1831H19.5342V15.231Z" fill="white"/>
<path d="M8.11133 16.1831H9.06319V17.135H10.015V18.0873H8.11133V16.1831Z" fill="white"/>
<path d="M10.0146 16.1831H11.9184V17.135H10.0146V16.1831Z" fill="white"/>
<path d="M17.6309 18.0874H18.5827V19.0393H17.6309V18.0874Z" fill="white"/>
<path d="M19.5342 18.0874H20.4863V19.0393H19.5342V18.0874Z" fill="white"/>
<path d="M15.7266 19.0391H16.6787V19.9912H15.7266V19.0391Z" fill="white"/>
</g>
<defs>
<clipPath id="clip0_703_4706">
<rect width="20.0268" height="20" fill="white" transform="translate(0.486328)"/>
</clipPath>
</defs>
</svg>
