<svg width="20" height="21" viewBox="0 0 20 21" fill="none" xmlns="http://www.w3.org/2000/svg">
<g clip-path="url(#clip0_1060_8367)">
<path fill-rule="evenodd" clip-rule="evenodd" d="M18.5407 10.1764V4.48831C18.5407 3.76498 18.2535 3.07153 17.7426 2.56058C17.2308 2.04964 16.5382 1.76245 15.8149 1.76245H2.73074C2.00742 1.76245 1.31475 2.04964 0.803014 2.56058C0.292069 3.07153 0.00488281 3.76498 0.00488281 4.48831V15.8279C0.00488281 16.5504 0.292073 17.2439 0.803014 17.7556C1.31475 18.2665 2.00742 18.5537 2.73074 18.5537H9.99969C10.3007 18.5537 10.5449 18.3095 10.5449 18.0086C10.5449 17.7076 10.3007 17.4634 9.99969 17.4634H2.73074C2.29672 17.4634 1.88102 17.2911 1.57419 16.9844C1.26737 16.6776 1.09523 16.2619 1.09523 15.8279V4.48831C1.09523 4.05429 1.26754 3.63859 1.57419 3.33176C1.88101 3.02494 2.29672 2.85279 2.73074 2.85279H15.8149C16.2489 2.85279 16.6646 3.02511 16.9714 3.33176C17.2782 3.63858 17.4504 4.05429 17.4504 4.48831V10.1764C17.4504 10.4773 17.6946 10.7215 17.9955 10.7215C18.2965 10.7215 18.5407 10.4773 18.5407 10.1764Z" fill="white"/>
<path fill-rule="evenodd" clip-rule="evenodd" d="M4.3667 0.563238V4.05233C4.3667 4.35331 4.61089 4.59751 4.91187 4.59751C5.21285 4.59751 5.45704 4.35331 5.45704 4.05233V0.563238C5.45704 0.262257 5.21285 0.0180664 4.91187 0.0180664C4.61089 0.0180664 4.3667 0.262257 4.3667 0.563238Z" fill="white"/>
<path fill-rule="evenodd" clip-rule="evenodd" d="M0.550293 6.99634H17.9958V8.08668H0.550293V6.99634Z" fill="white"/>
<path fill-rule="evenodd" clip-rule="evenodd" d="M13.0894 0.563238V4.05233C13.0894 4.35331 13.3335 4.59751 13.6345 4.59751C13.9355 4.59751 14.1797 4.35331 14.1797 4.05233V0.563238C14.1797 0.262257 13.9355 0.0180664 13.6345 0.0180664C13.3335 0.0180664 13.0894 0.262257 13.0894 0.563238Z" fill="white"/>
<path fill-rule="evenodd" clip-rule="evenodd" d="M2.62232 11.5991H10.57C10.871 11.5991 11.1152 11.3549 11.1152 11.054C11.1152 10.753 10.871 10.5088 10.57 10.5088H2.62232C2.32134 10.5088 2.07715 10.753 2.07715 11.054C2.07715 11.3549 2.32134 11.5991 2.62232 11.5991Z" fill="white"/>
<path fill-rule="evenodd" clip-rule="evenodd" d="M2.62232 14.843H7.65036C7.95134 14.843 8.19553 14.5988 8.19553 14.2979C8.19553 13.9969 7.95134 13.7527 7.65036 13.7527H2.62232C2.32134 13.7527 2.07715 13.9969 2.07715 14.2979C2.07715 14.5988 2.32134 14.843 2.62232 14.843Z" fill="white"/>
<path fill-rule="evenodd" clip-rule="evenodd" d="M15.4758 11.1331C12.9811 11.1331 10.9565 13.1575 10.9565 15.6523C10.9565 18.1463 12.981 20.1715 15.4758 20.1715C17.9698 20.1715 19.995 18.1464 19.995 15.6523C19.995 13.1576 17.9699 11.1331 15.4758 11.1331ZM15.4758 12.2234C17.3678 12.2234 18.9045 13.7593 18.9045 15.6521C18.9045 17.5442 17.3678 19.0809 15.4758 19.0809C13.5829 19.0809 12.047 17.5442 12.047 15.6521C12.047 13.7593 13.5829 12.2234 15.4758 12.2234Z" fill="white"/>
<path fill-rule="evenodd" clip-rule="evenodd" d="M16.0205 15.6521C16.0205 15.9435 15.7916 16.1821 15.5029 16.1966L15.4753 16.1973C15.1744 16.1973 14.9302 15.9531 14.9302 15.6521V13.6292C14.9302 13.3282 15.1744 13.084 15.4753 13.084L15.5029 13.0846C15.7916 13.0992 16.0205 13.3376 16.0205 13.6291V15.6521Z" fill="white"/>
<path fill-rule="evenodd" clip-rule="evenodd" d="M16.9269 16.3335L15.8605 15.2663C15.6475 15.0541 15.3022 15.0541 15.0893 15.2663C14.8771 15.4794 14.8771 15.8246 15.0893 16.0375L16.1565 17.1039C16.3687 17.3169 16.7148 17.3169 16.927 17.1039C17.1401 16.8916 17.1401 16.5456 16.927 16.3333L16.9269 16.3335Z" fill="white"/>
</g>
<defs>
<clipPath id="clip0_1060_8367">
<rect width="20" height="20.1869" fill="white"/>
</clipPath>
</defs>
</svg>
