<svg width="20" height="20" viewBox="0 0 20 20" fill="none" xmlns="http://www.w3.org/2000/svg">
<g clip-path="url(#clip0_703_6189)">
<path d="M9.54645 13.6364C10.5109 13.6364 11.4357 13.2533 12.1177 12.5713C12.7997 11.8894 13.1828 10.9645 13.1828 10.0001C13.1828 9.03563 12.7997 8.11078 12.1177 7.4288C11.4357 6.74683 10.5109 6.36377 9.54645 6.36377C8.58202 6.36377 7.65716 6.74683 6.97519 7.4288C6.29322 8.11078 5.91016 9.03563 5.91016 10.0001C5.91016 10.9645 6.29322 11.8894 6.97519 12.5713C7.65716 13.2533 8.58202 13.6364 9.54645 13.6364ZM9.54645 8.18184C10.0286 8.18184 10.4911 8.37345 10.8322 8.71436C11.1731 9.05542 11.3647 9.51793 11.3647 10.0001C11.3647 10.4822 11.1731 10.9447 10.8322 11.2858C10.4911 11.6267 10.0286 11.8183 9.54645 11.8183C9.06431 11.8183 8.60181 11.6267 8.26074 11.2858C7.91984 10.9447 7.72823 10.4822 7.72823 10.0001C7.72823 9.51793 7.91984 9.05542 8.26074 8.71436C8.6018 8.37345 9.06431 8.18184 9.54645 8.18184Z" fill="white"/>
<path d="M1.81885 10.7973L0.909818 11.3238L0.909666 11.3236C0.491889 11.5645 0.187059 11.9616 0.0621109 12.4275C-0.0628367 12.8931 0.00229808 13.3896 0.243369 13.8072L1.59695 16.1508V16.1509C1.83771 16.5693 2.23509 16.8748 2.70141 16.9999C3.16758 17.1251 3.66449 17.0597 4.08238 16.8181L5.00053 16.2873C5.1407 16.2082 5.29929 16.1674 5.46016 16.1692C5.62102 16.1709 5.77854 16.2152 5.91689 16.2972C6.1951 16.4582 6.36646 16.755 6.36693 17.0763V18.1818C6.36693 18.6639 6.55854 19.1264 6.89945 19.4675C7.24051 19.8084 7.70286 20 8.18516 20H10.9124C11.3946 20 11.8571 19.8084 12.198 19.4675C12.539 19.1264 12.7306 18.6639 12.7306 18.1818V17.0744C12.7355 16.7518 12.9096 16.4555 13.1891 16.2942C13.4686 16.1328 13.8123 16.1301 14.0943 16.2873L15.0115 16.8163C15.4292 17.0574 15.9253 17.1228 16.3911 16.998C16.8568 16.8732 17.254 16.5684 17.4951 16.1509L18.8478 13.8074V13.8072C19.0889 13.3896 19.154 12.8932 19.0291 12.4275C18.9041 11.9616 18.5993 11.5646 18.1815 11.3236L17.2725 10.7972L17.2723 10.7973C17.1314 10.7151 17.015 10.5969 16.9349 10.4546C16.855 10.3123 16.8147 10.1513 16.8179 9.98812C16.8185 9.6641 16.9917 9.36474 17.2723 9.20267L18.1814 8.67623L18.1815 8.67638C18.5993 8.43546 18.9041 8.03839 19.0291 7.57254C19.154 7.10684 19.0889 6.6104 18.8478 6.19278L17.4933 3.84905C17.2525 3.43127 16.8555 3.12613 16.3898 3.00102C15.9239 2.87577 15.4275 2.94091 15.0097 3.18183L14.0915 3.71177C13.8095 3.86959 13.4653 3.86716 13.1856 3.70553C12.9058 3.54375 12.7319 3.24669 12.7279 2.92374V1.81823C12.7279 1.33609 12.5363 0.873581 12.1954 0.532518C11.8543 0.19161 11.3918 0 10.9097 0H8.18243C7.70029 0 7.23778 0.19161 6.89672 0.532518C6.55581 0.873577 6.3642 1.33609 6.3642 1.81823V2.9945C6.3642 3.13101 6.32828 3.26509 6.25995 3.38319C6.19161 3.50129 6.09345 3.5993 5.9752 3.66733L5.83518 3.7483V3.74815C5.59441 3.88497 5.29947 3.88497 5.05885 3.74815L4.08241 3.18185C3.66479 2.94048 3.16835 2.87503 2.70234 2.99983C2.23632 3.12462 1.83896 3.42945 1.59787 3.84723L0.245188 6.19373C0.00426949 6.61104 -0.061021 7.10701 0.0636227 7.57259C0.188114 8.03813 0.492504 8.43522 0.909658 8.67643L1.81869 9.20194L1.81885 9.20178C1.95962 9.28427 2.07605 9.40283 2.15595 9.54513C2.23585 9.68758 2.27633 9.8486 2.27329 10.0119C2.27359 10.1712 2.23159 10.3278 2.15184 10.4657C2.07194 10.6037 1.95703 10.718 1.81884 10.7973L1.81885 10.7973ZM2.72789 7.62735L1.81885 7.10184L3.17337 4.75827L4.14969 5.32184C4.95189 5.78282 5.93854 5.78282 6.74059 5.32184L6.88061 5.24178V5.24194C7.68402 4.77822 8.18003 3.92214 8.18245 2.99452V1.81825H10.9097V2.92376C10.9135 3.89642 11.4339 4.79404 12.2762 5.28059C13.1184 5.76728 14.1559 5.7699 15.0006 5.28728L15.916 4.75827L17.2733 7.10185L16.3642 7.62735C15.5219 8.1206 15.0043 9.0234 15.0043 9.99956C15.0043 10.9757 15.5219 11.8785 16.3642 12.3718L17.2733 12.8982L15.9206 15.2418L15.0006 14.7128C14.1559 14.2302 13.1184 14.2328 12.2762 14.7195C11.4339 15.206 10.9135 16.1036 10.9097 17.0763V18.1818H8.18245V17.0763C8.17971 16.1032 7.65951 15.2048 6.81683 14.718C5.97414 14.2309 4.93607 14.229 4.09155 14.7128L3.17613 15.2418L1.81889 12.8982L2.72792 12.3718C3.57029 11.8785 4.08789 10.9757 4.08789 9.99957C4.08789 9.0234 3.57029 8.1206 2.72792 7.62735L2.72789 7.62735Z" fill="white"/>
</g>
<defs>
<clipPath id="clip0_703_6189">
<rect width="19.0912" height="20" fill="white"/>
</clipPath>
</defs>
</svg>
