<svg width="500" height="500" viewBox="0 0 500 500" fill="none" xmlns="http://www.w3.org/2000/svg">
<path d="M475.85 458.34H30.3101C30.1775 458.34 30.0503 458.287 29.9565 458.194C29.8627 458.1 29.8101 457.973 29.8101 457.84C29.8101 457.707 29.8627 457.58 29.9565 457.487C30.0503 457.393 30.1775 457.34 30.3101 457.34H475.85C475.983 457.34 476.11 457.393 476.204 457.487C476.297 457.58 476.35 457.707 476.35 457.84C476.35 457.973 476.297 458.1 476.204 458.194C476.11 458.287 475.983 458.34 475.85 458.34Z" fill="#263238"/>
<path d="M41.8201 209.72L40.6101 209L42.1301 206.88L39.8701 206L40.3601 204.69L42.5301 205.84L42.3001 203.2H43.8501L43.6001 205.84L45.7801 204.69L46.2601 206L44.0001 206.88L45.5301 208.98L44.2901 209.71L43.0601 207.32L41.8201 209.72Z" fill="#263238"/>
<path d="M49.4402 209.72L48.2302 209L49.7402 206.88L47.4902 206L48.0002 204.7L50.1702 205.85L49.9402 203.21H51.4902L51.2402 205.85L53.4202 204.7L53.9002 206.01L51.6402 206.89L53.1702 208.99L51.9302 209.72L50.7002 207.33L49.4402 209.72Z" fill="#263238"/>
<path d="M57.0601 209.72L55.8501 209L57.3601 206.88L55.1001 206L55.6001 204.69L57.7601 205.84L57.5301 203.2H59.0901L58.8401 205.84L61.0001 204.7L61.5001 206L59.2401 206.88L60.7701 208.98L59.5301 209.71L58.3001 207.32L57.0601 209.72Z" fill="#263238"/>
<path d="M64.6802 209.72L63.4702 209L65.0002 206.87L62.7202 206L63.2202 204.69L65.3802 205.84L65.1502 203.2H66.7002L66.4502 205.84L68.6402 204.69L69.1202 206L66.8602 206.88L68.3902 208.98L67.1402 209.71L65.9202 207.32L64.6802 209.72Z" fill="#263238"/>
<path d="M72.2903 209.72L71.0903 208.99L72.6003 206.87L70.3403 206L70.8403 204.69L73.0003 205.85L72.7703 203.21H74.3203L74.0703 205.85L76.2603 204.7L76.7303 206.01L74.4803 206.89L76.0003 209L74.7503 209.73L73.5303 207.34L72.2903 209.72Z" fill="#263238"/>
<path d="M79.91 209.72L78.71 208.99L80.22 206.87L78 206L78.5 204.69L80.66 205.84L80.43 203.2H81.98L81.73 205.84L83.92 204.69L84.39 206L82.13 206.88L83.67 208.98L82.42 209.71L81.2 207.32L79.91 209.72Z" fill="#263238"/>
<path d="M87.5301 209.72L86.3201 209L87.8401 206.88L85.5801 206L86.0801 204.69L88.2401 205.84L88.0001 203.21H89.5501L89.3001 205.85L91.4801 204.7L92.0001 206L89.7401 206.88L91.2701 208.98L90.0301 209.71L88.8101 207.32L87.5301 209.72Z" fill="#263238"/>
<path d="M95.1502 209.72L93.9402 209L95.4602 206.88L93.2002 206L93.6902 204.69L95.8602 205.84L95.6302 203.2H97.1802L96.9302 205.84L99.1102 204.69L99.5902 206L97.3302 206.88L98.8602 208.98L97.6202 209.71L96.3902 207.32L95.1502 209.72Z" fill="#263238"/>
<path d="M102.77 209.72L101.56 208.99L103.07 206.87L100.82 206.01L101.31 204.7L103.48 205.85L103.25 203.21H104.8L104.55 205.85L106.73 204.7L107.21 206.01L104.95 206.89L106.48 208.99L105.24 209.72L104 207.33L102.77 209.72Z" fill="#263238"/>
<path d="M170.81 46.75L169.6 46L171.11 43.8699L168.85 43L169.35 41.7L171.51 42.8499L171.28 40.2H172.84L172.59 42.8499L174.77 41.7L175.25 43L172.99 43.88L174.52 46L173.28 46.72L172.05 44.33L170.81 46.75Z" fill="#263238"/>
<path d="M178.42 46.75L177.22 46.0299L178.73 43.9L176.47 43L176.97 41.7L179.13 42.8499L178.9 40.2H180.45L180.2 42.8499L182.39 41.7L182.87 43L180.61 43.88L182.14 46L180.89 46.72L179.67 44.33L178.42 46.75Z" fill="#263238"/>
<path d="M186 46.75L184.8 46.0299L186.31 43.9L184.09 43L184.59 41.7L186.75 42.8499L186.52 40.2H188.07L187.82 42.8499L190 41.74L190.47 43.04L188.21 43.9199L189.76 46L188.51 46.72L187.29 44.33L186 46.75Z" fill="#263238"/>
<path d="M193.66 46.75L192.46 46.0299L194 43.9L191.71 43L192.21 41.7L194.37 42.8499L194.14 40.2H195.69L195.44 42.8499L197.62 41.7L198.1 43L195.84 43.88L197.37 46L196.13 46.72L194.91 44.33L193.66 46.75Z" fill="#263238"/>
<path d="M201.28 46.75L200.07 46L201.59 43.87L199.33 43L199.83 41.7L202 42.89L201.77 40.24H203.32L203.07 42.89L205.25 41.74L205.73 43.04L203.47 43.92L205 46L203.76 46.72L202.53 44.33L201.28 46.75Z" fill="#263238"/>
<path d="M208.9 46.75L207.69 46L209.21 43.8699L207 43L207.49 41.7L209.66 42.8499L209.43 40.2H210.98L210.73 42.8499L212.91 41.7L213.39 43L211.13 43.88L212.61 46L211.37 46.72L210.14 44.33L208.9 46.75Z" fill="#263238"/>
<path d="M216.52 46.75L215.31 46L216.82 43.87L214.57 43L215.06 41.7L217.23 42.85L217 40.24H218.55L218.3 42.89L220.48 41.74L221 43L218.74 43.88L220.23 46L218.99 46.72L217.76 44.33L216.52 46.75Z" fill="#263238"/>
<path d="M224.14 46.75L222.93 46L224.44 43.8699L222.18 43L222.68 41.7L224.84 42.8499L224.61 40.2H226.17L225.92 42.8499L228.1 41.7L228.58 43L226.32 43.88L227.85 46L226.61 46.72L225.38 44.33L224.14 46.75Z" fill="#263238"/>
<path d="M231.76 46.75L230.55 46L232.06 43.8699L229.8 43L230.3 41.7L232.46 42.8499L232.23 40.2H233.78L233.54 42.8499L235.72 41.7L236.2 43L233.94 43.88L235.47 46L234.22 46.72L233 44.36L231.76 46.75Z" fill="#263238"/>
<path d="M403.83 146.73L402.63 146L404.14 143.87L401.88 143.01L402.38 141.71L404.54 142.86L404.31 140.22H405.86L405.61 142.86L407.8 141.71L408.27 143.01L406.02 143.9L407.55 146L406.3 146.73L405.08 144.33L403.83 146.73Z" fill="#263238"/>
<path d="M411.45 146.73L410.25 146L411.76 143.87L409.5 143L410 141.7L412.16 142.85L411.93 140.21H413.48L413.23 142.85L415.42 141.7L415.89 143L413.63 143.89L415.17 145.99L413.92 146.72L412.7 144.32L411.45 146.73Z" fill="#263238"/>
<path d="M419.07 146.73L417.86 146L419.38 143.87L417.12 143.01L417.62 141.71L419.78 142.86L419.55 140.22H421.1L420.85 142.86L423.03 141.71L423.51 143.01L421.25 143.9L422.78 146L421.54 146.73L420.32 144.33L419.07 146.73Z" fill="#263238"/>
<path d="M426.69 146.73L425.48 146L427 143.87L424.74 143.01L425.23 141.71L427.4 142.86L427.17 140.22H428.72L428.47 142.86L430.65 141.71L431.13 143.01L428.87 143.9L430.4 146L429.16 146.73L427.93 144.33L426.69 146.73Z" fill="#263238"/>
<path d="M434.31 146.73L433.1 146L434.61 143.87L432.36 143.01L432.85 141.71L435.02 142.86L434.79 140.22H436.34L436.09 142.86L438.27 141.71L438.75 143.01L436.49 143.9L438 146L436.76 146.73L435.53 144.33L434.31 146.73Z" fill="#263238"/>
<path d="M441.93 146.73L440.72 146L442.23 143.87L440 143L440.49 141.7L442.66 142.85L442.43 140.21H444L443.75 142.85L445.93 141.7L446.41 143L444.15 143.89L445.68 145.99L444.44 146.72L443.21 144.32L441.93 146.73Z" fill="#263238"/>
<path d="M449.55 146.73L448.34 146L449.85 143.87L447.59 143.01L448.09 141.71L450.25 142.86L450.02 140.22H451.58L451.33 142.86L453.51 141.71L454 143L451.74 143.89L453.27 145.99L452.03 146.72L450.8 144.32L449.55 146.73Z" fill="#263238"/>
<path d="M457.16 146.73L456 146L457.51 143.87L455.25 143.01L455.75 141.71L457.91 142.86L457.68 140.22H459.23L458.98 142.86L461.17 141.71L461.65 143.01L459.39 143.9L460.92 146L459.67 146.73L458.45 144.33L457.16 146.73Z" fill="#263238"/>
<path d="M464.78 146.73L463.58 146L465.09 143.87L462.83 143.01L463.33 141.71L465.49 142.86L465.26 140.22H466.81L466.56 142.86L468.75 141.71L469.22 143.01L466.97 143.9L468.5 146L467.25 146.73L466.03 144.33L464.78 146.73Z" fill="#263238"/>
<path d="M73.0002 183.09C66.5625 183.09 60.3883 180.533 55.8352 175.982C51.2821 171.431 48.7229 165.258 48.7202 158.82C48.7202 154.02 50.1434 149.328 52.8098 145.337C55.4761 141.346 59.266 138.236 63.7002 136.398C68.1344 134.561 73.0137 134.08 77.7214 135.016C82.429 135.951 86.7535 138.262 90.1482 141.655C93.5428 145.048 95.8551 149.372 96.7927 154.079C97.7302 158.786 97.251 163.666 95.4156 168.101C93.5802 172.536 90.471 176.327 86.4812 178.995C82.4913 181.663 77.7999 183.088 73.0002 183.09ZM73.0002 135.54C66.8284 135.548 60.9117 138.003 56.5475 142.367C52.1834 146.732 49.7282 152.648 49.7202 158.82C49.7282 164.991 52.1837 170.907 56.5481 175.269C60.9126 179.632 66.8293 182.085 73.0002 182.09C76.0973 182.154 79.1761 181.6 82.0562 180.459C84.9362 179.318 87.5596 177.614 89.7727 175.446C91.9857 173.279 93.7439 170.691 94.9441 167.835C96.1444 164.979 96.7627 161.913 96.7627 158.815C96.7627 155.717 96.1444 152.651 94.9441 149.795C93.7439 146.939 91.9857 144.352 89.7727 142.184C87.5596 140.016 84.9362 138.312 82.0562 137.171C79.1761 136.03 76.0973 135.476 73.0002 135.54Z" fill="#263238"/>
<path d="M73.0003 165.52C70.9375 165.52 68.9209 164.908 67.2057 163.762C65.4905 162.616 64.1537 160.987 63.3643 159.082C62.5748 157.176 62.3683 155.079 62.7707 153.055C63.1732 151.032 64.1665 149.174 65.6252 147.715C67.0839 146.256 68.9423 145.263 70.9655 144.861C72.9887 144.458 75.0859 144.665 76.9917 145.454C78.8975 146.244 80.5265 147.58 81.6725 149.296C82.8186 151.011 83.4303 153.027 83.4303 155.09C83.4277 157.856 82.3279 160.507 80.3725 162.462C78.4171 164.418 75.7657 165.518 73.0003 165.52ZM73.0003 145.67C71.1348 145.67 69.3112 146.223 67.7603 147.26C66.2093 148.297 65.0006 149.77 64.2872 151.494C63.5737 153.217 63.3876 155.114 63.7523 156.944C64.1169 158.773 65.016 160.453 66.3358 161.772C67.6557 163.09 69.3369 163.987 71.1668 164.35C72.9967 164.713 74.893 164.525 76.616 163.809C78.3389 163.094 79.811 161.884 80.8459 160.332C81.8809 158.78 82.4323 156.956 82.4303 155.09C82.425 152.592 81.4295 150.197 79.6619 148.432C77.8943 146.666 75.4988 145.673 73.0003 145.67Z" fill="#263238"/>
<path d="M73.0004 183.09C67.5565 183.111 62.2671 181.281 58.0004 177.9C57.9263 177.843 57.8707 177.764 57.8405 177.676C57.8103 177.587 57.8068 177.491 57.8304 177.4C58.5885 173.941 60.506 170.845 63.2651 168.625C66.0242 166.405 69.4592 165.195 73.0004 165.195C76.5417 165.195 79.9766 166.405 82.7357 168.625C85.4948 170.845 87.4124 173.941 88.1704 177.4C88.1905 177.492 88.1842 177.588 88.1524 177.676C88.1205 177.764 88.0644 177.842 87.9904 177.9C83.7173 181.262 78.4378 183.09 73.0004 183.09ZM58.8704 177.31C62.9186 180.429 67.8902 182.111 73.0004 182.09C78.1045 182.092 83.0671 180.412 87.1204 177.31C86.3558 174.14 84.547 171.319 81.9849 169.301C79.4229 167.284 76.2566 166.187 72.9954 166.187C69.7343 166.187 66.568 167.284 64.0059 169.301C61.4439 171.319 59.635 174.14 58.8704 177.31Z" fill="#263238"/>
<path d="M440.7 428.74C434.263 428.74 428.088 426.183 423.535 421.632C418.982 417.081 416.423 410.908 416.42 404.47C416.42 399.67 417.844 394.978 420.51 390.987C423.176 386.996 426.966 383.886 431.4 382.048C435.835 380.211 440.714 379.73 445.422 380.666C450.129 381.601 454.454 383.912 457.848 387.305C461.243 390.698 463.555 395.022 464.493 399.729C465.43 404.436 464.951 409.316 463.116 413.751C461.28 418.186 458.171 421.977 454.181 424.645C450.192 427.313 445.5 428.738 440.7 428.74ZM440.7 381.19C434.529 381.198 428.612 383.653 424.248 388.017C419.884 392.381 417.428 398.298 417.42 404.47C417.42 410.644 419.873 416.566 424.239 420.931C428.605 425.297 434.526 427.75 440.7 427.75C446.875 427.75 452.796 425.297 457.162 420.931C461.528 416.566 463.98 410.644 463.98 404.47C463.975 398.297 461.521 392.379 457.156 388.014C452.791 383.65 446.873 381.195 440.7 381.19Z" fill="#263238"/>
<path d="M440.7 411.17C438.637 411.17 436.621 410.558 434.905 409.412C433.19 408.266 431.853 406.637 431.064 404.731C430.275 402.826 430.068 400.728 430.47 398.705C430.873 396.682 431.866 394.824 433.325 393.365C434.784 391.906 436.642 390.913 438.665 390.51C440.688 390.108 442.786 390.315 444.691 391.104C446.597 391.893 448.226 393.23 449.372 394.945C450.518 396.661 451.13 398.677 451.13 400.74C451.127 403.505 450.028 406.157 448.072 408.112C446.117 410.068 443.465 411.167 440.7 411.17ZM440.7 391.31C438.835 391.31 437.012 391.863 435.461 392.899C433.91 393.935 432.702 395.408 431.988 397.131C431.274 398.854 431.087 400.751 431.451 402.58C431.815 404.409 432.713 406.089 434.032 407.408C435.351 408.727 437.031 409.625 438.86 409.989C440.69 410.353 442.586 410.166 444.309 409.452C446.032 408.739 447.505 407.53 448.541 405.979C449.577 404.428 450.13 402.605 450.13 400.74C450.127 398.24 449.133 395.843 447.365 394.075C445.597 392.307 443.2 391.313 440.7 391.31Z" fill="#263238"/>
<path d="M440.7 428.74C435.256 428.761 429.967 426.931 425.7 423.55C425.626 423.492 425.57 423.414 425.538 423.326C425.507 423.238 425.5 423.142 425.52 423.05C426.283 419.594 428.203 416.501 430.962 414.284C433.722 412.067 437.156 410.858 440.695 410.858C444.235 410.858 447.669 412.067 450.428 414.284C453.188 416.501 455.108 419.594 455.87 423.05C455.89 423.142 455.884 423.238 455.852 423.326C455.82 423.414 455.764 423.492 455.69 423.55C451.417 426.912 446.138 428.74 440.7 428.74ZM426.57 423C430.618 426.119 435.59 427.801 440.7 427.78C445.803 427.775 450.764 426.096 454.82 423C454.056 419.83 452.247 417.009 449.685 414.991C447.123 412.974 443.956 411.877 440.695 411.877C437.434 411.877 434.268 412.974 431.706 414.991C429.144 417.009 427.335 419.83 426.57 423Z" fill="#263238"/>
<path d="M454.77 124.41H415.6C415.468 124.408 415.343 124.354 415.249 124.261C415.156 124.168 415.103 124.042 415.1 123.91V85.6001C415.1 85.4675 415.153 85.3403 415.247 85.2465C415.34 85.1528 415.467 85.1001 415.6 85.1001H454.77C454.903 85.1001 455.03 85.1528 455.124 85.2465C455.217 85.3403 455.27 85.4675 455.27 85.6001V123.91C455.268 124.042 455.214 124.168 455.121 124.261C455.028 124.354 454.902 124.408 454.77 124.41ZM416.1 123.41H454.27V86.1001H416.1V123.41Z" fill="#263238"/>
<path d="M453.78 86.11H447.08V76.8C447.126 75.209 446.853 73.6248 446.276 72.1413C445.699 70.6578 444.83 69.3051 443.721 68.1634C442.611 67.0216 441.285 66.114 439.818 65.4942C438.352 64.8745 436.777 64.5551 435.185 64.5551C433.593 64.5551 432.018 64.8745 430.551 65.4942C429.085 66.114 427.758 67.0216 426.649 68.1634C425.54 69.3051 424.671 70.6578 424.094 72.1413C423.517 73.6248 423.244 75.209 423.29 76.8V86.11H416.59V76.8C416.532 74.3218 416.971 71.8571 417.88 69.5508C418.788 67.2445 420.149 65.143 421.881 63.37C423.614 61.5969 425.683 60.1881 427.968 59.2262C430.252 58.2643 432.706 57.7688 435.185 57.7688C437.664 57.7688 440.118 58.2643 442.402 59.2262C444.687 60.1881 446.756 61.5969 448.489 63.37C450.221 65.143 451.582 67.2445 452.49 69.5508C453.399 71.8571 453.837 74.3218 453.78 76.8V86.11ZM448.08 85.11H452.78V76.8C452.836 74.4541 452.422 72.1207 451.563 69.9371C450.704 67.7534 449.417 65.7636 447.777 64.0847C446.138 62.4057 444.18 61.0716 442.017 60.1607C439.854 59.2498 437.532 58.7806 435.185 58.7806C432.838 58.7806 430.516 59.2498 428.353 60.1607C426.19 61.0716 424.232 62.4057 422.592 64.0847C420.953 65.7636 419.666 67.7534 418.807 69.9371C417.948 72.1207 417.534 74.4541 417.59 76.8V85.11H422.29V76.8C422.242 75.0764 422.54 73.3607 423.166 71.7542C423.793 70.1478 424.735 68.6832 425.937 67.4471C427.139 66.211 428.577 65.2284 430.166 64.5575C431.754 63.8866 433.461 63.5409 435.185 63.5409C436.909 63.5409 438.616 63.8866 440.204 64.5575C441.793 65.2284 443.231 66.211 444.433 67.4471C445.635 68.6832 446.577 70.1478 447.203 71.7542C447.83 73.3607 448.128 75.0764 448.08 76.8V85.11Z" fill="#263238"/>
<path d="M436.82 114.06H433.55C433.417 114.06 433.29 114.007 433.197 113.914C433.103 113.82 433.05 113.693 433.05 113.56V105C432.023 104.515 431.191 103.695 430.693 102.674C430.194 101.653 430.058 100.493 430.306 99.3848C430.555 98.2763 431.173 97.2855 432.06 96.5756C432.947 95.8656 434.049 95.4788 435.185 95.4788C436.321 95.4788 437.423 95.8656 438.31 96.5756C439.197 97.2855 439.815 98.2763 440.064 99.3848C440.312 100.493 440.176 101.653 439.677 102.674C439.179 103.695 438.347 104.515 437.32 105V113.59C437.312 113.717 437.256 113.837 437.163 113.924C437.07 114.012 436.948 114.06 436.82 114.06ZM434.05 113.06H436.32V104.64C436.321 104.539 436.351 104.44 436.408 104.356C436.465 104.273 436.546 104.208 436.64 104.17C437.509 103.831 438.231 103.199 438.683 102.383C439.136 101.568 439.289 100.62 439.116 99.7037C438.943 98.7874 438.456 97.9602 437.738 97.365C437.021 96.7698 436.117 96.444 435.185 96.444C434.253 96.444 433.35 96.7698 432.632 97.365C431.914 97.9602 431.427 98.7874 431.254 99.7037C431.082 100.62 431.235 101.568 431.687 102.383C432.139 103.199 432.862 103.831 433.73 104.17C433.824 104.208 433.905 104.273 433.962 104.356C434.019 104.44 434.049 104.539 434.05 104.64V113.06Z" fill="#263238"/>
<path d="M91.67 440.39H52.5C52.3674 440.39 52.2402 440.337 52.1464 440.244C52.0527 440.15 52 440.023 52 439.89V401.58C52.0026 401.448 52.0561 401.323 52.1493 401.229C52.2425 401.136 52.3682 401.083 52.5 401.08H91.67C91.8018 401.083 91.9275 401.136 92.0207 401.229C92.1139 401.323 92.1674 401.448 92.17 401.58V439.89C92.17 440.023 92.1173 440.15 92.0236 440.244C91.9298 440.337 91.8026 440.39 91.67 440.39ZM53 439.39H91.17V402.08H53V439.39Z" fill="#263238"/>
<path d="M90.6798 402.1H83.9998V392.78C83.91 389.685 82.6174 386.747 80.3965 384.589C78.1755 382.432 75.2011 381.225 72.1048 381.225C69.0084 381.225 66.034 382.432 63.813 384.589C61.5921 386.747 60.2995 389.685 60.2098 392.78V402.1H53.5098V392.78C53.6224 387.923 55.631 383.303 59.1059 379.908C62.5809 376.512 67.2464 374.611 72.1048 374.611C76.9631 374.611 81.6286 376.512 85.1036 379.908C88.5786 383.303 90.5871 387.923 90.6998 392.78L90.6798 402.1ZM84.9798 401.1H89.6798V392.78C89.5702 388.186 87.6684 383.817 84.3806 380.607C81.0929 377.397 76.6799 375.6 72.0848 375.6C67.4896 375.6 63.0767 377.397 59.7889 380.607C56.5011 383.817 54.5993 388.186 54.4898 392.78V401.1H59.1898V392.78C59.2833 389.422 60.6829 386.233 63.091 383.891C65.499 381.549 68.7257 380.239 72.0848 380.239C75.4439 380.239 78.6705 381.549 81.0786 383.891C83.4867 386.233 84.8863 389.422 84.9798 392.78V401.1Z" fill="#263238"/>
<path d="M73.7201 430H70.4501C70.3175 430 70.1903 429.947 70.0965 429.854C70.0028 429.76 69.9501 429.633 69.9501 429.5V421C69.0939 420.597 68.3698 419.959 67.8617 419.161C67.3537 418.362 67.0827 417.436 67.0801 416.49C67.0801 415.164 67.6069 413.892 68.5445 412.954C69.4822 412.017 70.754 411.49 72.0801 411.49C73.4062 411.49 74.6779 412.017 75.6156 412.954C76.5533 413.892 77.0801 415.164 77.0801 416.49C77.0784 417.435 76.8088 418.361 76.3026 419.159C75.7964 419.957 75.0743 420.595 74.2201 421V429.59C74.1988 429.706 74.1368 429.812 74.0453 429.887C73.9537 429.962 73.8385 430.002 73.7201 430ZM71.0001 429H73.2701V420.59C73.2707 420.489 73.3015 420.39 73.3585 420.306C73.4155 420.223 73.4961 420.158 73.5901 420.12C74.4586 419.781 75.1814 419.149 75.6335 418.333C76.0856 417.518 76.2385 416.57 76.066 415.654C75.8934 414.737 75.4061 413.91 74.6884 413.315C73.9706 412.72 73.0675 412.394 72.1351 412.394C71.2026 412.394 70.2995 412.72 69.5818 413.315C68.864 413.91 68.3767 414.737 68.2042 415.654C68.0316 416.57 68.1846 417.518 68.6367 418.333C69.0887 419.149 69.8115 419.781 70.6801 420.12C70.774 420.158 70.8547 420.223 70.9117 420.306C70.9686 420.39 70.9994 420.489 71.0001 420.59V429Z" fill="#263238"/>
<path d="M402.9 281.53C402.81 281.53 406.62 276.53 406.9 276.29C410.1 273.01 418.2 268.55 422.8 270.83C423.555 271.228 424.217 271.78 424.744 272.451C425.272 273.122 425.651 273.896 425.859 274.724C426.066 275.551 426.097 276.413 425.949 277.253C425.801 278.094 425.478 278.893 425 279.6C423.07 282.66 418.81 283.98 415.41 284.27C411.36 284.61 402.9 281.53 402.9 281.53Z" fill="#919191"/>
<path d="M373.66 122.5V109.58H365.12L128.2 346.49V367.96L373.66 122.5Z" fill="white"/>
<path d="M128.2 176.83V261L279.63 109.58H195.45L128.2 176.83Z" fill="white"/>
<path d="M337.12 434.5L373.66 397.96V313.79L252.95 434.5H337.12Z" fill="white"/>
<path d="M381.08 86.24H120.78C115.141 86.24 110.57 90.8112 110.57 96.45V447.63C110.57 453.269 115.141 457.84 120.78 457.84H381.08C386.719 457.84 391.29 453.269 391.29 447.63V96.45C391.29 90.8112 386.719 86.24 381.08 86.24Z" fill="#263238"/>
<path d="M373.66 109.58H128.2V434.51H373.66V109.58Z" fill="#BAE4FF"/>
<path opacity="0.2" d="M391.29 98.57V95.31C391.29 92.9045 390.334 90.5975 388.633 88.8965C386.932 87.1956 384.625 86.24 382.22 86.24H377.1L110.57 352.77V379.29L391.29 98.57Z" fill="white"/>
<g clip-path="url(#clip0_425_27735)">
<path d="M262.238 223.634V215.004H264.378C264.809 214.98 265.239 215.077 265.618 215.284C265.93 215.472 266.17 215.761 266.298 216.104C266.449 216.516 266.52 216.954 266.508 217.394C266.518 217.8 266.436 218.203 266.268 218.574C266.118 218.896 265.874 219.164 265.568 219.344C265.204 219.534 264.798 219.627 264.388 219.614H263.438V223.614L262.238 223.634ZM263.438 218.754H263.998C264.276 218.765 264.554 218.724 264.818 218.634C264.915 218.6 265.003 218.546 265.077 218.475C265.151 218.404 265.209 218.319 265.248 218.224C265.339 217.96 265.38 217.682 265.368 217.404C265.377 217.084 265.347 216.765 265.278 216.454C265.255 216.352 265.209 216.258 265.143 216.178C265.077 216.098 264.993 216.035 264.898 215.994C264.612 215.895 264.31 215.851 264.008 215.864H263.438V218.754Z" fill="#263238"/>
<path d="M258.539 223.68C258.033 223.711 257.532 223.578 257.109 223.3C256.768 223.058 256.524 222.704 256.419 222.3C256.29 221.783 256.23 221.252 256.239 220.72V215H257.389V220.77C257.389 221.105 257.416 221.439 257.469 221.77C257.505 222.036 257.616 222.285 257.789 222.49C257.888 222.584 258.007 222.657 258.136 222.703C258.265 222.749 258.402 222.769 258.539 222.76C258.677 222.77 258.816 222.752 258.947 222.705C259.078 222.659 259.198 222.585 259.299 222.49C259.472 222.285 259.583 222.036 259.619 221.77C259.671 221.439 259.698 221.105 259.699 220.77V215H260.839V220.72C260.847 221.252 260.787 221.783 260.659 222.3C260.55 222.7 260.31 223.052 259.979 223.3C259.553 223.579 259.047 223.713 258.539 223.68Z" fill="#263238"/>
<path d="M237.39 224C236.937 224.016 236.489 223.912 236.09 223.7C235.738 223.495 235.461 223.183 235.3 222.81C235.105 222.355 235.003 221.865 235 221.37L236.35 221.1C236.362 221.4 236.406 221.699 236.48 221.99C236.525 222.212 236.632 222.417 236.79 222.58C236.861 222.652 236.947 222.708 237.042 222.744C237.137 222.78 237.238 222.796 237.34 222.79C237.441 222.798 237.544 222.782 237.638 222.742C237.732 222.702 237.815 222.639 237.88 222.56C237.991 222.388 238.047 222.185 238.04 221.98C238.053 221.65 237.962 221.325 237.78 221.05C237.583 220.783 237.355 220.542 237.1 220.33L236.01 219.33C235.72 219.078 235.473 218.781 235.28 218.45C235.09 218.079 234.997 217.666 235.01 217.25C234.991 216.959 235.036 216.668 235.139 216.395C235.243 216.123 235.403 215.876 235.61 215.67C236.061 215.283 236.645 215.086 237.24 215.12C237.582 215.111 237.922 215.172 238.24 215.3C238.496 215.416 238.72 215.595 238.89 215.82C239.054 216.045 239.173 216.3 239.24 216.57C239.321 216.861 239.371 217.159 239.39 217.46L238.05 217.7C238.043 217.454 238.013 217.21 237.96 216.97C237.925 216.783 237.839 216.61 237.71 216.47C237.642 216.406 237.561 216.357 237.473 216.326C237.386 216.295 237.292 216.283 237.2 216.29C237.098 216.283 236.996 216.301 236.902 216.341C236.808 216.381 236.725 216.442 236.66 216.52C236.528 216.68 236.46 216.883 236.47 217.09C236.46 217.342 236.522 217.592 236.65 217.81C236.798 218.028 236.976 218.223 237.18 218.39L238.25 219.34C238.607 219.639 238.914 219.994 239.16 220.39C239.426 220.825 239.559 221.33 239.54 221.84C239.548 222.247 239.444 222.648 239.24 223C239.064 223.318 238.8 223.578 238.48 223.75C238.143 223.923 237.768 224.009 237.39 224Z" fill="#263238"/>
<path d="M240.437 223.89V215.25H241.987V223.89H240.437Z" fill="#263238"/>
<path d="M245.489 224C245.012 224.026 244.539 223.9 244.139 223.64C243.794 223.396 243.541 223.044 243.419 222.64C243.266 222.107 243.205 221.553 243.239 221V218.1C243.228 217.559 243.299 217.02 243.449 216.5C243.575 216.09 243.84 215.736 244.199 215.5C244.653 215.245 245.169 215.124 245.689 215.15C246.175 215.131 246.659 215.23 247.099 215.44C247.438 215.635 247.702 215.938 247.849 216.3C248.011 216.735 248.089 217.196 248.079 217.66V218.11H246.569V217.62C246.587 217.384 246.587 217.146 246.569 216.91C246.541 216.735 246.457 216.573 246.329 216.45C246.162 216.336 245.961 216.283 245.759 216.3C245.65 216.288 245.54 216.299 245.437 216.334C245.333 216.368 245.238 216.425 245.159 216.5C245.028 216.649 244.945 216.833 244.919 217.03C244.903 217.273 244.903 217.517 244.919 217.76V221.37C244.914 221.632 244.937 221.893 244.989 222.15C245.024 222.346 245.122 222.525 245.269 222.66C245.433 222.783 245.635 222.843 245.839 222.83C246.053 222.846 246.265 222.778 246.429 222.64C246.574 222.496 246.672 222.311 246.709 222.11C246.769 221.844 246.796 221.572 246.789 221.3V220.49H245.859V219.49H248.209V223.87H247.209L247.089 223.01C246.984 223.287 246.804 223.529 246.569 223.71C246.261 223.944 245.873 224.048 245.489 224Z" fill="#263238"/>
<path d="M249.238 223.89V215.25H250.338L252.438 220.18V215.25H253.738V223.89H252.738L250.628 218.73V223.89H249.238Z" fill="#263238"/>
</g>
<path opacity="0.2" d="M110.57 143.21V247.17L271.5 86.24H167.54L110.57 143.21Z" fill="white"/>
<path opacity="0.2" d="M391.29 438.81V334.85L268.29 457.84H372.26L391.29 438.81Z" fill="white"/>
<path d="M308.48 237.37H193.37V256.89H308.48V237.37Z" fill="white"/>
<path d="M308.49 257.39H193.37C193.237 257.39 193.11 257.337 193.016 257.244C192.922 257.15 192.87 257.023 192.87 256.89V237.37C192.872 237.238 192.926 237.113 193.019 237.019C193.112 236.926 193.238 236.873 193.37 236.87H308.49C308.621 236.873 308.747 236.926 308.84 237.019C308.934 237.113 308.987 237.238 308.99 237.37V256.89C308.99 257.023 308.937 257.15 308.843 257.244C308.749 257.337 308.622 257.39 308.49 257.39ZM193.87 256.39H308V237.87H193.87V256.39Z" fill="#263238"/>
<path d="M308.48 273.72H193.37V293.24H308.48V273.72Z" fill="white"/>
<path d="M308.49 293.75H193.37C193.238 293.747 193.112 293.694 193.019 293.601C192.926 293.507 192.872 293.382 192.87 293.25V273.72C192.872 273.588 192.926 273.462 193.019 273.369C193.112 273.276 193.238 273.223 193.37 273.22H308.49C308.621 273.223 308.747 273.276 308.84 273.369C308.934 273.462 308.987 273.588 308.99 273.72V293.25C308.987 293.382 308.934 293.507 308.84 293.601C308.747 293.694 308.621 293.747 308.49 293.75ZM193.87 292.75H308V274.22H193.87V292.75Z" fill="#263238"/>
<path d="M277.41 310.31H224.44C221.767 310.31 219.6 312.477 219.6 315.15V324.99C219.6 327.663 221.767 329.83 224.44 329.83H277.41C280.083 329.83 282.25 327.663 282.25 324.99V315.15C282.25 312.477 280.083 310.31 277.41 310.31Z" fill="#263238"/>
<path d="M263 323.634V315.004H265.14C265.571 314.98 266 315.077 266.38 315.284C266.692 315.472 266.932 315.761 267.06 316.104C267.21 316.516 267.282 316.954 267.27 317.394C267.279 317.8 267.197 318.203 267.03 318.574C266.88 318.896 266.636 319.164 266.33 319.344C265.966 319.534 265.56 319.627 265.15 319.614H264.2V323.614L263 323.634ZM264.2 318.754H264.76C265.038 318.765 265.316 318.724 265.58 318.634C265.676 318.6 265.765 318.546 265.839 318.475C265.913 318.404 265.971 318.319 266.01 318.224C266.101 317.96 266.141 317.682 266.13 317.404C266.139 317.084 266.109 316.765 266.04 316.454C266.017 316.352 265.97 316.258 265.904 316.178C265.838 316.098 265.755 316.035 265.66 315.994C265.374 315.895 265.072 315.851 264.77 315.864H264.2V318.754Z" fill="#E5E5E5"/>
<path d="M277.41 330.33H224.41C223.001 330.32 221.654 329.754 220.659 328.756C219.665 327.758 219.105 326.409 219.1 325V315.16C219.102 313.743 219.667 312.385 220.67 311.384C221.673 310.382 223.032 309.82 224.45 309.82H277.45C278.866 309.82 280.224 310.383 281.226 311.384C282.227 312.386 282.79 313.744 282.79 315.16V325C282.787 325.703 282.646 326.399 282.374 327.048C282.102 327.697 281.705 328.286 281.205 328.781C280.705 329.276 280.113 329.668 279.462 329.933C278.81 330.199 278.113 330.334 277.41 330.33ZM224.41 310.81C223.258 310.81 222.153 311.267 221.337 312.081C220.522 312.894 220.062 313.998 220.06 315.15V325C220.062 326.152 220.522 327.256 221.337 328.07C222.153 328.883 223.258 329.34 224.41 329.34H277.41C278.561 329.34 279.665 328.883 280.478 328.069C281.292 327.255 281.75 326.151 281.75 325V315.16C281.75 314.009 281.292 312.905 280.478 312.091C279.665 311.277 278.561 310.82 277.41 310.82L224.41 310.81Z" fill="#263238"/>
<path d="M270.7 175.83C270.694 179.745 269.527 183.571 267.347 186.823C265.168 190.075 262.073 192.609 258.454 194.102C254.835 195.596 250.854 195.983 247.015 195.215C243.176 194.447 239.65 192.558 236.885 189.786C234.119 187.015 232.237 183.486 231.477 179.646C230.716 175.805 231.112 171.825 232.613 168.209C234.114 164.593 236.653 161.503 239.91 159.33C243.166 157.157 246.994 155.998 250.91 156C253.514 155.991 256.095 156.497 258.503 157.491C260.911 158.485 263.098 159.946 264.938 161.79C266.778 163.633 268.235 165.823 269.224 168.233C270.212 170.643 270.714 173.225 270.7 175.83Z" fill="white"/>
<path d="M250.91 196.12C246.108 196.123 241.461 194.423 237.793 191.324C234.126 188.224 231.676 183.925 230.879 179.19C230.082 174.455 230.989 169.591 233.44 165.461C235.89 161.332 239.725 158.204 244.263 156.635C248.801 155.066 253.748 155.156 258.226 156.889C262.704 158.622 266.422 161.887 268.721 166.103C271.019 170.318 271.749 175.213 270.78 179.915C269.812 184.618 267.207 188.826 263.43 191.79C259.859 194.594 255.45 196.119 250.91 196.12ZM250.91 156.53C246.896 156.528 242.981 157.779 239.712 160.108C236.442 162.436 233.981 165.727 232.67 169.52C231.359 173.314 231.264 177.422 232.399 181.273C233.534 185.123 235.841 188.523 239 191C242.391 193.693 246.6 195.146 250.93 195.12C255.971 195.005 260.767 192.922 264.292 189.316C267.817 185.71 269.79 180.868 269.79 175.825C269.79 170.782 267.817 165.94 264.292 162.334C260.767 158.728 255.971 156.645 250.93 156.53H250.91Z" fill="#263238"/>
<path d="M256.749 178.583C259.979 175.353 259.979 170.117 256.749 166.888C253.52 163.658 248.283 163.658 245.054 166.888C241.824 170.117 241.824 175.353 245.054 178.583C248.283 181.813 253.52 181.813 256.749 178.583Z" fill="#263238"/>
<path d="M250.9 181.5C249.165 181.5 247.47 180.986 246.028 180.022C244.585 179.058 243.461 177.689 242.797 176.086C242.134 174.484 241.96 172.72 242.298 171.019C242.637 169.318 243.472 167.755 244.699 166.529C245.925 165.302 247.488 164.467 249.189 164.128C250.89 163.79 252.654 163.964 254.256 164.628C255.859 165.291 257.228 166.415 258.192 167.858C259.156 169.3 259.67 170.995 259.67 172.73C259.67 173.882 259.443 175.022 259.002 176.086C258.562 177.15 257.916 178.117 257.101 178.931C256.287 179.746 255.32 180.392 254.256 180.832C253.192 181.273 252.052 181.5 250.9 181.5ZM250.9 164.97C249.363 164.97 247.86 165.426 246.582 166.28C245.304 167.134 244.308 168.348 243.72 169.769C243.133 171.189 242.979 172.752 243.28 174.26C243.581 175.767 244.322 177.151 245.409 178.238C246.497 179.324 247.882 180.063 249.39 180.362C250.898 180.661 252.461 180.505 253.88 179.916C255.3 179.326 256.513 178.329 257.365 177.049C258.218 175.77 258.672 174.267 258.67 172.73C258.659 170.676 257.836 168.71 256.38 167.262C254.924 165.813 252.954 165 250.9 165V164.97Z" fill="#263238"/>
<path d="M263.13 191.39C259.647 194.137 255.34 195.631 250.905 195.631C246.469 195.631 242.162 194.137 238.68 191.39C239.295 188.606 240.842 186.116 243.065 184.33C245.288 182.545 248.054 181.572 250.905 181.572C253.756 181.572 256.521 182.545 258.744 184.33C260.967 186.116 262.514 188.606 263.13 191.39Z" fill="#263238"/>
<path d="M250.91 196.12C246.362 196.12 241.945 194.592 238.37 191.78C238.297 191.724 238.241 191.648 238.209 191.561C238.177 191.474 238.171 191.38 238.19 191.29C238.815 188.383 240.417 185.778 242.73 183.909C245.043 182.04 247.926 181.021 250.9 181.021C253.873 181.021 256.757 182.04 259.07 183.909C261.383 185.778 262.985 188.383 263.61 191.29C263.631 191.379 263.627 191.473 263.597 191.56C263.567 191.647 263.512 191.723 263.44 191.78C259.866 194.588 255.455 196.116 250.91 196.12ZM239.23 191.19C242.578 193.761 246.688 195.144 250.91 195.12C255.121 195.117 259.216 193.737 262.57 191.19C261.942 188.568 260.449 186.233 258.332 184.563C256.214 182.893 253.596 181.985 250.9 181.985C248.203 181.985 245.585 182.893 243.468 184.563C241.351 186.233 239.858 188.568 239.23 191.19Z" fill="#263238"/>
<path d="M232.351 252.11C231.846 252.141 231.344 252.008 230.921 251.73C230.581 251.488 230.337 251.134 230.231 250.73C230.103 250.213 230.042 249.682 230.051 249.15V243.43H231.201V249.2C231.202 249.535 231.228 249.869 231.281 250.2C231.317 250.465 231.428 250.715 231.601 250.92C231.701 251.014 231.819 251.086 231.948 251.133C232.077 251.179 232.214 251.199 232.351 251.19C232.49 251.2 232.629 251.181 232.76 251.135C232.89 251.088 233.01 251.015 233.111 250.92C233.284 250.715 233.395 250.465 233.431 250.2C233.484 249.869 233.511 249.535 233.511 249.2V243.43H234.651V249.15C234.66 249.682 234.599 250.213 234.471 250.73C234.362 251.13 234.123 251.482 233.791 251.73C233.365 252.009 232.86 252.143 232.351 252.11Z" fill="#CCCCCC"/>
<path d="M259.3 323.68C258.795 323.711 258.293 323.578 257.87 323.3C257.53 323.058 257.286 322.704 257.18 322.3C257.052 321.783 256.992 321.252 257 320.72V315H258.15V320.77C258.151 321.105 258.178 321.439 258.23 321.77C258.266 322.036 258.377 322.285 258.55 322.49C258.65 322.584 258.768 322.657 258.897 322.703C259.026 322.749 259.164 322.769 259.3 322.76C259.439 322.77 259.578 322.752 259.709 322.705C259.84 322.659 259.959 322.585 260.06 322.49C260.233 322.285 260.344 322.036 260.38 321.77C260.433 321.439 260.46 321.105 260.46 320.77V315H261.6V320.72C261.609 321.252 261.549 321.783 261.42 322.3C261.311 322.7 261.072 323.052 260.74 323.3C260.314 323.579 259.809 323.713 259.3 323.68Z" fill="#E5E5E5"/>
<path d="M238 252.11C237.564 252.125 237.134 252.014 236.76 251.79C236.427 251.574 236.166 251.264 236.01 250.9C235.83 250.486 235.728 250.041 235.71 249.59L236.78 249.3C236.796 249.601 236.843 249.899 236.92 250.19C236.981 250.451 237.109 250.692 237.29 250.89C237.487 251.062 237.739 251.156 238 251.156C238.261 251.156 238.513 251.062 238.71 250.89C238.881 250.679 238.966 250.411 238.95 250.14C238.979 249.785 238.883 249.432 238.68 249.14C238.484 248.876 238.259 248.634 238.01 248.42L236.56 247.14C236.299 246.914 236.085 246.639 235.93 246.33C235.789 245.984 235.721 245.613 235.73 245.24C235.715 244.97 235.755 244.699 235.848 244.445C235.941 244.19 236.084 243.957 236.27 243.76C236.681 243.4 237.215 243.214 237.76 243.24C238.066 243.236 238.37 243.283 238.66 243.38C238.909 243.457 239.133 243.598 239.31 243.79C239.492 243.99 239.631 244.225 239.72 244.48C239.834 244.802 239.905 245.139 239.93 245.48L238.93 245.76C238.91 245.493 238.867 245.229 238.8 244.97C238.746 244.75 238.627 244.552 238.46 244.4C238.261 244.251 238.019 244.17 237.77 244.17C237.521 244.17 237.279 244.251 237.08 244.4C236.991 244.494 236.923 244.606 236.88 244.729C236.837 244.851 236.82 244.981 236.83 245.11C236.82 245.334 236.865 245.557 236.96 245.76C237.072 245.957 237.217 246.133 237.39 246.28L238.85 247.56C239.189 247.847 239.483 248.184 239.72 248.56C239.972 248.983 240.1 249.468 240.09 249.96C240.1 250.344 240.007 250.724 239.82 251.06C239.654 251.365 239.399 251.612 239.09 251.77C238.763 251.979 238.387 252.096 238 252.11Z" fill="#CCCCCC"/>
<path d="M241 252V243.37H244.34V244.26H242.2V247.12H243.94V248H242.2V251.17H244.37V252H241Z" fill="#CCCCCC"/>
<path d="M245.3 252V243.37H247C247.487 243.351 247.973 243.429 248.43 243.6C248.791 243.731 249.09 243.991 249.27 244.33C249.466 244.745 249.559 245.201 249.54 245.66C249.541 245.967 249.504 246.272 249.43 246.57C249.37 246.823 249.254 247.058 249.09 247.26C248.93 247.457 248.714 247.6 248.47 247.67L249.7 252H248.54L247.41 248H246.47V252H245.3ZM246.5 247.09H247C247.282 247.096 247.563 247.052 247.83 246.96C248.036 246.878 248.204 246.721 248.3 246.52C248.413 246.248 248.464 245.954 248.45 245.66C248.486 245.275 248.387 244.89 248.17 244.57C248.022 244.436 247.848 244.336 247.658 244.278C247.468 244.219 247.267 244.203 247.07 244.23H246.54L246.5 247.09Z" fill="#CCCCCC"/>
<path d="M250.83 252V243.37H251.65L254.1 249.1V243.37H255.1V252H254.34L251.85 246.11V252H250.83Z" fill="#CCCCCC"/>
<path d="M256 252L257.83 243.37H259L260.85 252H259.71L259.31 249.83H257.55L257.14 252H256ZM257.7 249H259.14L258.42 245.11L257.7 249Z" fill="#CCCCCC"/>
<path d="M261.68 252L261.84 243.37H263L264.53 250.37L266.06 243.37H267.23L267.39 252H266.39L266.3 245.73L264.89 252H264.21L262.76 245.73L262.66 252H261.68Z" fill="#CCCCCC"/>
<path d="M268.74 252V243.37H272.08V244.26H269.94V247.12H271.68V248H269.94V251.17H272.11V252H268.74Z" fill="#CCCCCC"/>
<path d="M229.29 287.73V279.1H231.43C231.861 279.076 232.291 279.173 232.67 279.38C232.983 279.569 233.222 279.858 233.35 280.2C233.501 280.613 233.572 281.051 233.56 281.49C233.57 281.896 233.488 282.3 233.32 282.67C233.171 282.992 232.926 283.261 232.62 283.44C232.257 283.631 231.85 283.724 231.44 283.71H230.49V287.71L229.29 287.73ZM230.49 282.85H231.05C231.328 282.861 231.606 282.82 231.87 282.73C231.967 282.696 232.055 282.642 232.129 282.571C232.203 282.501 232.262 282.415 232.3 282.32C232.391 282.057 232.432 281.778 232.42 281.5C232.43 281.181 232.399 280.862 232.33 280.55C232.307 280.449 232.261 280.355 232.195 280.275C232.129 280.195 232.045 280.131 231.95 280.09C231.664 279.991 231.362 279.947 231.06 279.96H230.49V282.85Z" fill="#CCCCCC"/>
<path d="M233.53 287.73L235.37 279.1H236.53L238.37 287.73H237.23L236.84 285.56H235.08L234.66 287.73H233.53ZM235.24 284.73H236.68L235.95 280.84L235.24 284.73Z" fill="#CCCCCC"/>
<path d="M241.28 287.83C240.844 287.845 240.414 287.734 240.04 287.51C239.709 287.297 239.448 286.991 239.29 286.63C239.111 286.212 239.009 285.764 238.99 285.31L240.06 285.03C240.08 285.327 240.127 285.621 240.2 285.91C240.266 286.169 240.392 286.409 240.57 286.61C240.662 286.702 240.774 286.774 240.896 286.821C241.018 286.867 241.149 286.887 241.28 286.88C241.41 286.889 241.54 286.871 241.663 286.826C241.785 286.781 241.897 286.711 241.99 286.62C242.162 286.409 242.248 286.141 242.23 285.87C242.246 285.532 242.151 285.199 241.96 284.92C241.759 284.66 241.535 284.419 241.29 284.2L239.84 282.93C239.576 282.703 239.361 282.424 239.21 282.11C239.062 281.759 238.99 281.381 239 281C238.983 280.73 239.023 280.459 239.118 280.206C239.212 279.953 239.36 279.722 239.55 279.53C239.744 279.35 239.973 279.21 240.222 279.119C240.47 279.028 240.735 278.988 241 279C241.305 278.996 241.61 279.043 241.9 279.14C242.147 279.221 242.37 279.361 242.55 279.55C242.733 279.753 242.872 279.991 242.96 280.25C243.079 280.571 243.15 280.908 243.17 281.25L242.17 281.53C242.15 281.267 242.107 281.005 242.04 280.75C241.986 280.527 241.867 280.326 241.7 280.17C241.501 280.021 241.259 279.94 241.01 279.94C240.761 279.94 240.519 280.021 240.32 280.17C240.231 280.264 240.163 280.376 240.12 280.498C240.077 280.621 240.06 280.751 240.07 280.88C240.06 281.104 240.105 281.327 240.2 281.53C240.309 281.729 240.455 281.905 240.63 282.05L242.09 283.33C242.425 283.621 242.717 283.958 242.96 284.33C243.215 284.751 243.343 285.237 243.33 285.73C243.34 286.117 243.247 286.501 243.06 286.84C242.89 287.14 242.636 287.383 242.33 287.54C242.01 287.724 241.649 287.824 241.28 287.83Z" fill="#CCCCCC"/>
<path d="M246.32 287.83C245.884 287.844 245.454 287.733 245.08 287.51C244.749 287.297 244.488 286.991 244.33 286.63C244.151 286.212 244.049 285.764 244.03 285.31L245.1 285.03C245.12 285.327 245.167 285.621 245.24 285.91C245.306 286.169 245.432 286.409 245.61 286.61C245.702 286.702 245.814 286.774 245.936 286.821C246.058 286.867 246.189 286.887 246.32 286.88C246.45 286.889 246.58 286.871 246.703 286.826C246.825 286.781 246.937 286.711 247.03 286.62C247.202 286.41 247.288 286.141 247.27 285.87C247.284 285.534 247.193 285.202 247.01 284.92C246.803 284.665 246.579 284.424 246.34 284.2L244.89 282.93C244.62 282.708 244.405 282.428 244.26 282.11C244.11 281.767 244.038 281.394 244.05 281.02C244.033 280.75 244.073 280.48 244.168 280.226C244.263 279.973 244.41 279.742 244.6 279.55C244.798 279.366 245.031 279.225 245.286 279.133C245.54 279.042 245.81 279.004 246.08 279.02C246.385 279.016 246.69 279.063 246.98 279.16C247.228 279.238 247.452 279.38 247.63 279.57C247.813 279.775 247.955 280.012 248.05 280.27C248.16 280.593 248.228 280.929 248.25 281.27L247.25 281.55C247.235 281.286 247.191 281.024 247.12 280.77C247.07 280.548 246.955 280.346 246.79 280.19C246.595 280.033 246.349 279.955 246.1 279.97C245.844 279.958 245.594 280.043 245.4 280.21C245.311 280.304 245.243 280.416 245.2 280.539C245.157 280.661 245.14 280.791 245.15 280.92C245.14 281.144 245.185 281.367 245.28 281.57C245.393 281.769 245.542 281.945 245.72 282.09L247.18 283.37C247.509 283.664 247.799 284 248.04 284.37C248.295 284.792 248.423 285.277 248.41 285.77C248.419 286.156 248.329 286.538 248.15 286.88C247.975 287.175 247.722 287.417 247.42 287.58C247.081 287.757 246.702 287.843 246.32 287.83Z" fill="#CCCCCC"/>
<path d="M250.45 287.73L249 279.1H250L250.93 285.3L252.09 279.13H253L254.17 285.34L255.08 279.1H256.08L254.69 287.73H253.82L252.61 281.34L251.4 287.73H250.45Z" fill="#CCCCCC"/>
<path d="M259.22 287.83C258.733 287.856 258.249 287.738 257.83 287.49C257.472 287.253 257.207 286.9 257.08 286.49C256.923 286.013 256.849 285.512 256.86 285.01V281.73C256.845 281.233 256.923 280.738 257.09 280.27C257.225 279.883 257.485 279.552 257.83 279.33C258.253 279.091 258.735 278.977 259.22 279C259.705 278.979 260.186 279.093 260.61 279.33C260.952 279.554 261.212 279.884 261.35 280.27C261.512 280.739 261.589 281.234 261.58 281.73V285C261.588 285.5 261.51 285.997 261.35 286.47C261.222 286.877 260.961 287.229 260.61 287.47C260.193 287.727 259.709 287.852 259.22 287.83ZM259.22 286.88C259.479 286.901 259.737 286.83 259.95 286.68C260.117 286.538 260.233 286.345 260.28 286.13C260.335 285.853 260.362 285.572 260.36 285.29V281.51C260.362 281.231 260.335 280.953 260.28 280.68C260.234 280.471 260.117 280.283 259.95 280.15C259.726 280.026 259.475 279.96 259.22 279.96C258.964 279.96 258.713 280.026 258.49 280.15C258.319 280.28 258.201 280.469 258.16 280.68C258.095 280.952 258.065 281.231 258.07 281.51V285.29C258.066 285.573 258.096 285.855 258.16 286.13C258.202 286.346 258.319 286.541 258.49 286.68C258.702 286.83 258.96 286.901 259.22 286.88Z" fill="#CCCCCC"/>
<path d="M262.76 287.73V279.1H264.5C264.987 279.087 265.472 279.165 265.93 279.33C266.285 279.47 266.581 279.728 266.77 280.06C266.966 280.475 267.059 280.931 267.04 281.39C267.042 281.697 267.005 282.003 266.93 282.3C266.872 282.557 266.756 282.796 266.59 283C266.423 283.189 266.209 283.33 265.97 283.41L267.2 287.73H266L264.87 283.68H264V287.73H262.76ZM263.97 282.82H264.42C264.706 282.832 264.991 282.787 265.26 282.69C265.363 282.651 265.458 282.592 265.539 282.517C265.619 282.441 265.684 282.351 265.73 282.25C265.839 281.977 265.887 281.684 265.87 281.39C265.903 281.007 265.808 280.624 265.6 280.3C265.452 280.168 265.277 280.069 265.087 280.01C264.897 279.951 264.697 279.934 264.5 279.96H264L263.97 282.82Z" fill="#CCCCCC"/>
<path d="M268.29 287.73V279.1H270.17C270.692 279.078 271.213 279.177 271.69 279.39C272.053 279.579 272.336 279.891 272.49 280.27C272.663 280.737 272.744 281.233 272.73 281.73V284.91C272.745 285.434 272.663 285.956 272.49 286.45C272.355 286.864 272.079 287.218 271.71 287.45C271.268 287.686 270.77 287.797 270.27 287.77L268.29 287.73ZM269.5 286.87H270.18C270.514 286.9 270.848 286.807 271.12 286.61C271.317 286.412 271.434 286.149 271.45 285.87C271.494 285.475 271.514 285.078 271.51 284.68V281.88C271.52 281.515 271.493 281.15 271.43 280.79C271.412 280.669 271.369 280.553 271.303 280.45C271.238 280.347 271.152 280.258 271.05 280.19C270.776 280.038 270.463 279.968 270.15 279.99H269.5V286.87Z" fill="#CCCCCC"/>
<path d="M238.15 324C237.698 324.016 237.249 323.912 236.85 323.7C236.498 323.495 236.222 323.183 236.06 322.81C235.866 322.355 235.764 321.865 235.76 321.37L237.11 321.1C237.123 321.4 237.166 321.699 237.24 321.99C237.285 322.212 237.392 322.417 237.55 322.58C237.621 322.652 237.708 322.708 237.802 322.744C237.897 322.78 237.998 322.796 238.1 322.79C238.202 322.798 238.304 322.782 238.398 322.742C238.492 322.702 238.575 322.639 238.64 322.56C238.751 322.388 238.807 322.185 238.8 321.98C238.813 321.65 238.722 321.325 238.54 321.05C238.343 320.783 238.115 320.542 237.86 320.33L236.77 319.33C236.48 319.078 236.234 318.781 236.04 318.45C235.85 318.079 235.757 317.666 235.77 317.25C235.752 316.959 235.796 316.668 235.899 316.395C236.003 316.123 236.163 315.876 236.37 315.67C236.822 315.283 237.406 315.086 238 315.12C238.342 315.111 238.682 315.172 239 315.3C239.256 315.416 239.48 315.595 239.65 315.82C239.814 316.045 239.933 316.3 240 316.57C240.081 316.861 240.132 317.159 240.15 317.46L238.81 317.7C238.803 317.454 238.773 317.21 238.72 316.97C238.686 316.783 238.599 316.61 238.47 316.47C238.402 316.406 238.322 316.357 238.234 316.326C238.146 316.295 238.053 316.283 237.96 316.29C237.858 316.283 237.756 316.301 237.662 316.341C237.569 316.381 237.485 316.442 237.42 316.52C237.288 316.68 237.221 316.883 237.23 317.09C237.22 317.342 237.283 317.592 237.41 317.81C237.558 318.028 237.736 318.223 237.94 318.39L239.01 319.34C239.367 319.639 239.675 319.994 239.92 320.39C240.187 320.825 240.319 321.33 240.3 321.84C240.308 322.247 240.205 322.648 240 323C239.824 323.318 239.56 323.578 239.24 323.75C238.903 323.923 238.528 324.009 238.15 324Z" fill="#E5E5E5"/>
<path d="M241.2 323.89V315.25H242.75V323.89H241.2Z" fill="#E5E5E5"/>
<path d="M246.25 324C245.773 324.026 245.3 323.9 244.9 323.64C244.555 323.396 244.302 323.044 244.18 322.64C244.027 322.107 243.966 321.553 244 321V318.1C243.989 317.559 244.06 317.02 244.21 316.5C244.336 316.09 244.601 315.736 244.96 315.5C245.413 315.245 245.93 315.124 246.45 315.15C246.936 315.131 247.42 315.23 247.86 315.44C248.199 315.635 248.463 315.938 248.61 316.3C248.771 316.735 248.849 317.196 248.84 317.66V318.11H247.33V317.62C247.348 317.384 247.348 317.146 247.33 316.91C247.302 316.735 247.217 316.573 247.09 316.45C246.923 316.336 246.721 316.283 246.52 316.3C246.411 316.288 246.301 316.299 246.198 316.334C246.094 316.368 245.999 316.425 245.92 316.5C245.789 316.649 245.705 316.833 245.68 317.03C245.664 317.273 245.664 317.517 245.68 317.76V321.37C245.674 321.632 245.698 321.893 245.75 322.15C245.785 322.346 245.883 322.525 246.03 322.66C246.193 322.783 246.395 322.843 246.6 322.83C246.814 322.846 247.025 322.778 247.19 322.64C247.335 322.496 247.433 322.311 247.47 322.11C247.53 321.844 247.557 321.572 247.55 321.3V320.49H246.62V319.49H248.97V323.87H247.97L247.85 323.01C247.744 323.287 247.564 323.529 247.33 323.71C247.021 323.944 246.634 324.048 246.25 324Z" fill="#E5E5E5"/>
<path d="M250 323.89V315.25H251.1L253.2 320.18V315.25H254.5V323.89H253.5L251.39 318.73V323.89H250Z" fill="#E5E5E5"/>
<path d="M368.81 182.73C368.81 182.73 367.54 192.73 368.01 194.13C368.48 195.53 371.34 201.26 371.5 201.73C371.66 202.2 368.17 205.21 368.81 206.64C369.45 208.07 372.92 209.81 372.92 209.81C372.92 209.81 381.47 219.62 382.58 219.46C383.69 219.3 387.81 217.09 387.81 217.09L390.18 222.63L413.77 212.63L406.65 200.91C406.65 200.91 399.21 182.07 392.24 176.05C385.27 170.03 371.66 175.92 368.81 182.73Z" fill="white"/>
<path d="M390.18 223.13C390.083 223.13 389.987 223.102 389.905 223.049C389.824 222.995 389.759 222.919 389.72 222.83L387.56 217.83C385.999 218.713 384.354 219.44 382.65 220C381.55 220.18 376.58 214.8 372.65 210.25C372.01 209.92 369.04 208.34 368.39 206.88C367.85 205.68 369.2 204.05 370.29 202.73C370.56 202.4 370.89 202.01 371.01 201.81C370.87 201.48 370.47 200.64 370.08 199.81C369.15 197.89 367.89 195.25 367.58 194.32C367.08 192.83 368.22 183.73 368.35 182.7V182.57C370.01 178.57 375.11 174.93 380.75 173.57C385.49 172.46 389.7 173.21 392.58 175.7C399.58 181.7 406.82 199.98 407.12 200.75L414.21 212.4C414.25 212.46 414.275 212.528 414.284 212.599C414.292 212.67 414.284 212.742 414.26 212.81C414.238 212.878 414.202 212.941 414.153 212.995C414.105 213.048 414.046 213.091 413.98 213.12L390.39 223.12C390.322 223.139 390.25 223.142 390.18 223.13ZM387.81 216.59C387.863 216.58 387.917 216.58 387.97 216.59C388.036 216.612 388.097 216.647 388.149 216.693C388.2 216.74 388.242 216.796 388.27 216.86L390.45 221.95L413.05 212.39L406.22 201.17C406.11 200.91 398.71 182.29 391.91 176.43C389.28 174.15 385.39 173.43 380.97 174.51C375.73 175.75 370.84 179.24 369.29 182.83C368.81 186.65 368.17 192.99 368.49 193.94C368.81 194.89 370.03 197.42 370.94 199.32C371.59 200.68 371.94 201.32 371.94 201.54C372.09 201.97 371.74 202.39 370.94 203.3C370.14 204.21 368.94 205.77 369.18 206.41C369.59 207.32 371.78 208.68 373.07 209.33C373.128 209.358 373.18 209.399 373.22 209.45C377.14 213.95 381.68 218.73 382.51 218.94C384.235 218.299 385.907 217.524 387.51 216.62C387.604 216.578 387.71 216.567 387.81 216.59Z" fill="#263238"/>
<path d="M382.58 219.46L388.56 213.04L387.81 217.09L382.58 219.46Z" fill="#263238"/>
<path d="M382.58 220C382.502 220.002 382.425 219.984 382.355 219.949C382.285 219.914 382.225 219.863 382.18 219.8C382.107 219.709 382.067 219.596 382.067 219.48C382.067 219.363 382.107 219.251 382.18 219.16L388.18 212.74C388.252 212.659 388.349 212.604 388.456 212.584C388.563 212.564 388.673 212.58 388.77 212.63C388.867 212.678 388.947 212.757 388.995 212.855C389.044 212.952 389.06 213.063 389.04 213.17L388.29 217.22C388.275 217.299 388.24 217.373 388.19 217.436C388.139 217.499 388.074 217.548 388 217.58L382.78 219.96C382.716 219.986 382.648 220 382.58 220ZM387.75 214.68L384.65 218.01L387.36 216.78L387.75 214.68Z" fill="#263238"/>
<path d="M371 206.14C370.868 206.14 370.736 206.119 370.61 206.08C368.79 205.6 366.46 201.49 366.2 201.02C366.139 200.909 366.123 200.779 366.155 200.656C366.187 200.534 366.263 200.428 366.37 200.36L381.37 190.86C381.425 190.82 381.488 190.792 381.554 190.777C381.62 190.763 381.689 190.762 381.755 190.774C381.822 190.787 381.885 190.813 381.942 190.851C381.998 190.889 382.046 190.938 382.083 190.995C382.119 191.052 382.144 191.116 382.155 191.183C382.166 191.25 382.164 191.319 382.148 191.385C382.132 191.451 382.102 191.513 382.061 191.567C382.02 191.621 381.969 191.666 381.91 191.7L370.84 198.7C371.62 200.5 373.31 204.95 371.61 205.97C371.424 206.078 371.214 206.137 371 206.14ZM367.26 201C368.26 202.62 369.84 204.91 370.82 205.17C370.86 205.19 370.905 205.201 370.95 205.201C370.995 205.201 371.039 205.19 371.08 205.17C371.75 204.77 371.08 201.86 369.98 199.3L367.26 201Z" fill="#263238"/>
<path d="M375.14 209.67C375.028 209.668 374.919 209.629 374.832 209.557C374.745 209.486 374.684 209.388 374.66 209.278C374.635 209.168 374.649 209.053 374.698 208.952C374.747 208.851 374.829 208.769 374.93 208.72C375.528 208.387 375.98 207.841 376.195 207.191C376.409 206.541 376.372 205.834 376.09 205.21C376.049 205.084 376.06 204.947 376.12 204.829C376.18 204.711 376.284 204.621 376.41 204.58C376.472 204.558 376.539 204.549 376.604 204.554C376.67 204.558 376.734 204.576 376.793 204.606C376.852 204.636 376.904 204.677 376.947 204.728C376.989 204.778 377.021 204.837 377.04 204.9C377.4 205.756 377.426 206.715 377.113 207.589C376.8 208.462 376.171 209.187 375.35 209.62C375.286 209.655 375.213 209.672 375.14 209.67Z" fill="#263238"/>
<path d="M369.6 195.42C369.467 195.42 369.34 195.367 369.247 195.274C369.153 195.18 369.1 195.053 369.1 194.92C369.102 194.616 369.174 194.317 369.309 194.045C369.444 193.773 369.639 193.535 369.88 193.35C370.23 193.16 370.622 193.061 371.02 193.061C371.418 193.061 371.81 193.16 372.16 193.35C372.221 193.374 372.277 193.41 372.324 193.456C372.371 193.502 372.409 193.557 372.435 193.617C372.461 193.677 372.475 193.742 372.476 193.808C372.477 193.874 372.464 193.939 372.44 194C372.416 194.061 372.38 194.117 372.334 194.164C372.288 194.211 372.234 194.249 372.173 194.275C372.113 194.301 372.048 194.315 371.982 194.315C371.916 194.316 371.851 194.304 371.79 194.28C371.17 194.03 370.7 193.99 370.44 194.17C370.333 194.264 370.248 194.379 370.189 194.508C370.131 194.638 370.1 194.778 370.1 194.92C370.1 195.053 370.047 195.18 369.954 195.274C369.86 195.367 369.733 195.42 369.6 195.42Z" fill="#263238"/>
<path d="M373.87 203.34C373.783 203.339 373.697 203.316 373.622 203.272C373.546 203.228 373.483 203.165 373.44 203.09L371.54 199.76C371.503 199.703 371.479 199.638 371.468 199.571C371.457 199.504 371.46 199.436 371.476 199.37C371.493 199.304 371.523 199.242 371.564 199.188C371.605 199.134 371.657 199.089 371.716 199.055C371.775 199.022 371.841 199.001 371.908 198.994C371.976 198.987 372.044 198.993 372.109 199.013C372.174 199.033 372.234 199.066 372.286 199.111C372.338 199.155 372.38 199.209 372.41 199.27L374.31 202.59C374.375 202.705 374.391 202.842 374.355 202.969C374.32 203.097 374.235 203.205 374.12 203.27C374.045 203.317 373.958 203.342 373.87 203.34Z" fill="#263238"/>
<path d="M370.23 175.76C370.71 175.92 370.07 169.11 367.86 170.85C365.65 172.59 365.48 178.93 365.48 178.93C365.48 178.93 362.63 175.45 362 178.3C361.37 181.15 365.64 185.9 367.22 185.74C368.8 185.58 375.46 179.4 375.14 181.3C374.82 183.2 372.76 186.53 374.03 187.16C375.3 187.79 378.46 186.53 378.46 186.53C378.46 186.53 378.94 193.65 380.84 193.34C382.74 193.03 384.16 190.01 385.59 191.91C387.02 193.81 396.83 203.47 397.47 203.47C398.11 203.47 406.65 200.94 406.65 200.94C406.65 200.94 407.28 191.12 407.76 184.63C408.24 178.14 404.43 169.43 398.89 165.95C393.35 162.47 385.11 163.25 381.16 165.95C377.21 168.65 370.23 175.76 370.23 175.76Z" fill="#263238"/>
<path d="M397.46 204C396.33 204 385.74 193 385.19 192.24C385.06 192.037 384.861 191.888 384.63 191.82C384.27 191.82 383.7 192.21 383.16 192.63C382.527 193.22 381.757 193.643 380.92 193.86C380.743 193.886 380.562 193.875 380.39 193.827C380.218 193.779 380.057 193.694 379.92 193.58C378.66 192.58 378.18 188.84 378.03 187.25C376.97 187.61 374.91 188.19 373.82 187.64C372.58 187.02 373.27 185.2 373.95 183.44C374.191 182.838 374.401 182.223 374.58 181.6C373.51 182.231 372.482 182.93 371.5 183.69C369.39 185.24 368.05 186.19 367.28 186.27C366.06 186.4 364.39 184.65 363.92 184.11C362.48 182.5 361.1 180.11 361.52 178.22C361.71 177.38 362.1 176.88 362.68 176.74C363.126 176.719 363.571 176.798 363.983 176.971C364.395 177.144 364.763 177.407 365.06 177.74C365.23 175.74 365.77 171.85 367.56 170.45C367.817 170.212 368.154 170.079 368.505 170.079C368.855 170.079 369.193 170.212 369.45 170.45C370.25 171.14 370.74 173.05 370.86 174.45C372.92 172.39 377.77 167.67 380.86 165.55C385.1 162.67 393.46 161.97 399.14 165.55C404.58 168.97 408.75 177.74 408.24 184.7C407.77 191.11 407.13 200.9 407.13 201C407.121 201.102 407.082 201.199 407.018 201.279C406.954 201.359 406.868 201.419 406.77 201.45C404.77 202 398.12 204 397.46 204ZM384.56 190.82H384.76C385.009 190.864 385.247 190.958 385.459 191.097C385.671 191.237 385.851 191.418 385.99 191.63C387.38 193.49 396.29 202.23 397.54 202.98C398.34 202.85 403.06 201.5 406.17 200.58C406.29 198.77 406.84 190.35 407.26 184.58C407.74 177.95 403.79 169.58 398.63 166.36C393.47 163.14 385.34 163.7 381.44 166.36C377.89 168.77 371.81 174.88 370.75 175.95C370.679 176.058 370.577 176.142 370.457 176.19C370.338 176.239 370.206 176.249 370.08 176.22C370 176.19 369.929 176.142 369.872 176.079C369.815 176.017 369.773 175.942 369.75 175.86C369.73 175.779 369.732 175.694 369.755 175.613C369.778 175.532 369.821 175.459 369.88 175.4C369.98 174.66 369.59 171.69 368.74 171.11C368.66 171.11 368.52 170.96 368.17 171.23C366.51 172.54 366.03 177.23 365.99 178.92C365.984 179.021 365.949 179.117 365.888 179.198C365.827 179.278 365.744 179.339 365.648 179.372C365.553 179.406 365.45 179.41 365.353 179.384C365.255 179.359 365.167 179.305 365.1 179.23C364.5 178.5 363.4 177.55 362.91 177.66C362.68 177.72 362.55 178.14 362.5 178.38C362.18 179.8 363.36 181.93 364.67 183.38C365.77 184.62 366.81 185.26 367.18 185.2C367.74 185.14 369.57 183.8 370.91 182.82C373.67 180.82 374.7 180.12 375.33 180.51C375.465 180.598 375.568 180.727 375.624 180.879C375.68 181.03 375.685 181.195 375.64 181.35C375.464 182.166 375.209 182.963 374.88 183.73C374.49 184.73 373.88 186.46 374.27 186.68C375.04 187.06 377.14 186.48 378.27 186.02C378.344 185.993 378.423 185.984 378.501 185.992C378.579 186.001 378.654 186.028 378.72 186.07C378.787 186.111 378.844 186.168 378.884 186.236C378.924 186.304 378.947 186.381 378.95 186.46C379.09 188.51 379.64 192.03 380.52 192.73C380.55 192.759 380.587 192.78 380.627 192.792C380.667 192.804 380.709 192.807 380.75 192.8C381.412 192.607 382.021 192.265 382.53 191.8C383.079 191.252 383.791 190.897 384.56 190.79V190.82Z" fill="#263238"/>
<path d="M381.79 196.35C381.79 196.35 380.52 187.35 383.69 188.9C386.86 190.45 389.39 198.9 388.6 200.78C387.81 202.66 385.91 201.41 385.91 201.41" fill="white"/>
<path d="M387.2 202.33C386.641 202.309 386.098 202.136 385.63 201.83C385.52 201.757 385.444 201.643 385.418 201.514C385.392 201.384 385.418 201.25 385.49 201.14C385.525 201.084 385.571 201.037 385.626 201C385.68 200.963 385.741 200.937 385.805 200.924C385.87 200.911 385.936 200.911 386 200.924C386.065 200.937 386.126 200.963 386.18 201C386.566 201.253 387.032 201.357 387.49 201.29C387.643 201.228 387.78 201.133 387.893 201.012C388.005 200.891 388.089 200.747 388.14 200.59C388.84 198.91 386.41 190.82 383.47 189.35C383.01 189.12 382.83 189.25 382.76 189.35C381.85 190 381.93 193.82 382.29 196.35C382.304 196.481 382.268 196.612 382.187 196.716C382.107 196.821 381.99 196.89 381.86 196.91C381.795 196.92 381.73 196.917 381.666 196.901C381.603 196.885 381.544 196.857 381.492 196.817C381.44 196.778 381.396 196.729 381.363 196.673C381.33 196.617 381.308 196.554 381.3 196.49C381.14 195.38 380.45 189.8 382.18 188.55C382.437 188.38 382.737 188.29 383.045 188.29C383.352 188.29 383.653 188.38 383.91 188.55C387.43 190.3 389.91 198.97 389.06 201.06C388.956 201.357 388.786 201.627 388.563 201.849C388.339 202.071 388.068 202.239 387.77 202.34C387.58 202.361 387.389 202.357 387.2 202.33Z" fill="#263238"/>
<path d="M387.21 221.91L383.74 231.74C390.447 228.151 397.409 225.059 404.57 222.49C410.103 220.538 415.789 219.053 421.57 218.05L416.36 210.34C416.36 210.34 394.92 212.46 387.21 221.91Z" fill="#BAE4FF"/>
<path d="M383.74 232.25C383.62 232.245 383.505 232.203 383.41 232.13C383.336 232.062 383.283 231.973 383.258 231.876C383.233 231.778 383.237 231.675 383.27 231.58L386.74 221.74C386.763 221.688 386.789 221.638 386.82 221.59C394.58 212.09 415.4 209.93 416.28 209.84C416.371 209.829 416.463 209.844 416.546 209.883C416.63 209.922 416.7 209.983 416.75 210.06L421.96 217.77C421.999 217.844 422.02 217.926 422.02 218.01C422.02 218.094 421.999 218.176 421.96 218.25C421.925 218.328 421.871 218.397 421.803 218.449C421.735 218.501 421.655 218.536 421.57 218.55C415.844 219.568 410.211 221.056 404.73 223C397.608 225.557 390.68 228.625 384 232.18C383.923 232.23 383.832 232.254 383.74 232.25ZM387.65 222.16L384.65 230.7C391.024 227.34 397.627 224.432 404.41 222C409.724 220.163 415.165 218.716 420.69 217.67L416.09 210.86C413.5 211.17 394.7 213.63 387.65 222.16Z" fill="#263238"/>
<path d="M332.86 244.93L354.72 281.62C354.8 281.754 354.921 281.859 355.065 281.92C355.208 281.981 355.368 281.995 355.52 281.96L376.05 276.96C376.16 276.934 376.262 276.882 376.348 276.809C376.434 276.736 376.502 276.643 376.546 276.539C376.59 276.435 376.608 276.322 376.6 276.209C376.592 276.096 376.558 275.987 376.5 275.89L357.5 242.97C357.43 242.856 357.331 242.763 357.213 242.7C357.096 242.637 356.963 242.606 356.83 242.61L333.4 243.87C333.284 243.885 333.173 243.928 333.077 243.995C332.981 244.063 332.903 244.153 332.85 244.257C332.797 244.362 332.77 244.478 332.772 244.595C332.773 244.712 332.804 244.827 332.86 244.93Z" fill="#263238"/>
<path d="M355.34 282.48C355.136 282.473 354.937 282.414 354.762 282.309C354.587 282.205 354.442 282.057 354.34 281.88L332.47 245.19C332.362 245.007 332.305 244.798 332.305 244.585C332.305 244.372 332.362 244.163 332.47 243.98C332.568 243.796 332.711 243.639 332.886 243.526C333.061 243.412 333.262 243.344 333.47 243.33L356.9 242.07C357.126 242.059 357.351 242.11 357.55 242.217C357.749 242.325 357.915 242.485 358.03 242.68L377.03 275.6C377.124 275.765 377.178 275.949 377.188 276.138C377.199 276.327 377.166 276.516 377.091 276.691C377.017 276.865 376.903 277.02 376.759 277.143C376.614 277.266 376.444 277.354 376.26 277.4L355.73 282.4C355.607 282.452 355.474 282.48 355.34 282.48ZM356.91 243.07L333.48 244.33C333.441 244.332 333.403 244.344 333.369 244.365C333.336 244.386 333.309 244.415 333.29 244.45C333.271 244.483 333.26 244.521 333.26 244.56C333.26 244.598 333.271 244.636 333.29 244.67L355.15 281.37C355.176 281.411 355.214 281.442 355.259 281.46C355.304 281.478 355.353 281.482 355.4 281.47L375.93 276.47C375.964 276.463 375.996 276.448 376.022 276.425C376.049 276.402 376.068 276.373 376.08 276.34C376.098 276.309 376.107 276.275 376.107 276.24C376.107 276.205 376.098 276.17 376.08 276.14L357.08 243.22C357.069 243.181 357.047 243.147 357.017 243.12C356.987 243.093 356.95 243.076 356.91 243.07Z" fill="#263238"/>
<path d="M335.28 246.38L354.96 279.4L373.97 274.74L356.96 245.22L335.28 246.38Z" fill="#878787"/>
<path d="M355 279.9C354.913 279.9 354.829 279.878 354.753 279.836C354.678 279.794 354.615 279.734 354.57 279.66L334.89 246.66C334.848 246.585 334.825 246.502 334.823 246.416C334.822 246.331 334.842 246.246 334.882 246.17C334.922 246.095 334.98 246.03 335.051 245.983C335.123 245.936 335.205 245.907 335.29 245.9L356.97 244.74C357.063 244.731 357.156 244.75 357.238 244.795C357.32 244.839 357.387 244.907 357.43 244.99L374.43 274.5C374.464 274.57 374.482 274.647 374.482 274.725C374.482 274.803 374.464 274.88 374.43 274.95C374.399 275.021 374.353 275.085 374.294 275.135C374.235 275.185 374.165 275.221 374.09 275.24L355.09 279.91L355 279.9ZM336.17 246.84L355.24 278.84L373.24 274.42L356.72 245.74L336.17 246.84Z" fill="#263238"/>
<path d="M371.2 252.38C371.2 252.38 365.41 255.47 363.29 256.43C361.17 257.39 360.01 258.17 361.36 259.33C362.71 260.49 367.36 257.78 367.36 257.78L371.03 256.24L371.2 252.38Z" fill="white"/>
<path d="M362.35 260.11C361.88 260.135 361.416 259.993 361.04 259.71C360.796 259.549 360.599 259.327 360.469 259.065C360.339 258.803 360.28 258.511 360.3 258.22C360.42 257.35 361.41 256.74 363.09 255.98C365.17 255.03 370.91 251.98 370.97 251.98C371.046 251.936 371.132 251.913 371.22 251.913C371.308 251.913 371.394 251.936 371.47 251.98C371.544 252.028 371.604 252.095 371.645 252.174C371.685 252.253 371.704 252.341 371.7 252.43L371.51 256.29C371.505 256.384 371.473 256.474 371.418 256.55C371.363 256.627 371.288 256.685 371.2 256.72L367.54 258.26C366.94 258.6 364.23 260.11 362.35 260.11ZM370.66 253.24C369 254.12 365.17 256.13 363.5 256.89C362.91 257.16 361.36 257.89 361.29 258.36C361.29 258.5 361.41 258.71 361.69 258.95C362.43 259.58 365.35 258.37 367.09 257.35L370.52 255.9L370.66 253.24Z" fill="#263238"/>
<path d="M418.25 459.8L419.56 469.8C419.56 469.8 418.25 471.98 414.11 472.41C409.97 472.84 406.91 473.5 406.91 473.5L408.05 463.75L418.25 459.8Z" fill="white"/>
<path d="M406.92 474C406.795 474 406.674 473.953 406.58 473.87C406.521 473.816 406.476 473.749 406.448 473.674C406.42 473.599 406.411 473.519 406.42 473.44L407.56 463.68C407.569 463.591 407.603 463.506 407.658 463.436C407.713 463.365 407.786 463.311 407.87 463.28L418.07 459.28C418.139 459.248 418.214 459.231 418.29 459.231C418.366 459.231 418.441 459.248 418.51 459.28C418.576 459.319 418.632 459.373 418.673 459.437C418.715 459.501 418.741 459.574 418.75 459.65L420.06 469.65C420.074 469.761 420.049 469.874 419.99 469.97C419.93 470.07 418.5 472.38 414.16 472.83C410.09 473.26 407.05 473.91 407.02 473.91L406.92 474ZM408.51 464.1L407.51 472.87C408.65 472.65 411.09 472.22 414.08 471.87C417.35 471.52 418.71 470.07 419.08 469.62L417.88 460.42L408.51 464.1Z" fill="#263238"/>
<path d="M419.56 469.83L419.37 468.38C415.473 469.72 411.39 470.439 407.27 470.51L406.91 473.51C406.91 473.51 409.97 472.86 414.11 472.42C418.25 471.98 419.56 469.83 419.56 469.83Z" fill="white"/>
<path d="M406.92 474C406.795 474 406.674 473.954 406.58 473.87C406.521 473.816 406.476 473.749 406.448 473.674C406.42 473.6 406.411 473.519 406.42 473.44L406.77 470.44C406.784 470.321 406.841 470.212 406.929 470.131C407.017 470.05 407.131 470.004 407.25 470C411.316 469.93 415.345 469.221 419.19 467.9C419.259 467.868 419.334 467.852 419.41 467.852C419.486 467.852 419.561 467.868 419.63 467.9C419.696 467.937 419.751 467.989 419.793 468.051C419.835 468.114 419.861 468.185 419.87 468.26L420.06 469.71C420.074 469.821 420.049 469.934 419.99 470.03C419.93 470.13 418.5 472.44 414.16 472.89C410.09 473.32 407.05 473.97 407.02 473.97L406.92 474ZM407.71 470.95L407.49 472.87C408.63 472.65 411.07 472.22 414.06 471.87C417.33 471.52 418.69 470.07 419.06 469.62L418.98 468.98C415.339 470.186 411.544 470.866 407.71 471V470.95Z" fill="#263238"/>
<path d="M388.6 455.66L377.26 462.66C374.68 463.342 372.058 463.853 369.41 464.19C368.912 464.209 368.431 464.378 368.031 464.674C367.63 464.971 367.328 465.381 367.164 465.852C367 466.322 366.981 466.832 367.111 467.313C367.24 467.794 367.512 468.225 367.89 468.55C369.2 469.64 373.53 471.49 379.01 472.69C389.91 475.09 405.61 474.22 406.91 473.56C408.085 473.057 409.022 472.123 409.53 470.95C409.75 470.08 409.53 461.57 409.53 461.57C409.53 461.57 393 459.58 388.6 455.66Z" fill="white"/>
<path d="M396.45 474.75C390.561 474.815 384.68 474.279 378.9 473.15C373.4 471.94 368.95 470.06 367.57 468.9C367.121 468.495 366.8 467.969 366.643 467.385C366.487 466.801 366.503 466.185 366.69 465.61C366.878 465.044 367.239 464.552 367.721 464.202C368.204 463.853 368.784 463.663 369.38 463.66C371.973 463.331 374.542 462.834 377.07 462.17L388.34 455.23C388.432 455.176 388.539 455.152 388.645 455.163C388.751 455.174 388.851 455.218 388.93 455.29C393.13 459.06 409.43 461.03 409.59 461.05C409.709 461.064 409.818 461.12 409.899 461.208C409.98 461.296 410.026 461.411 410.03 461.53C410.03 462.96 410.24 470.15 410.03 471.04C409.484 472.354 408.453 473.407 407.15 473.98C406.42 474.34 402.05 474.75 396.45 474.75ZM388.55 456.27L377.55 463.06C377.507 463.088 377.46 463.109 377.41 463.12C374.8 463.808 372.148 464.322 369.47 464.66C369.074 464.647 368.685 464.762 368.359 464.987C368.033 465.212 367.788 465.535 367.66 465.91C367.539 466.298 367.528 466.712 367.628 467.106C367.729 467.5 367.937 467.858 368.23 468.14C369.34 469.06 373.45 470.92 379.14 472.14C390.05 474.55 405.67 473.58 406.71 473.06C407.746 472.605 408.584 471.792 409.07 470.77C409.21 470.21 409.14 465.24 409.07 461.96C406.4 461.65 393 459.79 388.55 456.27Z" fill="#263238"/>
<path d="M377.48 469.83C371.09 467.89 368.48 466.31 367.41 465.24C367.107 465.76 366.989 466.368 367.076 466.964C367.164 467.56 367.45 468.108 367.89 468.52C369.2 469.61 373.53 471.46 379.01 472.66C389.91 475.06 405.61 474.19 406.91 473.53C408.017 473.034 408.921 472.172 409.47 471.09C402.18 471.72 386.61 472.6 377.48 469.83Z" fill="white"/>
<path d="M396.45 474.75C390.561 474.815 384.68 474.279 378.9 473.15C373.4 471.94 368.95 470.06 367.57 468.9C367.044 468.413 366.701 467.76 366.597 467.05C366.493 466.341 366.636 465.617 367 465C367.041 464.937 367.095 464.883 367.159 464.843C367.223 464.804 367.295 464.779 367.37 464.77C367.445 464.761 367.522 464.77 367.593 464.796C367.664 464.822 367.728 464.864 367.78 464.92C368.72 465.87 371.2 467.42 377.64 469.38C386.83 472.17 402.94 471.18 409.43 470.62C409.516 470.613 409.602 470.627 409.681 470.662C409.76 470.697 409.828 470.751 409.88 470.82C409.931 470.886 409.964 470.964 409.976 471.046C409.988 471.128 409.979 471.212 409.95 471.29C409.36 472.494 408.371 473.455 407.15 474.01C406.42 474.34 402.05 474.75 396.45 474.75ZM367.6 466.08C367.515 466.447 367.527 466.829 367.634 467.19C367.741 467.551 367.939 467.878 368.21 468.14C369.32 469.06 373.43 470.92 379.12 472.14C390.03 474.55 405.65 473.58 406.69 473.06C407.394 472.712 408.022 472.23 408.54 471.64C400.22 472.31 386.01 472.91 377.34 470.28C372.57 468.86 369.3 467.44 367.6 466.08Z" fill="#263238"/>
<path d="M424.18 317.46C424.18 317.46 424.18 328.21 420.59 333.98C417 339.75 412 344.93 412 345.73C412 346.53 407.23 383.73 407.23 385.73C407.23 387.73 407.03 393.5 408.23 396.48C409.43 399.46 414.01 418.38 416.79 435.3C419.57 452.22 418.38 456.41 418.38 456.41C418.897 457.63 419.298 458.895 419.58 460.19C419.461 461.204 419.26 462.208 418.98 463.19C415.434 464.283 411.674 464.489 408.03 463.79C407.915 462.186 408.05 460.573 408.43 459.01C409.03 457.42 408.63 453.01 408.63 452.01C408.63 451.01 401.06 399.45 401.06 395.47C401.06 391.49 400.87 349.28 400.87 349.28L399.09 320C399.09 320 409.45 319.65 424.18 317.46Z" fill="#BAE4FF"/>
<path d="M412.83 464.68C411.19 464.708 409.552 464.571 407.94 464.27C407.834 464.245 407.74 464.186 407.669 464.104C407.599 464.021 407.557 463.918 407.55 463.81C407.434 462.131 407.579 460.444 407.98 458.81C408.42 457.65 408.27 454.67 408.19 453.07C408.19 452.6 408.19 452.23 408.19 452.07C408.19 451.65 407.27 445.29 406.19 437.92C403.96 422.11 400.59 398.22 400.59 395.53C400.59 391.59 400.39 349.76 400.39 349.34L398.59 320.1C398.584 319.966 398.632 319.836 398.721 319.737C398.811 319.638 398.936 319.578 399.07 319.57C399.18 319.57 409.57 319.15 424.07 316.99C424.141 316.978 424.214 316.983 424.284 317.004C424.353 317.025 424.416 317.061 424.47 317.11C424.526 317.156 424.571 317.214 424.603 317.28C424.634 317.345 424.65 317.417 424.65 317.49C424.65 317.93 424.65 328.49 420.99 334.27C419.072 337.243 416.979 340.098 414.72 342.82C413.9 343.758 413.157 344.761 412.5 345.82C412.5 346.09 411.96 350.53 410.9 359C409.56 369.8 407.73 384.59 407.73 385.78V386.55C407.73 388.9 407.67 393.77 408.73 396.35C409.96 399.44 414.54 418.43 417.32 435.27C419.82 450.47 419.13 455.46 418.94 456.42C419.468 457.647 419.861 458.928 420.11 460.24C419.997 461.296 419.79 462.341 419.49 463.36C419.468 463.44 419.426 463.513 419.369 463.572C419.311 463.632 419.239 463.676 419.16 463.7C417.102 464.304 414.974 464.634 412.83 464.68ZM408.54 463.36C409.959 463.583 411.393 463.69 412.83 463.68C414.78 463.623 416.715 463.321 418.59 462.78C418.832 461.936 419.003 461.073 419.1 460.2C418.829 458.966 418.441 457.76 417.94 456.6C417.905 456.496 417.905 456.384 417.94 456.28C417.94 456.28 419.06 451.88 416.34 435.39C413.58 418.62 409.03 399.73 407.81 396.68C406.7 393.92 406.75 389.1 406.81 386.5V385.74C406.81 384.49 408.57 370.26 409.99 358.83C410.8 352.29 411.57 346.11 411.58 345.72C411.59 345.33 412.17 344.47 414.02 342.16C416.255 339.474 418.325 336.656 420.22 333.72C423.22 328.89 423.65 320.33 423.72 318.04C411.24 319.87 401.91 320.41 399.67 320.52L401.43 349.28C401.43 349.73 401.64 391.56 401.64 395.5C401.64 398.12 405 421.97 407.23 437.75C408.56 447.15 409.23 451.68 409.23 452.04C409.23 452.24 409.23 452.6 409.23 453.04C409.32 454.83 409.47 457.83 408.96 459.18C408.6 460.542 408.458 461.953 408.54 463.36Z" fill="#263238"/>
<path d="M410 340C410 340 405.23 348.76 404.83 349.56C404.43 350.36 404.43 357.32 404.43 358.92C404.43 360.52 403.43 390.77 403.63 394.92C403.83 399.07 407.02 412.04 408.01 419.8C409 427.56 410.8 450.26 411.01 450.86C411.576 452.524 411.781 454.29 411.61 456.04C411.275 457.345 410.806 458.612 410.21 459.82C410.21 459.82 410.81 463.2 410.41 464.2C410.01 465.2 404.64 466.2 397.07 464C389.5 461.8 386.32 457 386.32 457C386.628 456.031 386.763 455.016 386.72 454C386.732 453.433 386.936 452.888 387.3 452.453C387.664 452.019 388.165 451.721 388.72 451.61L385 425C385 425 381.42 416.64 381.22 415.25C381.02 413.86 382.01 410.47 381.81 409.07C381.61 407.67 379.23 404.69 379.03 403.3C378.83 401.91 372.26 379.61 371.86 359.9C371.46 340.19 372.21 321.9 372.21 321.9C372.21 321.9 377.21 324.5 392.76 323.51C408.31 322.52 414.46 322.31 421.83 319.13" fill="#BAE4FF"/>
<path d="M405.62 465.8C402.685 465.756 399.771 465.305 396.96 464.46C389.31 462.25 386.07 457.46 385.96 457.29C385.914 457.224 385.885 457.147 385.876 457.066C385.867 456.986 385.879 456.905 385.91 456.83C386.181 455.922 386.303 454.977 386.27 454.03C386.266 453.426 386.451 452.837 386.799 452.343C387.147 451.85 387.64 451.478 388.21 451.28L384.49 425.1C384.02 423.99 380.9 416.67 380.7 415.28C380.658 414.178 380.759 413.076 381 412C381.215 411.035 381.315 410.048 381.3 409.06C380.979 408.105 380.532 407.197 379.97 406.36C379.323 405.421 378.83 404.384 378.51 403.29C378.51 403.1 378.29 402.29 378.01 401.29C376.45 395.17 371.68 376.55 371.34 359.85C370.94 340.35 371.68 321.96 371.69 321.78C371.691 321.697 371.714 321.615 371.756 321.543C371.798 321.471 371.858 321.412 371.93 321.37C372.004 321.331 372.086 321.31 372.17 321.31C372.254 321.31 372.336 321.331 372.41 321.37C372.46 321.37 377.57 323.9 392.71 322.93L395.71 322.74C409.25 321.88 414.85 321.53 421.65 318.59C421.772 318.537 421.91 318.534 422.034 318.583C422.158 318.632 422.257 318.728 422.31 318.85C422.363 318.972 422.366 319.11 422.317 319.234C422.268 319.358 422.172 319.457 422.05 319.51C415.05 322.51 409.05 322.9 395.77 323.74L392.82 323.93C380.31 324.73 374.55 323.22 372.7 322.55C372.57 326.13 372.03 342.55 372.38 359.85C372.71 376.44 377.46 394.97 379.02 401.06C379.36 402.37 379.51 402.96 379.54 403.19C379.858 404.147 380.305 405.055 380.87 405.89C381.515 406.83 382.008 407.866 382.33 408.96C382.369 410.048 382.268 411.137 382.03 412.2C381.816 413.165 381.715 414.152 381.73 415.14C382.812 418.41 384.064 421.621 385.48 424.76C385.489 424.803 385.489 424.847 385.48 424.89L389.27 451.57C389.285 451.696 389.253 451.824 389.179 451.928C389.105 452.031 388.995 452.103 388.87 452.13C388.43 452.222 388.034 452.459 387.746 452.804C387.457 453.149 387.293 453.581 387.28 454.03C387.295 455.004 387.181 455.976 386.94 456.92C389.611 460.14 393.223 462.441 397.27 463.5C404.87 465.7 409.66 464.5 410.01 463.98C410.154 462.613 410.076 461.232 409.78 459.89C409.761 459.784 409.778 459.674 409.83 459.58C410.398 458.403 410.851 457.174 411.18 455.91C411.337 454.25 411.135 452.576 410.59 451C410.51 450.74 410.33 448.88 409.7 441.65C409.07 434.42 408.18 424.44 407.59 419.85C407.11 416.11 406.14 411.26 405.2 406.57C404.332 402.724 403.664 398.835 403.2 394.92C403.06 391.87 403.53 375.38 403.82 365.53C403.92 361.91 404 359.3 404 358.87C404 350.19 404.33 349.53 404.45 349.29C404.85 348.49 409.45 340.07 409.63 339.71C409.662 339.652 409.704 339.601 409.756 339.56C409.807 339.518 409.866 339.488 409.929 339.469C409.992 339.451 410.058 339.445 410.124 339.452C410.189 339.459 410.252 339.478 410.31 339.51C410.368 339.541 410.419 339.584 410.46 339.635C410.502 339.687 410.532 339.745 410.551 339.809C410.57 339.872 410.576 339.938 410.569 340.003C410.562 340.069 410.542 340.132 410.51 340.19C410.46 340.28 405.73 348.95 405.34 349.73C405.26 349.91 405 351.12 405 358.87C405 359.31 404.92 361.93 404.82 365.56C404.55 374.75 404.06 391.86 404.2 394.88C404.664 398.746 405.331 402.585 406.2 406.38C407.14 411.08 408.12 415.95 408.6 419.72C409.19 424.33 410.07 434.29 410.71 441.56C411.11 446.07 411.49 450.34 411.57 450.71C411.57 450.71 412.65 453.99 412.17 456.13C411.852 457.425 411.396 458.682 410.81 459.88C410.95 460.72 411.35 463.37 410.96 464.37C410.58 465.19 408.6 465.8 405.62 465.8Z" fill="#263238"/>
<path d="M394.92 459.86C394.816 459.861 394.714 459.828 394.629 459.767C394.545 459.706 394.482 459.619 394.45 459.52C394.45 459.52 394.01 458.21 393.35 456.02C393.135 455.381 393.115 454.693 393.293 454.042C393.471 453.392 393.839 452.81 394.35 452.37L393.1 439.37C393.089 439.238 393.129 439.106 393.213 439.004C393.297 438.901 393.418 438.835 393.55 438.82C393.682 438.811 393.812 438.853 393.914 438.936C394.016 439.02 394.083 439.139 394.1 439.27L395.37 452.54C395.38 452.632 395.364 452.725 395.323 452.808C395.282 452.891 395.219 452.961 395.14 453.01C394.719 453.302 394.405 453.725 394.246 454.212C394.087 454.7 394.092 455.226 394.26 455.71C394.91 457.88 395.35 459.18 395.35 459.19C395.391 459.316 395.38 459.453 395.32 459.571C395.26 459.689 395.156 459.779 395.03 459.82C394.995 459.839 394.958 459.852 394.92 459.86Z" fill="#263238"/>
<path d="M393.22 435.38C393.095 435.376 392.976 435.327 392.884 435.243C392.793 435.158 392.734 435.044 392.72 434.92L390.72 414.32C389.846 413.805 389.065 413.145 388.41 412.37C387.48 411.25 388.51 409.77 389.27 408.69C389.493 408.402 389.684 408.09 389.84 407.76C389.84 407.76 385.84 394.43 382.2 375.76C382.03 374.85 381.86 373.91 381.71 372.94C381.69 372.807 381.722 372.672 381.801 372.564C381.88 372.455 381.998 372.382 382.13 372.36C382.26 372.345 382.392 372.38 382.497 372.458C382.603 372.536 382.676 372.651 382.7 372.78C382.85 373.78 383.01 374.67 383.19 375.57C386.82 394.21 390.77 407.45 390.8 407.57C390.96 408.05 390.61 408.57 390.09 409.3C389.57 410.03 388.74 411.24 389.18 411.77C389.807 412.516 390.566 413.14 391.42 413.61C391.496 413.647 391.561 413.703 391.609 413.773C391.656 413.844 391.684 413.925 391.69 414.01L393.69 434.87C393.697 434.935 393.691 435.001 393.672 435.064C393.652 435.126 393.621 435.185 393.579 435.235C393.537 435.285 393.485 435.327 393.427 435.357C393.369 435.387 393.305 435.405 393.24 435.41L393.22 435.38Z" fill="#263238"/>
<path d="M381.49 367.55C381.366 367.548 381.247 367.502 381.155 367.419C381.063 367.336 381.005 367.223 380.99 367.1C379.22 349.64 380.46 327.43 380.47 327.21C380.473 327.144 380.488 327.079 380.517 327.019C380.545 326.959 380.585 326.906 380.635 326.862C380.684 326.818 380.742 326.784 380.805 326.763C380.868 326.742 380.934 326.734 381 326.74C381.132 326.75 381.254 326.811 381.342 326.91C381.43 327.009 381.476 327.138 381.47 327.27C381.47 327.49 380.22 349.62 381.99 367C381.997 367.066 381.991 367.132 381.972 367.195C381.953 367.259 381.922 367.318 381.88 367.369C381.838 367.42 381.786 367.462 381.728 367.493C381.67 367.524 381.606 367.544 381.54 367.55H381.49Z" fill="#263238"/>
<path d="M379.66 339.08C379.599 339.081 379.539 339.07 379.482 339.048C379.425 339.026 379.374 338.992 379.33 338.95C374.84 334.95 375.43 327.09 375.46 326.76C375.475 326.63 375.54 326.511 375.64 326.427C375.741 326.343 375.869 326.301 376 326.31C376.065 326.315 376.129 326.333 376.187 326.363C376.246 326.393 376.297 326.434 376.339 326.485C376.381 326.535 376.413 326.593 376.432 326.656C376.451 326.719 376.457 326.785 376.45 326.85C376.45 326.92 375.88 334.5 380 338.21C380.075 338.278 380.127 338.367 380.151 338.466C380.174 338.564 380.166 338.668 380.129 338.762C380.093 338.856 380.028 338.937 379.944 338.994C379.86 339.051 379.761 339.081 379.66 339.08Z" fill="#263238"/>
<path d="M394.71 334.06C394.609 334.062 394.511 334.033 394.427 333.977C394.343 333.922 394.278 333.843 394.24 333.75L392.93 330.48C392.9 330.401 392.89 330.315 392.903 330.231C392.915 330.147 392.948 330.068 393 330C393.045 329.932 393.105 329.875 393.177 329.835C393.248 329.795 393.328 329.773 393.41 329.77C393.52 329.77 404.27 329.53 409.13 327.42C409.19 327.394 409.255 327.379 409.321 327.378C409.387 327.377 409.453 327.389 409.514 327.413C409.575 327.437 409.631 327.473 409.679 327.519C409.726 327.565 409.764 327.619 409.79 327.68C409.816 327.74 409.83 327.804 409.831 327.869C409.833 327.934 409.821 327.999 409.796 328.06C409.772 328.12 409.736 328.175 409.69 328.222C409.645 328.268 409.59 328.305 409.53 328.33C405.18 330.23 396.69 330.66 394.15 330.75L395 333C396.53 332.9 402.6 332.45 405.18 331.53C405.303 331.489 405.438 331.498 405.555 331.555C405.672 331.612 405.762 331.712 405.807 331.835C405.851 331.957 405.846 332.092 405.792 332.211C405.739 332.329 405.641 332.422 405.52 332.47C402.43 333.57 395.01 334.01 394.69 334.02L394.71 334.06Z" fill="#263238"/>
<path d="M372.17 321.82C372.17 321.82 374.87 326.82 395.89 325.68C416.91 324.54 425.01 321.05 425.21 319.31C425.24 317.373 425.11 315.436 424.82 313.52C424.82 313.52 385.09 316.42 372.17 321.82Z" fill="#C2C2C2"/>
<path d="M390 326.35C374.26 326.35 371.85 322.25 371.74 322.06C371.69 321.928 371.69 321.782 371.74 321.65C371.764 321.585 371.801 321.525 371.85 321.475C371.898 321.426 371.956 321.386 372.02 321.36C384.87 315.99 423.21 313.14 424.83 313.03C424.957 313.018 425.083 313.055 425.183 313.133C425.283 313.211 425.35 313.324 425.37 313.45C425.664 315.409 425.791 317.389 425.75 319.37C425.47 321.95 415.14 325.12 395.97 326.17C393.75 326.29 391.78 326.35 390 326.35ZM373 322C374.33 323.15 379.39 326.07 395.84 325.17C417.48 323.98 424.56 320.41 424.69 319.25C424.735 317.511 424.628 315.771 424.37 314.05C420 314.4 385.56 317.19 373 322Z" fill="#263238"/>
<path d="M383.74 231.74C383.74 231.74 371.97 237.15 371.74 238.88C371.51 240.61 365.37 287.29 365.37 287.29L356.12 276.49C356.12 276.49 356.31 272.63 355.73 271.09C355.15 269.55 354.96 268.39 353.61 267.81C352.26 267.23 347.82 266.08 346.67 265.11C345.52 264.14 342.23 261.06 341.46 262.22C340.69 263.38 339.14 265.31 339.53 266.66C339.92 268.01 341.46 270.66 341.46 271.48C341.46 272.3 341.46 278.04 343.97 280.74C345.704 282.48 347.815 283.797 350.14 284.59C350.14 284.59 356.14 300.41 358.24 303.5C360.34 306.59 369.24 313.72 369.24 313.72C369.24 313.72 367.12 318.72 367.7 319.12C368.28 319.52 370.98 323.55 371.7 323.55C372.42 323.55 395.62 319.7 397.35 319.5C399.08 319.3 416.45 319.5 417.8 318.93C420.121 317.989 422.376 316.894 424.55 315.65C425.373 315.094 425.989 314.282 426.302 313.339C426.615 312.397 426.607 311.377 426.28 310.44C425.51 307.35 424.74 285.56 424.74 283.63C424.74 281.7 428.6 266.46 430.33 260.48C432.522 251.769 434.261 242.951 435.54 234.06C435.73 231.17 433.42 224.42 432.65 224.06C431.88 223.7 421.46 218.06 421.46 218.06C421.46 218.06 404.38 219.4 383.74 231.74Z" fill="#C2C2C2"/>
<path d="M371.78 324.05C371.16 324.05 370.46 323.29 368.67 321C368.294 320.485 367.887 319.994 367.45 319.53C367.16 319.34 366.56 318.94 368.67 313.87C367.08 312.58 359.81 306.61 357.87 303.78C355.93 300.95 350.55 287 349.79 285C347.474 284.172 345.373 282.836 343.64 281.09C341.26 278.52 341 273.52 341 271.49C340.781 270.702 340.475 269.941 340.09 269.22C339.701 268.437 339.367 267.629 339.09 266.8C338.69 265.41 339.88 263.7 340.74 262.45C340.87 262.27 340.98 262.1 341.08 261.95C341.166 261.823 341.278 261.716 341.41 261.637C341.541 261.557 341.688 261.507 341.84 261.49C342.95 261.33 344.7 262.73 346.52 264.31L347.03 264.74C348.508 265.554 350.08 266.186 351.71 266.62C352.61 266.91 353.38 267.17 353.85 267.36C355.19 267.94 355.56 269.01 356 270.25C356.07 270.46 356.15 270.69 356.24 270.93C356.647 272.699 356.788 274.519 356.66 276.33L365.07 286.13C366 279.04 371.07 240.4 371.28 238.84C371.48 237.02 379.88 232.98 383.51 231.31C404 219.06 421.33 217.58 421.51 217.56C421.607 217.553 421.704 217.574 421.79 217.62C421.89 217.68 432.21 223.21 432.96 223.62C434.12 224.2 436.31 231.47 436.13 234.13C434.845 243.058 433.099 251.913 430.9 260.66C429.02 267.17 425.33 281.92 425.33 283.66C425.33 285.91 426.13 307.43 426.86 310.35C427.208 311.381 427.209 312.498 426.864 313.53C426.52 314.563 425.848 315.454 424.95 316.07C422.742 317.348 420.446 318.467 418.08 319.42C417.2 319.8 411.65 319.86 403.92 319.92C400.79 319.92 398.1 319.92 397.5 320.03C396.72 320.12 391.5 320.97 385.93 321.87C377.41 323.22 372.21 324.05 371.78 324.05ZM368.13 318.79C368.604 319.291 369.045 319.822 369.45 320.38C370.136 321.367 370.938 322.266 371.84 323.06C372.28 323.06 379.75 321.82 385.76 320.85C391.32 319.95 396.57 319.1 397.38 319.01C398.03 318.93 400.62 318.92 403.9 318.89C408.76 318.89 416.9 318.8 417.68 318.47C419.966 317.557 422.185 316.484 424.32 315.26C425.07 314.766 425.632 314.033 425.915 313.18C426.198 312.328 426.186 311.405 425.88 310.56C425.08 307.38 424.32 285.24 424.32 283.63C424.32 281.63 428.18 266.39 429.93 260.34C432.117 251.656 433.849 242.864 435.12 234C435.31 231.21 433.12 224.95 432.47 224.43C431.77 224.08 422.71 219.21 421.47 218.53C419.77 218.7 403.33 220.6 384.03 232.14H383.98C378.53 234.64 372.52 237.93 372.31 238.88C372.12 240.6 366.19 285.39 365.94 287.3C365.927 287.395 365.887 287.484 365.825 287.556C365.763 287.629 365.681 287.682 365.59 287.71C365.498 287.74 365.4 287.742 365.307 287.715C365.214 287.689 365.132 287.634 365.07 287.56L355.81 276.76C355.767 276.713 355.735 276.657 355.714 276.597C355.694 276.537 355.685 276.473 355.69 276.41C355.815 274.668 355.694 272.918 355.33 271.21L355.08 270.51C354.68 269.37 354.42 268.61 353.48 268.21C353.06 268.03 352.31 267.79 351.43 267.5C349.48 266.87 347.27 266.15 346.43 265.44L345.91 264.99C345.05 264.26 342.8 262.3 342.01 262.41C341.864 262.583 341.727 262.763 341.6 262.95C340.89 263.95 339.82 265.52 340.09 266.46C340.356 267.237 340.673 267.995 341.04 268.73C341.519 269.565 341.857 270.474 342.04 271.42C342.04 272.91 342.21 277.96 344.41 280.34C346.108 282.011 348.158 283.282 350.41 284.06C350.483 284.082 350.549 284.121 350.605 284.173C350.66 284.225 350.703 284.289 350.73 284.36C350.79 284.51 356.73 300.15 358.73 303.15C360.73 306.15 369.54 313.2 369.63 313.27C369.714 313.338 369.773 313.431 369.799 313.536C369.824 313.641 369.814 313.751 369.77 313.85C369.027 315.425 368.476 317.083 368.13 318.79Z" fill="#263238"/>
<path d="M369.27 314.22C369.151 314.221 369.036 314.179 368.946 314.102C368.856 314.025 368.797 313.917 368.78 313.8C368.76 313.669 368.791 313.535 368.867 313.427C368.944 313.319 369.06 313.244 369.19 313.22C371.75 312.79 376.09 311.85 376.86 311.22C378.01 309.91 388.06 280.67 388.46 278.9C388.76 277.52 389.25 262.07 389.46 256.24C389.465 256.108 389.521 255.984 389.616 255.892C389.711 255.801 389.838 255.75 389.97 255.75C390.036 255.751 390.1 255.766 390.161 255.792C390.221 255.818 390.275 255.856 390.321 255.903C390.366 255.951 390.402 256.007 390.426 256.068C390.45 256.129 390.461 256.194 390.46 256.26C390.46 257.12 389.88 277.36 389.46 279.12C389.4 279.4 379.02 310.75 377.53 311.99C376.31 312.99 370.09 314.1 369.39 314.22H369.27Z" fill="#263238"/>
<path d="M389.72 269.86H389.58C389.452 269.823 389.345 269.737 389.281 269.62C389.218 269.504 389.203 269.367 389.24 269.24L392.51 257.48C392.547 257.352 392.633 257.244 392.749 257.179C392.864 257.114 393.001 257.096 393.13 257.13C393.257 257.165 393.365 257.249 393.43 257.363C393.496 257.477 393.513 257.613 393.48 257.74L390.2 269.51C390.168 269.612 390.104 269.701 390.017 269.764C389.931 269.827 389.827 269.861 389.72 269.86Z" fill="#263238"/>
<path d="M364.64 299.37C364.522 299.369 364.408 299.327 364.318 299.25C364.228 299.173 364.169 299.067 364.15 298.95C363.56 295.63 364.87 287.56 364.92 287.21C364.939 287.093 364.998 286.987 365.088 286.91C365.178 286.834 365.292 286.791 365.41 286.79C365.528 286.791 365.642 286.834 365.732 286.91C365.821 286.987 365.881 287.093 365.9 287.21C365.9 287.29 367.26 295.21 369.66 298.37C369.705 298.421 369.739 298.481 369.76 298.546C369.781 298.611 369.788 298.68 369.781 298.748C369.775 298.816 369.754 298.882 369.721 298.941C369.688 299.001 369.643 299.053 369.589 299.095C369.535 299.137 369.473 299.167 369.407 299.184C369.341 299.201 369.272 299.204 369.205 299.193C369.137 299.182 369.073 299.158 369.015 299.121C368.958 299.085 368.908 299.037 368.87 298.98C367.25 296.87 366.12 292.93 365.5 290.23C365.16 292.92 364.78 296.82 365.13 298.78C365.15 298.911 365.119 299.045 365.043 299.153C364.966 299.261 364.85 299.336 364.72 299.36L364.64 299.37Z" fill="#263238"/>
<path d="M356.16 276.49C356.16 276.49 356.35 272.63 355.77 271.09C355.19 269.55 355 268.39 353.65 267.81C352.3 267.23 347.86 266.08 346.71 265.11C345.56 264.14 342.27 261.06 341.5 262.22C340.73 263.38 339.18 265.31 339.57 266.66C339.96 268.01 341.5 270.66 341.5 271.48C341.5 272.3 341.5 278.04 344.01 280.74C345.744 282.48 347.855 283.797 350.18 284.59C350.18 284.59 350.51 285.48 351.05 286.86C352.22 284.02 354.61 280.53 359.27 280.12L356.16 276.49Z" fill="white"/>
<path d="M351.05 287.36C350.95 287.357 350.854 287.326 350.772 287.269C350.69 287.212 350.627 287.132 350.59 287.04L349.8 284.99C347.484 284.162 345.382 282.826 343.65 281.08C341.27 278.51 341.01 273.51 341.01 271.48C340.79 270.692 340.485 269.931 340.1 269.21C339.711 268.427 339.377 267.619 339.1 266.79C338.7 265.4 339.89 263.69 340.75 262.44C340.88 262.26 340.99 262.09 341.09 261.94C341.176 261.813 341.288 261.706 341.419 261.627C341.551 261.547 341.697 261.497 341.85 261.48C342.96 261.32 344.71 262.72 346.53 264.3L347.04 264.73C348.518 265.544 350.089 266.176 351.72 266.61C352.62 266.9 353.39 267.16 353.86 267.35C355.2 267.93 355.57 269 356.01 270.24C356.08 270.45 356.16 270.68 356.25 270.92C356.657 272.689 356.798 274.509 356.67 276.32L359.67 279.8C359.728 279.87 359.767 279.954 359.781 280.044C359.795 280.134 359.784 280.226 359.75 280.31C359.716 280.396 359.659 280.471 359.585 280.526C359.51 280.58 359.422 280.613 359.33 280.62C354.92 281.01 352.66 284.33 351.53 287.05C351.491 287.145 351.424 287.225 351.338 287.28C351.253 287.336 351.152 287.364 351.05 287.36ZM342.05 262.46H342C341.854 262.633 341.717 262.813 341.59 263C340.88 264 339.81 265.57 340.08 266.51C340.346 267.287 340.663 268.045 341.03 268.78C341.509 269.615 341.847 270.524 342.03 271.47C342.03 272.96 342.2 278.01 344.4 280.39C346.098 282.061 348.148 283.332 350.4 284.11C350.472 284.132 350.539 284.171 350.594 284.223C350.65 284.275 350.693 284.339 350.72 284.41C350.72 284.41 350.88 284.84 351.16 285.56C351.811 284.088 352.804 282.792 354.056 281.779C355.308 280.767 356.784 280.068 358.36 279.74L355.85 276.81C355.807 276.763 355.775 276.707 355.754 276.647C355.733 276.587 355.725 276.523 355.73 276.46C355.855 274.718 355.734 272.968 355.37 271.26L355.12 270.56C354.72 269.42 354.46 268.66 353.52 268.26C353.1 268.08 352.35 267.84 351.47 267.55C349.52 266.92 347.31 266.2 346.47 265.49L345.95 265.04C345 264.34 342.87 262.46 342 262.46H342.05Z" fill="#263238"/>
<path d="M353.07 291.07C353.024 291.079 352.976 291.079 352.93 291.07C352.867 291.053 352.809 291.023 352.758 290.983C352.707 290.943 352.664 290.893 352.632 290.836C352.601 290.779 352.581 290.717 352.573 290.652C352.566 290.588 352.572 290.522 352.59 290.46C353.168 288.796 354.124 287.29 355.384 286.059C356.644 284.829 358.173 283.908 359.85 283.37C359.976 283.328 360.113 283.337 360.233 283.395C360.352 283.453 360.445 283.555 360.49 283.68C360.532 283.805 360.522 283.941 360.464 284.059C360.406 284.176 360.304 284.267 360.18 284.31C358.66 284.807 357.274 285.643 356.125 286.756C354.976 287.868 354.096 289.227 353.55 290.73C353.518 290.831 353.453 290.919 353.367 290.98C353.28 291.041 353.176 291.073 353.07 291.07Z" fill="#263238"/>
<path d="M397.43 320C397.324 319.999 397.22 319.965 397.134 319.902C397.048 319.839 396.984 319.751 396.95 319.65C396.915 319.521 396.931 319.384 396.995 319.267C397.058 319.15 397.164 319.061 397.29 319.02L416.77 313.24C416.833 313.22 416.9 313.213 416.965 313.22C417.031 313.226 417.095 313.246 417.153 313.278C417.211 313.309 417.261 313.353 417.302 313.404C417.343 313.456 417.373 313.516 417.39 313.58C417.428 313.706 417.414 313.841 417.352 313.958C417.291 314.074 417.186 314.161 417.06 314.2L397.58 320C397.531 320.01 397.48 320.01 397.43 320Z" fill="#263238"/>
<path d="M398.25 289.5C398.17 289.501 398.09 289.483 398.019 289.446C397.947 289.409 397.886 289.356 397.84 289.29C397.764 289.182 397.733 289.048 397.754 288.918C397.774 288.787 397.845 288.669 397.95 288.59C407.8 281.37 420.08 268.13 420.21 268C420.303 267.923 420.421 267.882 420.542 267.885C420.663 267.888 420.779 267.934 420.868 268.016C420.957 268.098 421.013 268.209 421.027 268.329C421.04 268.45 421.009 268.571 420.94 268.67C420.82 268.81 408.46 282.12 398.54 289.4C398.455 289.461 398.355 289.496 398.25 289.5Z" fill="#263238"/>
<path d="M400.91 291.16C400.805 291.16 400.703 291.127 400.618 291.065C400.533 291.004 400.469 290.918 400.436 290.818C400.403 290.718 400.402 290.611 400.433 290.511C400.464 290.411 400.526 290.323 400.61 290.26C404.54 287.32 413.8 278.07 413.89 277.98C413.935 277.932 413.989 277.894 414.049 277.868C414.11 277.842 414.175 277.828 414.24 277.828C414.306 277.828 414.371 277.842 414.431 277.868C414.491 277.894 414.545 277.932 414.59 277.98C414.637 278.026 414.674 278.082 414.7 278.143C414.725 278.204 414.738 278.269 414.738 278.335C414.738 278.401 414.725 278.466 414.7 278.527C414.674 278.588 414.637 278.643 414.59 278.69C414.21 279.07 405.19 288.08 401.21 291.06C401.125 291.127 401.019 291.162 400.91 291.16Z" fill="#263238"/>
<defs>
<clipPath id="clip0_425_27735">
<rect width="31.5096" height="9.01154" fill="white" transform="translate(235 215)"/>
</clipPath>
</defs>
</svg>
