<svg width="600" height="500" viewBox="0 0 600 500" fill="none" xmlns="http://www.w3.org/2000/svg">
<path d="M308.305 106.97V113.61" stroke="#263238" stroke-width="1.10721" stroke-linecap="round" stroke-linejoin="round"/>
<path d="M308.305 120.78V131.53" stroke="#263238" stroke-width="1.10721" stroke-linecap="round" stroke-linejoin="round" stroke-dasharray="7.17 7.17"/>
<path d="M308.305 135.11V141.75" stroke="#263238" stroke-width="1.10721" stroke-linecap="round" stroke-linejoin="round"/>
<path d="M414.275 219.38H407.635" stroke="#263238" stroke-width="1.10721" stroke-linecap="round" stroke-linejoin="round"/>
<path d="M400.465 219.38H389.715" stroke="#263238" stroke-width="1.10721" stroke-linecap="round" stroke-linejoin="round" stroke-dasharray="7.17 7.17"/>
<path d="M386.136 219.38H379.496" stroke="#263238" stroke-width="1.10721" stroke-linecap="round" stroke-linejoin="round"/>
<path d="M237.125 219.38H230.475" stroke="#263238" stroke-width="1.10721" stroke-linecap="round" stroke-linejoin="round"/>
<path d="M223.314 219.38H212.564" stroke="#263238" stroke-width="1.10721" stroke-linecap="round" stroke-linejoin="round" stroke-dasharray="7.17 7.17"/>
<path d="M208.986 219.38H202.336" stroke="#263238" stroke-width="1.10721" stroke-linecap="round" stroke-linejoin="round"/>
<path d="M491.365 241.9C491.365 241.436 491.55 240.991 491.878 240.663C492.206 240.334 492.651 240.15 493.115 240.15C493.579 240.15 494.024 240.334 494.353 240.663C494.681 240.991 494.865 241.436 494.865 241.9V245.72C494.865 246.184 494.681 246.629 494.353 246.957C494.024 247.286 493.579 247.47 493.115 247.47C492.651 247.47 492.206 247.286 491.878 246.957C491.55 246.629 491.365 246.184 491.365 245.72V241.9ZM492.515 245.79C492.515 246.31 492.745 246.51 493.115 246.51C493.485 246.51 493.705 246.31 493.705 245.79V241.79C493.705 241.27 493.475 241.07 493.115 241.07C492.755 241.07 492.515 241.27 492.515 241.79V245.79Z" fill="#263238"/>
<path d="M492.186 251.54C492.473 251.576 492.764 251.5 492.998 251.329C493.232 251.158 493.392 250.905 493.446 250.62H494.226V258H493.076V252.41H492.186V251.54Z" fill="#263238"/>
<path d="M491.365 262.85C491.365 262.386 491.55 261.941 491.878 261.613C492.206 261.284 492.651 261.1 493.115 261.1C493.579 261.1 494.024 261.284 494.353 261.613C494.681 261.941 494.865 262.386 494.865 262.85V266.66C494.865 267.124 494.681 267.569 494.353 267.897C494.024 268.226 493.579 268.41 493.115 268.41C492.651 268.41 492.206 268.226 491.878 267.897C491.55 267.569 491.365 267.124 491.365 266.66V262.85ZM492.515 266.74C492.515 267.26 492.745 267.46 493.115 267.46C493.485 267.46 493.705 267.26 493.705 266.74V262.74C493.705 262.21 493.475 262.02 493.115 262.02C492.755 262.02 492.515 262.21 492.515 262.74V266.74Z" fill="#263238"/>
<path d="M492.186 272.49C492.473 272.525 492.764 272.45 492.998 272.279C493.232 272.108 493.392 271.855 493.446 271.57H494.226V278.89H493.076V273.3H492.186V272.49Z" fill="#263238"/>
<path d="M491.365 283.8C491.365 283.336 491.55 282.891 491.878 282.562C492.206 282.234 492.651 282.05 493.115 282.05C493.579 282.05 494.024 282.234 494.353 282.562C494.681 282.891 494.865 283.336 494.865 283.8V287.61C494.865 288.074 494.681 288.519 494.353 288.847C494.024 289.176 493.579 289.36 493.115 289.36C492.651 289.36 492.206 289.176 491.878 288.847C491.55 288.519 491.365 288.074 491.365 287.61V283.8ZM492.515 287.68C492.515 288.21 492.745 288.4 493.115 288.4C493.485 288.4 493.705 288.21 493.705 287.68V283.68C493.705 283.16 493.475 282.96 493.115 282.96C492.755 282.96 492.515 283.16 492.515 283.68V287.68Z" fill="#263238"/>
<path d="M492.186 293.43C492.473 293.466 492.764 293.39 492.998 293.219C493.232 293.048 493.392 292.795 493.446 292.51H494.226V299.84H493.076V294.25H492.186V293.43Z" fill="#263238"/>
<path d="M491.365 304.74C491.365 304.276 491.55 303.831 491.878 303.503C492.206 303.174 492.651 302.99 493.115 302.99C493.579 302.99 494.024 303.174 494.353 303.503C494.681 303.831 494.865 304.276 494.865 304.74V308.56C494.865 309.024 494.681 309.469 494.353 309.797C494.024 310.126 493.579 310.31 493.115 310.31C492.651 310.31 492.206 310.126 491.878 309.797C491.55 309.469 491.365 309.024 491.365 308.56V304.74ZM492.515 308.63C492.515 309.15 492.745 309.35 493.115 309.35C493.485 309.35 493.705 309.15 493.705 308.63V304.63C493.705 304.11 493.475 303.91 493.115 303.91C492.755 303.91 492.515 304.11 492.515 304.63V308.63Z" fill="#263238"/>
<path d="M491.365 315.22C491.365 314.756 491.55 314.311 491.878 313.983C492.206 313.654 492.651 313.47 493.115 313.47C493.579 313.47 494.024 313.654 494.353 313.983C494.681 314.311 494.865 314.756 494.865 315.22V319C494.865 319.464 494.681 319.909 494.353 320.237C494.024 320.566 493.579 320.75 493.115 320.75C492.651 320.75 492.206 320.566 491.878 320.237C491.55 319.909 491.365 319.464 491.365 319V315.22ZM492.515 319.1C492.515 319.63 492.745 319.82 493.115 319.82C493.485 319.82 493.705 319.63 493.705 319.1V315.1C493.705 314.57 493.475 314.37 493.115 314.37C492.755 314.37 492.515 314.57 492.515 315.1V319.1Z" fill="#263238"/>
<path d="M491.365 325.69C491.365 325.226 491.55 324.781 491.878 324.453C492.206 324.124 492.651 323.94 493.115 323.94C493.579 323.94 494.024 324.124 494.353 324.453C494.681 324.781 494.865 325.226 494.865 325.69V329.5C494.865 329.964 494.681 330.409 494.353 330.737C494.024 331.066 493.579 331.25 493.115 331.25C492.651 331.25 492.206 331.066 491.878 330.737C491.55 330.409 491.365 329.964 491.365 329.5V325.69ZM492.515 329.58C492.515 330.1 492.745 330.3 493.115 330.3C493.485 330.3 493.705 330.1 493.705 329.58V325.58C493.705 325.06 493.475 324.86 493.115 324.86C492.755 324.86 492.515 325.06 492.515 325.58V329.58Z" fill="#263238"/>
<path d="M492.186 345.8C492.473 345.836 492.764 345.76 492.998 345.589C493.232 345.418 493.392 345.165 493.446 344.88H494.226V352.21H493.076V346.62H492.186V345.8Z" fill="#263238"/>
<path d="M492.186 356.28C492.475 356.318 492.768 356.242 493.003 356.069C493.238 355.895 493.396 355.638 493.446 355.35H494.226V362.68H493.076V357.09H492.186V356.28Z" fill="#263238"/>
<path d="M492.186 366.75C492.473 366.786 492.764 366.71 492.998 366.539C493.232 366.368 493.392 366.115 493.446 365.83H494.226V373.15H493.076V367.57H492.186V366.75Z" fill="#263238"/>
<path d="M491.365 378.06C491.365 377.596 491.55 377.151 491.878 376.823C492.206 376.494 492.651 376.31 493.115 376.31C493.579 376.31 494.024 376.494 494.353 376.823C494.681 377.151 494.865 377.596 494.865 378.06V381.87C494.865 382.334 494.681 382.779 494.353 383.107C494.024 383.436 493.579 383.62 493.115 383.62C492.651 383.62 492.206 383.436 491.878 383.107C491.55 382.779 491.365 382.334 491.365 381.87V378.06ZM492.515 381.94C492.515 382.47 492.745 382.66 493.115 382.66C493.485 382.66 493.705 382.47 493.705 381.94V378C493.705 377.47 493.475 377.27 493.115 377.27C492.755 377.27 492.515 377.47 492.515 378V381.94Z" fill="#263238"/>
<path d="M491.365 388.53C491.365 388.066 491.55 387.621 491.878 387.293C492.206 386.964 492.651 386.78 493.115 386.78C493.579 386.78 494.024 386.964 494.353 387.293C494.681 387.621 494.865 388.066 494.865 388.53V392.34C494.865 392.804 494.681 393.249 494.353 393.577C494.024 393.906 493.579 394.09 493.115 394.09C492.651 394.09 492.206 393.906 491.878 393.577C491.55 393.249 491.365 392.804 491.365 392.34V388.53ZM492.515 392.42C492.515 392.94 492.745 393.14 493.115 393.14C493.485 393.14 493.705 392.94 493.705 392.42V388.42C493.705 387.9 493.475 387.7 493.115 387.7C492.755 387.7 492.515 387.9 492.515 388.42V392.42Z" fill="#263238"/>
<path d="M492.186 398.17C492.473 398.206 492.764 398.13 492.998 397.959C493.232 397.788 493.392 397.535 493.446 397.25H494.226V404.57H493.076V399H492.186V398.17Z" fill="#263238"/>
<path d="M498.365 230.59C498.654 230.626 498.946 230.551 499.181 230.38C499.417 230.209 499.579 229.956 499.635 229.67H500.405V237H499.255V231.41H498.365V230.59Z" fill="#263238"/>
<path d="M498.365 241.07C498.654 241.106 498.946 241.031 499.181 240.86C499.417 240.689 499.579 240.436 499.635 240.15H500.405V247.47H499.255V241.88H498.365V241.07Z" fill="#263238"/>
<path d="M497.605 262.85C497.586 262.61 497.618 262.368 497.697 262.141C497.777 261.913 497.902 261.705 498.066 261.528C498.23 261.351 498.429 261.21 498.649 261.114C498.87 261.018 499.109 260.968 499.35 260.968C499.591 260.968 499.829 261.018 500.05 261.114C500.271 261.21 500.469 261.351 500.633 261.528C500.797 261.705 500.922 261.913 501.002 262.141C501.081 262.368 501.113 262.61 501.095 262.85V266.66C501.113 266.9 501.081 267.142 501.002 267.369C500.922 267.597 500.797 267.805 500.633 267.982C500.469 268.159 500.271 268.3 500.05 268.396C499.829 268.492 499.591 268.542 499.35 268.542C499.109 268.542 498.87 268.492 498.649 268.396C498.429 268.3 498.23 268.159 498.066 267.982C497.902 267.805 497.777 267.597 497.697 267.369C497.618 267.142 497.586 266.9 497.605 266.66V262.85ZM498.755 266.74C498.755 267.26 498.985 267.46 499.345 267.46C499.705 267.46 499.945 267.26 499.945 266.74V262.74C499.945 262.21 499.715 262.02 499.345 262.02C498.975 262.02 498.755 262.21 498.755 262.74V266.74Z" fill="#263238"/>
<path d="M498.365 293.43C498.654 293.466 498.946 293.391 499.181 293.22C499.417 293.049 499.579 292.796 499.635 292.51H500.405V299.84H499.255V294.25H498.365V293.43Z" fill="#263238"/>
<path d="M497.605 304.74C497.586 304.5 497.618 304.258 497.697 304.031C497.777 303.803 497.902 303.595 498.066 303.418C498.23 303.241 498.429 303.1 498.649 303.004C498.87 302.908 499.109 302.858 499.35 302.858C499.591 302.858 499.829 302.908 500.05 303.004C500.271 303.1 500.469 303.241 500.633 303.418C500.797 303.595 500.922 303.803 501.002 304.031C501.081 304.258 501.113 304.5 501.095 304.74V308.56C501.113 308.8 501.081 309.042 501.002 309.269C500.922 309.497 500.797 309.705 500.633 309.882C500.469 310.059 500.271 310.2 500.05 310.296C499.829 310.392 499.591 310.442 499.35 310.442C499.109 310.442 498.87 310.392 498.649 310.296C498.429 310.2 498.23 310.059 498.066 309.882C497.902 309.705 497.777 309.497 497.697 309.269C497.618 309.042 497.586 308.8 497.605 308.56V304.74ZM498.755 308.63C498.755 309.15 498.985 309.35 499.345 309.35C499.705 309.35 499.945 309.15 499.945 308.63V304.63C499.945 304.11 499.715 303.91 499.345 303.91C498.975 303.91 498.755 304.11 498.755 304.63V308.63Z" fill="#263238"/>
<path d="M498.365 314.38C498.654 314.416 498.946 314.341 499.181 314.17C499.417 313.999 499.579 313.746 499.635 313.46H500.405V320.79H499.255V315.2H498.365V314.38Z" fill="#263238"/>
<path d="M498.365 324.85C498.654 324.888 498.947 324.814 499.184 324.643C499.42 324.472 499.581 324.217 499.635 323.93H500.405V331.26H499.255V325.67H498.365V324.85Z" fill="#263238"/>
<path d="M498.365 335.33C498.654 335.366 498.946 335.291 499.181 335.12C499.417 334.949 499.579 334.695 499.635 334.41H500.405V341.73H499.255V336.14H498.365V335.33Z" fill="#263238"/>
<path d="M497.605 346.64C497.586 346.4 497.618 346.158 497.697 345.931C497.777 345.703 497.902 345.495 498.066 345.318C498.23 345.141 498.429 345 498.649 344.904C498.87 344.808 499.109 344.758 499.35 344.758C499.591 344.758 499.829 344.808 500.05 344.904C500.271 345 500.469 345.141 500.633 345.318C500.797 345.495 500.922 345.703 501.002 345.931C501.081 346.158 501.113 346.4 501.095 346.64V350.45C501.113 350.69 501.081 350.932 501.002 351.159C500.922 351.387 500.797 351.595 500.633 351.772C500.469 351.949 500.271 352.09 500.05 352.186C499.829 352.282 499.591 352.332 499.35 352.332C499.109 352.332 498.87 352.282 498.649 352.186C498.429 352.09 498.23 351.949 498.066 351.772C497.902 351.595 497.777 351.387 497.697 351.159C497.618 350.932 497.586 350.69 497.605 350.45V346.64ZM498.755 350.52C498.755 351.05 498.985 351.24 499.345 351.24C499.705 351.24 499.945 351.05 499.945 350.52V346.57C499.945 346.04 499.715 345.84 499.345 345.84C498.975 345.84 498.755 346.04 498.755 346.57V350.52Z" fill="#263238"/>
<path d="M497.605 357.11C497.586 356.87 497.618 356.628 497.697 356.401C497.777 356.173 497.902 355.965 498.066 355.788C498.23 355.611 498.429 355.47 498.649 355.374C498.87 355.278 499.109 355.228 499.35 355.228C499.591 355.228 499.829 355.278 500.05 355.374C500.271 355.47 500.469 355.611 500.633 355.788C500.797 355.965 500.922 356.173 501.002 356.401C501.081 356.628 501.113 356.87 501.095 357.11V360.92C501.113 361.16 501.081 361.402 501.002 361.629C500.922 361.857 500.797 362.065 500.633 362.242C500.469 362.419 500.271 362.56 500.05 362.656C499.829 362.752 499.591 362.802 499.35 362.802C499.109 362.802 498.87 362.752 498.649 362.656C498.429 362.56 498.23 362.419 498.066 362.242C497.902 362.065 497.777 361.857 497.697 361.629C497.618 361.402 497.586 361.16 497.605 360.92V357.11ZM498.755 361C498.755 361.52 498.985 361.72 499.345 361.72C499.705 361.72 499.945 361.52 499.945 361V357C499.945 356.48 499.715 356.28 499.345 356.28C498.975 356.28 498.755 356.48 498.755 357V361Z" fill="#263238"/>
<path d="M485.955 293.43C486.244 293.466 486.536 293.391 486.771 293.22C487.007 293.049 487.169 292.796 487.225 292.51H487.995V299.84H486.845V294.25H485.955V293.43Z" fill="#263238"/>
<path d="M485.145 304.74C485.145 304.276 485.329 303.831 485.657 303.503C485.985 303.174 486.43 302.99 486.895 302.99C487.359 302.99 487.804 303.174 488.132 303.503C488.46 303.831 488.645 304.276 488.645 304.74V308.56C488.645 309.024 488.46 309.469 488.132 309.797C487.804 310.126 487.359 310.31 486.895 310.31C486.43 310.31 485.985 310.126 485.657 309.797C485.329 309.469 485.145 309.024 485.145 308.56V304.74ZM486.295 308.63C486.295 309.15 486.525 309.35 486.895 309.35C487.265 309.35 487.495 309.15 487.495 308.63V304.63C487.495 304.11 487.265 303.91 486.895 303.91C486.525 303.91 486.295 304.11 486.295 304.63V308.63Z" fill="#263238"/>
<path d="M485.145 315.22C485.145 314.756 485.329 314.311 485.657 313.983C485.985 313.654 486.43 313.47 486.895 313.47C487.359 313.47 487.804 313.654 488.132 313.983C488.46 314.311 488.645 314.756 488.645 315.22V319C488.645 319.464 488.46 319.909 488.132 320.237C487.804 320.566 487.359 320.75 486.895 320.75C486.43 320.75 485.985 320.566 485.657 320.237C485.329 319.909 485.145 319.464 485.145 319V315.22ZM486.295 319.1C486.295 319.63 486.525 319.82 486.895 319.82C487.265 319.82 487.495 319.63 487.495 319.1V315.1C487.495 314.57 487.265 314.37 486.895 314.37C486.525 314.37 486.295 314.57 486.295 315.1V319.1Z" fill="#263238"/>
<path d="M485.955 324.85C486.244 324.888 486.537 324.814 486.773 324.643C487.01 324.472 487.171 324.217 487.225 323.93H487.995V331.26H486.845V325.67H485.955V324.85Z" fill="#263238"/>
<path d="M485.955 345.8C486.244 345.836 486.536 345.761 486.771 345.59C487.007 345.419 487.169 345.166 487.225 344.88H487.995V352.21H486.845V346.62H485.955V345.8Z" fill="#263238"/>
<path d="M485.955 356.28C486.245 356.315 486.538 356.239 486.774 356.066C487.01 355.894 487.171 355.637 487.225 355.35H487.995V362.68H486.845V357.09H485.955V356.28Z" fill="#263238"/>
<path d="M485.955 366.75C486.244 366.786 486.536 366.711 486.771 366.54C487.007 366.369 487.169 366.116 487.225 365.83H487.995V373.15H486.845V367.57H485.955V366.75Z" fill="#263238"/>
<path d="M478.925 262.85C478.907 262.61 478.938 262.368 479.018 262.141C479.097 261.913 479.223 261.705 479.387 261.528C479.55 261.351 479.749 261.21 479.97 261.114C480.191 261.018 480.429 260.968 480.67 260.968C480.911 260.968 481.149 261.018 481.37 261.114C481.591 261.21 481.789 261.351 481.953 261.528C482.117 261.705 482.243 261.913 482.322 262.141C482.402 262.368 482.433 262.61 482.415 262.85V266.66C482.433 266.9 482.402 267.142 482.322 267.369C482.243 267.597 482.117 267.805 481.953 267.982C481.789 268.159 481.591 268.3 481.37 268.396C481.149 268.492 480.911 268.542 480.67 268.542C480.429 268.542 480.191 268.492 479.97 268.396C479.749 268.3 479.55 268.159 479.387 267.982C479.223 267.805 479.097 267.597 479.018 267.369C478.938 267.142 478.907 266.9 478.925 266.66V262.85ZM480.075 266.74C480.075 267.26 480.305 267.46 480.665 267.46C481.025 267.46 481.265 267.26 481.265 266.74V262.74C481.265 262.21 481.035 262.02 480.665 262.02C480.295 262.02 480.075 262.21 480.075 262.74V266.74Z" fill="#263238"/>
<path d="M478.925 283.8C478.907 283.56 478.938 283.318 479.018 283.091C479.097 282.863 479.223 282.655 479.387 282.478C479.55 282.301 479.749 282.16 479.97 282.064C480.191 281.967 480.429 281.918 480.67 281.918C480.911 281.918 481.149 281.967 481.37 282.064C481.591 282.16 481.789 282.301 481.953 282.478C482.117 282.655 482.243 282.863 482.322 283.091C482.402 283.318 482.433 283.56 482.415 283.8V287.61C482.433 287.85 482.402 288.092 482.322 288.319C482.243 288.547 482.117 288.755 481.953 288.932C481.789 289.109 481.591 289.25 481.37 289.346C481.149 289.442 480.911 289.492 480.67 289.492C480.429 289.492 480.191 289.442 479.97 289.346C479.749 289.25 479.55 289.109 479.387 288.932C479.223 288.755 479.097 288.547 479.018 288.319C478.938 288.092 478.907 287.85 478.925 287.61V283.8ZM480.075 287.68C480.075 288.21 480.305 288.4 480.665 288.4C481.025 288.4 481.265 288.21 481.265 287.68V283.68C481.265 283.16 481.035 282.96 480.665 282.96C480.295 282.96 480.075 283.16 480.075 283.68V287.68Z" fill="#263238"/>
<path d="M479.725 314.38C480.013 314.416 480.305 314.341 480.541 314.17C480.776 313.999 480.939 313.746 480.995 313.46H481.765V320.79H480.615V315.2H479.725V314.38Z" fill="#263238"/>
<path d="M479.725 324.85C480.014 324.888 480.307 324.814 480.543 324.643C480.779 324.472 480.941 324.217 480.995 323.93H481.765V331.26H480.615V325.67H479.725V324.85Z" fill="#263238"/>
<path d="M479.725 356.28C480.015 356.315 480.308 356.239 480.544 356.066C480.78 355.894 480.941 355.637 480.995 355.35H481.765V362.68H480.615V357.09H479.725V356.28Z" fill="#263238"/>
<path d="M478.925 367.59C478.907 367.35 478.938 367.108 479.018 366.881C479.097 366.653 479.223 366.445 479.387 366.268C479.55 366.091 479.749 365.95 479.97 365.854C480.191 365.758 480.429 365.708 480.67 365.708C480.911 365.708 481.149 365.758 481.37 365.854C481.591 365.95 481.789 366.091 481.953 366.268C482.117 366.445 482.243 366.653 482.322 366.881C482.402 367.108 482.433 367.35 482.415 367.59V371.4C482.433 371.64 482.402 371.882 482.322 372.109C482.243 372.337 482.117 372.545 481.953 372.722C481.789 372.899 481.591 373.04 481.37 373.136C481.149 373.232 480.911 373.282 480.67 373.282C480.429 373.282 480.191 373.232 479.97 373.136C479.749 373.04 479.55 372.899 479.387 372.722C479.223 372.545 479.097 372.337 479.018 372.109C478.938 371.882 478.907 371.64 478.925 371.4V367.59ZM480.075 371.47C480.075 371.99 480.305 372.19 480.665 372.19C481.025 372.19 481.265 371.99 481.265 371.47V367.47C481.265 366.95 481.035 366.75 480.665 366.75C480.295 366.75 480.075 366.95 480.075 367.47V371.47Z" fill="#263238"/>
<path d="M479.725 377.22C480.013 377.256 480.305 377.181 480.541 377.01C480.776 376.839 480.939 376.586 480.995 376.3H481.765V383.63H480.615V378H479.725V377.22Z" fill="#263238"/>
<path d="M221.096 274C221.096 273.536 221.28 273.091 221.608 272.763C221.936 272.434 222.382 272.25 222.846 272.25C223.31 272.25 223.755 272.434 224.083 272.763C224.411 273.091 224.596 273.536 224.596 274V277.81C224.596 278.274 224.411 278.719 224.083 279.047C223.755 279.376 223.31 279.56 222.846 279.56C222.382 279.56 221.936 279.376 221.608 279.047C221.28 278.719 221.096 278.274 221.096 277.81V274ZM222.246 277.88C222.246 278.41 222.476 278.61 222.846 278.61C223.216 278.61 223.436 278.41 223.436 277.88V273.88C223.436 273.35 223.206 273.15 222.846 273.15C222.486 273.15 222.246 273.35 222.246 273.88V277.88Z" fill="#263238"/>
<path d="M221.096 284.5C221.096 284.036 221.28 283.591 221.608 283.263C221.936 282.934 222.382 282.75 222.846 282.75C223.31 282.75 223.755 282.934 224.083 283.263C224.411 283.591 224.596 284.036 224.596 284.5V288.31C224.596 288.774 224.411 289.219 224.083 289.547C223.755 289.876 223.31 290.06 222.846 290.06C222.382 290.06 221.936 289.876 221.608 289.547C221.28 289.219 221.096 288.774 221.096 288.31V284.5ZM222.246 288.39C222.246 288.91 222.476 289.11 222.846 289.11C223.216 289.11 223.436 288.91 223.436 288.39V284.39C223.436 283.87 223.206 283.67 222.846 283.67C222.486 283.67 222.246 283.87 222.246 284.39V288.39Z" fill="#263238"/>
<path d="M221.906 294.14C222.194 294.176 222.484 294.1 222.718 293.929C222.952 293.758 223.113 293.505 223.166 293.22H223.946V300.55H222.796V295H221.906V294.14Z" fill="#263238"/>
<path d="M221.096 305.45C221.096 304.986 221.28 304.541 221.608 304.212C221.936 303.884 222.382 303.7 222.846 303.7C223.31 303.7 223.755 303.884 224.083 304.212C224.411 304.541 224.596 304.986 224.596 305.45V309.26C224.596 309.724 224.411 310.169 224.083 310.497C223.755 310.826 223.31 311.01 222.846 311.01C222.382 311.01 221.936 310.826 221.608 310.497C221.28 310.169 221.096 309.724 221.096 309.26V305.45ZM222.246 309.33C222.246 309.86 222.476 310.06 222.846 310.06C223.216 310.06 223.436 309.86 223.436 309.33V305.38C223.436 304.85 223.206 304.65 222.846 304.65C222.486 304.65 222.246 304.85 222.246 305.38V309.33Z" fill="#263238"/>
<path d="M221.906 315.09C222.194 315.125 222.484 315.05 222.718 314.879C222.952 314.708 223.113 314.455 223.166 314.17H223.946V321.49H222.796V315.9H221.906V315.09Z" fill="#263238"/>
<path d="M221.096 326.4C221.096 325.936 221.28 325.491 221.608 325.162C221.936 324.834 222.382 324.65 222.846 324.65C223.31 324.65 223.755 324.834 224.083 325.162C224.411 325.491 224.596 325.936 224.596 326.4V330.21C224.596 330.674 224.411 331.119 224.083 331.447C223.755 331.776 223.31 331.96 222.846 331.96C222.382 331.96 221.936 331.776 221.608 331.447C221.28 331.119 221.096 330.674 221.096 330.21V326.4ZM222.246 330.28C222.246 330.8 222.476 331 222.846 331C223.216 331 223.436 330.8 223.436 330.28V326.28C223.436 325.76 223.206 325.56 222.846 325.56C222.486 325.56 222.246 325.76 222.246 326.28V330.28Z" fill="#263238"/>
<path d="M221.906 336C222.194 336.036 222.484 335.96 222.718 335.789C222.952 335.618 223.113 335.365 223.166 335.08H223.946V342.41H222.796V336.82H221.906V336Z" fill="#263238"/>
<path d="M221.096 347.34C221.096 346.876 221.28 346.431 221.608 346.103C221.936 345.774 222.382 345.59 222.846 345.59C223.31 345.59 223.755 345.774 224.083 346.103C224.411 346.431 224.596 346.876 224.596 347.34V351.15C224.596 351.614 224.411 352.059 224.083 352.387C223.755 352.716 223.31 352.9 222.846 352.9C222.382 352.9 221.936 352.716 221.608 352.387C221.28 352.059 221.096 351.614 221.096 351.15V347.34ZM222.246 351.23C222.246 351.75 222.476 351.95 222.846 351.95C223.216 351.95 223.436 351.75 223.436 351.23V347.23C223.436 346.71 223.206 346.51 222.846 346.51C222.486 346.51 222.246 346.71 222.246 347.23V351.23Z" fill="#263238"/>
<path d="M221.096 357.82C221.096 357.356 221.28 356.911 221.608 356.583C221.936 356.254 222.382 356.07 222.846 356.07C223.31 356.07 223.755 356.254 224.083 356.583C224.411 356.911 224.596 357.356 224.596 357.82V361.63C224.596 362.094 224.411 362.539 224.083 362.867C223.755 363.196 223.31 363.38 222.846 363.38C222.382 363.38 221.936 363.196 221.608 362.867C221.28 362.539 221.096 362.094 221.096 361.63V357.82ZM222.246 361.7C222.246 362.22 222.476 362.42 222.846 362.42C223.216 362.42 223.436 362.22 223.436 361.7V357.7C223.436 357.18 223.206 356.98 222.846 356.98C222.486 356.98 222.246 357.18 222.246 357.7V361.7Z" fill="#263238"/>
<path d="M221.096 368.29C221.096 367.826 221.28 367.381 221.608 367.053C221.936 366.724 222.382 366.54 222.846 366.54C223.31 366.54 223.755 366.724 224.083 367.053C224.411 367.381 224.596 367.826 224.596 368.29V372.1C224.596 372.564 224.411 373.009 224.083 373.337C223.755 373.666 223.31 373.85 222.846 373.85C222.382 373.85 221.936 373.666 221.608 373.337C221.28 373.009 221.096 372.564 221.096 372.1V368.29ZM222.246 372.17C222.246 372.7 222.476 372.9 222.846 372.9C223.216 372.9 223.436 372.7 223.436 372.17V368.22C223.436 367.69 223.206 367.5 222.846 367.5C222.486 367.5 222.246 367.69 222.246 368.22V372.17Z" fill="#263238"/>
<path d="M221.906 377.93C222.194 377.966 222.484 377.89 222.718 377.719C222.952 377.548 223.113 377.295 223.166 377.01H223.946V384.33H222.796V378.74H221.906V377.93Z" fill="#263238"/>
<path d="M221.906 388.4C222.194 388.435 222.484 388.36 222.718 388.189C222.952 388.018 223.113 387.765 223.166 387.48H223.946V394.81H222.796V389.22H221.906V388.4Z" fill="#263238"/>
<path d="M221.906 398.87C222.194 398.905 222.484 398.83 222.718 398.659C222.952 398.488 223.113 398.235 223.166 397.95H223.946V405.28H222.796V399.69H221.906V398.87Z" fill="#263238"/>
<path d="M221.906 409.35C222.194 409.385 222.484 409.31 222.718 409.139C222.952 408.968 223.113 408.715 223.166 408.43H223.946V415.75H222.796V410.16H221.906V409.35Z" fill="#263238"/>
<path d="M222.246 424.54C222.246 425.07 222.476 425.26 222.846 425.26C223.216 425.26 223.436 425.07 223.436 424.54V420.54C223.436 420.02 223.206 419.82 222.846 419.82C222.486 419.82 222.246 420.02 222.246 420.54V424.54Z" fill="#263238"/>
<path d="M228.125 315.09C228.414 315.126 228.705 315.051 228.941 314.88C229.177 314.709 229.339 314.456 229.395 314.17H230.165V321.49H229.015V315.9H228.125V315.09Z" fill="#263238"/>
<path d="M228.125 325.56C228.414 325.596 228.705 325.521 228.941 325.35C229.177 325.179 229.339 324.926 229.395 324.64H230.165V332H229.015V326.41H228.125V325.56Z" fill="#263238"/>
<path d="M227.366 347.34C227.348 347.1 227.38 346.858 227.459 346.631C227.539 346.403 227.664 346.195 227.828 346.018C227.992 345.841 228.19 345.7 228.411 345.604C228.632 345.508 228.87 345.458 229.111 345.458C229.352 345.458 229.591 345.508 229.811 345.604C230.032 345.7 230.231 345.841 230.395 346.018C230.558 346.195 230.684 346.403 230.763 346.631C230.843 346.858 230.875 347.1 230.856 347.34V351.15C230.875 351.39 230.843 351.632 230.763 351.859C230.684 352.087 230.558 352.295 230.395 352.472C230.231 352.649 230.032 352.79 229.811 352.886C229.591 352.982 229.352 353.032 229.111 353.032C228.87 353.032 228.632 352.982 228.411 352.886C228.19 352.79 227.992 352.649 227.828 352.472C227.664 352.295 227.539 352.087 227.459 351.859C227.38 351.632 227.348 351.39 227.366 351.15V347.34ZM228.516 351.23C228.516 351.75 228.746 351.95 229.106 351.95C229.466 351.95 229.706 351.75 229.706 351.23V347.23C229.706 346.71 229.476 346.51 229.106 346.51C228.736 346.51 228.516 346.71 228.516 347.23V351.23Z" fill="#263238"/>
<path d="M228.125 357C228.414 357.036 228.705 356.961 228.941 356.79C229.177 356.619 229.339 356.366 229.395 356.08H230.165V363.41H229.015V357.8H228.125V357Z" fill="#263238"/>
<path d="M227.366 368.29C227.348 368.05 227.38 367.808 227.459 367.581C227.539 367.353 227.664 367.145 227.828 366.968C227.992 366.791 228.19 366.65 228.411 366.554C228.632 366.457 228.87 366.408 229.111 366.408C229.352 366.408 229.591 366.457 229.811 366.554C230.032 366.65 230.231 366.791 230.395 366.968C230.558 367.145 230.684 367.353 230.763 367.581C230.843 367.808 230.875 368.05 230.856 368.29V372.1C230.875 372.34 230.843 372.582 230.763 372.809C230.684 373.037 230.558 373.245 230.395 373.422C230.231 373.599 230.032 373.74 229.811 373.836C229.591 373.932 229.352 373.982 229.111 373.982C228.87 373.982 228.632 373.932 228.411 373.836C228.19 373.74 227.992 373.599 227.828 373.422C227.664 373.245 227.539 373.037 227.459 372.809C227.38 372.582 227.348 372.34 227.366 372.1V368.29ZM228.516 372.17C228.516 372.7 228.746 372.9 229.106 372.9C229.466 372.9 229.706 372.7 229.706 372.17V368.22C229.706 367.69 229.476 367.5 229.106 367.5C228.736 367.5 228.516 367.69 228.516 368.22V372.17Z" fill="#263238"/>
<path d="M228.475 393.12C228.475 393.64 228.705 393.84 229.065 393.84C229.425 393.84 229.665 393.64 229.665 393.12V389.12C229.665 388.6 229.435 388.4 229.065 388.4C228.695 388.4 228.475 388.6 228.475 389.12V393.12Z" fill="#263238"/>
<path d="M228.126 398.87C228.403 398.9 228.681 398.828 228.909 398.668C229.137 398.508 229.299 398.271 229.366 398H230.136V405.33H228.986V399.74H228.096L228.126 398.87Z" fill="#263238"/>
<path d="M228.125 409.35C228.414 409.386 228.705 409.311 228.941 409.14C229.177 408.969 229.339 408.716 229.395 408.43H230.165V415.75H229.015V410.16H228.125V409.35Z" fill="#263238"/>
<path d="M227.366 441.6C227.348 441.36 227.38 441.118 227.459 440.891C227.539 440.663 227.664 440.455 227.828 440.278C227.992 440.101 228.19 439.96 228.411 439.864C228.632 439.768 228.87 439.718 229.111 439.718C229.352 439.718 229.591 439.768 229.811 439.864C230.032 439.96 230.231 440.101 230.395 440.278C230.558 440.455 230.684 440.663 230.763 440.891C230.843 441.118 230.875 441.36 230.856 441.6V445.42C230.875 445.66 230.843 445.902 230.763 446.129C230.684 446.357 230.558 446.565 230.395 446.742C230.231 446.919 230.032 447.06 229.811 447.156C229.591 447.252 229.352 447.302 229.111 447.302C228.87 447.302 228.632 447.252 228.411 447.156C228.19 447.06 227.992 446.919 227.828 446.742C227.664 446.565 227.539 446.357 227.459 446.129C227.38 445.902 227.348 445.66 227.366 445.42V441.6ZM228.516 445.49C228.516 446.01 228.746 446.21 229.106 446.21C229.466 446.21 229.706 446.01 229.706 445.49V441.49C229.706 440.97 229.476 440.77 229.106 440.77C228.736 440.77 228.516 440.97 228.516 441.49V445.49Z" fill="#263238"/>
<path d="M214.865 305.45C214.865 304.986 215.05 304.541 215.378 304.212C215.706 303.884 216.151 303.7 216.615 303.7C217.079 303.7 217.524 303.884 217.853 304.212C218.181 304.541 218.365 304.986 218.365 305.45V309.26C218.365 309.724 218.181 310.169 217.853 310.497C217.524 310.826 217.079 311.01 216.615 311.01C216.151 311.01 215.706 310.826 215.378 310.497C215.05 310.169 214.865 309.724 214.865 309.26V305.45ZM216.015 309.33C216.015 309.86 216.245 310.06 216.615 310.06C216.985 310.06 217.215 309.86 217.215 309.33V305.38C217.215 304.85 216.985 304.65 216.615 304.65C216.245 304.65 216.015 304.85 216.015 305.38V309.33Z" fill="#263238"/>
<path d="M215.676 315.09C215.965 315.126 216.256 315.051 216.492 314.88C216.728 314.709 216.89 314.456 216.946 314.17H217.716V321.49H216.566V315.9H215.676V315.09Z" fill="#263238"/>
<path d="M215.676 325.56C215.965 325.596 216.256 325.521 216.492 325.35C216.728 325.179 216.89 324.926 216.946 324.64H217.716V332H216.566V326.41H215.676V325.56Z" fill="#263238"/>
<path d="M214.865 336.87C214.865 336.406 215.05 335.961 215.378 335.633C215.706 335.304 216.151 335.12 216.615 335.12C217.079 335.12 217.524 335.304 217.853 335.633C218.181 335.961 218.365 336.406 218.365 336.87V340.68C218.365 341.144 218.181 341.589 217.853 341.917C217.524 342.246 217.079 342.43 216.615 342.43C216.151 342.43 215.706 342.246 215.378 341.917C215.05 341.589 214.865 341.144 214.865 340.68V336.87ZM216.015 340.75C216.015 341.28 216.245 341.48 216.615 341.48C216.985 341.48 217.215 341.28 217.215 340.75V336.8C217.215 336.27 216.985 336.07 216.615 336.07C216.245 336.07 216.015 336.27 216.015 336.8V340.75Z" fill="#263238"/>
<path d="M214.865 357.82C214.865 357.356 215.05 356.911 215.378 356.583C215.706 356.254 216.151 356.07 216.615 356.07C217.079 356.07 217.524 356.254 217.853 356.583C218.181 356.911 218.365 357.356 218.365 357.82V361.63C218.365 362.094 218.181 362.539 217.853 362.867C217.524 363.196 217.079 363.38 216.615 363.38C216.151 363.38 215.706 363.196 215.378 362.867C215.05 362.539 214.865 362.094 214.865 361.63V357.82ZM216.015 361.7C216.015 362.22 216.245 362.42 216.615 362.42C216.985 362.42 217.215 362.22 217.215 361.7V357.7C217.215 357.18 216.985 356.98 216.615 356.98C216.245 356.98 216.015 357.18 216.015 357.7V361.7Z" fill="#263238"/>
<path d="M214.865 368.29C214.865 367.826 215.05 367.381 215.378 367.053C215.706 366.724 216.151 366.54 216.615 366.54C217.079 366.54 217.524 366.724 217.853 367.053C218.181 367.381 218.365 367.826 218.365 368.29V372.1C218.365 372.564 218.181 373.009 217.853 373.337C217.524 373.666 217.079 373.85 216.615 373.85C216.151 373.85 215.706 373.666 215.378 373.337C215.05 373.009 214.865 372.564 214.865 372.1V368.29ZM216.015 372.17C216.015 372.7 216.245 372.9 216.615 372.9C216.985 372.9 217.215 372.7 217.215 372.17V368.22C217.215 367.69 216.985 367.5 216.615 367.5C216.245 367.5 216.015 367.69 216.015 368.22V372.17Z" fill="#263238"/>
<path d="M215.676 377.93C215.965 377.966 216.256 377.891 216.492 377.72C216.728 377.549 216.89 377.296 216.946 377.01H217.716V384.33H216.566V378.74H215.676V377.93Z" fill="#263238"/>
<path d="M214.865 389.24C214.865 388.776 215.05 388.331 215.378 388.003C215.706 387.674 216.151 387.49 216.615 387.49C217.079 387.49 217.524 387.674 217.853 388.003C218.181 388.331 218.365 388.776 218.365 389.24V393.05C218.365 393.514 218.181 393.959 217.853 394.287C217.524 394.616 217.079 394.8 216.615 394.8C216.151 394.8 215.706 394.616 215.378 394.287C215.05 393.959 214.865 393.514 214.865 393.05V389.24ZM216.015 393.12C216.015 393.64 216.245 393.84 216.615 393.84C216.985 393.84 217.215 393.64 217.215 393.12V389.12C217.215 388.6 216.985 388.4 216.615 388.4C216.245 388.4 216.015 388.6 216.015 389.12V393.12Z" fill="#263238"/>
<path d="M215.676 398.87C215.965 398.906 216.256 398.831 216.492 398.66C216.728 398.489 216.89 398.236 216.946 397.95H217.716V405.28H216.566V399.69H215.676V398.87Z" fill="#263238"/>
<path d="M208.646 284.5C208.627 284.26 208.659 284.018 208.738 283.791C208.818 283.563 208.943 283.355 209.107 283.178C209.271 283.001 209.47 282.86 209.69 282.764C209.911 282.668 210.15 282.618 210.391 282.618C210.632 282.618 210.87 282.668 211.091 282.764C211.312 282.86 211.51 283.001 211.674 283.178C211.838 283.355 211.963 283.563 212.043 283.791C212.122 284.018 212.154 284.26 212.136 284.5V288.31C212.154 288.55 212.122 288.792 212.043 289.019C211.963 289.247 211.838 289.455 211.674 289.632C211.51 289.809 211.312 289.95 211.091 290.046C210.87 290.142 210.632 290.192 210.391 290.192C210.15 290.192 209.911 290.142 209.69 290.046C209.47 289.95 209.271 289.809 209.107 289.632C208.943 289.455 208.818 289.247 208.738 289.019C208.659 288.792 208.627 288.55 208.646 288.31V284.5ZM209.796 288.39C209.796 288.91 210.026 289.11 210.386 289.11C210.746 289.11 210.986 288.91 210.986 288.39V284.39C210.986 283.87 210.756 283.67 210.386 283.67C210.016 283.67 209.796 283.87 209.796 284.39V288.39Z" fill="#263238"/>
<path d="M209.445 304.61C209.734 304.646 210.026 304.571 210.261 304.4C210.497 304.229 210.659 303.976 210.715 303.69H211.485V311H210.365V305.41H209.475L209.445 304.61Z" fill="#263238"/>
<path d="M209.445 325.56C209.734 325.596 210.026 325.521 210.261 325.35C210.497 325.179 210.659 324.926 210.715 324.64H211.485V332H210.365V326.41H209.475L209.445 325.56Z" fill="#263238"/>
<path d="M208.646 336.87C208.627 336.63 208.659 336.388 208.738 336.161C208.818 335.933 208.943 335.725 209.107 335.548C209.271 335.371 209.47 335.23 209.69 335.134C209.911 335.038 210.15 334.988 210.391 334.988C210.632 334.988 210.87 335.038 211.091 335.134C211.312 335.23 211.51 335.371 211.674 335.548C211.838 335.725 211.963 335.933 212.043 336.161C212.122 336.388 212.154 336.63 212.136 336.87V340.68C212.154 340.92 212.122 341.162 212.043 341.389C211.963 341.617 211.838 341.825 211.674 342.002C211.51 342.179 211.312 342.32 211.091 342.416C210.87 342.512 210.632 342.562 210.391 342.562C210.15 342.562 209.911 342.512 209.69 342.416C209.47 342.32 209.271 342.179 209.107 342.002C208.943 341.825 208.818 341.617 208.738 341.389C208.659 341.162 208.627 340.92 208.646 340.68V336.87ZM209.796 340.76C209.796 341.28 210.026 341.48 210.386 341.48C210.746 341.48 210.986 341.28 210.986 340.76V336.76C210.986 336.23 210.756 336.04 210.386 336.04C210.016 336.04 209.796 336.23 209.796 336.76V340.76Z" fill="#263238"/>
<path d="M209.445 367.45C209.734 367.486 210.026 367.411 210.261 367.24C210.497 367.069 210.659 366.816 210.715 366.53H211.485V373.86H210.365V368.27H209.475L209.445 367.45Z" fill="#263238"/>
<path d="M209.445 377.93C209.734 377.966 210.026 377.891 210.261 377.72C210.497 377.549 210.659 377.296 210.715 377.01H211.485V384.33H210.365V378.74H209.475L209.445 377.93Z" fill="#263238"/>
<path d="M209.445 388.4C209.734 388.436 210.026 388.361 210.261 388.19C210.497 388.019 210.659 387.766 210.715 387.48H211.485V394.81H210.365V389.22H209.475L209.445 388.4Z" fill="#263238"/>
<path d="M404.475 32.61C404.475 32.1459 404.659 31.7007 404.987 31.3725C405.315 31.0444 405.76 30.86 406.225 30.86C406.689 30.86 407.134 31.0444 407.462 31.3725C407.79 31.7007 407.975 32.1459 407.975 32.61V36.42C407.975 36.8841 407.79 37.3292 407.462 37.6574C407.134 37.9856 406.689 38.17 406.225 38.17C405.76 38.17 405.315 37.9856 404.987 37.6574C404.659 37.3292 404.475 36.8841 404.475 36.42V32.61ZM405.625 36.49C405.625 37.01 405.855 37.21 406.225 37.21C406.595 37.21 406.815 37.01 406.815 36.49V32.49C406.815 31.97 406.585 31.77 406.225 31.77C405.865 31.77 405.625 31.97 405.625 32.49V36.49Z" fill="#263238"/>
<path d="M404.475 43.08C404.475 42.6158 404.659 42.1707 404.987 41.8425C405.315 41.5143 405.76 41.33 406.225 41.33C406.689 41.33 407.134 41.5143 407.462 41.8425C407.79 42.1707 407.975 42.6158 407.975 43.08V46.89C407.975 47.3541 407.79 47.7992 407.462 48.1274C407.134 48.4556 406.689 48.64 406.225 48.64C405.76 48.64 405.315 48.4556 404.987 48.1274C404.659 47.7992 404.475 47.3541 404.475 46.89V43.08ZM405.625 47C405.625 47.53 405.855 47.73 406.225 47.73C406.595 47.73 406.815 47.53 406.815 47V43C406.815 42.47 406.585 42.27 406.225 42.27C405.865 42.27 405.625 42.47 405.625 43V47Z" fill="#263238"/>
<path d="M405.285 73.66C405.573 73.6955 405.863 73.6202 406.097 73.4493C406.331 73.2784 406.491 73.0248 406.545 72.74H407.365V80.07H406.215V74.48H405.325L405.285 73.66Z" fill="#263238"/>
<path d="M405.285 84.14C405.573 84.1755 405.863 84.1002 406.097 83.9293C406.331 83.7584 406.491 83.5047 406.545 83.22H407.365V90.54H406.215V85H405.325L405.285 84.14Z" fill="#263238"/>
<path d="M404.475 116.39C404.475 115.926 404.659 115.481 404.987 115.153C405.315 114.824 405.76 114.64 406.225 114.64C406.689 114.64 407.134 114.824 407.462 115.153C407.79 115.481 407.975 115.926 407.975 116.39V120.2C407.975 120.664 407.79 121.109 407.462 121.437C407.134 121.766 406.689 121.95 406.225 121.95C405.76 121.95 405.315 121.766 404.987 121.437C404.659 121.109 404.475 120.664 404.475 120.2V116.39ZM405.625 120.28C405.625 120.8 405.855 121 406.225 121C406.595 121 406.815 120.8 406.815 120.28V116.28C406.815 115.76 406.585 115.56 406.225 115.56C405.865 115.56 405.625 115.76 405.625 116.28V120.28Z" fill="#263238"/>
<path d="M404.475 137.34C404.475 136.876 404.659 136.431 404.987 136.103C405.315 135.774 405.76 135.59 406.225 135.59C406.689 135.59 407.134 135.774 407.462 136.103C407.79 136.431 407.975 136.876 407.975 137.34V141.15C407.975 141.614 407.79 142.059 407.462 142.387C407.134 142.716 406.689 142.9 406.225 142.9C405.76 142.9 405.315 142.716 404.987 142.387C404.659 142.059 404.475 141.614 404.475 141.15V137.34ZM405.625 141.22C405.625 141.75 405.855 141.95 406.225 141.95C406.595 141.95 406.815 141.75 406.815 141.22V137.27C406.815 136.74 406.585 136.55 406.225 136.55C405.865 136.55 405.625 136.74 405.625 137.27V141.22Z" fill="#263238"/>
<path d="M385.795 53.55C385.795 53.0859 385.979 52.6408 386.307 52.3126C386.636 51.9844 387.081 51.8 387.545 51.8C388.009 51.8 388.454 51.9844 388.782 52.3126C389.111 52.6408 389.295 53.0859 389.295 53.55V57.3601C389.295 57.8242 389.111 58.2693 388.782 58.5975C388.454 58.9257 388.009 59.1101 387.545 59.1101C387.081 59.1101 386.636 58.9257 386.307 58.5975C385.979 58.2693 385.795 57.8242 385.795 57.3601V53.55ZM386.945 57.44C386.945 57.96 387.175 58.16 387.545 58.16C387.915 58.16 388.135 57.96 388.135 57.44V53.44C388.135 52.92 387.905 52.7201 387.545 52.7201C387.185 52.7201 386.945 52.92 386.945 53.44V57.44Z" fill="#263238"/>
<path d="M385.795 64C385.795 63.5359 385.979 63.0908 386.307 62.7626C386.636 62.4344 387.081 62.25 387.545 62.25C388.009 62.25 388.454 62.4344 388.782 62.7626C389.111 63.0908 389.295 63.5359 389.295 64V67.81C389.295 68.2741 389.111 68.7193 388.782 69.0474C388.454 69.3756 388.009 69.56 387.545 69.56C387.081 69.56 386.636 69.3756 386.307 69.0474C385.979 68.7193 385.795 68.2741 385.795 67.81V64ZM386.945 67.88C386.945 68.4 387.175 68.6 387.545 68.6C387.915 68.6 388.135 68.4 388.135 67.88V64C388.135 63.48 387.905 63.28 387.545 63.28C387.185 63.28 386.945 63.48 386.945 64V67.88Z" fill="#263238"/>
<path d="M385.795 74.5C385.795 74.0359 385.979 73.5908 386.307 73.2626C386.636 72.9344 387.081 72.75 387.545 72.75C388.009 72.75 388.454 72.9344 388.782 73.2626C389.111 73.5908 389.295 74.0359 389.295 74.5V78.31C389.295 78.7741 389.111 79.2193 388.782 79.5474C388.454 79.8756 388.009 80.06 387.545 80.06C387.081 80.06 386.636 79.8756 386.307 79.5474C385.979 79.2193 385.795 78.7741 385.795 78.31V74.5ZM386.945 78.38C386.945 78.91 387.175 79.11 387.545 79.11C387.915 79.11 388.135 78.91 388.135 78.38V74.43C388.135 73.9 387.905 73.7 387.545 73.7C387.185 73.7 386.945 73.9 386.945 74.43V78.38Z" fill="#263238"/>
<path d="M386.605 84.14C386.893 84.1755 387.183 84.1002 387.418 83.9293C387.652 83.7584 387.812 83.5047 387.865 83.22H388.645V90.54H387.495V85H386.605V84.14Z" fill="#263238"/>
<path d="M386.605 105.08C386.893 105.116 387.183 105.04 387.418 104.869C387.652 104.698 387.812 104.445 387.865 104.16H388.645V111.49H387.495V105.9H386.605V105.08Z" fill="#263238"/>
<path d="M386.605 115.56C386.893 115.596 387.183 115.52 387.418 115.349C387.652 115.178 387.812 114.925 387.865 114.64H388.645V122H387.495V116.41H386.605V115.56Z" fill="#263238"/>
<path d="M385.795 137.34C385.795 136.876 385.979 136.431 386.307 136.103C386.636 135.774 387.081 135.59 387.545 135.59C388.009 135.59 388.454 135.774 388.782 136.103C389.111 136.431 389.295 136.876 389.295 137.34V141.15C389.295 141.614 389.111 142.059 388.782 142.387C388.454 142.716 388.009 142.9 387.545 142.9C387.081 142.9 386.636 142.716 386.307 142.387C385.979 142.059 385.795 141.614 385.795 141.15V137.34ZM386.945 141.22C386.945 141.75 387.175 141.95 387.545 141.95C387.915 141.95 388.135 141.75 388.135 141.22V137.27C388.135 136.74 387.905 136.55 387.545 136.55C387.185 136.55 386.945 136.74 386.945 137.27V141.22Z" fill="#263238"/>
<path d="M386.605 147C386.893 147.035 387.183 146.96 387.418 146.789C387.652 146.618 387.812 146.365 387.865 146.08H388.645V153.4H387.495V147.81H386.605V147Z" fill="#263238"/>
<path d="M398.246 32.61C398.246 32.1459 398.43 31.7007 398.759 31.3725C399.087 31.0444 399.532 30.86 399.996 30.86C400.46 30.86 400.905 31.0444 401.234 31.3725C401.562 31.7007 401.746 32.1459 401.746 32.61V36.42C401.746 36.8841 401.562 37.3292 401.234 37.6574C400.905 37.9856 400.46 38.17 399.996 38.17C399.532 38.17 399.087 37.9856 398.759 37.6574C398.43 37.3292 398.246 36.8841 398.246 36.42V32.61ZM399.366 36.49C399.366 37.01 399.596 37.21 399.956 37.21C400.316 37.21 400.556 37.01 400.556 36.49V32.49C400.556 31.97 400.326 31.77 399.956 31.77C399.586 31.77 399.366 31.97 399.366 32.49V36.49Z" fill="#263238"/>
<path d="M399.055 42.2399C399.343 42.2758 399.635 42.2007 399.871 42.03C400.107 41.8593 400.269 41.6055 400.325 41.3199H401.095V48.6499H399.945V43.0599H399.055V42.2399Z" fill="#263238"/>
<path d="M398.246 53.55C398.246 53.0859 398.43 52.6408 398.759 52.3126C399.087 51.9844 399.532 51.8 399.996 51.8C400.46 51.8 400.905 51.9844 401.234 52.3126C401.562 52.6408 401.746 53.0859 401.746 53.55V57.3601C401.746 57.8242 401.562 58.2693 401.234 58.5975C400.905 58.9257 400.46 59.1101 399.996 59.1101C399.532 59.1101 399.087 58.9257 398.759 58.5975C398.43 58.2693 398.246 57.8242 398.246 57.3601V53.55ZM399.366 57.44C399.366 57.96 399.596 58.16 399.956 58.16C400.316 58.16 400.556 57.96 400.556 57.44V53.44C400.556 52.92 400.326 52.7201 399.956 52.7201C399.586 52.7201 399.366 52.92 399.366 53.44V57.44Z" fill="#263238"/>
<path d="M399.055 63.19C399.343 63.2258 399.635 63.1508 399.871 62.9801C400.107 62.8093 400.269 62.5556 400.325 62.27H401.095V69.6H399.945V64H399.055V63.19Z" fill="#263238"/>
<path d="M399.055 73.66C399.343 73.6958 399.635 73.6208 399.871 73.45C400.107 73.2793 400.269 73.0256 400.325 72.74H401.095V80.07H399.945V74.48H399.055V73.66Z" fill="#263238"/>
<path d="M399.055 84.14C399.343 84.1758 399.635 84.1008 399.871 83.93C400.107 83.7593 400.269 83.5056 400.325 83.22H401.095V90.54H399.945V85H399.055V84.14Z" fill="#263238"/>
<path d="M398.246 95.45C398.246 94.9858 398.43 94.5407 398.759 94.2125C399.087 93.8843 399.532 93.7 399.996 93.7C400.46 93.7 400.905 93.8843 401.234 94.2125C401.562 94.5407 401.746 94.9858 401.746 95.45V99.26C401.746 99.7241 401.562 100.169 401.234 100.497C400.905 100.826 400.46 101.01 399.996 101.01C399.532 101.01 399.087 100.826 398.759 100.497C398.43 100.169 398.246 99.7241 398.246 99.26V95.45ZM399.366 99.33C399.366 99.85 399.596 100.05 399.956 100.05C400.316 100.05 400.556 99.85 400.556 99.33V95.33C400.556 94.81 400.326 94.61 399.956 94.61C399.586 94.61 399.366 94.81 399.366 95.33V99.33Z" fill="#263238"/>
<path d="M398.246 105.92C398.246 105.456 398.43 105.011 398.759 104.682C399.087 104.354 399.532 104.17 399.996 104.17C400.46 104.17 400.905 104.354 401.234 104.682C401.562 105.011 401.746 105.456 401.746 105.92V109.73C401.746 110.194 401.562 110.639 401.234 110.967C400.905 111.296 400.46 111.48 399.996 111.48C399.532 111.48 399.087 111.296 398.759 110.967C398.43 110.639 398.246 110.194 398.246 109.73V105.92ZM399.366 109.8C399.366 110.33 399.596 110.53 399.956 110.53C400.316 110.53 400.556 110.33 400.556 109.8V105.8C400.556 105.27 400.326 105.08 399.956 105.08C399.586 105.08 399.366 105.27 399.366 105.8V109.8Z" fill="#263238"/>
<path d="M392.826 42.2399C393.115 42.2758 393.407 42.2007 393.642 42.03C393.878 41.8593 394.04 41.6055 394.096 41.3199H394.866V48.6499H393.716V43.0599H392.826V42.2399Z" fill="#263238"/>
<path d="M392.025 53.5499C392.006 53.3097 392.038 53.0682 392.117 52.8407C392.197 52.6133 392.322 52.4046 392.486 52.2279C392.65 52.0512 392.849 51.9103 393.069 51.8139C393.29 51.7175 393.529 51.6677 393.77 51.6677C394.01 51.6677 394.249 51.7175 394.47 51.8139C394.69 51.9103 394.889 52.0512 395.053 52.2279C395.217 52.4046 395.342 52.6133 395.422 52.8407C395.501 53.0682 395.533 53.3097 395.515 53.5499V57.3599C395.533 57.6002 395.501 57.8416 395.422 58.0691C395.342 58.2966 395.217 58.5052 395.053 58.6819C394.889 58.8586 394.69 58.9996 394.47 59.096C394.249 59.1924 394.01 59.2421 393.77 59.2421C393.529 59.2421 393.29 59.1924 393.069 59.096C392.849 58.9996 392.65 58.8586 392.486 58.6819C392.322 58.5052 392.197 58.2966 392.117 58.0691C392.038 57.8416 392.006 57.6002 392.025 57.3599V53.5499ZM393.175 57.4399C393.175 57.9599 393.405 58.1599 393.765 58.1599C394.125 58.1599 394.365 57.9599 394.365 57.4399V53.4399C394.365 52.9199 394.135 52.7199 393.765 52.7199C393.395 52.7199 393.175 52.9199 393.175 53.4399V57.4399Z" fill="#263238"/>
<path d="M392.025 64C392.006 63.7597 392.038 63.5183 392.117 63.2908C392.197 63.0633 392.322 62.8547 392.486 62.678C392.65 62.5013 392.849 62.3604 393.069 62.264C393.29 62.1676 393.529 62.1178 393.77 62.1178C394.01 62.1178 394.249 62.1676 394.47 62.264C394.69 62.3604 394.889 62.5013 395.053 62.678C395.217 62.8547 395.342 63.0633 395.422 63.2908C395.501 63.5183 395.533 63.7597 395.515 64V67.81C395.533 68.0503 395.501 68.2917 395.422 68.5192C395.342 68.7467 395.217 68.9553 395.053 69.132C394.889 69.3087 394.69 69.4496 394.47 69.546C394.249 69.6424 394.01 69.6922 393.77 69.6922C393.529 69.6922 393.29 69.6424 393.069 69.546C392.849 69.4496 392.65 69.3087 392.486 69.132C392.322 68.9553 392.197 68.7467 392.117 68.5192C392.038 68.2917 392.006 68.0503 392.025 67.81V64ZM393.175 67.88C393.175 68.4 393.405 68.6 393.765 68.6C394.125 68.6 394.365 68.4 394.365 67.88V64C394.365 63.48 394.135 63.28 393.765 63.28C393.395 63.28 393.175 63.48 393.175 64V67.88Z" fill="#263238"/>
<path d="M392.826 73.66C393.115 73.6958 393.407 73.6208 393.642 73.45C393.878 73.2793 394.04 73.0256 394.096 72.74H394.866V80.07H393.716V74.48H392.826V73.66Z" fill="#263238"/>
<path d="M392.826 94.6099C393.115 94.6457 393.407 94.5707 393.642 94.4C393.878 94.2293 394.04 93.9755 394.096 93.6899H394.866V101H393.716V95.4299H392.826V94.6099Z" fill="#263238"/>
<path d="M392.826 105.08C393.115 105.116 393.407 105.041 393.642 104.87C393.878 104.699 394.04 104.445 394.096 104.16H394.866V111.49H393.716V105.9H392.826V105.08Z" fill="#263238"/>
<path d="M392.826 115.56C393.115 115.596 393.407 115.521 393.642 115.35C393.878 115.179 394.04 114.926 394.096 114.64H394.866V122H393.716V116.41H392.826V115.56Z" fill="#263238"/>
<path d="M111.365 148.57C111.365 148.106 111.55 147.661 111.878 147.333C112.206 147.004 112.651 146.82 113.115 146.82C113.579 146.82 114.024 147.004 114.353 147.333C114.681 147.661 114.865 148.106 114.865 148.57V152.39C114.865 152.854 114.681 153.299 114.353 153.627C114.024 153.956 113.579 154.14 113.115 154.14C112.651 154.14 112.206 153.956 111.878 153.627C111.55 153.299 111.365 152.854 111.365 152.39V148.57ZM112.515 152.46C112.515 152.98 112.745 153.18 113.115 153.18C113.485 153.18 113.705 152.98 113.705 152.46V148.46C113.705 147.94 113.475 147.74 113.115 147.74C112.755 147.74 112.515 147.94 112.515 148.46V152.46Z" fill="#263238"/>
<path d="M111.365 159.05C111.365 158.586 111.55 158.141 111.878 157.813C112.206 157.484 112.651 157.3 113.115 157.3C113.579 157.3 114.024 157.484 114.353 157.813C114.681 158.141 114.865 158.586 114.865 159.05V162.86C114.865 163.324 114.681 163.769 114.353 164.097C114.024 164.426 113.579 164.61 113.115 164.61C112.651 164.61 112.206 164.426 111.878 164.097C111.55 163.769 111.365 163.324 111.365 162.86V159.05ZM112.515 162.93C112.515 163.46 112.745 163.65 113.115 163.65C113.485 163.65 113.705 163.46 113.705 162.93V158.93C113.705 158.41 113.475 158.21 113.115 158.21C112.755 158.21 112.515 158.41 112.515 158.93V162.93Z" fill="#263238"/>
<path d="M112.166 168.68C112.454 168.716 112.744 168.64 112.978 168.469C113.212 168.298 113.372 168.045 113.426 167.76H114.206V175.09H113.056V169.5H112.166V168.68Z" fill="#263238"/>
<path d="M111.365 180C111.365 179.536 111.55 179.091 111.878 178.763C112.206 178.434 112.651 178.25 113.115 178.25C113.579 178.25 114.024 178.434 114.353 178.763C114.681 179.091 114.865 179.536 114.865 180V183.82C114.865 184.284 114.681 184.729 114.353 185.057C114.024 185.386 113.579 185.57 113.115 185.57C112.651 185.57 112.206 185.386 111.878 185.057C111.55 184.729 111.365 184.284 111.365 183.82V180ZM112.515 183.89C112.515 184.41 112.745 184.61 113.115 184.61C113.485 184.61 113.705 184.41 113.705 183.89V179.89C113.705 179.37 113.475 179.17 113.115 179.17C112.755 179.17 112.515 179.37 112.515 179.89V183.89Z" fill="#263238"/>
<path d="M112.166 189.63C112.454 189.665 112.744 189.59 112.978 189.419C113.212 189.248 113.372 188.995 113.426 188.71H114.206V196H113.056V190.41H112.166V189.63Z" fill="#263238"/>
<path d="M111.365 200.94C111.365 200.476 111.55 200.031 111.878 199.702C112.206 199.374 112.651 199.19 113.115 199.19C113.579 199.19 114.024 199.374 114.353 199.702C114.681 200.031 114.865 200.476 114.865 200.94V204.75C114.865 205.214 114.681 205.659 114.353 205.987C114.024 206.316 113.579 206.5 113.115 206.5C112.651 206.5 112.206 206.316 111.878 205.987C111.55 205.659 111.365 205.214 111.365 204.75V200.94ZM112.515 204.83C112.515 205.35 112.745 205.55 113.115 205.55C113.485 205.55 113.705 205.35 113.705 204.83V200.83C113.705 200.3 113.475 200.11 113.115 200.11C112.755 200.11 112.515 200.3 112.515 200.83V204.83Z" fill="#263238"/>
<path d="M112.166 210.58C112.454 210.615 112.744 210.54 112.978 210.369C113.212 210.198 113.372 209.945 113.426 209.66H114.206V217H113.056V211.41H112.166V210.58Z" fill="#263238"/>
<path d="M111.365 221.89C111.365 221.426 111.55 220.981 111.878 220.653C112.206 220.324 112.651 220.14 113.115 220.14C113.579 220.14 114.024 220.324 114.353 220.653C114.681 220.981 114.865 221.426 114.865 221.89V225.7C114.865 226.164 114.681 226.609 114.353 226.937C114.024 227.266 113.579 227.45 113.115 227.45C112.651 227.45 112.206 227.266 111.878 226.937C111.55 226.609 111.365 226.164 111.365 225.7V221.89ZM112.515 225.77C112.515 226.3 112.745 226.49 113.115 226.49C113.485 226.49 113.705 226.3 113.705 225.77V221.77C113.705 221.25 113.475 221.05 113.115 221.05C112.755 221.05 112.515 221.25 112.515 221.77V225.77Z" fill="#263238"/>
<path d="M111.365 232.36C111.365 231.896 111.55 231.451 111.878 231.123C112.206 230.794 112.651 230.61 113.115 230.61C113.579 230.61 114.024 230.794 114.353 231.123C114.681 231.451 114.865 231.896 114.865 232.36V236.17C114.865 236.634 114.681 237.079 114.353 237.407C114.024 237.736 113.579 237.92 113.115 237.92C112.651 237.92 112.206 237.736 111.878 237.407C111.55 237.079 111.365 236.634 111.365 236.17V232.36ZM112.515 236.25C112.515 236.77 112.745 236.97 113.115 236.97C113.485 236.97 113.705 236.77 113.705 236.25V232.25C113.705 231.73 113.475 231.53 113.115 231.53C112.755 231.53 112.515 231.73 112.515 232.25V236.25Z" fill="#263238"/>
<path d="M111.365 242.84C111.365 242.376 111.55 241.931 111.878 241.603C112.206 241.274 112.651 241.09 113.115 241.09C113.579 241.09 114.024 241.274 114.353 241.603C114.681 241.931 114.865 242.376 114.865 242.84V246.65C114.865 247.114 114.681 247.559 114.353 247.887C114.024 248.216 113.579 248.4 113.115 248.4C112.651 248.4 112.206 248.216 111.878 247.887C111.55 247.559 111.365 247.114 111.365 246.65V242.84ZM112.515 246.72C112.515 247.24 112.745 247.44 113.115 247.44C113.485 247.44 113.705 247.24 113.705 246.72V242.72C113.705 242.2 113.475 242 113.115 242C112.755 242 112.515 242.2 112.515 242.72V246.72Z" fill="#263238"/>
<path d="M112.166 262.94C112.454 262.978 112.746 262.904 112.98 262.732C113.215 262.561 113.375 262.306 113.426 262.02H114.206V269.35H113.056V263.76H112.166V262.94Z" fill="#263238"/>
<path d="M118.365 189.63C118.654 189.666 118.946 189.591 119.181 189.42C119.417 189.249 119.579 188.996 119.635 188.71H120.405V196H119.275V190.41H118.365V189.63Z" fill="#263238"/>
<path d="M118.365 200.1C118.654 200.136 118.946 200.061 119.181 199.89C119.417 199.719 119.579 199.466 119.635 199.18H120.405V206.51H119.275V200.92H118.365V200.1Z" fill="#263238"/>
<path d="M117.585 211.41C117.567 211.17 117.598 210.928 117.678 210.701C117.757 210.473 117.883 210.265 118.047 210.088C118.211 209.911 118.409 209.77 118.63 209.674C118.851 209.578 119.089 209.528 119.33 209.528C119.571 209.528 119.809 209.578 120.03 209.674C120.251 209.77 120.45 209.911 120.613 210.088C120.777 210.265 120.903 210.473 120.982 210.701C121.062 210.928 121.093 211.17 121.075 211.41V215.23C121.093 215.47 121.062 215.712 120.982 215.939C120.903 216.167 120.777 216.375 120.613 216.552C120.45 216.729 120.251 216.87 120.03 216.966C119.809 217.062 119.571 217.112 119.33 217.112C119.089 217.112 118.851 217.062 118.63 216.966C118.409 216.87 118.211 216.729 118.047 216.552C117.883 216.375 117.757 216.167 117.678 215.939C117.598 215.712 117.567 215.47 117.585 215.23V211.41ZM118.735 215.3C118.735 215.82 118.965 216.02 119.325 216.02C119.685 216.02 119.925 215.82 119.925 215.3V211.3C119.925 210.78 119.695 210.58 119.325 210.58C118.955 210.58 118.735 210.78 118.735 211.3V215.3Z" fill="#263238"/>
<path d="M117.585 221.89C117.567 221.65 117.598 221.408 117.678 221.181C117.757 220.953 117.883 220.745 118.047 220.568C118.211 220.391 118.409 220.25 118.63 220.154C118.851 220.058 119.089 220.008 119.33 220.008C119.571 220.008 119.809 220.058 120.03 220.154C120.251 220.25 120.45 220.391 120.613 220.568C120.777 220.745 120.903 220.953 120.982 221.181C121.062 221.408 121.093 221.65 121.075 221.89V225.7C121.093 225.94 121.062 226.182 120.982 226.409C120.903 226.637 120.777 226.845 120.613 227.022C120.45 227.199 120.251 227.34 120.03 227.436C119.809 227.532 119.571 227.582 119.33 227.582C119.089 227.582 118.851 227.532 118.63 227.436C118.409 227.34 118.211 227.199 118.047 227.022C117.883 226.845 117.757 226.637 117.678 226.409C117.598 226.182 117.567 225.94 117.585 225.7V221.89ZM118.735 225.77C118.735 226.3 118.965 226.49 119.325 226.49C119.685 226.49 119.925 226.3 119.925 225.77V221.77C119.925 221.25 119.695 221.05 119.325 221.05C118.955 221.05 118.735 221.25 118.735 221.77V225.77Z" fill="#263238"/>
<path d="M118.365 231.52C118.654 231.558 118.947 231.484 119.184 231.313C119.42 231.142 119.581 230.887 119.635 230.6H120.405V237.93H119.275V232.34H118.365V231.52Z" fill="#263238"/>
<path d="M118.365 252.47C118.654 252.506 118.946 252.431 119.181 252.26C119.417 252.089 119.579 251.836 119.635 251.55H120.405V258.88H119.275V253.29H118.365V252.47Z" fill="#263238"/>
<path d="M105.125 180C105.125 179.536 105.309 179.091 105.638 178.763C105.966 178.434 106.411 178.25 106.875 178.25C107.339 178.25 107.784 178.434 108.112 178.763C108.441 179.091 108.625 179.536 108.625 180V183.82C108.625 184.284 108.441 184.729 108.112 185.057C107.784 185.386 107.339 185.57 106.875 185.57C106.411 185.57 105.966 185.386 105.638 185.057C105.309 184.729 105.125 184.284 105.125 183.82V180ZM106.285 183.89C106.285 184.41 106.515 184.61 106.875 184.61C107.235 184.61 107.475 184.41 107.475 183.89V179.89C107.475 179.37 107.245 179.17 106.875 179.17C106.505 179.17 106.285 179.37 106.285 179.89V183.89Z" fill="#263238"/>
<path d="M105.936 189.63C106.224 189.666 106.516 189.591 106.752 189.42C106.987 189.249 107.15 188.996 107.206 188.71H107.976V196H106.826V190.41H105.936V189.63Z" fill="#263238"/>
<path d="M105.936 200.1C106.224 200.136 106.516 200.061 106.752 199.89C106.987 199.719 107.15 199.466 107.206 199.18H107.976V206.51H106.826V200.92H105.936V200.1Z" fill="#263238"/>
<path d="M105.125 211.41C105.125 210.946 105.309 210.501 105.638 210.172C105.966 209.844 106.411 209.66 106.875 209.66C107.339 209.66 107.784 209.844 108.112 210.172C108.441 210.501 108.625 210.946 108.625 211.41V215.23C108.625 215.694 108.441 216.139 108.112 216.467C107.784 216.796 107.339 216.98 106.875 216.98C106.411 216.98 105.966 216.796 105.638 216.467C105.309 216.139 105.125 215.694 105.125 215.23V211.41ZM106.285 215.3C106.285 215.82 106.515 216.02 106.875 216.02C107.235 216.02 107.475 215.82 107.475 215.3V211.3C107.475 210.78 107.245 210.58 106.875 210.58C106.505 210.58 106.285 210.78 106.285 211.3V215.3Z" fill="#263238"/>
<path d="M105.936 221.05C106.224 221.086 106.516 221.011 106.752 220.84C106.987 220.669 107.15 220.416 107.206 220.13H107.976V227.46H106.826V221.87H105.936V221.05Z" fill="#263238"/>
<path d="M105.125 232.36C105.125 231.896 105.309 231.451 105.638 231.123C105.966 230.794 106.411 230.61 106.875 230.61C107.339 230.61 107.784 230.794 108.112 231.123C108.441 231.451 108.625 231.896 108.625 232.36V236.17C108.625 236.634 108.441 237.079 108.112 237.407C107.784 237.736 107.339 237.92 106.875 237.92C106.411 237.92 105.966 237.736 105.638 237.407C105.309 237.079 105.125 236.634 105.125 236.17V232.36ZM106.285 236.25C106.285 236.77 106.515 236.97 106.875 236.97C107.235 236.97 107.475 236.77 107.475 236.25V232.25C107.475 231.73 107.245 231.53 106.875 231.53C106.505 231.53 106.285 231.73 106.285 232.25V236.25Z" fill="#263238"/>
<path d="M98.9054 159.05C98.8872 158.81 98.9188 158.568 98.9982 158.341C99.0777 158.113 99.2033 157.905 99.3671 157.728C99.5309 157.551 99.7294 157.41 99.9503 157.314C100.171 157.217 100.409 157.168 100.65 157.168C100.891 157.168 101.13 157.217 101.351 157.314C101.571 157.41 101.77 157.551 101.934 157.728C102.098 157.905 102.223 158.113 102.303 158.341C102.382 158.568 102.414 158.81 102.395 159.05V162.86C102.414 163.1 102.382 163.342 102.303 163.569C102.223 163.797 102.098 164.005 101.934 164.182C101.77 164.359 101.571 164.5 101.351 164.596C101.13 164.692 100.891 164.742 100.65 164.742C100.409 164.742 100.171 164.692 99.9503 164.596C99.7294 164.5 99.5309 164.359 99.3671 164.182C99.2033 164.005 99.0777 163.797 98.9982 163.569C98.9188 163.342 98.8872 163.1 98.9054 162.86V159.05ZM100.055 162.93C100.055 163.46 100.285 163.65 100.645 163.65C101.005 163.65 101.245 163.46 101.245 162.93V158.93C101.245 158.4 101.015 158.2 100.645 158.2C100.275 158.2 100.055 158.4 100.055 158.93V162.93Z" fill="#263238"/>
<path d="M99.7051 179.16C99.9939 179.196 100.286 179.121 100.521 178.95C100.757 178.779 100.919 178.526 100.975 178.24H101.745V185.56H100.595V180H99.7051V179.16Z" fill="#263238"/>
<path d="M98.9054 190.47C98.8872 190.23 98.9188 189.988 98.9982 189.761C99.0777 189.533 99.2033 189.325 99.3671 189.148C99.5309 188.971 99.7294 188.83 99.9503 188.734C100.171 188.638 100.409 188.588 100.65 188.588C100.891 188.588 101.13 188.638 101.351 188.734C101.571 188.83 101.77 188.971 101.934 189.148C102.098 189.325 102.223 189.533 102.303 189.761C102.382 189.988 102.414 190.23 102.395 190.47V194.28C102.414 194.52 102.382 194.762 102.303 194.989C102.223 195.217 102.098 195.425 101.934 195.602C101.77 195.779 101.571 195.92 101.351 196.016C101.13 196.112 100.891 196.162 100.65 196.162C100.409 196.162 100.171 196.112 99.9503 196.016C99.7294 195.92 99.5309 195.779 99.3671 195.602C99.2033 195.425 99.0777 195.217 98.9982 194.989C98.9188 194.762 98.8872 194.52 98.9054 194.28V190.47ZM100.055 194.35C100.055 194.88 100.285 195.07 100.645 195.07C101.005 195.07 101.245 194.88 101.245 194.35V190.4C101.245 189.87 101.015 189.67 100.645 189.67C100.275 189.67 100.055 189.87 100.055 190.4V194.35Z" fill="#263238"/>
<path d="M98.9054 211.42C98.8872 211.18 98.9188 210.938 98.9982 210.711C99.0777 210.483 99.2033 210.275 99.3671 210.098C99.5309 209.921 99.7294 209.78 99.9503 209.684C100.171 209.588 100.409 209.538 100.65 209.538C100.891 209.538 101.13 209.588 101.351 209.684C101.571 209.78 101.77 209.921 101.934 210.098C102.098 210.275 102.223 210.483 102.303 210.711C102.382 210.938 102.414 211.18 102.395 211.42V215.23C102.414 215.47 102.382 215.712 102.303 215.939C102.223 216.167 102.098 216.375 101.934 216.552C101.77 216.729 101.571 216.87 101.351 216.966C101.13 217.062 100.891 217.112 100.65 217.112C100.409 217.112 100.171 217.062 99.9503 216.966C99.7294 216.87 99.5309 216.729 99.3671 216.552C99.2033 216.375 99.0777 216.167 98.9982 215.939C98.9188 215.712 98.8872 215.47 98.9054 215.23V211.42ZM100.055 215.3C100.055 215.82 100.285 216.02 100.645 216.02C101.005 216.02 101.245 215.82 101.245 215.3V211.3C101.245 210.78 101.015 210.58 100.645 210.58C100.275 210.58 100.055 210.78 100.055 211.3V215.3Z" fill="#263238"/>
<path d="M98.9054 221.89C98.8872 221.65 98.9188 221.408 98.9982 221.181C99.0777 220.953 99.2033 220.745 99.3671 220.568C99.5309 220.391 99.7294 220.25 99.9503 220.154C100.171 220.058 100.409 220.008 100.65 220.008C100.891 220.008 101.13 220.058 101.351 220.154C101.571 220.25 101.77 220.391 101.934 220.568C102.098 220.745 102.223 220.953 102.303 221.181C102.382 221.408 102.414 221.65 102.395 221.89V225.7C102.414 225.94 102.382 226.182 102.303 226.409C102.223 226.637 102.098 226.845 101.934 227.022C101.77 227.199 101.571 227.34 101.351 227.436C101.13 227.532 100.891 227.582 100.65 227.582C100.409 227.582 100.171 227.532 99.9503 227.436C99.7294 227.34 99.5309 227.199 99.3671 227.022C99.2033 226.845 99.0777 226.637 98.9982 226.409C98.9188 226.182 98.8872 225.94 98.9054 225.7V221.89ZM100.055 225.77C100.055 226.3 100.285 226.5 100.645 226.5C101.005 226.5 101.245 226.3 101.245 225.77V221.77C101.245 221.24 101.015 221.04 100.645 221.04C100.275 221.04 100.055 221.24 100.055 221.77V225.77Z" fill="#263238"/>
<path d="M98.9054 232.36C98.8872 232.12 98.9188 231.878 98.9982 231.651C99.0777 231.423 99.2033 231.215 99.3671 231.038C99.5309 230.861 99.7294 230.72 99.9503 230.624C100.171 230.528 100.409 230.478 100.65 230.478C100.891 230.478 101.13 230.528 101.351 230.624C101.571 230.72 101.77 230.861 101.934 231.038C102.098 231.215 102.223 231.423 102.303 231.651C102.382 231.878 102.414 232.12 102.395 232.36V236.17C102.414 236.41 102.382 236.652 102.303 236.879C102.223 237.107 102.098 237.315 101.934 237.492C101.77 237.669 101.571 237.81 101.351 237.906C101.13 238.002 100.891 238.052 100.65 238.052C100.409 238.052 100.171 238.002 99.9503 237.906C99.7294 237.81 99.5309 237.669 99.3671 237.492C99.2033 237.315 99.0777 237.107 98.9982 236.879C98.9188 236.652 98.8872 236.41 98.9054 236.17V232.36ZM100.055 236.25C100.055 236.77 100.285 236.97 100.645 236.97C101.005 236.97 101.245 236.77 101.245 236.25V232.25C101.245 231.73 101.015 231.53 100.645 231.53C100.275 231.53 100.055 231.73 100.055 232.25V236.25Z" fill="#263238"/>
<path d="M99.7051 263C99.9953 263.036 100.288 262.959 100.524 262.786C100.76 262.614 100.921 262.357 100.975 262.07H101.745V269.4H100.595V263.81H99.7051V263Z" fill="#263238"/>
<path d="M450.495 256.61C417.815 243.38 415.445 197.88 415.445 197.88H422.445V192.44C439.035 192.44 450.495 182.15 450.495 182.15C450.495 182.15 461.955 192.44 478.545 192.44V197.88H485.545C485.545 197.88 483.165 243.38 450.495 256.61Z" stroke="#263238" stroke-width="1.10721" stroke-linecap="round" stroke-linejoin="round"/>
<path d="M450.496 250.6C429.086 240.6 422.886 214.04 421.176 202.6H427.576V196.88C435.804 195.864 443.666 192.88 450.496 188.18C457.329 192.88 465.195 195.864 473.426 196.88V202.6H479.806C478.076 214 471.836 240.6 450.496 250.6Z" stroke="#263238" stroke-width="1.10721" stroke-linecap="round" stroke-linejoin="round"/>
<path d="M462.036 212.97H438.946C438.2 212.97 437.596 213.574 437.596 214.32V228.19C437.596 228.936 438.2 229.54 438.946 229.54H462.036C462.781 229.54 463.386 228.936 463.386 228.19V214.32C463.386 213.574 462.781 212.97 462.036 212.97Z" fill="#263238"/>
<path d="M450.955 199C449.7 198.939 448.447 199.133 447.27 199.571C446.093 200.009 445.017 200.681 444.107 201.547C443.197 202.413 442.473 203.454 441.977 204.608C441.482 205.762 441.226 207.004 441.225 208.26V209.26C441.225 209.345 441.241 209.43 441.274 209.509C441.307 209.588 441.355 209.659 441.415 209.72C441.475 209.78 441.547 209.828 441.626 209.861C441.705 209.893 441.789 209.91 441.875 209.91H444.215C444.3 209.91 444.385 209.893 444.463 209.861C444.542 209.828 444.614 209.78 444.674 209.72C444.735 209.659 444.782 209.588 444.815 209.509C444.848 209.43 444.865 209.345 444.865 209.26V208.49C444.846 207.041 445.376 205.638 446.348 204.563C447.319 203.487 448.661 202.818 450.105 202.69C450.873 202.639 451.643 202.747 452.368 203.006C453.093 203.265 453.757 203.67 454.32 204.195C454.882 204.721 455.331 205.357 455.638 206.063C455.945 206.769 456.104 207.53 456.105 208.3V209.3C456.105 209.472 456.173 209.638 456.295 209.76C456.417 209.882 456.582 209.95 456.755 209.95H459.095C459.267 209.95 459.432 209.882 459.554 209.76C459.676 209.638 459.745 209.472 459.745 209.3V208.6C459.789 206.178 458.902 203.832 457.266 202.045C455.63 200.259 453.371 199.169 450.955 199Z" fill="#263238"/>
<path d="M452.916 219.4C452.917 218.968 452.802 218.543 452.584 218.17C452.365 217.798 452.051 217.49 451.673 217.28C451.295 217.07 450.868 216.965 450.436 216.975C450.004 216.986 449.582 217.112 449.216 217.341C448.849 217.57 448.55 217.893 448.35 218.276C448.15 218.659 448.057 219.089 448.079 219.521C448.102 219.952 448.24 220.37 448.478 220.73C448.717 221.091 449.048 221.381 449.436 221.57L448.556 225.46H452.426L451.546 221.57C451.954 221.372 452.299 221.064 452.541 220.681C452.783 220.297 452.913 219.854 452.916 219.4Z" fill="white" stroke="#263238" stroke-width="1.10721" stroke-linecap="round" stroke-linejoin="round"/>
<path d="M347.245 48.12H268.285C266.451 48.12 264.965 49.6064 264.965 51.44V95.9C264.965 97.7336 266.451 99.22 268.285 99.22H347.245C349.078 99.22 350.565 97.7336 350.565 95.9V51.44C350.565 49.6064 349.078 48.12 347.245 48.12Z" stroke="#263238" stroke-width="1.10721" stroke-linecap="round" stroke-linejoin="round"/>
<path d="M272.935 92.0801H297.705C298.341 92.0801 298.855 91.5652 298.855 90.9301V56.4201C298.855 55.785 298.341 55.2701 297.705 55.2701H272.935C272.3 55.2701 271.785 55.785 271.785 56.4201V90.9301C271.785 91.5652 272.3 92.0801 272.935 92.0801Z" stroke="#263238" stroke-width="1.10721" stroke-linecap="round" stroke-linejoin="round"/>
<path d="M285.365 92.07H273.005C272.682 92.07 272.371 91.9415 272.142 91.7127C271.914 91.4839 271.785 91.1736 271.785 90.85V82.35C271.785 82.35 278.695 82.05 279.855 80.58C281.015 79.11 279.735 76.81 279.735 76.81C279.315 76.29 279.215 72.6 279.215 72.6L278.795 72.49C278.385 72.39 277.795 69.33 277.795 68.18C277.794 67.8488 277.888 67.5242 278.065 67.2443C278.242 66.9644 278.495 66.7409 278.795 66.6C278.795 66.6 277.795 59.14 285.325 59.14C292.855 59.14 291.845 66.6 291.845 66.6C292.145 66.7409 292.398 66.9644 292.575 67.2443C292.753 67.5242 292.846 67.8488 292.845 68.18C292.845 69.33 292.305 72.39 291.845 72.49L291.425 72.6C291.425 72.6 291.325 76.29 290.905 76.81C290.905 76.81 289.615 79.11 290.785 80.58C291.955 82.05 298.855 82.35 298.855 82.35V90.85C298.856 91.0106 298.826 91.1698 298.765 91.3185C298.704 91.4671 298.614 91.6021 298.501 91.7157C298.387 91.8292 298.252 91.919 298.104 91.9799C297.955 92.0407 297.796 92.0713 297.635 92.07H285.365Z" fill="#263238"/>
<path d="M341.985 92.25H325.165C324.83 92.2501 324.509 92.1193 324.27 91.8857C324.031 91.6521 323.893 91.3342 323.885 91C323.885 90.6605 324.02 90.3349 324.26 90.0949C324.5 89.8548 324.825 89.72 325.165 89.72H341.985C342.324 89.72 342.65 89.8548 342.89 90.0949C343.13 90.3349 343.265 90.6605 343.265 91C343.257 91.3342 343.119 91.6521 342.879 91.8857C342.64 92.1193 342.319 92.2501 341.985 92.25Z" fill="#263238"/>
<path d="M341.984 57.65H307.114C306.775 57.65 306.449 57.5151 306.209 57.2751C305.969 57.035 305.834 56.7094 305.834 56.37C305.834 56.0305 305.969 55.7049 306.209 55.4649C306.449 55.2248 306.775 55.09 307.114 55.09H341.984C342.323 55.09 342.649 55.2248 342.889 55.4649C343.129 55.7049 343.264 56.0305 343.264 56.37C343.264 56.7094 343.129 57.035 342.889 57.2751C342.649 57.5151 342.323 57.65 341.984 57.65Z" fill="#263238"/>
<path d="M327.114 66.3H307.114C306.944 66.3 306.776 66.2662 306.62 66.2007C306.463 66.1351 306.321 66.039 306.202 65.918C306.083 65.797 305.989 65.6536 305.926 65.4959C305.863 65.3383 305.831 65.1697 305.834 65C305.834 64.6605 305.969 64.3349 306.209 64.0949C306.449 63.8548 306.775 63.72 307.114 63.72H327.114C327.448 63.7278 327.766 63.8661 328 64.1053C328.234 64.3445 328.364 64.6656 328.364 65C328.37 65.3378 328.241 65.664 328.007 65.9075C327.773 66.151 327.452 66.2921 327.114 66.3Z" fill="#263238"/>
<path d="M320.744 74.9999H307.114C306.775 74.9999 306.449 74.8651 306.209 74.625C305.969 74.385 305.834 74.0594 305.834 73.7199C305.834 73.3805 305.969 73.0549 306.209 72.8148C306.449 72.5748 306.775 72.4399 307.114 72.4399H320.744C321.083 72.4399 321.409 72.5748 321.649 72.8148C321.889 73.0549 322.024 73.3805 322.024 73.7199C322.024 74.0594 321.889 74.385 321.649 74.625C321.409 74.8651 321.083 74.9999 320.744 74.9999Z" fill="#263238"/>
<path d="M327.115 83.6H307.115C306.775 83.6 306.45 83.4651 306.21 83.2251C305.969 82.9851 305.835 82.6595 305.835 82.32C305.829 82.1486 305.858 81.9778 305.92 81.8179C305.982 81.6579 306.076 81.5121 306.195 81.3889C306.314 81.2658 306.457 81.1679 306.615 81.1011C306.773 81.0343 306.943 80.9999 307.115 81H327.115C327.284 81.0039 327.45 81.0412 327.605 81.1098C327.759 81.1783 327.898 81.2768 328.015 81.3995C328.131 81.5223 328.222 81.6668 328.282 81.8248C328.342 81.9828 328.37 82.1511 328.365 82.32C328.365 82.6543 328.234 82.9755 328 83.2147C327.767 83.4539 327.449 83.5922 327.115 83.6Z" fill="#263238"/>
<path d="M184.525 184.18V233.38L171.285 246.62H136.125V184.18H184.525Z" stroke="#263238" stroke-width="1.10721" stroke-linecap="round" stroke-linejoin="round"/>
<path d="M184.525 233.38L171.285 246.62V233.38H184.525Z" fill="#263238" stroke="#263238" stroke-width="1.10721" stroke-linecap="round" stroke-linejoin="round"/>
<path d="M147.914 192.14H177.124" stroke="#263238" stroke-width="1.10721" stroke-linecap="round" stroke-linejoin="round"/>
<path d="M143.516 197.64H177.126" stroke="#263238" stroke-width="1.10721" stroke-linecap="round" stroke-linejoin="round"/>
<path d="M143.516 203.14H177.126" stroke="#263238" stroke-width="1.10721" stroke-linecap="round" stroke-linejoin="round"/>
<path d="M143.516 208.64H177.126" stroke="#263238" stroke-width="1.10721" stroke-linecap="round" stroke-linejoin="round"/>
<path d="M143.516 214.14H177.126" stroke="#263238" stroke-width="1.10721" stroke-linecap="round" stroke-linejoin="round"/>
<path d="M143.516 219.64H177.126" stroke="#263238" stroke-width="1.10721" stroke-linecap="round" stroke-linejoin="round"/>
<path d="M143.516 225.13H177.126" stroke="#263238" stroke-width="1.10721" stroke-linecap="round" stroke-linejoin="round"/>
<path d="M143.516 230.63H172.736" stroke="#263238" stroke-width="1.10721" stroke-linecap="round" stroke-linejoin="round"/>
<path d="M186.826 192.14H192.476V241.34L179.246 254.58H144.086V248.76" stroke="#263238" stroke-width="1.10721" stroke-linecap="round" stroke-linejoin="round"/>
<path d="M192.474 241.34L179.244 254.58V241.34H192.474Z" fill="#263238" stroke="#263238" stroke-width="1.10721" stroke-linecap="round" stroke-linejoin="round"/>
<path d="M366.345 149.97H249.185C246.844 149.97 244.945 151.868 244.945 154.21V284.55C244.945 286.892 246.844 288.79 249.185 288.79H366.345C368.687 288.79 370.585 286.892 370.585 284.55V154.21C370.585 151.868 368.687 149.97 366.345 149.97Z" fill="#BAE4FF" stroke="#263238" stroke-width="1.10721" stroke-linecap="round" stroke-linejoin="round"/>
<g opacity="0.5">
<path d="M368.055 196.25H247.475" stroke="white" stroke-width="1.10721" stroke-linecap="round" stroke-linejoin="round"/>
<path d="M368.055 211.67H247.475" stroke="white" stroke-width="1.10721" stroke-linecap="round" stroke-linejoin="round"/>
<path d="M368.055 227.09H247.475" stroke="white" stroke-width="1.10721" stroke-linecap="round" stroke-linejoin="round"/>
<path d="M368.055 242.51H247.475" stroke="white" stroke-width="1.10721" stroke-linecap="round" stroke-linejoin="round"/>
<path d="M368.055 257.93H247.475" stroke="white" stroke-width="1.10721" stroke-linecap="round" stroke-linejoin="round"/>
<path d="M368.055 273.36H247.475" stroke="white" stroke-width="1.10721" stroke-linecap="round" stroke-linejoin="round"/>
<path d="M368.055 180.82H247.475" stroke="white" stroke-width="1.10721" stroke-linecap="round" stroke-linejoin="round"/>
<path d="M368.055 165.4H247.475" stroke="white" stroke-width="1.10721" stroke-linecap="round" stroke-linejoin="round"/>
<path d="M339.244 286.31V152.44" stroke="white" stroke-width="1.10721" stroke-linecap="round" stroke-linejoin="round"/>
<path d="M323.504 286.31V152.44" stroke="white" stroke-width="1.10721" stroke-linecap="round" stroke-linejoin="round"/>
<path d="M307.764 286.31V152.44" stroke="white" stroke-width="1.10721" stroke-linecap="round" stroke-linejoin="round"/>
<path d="M292.025 286.31V152.44" stroke="white" stroke-width="1.10721" stroke-linecap="round" stroke-linejoin="round"/>
<path d="M276.285 286.31V152.44" stroke="white" stroke-width="1.10721" stroke-linecap="round" stroke-linejoin="round"/>
<path d="M260.555 286.31V152.44" stroke="white" stroke-width="1.10721" stroke-linecap="round" stroke-linejoin="round"/>
<path d="M354.984 286.31V152.44" stroke="white" stroke-width="1.10721" stroke-linecap="round" stroke-linejoin="round"/>
</g>
<path d="M303.366 261.67C304.712 254.711 306.553 247.857 308.876 241.16C309.346 239.81 309.876 238.45 310.456 237C311.826 233.5 314.636 226.35 313.576 224.22C313.47 223.993 313.306 223.799 313.1 223.657C312.895 223.514 312.655 223.429 312.406 223.41C312.352 223.407 312.299 223.416 312.249 223.435C312.199 223.454 312.154 223.483 312.116 223.52C308.996 226.07 306.986 233.14 305.526 238.3L305.036 240.04C303.099 246.978 301.728 254.061 300.936 261.22" stroke="#263238" stroke-width="1.10721" stroke-linecap="round" stroke-linejoin="round"/>
<path d="M307.995 262C309.287 255.45 311.035 248.997 313.225 242.69C313.665 241.4 314.225 240.05 314.755 238.63C316.945 233.06 319.665 226.16 317.705 222.21C317.218 221.225 316.47 220.393 315.542 219.804C314.615 219.215 313.543 218.892 312.445 218.87C311.284 218.859 310.158 219.259 309.265 220C305.035 223.45 302.895 231 301.175 237.06L300.685 238.79C298.749 245.668 297.367 252.691 296.555 259.79" stroke="#263238" stroke-width="1.10721" stroke-linecap="round" stroke-linejoin="round"/>
<path d="M312.735 261.55C313.954 255.659 315.554 249.854 317.525 244.17C319.905 237.38 325.265 227.17 321.785 220.17C318.935 214.44 311.475 212.31 306.385 216.47C300.565 221.21 298.255 230.72 296.295 237.53C294.445 244.087 293.085 250.772 292.225 257.53" stroke="#263238" stroke-width="1.10721" stroke-linecap="round" stroke-linejoin="round"/>
<path d="M317.716 260.17C318.803 255.263 320.179 250.425 321.836 245.68C322.226 244.55 322.726 243.29 323.256 241.94C326.096 234.71 329.636 225.7 325.866 218.12C324.621 215.619 322.709 213.51 320.34 212.028C317.972 210.545 315.24 209.747 312.446 209.72C309.185 209.71 306.024 210.838 303.506 212.91C297.046 218.18 294.506 227.27 292.396 234.56L291.916 236.25C290.231 242.186 288.951 248.23 288.086 254.34" stroke="#263238" stroke-width="1.10721" stroke-linecap="round" stroke-linejoin="round"/>
<path d="M323.035 257.54C323.965 253.88 324.985 250.49 326.135 247.19C326.515 246.12 326.985 244.91 327.485 243.64C330.485 235.96 334.615 225.48 329.945 216.1C328.324 212.837 325.83 210.088 322.741 208.156C319.652 206.225 316.088 205.188 312.445 205.16C308.133 205.145 303.952 206.638 300.625 209.38C293.045 215.56 290.255 225.38 288.005 233.32L287.525 235C286.114 239.956 284.982 244.987 284.135 250.07" stroke="#263238" stroke-width="1.10721" stroke-linecap="round" stroke-linejoin="round"/>
<path d="M328.525 253.09C329.525 245.77 335.425 237.09 336.005 226.94C336.535 217.64 333.475 211.68 331.305 208.69C330.79 207.953 330.462 207.102 330.35 206.209C330.239 205.317 330.347 204.411 330.665 203.57C332.116 199.309 332.067 194.679 330.525 190.45" stroke="#263238" stroke-width="1.10721" stroke-linecap="round" stroke-linejoin="round"/>
<path d="M314.665 176.78C322.365 181.6 327.365 189.19 327.755 199C327.885 202.52 325.025 203.73 321.445 202.64C313.955 200.36 296.105 194.52 285.225 225.11C283.14 231.457 281.602 237.971 280.625 244.58" stroke="#263238" stroke-width="1.10721" stroke-linecap="round" stroke-linejoin="round"/>
<path d="M299.366 177.28C304.171 177.215 308.919 178.327 313.196 180.52C320.506 184.45 325.106 193.69 322.756 196.04C320.146 198.65 315.296 192.35 300.466 198.43C293.336 201.35 288.276 207.3 284.836 214.06C283.284 217.148 281.974 220.351 280.916 223.64C279.537 227.872 278.401 232.179 277.516 236.54" stroke="#263238" stroke-width="1.10721" stroke-linecap="round" stroke-linejoin="round"/>
<path d="M290.936 182.92C293.548 182.232 296.235 181.872 298.936 181.85C312.026 181.55 316.936 188.53 315.496 190.3C314.286 191.79 311.596 190.95 307.906 191.4C297.256 192.71 288.836 198.77 283.166 207.73C280.37 212.267 278.14 217.13 276.526 222.21C276.226 223.12 275.936 224.04 275.656 224.96" stroke="#263238" stroke-width="1.10721" stroke-linecap="round" stroke-linejoin="round"/>
<path d="M284.766 190.45C289.129 186.926 294.622 185.107 300.226 185.33C301.886 185.33 305.986 185.87 306.536 187.44C307.266 189.5 300.606 186.7 290.956 193.13C278.586 201.38 277.086 209.2 277.086 209.2" stroke="#263238" stroke-width="1.10721" stroke-linecap="round" stroke-linejoin="round"/>
<path d="M333.775 247.55C333.775 247.55 340.485 233.06 339.775 221.86C339.335 214.65 335.775 210.13 335.215 206.92C334.655 203.71 336.215 202.92 335.795 199.98" stroke="#263238" stroke-width="1.10721" stroke-linecap="round" stroke-linejoin="round"/>
<path d="M253.406 179.34V158.88H273.866" stroke="#263238" stroke-width="1.10721" stroke-linecap="round" stroke-linejoin="round"/>
<path d="M273.866 279.88H253.406V259.42" stroke="#263238" stroke-width="1.10721" stroke-linecap="round" stroke-linejoin="round"/>
<path d="M362.136 179.34V158.88H341.676" stroke="#263238" stroke-width="1.10721" stroke-linecap="round" stroke-linejoin="round"/>
<path d="M341.676 279.88H362.136V259.42" stroke="#263238" stroke-width="1.10721" stroke-linecap="round" stroke-linejoin="round"/>
<path d="M449.043 468C443.703 460 438.103 451.56 433.503 444.57C427.623 435.66 423.383 429.15 423.383 429.15C421.133 418.62 417.943 414.49 414.733 405.84C411.523 397.19 414.173 389.48 415.503 378.77C416.833 368.06 414.733 358.08 413.613 351.31C412.493 344.54 413.803 338.15 413.613 336.65C413.423 335.15 407.033 327.25 404.613 321.42C403.516 318.82 401.984 316.425 400.083 314.34C397.982 311.936 395.353 310.05 392.403 308.83C391.174 308.346 389.891 308.011 388.583 307.83C385.583 307.4 383.163 307.88 380.743 307.88C377.353 307.88 370.213 302.06 365.513 301.13C364.64 300.957 363.759 300.833 362.873 300.76C358.983 300.39 354.873 300.76 350.323 301.12C345.773 301.48 340.483 297.17 336.223 295.82H336.153C335.21 295.491 334.204 295.381 333.213 295.5C328.703 296.25 320.213 297 320.213 297C320.213 297 319.463 291.18 319.083 283.28C319.013 281.91 318.913 280.59 318.793 279.28C318.353 274.4 317.653 270.04 317.543 266.05C317.543 265.05 317.543 263.98 317.543 262.98C317.913 257.36 317.743 252.98 317.543 244.34C317.543 244.05 317.543 243.74 317.543 243.43C317.543 240.74 317.543 238.17 317.383 235.85C317.073 230.22 315.823 226.06 310.223 225.2C305.333 224.45 301.953 226.89 299.883 234.98C297.813 243.07 296.313 242.5 295.753 254.34C295.193 266.18 292.543 273.72 292.923 279.73C293.303 285.74 291.983 297.4 291.983 297.4C289.733 296.27 287.663 297.21 287.273 298.15C286.883 299.09 285.223 308.31 283.893 314.89C282.733 320.74 277.403 326.15 275.443 330.18V330.27C275.233 330.705 275.059 331.156 274.923 331.62C273.793 335.76 274.363 344.62 274.363 355.88C274.363 367.14 271.543 378.82 274.363 386.33C274.963 387.86 275.804 389.284 276.853 390.55C281.183 395.9 289.133 400.55 296.363 409.08C305.363 419.8 311.783 427.7 317.793 431.28C322.103 433.82 323.993 435.9 324.793 438.64C325.107 439.828 325.271 441.051 325.283 442.28C325.363 444.68 326.663 446.51 328.863 449.55C332.295 454.2 335.307 459.146 337.863 464.33C340.273 469.16 343.963 478.33 347.863 488.49L449.043 468Z" fill="white"/>
<path opacity="0.4" d="M317.513 262.93C317.453 263.93 317.443 264.93 317.513 266C310.323 264.64 296.443 268.19 296.233 272.43C295.993 277.6 295.363 289.82 297.993 292.67C300.623 295.52 306.263 297.34 306.263 297.34C305.847 297.372 305.433 297.425 305.023 297.5H304.883C303.083 297.879 301.443 298.8 300.183 300.14C294.683 305.78 294.453 318.28 296.253 324.3C303.783 349.3 291.593 369.08 287.253 366.68C282.913 364.28 282.563 342.79 283.873 337.76C284.664 334.826 285.051 331.798 285.023 328.76C283.103 328.12 279.073 329.05 275.373 330.2V330.11C277.373 326.11 282.663 320.67 283.823 314.82C285.153 308.24 286.823 299.02 287.203 298.08C287.583 297.14 289.663 296.2 291.913 297.33C291.913 297.33 293.233 285.68 292.853 279.66C292.473 273.64 295.113 266.12 295.683 254.27C296.253 242.42 297.743 243 299.813 234.91C301.883 226.82 305.263 224.38 310.153 225.13C315.753 225.99 317.003 230.13 317.313 235.78C316.684 235.183 316.016 234.629 315.313 234.12C313.542 232.744 311.317 232.087 309.083 232.28C306.493 232.64 304.223 235.28 302.783 238C300.713 242 300.373 246.29 303.283 244.82C306.583 243.17 313.393 243.72 317.543 244.27C317.713 252.9 317.883 257.31 317.513 262.93Z" fill="#EEEEEE"/>
<path opacity="0.4" d="M325.192 442.25C325.18 441.021 325.016 439.798 324.702 438.61C323.912 435.87 322.022 433.79 317.702 431.25C311.702 427.67 305.292 419.77 296.272 409.05C289.042 400.48 281.092 395.87 276.762 390.52C282.212 393.47 289.612 391.95 291.942 396.62C295.332 403.36 311.252 413.62 311.252 413.62C326.792 429 325.192 442.25 325.192 442.25Z" fill="#EEEEEE"/>
<path opacity="0.4" d="M362.783 300.75C358.783 301.11 354.783 305.02 351.493 305.75C347.493 306.6 340.143 297.59 336.133 295.83C340.393 297.18 345.733 301.42 350.233 301.13C354.733 300.84 358.893 300.38 362.783 300.75Z" fill="#EEEEEE"/>
<path opacity="0.4" d="M388.533 307.82C386.551 310.302 384.956 313.07 383.803 316.03C380.583 326.44 383.623 365.83 378.433 359.38C371.673 351 378.733 321.93 373.803 310.83C372.243 307.28 366.673 301.6 365.463 301.12C370.163 302.05 377.303 307.87 380.693 307.87C383.113 307.87 385.543 307.39 388.533 307.82Z" fill="#EEEEEE"/>
<path opacity="0.4" d="M433.482 444.56C428.212 438.62 422.692 432.96 419.082 430.84C410.292 425.66 407.772 420.3 407.012 411.37C406.252 402.44 408.522 402.63 411.152 393.8C413.782 384.97 408.892 374.05 409.272 376.41C409.652 378.77 405.502 395.11 402.452 395.92C399.402 396.73 398.372 385.71 397.992 376.73C397.612 367.75 402.502 325.93 401.132 317.73C400.946 316.54 400.575 315.386 400.032 314.31C401.933 316.395 403.465 318.79 404.562 321.39C407.012 327.22 413.402 335.12 413.562 336.62C413.722 338.12 412.432 344.52 413.562 351.28C414.692 358.04 416.762 368.01 415.452 378.74C414.142 389.47 411.452 397.16 414.682 405.81C417.912 414.46 421.082 418.59 423.332 429.12C423.362 429.14 427.602 435.65 433.482 444.56Z" fill="#EEEEEE"/>
<path opacity="0.4" d="M354.113 323C356.113 325.1 357.373 352.62 358.503 359.39C359.633 366.16 356.123 382.39 354.113 377.45C352.103 372.51 345.973 314.44 354.113 323Z" fill="#EEEEEE"/>
<path d="M346.362 484.6C343.042 476.02 339.972 468.51 337.872 464.3C335.317 459.116 332.305 454.17 328.872 449.52C326.672 446.52 325.372 444.65 325.292 442.25C325.281 441.021 325.117 439.798 324.802 438.61V438.61C324.012 435.87 322.122 433.79 317.802 431.25C311.802 427.67 305.392 419.77 296.372 409.05C289.142 400.48 281.192 395.87 276.862 390.52C275.814 389.255 274.973 387.83 274.372 386.3C271.552 378.79 274.372 367.12 274.372 355.85C274.372 344.58 273.802 335.73 274.932 331.59C275.069 331.127 275.243 330.675 275.452 330.24V330.15C277.452 326.15 282.742 320.71 283.902 314.86C285.232 308.28 286.902 299.06 287.282 298.12C287.662 297.18 289.742 296.24 291.992 297.37C291.992 297.37 293.312 285.72 292.932 279.7C292.552 273.68 295.192 266.16 295.762 254.31C296.332 242.46 297.822 243.04 299.892 234.95C301.962 226.86 305.342 224.42 310.232 225.17C315.832 226.03 317.082 230.17 317.392 235.82C317.522 238.14 317.502 240.71 317.552 243.4C317.552 243.71 317.552 244.02 317.552 244.31C317.732 252.92 317.902 257.31 317.552 262.95C317.492 263.95 317.482 264.95 317.552 266.02C317.662 270.02 318.362 274.37 318.802 279.25C318.922 280.55 319.022 281.87 319.092 283.25C319.472 291.15 320.222 296.97 320.222 296.97C320.222 296.97 328.682 296.22 333.222 295.47C334.214 295.352 335.22 295.461 336.162 295.79H336.232C340.492 297.14 345.832 301.38 350.332 301.09C354.832 300.8 358.992 300.36 362.882 300.73C363.769 300.804 364.65 300.927 365.522 301.1C370.222 302.03 377.362 307.85 380.752 307.85C383.172 307.85 385.602 307.37 388.592 307.8C389.901 307.981 391.183 308.316 392.412 308.8C395.363 310.02 397.992 311.906 400.092 314.31C401.994 316.395 403.526 318.79 404.622 321.39C407.072 327.22 413.462 335.12 413.622 336.62C413.782 338.12 412.492 344.52 413.622 351.28C414.752 358.04 416.822 368.01 415.512 378.74C414.202 389.47 411.512 397.16 414.742 405.81C417.972 414.46 421.142 418.59 423.392 429.12C423.392 429.12 427.632 435.63 433.512 444.54C437.592 450.73 442.452 458.09 447.232 465.24" stroke="#263238" stroke-width="1.10721" stroke-linecap="round" stroke-linejoin="round"/>
<path d="M291.942 297.34C291.942 305.62 291.192 315.89 289.942 320.16C288.692 324.43 289.532 338.71 287.232 344.72" stroke="#263238" stroke-width="1.10721" stroke-linecap="round" stroke-linejoin="round"/>
<path d="M296.213 303.86C296.213 303.86 301.973 297.34 306.213 297.34C310.453 297.34 314.743 300.1 319.213 300.6C323.683 301.1 328.423 297.77 332.753 296.97" stroke="#263238" stroke-width="1.10721" stroke-linecap="round" stroke-linejoin="round"/>
<path d="M299.463 273.69C299.463 273.69 307.243 270.85 311.253 273.69" stroke="#263238" stroke-width="1.10721" stroke-linecap="round" stroke-linejoin="round"/>
<path d="M305.363 270C305.363 270 307.743 269.35 311.253 271.05" stroke="#263238" stroke-width="1.10721" stroke-linecap="round" stroke-linejoin="round"/>
<path d="M303.283 250C305.918 249.414 308.649 249.414 311.283 250" stroke="#263238" stroke-width="1.10721" stroke-linecap="round" stroke-linejoin="round"/>
<path d="M275.363 330.11C275.363 330.11 280.363 327.68 282.363 327.43" stroke="#263238" stroke-width="1.10721" stroke-linecap="round" stroke-linejoin="round"/>
<path d="M288.572 337.81C288.572 337.81 285.572 342.47 285.012 344.72" stroke="#263238" stroke-width="1.10721" stroke-linecap="round" stroke-linejoin="round"/>
<path d="M303.283 229.66C303.283 229.66 302.083 239.23 303.283 240.08C304.483 240.93 313.753 241.74 314.513 240.08C315.273 238.42 315.403 231.41 315.403 231.41C315.403 231.41 309.853 221.88 303.283 229.66Z" stroke="#263238" stroke-width="1.10721" stroke-linecap="round" stroke-linejoin="round"/>
<path d="M283.863 314.83C283.863 314.83 291.553 310.95 291.733 305.4C291.913 299.85 289.653 299.91 286.793 299.88" stroke="#263238" stroke-width="1.10721" stroke-linecap="round" stroke-linejoin="round"/>
<path d="M403.753 327.43C404.003 336.2 401.503 361.77 401.243 365.53C400.983 369.29 401.243 378.9 401.243 378.9" stroke="#263238" stroke-width="1.10721" stroke-linecap="round" stroke-linejoin="round"/>
<path d="M348.854 307.35C357.124 319.35 348.854 314.83 354.114 372.3" stroke="#263238" stroke-width="1.10721" stroke-linecap="round" stroke-linejoin="round"/>
<path d="M423.363 429.14C423.363 429.14 416.033 423.44 414.773 420.14" stroke="#263238" stroke-width="1.10721" stroke-linecap="round" stroke-linejoin="round"/>
<path d="M321.023 426.44C323.223 430.09 324.613 438.09 324.693 438.58" stroke="#263238" stroke-width="1.10721" stroke-linecap="round" stroke-linejoin="round"/>
</svg>
