<svg width="19" height="19" viewBox="0 0 19 19" fill="none" xmlns="http://www.w3.org/2000/svg">
<g clip-path="url(#clip0_947_1628)">
<path d="M4.73222 0.00846208C4.45863 0.00916767 4.20515 0.151521 4.06227 0.384714L0.265338 4.197V4.19717C0.116635 4.34411 0.0324975 4.54414 0.0312601 4.75315C0.0302017 4.96218 0.112051 5.1631 0.258989 5.31161C0.406103 5.46032 0.605961 5.54445 0.814968 5.54552C1.024 5.54675 1.22491 5.46472 1.37361 5.31761L3.95129 2.72142V18.1869L3.95111 18.1871C3.95429 18.4685 4.10616 18.7271 4.3503 18.867C4.59443 19.0067 4.89449 19.0067 5.13861 18.867C5.38274 18.7271 5.53479 18.4685 5.53779 18.1871V2.71843L8.10612 5.29295C8.30898 5.47834 8.59333 5.54555 8.85777 5.47023C9.12201 5.39491 9.3284 5.188 9.403 4.92342C9.47761 4.659 9.4097 4.37466 9.2236 4.17231L5.42983 0.387713V0.387889C5.35751 0.268294 5.25502 0.170217 5.13243 0.103537C5.00984 0.0366817 4.87172 0.00369854 4.73219 0.00792979L4.73222 0.00846208ZM14.1719 0.00846208C13.9626 0.0126956 13.7636 0.10001 13.6188 0.251183C13.4741 0.402357 13.3954 0.604856 13.4002 0.814251V16.2766L10.8225 13.6836C10.6553 13.5118 10.4191 13.4253 10.1804 13.4488C9.98111 13.4684 9.79677 13.5633 9.66483 13.7139C9.53288 13.8646 9.46321 14.06 9.47009 14.2602C9.47697 14.4605 9.56005 14.6504 9.70205 14.7917L13.5299 18.6412V18.6411C13.6733 18.8485 13.9074 18.9746 14.1594 18.9804C14.4274 18.993 14.6831 18.8686 14.8387 18.6501L18.6633 14.8253C18.8265 14.6709 18.9159 14.4543 18.9094 14.2297C18.9027 14.0052 18.8006 13.7942 18.6286 13.6497C18.4566 13.5053 18.2311 13.441 18.0089 13.4732C17.836 13.498 17.6764 13.5795 17.5548 13.7049L14.9771 16.2826V0.813926H14.9773C14.9822 0.598724 14.899 0.390927 14.7468 0.238891C14.5945 0.0866608 14.3867 0.00340407 14.1715 0.00833978L14.1719 0.00846208Z" fill="white"/>
</g>
<defs>
<clipPath id="clip0_947_1628">
<rect width="18.9323" height="19" fill="white"/>
</clipPath>
</defs>
</svg>
