<svg width="19" height="18" viewBox="0 0 19 18" fill="none" xmlns="http://www.w3.org/2000/svg">
<path d="M9.21387 18C4.24317 18 0.213867 13.9707 0.213867 9C0.213867 4.0293 4.24317 0 9.21387 0C14.1846 0 18.2139 4.0293 18.2139 9C18.2139 13.9707 14.1846 18 9.21387 18ZM9.21387 16.2C11.1234 16.2 12.9548 15.4414 14.305 14.0912C15.6553 12.7409 16.4139 10.9096 16.4139 9C16.4139 7.09044 15.6553 5.25909 14.305 3.90883C12.9548 2.55857 11.1234 1.8 9.21387 1.8C7.30431 1.8 5.47296 2.55857 4.1227 3.90883C2.77244 5.25909 2.01387 7.09044 2.01387 9C2.01387 10.9096 2.77244 12.7409 4.1227 14.0912C5.47296 15.4414 7.30431 16.2 9.21387 16.2ZM10.1139 9H13.7139V10.8H8.31387V4.5H10.1139V9Z" fill="#131313"/>
</svg>
