<svg width="357" height="212" viewBox="0 0 357 212" fill="none" xmlns="http://www.w3.org/2000/svg">
<rect width="357" height="212" fill="#EEEEEE"/>
<g clip-path="url(#clip0_44_35343)">
<rect x="-17" y="-593" width="391" height="6290" rx="23" fill="white"/>
<rect x="-17" y="-593" width="390" height="850" fill="#F1F5FB"/>
<path d="M325.315 127.591H10.1406" stroke="#263238" stroke-width="0.422485" stroke-linecap="round" stroke-linejoin="round"/>
<path d="M324.47 131.394H10.1406" stroke="#263238" stroke-width="0.422485" stroke-linecap="round" stroke-linejoin="round"/>
<path d="M319.656 135.733C321.8 135.733 323.539 131.172 323.539 125.546C323.539 119.921 321.8 115.36 319.656 115.36C317.512 115.36 315.773 119.921 315.773 125.546C315.773 131.172 317.512 135.733 319.656 135.733Z" fill="#92E3A9" stroke="#263238" stroke-width="0.422485" stroke-miterlimit="10"/>
<path d="M331.721 119.264C330.509 123.066 328.177 125.758 326.512 125.229C324.847 124.701 324.484 121.174 325.697 117.354C326.909 113.535 329.246 110.861 330.91 111.389C332.575 111.917 332.934 115.445 331.721 119.264Z" fill="#92E3A9" stroke="#263238" stroke-width="0.422485" stroke-miterlimit="10"/>
<path d="M303.225 142.311C299.271 141.639 296.301 139.7 296.592 137.98C296.884 136.261 300.327 135.407 304.277 136.079C308.227 136.751 311.202 138.686 310.91 140.405C310.619 142.125 307.175 142.978 303.225 142.311Z" fill="#92E3A9" stroke="#263238" stroke-width="0.422485" stroke-miterlimit="10"/>
<path d="M335.38 132.889C332.076 136.163 328.198 137.587 326.664 136.062C325.131 134.537 326.605 130.65 329.909 127.376C333.213 124.101 337.112 122.682 338.604 124.211C340.095 125.741 338.68 129.615 335.38 132.889Z" fill="#92E3A9" stroke="#263238" stroke-width="0.422485" stroke-miterlimit="10"/>
<path d="M312.625 123.907C315.819 128.554 316.77 133.426 314.738 134.816C312.705 136.206 308.493 133.582 305.299 128.947C302.105 124.313 301.155 119.433 303.187 118.039C305.219 116.644 309.452 119.277 312.625 123.907Z" fill="#92E3A9" stroke="#263238" stroke-width="0.422485" stroke-miterlimit="10"/>
<path d="M319.926 135.23L320.226 166.219" stroke="#263238" stroke-width="0.422485" stroke-miterlimit="10" stroke-linecap="round"/>
<path d="M319.562 121.761L319.926 135.23" stroke="#263238" stroke-width="0.422485" stroke-miterlimit="10" stroke-linecap="round"/>
<path d="M319.592 119.564L319.562 120.595" stroke="#263238" stroke-width="0.422485" stroke-miterlimit="10" stroke-linecap="round"/>
<path d="M314.738 134.156C316.963 138.757 318.266 143.749 318.574 148.85V168.018" stroke="#263238" stroke-width="0.422485" stroke-miterlimit="10" stroke-linecap="round"/>
<path d="M308.062 123.949C310.73 127.041 312.975 130.473 314.738 134.156" stroke="#263238" stroke-width="0.422485" stroke-miterlimit="10" stroke-linecap="round"/>
<path d="M305.967 121.727C305.967 121.727 306.389 122.094 307.027 122.8" stroke="#263238" stroke-width="0.422485" stroke-miterlimit="10" stroke-linecap="round"/>
<path d="M326.904 135.593C324.18 139.412 322.057 143.627 320.609 148.09" stroke="#263238" stroke-width="0.422485" stroke-miterlimit="10" stroke-linecap="round"/>
<path d="M331.374 130.46C329.728 132.028 328.231 133.746 326.904 135.593" stroke="#263238" stroke-width="0.422485" stroke-miterlimit="10" stroke-linecap="round"/>
<path d="M336.146 126.822C334.939 127.509 333.807 128.317 332.766 129.235" stroke="#263238" stroke-width="0.422485" stroke-miterlimit="10" stroke-linecap="round"/>
<path d="M326.741 124.283C324.591 131.043 321.705 141.06 320.357 149.742" stroke="#263238" stroke-width="0.422485" stroke-miterlimit="10" stroke-linecap="round"/>
<path d="M328.042 120.266C327.658 121.406 327.197 122.763 326.729 124.283" stroke="#263238" stroke-width="0.422485" stroke-miterlimit="10" stroke-linecap="round"/>
<path d="M329.398 116.379C329.398 116.379 329.022 117.418 328.414 119.193" stroke="#263238" stroke-width="0.422485" stroke-miterlimit="10" stroke-linecap="round"/>
<path d="M310.719 139.467C313.406 140.485 317.081 143.328 318.357 147.072" stroke="#263238" stroke-width="0.422485" stroke-miterlimit="10" stroke-linecap="round"/>
<path d="M305.742 138.457C307.443 138.541 309.12 138.881 310.719 139.467" stroke="#263238" stroke-width="0.422485" stroke-miterlimit="10" stroke-linecap="round"/>
<path d="M302.527 138.538C302.527 138.538 303.005 138.47 303.795 138.437" stroke="#263238" stroke-width="0.422485" stroke-miterlimit="10" stroke-linecap="round"/>
<path d="M310.979 157.203C307.345 158.893 303.796 158.994 303.065 157.414C302.335 155.834 304.671 153.189 308.304 151.5C311.938 149.81 315.486 149.712 316.222 151.293C316.957 152.873 314.612 155.509 310.979 157.203Z" fill="#92E3A9" stroke="#263238" stroke-width="0.422485" stroke-miterlimit="10"/>
<path d="M310.863 152.603C312.304 151.711 313.871 151.04 315.511 150.613C315.888 150.382 316.324 150.264 316.766 150.272C317.208 150.28 317.639 150.414 318.007 150.659C318.502 150.984 318.337 153.443 318.337 153.443V166.219" stroke="#263238" stroke-width="0.422485" stroke-miterlimit="10" stroke-linecap="round"/>
<path d="M308.262 154.499C308.262 154.499 308.617 154.17 309.25 153.696" stroke="#263238" stroke-width="0.422485" stroke-miterlimit="10" stroke-linecap="round"/>
<path d="M337.052 142.311C341.007 141.639 343.977 139.7 343.685 137.98C343.394 136.261 339.951 135.407 336 136.079C332.05 136.751 329.076 138.686 329.367 140.405C329.659 142.125 333.111 142.978 337.052 142.311Z" fill="#92E3A9" stroke="#263238" stroke-width="0.422485" stroke-miterlimit="10"/>
<path d="M329.652 139.421C329.172 139.598 328.702 139.804 328.246 140.038C326.644 140.879 325.304 142.146 324.374 143.698C323.444 145.25 322.959 147.029 322.973 148.838V165.738" stroke="#263238" stroke-width="0.422485" stroke-miterlimit="10" stroke-linecap="round"/>
<path d="M334.948 138.436C333.142 138.486 331.354 138.818 329.65 139.421" stroke="#263238" stroke-width="0.422485" stroke-miterlimit="10" stroke-linecap="round"/>
<path d="M337.759 138.537C337.759 138.537 337.446 138.491 336.914 138.457" stroke="#263238" stroke-width="0.422485" stroke-miterlimit="10" stroke-linecap="round"/>
<path d="M340.958 154.775C341.829 153.263 339.72 150.415 336.248 148.413C332.775 146.411 329.253 146.014 328.381 147.526C327.509 149.038 329.618 151.887 333.091 153.888C336.564 155.89 340.086 156.287 340.958 154.775Z" fill="#92E3A9" stroke="#263238" stroke-width="0.422485" stroke-miterlimit="10"/>
<path d="M333.931 149.561C332.504 148.451 330.911 147.571 329.212 146.954C329.212 146.954 324.902 146.244 323.918 149.028" stroke="#263238" stroke-width="0.422485" stroke-miterlimit="10" stroke-linecap="round"/>
<path d="M336.027 151.415C336.027 151.415 335.811 151.178 335.414 150.807" stroke="#263238" stroke-width="0.422485" stroke-miterlimit="10" stroke-linecap="round"/>
<path d="M324.572 149.184C324.572 149.184 319.502 148.2 319.502 151.643C319.502 155.086 323.106 157.866 324.572 161.782C326.038 165.699 328.83 165.876 330.305 161.947C331.779 158.018 329.65 150.827 324.572 149.184Z" fill="#92E3A9" stroke="#263238" stroke-width="0.422485" stroke-miterlimit="10"/>
<path d="M321.133 149.35C321.133 149.35 325.556 151.149 326.866 156.883L321.133 149.35Z" fill="#92E3A9"/>
<path d="M321.133 149.35C321.133 149.35 325.556 151.149 326.866 156.883" stroke="#263238" stroke-width="0.422485" stroke-miterlimit="10"/>
<path d="M321.463 156.882V166.219" stroke="#263238" stroke-width="0.422485" stroke-miterlimit="10" stroke-linecap="round"/>
<path d="M329.597 184.398C330.81 180.532 331.426 176.503 331.422 172.451C331.428 169.996 331.181 167.546 330.687 165.142H309.985C309.491 167.546 309.245 169.996 309.25 172.451C309.251 176.504 309.87 180.533 311.088 184.398H329.597Z" fill="#263238"/>
<path d="M309.477 168.572C309.418 169.134 309.376 169.704 309.342 170.262H331.366C331.332 169.687 331.29 169.117 331.231 168.572H309.477Z" fill="#7A7A7A"/>
<path d="M331.135 177.288C331.203 176.721 331.262 176.151 331.308 175.598H309.402C309.449 176.168 309.508 176.738 309.576 177.288H331.135Z" fill="#7A7A7A"/>
<path d="M311.95 172.543C311.959 172.721 311.915 172.898 311.823 173.051C311.73 173.203 311.595 173.325 311.433 173.399C311.271 173.474 311.09 173.498 310.915 173.469C310.739 173.44 310.576 173.359 310.446 173.237C310.317 173.114 310.227 172.956 310.189 172.782C310.15 172.608 310.165 172.426 310.231 172.26C310.297 172.095 310.411 171.953 310.558 171.852C310.706 171.752 310.88 171.699 311.058 171.698C311.288 171.694 311.51 171.78 311.677 171.938C311.844 172.096 311.942 172.314 311.95 172.543Z" fill="#8C8C8C"/>
<path d="M316.407 172.543C316.416 172.721 316.372 172.898 316.28 173.051C316.187 173.203 316.052 173.325 315.89 173.399C315.728 173.474 315.547 173.498 315.372 173.469C315.196 173.44 315.033 173.359 314.903 173.237C314.774 173.114 314.684 172.956 314.646 172.782C314.608 172.608 314.622 172.426 314.688 172.26C314.754 172.095 314.868 171.953 315.015 171.852C315.163 171.752 315.337 171.699 315.515 171.698C315.745 171.694 315.967 171.78 316.134 171.938C316.301 172.096 316.399 172.314 316.407 172.543Z" fill="#8C8C8C"/>
<path d="M320.86 172.543C320.869 172.721 320.825 172.898 320.733 173.051C320.641 173.203 320.505 173.325 320.343 173.399C320.181 173.474 320.001 173.498 319.825 173.469C319.649 173.44 319.486 173.359 319.356 173.237C319.227 173.114 319.137 172.956 319.099 172.782C319.061 172.608 319.075 172.426 319.141 172.26C319.207 172.095 319.321 171.953 319.469 171.852C319.616 171.752 319.79 171.699 319.968 171.698C320.198 171.694 320.421 171.78 320.587 171.938C320.754 172.096 320.852 172.314 320.86 172.543Z" fill="#8C8C8C"/>
<path d="M325.321 172.543C325.33 172.721 325.286 172.898 325.194 173.051C325.101 173.203 324.966 173.325 324.804 173.399C324.642 173.474 324.462 173.498 324.286 173.469C324.11 173.44 323.947 173.359 323.817 173.237C323.688 173.114 323.598 172.956 323.56 172.782C323.522 172.608 323.536 172.426 323.602 172.26C323.668 172.095 323.782 171.953 323.93 171.852C324.077 171.752 324.251 171.699 324.429 171.698C324.659 171.694 324.881 171.78 325.048 171.938C325.215 172.096 325.313 172.314 325.321 172.543Z" fill="#8C8C8C"/>
<path d="M329.778 172.543C329.787 172.721 329.743 172.898 329.651 173.051C329.558 173.203 329.423 173.325 329.261 173.399C329.099 173.474 328.919 173.498 328.743 173.469C328.567 173.44 328.404 173.359 328.274 173.237C328.145 173.114 328.055 172.956 328.017 172.782C327.979 172.608 327.993 172.426 328.059 172.26C328.125 172.095 328.239 171.953 328.387 171.852C328.534 171.752 328.708 171.699 328.886 171.698C329.116 171.694 329.339 171.78 329.505 171.938C329.672 172.096 329.77 172.314 329.778 172.543Z" fill="#8C8C8C"/>
<path d="M180.266 24.0273V102.61H209.016V24.0273H180.266ZM207.567 25.7722V37.3694H195.61V25.7722H207.567ZM193.815 25.7722V37.3694H181.715V25.7722H193.815ZM181.715 39.2115H193.815V50.72H181.715V39.2115ZM207.567 100.86H181.715V52.6972H207.567V100.86ZM195.61 50.72V39.2115H207.567V50.72H195.61Z" stroke="#263238" stroke-width="0.422485" stroke-linecap="round" stroke-linejoin="round"/>
<path d="M208.9 24.0273V102.61H237.651V24.0273H208.9ZM236.201 25.7722V37.3694H224.237V25.7722H236.201ZM222.45 25.7722V37.3694H210.35V25.7722H222.45ZM210.35 39.2115H222.45V50.72H210.35V39.2115ZM236.201 100.86H210.35V52.6972H236.201V100.86ZM224.237 50.72V39.2115H236.201V50.72H224.237Z" stroke="#263238" stroke-width="0.422485" stroke-linecap="round" stroke-linejoin="round"/>
<path d="M201.132 65.7561L193.916 73.7326" stroke="#263238" stroke-width="0.422485" stroke-linecap="round" stroke-linejoin="round"/>
<path d="M202.923 63.7793L201.773 65.0468" stroke="#263238" stroke-width="0.422485" stroke-linecap="round" stroke-linejoin="round"/>
<path d="M186.067 79.5498L184.588 81.0919" stroke="#263238" stroke-width="0.422485" stroke-linecap="round" stroke-linejoin="round"/>
<path d="M195.651 69.5498L187.172 78.3966" stroke="#263238" stroke-width="0.422485" stroke-linecap="round" stroke-linejoin="round"/>
<path d="M230.212 68.1934L222.996 76.1699" stroke="#263238" stroke-width="0.422485" stroke-linecap="round" stroke-linejoin="round"/>
<path d="M232.003 66.2119L230.854 67.4794" stroke="#263238" stroke-width="0.422485" stroke-linecap="round" stroke-linejoin="round"/>
<path d="M215.151 81.9834L213.672 83.5255" stroke="#263238" stroke-width="0.422485" stroke-linecap="round" stroke-linejoin="round"/>
<path d="M224.731 71.9834L216.252 80.8302" stroke="#263238" stroke-width="0.422485" stroke-linecap="round" stroke-linejoin="round"/>
<path d="M241.492 24.0273V102.61H270.221V24.0273H241.492ZM268.793 25.7722V37.3694H256.828V25.7722H268.793ZM255.041 25.7722V37.3694H242.929V25.7722H255.041ZM242.929 39.2115H255.029V50.72H242.929V39.2115ZM268.781 100.86H242.929V52.6972H268.781V100.86ZM256.828 50.72V39.2115H268.793V50.72H256.828Z" stroke="#263238" stroke-width="0.422485" stroke-linecap="round" stroke-linejoin="round"/>
<path d="M270.127 24.0273V102.61H298.856V24.0273H270.127ZM297.428 25.7722V37.3694H285.463V25.7722H297.428ZM283.676 25.7722V37.3694H271.576V25.7722H283.676ZM271.576 39.2115H283.676V50.72H271.576V39.2115ZM297.428 100.86H271.576V52.6972H297.428V100.86ZM285.463 50.72V39.2115H297.428V50.72H285.463Z" stroke="#263238" stroke-width="0.422485" stroke-linecap="round" stroke-linejoin="round"/>
<path d="M262.359 65.7561L255.143 73.7326" stroke="#263238" stroke-width="0.422485" stroke-linecap="round" stroke-linejoin="round"/>
<path d="M264.149 63.7793L263 65.0468" stroke="#263238" stroke-width="0.422485" stroke-linecap="round" stroke-linejoin="round"/>
<path d="M247.293 79.5498L245.814 81.0919" stroke="#263238" stroke-width="0.422485" stroke-linecap="round" stroke-linejoin="round"/>
<path d="M256.878 69.5498L248.398 78.3966" stroke="#263238" stroke-width="0.422485" stroke-linecap="round" stroke-linejoin="round"/>
<path d="M291.439 68.1934L284.223 76.1699" stroke="#263238" stroke-width="0.422485" stroke-linecap="round" stroke-linejoin="round"/>
<path d="M293.229 66.2119L292.08 67.4794" stroke="#263238" stroke-width="0.422485" stroke-linecap="round" stroke-linejoin="round"/>
<path d="M276.377 81.9834L274.898 83.5255" stroke="#263238" stroke-width="0.422485" stroke-linecap="round" stroke-linejoin="round"/>
<path d="M285.958 71.9834L277.479 80.8302" stroke="#263238" stroke-width="0.422485" stroke-linecap="round" stroke-linejoin="round"/>
<path d="M147.768 64.033C153.427 58.3738 153.427 49.1985 147.768 43.5393C142.109 37.8801 132.933 37.8801 127.274 43.5393C121.615 49.1985 121.615 58.3738 127.274 64.033C132.933 69.6922 142.109 69.6922 147.768 64.033Z" fill="#263238" stroke="#263238" stroke-width="0.422485" stroke-linejoin="round"/>
<path d="M147.692 62.2765C152.386 56.6577 151.637 48.297 146.019 43.6023C140.4 38.9076 132.039 39.6567 127.344 45.2755C122.65 50.8943 123.399 59.255 129.017 63.9497C134.636 68.6445 142.997 67.8953 147.692 62.2765Z" fill="white" stroke="#263238" stroke-width="0.422485" stroke-linejoin="round"/>
<path d="M138.754 53.7825C138.754 53.5385 138.682 53.3 138.547 53.0971C138.411 52.8942 138.218 52.7361 137.993 52.6427C137.767 52.5494 137.519 52.5249 137.28 52.5725C137.041 52.6201 136.821 52.7376 136.648 52.9102C136.476 53.0827 136.358 53.3025 136.311 53.5418C136.263 53.7811 136.288 54.0292 136.381 54.2546C136.474 54.48 136.633 54.6727 136.835 54.8082C137.038 54.9438 137.277 55.0161 137.521 55.0161C137.848 55.0161 138.162 54.8862 138.393 54.6548C138.624 54.4235 138.754 54.1097 138.754 53.7825Z" fill="#263238" stroke="#263238" stroke-width="0.422485" stroke-linejoin="round"/>
<path d="M138.531 54.6992L140.462 57.137" stroke="#263238" stroke-width="0.422485" stroke-linejoin="round"/>
<path d="M138.531 52.8744L144.015 45.0499" stroke="#263238" stroke-width="0.422485" stroke-linejoin="round"/>
<path d="M277.995 182.514L0 182.514" stroke="#263238" stroke-width="0.422485" stroke-linejoin="round"/>
<path d="M322.257 182.454H281.553" stroke="#263238" stroke-width="0.422485" stroke-linejoin="round"/>
<path d="M123.678 184.496H121.819L121.6 149.772H123.898L123.678 184.496Z" fill="white" stroke="#263238" stroke-width="0.422485" stroke-linejoin="round"/>
<path d="M121.608 151.242H123.889L123.898 149.772H121.6L121.608 151.242Z" fill="#263238" stroke="#263238" stroke-width="0.422485" stroke-miterlimit="10"/>
<path d="M126.462 184.495H124.599L124.379 149.771H126.681L126.462 184.495Z" fill="#263238" stroke="#263238" stroke-width="0.422485" stroke-miterlimit="10"/>
<path d="M159.126 184.496H157.267L157.047 149.772H159.345L159.126 184.496Z" fill="white" stroke="#263238" stroke-width="0.422485" stroke-linejoin="round"/>
<path d="M157.055 151.242H159.337L159.345 149.772H157.047L157.055 151.242Z" fill="#263238" stroke="#263238" stroke-width="0.422485" stroke-miterlimit="10"/>
<path d="M156.1 184.496H154.241L154.021 149.772H156.32L156.1 184.496Z" fill="#263238" stroke="#263238" stroke-width="0.422485" stroke-miterlimit="10"/>
<path d="M160.253 147.35H121.236L126.188 139.733H155.297L160.253 147.35Z" fill="white" stroke="#263238" stroke-width="0.422485" stroke-linejoin="round"/>
<path d="M160.304 147.35H121.236V149.927H160.304V147.35Z" fill="white" stroke="#263238" stroke-width="0.422485" stroke-linejoin="round"/>
<path d="M128.832 111.422H152.533C153.234 111.422 153.905 111.7 154.401 112.195C154.896 112.691 155.174 113.362 155.174 114.063V139.733H126.191V114.071C126.19 113.724 126.258 113.379 126.39 113.058C126.522 112.737 126.717 112.444 126.962 112.198C127.207 111.952 127.499 111.757 127.82 111.624C128.14 111.491 128.484 111.422 128.832 111.422Z" fill="white" stroke="#263238" stroke-width="0.422485" stroke-linejoin="round"/>
<path d="M255.27 184.496H253.411L253.191 149.771H255.49L255.27 184.496Z" fill="white" stroke="#263238" stroke-width="0.422485" stroke-linejoin="round"/>
<path d="M253.2 151.242H255.481L255.49 149.771H253.191L253.2 151.242Z" fill="#263238" stroke="#263238" stroke-width="0.422485" stroke-miterlimit="10"/>
<path d="M258.054 184.496H256.19L255.971 149.771H258.273L258.054 184.496Z" fill="#263238" stroke="#263238" stroke-width="0.422485" stroke-miterlimit="10"/>
<path d="M290.715 184.496H288.856L288.637 149.771H290.935L290.715 184.496Z" fill="white" stroke="#263238" stroke-width="0.422485" stroke-linejoin="round"/>
<path d="M288.645 151.242H290.927L290.935 149.771H288.637L288.645 151.242Z" fill="#263238" stroke="#263238" stroke-width="0.422485" stroke-miterlimit="10"/>
<path d="M287.692 184.496H285.833L285.613 149.771H287.912L287.692 184.496Z" fill="#263238" stroke="#263238" stroke-width="0.422485" stroke-miterlimit="10"/>
<path d="M291.845 147.35H252.828L257.78 139.732H286.889L291.845 147.35Z" fill="white" stroke="#263238" stroke-width="0.422485" stroke-linejoin="round"/>
<path d="M291.895 147.351H252.828V149.928H291.895V147.351Z" fill="white" stroke="#263238" stroke-width="0.422485" stroke-linejoin="round"/>
<path d="M260.424 111.422H284.125C284.825 111.422 285.497 111.7 285.992 112.195C286.488 112.69 286.766 113.362 286.766 114.062V139.733H257.783V114.071C257.782 113.723 257.85 113.379 257.982 113.058C258.114 112.736 258.308 112.444 258.554 112.198C258.799 111.952 259.09 111.757 259.411 111.624C259.732 111.49 260.076 111.422 260.424 111.422Z" fill="white" stroke="#263238" stroke-width="0.422485" stroke-linejoin="round"/>
<path d="M261.495 136.462C261.495 136.462 244.377 138.179 243.537 138.68C242.697 139.18 238.841 142.546 239.504 144.732C240.167 146.919 239.053 147.952 240.582 148.292C242.111 148.631 263.396 146.813 263.396 146.813" fill="#263238"/>
<path d="M261.495 136.462C261.495 136.462 244.377 138.179 243.537 138.68C242.697 139.18 238.841 142.546 239.504 144.732C240.167 146.919 239.053 147.952 240.582 148.291C242.111 148.631 263.396 146.813 263.396 146.813" stroke="#7D7D7D" stroke-width="0.521791" stroke-linecap="round" stroke-linejoin="round"/>
<path d="M258.236 177.49L255.565 171.161L251.187 171.991L254.537 177.637L252.606 181.503L248.432 184.232C248.432 184.232 247.946 184.712 250.034 184.55C252.121 184.389 256.452 184.55 256.452 184.55L259.181 181.341C259.181 181.341 260.172 179.708 258.236 177.49Z" fill="#8A4A43" stroke="#263238" stroke-width="0.521791" stroke-linecap="round" stroke-linejoin="round"/>
<path d="M259.406 180.256L259.516 184.394H258.864L257.992 182.327L259.406 180.256Z" fill="#263238" stroke="#263238" stroke-width="0.521791" stroke-linecap="round" stroke-linejoin="round"/>
<path d="M256.457 184.571L259.186 181.362C259.186 181.362 259.891 180.167 258.92 178.445C256.979 181.764 254.396 182.761 254.396 182.761L251.704 182.114L248.438 184.253C248.438 184.253 247.952 184.733 250.039 184.571C252.127 184.409 256.457 184.571 256.457 184.571Z" fill="#263238" stroke="#263238" stroke-width="0.521791" stroke-linecap="round" stroke-linejoin="round"/>
<path d="M247.744 145.239L256.693 172.293L250.343 173.421L237.82 145.244C237.82 145.244 236.813 141.038 239.5 139.697C242.187 138.356 250.092 137.678 250.092 137.678" fill="#263238"/>
<path d="M247.744 145.239L256.693 172.293L250.343 173.421L237.82 145.244C237.82 145.244 236.813 141.038 239.5 139.697C242.187 138.356 250.092 137.678 250.092 137.678" stroke="#7D7D7D" stroke-width="0.521791" stroke-linecap="round" stroke-linejoin="round"/>
<path d="M240.137 105.473L238.545 102.864C238.392 102.614 238.176 102.409 237.919 102.268C237.661 102.127 237.372 102.055 237.079 102.061L235.581 102.087L233.019 101.32C232.857 101.272 232.683 101.274 232.522 101.325C232.36 101.376 232.217 101.474 232.111 101.607L232.017 101.727L234.376 102.77L232.023 103.636L229.523 102.368C229.425 102.318 229.312 102.304 229.204 102.329C229.096 102.353 229 102.416 228.934 102.504C228.858 102.602 228.824 102.727 228.84 102.85C228.855 102.973 228.919 103.085 229.017 103.162L232.513 105.859C232.623 105.944 232.749 106.005 232.884 106.038C233.019 106.07 233.16 106.073 233.296 106.047L237.162 105.27L238.242 106.449L240.137 105.473Z" fill="#8A4A43" stroke="#263238" stroke-width="0.521791" stroke-linecap="round" stroke-linejoin="round"/>
<path d="M267.091 100.119L252.758 115.11L239.076 104.053L237.188 105.426L252.241 122.483L265.291 115.455L267.091 100.119Z" fill="#0070BA" stroke="#263238" stroke-width="0.521791" stroke-linecap="round" stroke-linejoin="round"/>
<path d="M288.868 104.108L292.569 125.975L285.546 127.117L282.499 113.54C282.499 113.54 286.786 105.176 288.868 104.108Z" fill="#0070BA" stroke="#263238" stroke-width="0.521791" stroke-linecap="round" stroke-linejoin="round"/>
<path d="M262.975 129.914H282.409L282.832 139.516C282.832 139.516 282.895 143.352 281.564 144.944C280.364 146.379 277.55 146.613 277.55 146.613H261.285V137.011L262.975 129.914Z" fill="#263238"/>
<path d="M261.707 141.744C262.052 144.144 263.038 146.82 263.038 146.82C263.038 146.82 270.982 146.82 276.072 146.82C279.029 146.82 279.452 146.602 281.353 145.546C284.119 143.72 282.345 129.727 282.345 129.727L263.038 129.522C263.038 129.522 262.264 132.749 261.588 136.463M261.707 141.744C261.583 140.88 261.207 138.55 261.588 136.463M261.707 141.744L261.588 136.463" stroke="#7D7D7D" stroke-width="0.521791" stroke-linecap="round" stroke-linejoin="round"/>
<path d="M280.363 99.9838L288.539 103.976L281.693 123.12L282.622 129.914H262.977L265.617 119.89L264.051 114.38C263.848 113.665 263.837 112.909 264.02 112.189L267.088 100.146L275.145 98.8516L280.363 99.9838Z" fill="#0070BA" stroke="#263238" stroke-width="0.521791" stroke-linecap="round" stroke-linejoin="round"/>
<path d="M279.97 98.8616C279.97 98.8616 281.577 99.9469 281.629 100.912C281.655 101.481 281.629 102.478 281.577 103.239C281.548 103.835 281.412 104.42 281.175 104.967L278.279 108.463L274.93 105.817L272.148 107.236C272.148 107.236 271.627 102.973 272.842 99.9991C274.058 97.0249 279.349 98.1154 279.97 98.8616Z" fill="white" stroke="#263238" stroke-width="0.521791" stroke-linecap="round" stroke-linejoin="round"/>
<path d="M282.271 90.5912C282.271 90.5912 281.614 92.9549 281.306 94.5203C280.998 96.0857 280.377 99.2164 280.434 100.39C280.492 101.564 275.55 106.563 274.929 105.817C274.308 105.071 273.656 100.735 273.656 100.735L274.272 93.722C274.272 93.722 280.711 86.5891 282.271 90.5912Z" fill="#8A4A43" stroke="#263238" stroke-width="0.521791" stroke-linecap="round" stroke-linejoin="round"/>
<path d="M271.944 86.9388C271.944 86.9388 271.062 88.3946 271.062 89.0259C271.062 89.6573 271.37 90.894 271.318 91.254C271.266 91.614 270.389 92.8194 270.274 93.2264C270.217 93.392 270.222 93.573 270.288 93.7353C270.354 93.8977 270.477 94.0303 270.634 94.1082C270.848 94.2173 271.055 94.3375 271.255 94.4682C271.255 94.4682 271.516 97.6825 271.934 98.5121C272.351 99.3418 272.711 99.707 273.953 99.8114C275.195 99.9157 278.153 98.6165 278.566 97.5781C278.978 96.5397 279.035 95.2979 279.087 93.7951C279.14 92.2924 278.101 90.1426 277.324 88.0919C276.546 86.0413 273.29 84.9142 271.944 86.9388Z" fill="#8A4A43" stroke="#263238" stroke-width="0.521791" stroke-linecap="round" stroke-linejoin="round"/>
<path d="M285.329 97.5522C287.528 97.5522 289.31 95.7698 289.31 93.571C289.31 91.3722 287.528 89.5897 285.329 89.5897C283.13 89.5897 281.348 91.3722 281.348 93.571C281.348 95.7698 283.13 97.5522 285.329 97.5522Z" fill="#263238" stroke="#263238" stroke-width="0.521791" stroke-linecap="round" stroke-linejoin="round"/>
<path d="M271.924 86.7148C271.924 86.7148 273.526 85.332 276.406 88.0818C279.286 90.8317 278.191 94.8077 280.116 95.6322C282.041 96.4566 285.605 92.3344 286.017 90.2786C286.43 88.2227 285.193 83.9597 281.347 83.1353C277.502 82.3108 272.79 82.8744 271.924 86.7148Z" fill="#263238" stroke="#263238" stroke-width="0.521791" stroke-linecap="round" stroke-linejoin="round"/>
<path d="M271.922 86.7144C271.888 86.391 271.928 86.0641 272.039 85.7586C272.15 85.453 272.33 85.1768 272.563 84.9509C272.797 84.7251 273.08 84.5555 273.389 84.4551C273.698 84.3547 274.026 84.3261 274.348 84.3716C276.957 84.5124 277.229 88.6294 278.601 90.2782C279.973 91.9271 280.662 91.6505 280.662 91.6505C280.662 91.6505 278.33 92.3341 276.816 91.5096C275.303 90.6852 274.573 86.0361 271.922 86.7144Z" fill="#263238" stroke="#263238" stroke-width="0.521791" stroke-linecap="round" stroke-linejoin="round"/>
<path d="M276.187 83.8916C277.56 84.7396 278.65 85.9764 279.318 87.445C280.503 89.9548 280.503 92.0263 283.315 91.8802C283.315 91.8802 281.984 92.1776 279.913 91.1393C277.841 90.1009 277.398 87.1476 276.067 85.9631C275.342 85.2761 274.402 84.8581 273.406 84.7786" stroke="white" stroke-width="0.260895" stroke-linecap="round" stroke-linejoin="round"/>
<path d="M286.017 90.2783C286.017 90.2783 285.897 94.0457 283.006 94.8388" stroke="white" stroke-width="0.260895" stroke-linecap="round" stroke-linejoin="round"/>
<path d="M277.951 94.1245C277.951 94.1245 280.706 90.5189 281.353 93.2114C282 95.9038 279.788 96.5613 278.744 96.2534C277.701 95.9455 277.847 95.3872 277.847 95.3872" fill="#8A4A43"/>
<path d="M277.951 94.1245C277.951 94.1245 280.706 90.5189 281.353 93.2114C282 95.9038 279.788 96.5613 278.744 96.2534C277.701 95.9455 277.847 95.3872 277.847 95.3872" stroke="#263238" stroke-width="0.521791" stroke-linecap="round" stroke-linejoin="round"/>
<path d="M263.645 180.256L263.754 184.394H263.102L262.23 182.327L263.645 180.256Z" fill="#263238" stroke="#263238" stroke-width="0.521791" stroke-linecap="round" stroke-linejoin="round"/>
<path d="M262.475 177.49L261.635 171.469L257.262 171.751L258.776 177.678L256.845 181.545L252.671 184.274C252.671 184.274 252.191 184.754 254.278 184.592C256.365 184.43 260.696 184.592 260.696 184.592L263.425 181.383C263.425 181.383 264.411 179.708 262.475 177.49Z" fill="#8A4A43" stroke="#263238" stroke-width="0.521791" stroke-linecap="round" stroke-linejoin="round"/>
<path d="M260.696 184.571L263.425 181.362C263.425 181.362 264.129 180.167 263.153 178.445C261.212 181.764 258.63 182.761 258.63 182.761L255.942 182.114L252.671 184.253C252.671 184.253 252.191 184.733 254.278 184.571C256.365 184.409 260.696 184.571 260.696 184.571Z" fill="#263238" stroke="#263238" stroke-width="0.521791" stroke-linecap="round" stroke-linejoin="round"/>
<path d="M260.471 140.579L262.344 172.576L256.411 172.717L250.619 143.648C250.619 143.648 250.855 139 252.624 138.364C254.393 137.727 278.818 136.04 278.818 136.04" fill="#263238"/>
<path d="M260.471 140.579L262.344 172.576L256.411 172.717L250.619 143.648C250.619 143.648 250.855 139 252.624 138.364C254.393 137.727 278.818 136.04 278.818 136.04" stroke="#7D7D7D" stroke-width="0.521791" stroke-linecap="round" stroke-linejoin="round"/>
<path d="M291.31 123.19C291.478 123.394 292.485 125.443 292.543 125.701C292.6 125.959 292.596 126.227 292.53 126.484C292.465 126.74 292.34 126.977 292.165 127.176C291.99 127.375 291.771 127.529 291.526 127.627L270.264 135.868L269.308 132.948L284.832 124.041" fill="#0070BA"/>
<path d="M291.31 123.19C291.478 123.394 292.485 125.443 292.543 125.701C292.6 125.959 292.596 126.227 292.53 126.484C292.465 126.74 292.34 126.977 292.165 127.176C291.99 127.375 291.771 127.529 291.526 127.627L270.264 135.868L269.308 132.948L284.832 124.041" stroke="#263238" stroke-width="0.521791" stroke-linecap="round" stroke-linejoin="round"/>
<path d="M269.714 132.363C269.714 132.363 264.825 134.435 263.979 134.663C263.132 134.891 261.738 138.141 261.738 138.141L271.049 135.635L269.714 132.363Z" fill="#8A4A43" stroke="#263238" stroke-width="0.521791" stroke-linecap="round" stroke-linejoin="round"/>
<rect width="3.33656" height="7.18225" transform="matrix(-1 0 0 1 264.453 139.372)" fill="#263238"/>
<path d="M189.504 184.495H187.645L187.426 149.771H189.724L189.504 184.495Z" fill="white" stroke="#263238" stroke-width="0.422485" stroke-linejoin="round"/>
<path d="M187.434 151.241H189.716L189.724 149.771H187.426L187.434 151.241Z" fill="#263238" stroke="#263238" stroke-width="0.422485" stroke-miterlimit="10"/>
<path d="M192.286 184.495H190.423L190.203 149.771H192.501L192.286 184.495Z" fill="#263238" stroke="#263238" stroke-width="0.422485" stroke-miterlimit="10"/>
<path d="M224.95 184.495H223.091L222.871 149.771H225.169L224.95 184.495Z" fill="white" stroke="#263238" stroke-width="0.422485" stroke-linejoin="round"/>
<path d="M222.88 151.241H225.161L225.169 149.771H222.871L222.88 151.241Z" fill="#263238" stroke="#263238" stroke-width="0.422485" stroke-miterlimit="10"/>
<path d="M221.926 184.495H220.067L219.848 149.771H222.146L221.926 184.495Z" fill="#263238" stroke="#263238" stroke-width="0.422485" stroke-miterlimit="10"/>
<path d="M226.079 147.351H187.062L192.018 139.733H221.123L226.079 147.351Z" fill="white" stroke="#263238" stroke-width="0.422485" stroke-linejoin="round"/>
<path d="M226.13 147.35H187.062V149.928H226.13V147.35Z" fill="white" stroke="#263238" stroke-width="0.422485" stroke-linejoin="round"/>
<path d="M194.658 111.422H218.36C219.06 111.422 219.731 111.7 220.227 112.195C220.722 112.69 221 113.362 221 114.062V139.732H192.018V114.071C192.016 113.723 192.084 113.379 192.216 113.058C192.348 112.736 192.543 112.444 192.788 112.198C193.033 111.952 193.325 111.757 193.646 111.624C193.967 111.49 194.311 111.422 194.658 111.422Z" fill="white" stroke="#263238" stroke-width="0.422485" stroke-linejoin="round"/>
<path d="M196.875 177.744C196.2 178.795 195.585 179.884 195.033 181.005C194.661 181.926 192.076 184.326 191.463 185.496C190.85 186.667 191.645 187.651 194.539 187.959C197.433 188.268 198.476 186.295 199.152 185.424C199.828 184.554 199.832 183.312 200.631 182.78C201.429 182.247 202.967 180.752 203.09 179.273C203.174 178.424 203.112 177.567 202.908 176.738L196.875 177.744Z" fill="white" stroke="#263238" stroke-width="0.422485" stroke-miterlimit="10"/>
<path d="M203.09 179.281C203.148 178.624 203.125 177.961 203.023 177.308C202.918 177.777 202.839 178.251 202.786 178.728C202.537 180.883 199.956 181.685 199.406 182.911C198.857 184.136 198.05 186.603 195.773 187.097C194.083 187.461 192.182 186.519 191.295 185.999C191.134 186.941 192.076 187.689 194.544 187.959C197.438 188.264 198.481 186.295 199.157 185.424C199.833 184.554 199.837 183.312 200.636 182.78C201.434 182.247 202.968 180.76 203.09 179.281Z" fill="white" stroke="#263238" stroke-width="0.422485" stroke-miterlimit="10"/>
<path d="M217.388 177.744C218.064 178.795 218.681 179.884 219.234 181.005C219.602 181.926 222.192 184.326 222.804 185.496C223.417 186.667 222.618 187.651 219.724 187.959C216.83 188.268 215.787 186.295 215.111 185.424C214.435 184.554 214.435 183.312 213.636 182.78C212.838 182.247 211.296 180.752 211.173 179.273C211.092 178.424 211.155 177.567 211.359 176.738L217.388 177.744Z" fill="white" stroke="#263238" stroke-width="0.422485" stroke-miterlimit="10"/>
<path d="M211.172 179.281C211.117 178.623 211.139 177.961 211.24 177.308C211.348 177.776 211.428 178.25 211.48 178.728C211.725 180.883 214.311 181.685 214.86 182.911C215.41 184.136 216.212 186.603 218.489 187.097C220.179 187.461 222.085 186.519 222.972 185.999C223.128 186.941 222.186 187.689 219.719 187.959C216.829 188.264 215.781 186.295 215.105 185.424C214.429 184.554 214.429 183.312 213.631 182.78C212.832 182.247 211.295 180.76 211.172 179.281Z" fill="white" stroke="#263238" stroke-width="0.422485" stroke-miterlimit="10"/>
<path d="M226.763 146.915C226.763 144.824 220.996 136.86 220.996 136.86L218.904 131.93L208.258 132.931H205.811L195.165 131.93L193.074 136.86C193.074 136.86 187.307 144.824 187.307 146.915C187.307 149.006 187.556 149.674 187.556 149.674L196.851 175.023L196.099 176.776L196.432 178.116C196.432 178.116 197.603 179.117 199.859 179.117C201.18 179.128 202.46 178.653 203.454 177.782C203.454 177.782 203.703 175.023 203.703 174.018C203.703 173.012 201.865 168.166 201.865 167.165C201.865 166.164 200.108 147.832 200.108 147.832L206.627 143.223H207.442L213.974 147.84C213.974 147.84 212.216 166.151 212.216 167.152C212.216 168.153 210.379 173.004 210.379 174.005C210.379 175.006 210.628 177.769 210.628 177.769C211.622 178.641 212.901 179.116 214.223 179.104C216.479 179.104 217.65 178.103 217.65 178.103L217.988 176.764L217.231 175.01L226.526 149.661C226.526 149.661 226.763 149.002 226.763 146.915Z" fill="#263238" stroke="#263238" stroke-width="0.422485" stroke-miterlimit="10"/>
<path d="M208.135 142.128C208.135 142.128 211.477 137.113 215.575 135.689" stroke="#7D7D7D" stroke-width="0.422485" stroke-miterlimit="10"/>
<path d="M211.717 138.951C211.717 138.951 214.809 136.526 217.817 136.192" stroke="#7D7D7D" stroke-width="0.422485" stroke-miterlimit="10"/>
<path d="M201.184 137.363C201.184 137.363 203.942 139.37 205.193 141.457" stroke="#7D7D7D" stroke-width="0.422485" stroke-miterlimit="10"/>
<path d="M200.953 100.247L190.754 104.092L192.925 122.732C192.925 122.732 193.678 132.094 194.43 132.449C195.182 132.804 204.962 134.371 206.8 134.287C208.638 134.202 218.418 133.953 219.508 132.195C220.598 130.438 223.602 104.861 223.518 104.193C223.433 103.525 210.729 99.0936 210.729 99.0936L200.953 100.247Z" fill="#92E3A9" stroke="#263238" stroke-width="0.422485" stroke-linejoin="round"/>
<path d="M203.108 107.184L206.201 110.864L209.627 107.269C209.627 107.269 211.883 101.248 211.799 100.581C211.714 99.9134 210.13 98.7431 210.13 98.7431L204.359 98.5741L200.35 100.416L203.108 107.184Z" fill="white" stroke="#263238" stroke-width="0.422485" stroke-linejoin="round"/>
<path d="M202.272 97.5941L200.109 99.9981L203.122 107.18L206.045 104.257L209.641 107.265C209.641 107.265 211.394 103.171 211.812 102.081C212.085 101.244 212.227 100.371 212.235 99.4911L209.962 97.1716L202.272 97.5941Z" fill="white" stroke="#263238" stroke-width="0.422485" stroke-linejoin="round"/>
<path d="M201.434 96.487L201.852 99.2458L206.03 104.261L210.711 99.0768L210.961 95.9843L205.781 98.4938L201.434 96.487Z" fill="white" stroke="#263238" stroke-width="0.422485" stroke-linejoin="round"/>
<path d="M199.009 88.211C199.009 88.211 198.164 88.3758 198.257 89.7995C198.35 91.2233 200.429 92.8921 200.429 92.8921L199.761 87.7927L199.009 88.211Z" fill="white" stroke="#263238" stroke-width="0.422485" stroke-linejoin="round"/>
<path d="M199.597 87.1253C199.597 87.1253 200.349 95.4821 200.864 96.3186C201.38 97.1551 204.375 100.417 205.714 100.581C206.424 100.67 211.063 97.4889 211.397 96.1538C211.73 94.8188 212.153 92.2247 212.153 92.2247C212.153 92.2247 213.154 92.305 213.737 89.9644C214.32 87.6239 213.403 87.2056 212.985 87.2056H212.318C212.318 87.2056 212.153 83.7793 211.895 83.1117C211.637 82.4442 200.526 84.0327 199.525 84.865C198.523 85.6973 199.597 87.1253 199.597 87.1253Z" fill="white" stroke="#263238" stroke-width="0.422485" stroke-linejoin="round"/>
<path d="M208.916 92.0554C208.916 92.4483 208.747 92.7651 208.54 92.7651C208.333 92.7651 208.164 92.4483 208.164 92.0554C208.164 91.6624 208.333 91.3456 208.54 91.3456C208.747 91.3456 208.916 91.6793 208.916 92.0554Z" fill="#263238"/>
<path d="M203.231 91.8486C203.231 92.2373 203.062 92.5584 202.855 92.5584C202.648 92.5584 202.479 92.2373 202.479 91.8486C202.479 91.46 202.648 91.1346 202.855 91.1346C203.062 91.1346 203.231 91.4557 203.231 91.8486Z" fill="#263238"/>
<path d="M204.861 94.3114C204.861 94.3114 204.776 95.0634 205.283 95.3169C205.453 95.3876 205.638 95.4163 205.822 95.4006C206.006 95.3849 206.183 95.3252 206.339 95.2266C206.494 95.128 206.624 94.9934 206.717 94.8341C206.81 94.6748 206.863 94.4955 206.872 94.3114" stroke="#263238" stroke-width="0.422485" stroke-linejoin="round"/>
<path d="M205.109 96.9061H206.28" stroke="#263238" stroke-width="0.422485" stroke-linejoin="round"/>
<path d="M201.102 90.1327H203.945" stroke="#263238" stroke-width="0.84497" stroke-linecap="round" stroke-linejoin="round"/>
<path d="M206.869 89.8837C206.869 89.8837 208.707 88.7937 209.712 89.8837" stroke="#263238" stroke-width="0.84497" stroke-linecap="round" stroke-linejoin="round"/>
<path d="M201.6 92.6425L203.023 92.9762" stroke="#263238" stroke-width="0.422485" stroke-linejoin="round"/>
<path d="M209.876 92.4735L208.287 93.2255" stroke="#263238" stroke-width="0.422485" stroke-linejoin="round"/>
<path d="M212.385 79.9345C211.823 78.8783 206.365 76.5927 203.09 78.4305C203.09 78.4305 198.827 79.9345 197.404 83.3609C196.293 86.0437 196.724 87.3407 198.604 87.6575L199.998 91.6374L199.829 90.4671L199.626 87.7378C199.896 87.7378 200.184 87.7378 200.496 87.7082C203.927 87.459 206.935 86.707 208.439 86.0183C209.281 85.6666 210.047 85.1559 210.695 84.5143C210.651 85.322 210.651 86.1316 210.695 86.9393C210.78 87.6068 211.701 88.3589 211.701 88.3589L211.781 90.9529L212.284 90.8684L212.617 87.9448L213.04 86.7746C213.348 87.2013 214.088 83.1327 212.385 79.9345Z" fill="#263238" stroke="#263238" stroke-width="0.422485" stroke-linejoin="round"/>
<path d="M215.98 111.367L219.407 115.63" stroke="#263238" stroke-width="0.422485" stroke-linejoin="round"/>
<path d="M218.487 110.197L219.826 120.057L206.953 121.98L207.038 127.164L209.125 127.333C210.1 128.045 211.264 128.452 212.471 128.503C214.309 128.503 223.755 127.333 225.424 126.914C227.093 126.496 228.103 126.069 228.268 124.489C228.432 122.909 224.841 106.183 224.592 105.097C224.343 104.011 220.245 102.757 220.245 102.757" fill="#92E3A9"/>
<path d="M218.487 110.197L219.826 120.057L206.953 121.98L207.038 127.164L209.125 127.333C210.1 128.045 211.264 128.452 212.471 128.503C214.309 128.503 223.755 127.333 225.424 126.914C227.093 126.496 228.103 126.069 228.268 124.489C228.432 122.909 224.841 106.183 224.592 105.097C224.343 104.011 220.245 102.757 220.245 102.757" stroke="#263238" stroke-width="0.422485" stroke-linejoin="round"/>
<path d="M223.671 120.979C222.251 119.973 219.826 120.058 219.826 120.058C219.826 120.058 221.913 119.141 223.586 119.724" stroke="#263238" stroke-width="0.422485" stroke-linejoin="round"/>
<path d="M209.125 122.064L209.294 126.914" stroke="#263238" stroke-width="0.422485" stroke-linejoin="round"/>
<path d="M206.954 121.98L202.775 121.731L197.676 119.222L196.755 119.724C196.755 119.724 194.833 123.32 195.251 123.569C195.669 123.818 196.252 124.574 196.586 124.574C196.92 124.574 197.676 123.987 197.676 123.987C197.676 123.987 199.679 125.994 200.933 125.994C201.712 125.986 202.481 125.815 203.189 125.491L207.119 125.994L206.954 121.98Z" fill="white" stroke="#263238" stroke-width="0.422485" stroke-linejoin="round"/>
<path d="M197.675 123.987L196.585 123.07L196.336 123.488" stroke="#263238" stroke-width="0.422485" stroke-linejoin="round"/>
<path d="M204.86 121.561H203.689V125.824H204.86V121.561Z" fill="#263238" stroke="#263238" stroke-width="0.422485" stroke-miterlimit="10"/>
<path d="M204.278 122.567C204.924 122.567 205.448 122.268 205.448 121.9C205.448 121.531 204.924 121.232 204.278 121.232C203.631 121.232 203.107 121.531 203.107 121.9C203.107 122.268 203.631 122.567 204.278 122.567Z" fill="white" stroke="#263238" stroke-width="0.422485" stroke-linejoin="round"/>
<path d="M190.733 104.092C190.733 104.092 186.555 127.497 186.555 128.921C186.555 130.345 192.655 136.462 192.655 136.462L195.414 133.788L193.576 125.761L190.733 104.092Z" fill="#92E3A9" stroke="#263238" stroke-width="0.422485" stroke-linejoin="round"/>
<path d="M189.066 126.662C189.066 126.662 191.487 125.327 193.245 125.576" stroke="#263238" stroke-width="0.422485" stroke-linejoin="round"/>
<path d="M187.895 126.496C187.895 126.496 189.982 124.807 191.57 124.807" stroke="#263238" stroke-width="0.422485" stroke-linejoin="round"/>
<path d="M191.404 135.195C191.404 135.195 191.32 132.686 195.08 132.601" stroke="#263238" stroke-width="0.422485" stroke-linejoin="round"/>
<path d="M195.415 133.768L199.07 134.976C199.398 135.582 199.681 136.212 199.915 136.86C200.215 137.769 200.671 138.673 200.671 138.901C200.671 139.129 200.595 139.429 200.291 139.429C199.986 139.429 198.706 138.297 198.706 138.297L197.954 137.916C197.954 137.916 198.934 139.277 199.158 139.353C199.549 139.555 199.927 139.781 200.291 140.029C200.291 140.029 202.255 139.125 202.255 139.881C202.255 140.637 199.386 142.293 199.386 142.293C199.386 142.293 196.97 141.841 196.518 141.541C196.066 141.241 192.656 136.463 192.656 136.463L195.415 133.768Z" fill="white" stroke="#263238" stroke-width="0.422485" stroke-linejoin="round"/>
<path d="M94.9148 27.0391H26.1934V182.302H94.9148V27.0391Z" fill="white" stroke="#263238" stroke-width="0.422485" stroke-linejoin="round"/>
<path d="M59.2772 31.708H29.1582V64.6534H59.2772V31.708Z" fill="white" stroke="#263238" stroke-width="0.422485" stroke-linejoin="round"/>
<path d="M55.6906 35.6367H32.7539V60.7239H55.6906V35.6367Z" fill="white" stroke="#263238" stroke-width="0.422485" stroke-linejoin="round"/>
<path d="M32.7536 35.6371L29.1582 31.708" stroke="#263238" stroke-width="0.422485" stroke-linejoin="round"/>
<path d="M32.7536 60.7236L29.1582 64.6527" stroke="#263238" stroke-width="0.422485" stroke-linejoin="round"/>
<path d="M55.6875 35.6371L59.2828 31.708" stroke="#263238" stroke-width="0.422485" stroke-linejoin="round"/>
<path d="M55.6875 60.7236L59.2828 64.6527" stroke="#263238" stroke-width="0.422485" stroke-linejoin="round"/>
<path d="M91.8182 31.708H61.6992V64.6534H91.8182V31.708Z" fill="white" stroke="#263238" stroke-width="0.422485" stroke-linejoin="round"/>
<path d="M88.2258 35.6367H65.2891V60.7239H88.2258V35.6367Z" fill="white" stroke="#263238" stroke-width="0.422485" stroke-linejoin="round"/>
<path d="M65.2903 35.6371L61.6992 31.708" stroke="#263238" stroke-width="0.422485" stroke-linejoin="round"/>
<path d="M65.2903 60.7236L61.6992 64.6527" stroke="#263238" stroke-width="0.422485" stroke-linejoin="round"/>
<path d="M88.2266 35.6361L91.8177 31.707" stroke="#263238" stroke-width="0.422485" stroke-linejoin="round"/>
<path d="M88.2266 60.7236L91.8177 64.6527" stroke="#263238" stroke-width="0.422485" stroke-linejoin="round"/>
<path d="M59.2772 68.0459H29.1582V100.991H59.2772V68.0459Z" fill="white" stroke="#263238" stroke-width="0.422485" stroke-linejoin="round"/>
<path d="M55.6906 71.9746H32.7539V97.0618H55.6906V71.9746Z" fill="white" stroke="#263238" stroke-width="0.422485" stroke-linejoin="round"/>
<path d="M32.7536 71.975L29.1582 68.0459" stroke="#263238" stroke-width="0.422485" stroke-linejoin="round"/>
<path d="M32.7536 97.0664L29.1582 100.996" stroke="#263238" stroke-width="0.422485" stroke-linejoin="round"/>
<path d="M55.6875 71.975L59.2828 68.0459" stroke="#263238" stroke-width="0.422485" stroke-linejoin="round"/>
<path d="M55.6875 97.0664L59.2828 100.996" stroke="#263238" stroke-width="0.422485" stroke-linejoin="round"/>
<path d="M91.8182 68.0459H61.6992V100.991H91.8182V68.0459Z" fill="white" stroke="#263238" stroke-width="0.422485" stroke-linejoin="round"/>
<path d="M88.2258 71.9746H65.2891V97.0618H88.2258V71.9746Z" fill="white" stroke="#263238" stroke-width="0.422485" stroke-linejoin="round"/>
<path d="M65.2903 71.975L61.6992 68.0459" stroke="#263238" stroke-width="0.422485" stroke-linejoin="round"/>
<path d="M65.2903 97.0664L61.6992 100.996" stroke="#263238" stroke-width="0.422485" stroke-linejoin="round"/>
<path d="M88.2266 71.975L91.8177 68.0459" stroke="#263238" stroke-width="0.422485" stroke-linejoin="round"/>
<path d="M88.2266 97.0664L91.8177 100.996" stroke="#263238" stroke-width="0.422485" stroke-linejoin="round"/>
<path d="M59.2772 108.207H29.1582V141.152H59.2772V108.207Z" fill="white" stroke="#263238" stroke-width="0.422485" stroke-linejoin="round"/>
<path d="M55.6906 112.136H32.7539V137.223H55.6906V112.136Z" fill="white" stroke="#263238" stroke-width="0.422485" stroke-linejoin="round"/>
<path d="M32.7536 112.136L29.1582 108.207" stroke="#263238" stroke-width="0.422485" stroke-linejoin="round"/>
<path d="M32.7536 137.224L29.1582 141.153" stroke="#263238" stroke-width="0.422485" stroke-linejoin="round"/>
<path d="M55.6875 112.136L59.2828 108.207" stroke="#263238" stroke-width="0.422485" stroke-linejoin="round"/>
<path d="M55.6875 137.224L59.2828 141.153" stroke="#263238" stroke-width="0.422485" stroke-linejoin="round"/>
<path d="M91.8182 108.207H61.6992V141.152H91.8182V108.207Z" fill="white" stroke="#263238" stroke-width="0.422485" stroke-linejoin="round"/>
<path d="M88.2258 112.136H65.2891V137.223H88.2258V112.136Z" fill="white" stroke="#263238" stroke-width="0.422485" stroke-linejoin="round"/>
<path d="M65.2903 112.136L61.6992 108.207" stroke="#263238" stroke-width="0.422485" stroke-linejoin="round"/>
<path d="M65.2903 137.224L61.6992 141.153" stroke="#263238" stroke-width="0.422485" stroke-linejoin="round"/>
<path d="M88.2266 112.136L91.8177 108.207" stroke="#263238" stroke-width="0.422485" stroke-linejoin="round"/>
<path d="M88.2266 137.223L91.8177 141.152" stroke="#263238" stroke-width="0.422485" stroke-linejoin="round"/>
<path d="M59.2772 144.549H29.1582V177.494H59.2772V144.549Z" fill="white" stroke="#263238" stroke-width="0.422485" stroke-linejoin="round"/>
<path d="M55.6906 148.479H32.7539V173.566H55.6906V148.479Z" fill="white" stroke="#263238" stroke-width="0.422485" stroke-linejoin="round"/>
<path d="M32.7536 148.478L29.1582 144.549" stroke="#263238" stroke-width="0.422485" stroke-linejoin="round"/>
<path d="M32.7536 173.565L29.1582 177.495" stroke="#263238" stroke-width="0.422485" stroke-linejoin="round"/>
<path d="M55.6875 148.478L59.2828 144.549" stroke="#263238" stroke-width="0.422485" stroke-linejoin="round"/>
<path d="M55.6875 173.565L59.2828 177.495" stroke="#263238" stroke-width="0.422485" stroke-linejoin="round"/>
<path d="M91.8182 144.549H61.6992V177.494H91.8182V144.549Z" fill="white" stroke="#263238" stroke-width="0.422485" stroke-linejoin="round"/>
<path d="M88.2258 148.479H65.2891V173.566H88.2258V148.479Z" fill="white" stroke="#263238" stroke-width="0.422485" stroke-linejoin="round"/>
<path d="M65.2903 148.478L61.6992 144.549" stroke="#263238" stroke-width="0.422485" stroke-linejoin="round"/>
<path d="M65.2903 173.565L61.6992 177.495" stroke="#263238" stroke-width="0.422485" stroke-linejoin="round"/>
<path d="M88.2266 148.478L91.8177 144.549" stroke="#263238" stroke-width="0.422485" stroke-linejoin="round"/>
<path d="M88.2266 173.565L91.8177 177.495" stroke="#263238" stroke-width="0.422485" stroke-linejoin="round"/>
<path d="M90.1849 107.594C91.88 107.318 93.0305 105.721 92.7548 104.026C92.479 102.331 90.8814 101.18 89.1863 101.456C87.4913 101.732 86.3407 103.329 86.6165 105.024C86.8922 106.719 88.4899 107.87 90.1849 107.594Z" fill="white" stroke="#263238" stroke-width="0.422485" stroke-linejoin="round"/>
<path d="M90.8134 104.527C90.8133 104.303 90.7468 104.084 90.6222 103.897C90.4976 103.711 90.3205 103.566 90.1134 103.48C89.9063 103.395 89.6784 103.373 89.4586 103.417C89.2389 103.461 89.0371 103.569 88.879 103.728C88.7208 103.886 88.6133 104.089 88.5701 104.308C88.5269 104.528 88.5499 104.756 88.6362 104.963C88.7226 105.17 88.8684 105.346 89.0551 105.47C89.2419 105.594 89.4612 105.66 89.6853 105.659C89.9849 105.658 90.2718 105.538 90.4832 105.326C90.6946 105.114 90.8134 104.826 90.8134 104.527Z" fill="white" stroke="#263238" stroke-width="0.422485" stroke-linejoin="round"/>
</g>
<defs>
<clipPath id="clip0_44_35343">
<rect x="-17" y="-593" width="391" height="6290" rx="23" fill="white"/>
</clipPath>
</defs>
</svg>
