<svg width="17" height="20" viewBox="0 0 17 20" fill="none" xmlns="http://www.w3.org/2000/svg">
<path d="M15.6849 3.08299H11.8242V2.43955C11.8242 1.37529 10.9581 0.509216 9.89386 0.509216H7.32008C6.25582 0.509216 5.38974 1.37529 5.38974 2.43955V3.08299H1.52908C0.819412 3.08299 0.242188 3.66022 0.242188 4.36988V5.65677C0.242188 6.36644 0.819412 6.94366 1.52908 6.94366H2.20469L2.75291 17.6616C2.80634 18.6873 3.65314 19.491 4.68067 19.491H12.534C13.5609 19.491 14.4077 18.6873 14.4618 17.661L15.01 6.94381H15.6856C16.3953 6.94381 16.9725 6.36658 16.9725 5.65692V4.37003C16.9725 3.66037 16.3953 3.08314 15.6856 3.08314L15.6849 3.08299ZM6.67663 2.43955C6.67663 2.08508 6.96561 1.79611 7.32008 1.79611H9.89386C10.2483 1.79611 10.5373 2.08508 10.5373 2.43955V3.08299H6.67663V2.43955ZM13.1762 17.5947C13.1582 17.9364 12.8763 18.2041 12.5333 18.2041H4.68034C4.33808 18.2041 4.05557 17.9364 4.03748 17.5954L3.49243 6.94363H13.7206L13.1756 17.5947L13.1762 17.5947ZM15.685 4.36988V5.65677H1.52922V4.36988H15.685ZM6.03334 15.6302V9.83916C6.03334 9.48397 6.32159 9.19572 6.67678 9.19572C7.03197 9.19572 7.32022 9.48397 7.32022 9.83916V15.6302C7.32022 15.9854 7.03197 16.2736 6.67678 16.2736C6.32159 16.2736 6.03334 15.9854 6.03334 15.6302ZM9.894 15.6302V9.83916C9.894 9.48397 10.1823 9.19572 10.5374 9.19572C10.8926 9.19572 11.1809 9.48397 11.1809 9.83916V15.6302C11.1809 15.9854 10.8926 16.2736 10.5374 16.2736C10.1823 16.2736 9.894 15.9854 9.894 15.6302Z" fill="#FF0000"/>
</svg>
