<svg width="20" height="20" viewBox="0 0 20 20" fill="none" xmlns="http://www.w3.org/2000/svg">
<path d="M5.03496 0.508462C4.76137 0.509168 4.50788 0.651521 4.365 0.884714L0.568072 4.697V4.69717C0.419369 4.84411 0.335232 5.04414 0.333995 5.25315C0.332936 5.46218 0.414786 5.6631 0.561724 5.81161C0.708838 5.96032 0.908695 6.04445 1.1177 6.04552C1.32673 6.04675 1.52765 5.96472 1.67635 5.81761L4.25402 3.22142V18.6869L4.25385 18.6871C4.25702 18.9685 4.4089 19.2271 4.65303 19.367C4.89716 19.5067 5.19722 19.5067 5.44134 19.367C5.68547 19.2271 5.83753 18.9685 5.84053 18.6871V3.21843L8.40886 5.79295C8.61171 5.97834 8.89606 6.04555 9.1605 5.97023C9.42475 5.89491 9.63113 5.688 9.70573 5.42342C9.78035 5.159 9.71244 4.87466 9.52634 4.67231L5.73257 0.887713V0.887889C5.66024 0.768294 5.55776 0.670217 5.43517 0.603537C5.31257 0.536682 5.17445 0.503699 5.03492 0.50793L5.03496 0.508462ZM14.4747 0.508462C14.2653 0.512696 14.0663 0.60001 13.9215 0.751183C13.7768 0.902357 13.6982 1.10486 13.7029 1.31425V16.7766L11.1253 14.1836C10.958 14.0118 10.7218 13.9253 10.4832 13.9488C10.2838 13.9684 10.0995 14.0633 9.96756 14.2139C9.83562 14.3646 9.76594 14.56 9.77282 14.7602C9.7797 14.9605 9.86278 15.1504 10.0048 15.2917L13.8326 19.1412V19.1411C13.976 19.3485 14.2101 19.4746 14.4621 19.4804C14.7301 19.493 14.9859 19.3686 15.1414 19.1501L18.9661 15.3253C19.1292 15.1709 19.2187 14.9543 19.2121 14.7297C19.2054 14.5052 19.1033 14.2942 18.9313 14.1497C18.7593 14.0053 18.5339 13.941 18.3116 13.9732C18.1387 13.998 17.9791 14.0795 17.8575 14.2049L15.2799 16.7826V1.31393H15.28C15.285 1.09872 15.2017 0.890927 15.0495 0.738891C14.8973 0.586661 14.6895 0.503404 14.4743 0.50834L14.4747 0.508462Z" fill="#0070BA"/>
</svg>
