<svg width="14" height="18" viewBox="0 0 14 18" fill="none" xmlns="http://www.w3.org/2000/svg">
<path d="M0 18C0 16.1814 0.722447 14.4372 2.00841 13.1513C3.29437 11.8653 5.03852 11.1429 6.85714 11.1429C8.67577 11.1429 10.4199 11.8653 11.7059 13.1513C12.9918 14.4372 13.7143 16.1814 13.7143 18H12C12 16.636 11.4582 15.3279 10.4937 14.3635C9.52922 13.399 8.22111 12.8571 6.85714 12.8571C5.49317 12.8571 4.18507 13.399 3.22059 14.3635C2.25612 15.3279 1.71429 16.636 1.71429 18H0ZM6.85714 10.2857C4.01571 10.2857 1.71429 7.98429 1.71429 5.14286C1.71429 2.30143 4.01571 0 6.85714 0C9.69857 0 12 2.30143 12 5.14286C12 7.98429 9.69857 10.2857 6.85714 10.2857ZM6.85714 8.57143C8.75143 8.57143 10.2857 7.03714 10.2857 5.14286C10.2857 3.24857 8.75143 1.71429 6.85714 1.71429C4.96286 1.71429 3.42857 3.24857 3.42857 5.14286C3.42857 7.03714 4.96286 8.57143 6.85714 8.57143Z" fill="#131313"/>
</svg>
