<svg width="380" height="380" viewBox="0 0 380 380" fill="none" xmlns="http://www.w3.org/2000/svg">
<g clip-path="url(#clip0_1050_11198)">
<g opacity="0.3">
<path d="M191.527 32.1484H52.6562V207.291H191.527V32.1484Z" stroke="black" stroke-width="0.808" stroke-miterlimit="10"/>
<path d="M52.6406 170.342C64.7001 155.946 78.6137 143.211 94.0183 132.471C127.146 109.216 164.848 97.7912 191.512 80.5" stroke="black" stroke-width="0.808" stroke-miterlimit="10"/>
<path d="M52.6406 126.377C73.2608 114.726 98.1229 98.6549 117.83 79.7639C139.759 58.7559 145.609 42.5959 146.264 32.1484" stroke="black" stroke-width="0.808" stroke-miterlimit="10"/>
<path d="M89 207.292C102.736 176.66 128.826 123.712 135.428 147.217C140.478 165.235 133.004 189.419 125.425 207.292" stroke="black" stroke-width="0.808" stroke-miterlimit="10"/>
<path d="M87.6517 32.1484C76.5983 44.1068 65.464 60.186 76.4609 67.854C91.2635 78.1721 110.672 55.128 120.667 32.1484" stroke="black" stroke-width="0.808" stroke-miterlimit="10"/>
<path d="M161.769 79.7566C171.631 79.7566 179.626 71.7618 179.626 61.8998C179.626 52.0377 171.631 44.043 161.769 44.043C151.907 44.043 143.912 52.0377 143.912 61.8998C143.912 71.7618 151.907 79.7566 161.769 79.7566Z" fill="#BAE4FF" stroke="black" stroke-width="0.808" stroke-miterlimit="10"/>
<path d="M72.2099 100.724C77.373 100.724 81.5584 96.539 81.5584 91.3759C81.5584 86.2128 77.373 82.0273 72.2099 82.0273C67.0468 82.0273 62.8613 86.2128 62.8613 91.3759C62.8613 96.539 67.0468 100.724 72.2099 100.724Z" fill="#BAE4FF" stroke="black" stroke-width="0.808" stroke-miterlimit="10"/>
<path d="M85.1188 186.982C92.9441 185.17 97.8186 177.357 96.0062 169.532C94.1938 161.706 86.381 156.832 78.5557 158.644C70.7304 160.457 65.8559 168.269 67.6683 176.095C69.4807 183.92 77.2935 188.794 85.1188 186.982Z" fill="#BAE4FF" stroke="black" stroke-width="0.808" stroke-miterlimit="10"/>
</g>
<g opacity="0.3">
<path d="M341.703 133.174C355.439 141.957 348.312 149.076 339.529 135.348C330.754 149.084 323.636 141.957 337.364 133.174C323.628 124.399 330.754 117.281 339.529 131.009C348.312 117.281 355.423 124.399 341.703 133.174Z" stroke="black" stroke-width="0.808" stroke-miterlimit="10"/>
<path d="M341.096 131.645C357.006 128.147 357.006 138.206 341.096 134.708C344.595 150.625 334.535 150.625 338.034 134.708C322.116 138.206 322.116 128.147 338.034 131.645C334.503 115.728 344.563 115.728 341.096 131.645Z" stroke="black" stroke-width="0.808" stroke-miterlimit="10"/>
</g>
<g opacity="0.3">
<path d="M233.162 91.4244C242.252 97.234 237.533 101.928 231.724 92.8627C225.914 101.953 221.22 97.234 230.286 91.4244C221.196 85.6149 225.914 80.9204 231.724 89.9862C237.533 80.9204 242.252 85.623 233.162 91.4244Z" stroke="black" stroke-width="0.808" stroke-miterlimit="10"/>
<path d="M231.723 92.8726C232.518 92.8726 233.162 92.2286 233.162 91.4343C233.162 90.64 232.518 89.9961 231.723 89.9961C230.929 89.9961 230.285 90.64 230.285 91.4343C230.285 92.2286 230.929 92.8726 231.723 92.8726Z" stroke="black" stroke-width="0.808" stroke-miterlimit="10"/>
</g>
<g opacity="0.3">
<path d="M180.95 250.298C181.744 250.298 182.388 249.654 182.388 248.86C182.388 248.066 181.744 247.422 180.95 247.422C180.156 247.422 179.512 248.066 179.512 248.86C179.512 249.654 180.156 250.298 180.95 250.298Z" stroke="black" stroke-width="0.808" stroke-miterlimit="10"/>
<path d="M181.968 247.851C192.472 245.532 192.472 252.198 181.968 249.88C184.287 260.384 177.621 260.384 179.94 249.88C169.395 252.198 169.395 245.532 179.94 247.851C177.621 237.315 184.287 237.315 181.968 247.851Z" stroke="black" stroke-width="0.808" stroke-miterlimit="10"/>
</g>
<g opacity="0.3">
<path d="M315.651 195.841C316.445 195.841 317.089 195.197 317.089 194.403C317.089 193.609 316.445 192.965 315.651 192.965C314.857 192.965 314.213 193.609 314.213 194.403C314.213 195.197 314.857 195.841 315.651 195.841Z" stroke="black" stroke-width="0.808" stroke-miterlimit="10"/>
<path d="M315.651 195.841C316.445 195.841 317.089 195.197 317.089 194.403C317.089 193.609 316.445 192.965 315.651 192.965C314.857 192.965 314.213 193.609 314.213 194.403C314.213 195.197 314.857 195.841 315.651 195.841Z" stroke="black" stroke-width="0.808" stroke-miterlimit="10"/>
</g>
<g opacity="0.3">
<path d="M180.401 135.703C195.001 145.043 187.43 152.606 178.09 138.006C168.749 152.606 161.178 145.043 175.787 135.703C161.178 126.362 168.749 118.791 178.09 133.392C187.43 118.791 195.001 126.362 180.401 135.703Z" stroke="black" stroke-width="0.808" stroke-miterlimit="10"/>
<path d="M178.09 138.004C179.362 138.004 180.393 136.973 180.393 135.701C180.393 134.429 179.362 133.398 178.09 133.398C176.818 133.398 175.787 134.429 175.787 135.701C175.787 136.973 176.818 138.004 178.09 138.004Z" stroke="black" stroke-width="0.808" stroke-miterlimit="10"/>
</g>
<g opacity="0.3">
<path d="M347.875 83.7141C353.572 62.9456 341.355 41.4908 320.586 35.7936C299.817 30.0963 278.363 42.3141 272.665 63.0827C266.968 83.8512 279.186 105.306 299.954 111.003C320.723 116.7 342.178 104.483 347.875 83.7141Z" stroke="#263238" stroke-width="0.808" stroke-linecap="round" stroke-linejoin="round"/>
<path d="M323.075 105.239C340.667 98.1671 349.196 78.1723 342.124 60.5796C335.051 42.9869 315.056 34.4583 297.464 41.5305C279.871 48.6028 271.343 68.5976 278.415 86.1903C285.487 103.783 305.482 112.312 323.075 105.239Z" fill="#BAE4FF" stroke="#263238" stroke-width="0.808" stroke-linecap="round" stroke-linejoin="round"/>
<path d="M312.662 73.3967C312.662 73.8761 312.52 74.3447 312.254 74.7434C311.988 75.142 311.609 75.4527 311.166 75.6361C310.723 75.8196 310.236 75.8676 309.766 75.7741C309.295 75.6805 308.863 75.4497 308.524 75.1107C308.185 74.7717 307.955 74.3398 307.861 73.8696C307.768 73.3993 307.816 72.912 307.999 72.469C308.182 72.0261 308.493 71.6475 308.892 71.3812C309.29 71.1148 309.759 70.9727 310.238 70.9727C310.881 70.9727 311.498 71.228 311.952 71.6826C312.407 72.1372 312.662 72.7538 312.662 73.3967Z" stroke="#263238" stroke-width="0.808" stroke-linecap="round" stroke-linejoin="round"/>
<path d="M312.816 72.6874L321.123 70.0938" stroke="#263238" stroke-width="0.808" stroke-linecap="round" stroke-linejoin="round"/>
<path d="M310.271 75.7891V100.724" stroke="#263238" stroke-width="0.808" stroke-linecap="round" stroke-linejoin="round"/>
</g>
<path d="M339.537 337.326L336.596 309.715" stroke="#263238" stroke-width="0.748853" stroke-linecap="round" stroke-linejoin="round"/>
<path d="M336.581 310.49C336.581 310.49 331.299 306.378 331.299 296.977C331.299 287.576 338.344 279.945 338.344 279.945C338.344 279.945 345.982 289.346 344.219 298.74C342.456 308.134 336.581 310.49 336.581 310.49Z" fill="#BAE4FF" stroke="#263238" stroke-width="0.748853" stroke-linecap="round" stroke-linejoin="round"/>
<path d="M336.596 309.713L337.941 288.965" stroke="#263238" stroke-width="0.748853" stroke-linecap="round" stroke-linejoin="round"/>
<path d="M342.25 335.288C344.814 328.679 347.944 322.304 351.606 316.234" stroke="#263238" stroke-width="0.748853" stroke-linecap="round" stroke-linejoin="round"/>
<path d="M348.84 321.229C348.84 321.229 345.907 315.202 350.056 306.789C354.206 298.376 363.904 294.629 363.904 294.629C363.904 294.629 366.602 306.432 360.864 314.085C355.126 321.738 348.84 321.229 348.84 321.229Z" fill="#BAE4FF" stroke="#263238" stroke-width="0.748853" stroke-linecap="round" stroke-linejoin="round"/>
<path d="M348.84 321.227L359.533 303.648" stroke="#263238" stroke-width="0.748853" stroke-linecap="round" stroke-linejoin="round"/>
<path d="M334.773 337.75C333.179 332.441 331.013 327.322 328.313 322.482L324.201 315.398" stroke="#263238" stroke-width="0.748853" stroke-linecap="round" stroke-linejoin="round"/>
<path d="M327.507 320.88C324.262 321.877 320.818 322.036 317.496 321.342C314.174 320.648 311.081 319.125 308.507 316.913C299.387 309.252 299.896 293.619 299.896 293.619C299.896 293.619 317.573 291.096 324.71 301.113C326.779 303.917 328.117 307.192 328.606 310.643C329.094 314.094 328.716 317.612 327.507 320.88Z" fill="#BAE4FF" stroke="#263238" stroke-width="0.748853" stroke-linecap="round" stroke-linejoin="round"/>
<path d="M327.506 320.878L306.553 299.043" stroke="#263238" stroke-width="0.748853" stroke-linecap="round" stroke-linejoin="round"/>
<path d="M349.205 331.414H326.838V353.348H349.205V331.414Z" fill="#263238" stroke="#263238" stroke-width="0.748853" stroke-linecap="round" stroke-linejoin="round"/>
<path d="M205.04 218.773C205.686 217.543 206.656 216.514 207.846 215.797C209.036 215.08 210.4 214.703 211.789 214.707H276.807C276.807 214.707 281.504 214.707 280.098 223.637C278.692 232.567 259.418 287.089 254.714 303.536C250.009 319.982 249.074 354.767 249.074 354.767H171.053C171.053 354.767 177.308 271.722 205.04 218.773Z" fill="white" stroke="#263238" stroke-width="0.748853" stroke-linecap="round" stroke-linejoin="round"/>
<path d="M265.528 230.219C258.954 245.555 245.008 306.219 242.789 354.767H249.074C249.074 354.767 250.039 319.959 254.713 303.536C259.387 287.112 278.684 232.567 280.097 223.637C281.511 214.707 276.807 214.707 276.807 214.707C276.807 214.707 270.795 217.922 265.528 230.219Z" fill="#263238" stroke="#263238" stroke-width="0.748853" stroke-linecap="round" stroke-linejoin="round"/>
<path d="M141.891 215.939C141.891 215.939 129.959 214.487 122.078 206.203C114.197 197.919 139.209 168.378 152.562 161.416C165.915 154.455 171.417 156.362 185.736 166.919C200.054 177.475 214.031 194.416 213.856 205.778C213.681 217.14 207.495 222.574 216.136 228.175C224.777 233.776 249.234 249.683 252.806 260.612C256.378 271.54 250.184 285.137 235.843 292.532C221.501 299.926 197.972 299.584 175.309 292.258C152.645 284.932 147.713 261.752 150.631 252.32C153.55 242.888 161.271 236.406 158.946 229.231C156.62 222.057 141.891 215.939 141.891 215.939Z" fill="#263238" stroke="#263238" stroke-width="0.748853" stroke-linecap="round" stroke-linejoin="round"/>
<path d="M152.121 248.521C152.121 248.521 139.779 246.803 134.079 250.489C128.379 254.175 100.213 302.314 100.213 302.314L84.656 281.376L71.166 287.433C71.166 287.433 77.4892 311.905 84.846 324.08C92.2028 336.255 96.398 337.486 98.9212 337.084C106.43 335.89 128.181 310.727 128.181 310.727L136.085 337.023L130.72 356.137H230.66L218.538 335.921C218.538 335.921 234.353 262.961 230.325 255.232C226.297 247.502 202.828 248.521 195.449 248.521H174.321C171.119 249.156 167.865 249.492 164.6 249.524C160.426 249.402 156.261 249.068 152.121 248.521Z" fill="#BAE4FF"/>
<path d="M218.88 250.984L219.085 251.068L217.17 255.947L216.957 255.863L218.88 250.984ZM218.355 256.411L218.56 256.494L220.483 251.615L220.27 251.531L218.355 256.411ZM227.072 271.937L226.852 271.877L226.008 274.879H226.244L227.072 271.937ZM228.516 272.348L228.296 272.287L227.536 274.879H227.764L228.516 272.348ZM219.396 272.515L220.111 274.879H220.346L219.586 272.447L219.396 272.515ZM221.053 272.021L220.833 272.082L221.676 274.879H221.912L221.053 272.021ZM227.171 260.857L229.778 256.297L229.588 256.183L226.981 260.743L227.171 260.857ZM228.478 261.617L230.918 257.353C230.918 257.224 230.918 257.11 230.872 256.988L228.281 261.51L228.478 261.617ZM230.188 268.099L230.622 267.529L230.667 267.111L230.006 267.963L230.188 268.099ZM223.736 263.471L227.369 267.271L227.528 267.119L223.896 263.319L223.736 263.471ZM222.588 264.482L226.214 268.282L226.381 268.13L222.748 264.33L222.588 264.482ZM218.583 264.482L218.644 264.261L215.84 263.57V263.798L218.583 264.482ZM215.802 262.202L218.956 263L219.009 262.779L215.84 262.019L215.802 262.202ZM219.32 268.989L219.252 268.776L215.84 269.961V270.197L219.32 268.989ZM218.781 267.347L215.802 268.335V268.571L218.842 267.56L218.781 267.347ZM217.132 309.808L219.047 304.929L218.842 304.845L216.919 309.725L217.132 309.808ZM220.232 305.393L218.317 310.272L218.522 310.355L220.445 305.476L220.232 305.393ZM220.134 328.269L219.548 326.315L219.328 326.376L220.042 328.732L220.134 328.269ZM223.934 295.452L223.721 295.528L225.499 300.46H225.545L225.613 300.118L223.934 295.452ZM225.127 295.019L226.062 297.595C226.062 297.451 226.115 297.306 226.137 297.154L225.34 294.943L225.127 295.019ZM228.456 282.175L228.577 282.577L228.646 282.121L228.456 282.175ZM223.455 281.878L223.151 287.107H223.371L223.675 281.871L223.455 281.878ZM224.648 287.198H224.868L225.172 281.962H224.952L224.648 287.198ZM218.256 281.65L218.363 281.453L215.779 280.062V280.32L218.256 281.65ZM215.779 278.61L218.963 280.32L219.07 280.123L215.84 278.413L215.779 278.61ZM217.77 286.522L217.626 286.355L215.84 288.042V288.338L217.77 286.522ZM216.79 285.389L216.645 285.215L215.779 285.975V286.271L216.79 285.389ZM215.84 294.38V294.616L220.567 292.769L220.483 292.564L215.84 294.38ZM215.84 292.769V293.012L220.02 291.378L219.936 291.165L215.84 292.769ZM218.629 302.284L218.682 302.064L215.84 301.425V301.653L218.629 302.284ZM218.956 300.825L219.009 300.605L215.84 299.89V300.118L218.956 300.825ZM218.583 318.442L218.644 318.229L215.802 317.507V317.743L218.583 318.442ZM215.84 316.162L218.994 316.967L219.047 316.747L215.84 315.941V316.162ZM219.358 322.949L219.29 322.736L215.84 323.876V324.119L219.358 322.949ZM218.887 321.527L218.819 321.315L215.84 322.303V322.538L218.887 321.527ZM225.644 276.976L226.244 274.871H226.008L225.431 276.915L225.644 276.976ZM227.794 274.871H227.566L226.875 277.318L227.088 277.387L227.794 274.871ZM220.878 277.523L221.099 277.463L220.339 274.871H220.103L220.878 277.523ZM222.528 277.029L221.882 274.871H221.646L222.315 277.098L222.528 277.029ZM223.782 349.495L225.56 354.42L225.773 354.344L223.994 349.419L223.782 349.495ZM227.179 353.835L225.4 348.91L225.188 348.986L226.974 353.911L227.179 353.835ZM229.694 355.051L229.474 354.99L229.155 356.13H229.39L229.694 355.051ZM215.84 334.288L218.317 335.618L218.424 335.42L215.84 334.029V334.288ZM215.84 332.585L218.88 334.25L218.925 334.022L215.84 332.335V332.585ZM217.793 340.482L217.648 340.307L215.84 341.926V342.215L217.793 340.482ZM216.812 339.342L216.668 339.175L215.802 339.935V340.231L216.812 339.342ZM220.445 346.455L215.84 348.295V348.538L220.567 346.683L220.445 346.455ZM215.802 346.904L219.982 345.27L219.898 345.065L215.802 346.661V346.904ZM215.802 355.317V355.553L218.317 356.115H218.606L218.644 355.963L215.802 355.317ZM218.918 354.717L218.971 354.496L215.802 353.782V354.017L218.918 354.717ZM163.004 255.841L163.21 255.924L165.132 251.045L164.92 250.961L163.004 255.841ZM164.395 256.388L164.608 256.471L166.523 251.592L166.318 251.509L164.395 256.388ZM213.506 263.19L215.786 263.775V263.547L213.544 262.977L213.506 263.19ZM213.932 261.525L213.871 261.738L215.802 262.232V261.997L213.932 261.525ZM215.84 270.197V269.961L214.32 270.471L214.388 270.683L215.84 270.197ZM213.803 269.042L213.871 269.255L215.802 268.616V268.381L213.803 269.042ZM209.76 274.879H210.018L211.006 273.161L210.816 273.047L209.76 274.879ZM211.492 274.879H211.751L212.306 273.906L212.116 273.792L211.492 274.879ZM200.191 272.781L200.016 272.925L201.62 274.879H201.909L200.191 272.781ZM201.179 271.975L203.558 274.879H203.847L201.354 271.839L201.179 271.975ZM195.51 274.537L195.304 274.613L195.396 274.879H195.639L195.51 274.537ZM196.71 274.103L196.992 274.863H197.227L196.923 274.012L196.71 274.103ZM188.487 274.863L189.133 272.317L188.913 272.264L188.252 274.863H188.487ZM190.364 272.629L189.794 274.863H190L190.554 272.69L190.364 272.629ZM173.135 271.922L172.915 271.861L172.064 274.863H172.299L173.135 271.922ZM174.572 272.333L174.359 272.272L173.599 274.863H173.834L174.572 272.333ZM165.452 272.5L166.166 274.863H166.402L165.642 272.431L165.452 272.5ZM167.101 272.006L166.888 272.067L167.732 274.863H167.96L167.101 272.006ZM173.226 260.841L175.833 256.281L175.636 256.167L173.029 260.727L173.226 260.841ZM174.336 261.48L174.526 261.586L177.133 257.026L176.935 256.912L174.336 261.48ZM204.075 264.824L208.901 266.868L208.984 266.663L204.158 264.619L204.075 264.824ZM203.49 266.199L208.316 268.244L208.399 268.039L203.535 266.002L203.49 266.199ZM207.556 258.326L207.768 258.387L209.197 253.348L208.977 253.279L207.556 258.326ZM208.992 258.736L209.212 258.797L210.634 253.751L210.421 253.69L208.992 258.736ZM201.149 249.358L202.669 254.374L202.882 254.313L201.4 249.282L201.149 249.358ZM202.577 248.925L204.098 253.941L204.31 253.88L202.79 248.864L202.577 248.925ZM186.017 270.41L184.497 265.394L184.284 265.455L185.804 270.478L186.017 270.41ZM187.454 269.977L185.934 264.961L185.713 265.021L187.233 270.045L187.454 269.977ZM193.382 267.073L198.572 266.313V266.093L193.382 266.853V267.073ZM193.594 268.555L198.785 267.795V267.575L193.594 268.335V268.555ZM197.394 262.164L197.615 262.217L198.785 257.11L198.565 257.057L197.394 262.164ZM200.024 257.391L198.854 262.498L199.074 262.551L200.244 257.444L200.024 257.391ZM181.64 259.253L181.83 259.375L184.634 254.944L184.444 254.83L181.64 259.253ZM185.903 255.749L185.713 255.628L182.909 260.059L183.099 260.18L185.903 255.749ZM181.032 250.65L185.835 248.552V248.499H185.424L180.963 250.445L181.032 250.65ZM181.541 251.813L181.632 252.018L186.435 249.928L186.344 249.723L181.541 251.813ZM176.981 248.499H176.745L175.56 252.618L175.78 252.679L176.981 248.499ZM174.359 252.299L175.423 248.499H175.187L174.138 252.208L174.359 252.299ZM194.924 250.11L194.408 248.522H194.172L194.666 250.163L194.924 250.11ZM193.275 250.604L193.496 250.543L192.888 248.529H192.652L193.275 250.604ZM176.069 267.978L176.244 268.115L179.436 263.957L179.253 263.821L176.069 267.978ZM177.254 268.89L177.437 269.027L180.621 264.862L180.446 264.725L177.254 268.89ZM169.791 263.486L173.424 267.286L173.591 267.134L169.958 263.334L169.791 263.486ZM168.666 264.482L172.299 268.282L172.459 268.13L168.834 264.33L168.666 264.482ZM188.563 257.763L188.472 257.969L193.298 260.021L193.389 259.808L188.563 257.763ZM189.057 256.593L193.883 258.637L193.974 258.432L189.148 256.388L189.057 256.593ZM164.669 264.482L164.722 264.261L161.88 263.57V263.798L164.669 264.482ZM161.887 262.202L165.034 263L165.094 262.779L161.88 262.019L161.887 262.202ZM165.406 268.989L165.33 268.776L161.88 269.961V270.197L165.406 268.989ZM164.859 267.347L161.887 268.335V268.571L164.927 267.56L164.859 267.347ZM164.92 304.845L163.004 309.725L163.21 309.808L165.132 304.929L164.92 304.845ZM166.318 305.393L164.395 310.272L164.608 310.355L166.523 305.476L166.318 305.393ZM213.666 279.165L215.802 280.32V280.062L213.772 278.967L213.666 279.165ZM214.479 277.645L214.373 277.835L215.802 278.595V278.337L214.479 277.645ZM215.84 288.042L213.719 289.881L213.864 290.048L215.84 288.338V288.042ZM212.883 288.916L215.84 286.362V286.066L212.739 288.741L212.883 288.916ZM215.604 294.509L215.68 294.722L215.84 294.654V294.418L215.604 294.509ZM215.057 293.119L215.133 293.324L215.84 293.05V292.807L215.057 293.119ZM215.817 301.479L213.537 300.962L213.484 301.182L215.809 301.707L215.817 301.479ZM215.817 299.959L213.871 299.518L213.826 299.738L215.817 300.187V299.959ZM215.817 317.553L213.56 316.922L213.506 317.142L215.786 317.727L215.817 317.553ZM213.947 315.531L213.886 315.751L215.84 316.162V315.934L213.947 315.531ZM215.84 324.119V323.876L214.32 324.385L214.388 324.598L215.84 324.119ZM215.84 322.538V322.303L213.841 322.964L213.909 323.177L215.84 322.538ZM184.984 277.539L180.158 275.487L180.074 275.692L184.9 277.744L184.984 277.539ZM179.489 277.075L184.315 279.119L184.398 278.914L179.572 276.87L179.489 277.075ZM210.991 327.075L210.801 326.969L209.76 328.801H210.018L210.991 327.075ZM212.29 327.835L212.1 327.721L211.477 328.816H211.736L212.29 327.835ZM200.001 326.855L201.605 328.816H201.894L200.176 326.711L200.001 326.855ZM201.164 325.905L203.543 328.816H203.832L201.339 325.776L201.164 325.905ZM195.494 328.474L195.289 328.55L195.38 328.816H195.624L195.494 328.474ZM196.695 328.041L196.976 328.801H197.212L196.908 327.949L196.695 328.041ZM189.095 326.27L188.875 326.209L188.214 328.816H188.48L189.095 326.27ZM190.326 326.581L189.756 328.816H190L190.554 326.635L190.326 326.581ZM173.097 325.867L172.877 325.806L172.026 328.846H172.261L173.097 325.867ZM174.534 326.277L174.321 326.217L173.561 328.816H173.796L174.534 326.277ZM165.414 326.445L166.128 328.816H166.364L165.604 326.384L165.414 326.445ZM166.85 326.019L167.694 328.816H167.922L167.063 325.951L166.85 326.019ZM175.598 310.135L172.991 314.695L173.188 314.809L175.795 310.249L175.598 310.135ZM177.118 310.986L176.92 310.872L174.321 315.432L174.511 315.546L177.118 310.986ZM198.314 286.013L194.97 281.962L194.803 282.106L198.116 286.165L198.314 286.013ZM197.159 286.963L193.8 282.889L193.625 283.033L196.946 287.092L197.159 286.963ZM188.943 284.743L190.722 289.668L190.934 289.592L189.156 284.667L188.943 284.743ZM190.357 284.234L192.135 289.159L192.34 289.083L190.562 284.158L190.357 284.234ZM208.969 320.608L204.143 318.563L204.06 318.769L208.886 320.813L208.969 320.608ZM208.384 321.991L203.558 319.939L203.474 320.152L208.3 322.196L208.384 321.991ZM208.962 307.232L207.54 312.278L207.753 312.339L209.182 307.293L208.962 307.232ZM210.618 307.703L210.406 307.642L208.977 312.681L209.197 312.742L210.618 307.703ZM202.889 308.243L201.369 303.227L201.156 303.287L202.676 308.311L202.889 308.243ZM204.326 307.809L202.806 302.793L202.585 302.854L204.105 307.878L204.326 307.809ZM189.126 294.684L186.519 299.244L186.709 299.351L189.316 294.791L189.126 294.684ZM188.016 294.053L187.818 293.939L185.219 298.499L185.409 298.606L188.016 294.053ZM179.162 298.195L175.841 294.122L175.666 294.266L178.987 298.325L179.162 298.195ZM180.317 297.245L177.004 293.187L176.829 293.331L180.142 297.39L180.317 297.245ZM169.829 295.596L171.608 300.529L171.82 300.453L170.034 295.52L169.829 295.596ZM171.235 295.087L173.014 300.019L173.226 299.943L171.448 295.011L171.235 295.087ZM207.48 299.077L207.7 299.13L208.992 294.053L208.772 293.993L207.48 299.077ZM210.444 294.418L210.223 294.365L208.931 299.442L209.152 299.495L210.444 294.418ZM201.871 298.682L197.045 296.637L196.961 296.843L201.787 298.895L201.871 298.682ZM202.456 297.306L197.6 295.262L197.516 295.467L202.342 297.511L202.456 297.306ZM186.017 324.332L184.497 319.308L184.284 319.377L185.804 324.393L186.017 324.332ZM187.454 323.899L185.934 318.875L185.713 318.943L187.233 323.959L187.454 323.899ZM198.572 320.258V320.038L193.382 320.798V321.018L198.572 320.258ZM198.785 321.74V321.52L193.594 322.28V322.5L198.785 321.74ZM197.6 316.162L198.77 311.055L198.55 311.001L197.379 316.116L197.6 316.162ZM199.059 316.496L200.229 311.389L200.009 311.336L198.838 316.451L199.059 316.496ZM184.619 308.896L184.429 308.775L181.64 313.175L181.83 313.297L184.619 308.896ZM185.888 309.694L185.698 309.573L182.894 314.003L183.084 314.125L185.888 309.694ZM185.82 302.497L185.736 302.292L180.925 304.389L181.016 304.595L185.82 302.497ZM186.42 303.873L186.329 303.667L181.526 305.765L181.617 305.97L186.42 303.873ZM177.186 301.593L176.973 301.524L175.56 306.533L175.78 306.593L177.186 301.593ZM174.321 306.229L175.742 301.182L175.529 301.121L174.1 306.168L174.321 306.229ZM194.879 304.002L193.359 298.986L193.138 299.047L194.658 304.07L194.879 304.002ZM191.725 299.442L193.245 304.458L193.465 304.397L191.945 299.381L191.725 299.442ZM184.436 286.522L180.249 289.683L180.386 289.858L184.573 286.704L184.436 286.522ZM181.29 291.082L185.47 287.92L185.341 287.745L181.153 290.899L181.29 291.082ZM177.672 286.742L176.221 281.703L176 281.772L177.46 286.803L177.672 286.742ZM174.564 282.182L176.016 287.282L176.236 287.221L174.8 282.167L174.564 282.182ZM169.563 281.886L169.259 287.115H169.48L169.784 281.878L169.563 281.886ZM170.749 287.206H170.977L171.281 281.969H171.053L170.749 287.206ZM179.36 317.841L179.177 317.705L175.993 321.869L176.168 322.006L179.36 317.841ZM180.545 318.753L180.37 318.617L177.178 322.781L177.361 322.918L180.545 318.753ZM169.715 317.37L173.348 321.17L173.515 321.011L169.882 317.211L169.715 317.37ZM168.666 318.442L172.299 322.242L172.459 322.09L168.834 318.29L168.666 318.442ZM206.834 289.25L206.659 289.113L203.36 293.187L203.535 293.331L206.834 289.25ZM205.496 288.171L202.198 292.245L202.372 292.389L205.663 288.308L205.496 288.171ZM206.416 280.442H206.195L205.602 285.648H205.83L206.416 280.442ZM204.706 280.244L204.12 285.458H204.341L204.926 280.252L204.706 280.244ZM193.389 313.76L188.563 311.716L188.472 311.921L193.298 313.965L193.389 313.76ZM189.057 310.538L193.883 312.582L193.974 312.377L189.148 310.333L189.057 310.538ZM164.365 281.726L164.471 281.529L161.887 280.138V280.396L164.365 281.726ZM161.887 278.686L165.072 280.396L165.178 280.199L161.88 278.413L161.887 278.686ZM163.878 286.598L163.726 286.431L161.88 288.042V288.338L163.878 286.598ZM162.898 285.465L162.746 285.291L161.887 286.051V286.347L162.898 285.465ZM166.523 292.579L161.887 294.395V294.631L166.607 292.784L166.523 292.579ZM166.06 291.393L165.984 291.181L161.88 292.769V293.012L166.06 291.393ZM164.676 302.299L164.722 302.079L161.887 301.441V301.669L164.676 302.299ZM161.88 300.118L164.996 300.825L165.049 300.605L161.88 299.89V300.118ZM164.669 318.442L164.722 318.229L161.887 317.507V317.743L164.669 318.442ZM161.88 316.162L165.026 316.967L165.087 316.747L161.88 315.941V316.162ZM165.398 322.949L165.322 322.736L161.88 323.876V324.119L165.398 322.949ZM164.927 321.527L164.851 321.315L161.88 322.303V322.538L164.927 321.527ZM208.186 277.592L208.376 277.698L209.995 274.871H209.76L208.186 277.592ZM209.486 278.352L209.676 278.458L211.728 274.886H211.47L209.486 278.352ZM203.49 276.832L201.886 274.871H201.597L203.315 276.969L203.49 276.832ZM204.478 276.026L204.652 275.882L203.824 274.871H203.535L204.478 276.026ZM197.273 279.461L195.616 274.901H195.373L197.06 279.568L197.273 279.461ZM198.466 279.028L198.679 278.952L197.204 274.871H196.969L198.466 279.028ZM187.598 277.349L187.818 277.402L188.464 274.871H188.229L187.598 277.349ZM189.05 277.721L189.27 277.774L190.03 274.871H189.794L189.05 277.721ZM171.684 276.961L172.276 274.856H172.041L171.463 276.9L171.684 276.961ZM173.834 274.856H173.599L172.907 277.303L173.128 277.371L173.834 274.856ZM166.918 277.508L167.131 277.447L166.371 274.856H166.136L166.918 277.508ZM168.568 277.014L167.914 274.856H167.686L168.347 277.083L168.568 277.014ZM213.765 332.912L213.658 333.11L215.794 334.265V334.007L213.765 332.912ZM214.472 331.597L214.365 331.795L215.794 332.555V332.304L214.472 331.597ZM215.84 342.215V341.926L213.719 343.757L213.864 343.925L215.84 342.215ZM215.84 340.239V339.942L212.739 342.625L212.883 342.792L215.84 340.239ZM215.604 348.386L215.68 348.599L215.84 348.538V348.295L215.604 348.386ZM215.057 346.995L215.133 347.208L215.84 346.927V346.683L215.057 346.995ZM213.537 354.831L213.484 355.051L215.809 355.575V355.34L213.537 354.831ZM215.817 353.805L213.871 353.364L213.826 353.584L215.817 354.04V353.805ZM184.984 331.453L180.158 329.409L180.074 329.614L184.9 331.658L184.984 331.453ZM179.489 330.989L184.315 333.041L184.398 332.829L179.572 330.784L179.489 330.989ZM194.803 335.998L198.116 340.056L198.291 339.912L194.97 335.861L194.803 335.998ZM197.136 340.862L193.8 336.811L193.625 336.948L196.946 341.006L197.136 340.862ZM190.912 343.522L189.133 338.589L188.92 338.665L190.699 343.598L190.912 343.522ZM192.318 343.013L190.539 338.08L190.334 338.156L192.112 343.089L192.318 343.013ZM189.278 348.72L189.088 348.606L186.481 353.166L186.671 353.28L189.278 348.72ZM187.978 347.96L187.78 347.854L185.181 352.414L185.371 352.528L187.978 347.96ZM179.124 352.102L175.841 348.082L175.666 348.219L178.987 352.277L179.124 352.102ZM180.279 351.152L176.966 347.101L176.791 347.238L180.104 351.297L180.279 351.152ZM171.782 354.359L169.996 349.435L169.791 349.511L171.57 354.435L171.782 354.359ZM173.188 353.85L171.41 348.925L171.197 349.001L172.976 353.926L173.188 353.85ZM208.908 347.975L208.688 347.922L207.396 352.999L207.616 353.052L208.908 347.975ZM210.36 348.34L210.14 348.287L208.848 353.371L209.068 353.425L210.36 348.34ZM201.871 352.642L197.045 350.597L196.961 350.803L201.787 352.847L201.871 352.642ZM202.456 351.259L197.6 349.176L197.516 349.381L202.342 351.433L202.456 351.259ZM176.966 355.446L176.753 356.206H176.988L177.178 355.537L176.966 355.446ZM175.734 355.097L175.522 355.036L175.195 356.176H175.43L175.734 355.097ZM193.154 352.999L194.111 356.176H194.347L193.374 352.931L193.154 352.999ZM191.938 353.364L191.725 353.425L192.546 356.176H192.781L191.938 353.364ZM184.573 340.725L184.436 340.55L180.249 343.704L180.386 343.887L184.573 340.725ZM185.47 341.926L185.341 341.743L181.153 344.897L181.29 345.08L185.47 341.926ZM177.46 340.809L177.672 340.74L176.221 335.709L176 335.77L177.46 340.809ZM176.236 341.158L174.8 336.089L174.587 336.15L176.038 341.181L176.236 341.158ZM169.48 341.158L169.784 335.929H169.563L169.259 341.166L169.48 341.158ZM171 341.249L171.304 336.013H171.076L170.772 341.242L171 341.249ZM206.856 343.21L206.682 343.066L203.383 347.139L203.558 347.284L206.856 343.21ZM205.519 342.123L202.22 346.197L202.395 346.341L205.686 342.268L205.519 342.123ZM206.438 334.402H206.218L205.625 339.608H205.853L206.438 334.402ZM204.728 334.212L204.143 339.418H204.364L204.949 334.204L204.728 334.212ZM164.388 335.686L164.494 335.489L161.91 334.098V334.356L164.388 335.686ZM165.201 334.166L161.88 332.335V332.585L165.064 334.303L165.201 334.166ZM163.878 340.482L163.726 340.307L161.88 341.918V342.215L163.878 340.482ZM162.898 339.342L162.746 339.175L161.887 339.935V340.231L162.898 339.342ZM166.523 346.455L161.887 348.272V348.515L166.607 346.661L166.523 346.455ZM161.887 346.904L166.06 345.27L165.984 345.065L161.887 346.661V346.904ZM161.887 355.317V355.553L164.403 356.115H164.684L164.722 355.963L161.887 355.317ZM165.003 354.717L165.056 354.496L161.887 353.782V354.017L165.003 354.717ZM208.384 331.605L210.003 328.778H209.76L208.24 331.491L208.384 331.605ZM211.477 328.778L209.494 332.236L209.684 332.35L211.736 328.778H211.477ZM203.322 330.875L203.497 330.731L201.894 328.778H201.605L203.322 330.875ZM204.485 329.925L204.66 329.781L203.832 328.778H203.543L204.485 329.925ZM197.28 333.361L195.624 328.801H195.38L197.068 333.459L197.28 333.361ZM198.474 332.935L198.686 332.851L197.212 328.778H196.976L198.474 332.935ZM187.834 331.309L188.48 328.778H188.244L187.613 331.255L187.834 331.309ZM189.065 331.62L189.285 331.673L190.045 328.778H189.81L189.065 331.62ZM171.699 330.86L172.292 328.763H172.056L171.478 330.799L171.699 330.86ZM173.614 328.763L172.922 331.21L173.143 331.271L173.85 328.763H173.614ZM166.934 331.415L167.146 331.347L166.386 328.763H166.151L166.934 331.415ZM168.362 330.982L168.583 330.921L167.929 328.763H167.701L168.362 330.982ZM159.6 263.213L161.88 263.798V263.57L159.638 263L159.6 263.213ZM160.025 261.548L159.972 261.761L161.902 262.255V262.019L160.025 261.548ZM161.88 270.197V269.961L160.36 270.471L160.436 270.683L161.88 270.197ZM159.888 269.042L159.957 269.255L161.887 268.616V268.381L159.888 269.042ZM155.8 274.879H156.058L157.046 273.161L156.848 273.047L155.8 274.879ZM157.525 274.879H157.783L158.346 273.906L158.148 273.792L157.525 274.879ZM146.231 272.781L146.056 272.925L147.66 274.879H147.949L146.231 272.781ZM147.219 271.975L149.59 274.879H149.887L147.394 271.839L147.219 271.975ZM141.55 274.537L141.337 274.613L141.436 274.879H141.671L141.55 274.537ZM142.75 274.103L143.024 274.863H143.267L142.963 274.012L142.75 274.103ZM134.52 274.863L135.166 272.317L134.953 272.264L134.292 274.863H134.52ZM136.404 272.629L135.834 274.863H136.07L136.617 272.69L136.404 272.629ZM118.339 274.863L119.168 271.922L118.955 271.861L118.104 274.863H118.339ZM120.619 272.333L120.399 272.272L119.639 274.863H119.874L120.619 272.333ZM150.092 264.824L154.918 266.868L155.009 266.663L150.183 264.619L150.092 264.824ZM149.507 266.199L154.356 268.282L154.447 268.077L149.621 266.002L149.507 266.199ZM153.573 258.326L153.793 258.387L155.214 253.348L155.002 253.279L153.573 258.326ZM155.017 258.736L155.23 258.797L156.658 253.751L156.446 253.69L155.017 258.736ZM147.227 249.358L148.747 254.374L148.96 254.313L147.44 249.282L147.227 249.358ZM148.663 248.925L150.183 253.941L150.396 253.88L148.876 248.864L148.663 248.925ZM130.378 265.455L131.898 270.478L132.11 270.41L130.59 265.394L130.378 265.455ZM133.539 270.015L132.019 264.999L131.806 265.059L133.326 270.083L133.539 270.015ZM139.467 267.111L144.658 266.351V266.131L139.467 266.891V267.111ZM139.642 268.373V268.593L144.833 267.833V267.613L139.642 268.373ZM144.856 257.148L144.635 257.095L143.472 262.202L143.685 262.255L144.856 257.148ZM146.102 257.429L144.932 262.536L145.144 262.589L146.315 257.482L146.102 257.429ZM127.68 259.253L127.87 259.375L130.674 254.944L130.484 254.83L127.68 259.253ZM128.949 260.059L129.139 260.18L131.943 255.749L131.753 255.628L128.949 260.059ZM140.942 250.08L140.455 248.461H140.227L140.729 250.11L140.942 250.08ZM139.292 250.574L139.505 250.513L138.966 248.704L138.745 248.75L139.292 250.574ZM122.086 267.947L122.261 268.084L125.445 263.927L125.27 263.79L122.086 267.947ZM126.646 264.831L126.464 264.695L123.279 268.859L123.462 268.996L126.646 264.831ZM134.626 257.771L134.542 257.976L139.368 260.028L139.452 259.815L134.626 257.771ZM135.128 256.601L139.954 258.645L140.037 258.44L135.211 256.395L135.128 256.601ZM110.99 304.899L109.075 309.778L109.28 309.861L111.195 304.982L110.99 304.899ZM112.381 305.446L110.466 310.325L110.671 310.409L112.594 305.529L112.381 305.446ZM159.729 279.218L161.872 280.373V280.115L159.835 279.021L159.729 279.218ZM160.55 277.698L160.443 277.888L161.872 278.648V278.39L160.55 277.698ZM161.88 288.042L159.752 289.881L159.904 290.048L161.88 288.338V288.042ZM158.923 288.916L161.88 286.362V286.066L158.779 288.741L158.923 288.916ZM161.636 294.509L161.72 294.722L161.88 294.654V294.418L161.636 294.509ZM161.88 292.807L161.12 293.119L161.203 293.324L161.91 293.05L161.88 292.807ZM161.88 301.463L159.6 300.947L159.554 301.167L161.88 301.691V301.463ZM159.934 299.487L159.881 299.708L161.88 300.156V299.928L159.934 299.487ZM161.88 317.484L159.638 316.914L159.577 317.135L161.857 317.72L161.88 317.484ZM160.002 315.463L159.949 315.683L161.88 316.162V315.934L160.002 315.463ZM161.88 324.119V323.876L160.36 324.385L160.436 324.598L161.88 324.119ZM161.88 322.538V322.303L159.881 322.964L159.949 323.177L161.88 322.538ZM126.16 275.692L130.986 277.744L131.077 277.539L126.251 275.487L126.16 275.692ZM125.574 277.075L130.4 279.119L130.492 278.914L125.666 276.87L125.574 277.075ZM157.084 327.075L156.886 326.969L155.8 328.801H156.058L157.084 327.075ZM158.384 327.835L158.186 327.721L157.563 328.816H157.821L158.384 327.835ZM146.094 326.855L147.698 328.816H147.987L146.269 326.711L146.094 326.855ZM147.257 325.905L149.628 328.816H149.925L147.432 325.776L147.257 325.905ZM141.588 328.474L141.375 328.55L141.474 328.816H141.709L141.588 328.474ZM142.788 328.041L143.062 328.801H143.305L143.001 327.949L142.788 328.041ZM134.33 328.801H134.558L135.204 326.255L134.991 326.194L134.33 328.801ZM136.442 326.566L135.872 328.801H136.108L136.655 326.619L136.442 326.566ZM111.72 326.369L111.507 326.429L111.925 327.813L112.107 327.645L111.72 326.369ZM113.156 325.935L112.936 326.004L113.141 326.657L113.316 326.483L113.156 325.935ZM121.888 310.226L121.691 310.12L119.084 314.68L119.282 314.794L121.888 310.226ZM120.581 315.546L123.188 310.986L122.99 310.872L120.384 315.432L120.581 315.546ZM144.4 285.997L141.056 281.962L140.881 282.106L144.202 286.165L144.4 285.997ZM143.237 286.947L139.916 282.889L139.748 283.033L143.062 287.092L143.237 286.947ZM135.029 284.728L136.807 289.653L137.02 289.577L135.242 284.652L135.029 284.728ZM136.435 284.219L138.213 289.144L138.426 289.068L136.648 284.143L136.435 284.219ZM155.04 320.593L150.214 318.548L150.122 318.753L154.948 320.798L155.04 320.593ZM154.454 321.976L149.628 319.924L149.537 320.137L154.363 322.181L154.454 321.976ZM155.032 307.217L153.603 312.263L153.824 312.324L155.245 307.277L155.032 307.217ZM156.689 307.688L156.476 307.627L155.04 312.666L155.252 312.727L156.689 307.688ZM148.96 308.227L147.44 303.211L147.227 303.272L148.747 308.296L148.96 308.227ZM150.396 307.794L148.876 302.778L148.663 302.839L150.183 307.863L150.396 307.794ZM135.196 294.669L132.589 299.229L132.787 299.335L135.394 294.775L135.196 294.669ZM133.896 293.909L131.29 298.469L131.487 298.575L134.094 294.015L133.896 293.909ZM121.736 294.251L125.058 298.309L125.225 298.165L121.926 294.122L121.736 294.251ZM122.892 293.301L126.213 297.359L126.388 297.215L123.12 293.172L122.892 293.301ZM115.892 295.581L117.67 300.513L117.883 300.437L116.105 295.505L115.892 295.581ZM117.306 295.072L119.084 300.004L119.289 299.928L117.511 294.996L117.306 295.072ZM153.52 299.077L153.74 299.13L155.024 294.053L154.812 293.993L153.52 299.077ZM156.484 294.418L156.263 294.365L154.971 299.442L155.192 299.495L156.484 294.418ZM147.956 298.682L143.13 296.637L143.039 296.843L147.865 298.895L147.956 298.682ZM148.542 297.306L143.716 295.262L143.624 295.467L148.45 297.511L148.542 297.306ZM131.822 318.943L133.342 323.959L133.554 323.899L132.034 318.875L131.822 318.943ZM144.666 320.258V320.038L139.475 320.798V321.018L144.666 320.258ZM144.871 321.74V321.52L139.68 322.28V322.5L144.871 321.74ZM143.685 316.162L144.856 311.055L144.635 311.001L143.472 316.116L143.685 316.162ZM145.144 316.496L146.315 311.389L146.102 311.336L144.932 316.451L145.144 316.496ZM130.507 308.775L128.531 311.898L128.614 312.187L130.72 308.866L130.507 308.775ZM131.776 309.573L129.101 313.798L129.184 314.079L131.966 309.694L131.776 309.573ZM127.003 304.389L127.094 304.595L131.898 302.497L131.806 302.292L127.003 304.389ZM132.498 303.873L132.407 303.667L127.604 305.765L127.687 305.97L132.498 303.873ZM123.264 301.593L123.044 301.524L121.6 306.533L121.812 306.593L123.264 301.593ZM120.391 306.229L121.82 301.182L121.607 301.121L120.178 306.168L120.391 306.229ZM140.964 304.002L139.444 298.986L139.232 299.047L140.752 304.07L140.964 304.002ZM137.803 299.442L139.323 304.458L139.536 304.397L138.016 299.381L137.803 299.442ZM130.514 286.522L126.334 289.683L126.471 289.858L130.651 286.704L130.514 286.522ZM127.231 290.877L127.368 291.059L131.556 287.897L131.419 287.723L127.231 290.877ZM122.086 281.757L123.538 286.788L123.758 286.727L122.299 281.688L122.086 281.757ZM120.65 282.167L122.101 287.206L122.314 287.145L120.84 282.167H120.65ZM115.33 287.099H115.558L115.862 281.863H115.634L115.33 287.099ZM117.351 281.969H117.131L116.827 287.206H117.047L117.351 281.969ZM119.19 320.494L115.983 317.157L115.824 317.309L119.038 320.653L119.19 320.494ZM114.904 318.214L114.76 318.442L118.012 321.824L118.164 321.664L114.904 318.214ZM152.904 289.182L152.729 289.045L149.438 293.119L149.613 293.263L152.904 289.182ZM151.566 288.103L148.268 292.176L148.443 292.321L151.741 288.239L151.566 288.103ZM152.501 280.442H152.273L151.688 285.648H151.908L152.501 280.442ZM150.784 280.244L150.198 285.458H150.426L151.012 280.252L150.784 280.244ZM139.467 313.76L134.641 311.716L134.558 311.921L139.384 313.965L139.467 313.76ZM140.052 312.377L135.226 310.333L135.143 310.538L139.969 312.582L140.052 312.377ZM109.956 286.605L109.812 286.438L109.637 286.59L109.257 287.213L109.956 286.605ZM112.609 292.587L107.973 294.403V294.639L112.692 292.792L112.609 292.587ZM112.145 291.401L112.062 291.188L107.973 292.792V293.035L112.145 291.401ZM110.754 302.307L110.808 302.087L107.973 301.448V301.676L110.754 302.307ZM111.089 300.848L111.134 300.627L107.973 299.913V300.141L111.089 300.848ZM110.747 318.442L110.808 318.229L107.973 317.507V317.743L110.747 318.442ZM107.973 316.162L111.119 316.967L111.172 316.747L107.973 315.934V316.162ZM111.484 322.949L111.416 322.736L107.973 323.868V324.111L111.484 322.949ZM111.013 321.527L110.944 321.315L107.973 322.295V322.531L111.013 321.527ZM154.28 277.599L154.477 277.706L156.096 274.879H155.8L154.28 277.599ZM155.579 278.359L155.777 278.466L157.821 274.894H157.563L155.579 278.359ZM149.59 276.839L147.987 274.879H147.698L149.416 276.976L149.59 276.839ZM150.571 276.034L150.746 275.889L149.925 274.879H149.628L150.571 276.034ZM143.366 279.469L141.709 274.909H141.474L143.153 279.575L143.366 279.469ZM144.567 279.036L144.78 278.96L143.305 274.879H143.062L144.567 279.036ZM133.699 277.356L133.919 277.409L134.558 274.879H134.33L133.699 277.356ZM135.15 277.729L135.363 277.782L136.123 274.879H135.888L135.15 277.729ZM117.564 276.923L117.784 276.984L118.377 274.879H118.142L117.564 276.923ZM119.935 274.879H119.7L119.008 277.326L119.221 277.394L119.935 274.879ZM159.752 333.133L161.895 334.288V334.029L159.858 332.935L159.752 333.133ZM160.572 331.613L160.466 331.81L161.895 332.57V332.319L160.572 331.613ZM161.88 342.215V341.918L159.752 343.757L159.904 343.925L161.88 342.215ZM161.88 340.239V339.942L158.779 342.625L158.923 342.792L161.88 340.239ZM161.636 348.386L161.72 348.599L161.88 348.538V348.295L161.636 348.386ZM161.089 346.995L161.173 347.208L161.88 346.927V346.683L161.089 346.995ZM159.569 354.831L159.524 355.051L161.849 355.575V355.34L159.569 354.831ZM161.849 353.805L159.904 353.364L159.85 353.584L161.849 354.04V353.805ZM140.881 335.998L144.202 340.056L144.377 339.912L141.056 335.861L140.881 335.998ZM143.214 340.862L139.893 336.811L139.726 336.948L143.039 341.006L143.214 340.862ZM136.997 343.522L135.477 339.281L135.371 339.653L136.792 343.598L136.997 343.522ZM138.403 343.013L136.625 338.08L136.412 338.156L138.19 343.089L138.403 343.013ZM135.363 348.72L135.166 348.606L132.559 353.166L132.756 353.28L135.363 348.72ZM133.843 347.869L132.24 350.742L131.989 351.631L134.094 347.953L133.843 347.869ZM154.979 347.991L154.766 347.937L153.474 353.014L153.694 353.067L154.979 347.991ZM156.438 348.355L156.218 348.302L154.926 353.387L155.146 353.44L156.438 348.355ZM147.956 352.642L143.13 350.597L143.039 350.803L147.865 352.847L147.956 352.642ZM148.542 351.259L143.716 349.214L143.624 349.419L148.45 351.471L148.542 351.259ZM139.239 352.999L140.197 356.176H140.432L139.452 352.931L139.239 352.999ZM138.023 353.364L137.803 353.425L138.631 356.176H138.867L138.023 353.364ZM152.912 343.18L152.737 343.035L149.446 347.109L149.621 347.253L152.912 343.18ZM151.574 342.093L148.276 346.167L148.45 346.311L151.749 342.237L151.574 342.093ZM152.501 334.371H152.273L151.688 339.577H151.908L152.501 334.371ZM150.784 334.181L150.198 339.387H150.426L151.012 334.174L150.784 334.181ZM154.47 331.666L156.088 328.839H155.8L154.28 331.552L154.47 331.666ZM157.555 328.839L155.572 332.297L155.769 332.411L157.814 328.839H157.555ZM149.408 330.936L149.583 330.792L147.979 328.839H147.69L149.408 330.936ZM150.563 329.986L150.738 329.842L149.917 328.839H149.621L150.563 329.986ZM143.358 333.421L141.702 328.861H141.466L143.146 333.52L143.358 333.421ZM144.559 332.996L144.772 332.912L143.298 328.839H143.054L144.559 332.996ZM133.995 330.1L134.124 330.518L134.55 328.839H134.322L133.995 330.1ZM135.143 331.681L135.356 331.734L136.116 328.839H135.88L135.143 331.681ZM107.73 294.509L107.813 294.722L107.973 294.654V294.418L107.73 294.509ZM107.973 292.807L107.213 293.119L107.296 293.324L108.003 293.05L107.973 292.807ZM105.64 301.167L107.973 301.691V301.463L105.693 300.947L105.64 301.167ZM105.974 299.708L107.973 300.156V299.928L106.02 299.442L105.974 299.708ZM107.973 317.522L105.693 316.952L105.64 317.173L107.92 317.758L107.973 317.522ZM106.096 315.501L106.042 315.721L107.973 316.207V315.979L106.096 315.501ZM107.973 324.157V323.914L106.453 324.423L106.521 324.636L107.973 324.157ZM107.973 322.576V322.341L105.966 323.002L106.035 323.215L107.973 322.576ZM103.154 327.136L102.964 327.03L101.916 328.861H102.174L103.154 327.136ZM104.454 327.896L104.264 327.782L103.641 328.877H103.899L104.454 327.896ZM92.1723 326.916L93.7683 328.877H94.0647L92.3471 326.771L92.1723 326.916ZM93.3275 325.966L95.7063 328.877H95.9951L93.5023 325.837L93.3275 325.966ZM89.0715 328.025L88.8587 328.101L89.1399 328.861H89.3831L89.0715 328.025ZM85.8035 283.109L86.5635 284.082L85.8035 283.071V283.109ZM81.0839 284.804L82.8699 289.729L83.0751 289.653L81.3195 284.652L81.0839 284.804ZM82.4975 284.295L84.2759 289.22L84.4887 289.144L82.7103 284.219L82.4975 284.295ZM101.08 320.593L96.2535 318.548L96.1699 318.753L100.996 320.798L101.08 320.593ZM100.494 321.976L95.6759 319.924L95.5847 320.137L100.411 322.181L100.494 321.976ZM101.08 307.217L99.6507 312.263L99.8635 312.324L101.292 307.277L101.08 307.217ZM102.736 307.688L102.516 307.627L101.095 312.666L101.308 312.727L102.736 307.688ZM95.0071 308.227L93.4871 303.211L93.2743 303.272L94.7943 308.296L95.0071 308.227ZM96.4359 307.794L94.9159 302.778L94.7031 302.839L96.2231 307.863L96.4359 307.794ZM81.4487 294.783L81.2587 294.669L78.6519 299.229L78.8495 299.335L81.4487 294.783ZM80.1491 294.023L79.9591 293.909L77.3523 298.469L77.5499 298.575L80.1491 294.023ZM94.0343 298.682L89.2083 296.637L89.1247 296.843L93.9507 298.895L94.0343 298.682ZM94.6195 297.306L89.7935 295.262L89.7099 295.467L94.5359 297.511L94.6195 297.306ZM85.5451 320.988L90.7359 320.228V320.007L85.5451 320.767V320.988ZM85.7579 322.47L90.9487 321.71V321.489L85.7579 322.249V322.47ZM89.5579 316.086L89.7783 316.131L90.9487 311.024L90.7283 310.971L89.5579 316.086ZM92.1875 311.305L91.0171 316.42L91.2375 316.466L92.4079 311.359L92.1875 311.305ZM77.8995 302.261L75.9007 303.135L75.9767 303.348L77.9907 302.467L77.8995 302.261ZM78.4923 303.637L76.3871 304.557L76.4631 304.769L78.5835 303.842L78.4923 303.637ZM85.3323 299.077L86.8523 304.101L87.0727 304.032L85.5527 299.016L85.3323 299.077ZM83.8959 299.51L85.4159 304.526L85.6363 304.465L84.1163 299.449L83.8959 299.51ZM72.4199 289.79L72.5567 289.965L76.7443 286.811L76.6075 286.628L72.4199 289.79ZM77.6487 288.004L77.5119 287.829L73.3243 290.983L73.4611 291.165L77.6487 288.004ZM85.5603 313.775L80.7343 311.731L80.6431 311.936L85.4691 313.981L85.5603 313.775ZM81.2283 310.553L86.0543 312.597L86.1455 312.392L81.3195 310.31L81.2283 310.553ZM105.944 332.973L105.837 333.171L106.027 333.019L105.944 332.973ZM106.65 331.658L106.544 331.856L107.099 332.152L107.281 331.993L106.65 331.658ZM98.0395 337.145H98.2675L98.5791 334.333H98.3587L98.0395 337.145ZM96.5195 336.887L96.7399 336.955L97.0515 334.166H96.8311L96.5195 336.887ZM102.136 328.801H101.878L100.358 331.514L100.548 331.628L102.136 328.801ZM103.861 328.801H103.603L101.619 332.259L101.817 332.373L103.861 328.801ZM95.4555 330.898L95.6227 330.754L94.0267 328.801H93.7303L95.4555 330.898ZM96.6107 329.948L96.7855 329.804L95.9571 328.801H95.6683L96.6107 329.948ZM89.1019 328.801L90.1887 331.841L90.6067 332.327L89.3451 328.831L89.1019 328.801Z" fill="white"/>
<path d="M152.121 248.521C152.121 248.521 139.779 246.803 134.079 250.489C128.379 254.175 100.213 302.314 100.213 302.314L84.656 281.376L71.166 287.433C71.166 287.433 77.4892 311.905 84.846 324.08C92.2028 336.255 96.398 337.486 98.9212 337.084C106.43 335.89 128.181 310.727 128.181 310.727L136.085 337.023L130.72 356.137H230.66L218.538 335.921C218.538 335.921 234.353 262.961 230.325 255.232C226.297 247.502 202.828 248.521 195.449 248.521H174.321C171.119 249.156 167.865 249.492 164.6 249.524C160.426 249.402 156.261 249.068 152.121 248.521Z" stroke="#263238" stroke-width="0.748853"/>
<path d="M128.188 310.725C125.295 304.944 124.172 298.438 124.958 292.021C126.425 281.784 132.764 270.574 132.764 270.574C132.764 270.574 120.117 288.814 120.117 294.894C120.117 300.974 123.879 309.866 123.879 309.866L120.596 319.237L128.188 310.725Z" fill="#263238" stroke="#263238" stroke-width="0.748853" stroke-linecap="round" stroke-linejoin="round"/>
<path d="M162.587 238.434L162.921 249.165L153.87 249.5C153.87 249.5 152 288.875 160.056 295.921C168.112 302.966 192.432 248.519 192.432 248.519L184.072 246.84L181.389 225.043L162.587 238.434Z" fill="#CFCFCF" stroke="#263238" stroke-width="0.748853" stroke-linecap="round" stroke-linejoin="round"/>
<path d="M182.353 229.301L162.996 247.541V241.088L182.353 229.301Z" fill="#263238" stroke="#263238" stroke-width="0.748853" stroke-linecap="round" stroke-linejoin="round"/>
<path d="M160.055 295.923C160.055 295.923 161.027 289.585 165.899 281.301L160.055 295.923Z" fill="white"/>
<path d="M160.055 295.923C160.055 295.923 161.027 289.585 165.899 281.301" stroke="#263238" stroke-width="0.748853" stroke-linecap="round" stroke-linejoin="round"/>
<path d="M158.686 177.922L136.646 200.836C138.378 205.713 139.217 210.862 139.124 216.036C138.866 224.153 146.245 236.092 152.28 241.64C158.314 247.188 170.626 238.661 175.224 235.651C178.295 233.57 181.158 231.198 183.774 228.568C185.451 228.496 187.082 227.999 188.515 227.124C189.948 226.249 191.136 225.026 191.967 223.567C191.967 223.567 159.94 189.345 158.686 177.922Z" fill="#CFCFCF" stroke="#263238" stroke-width="0.748853" stroke-linecap="round" stroke-linejoin="round"/>
<path d="M152.713 201.453C153.475 203.006 153.968 204.676 154.172 206.393C154.24 208.514 150.524 218.447 151.056 219.108C151.588 219.769 153.252 221.958 154.552 221.677" stroke="#263238" stroke-width="0.748853" stroke-linecap="round" stroke-linejoin="round"/>
<path d="M161.879 212.313C164.984 211.15 168.399 211.109 171.531 212.199" stroke="#263238" stroke-width="0.374426" stroke-linecap="round" stroke-linejoin="round"/>
<path d="M144.727 213.105C146.387 212.639 148.102 212.399 149.826 212.391" stroke="#263238" stroke-width="0.374426" stroke-linecap="round" stroke-linejoin="round"/>
<path d="M149.931 195.836C149.08 195.773 148.225 195.907 147.434 196.229C146.643 196.55 145.937 197.051 145.371 197.69C143.464 199.887 142.537 201.802 142.058 200.251C141.579 198.701 143.707 195.851 144.459 195.273C145.212 194.696 148.738 192.431 149.931 195.836Z" fill="#263238"/>
<path d="M159.363 194.561C161.599 194.552 163.805 195.073 165.8 196.081C168.711 197.677 167.32 194.439 165.276 193.512C163.232 192.585 159.69 192.676 159.363 194.561Z" fill="#263238"/>
<path d="M193.107 232.676C193.244 234.956 192.066 236.856 190.493 236.947C188.92 237.038 187.529 235.275 187.392 233.01C187.255 230.745 188.205 224.901 189.778 224.81C191.352 224.718 192.978 230.403 193.107 232.676Z" fill="#BAE4FF" stroke="#263238" stroke-width="0.748853" stroke-linecap="round" stroke-linejoin="round"/>
<path d="M149.027 208.999C149.134 210.519 148.556 211.751 147.743 211.804C146.93 211.857 146.223 210.694 146.094 209.205C145.965 207.715 146.565 206.453 147.378 206.4C148.191 206.347 148.959 207.54 149.027 208.999Z" fill="#263238"/>
<path d="M165.427 208.413C165.534 209.933 164.956 211.157 164.151 211.218C163.345 211.279 162.631 210.108 162.494 208.611C162.357 207.114 162.973 205.867 163.778 205.814C164.584 205.761 165.329 206.924 165.427 208.413Z" fill="#263238"/>
<path d="M154.445 226.003C154.445 226.003 158.314 227.242 163.565 222.75" stroke="#263238" stroke-width="0.748853" stroke-linecap="round" stroke-linejoin="round"/>
<path d="M84.656 281.389L77.5804 271.912C77.2536 269.389 76.6228 264.175 76.5164 260.656C76.372 255.868 76.6076 252.942 73.8868 248.694C71.166 244.446 63.5736 237.735 62.8592 236.177C62.1448 234.619 60.0776 239.012 61.3772 241.862C62.6768 244.712 63.8624 245.586 63.8624 245.586C63.8624 245.586 49.886 238.639 49.4224 239.772C48.9588 240.904 55.928 260.93 59.12 266.212C60.45 268.416 64.136 271.365 65.9144 273.918C66.7842 275.178 67.53 276.52 68.1412 277.924C69.798 284.969 71.7284 292.721 72.7012 293.002C74.9128 293.648 84.2988 293.8 84.656 281.389Z" fill="#CFCFCF" stroke="#263238" stroke-width="0.748853" stroke-miterlimit="10"/>
<path d="M64.7896 259.616C64.6619 259.65 64.5286 259.659 64.3974 259.642C64.2662 259.624 64.1398 259.581 64.0254 259.515C63.9109 259.448 63.8108 259.36 63.7306 259.255C63.6505 259.149 63.592 259.029 63.5584 258.901L52.4396 217.793C52.3802 217.544 52.4179 217.282 52.545 217.061C52.6721 216.839 52.8791 216.674 53.1236 216.6C53.3806 216.532 53.6538 216.568 53.8842 216.701C54.1146 216.833 54.2837 217.051 54.3548 217.307L65.504 258.4C65.5669 258.656 65.5274 258.926 65.3939 259.153C65.2605 259.38 65.0437 259.546 64.7896 259.616Z" fill="#263238" stroke="#263238" stroke-width="0.748853" stroke-miterlimit="10"/>
<path d="M56.7712 233.465C56.7712 233.465 46.04 239.134 46.7012 240.244C47.3624 241.354 49.3232 245.313 50.22 245.222C51.1168 245.131 57.63 239.811 58.1012 239.142C58.5724 238.473 56.7712 233.465 56.7712 233.465Z" fill="#CFCFCF" stroke="#263238" stroke-width="0.748853" stroke-miterlimit="10"/>
<path d="M58.6856 240.426C58.6856 240.426 49.7708 247 50.0596 247.957C50.3484 248.915 54.7184 260.247 55.4784 261.166C56.2384 262.086 63.2152 258.886 63.2152 258.886L58.6856 240.426Z" fill="#CFCFCF" stroke="#263238" stroke-width="0.748853" stroke-miterlimit="10"/>
<path d="M60.0381 246.535C60.0381 246.535 51.5033 253.238 52.0657 253.451" stroke="#263238" stroke-width="0.748853" stroke-miterlimit="10"/>
<path d="M61.651 253.801L54.4766 258.004" stroke="#263238" stroke-width="0.748853" stroke-miterlimit="10"/>
<path d="M63.8398 245.586L67.7766 249.432C67.7766 249.432 62.5478 260.596 67.5562 266.76" stroke="#263238" stroke-width="0.748853" stroke-miterlimit="10"/>
<path d="M219.176 250.9C219.176 250.9 228.729 249.653 232.856 257.55C236.982 265.446 262.769 335.237 263.187 341.91C263.605 348.583 246.148 350.217 240.334 347.313C234.52 344.41 218.294 309.921 216.652 305.346" fill="#BAE4FF"/>
<path d="M222.213 299.227L220.797 304.262L221.016 304.323L222.432 299.289L222.213 299.227Z" fill="white"/>
<path d="M225.514 285.031L224.062 279.992L223.842 280.061L225.301 285.092L225.514 285.031Z" fill="white"/>
<path d="M224.802 299.725L223.371 304.77L223.59 304.832L225.022 299.787L224.802 299.725Z" fill="white"/>
<path d="M227.004 296.422L223.683 292.363L223.508 292.508L226.829 296.558L227.004 296.422Z" fill="white"/>
<path d="M234.172 301.86L229.365 303.957L229.456 304.166L234.263 302.069L234.172 301.86Z" fill="white"/>
<path d="M233.721 307.907L233.531 307.785L230.727 312.216L230.917 312.338L233.721 307.907Z" fill="white"/>
<path d="M222.406 280.471L223.858 285.51L224.078 285.441L222.619 280.41L222.406 280.471Z" fill="white"/>
<path d="M229.459 311.411L229.649 311.533L232.453 307.11L232.263 306.988L229.459 311.411Z" fill="white"/>
<path d="M228.158 295.472L224.845 291.414L224.67 291.558L227.984 295.609L228.158 295.472Z" fill="white"/>
<path d="M233.184 286.013L228.992 289.164L229.129 289.346L233.321 286.196L233.184 286.013Z" fill="white"/>
<path d="M232.133 263.698L233.645 268.721L233.858 268.653L232.353 263.637L232.133 263.698Z" fill="white"/>
<path d="M232.414 285.014L232.277 284.832L228.09 287.986L228.227 288.168L232.414 285.014Z" fill="white"/>
<path d="M229.649 257.64L231.222 255.155C231.169 255.102 231.123 255.041 231.07 254.98L229.459 257.519L229.649 257.64Z" fill="white"/>
<path d="M225.051 267.102L225.233 267.239L228.418 263.074L228.243 262.938L225.051 267.102Z" fill="white"/>
<path d="M227.908 273.936L232.734 275.98L232.825 275.775L227.999 273.73L227.908 273.936Z" fill="white"/>
<path d="M233.57 263.264L235.083 268.288L235.296 268.219L233.791 263.203L233.57 263.264Z" fill="white"/>
<path d="M233.251 296.827L235.857 292.274L235.66 292.168L233.061 296.713L233.251 296.827Z" fill="white"/>
<path d="M227.42 275.125L227.334 275.328L232.161 277.376L232.248 277.173L227.42 275.125Z" fill="white"/>
<path d="M233.559 300.517L228.752 302.613L228.843 302.822L233.65 300.726L233.559 300.517Z" fill="white"/>
<path d="M245.48 347.418L245.396 347.623L247.821 348.657H248.414L245.48 347.418Z" fill="white"/>
<path d="M246.528 331.116L245.054 327.035L244.75 326.191L244.537 326.267L244.818 327.035L246.316 331.192L246.528 331.116Z" fill="white"/>
<path d="M241.482 335.191L244.804 339.25L244.971 339.105L241.657 335.047L241.482 335.191Z" fill="white"/>
<path d="M245.114 331.628L243.465 327.038L243.336 326.703L243.131 326.772L243.222 327.038L244.909 331.704L245.114 331.628Z" fill="white"/>
<path d="M246.589 319.762L241.398 320.491L241.429 320.712L246.62 319.982L246.589 319.762Z" fill="white"/>
<path d="M261.667 342.166L263.073 340.95L263.028 340.699L261.508 341.999L261.667 342.166Z" fill="white"/>
<path d="M223.865 266.188L224.04 266.325L227.232 262.16L227.05 262.023L223.865 266.188Z" fill="white"/>
<path d="M217.882 293.751L217.668 293.828L219.449 298.761L219.663 298.683L217.882 293.751Z" fill="white"/>
<path d="M260.68 341.035L262.686 339.302C262.661 339.222 262.641 339.141 262.625 339.059L260.535 340.867L260.68 341.035Z" fill="white"/>
<path d="M246.133 338.156L242.812 334.105L242.637 334.242L245.958 338.301L246.133 338.156Z" fill="white"/>
<path d="M218.908 280.277L218.604 285.512L218.831 285.525L219.136 280.29L218.908 280.277Z" fill="white"/>
<path d="M242.721 302.239L241.217 297.223L240.996 297.283L242.508 302.307L242.721 302.239Z" fill="white"/>
<path d="M238.383 282.371L238.176 282.445L239.956 287.378L240.163 287.303L238.383 282.371Z" fill="white"/>
<path d="M237.62 273.121L236.898 275.971L237.119 276.024L237.856 273.121L238.411 270.94L238.19 270.887L237.62 273.121Z" fill="white"/>
<path d="M236.078 273.123L235.447 275.6L235.668 275.653L236.306 273.123L236.96 270.577L236.739 270.523L236.078 273.123Z" fill="white"/>
<path d="M239.559 297.713L241.071 302.729L241.284 302.668L239.779 297.645L239.559 297.713Z" fill="white"/>
<path d="M236.963 282.902L236.756 282.977L238.537 287.909L238.744 287.834L236.963 282.902Z" fill="white"/>
<path d="M219.3 293.227L219.086 293.305L220.866 298.237L221.08 298.16L219.3 293.227Z" fill="white"/>
<path d="M230.917 258.399L232.193 256.385L232.057 256.172L230.727 258.285L230.917 258.399Z" fill="white"/>
<path d="M236.898 308.756L241.724 310.8L241.808 310.595L236.982 308.551L236.898 308.756Z" fill="white"/>
<path d="M223.636 254.555L223.439 254.441L220.832 258.986L221.03 259.1L223.636 254.555Z" fill="white"/>
<path d="M259.158 327.789L259.06 327.508L257.35 330.502L257.54 330.609L259.158 327.789Z" fill="white"/>
<path d="M254.257 332.577L254.036 332.555L253.443 337.761L253.671 337.783L254.257 332.577Z" fill="white"/>
<path d="M251.387 318.192L251.301 318.395L256.128 320.443L256.214 320.24L251.387 318.192Z" fill="white"/>
<path d="M257.844 327.034L258.505 325.886L258.414 325.598L257.585 327.034L256.027 329.755L256.225 329.861L257.844 327.034Z" fill="white"/>
<path d="M254.674 341.383L254.5 341.238L251.201 345.312L251.376 345.456L254.674 341.383Z" fill="white"/>
<path d="M255.975 318.491L251.962 316.789L251.879 316.994L256.074 318.773L255.975 318.491Z" fill="white"/>
<path d="M253.505 340.441L253.33 340.297L250.039 344.37L250.214 344.515L253.505 340.441Z" fill="white"/>
<path d="M248.078 309.6L247.858 309.547L246.688 314.654L246.908 314.707L248.078 309.6Z" fill="white"/>
<path d="M251.163 329.14L251.338 328.996L249.734 327.035L248.017 324.938L247.842 325.082L249.445 327.035L251.163 329.14Z" fill="white"/>
<path d="M222.131 259.728L222.328 259.842L224.935 255.29L224.738 255.184L222.131 259.728Z" fill="white"/>
<path d="M236.961 336.812L236.754 336.887L238.535 341.819L238.742 341.744L236.961 336.812Z" fill="white"/>
<path d="M256.803 346.209L256.582 346.148L256.18 347.729L256.431 347.661L256.803 346.209Z" fill="white"/>
<path d="M238.389 336.285L238.182 336.359L239.961 341.292L240.169 341.217L238.389 336.285Z" fill="white"/>
<path d="M245.389 293.709L247.395 294.56C247.395 294.462 247.319 294.363 247.289 294.272L245.472 293.512L245.389 293.709Z" fill="white"/>
<path d="M258.254 346.561L258.034 346.508L257.852 347.215L258.11 347.123L258.254 346.561Z" fill="white"/>
<path d="M232.24 331.07L228.258 329.383L228.425 329.694L232.149 331.275L232.24 331.07Z" fill="white"/>
<path d="M218.629 262.777L221.22 265.475L221.388 265.323L218.644 262.473L218.629 262.777Z" fill="white"/>
<path d="M241.482 281.277L243.261 283.443L243.01 282.79L241.68 281.133L241.482 281.277Z" fill="white"/>
<path d="M220.141 266.515L220.3 266.355L218.552 264.531L218.537 264.843L220.141 266.515Z" fill="white"/>
<path d="M248.982 301.514L250.495 306.538L250.708 306.469L249.203 301.453L248.982 301.514Z" fill="white"/>
<path d="M232.825 329.697L227.999 327.645L227.908 327.85L232.734 329.902L232.825 329.697Z" fill="white"/>
<path d="M227.232 316.082L227.05 315.945L223.865 320.103L224.04 320.239L227.232 316.082Z" fill="white"/>
<path d="M235.296 322.141L233.791 317.117L233.57 317.186L235.083 322.202L235.296 322.141Z" fill="white"/>
<path d="M233.858 322.574L232.353 317.551L232.133 317.619L233.645 322.635L233.858 322.574Z" fill="white"/>
<path d="M228.418 316.989L228.243 316.859L225.051 321.017L225.233 321.153L228.418 316.989Z" fill="white"/>
<path d="M220.756 275.57L220.976 275.631L221.683 273.123L222.397 270.592L222.185 270.523L221.447 273.123L220.756 275.57Z" fill="white"/>
<path d="M219.89 273.123L219.312 275.167L219.533 275.228L220.126 273.123L220.954 270.182L220.741 270.121L219.89 273.123Z" fill="white"/>
<path d="M223.636 308.469L223.439 308.355L220.832 312.908L221.03 313.014L223.636 308.469Z" fill="white"/>
<path d="M224.935 309.216L224.738 309.102L222.131 313.654L222.328 313.76L224.935 309.216Z" fill="white"/>
<path d="M236.966 292.91L234.359 297.455L234.549 297.569L237.156 293.017L236.966 292.91Z" fill="white"/>
<path d="M246.399 309.215L245.229 314.322L245.449 314.375L246.619 309.268L246.399 309.215Z" fill="white"/>
<path d="M247.995 296.194L244.886 294.879L244.803 295.084L248.101 296.482C248.063 296.399 248.033 296.293 247.995 296.194Z" fill="white"/>
<path d="M246.415 318.502L246.384 318.281L241.193 319.011L241.224 319.231L246.415 318.502Z" fill="white"/>
<path d="M249.181 323.988L249.006 324.133L251.385 327.036L252.327 328.191L252.502 328.047L251.673 327.036L249.181 323.988Z" fill="white"/>
<path d="M237.856 327.035L238.411 324.862L238.19 324.809L237.62 327.035L236.898 329.885L237.119 329.939L237.856 327.035Z" fill="white"/>
<path d="M236.401 309.953L236.314 310.156L241.142 312.204L241.228 312.001L236.401 309.953Z" fill="white"/>
<path d="M236.306 327.037L236.96 324.491L236.739 324.438L236.078 327.037L235.447 329.514L235.668 329.575L236.306 327.037Z" fill="white"/>
<path d="M252.183 337.616L252.768 332.41L252.548 332.387L251.955 337.593L252.183 337.616Z" fill="white"/>
<path d="M219.176 250.9C219.176 250.9 228.729 249.653 232.856 257.55C236.982 265.446 262.769 335.237 263.187 341.91C263.605 348.583 246.148 350.217 240.334 347.313C234.52 344.41 218.294 309.921 216.652 305.346" stroke="#263238" stroke-width="0.748853"/>
<path d="M161.422 346.042C161.422 346.042 141.898 343.549 138.569 343.96C135.24 344.37 120.291 354.349 120.291 354.349H162.638L161.422 346.042Z" fill="#CFCFCF" stroke="#263238" stroke-width="0.748853" stroke-linecap="round" stroke-linejoin="round"/>
<path d="M242.021 332.743L161.461 346.043L162.639 354.35H261.971C262.743 350.239 263.16 346.069 263.217 341.886C263.217 335.654 259.478 328.594 259.478 328.594" fill="#BAE4FF"/>
<path d="M248.693 346.463L250.206 351.479L250.419 351.418L248.914 346.395L248.693 346.463Z" fill="white"/>
<path d="M254.211 332.266L250.912 336.339L251.087 336.484L254.385 332.41L254.211 332.266Z" fill="white"/>
<path d="M249.75 335.394L249.925 335.538L253.216 331.465L253.041 331.32L249.75 335.394Z" fill="white"/>
<path d="M239.27 342.655L240.782 347.678L240.995 347.61L239.49 342.594L239.27 342.655Z" fill="white"/>
<path d="M251.856 350.985L250.344 345.961L250.131 346.029L251.643 351.045L251.856 350.985Z" fill="white"/>
<path d="M242.432 347.184L240.927 342.16L240.707 342.229L242.219 347.245L242.432 347.184Z" fill="white"/>
<path d="M256.299 337.179L255.008 342.262L255.229 342.318L256.52 337.235L256.299 337.179Z" fill="white"/>
<path d="M255.375 354.35H255.611L256.713 350.459L256.492 350.398L255.375 354.35Z" fill="white"/>
<path d="M236.693 353.492L236.609 353.697L238.145 354.351H238.722L236.693 353.492Z" fill="white"/>
<path d="M257.731 337.511L256.439 342.594L256.66 342.65L257.952 337.567L257.731 337.511Z" fill="white"/>
<path d="M219.005 338.169L218.791 338.246L220.571 343.179L220.785 343.101L219.005 338.169Z" fill="white"/>
<path d="M244.514 340.033L249.332 342.078L249.423 341.872L244.597 339.82L244.514 340.033Z" fill="white"/>
<path d="M246.11 354.16L246.064 354.35H246.292L246.33 354.206L246.11 354.16Z" fill="white"/>
<path d="M245.184 338.461L245.098 338.664L249.925 340.712L250.011 340.509L245.184 338.461Z" fill="white"/>
<path d="M223.219 337.449L226.54 341.507L226.715 341.363L223.394 337.305L223.219 337.449Z" fill="white"/>
<path d="M227.869 340.41L224.548 336.359L224.381 336.496L227.694 340.555L227.869 340.41Z" fill="white"/>
<path d="M260.398 332.061L260.862 331.658L260.771 331.438L260.254 331.894L260.398 332.061Z" fill="white"/>
<path d="M223.072 344.26L221.641 349.305L221.86 349.367L223.291 344.322L223.072 344.26Z" fill="white"/>
<path d="M261.363 342.849L263.195 343.267C263.195 343.191 263.195 343.115 263.195 343.039L261.401 342.629L261.363 342.849Z" fill="white"/>
<path d="M233.243 352.73L232.217 354.349H232.483L233.433 352.844L233.243 352.73Z" fill="white"/>
<path d="M263.142 344.561L261.083 344.098L261.029 344.31L263.127 344.789C263.135 344.713 263.142 344.637 263.142 344.561Z" fill="white"/>
<path d="M261.379 333.192L261.432 333.146L261.348 332.918L261.234 333.024L261.379 333.192Z" fill="white"/>
<path d="M233.268 345.451L228.461 347.547L228.552 347.756L233.359 345.66L233.268 345.451Z" fill="white"/>
<path d="M232.165 352.047L231.975 351.926L230.439 354.35H230.705L232.165 352.047Z" fill="white"/>
<path d="M224.529 344.709L223.098 349.754L223.317 349.816L224.748 344.771L224.529 344.709Z" fill="white"/>
<path d="M233.883 346.805L229.076 348.902L229.167 349.111L233.974 347.014L233.883 346.805Z" fill="white"/>
<path d="M236.869 337.966L236.679 337.852L234.072 342.404L234.262 342.518L236.869 337.966Z" fill="white"/>
<path d="M232.771 341.658L232.961 341.764L235.568 337.219L235.371 337.105L232.771 341.658Z" fill="white"/>
<path d="M179.356 345.455L174.549 347.551L174.64 347.76L179.447 345.664L179.356 345.455Z" fill="white"/>
<path d="M169.433 353.407L169.235 353.301L168.635 354.35H168.893L169.433 353.407Z" fill="white"/>
<path d="M167.943 349.371L169.25 344.75L169.007 344.788L167.73 349.31L167.943 349.371Z" fill="white"/>
<path d="M170.734 354.153L170.536 354.047L170.361 354.351H170.62L170.734 354.153Z" fill="white"/>
<path d="M196.003 340.694L196.094 340.489L195.805 340.375L195.395 340.436L196.003 340.694Z" fill="white"/>
<path d="M201.461 354.35H201.697L202.791 350.459L202.578 350.398L201.461 354.35Z" fill="white"/>
<path d="M203.428 339.112L202.539 342.623L202.752 342.684L203.671 339.074L203.428 339.112Z" fill="white"/>
<path d="M178.249 352.047L178.059 351.926L176.523 354.35H176.789L178.249 352.047Z" fill="white"/>
<path d="M179.519 352.844L179.329 352.73L178.295 354.349H178.561L179.519 352.844Z" fill="white"/>
<path d="M224.45 354.047L224.275 354.351H224.534L224.648 354.153L224.45 354.047Z" fill="white"/>
<path d="M257.935 350.809L256.932 354.35H257.167L258.148 350.869L257.935 350.809Z" fill="white"/>
<path d="M217.593 338.688L217.379 338.766L219.16 343.698L219.374 343.621L217.593 338.688Z" fill="white"/>
<path d="M204.013 350.809L203.018 354.35H203.246L204.234 350.869L204.013 350.809Z" fill="white"/>
<path d="M182.779 353.492L182.688 353.697L184.23 354.351H184.8L182.779 353.492Z" fill="white"/>
<path d="M223.347 353.407L223.149 353.301L222.549 354.35H222.807L223.347 353.407Z" fill="white"/>
<path d="M169.453 344.356L168.037 349.391L168.256 349.452L169.672 344.418L169.453 344.356Z" fill="white"/>
<path d="M212.685 348.17L212.472 348.086L210.557 352.965L210.762 353.049L212.685 348.17Z" fill="white"/>
<path d="M179.955 346.826L175.148 348.922L175.24 349.131L180.046 347.035L179.955 346.826Z" fill="white"/>
<path d="M214.075 348.713L213.862 348.637L211.947 353.516L212.16 353.592L214.075 348.713Z" fill="white"/>
<path d="M207.113 344.318L209.439 344.842L212.22 345.466L212.274 345.245L209.439 344.607L207.159 344.098L207.113 344.318Z" fill="white"/>
<path d="M212.556 344.005L212.609 343.784L209.44 343.07L207.495 342.629L207.441 342.849L209.44 343.298L212.556 344.005Z" fill="white"/>
<path d="M201.308 342.311L202.061 339.34L201.817 339.378L201.088 342.258L201.308 342.311Z" fill="white"/>
<path d="M195.51 341.869L193.047 340.82L192.637 340.889L195.418 342.074L195.51 341.869Z" fill="white"/>
<path d="M188.296 347.245L188.516 347.184L187.004 342.16L186.791 342.229L188.296 347.245Z" fill="white"/>
<path d="M187.081 347.61L185.568 342.594L185.355 342.655L186.868 347.678L187.081 347.61Z" fill="white"/>
<path d="M194.779 346.463L196.292 351.479L196.504 351.418L194.992 346.395L194.779 346.463Z" fill="white"/>
<path d="M192.188 354.16L192.143 354.35H192.378L192.409 354.206L192.188 354.16Z" fill="white"/>
<path d="M197.94 350.985L196.428 345.961L196.215 346.029L197.72 351.045L197.94 350.985Z" fill="white"/>
<path d="M242.021 332.743L161.461 346.043L162.639 354.35H261.971C262.743 350.239 263.16 346.069 263.217 341.886C263.217 335.654 259.478 328.594 259.478 328.594" stroke="#263238" stroke-width="0.748853"/>
<path d="M259.737 353.006H159.6L156.317 297.921C156.227 297.384 156.256 296.835 156.4 296.31C156.545 295.786 156.801 295.299 157.153 294.884C157.504 294.469 157.942 294.136 158.435 293.907C158.929 293.678 159.466 293.559 160.01 293.559H259.312C259.856 293.558 260.394 293.676 260.888 293.904C261.382 294.133 261.82 294.466 262.172 294.882C262.524 295.297 262.781 295.784 262.925 296.309C263.069 296.834 263.096 297.384 263.005 297.921L259.737 353.006Z" fill="#263238" stroke="#263238" stroke-width="0.748853" stroke-linecap="round" stroke-linejoin="round"/>
<path d="M164.518 294.883H258.59C259.122 294.877 259.647 294.988 260.132 295.207C260.616 295.425 261.046 295.747 261.393 296.15C261.739 296.552 261.994 297.025 262.139 297.537C262.283 298.048 262.315 298.584 262.231 299.109" stroke="white" stroke-width="0.748853" stroke-linecap="round" stroke-linejoin="round"/>
<path d="M157.061 298.265C157.132 297.34 157.551 296.477 158.234 295.849C158.916 295.222 159.812 294.876 160.739 294.883" stroke="white" stroke-width="0.748853" stroke-linecap="round" stroke-linejoin="round"/>
<path d="M260.155 347.641H159.166V353.006H260.155V347.641Z" fill="white" stroke="#263238" stroke-width="0.748853" stroke-linecap="round" stroke-linejoin="round"/>
<path d="M216.463 323.501C216.463 325.872 213.256 327.795 209.304 327.795C205.352 327.795 202.152 325.872 202.152 323.501C202.152 321.13 205.36 319.207 209.304 319.207C213.248 319.207 216.463 321.13 216.463 323.501Z" fill="white" stroke="#263238" stroke-width="0.748853" stroke-linecap="round" stroke-linejoin="round"/>
<path d="M59.9957 347.471C57.8732 347.366 55.7886 346.869 53.8473 346.005C53.3528 345.767 52.9693 345.347 52.7769 344.833C52.5846 344.319 52.5982 343.751 52.815 343.246C53.0317 342.742 53.4349 342.341 53.9402 342.127C54.4455 341.913 55.014 341.903 55.5269 342.098C57.4877 342.934 60.0033 343.451 60.6797 343.162C61.9109 341.771 63.8185 333.373 61.3561 329.368C61.2268 329.086 61.0316 328.838 60.787 328.646C60.5424 328.455 60.2554 328.324 59.9501 328.266C58.5517 328.076 56.4845 329.513 55.7549 330.197C55.3389 330.558 54.7987 330.745 54.2481 330.716C53.6976 330.687 53.1796 330.446 52.8033 330.043C52.427 329.64 52.2217 329.107 52.2308 328.556C52.2398 328.005 52.4624 327.479 52.8517 327.088C53.2393 326.723 56.7657 323.554 60.5125 324.048C61.4425 324.187 62.3283 324.538 63.1017 325.072C63.8751 325.607 64.5155 326.313 64.9737 327.134C68.5989 333.031 66.1213 344.279 63.3321 346.483C62.3637 347.181 61.1876 347.529 59.9957 347.471Z" fill="#263238" stroke="#263238" stroke-width="0.748853" stroke-linecap="round" stroke-linejoin="round"/>
<path d="M56.2331 322.316H32.7871V353.438H56.2331V322.316Z" fill="#263238" stroke="#263238" stroke-width="0.748853" stroke-linecap="round" stroke-linejoin="round"/>
<path d="M34.9141 320.615C34.9141 320.615 34.9141 318.023 39.6641 315.432C44.4141 312.84 47.0057 308.956 44.4141 301.615C41.8225 294.273 42.2557 289.09 47.4541 284.766" stroke="#263238" stroke-width="0.748853" stroke-linecap="round" stroke-linejoin="round"/>
<path d="M35.9941 292.989C36.2373 289.835 37.6433 287.167 40.5541 284.766" stroke="#263238" stroke-width="0.748853" stroke-linecap="round" stroke-linejoin="round"/>
<path d="M37.507 301.614C37.0325 300.305 36.649 298.964 36.3594 297.602" stroke="#263238" stroke-width="0.748853" stroke-linecap="round" stroke-linejoin="round"/>
<path d="M54.2031 304.147C54.0211 303.287 53.7799 302.442 53.4811 301.616L53.0859 300.445" stroke="#263238" stroke-width="0.748853" stroke-linecap="round" stroke-linejoin="round"/>
<path d="M43.9824 320.614C43.9824 320.614 43.9824 318.022 48.7324 315.43C51.8484 313.728 54.0524 311.471 54.44 308.051" stroke="#263238" stroke-width="0.748853" stroke-linecap="round" stroke-linejoin="round"/>
<path d="M364.822 352.906H11.0879V360.734H364.822V352.906Z" fill="#263238"/>
</g>
<defs>
<clipPath id="clip0_1050_11198">
<rect width="380" height="380" fill="white"/>
</clipPath>
</defs>
</svg>
