<svg width="20" height="20" viewBox="0 0 20 20" fill="none" xmlns="http://www.w3.org/2000/svg">
<g clip-path="url(#clip0_703_4688)">
<path d="M1.62228 6.04801L4.21566 7.54485C4.58235 7.75588 5.05096 7.63091 5.26314 7.26496C5.47417 6.89827 5.34802 6.42936 4.98221 6.21864L2.38898 4.7215C2.022 4.5096 1.55338 4.63574 1.34237 5.00243C1.13046 5.36838 1.25558 5.83698 1.62227 6.04799L1.62228 6.04801Z" fill="white"/>
<path d="M3.14912 13.0705L1.62111 13.9538C1.25663 14.1646 1.13153 14.6353 1.34342 15.0001C1.55562 15.3659 2.02526 15.49 2.39003 15.2788L3.91774 14.3958C4.2834 14.1848 4.40837 13.7152 4.19543 13.3493C3.98441 12.9837 3.51479 12.8596 3.14912 13.0705V13.0705Z" fill="white"/>
<path d="M10.0019 5.14522C10.4248 5.14419 10.7683 4.79982 10.7683 4.37661L10.7676 0.766427C10.7676 0.343496 10.4231 0 9.99983 0C9.57573 0.00117481 9.23224 0.345687 9.2334 0.768607V4.37864C9.23325 4.80273 9.57791 5.14623 10.0019 5.14522H10.0019Z" fill="white"/>
<path d="M3.91514 9.99885C3.91412 9.57592 3.56946 9.23242 3.14654 9.23242L0.767407 9.2333C0.344475 9.23433 -0.000185902 9.57782 0.000979509 10.0022C0.0018606 10.4251 0.34652 10.7698 0.769587 10.7686L3.14872 10.7675C3.57281 10.7664 3.91631 10.4219 3.91514 9.99886V9.99885Z" fill="white"/>
<path d="M14.2045 7.57101C14.4164 7.93799 14.8861 8.06413 15.2531 7.85414L18.3795 6.04877C18.7465 5.83877 18.8726 5.36813 18.6616 5.00114C18.4506 4.63445 17.981 4.50712 17.6131 4.71816L14.4875 6.52368C14.1207 6.73456 13.9935 7.20421 14.2045 7.57101L14.2045 7.57101Z" fill="white"/>
<path d="M6.34428 16.3351C5.97642 16.123 5.50575 16.2492 5.29267 16.6169L4.71906 17.6105C4.50716 17.9784 4.6333 18.449 4.99999 18.6621C5.36888 18.8743 5.83969 18.7482 6.05175 18.3803L6.62521 17.3857C6.83741 17.0178 6.71127 16.547 6.34428 16.3351V16.3351Z" fill="white"/>
<path d="M14.2327 17.3324C13.868 17.5446 13.7428 18.0143 13.9547 18.3801C14.1669 18.7447 14.6366 18.8696 15.0022 18.6577C15.367 18.4456 15.4921 17.9759 15.2802 17.6103C15.068 17.2456 14.5984 17.1205 14.2327 17.3324V17.3324Z" fill="white"/>
<path d="M19.2342 9.23364H15.6252C15.2019 9.23276 14.8584 9.57625 14.8574 9.99816C14.8565 10.4211 15.199 10.7646 15.6219 10.7657H19.232C19.6539 10.7669 19.9984 10.4245 19.9996 10.0014C20.0007 9.57816 19.6572 9.23466 19.2342 9.23364Z" fill="white"/>
<path d="M9.99983 17.9329C9.57689 17.9339 9.2334 18.2786 9.2334 18.7015L9.23443 19.2337C9.23545 19.6578 9.58011 20.0013 10.003 20.0001C10.426 20.0001 10.7695 19.6547 10.7695 19.2325L10.7684 18.6991C10.7684 18.2764 10.4238 17.9329 9.99983 17.9329V17.9329Z" fill="white"/>
<path d="M15.0016 1.33811C14.6349 1.12517 14.1641 1.25132 13.9512 1.62021L12.1465 4.74581C11.9336 5.11367 12.0597 5.58434 12.4274 5.79742C12.7953 6.00962 13.266 5.88333 13.4781 5.51532L15.2837 2.38886C15.4957 2.021 15.3696 1.55033 15.0016 1.33815L15.0016 1.33811Z" fill="white"/>
<path d="M6.04624 1.62111C5.83536 1.25531 5.36572 1.13123 4.99978 1.34239C4.63397 1.55429 4.50989 2.02393 4.72105 2.38987L6.52763 5.51531C6.73865 5.88127 7.20826 6.00625 7.57394 5.79433C7.93975 5.58213 8.06383 5.11249 7.85193 4.7467L6.04624 1.62111Z" fill="white"/>
</g>
<defs>
<clipPath id="clip0_703_4688">
<rect width="19.9987" height="20" fill="white" transform="translate(0.000976562)"/>
</clipPath>
</defs>
</svg>
